<svg width="259" height="229" viewBox="0 0 259 229" fill="none" xmlns="http://www.w3.org/2000/svg">
<path d="M225.904 213.412H16.5771V215H225.904V213.412Z" fill="black"/>
<path d="M24.9363 160.318C48.2842 169.737 64.4194 163.307 83.3889 186.788C102.358 210.268 96.3698 215.253 60.427 204.059C11.1613 188.673 3.22054 151.528 24.9363 160.318Z" fill="#E6EBF0"/>
<path d="M54.6923 213.81L65.4344 209.067L63.0301 202.02C65.8211 199.972 68.2292 197.448 70.1437 194.564L77.2794 196.649L81.5254 185.719L74.9082 182.411C75.4278 178.989 75.3457 175.503 74.6655 172.11L81.1835 168.536L76.4412 157.794L69.3937 160.232C67.3429 157.443 64.8196 155.036 61.9383 153.118L64.0117 145.982L53.0711 141.736L49.7625 148.42C46.3419 147.891 42.8549 147.969 39.4616 148.651L35.8662 142.133L25.1241 146.876L27.4843 153.912C24.6978 155.965 22.2906 158.488 20.3707 161.368L13.2351 159.294L9 170.235L15.6173 173.543C15.0973 176.961 15.1794 180.444 15.8599 183.833L9.34189 187.418L14.0843 198.16L21.1207 195.755C23.1713 198.544 25.6946 200.951 28.5761 202.869L26.4917 210.005L37.4433 214.24L40.7519 207.567C44.1728 208.091 47.6589 208.012 51.0528 207.336L54.6923 213.81ZM25.8851 186.579C24.1923 182.744 23.6748 178.493 24.3978 174.364C25.1209 170.235 27.0521 166.412 29.9474 163.381C32.8426 160.349 36.5718 158.244 40.6634 157.331C44.755 156.418 49.0254 156.74 52.9345 158.254C56.8436 159.768 60.2159 162.408 62.625 165.838C65.0341 169.269 66.3719 173.337 66.4692 177.528C66.5664 181.719 65.4188 185.845 63.1714 189.384C60.924 192.923 57.6778 195.716 53.8431 197.41C48.6992 199.679 42.8648 199.813 37.6222 197.782C32.3797 195.751 28.158 191.722 25.8851 186.579Z" fill="#3CBCC3"/>
<path d="M174.862 86.8339C172.778 84.8818 169.899 84.9039 170.109 81.3195C170.109 80.4924 170.704 79.6873 170.76 78.827C170.841 78.1907 170.771 77.544 170.554 76.9401C170.338 76.3362 169.981 75.7923 169.513 75.353C166.844 72.9818 163.845 75 163.139 69.6731C162.94 68.1732 163.635 66.8497 162.234 65.7138C160.029 63.9051 154.768 65.2285 153.147 67.0262C153.091 67.0924 155.121 67.8865 155.055 67.9526L154.856 68.1953C154.8 68.2714 154.759 68.3575 154.735 68.4489C153.566 70.4672 154.227 73.6435 155.65 75.375C156.157 75.9816 159.499 76.5992 158.308 81.9923C158.145 82.7136 158.137 83.4614 158.285 84.186C158.434 84.9105 158.735 85.5952 159.168 86.1943C159.418 86.526 159.706 86.826 160.029 87.0876C160.731 87.5878 161.216 88.3373 161.385 89.1831C161.176 92.1278 159.698 94.532 159.929 96.0209C159.97 96.7824 160.167 97.5274 160.506 98.2102C160.846 98.893 161.321 99.4991 161.903 99.9913C164.33 101.921 172.745 102.318 176.561 98.1054C179.241 95.1166 177.366 89.1831 174.862 86.8339Z" fill="black"/>
<path d="M162.389 200.916V206.253C162.389 206.593 162.254 206.918 162.014 207.158C161.774 207.398 161.449 207.533 161.109 207.533H158.727C158.558 207.534 158.391 207.502 158.234 207.439C158.078 207.375 157.935 207.281 157.815 207.162C157.695 207.043 157.6 206.902 157.535 206.746C157.47 206.59 157.437 206.422 157.437 206.253V200.805L127.846 210.522C127.518 209.276 127.677 207.953 128.292 206.821C128.907 205.689 129.931 204.835 131.155 204.434L155.418 196.504V179.09C155.418 178.457 155.669 177.85 156.115 177.401C156.562 176.953 157.168 176.699 157.801 176.696H161.804C162.439 176.696 163.048 176.948 163.496 177.397C163.945 177.846 164.197 178.455 164.197 179.09V196.504L188.461 204.489C189.688 204.886 190.715 205.739 191.331 206.872C191.946 208.005 192.103 209.331 191.769 210.577L162.389 200.916Z" fill="white"/>
<path d="M161.76 176.972C162.322 176.972 162.86 177.195 163.257 177.593C163.655 177.99 163.878 178.528 163.878 179.09V196.659L164.253 196.78L188.34 204.699C189.456 205.065 190.397 205.83 190.983 206.848C191.57 207.866 191.759 209.064 191.516 210.213L162.841 200.784L162.113 200.541V206.265C162.113 206.531 162.007 206.786 161.819 206.975C161.631 207.163 161.376 207.268 161.109 207.268H158.727C158.46 207.268 158.204 207.163 158.014 206.975C157.824 206.787 157.715 206.532 157.713 206.265V200.431L156.985 200.673L127.968 210.213C127.724 209.064 127.914 207.866 128.5 206.848C129.087 205.83 130.028 205.065 131.144 204.699L155.231 196.78L155.617 196.648V179.09C155.617 178.53 155.839 177.993 156.233 177.596C156.628 177.2 157.164 176.975 157.724 176.972H161.76ZM161.76 176.421H157.757C157.407 176.421 157.06 176.49 156.737 176.624C156.414 176.759 156.12 176.955 155.873 177.203C155.626 177.451 155.431 177.746 155.298 178.069C155.165 178.393 155.097 178.74 155.099 179.09V196.251L131.012 204.225C129.693 204.664 128.599 205.603 127.966 206.841C127.333 208.079 127.211 209.515 127.626 210.842L157.194 201.114V206.188C157.194 206.393 157.235 206.596 157.314 206.785C157.392 206.975 157.508 207.147 157.654 207.291C157.799 207.436 157.972 207.55 158.162 207.628C158.352 207.705 158.555 207.744 158.76 207.743H161.109C161.522 207.743 161.917 207.579 162.209 207.287C162.501 206.996 162.664 206.6 162.664 206.188V201.225L191.902 210.842C192.317 209.514 192.193 208.076 191.557 206.838C190.922 205.6 189.826 204.662 188.505 204.225L164.418 196.295V179.09C164.418 178.382 164.137 177.703 163.636 177.203C163.136 176.702 162.457 176.421 161.749 176.421H161.76Z" fill="black"/>
<path d="M184.027 208.955C184.027 207.921 184.334 206.911 184.908 206.051C185.483 205.191 186.299 204.521 187.254 204.125C188.21 203.73 189.261 203.626 190.275 203.828C191.289 204.03 192.22 204.528 192.952 205.259C193.683 205.99 194.18 206.921 194.382 207.935C194.584 208.949 194.48 210 194.085 210.956C193.689 211.911 193.019 212.727 192.159 213.302C191.3 213.876 190.289 214.183 189.255 214.183C187.869 214.183 186.539 213.632 185.558 212.652C184.578 211.671 184.027 210.342 184.027 208.955Z" fill="black"/>
<path d="M185.196 208.957C185.196 208.148 185.436 207.357 185.885 206.684C186.335 206.011 186.974 205.486 187.722 205.177C188.469 204.867 189.292 204.786 190.086 204.944C190.879 205.102 191.609 205.491 192.181 206.064C192.753 206.636 193.143 207.365 193.301 208.159C193.458 208.952 193.377 209.775 193.068 210.523C192.758 211.27 192.234 211.909 191.561 212.359C190.888 212.809 190.097 213.049 189.287 213.049C188.202 213.049 187.162 212.618 186.394 211.85C185.627 211.083 185.196 210.042 185.196 208.957Z" fill="black"/>
<path d="M154.701 208.955C154.701 207.921 155.008 206.911 155.582 206.051C156.157 205.191 156.973 204.521 157.928 204.125C158.884 203.73 159.935 203.626 160.949 203.828C161.963 204.03 162.894 204.528 163.625 205.259C164.356 205.99 164.854 206.921 165.056 207.935C165.258 208.949 165.154 210 164.759 210.956C164.363 211.911 163.693 212.727 162.833 213.302C161.973 213.876 160.963 214.183 159.929 214.183C158.542 214.183 157.213 213.632 156.232 212.652C155.252 211.671 154.701 210.342 154.701 208.955Z" fill="black"/>
<path d="M155.849 208.957C155.849 208.147 156.089 207.356 156.539 206.683C156.989 206.009 157.629 205.485 158.377 205.176C159.125 204.866 159.949 204.786 160.743 204.945C161.537 205.103 162.266 205.494 162.837 206.068C163.409 206.641 163.798 207.371 163.955 208.165C164.111 208.96 164.029 209.783 163.717 210.53C163.406 211.278 162.88 211.916 162.206 212.364C161.531 212.813 160.739 213.051 159.929 213.049C158.846 213.046 157.808 212.613 157.043 211.846C156.278 211.079 155.849 210.04 155.849 208.957Z" fill="black"/>
<path d="M124.538 208.955C124.538 207.921 124.844 206.91 125.419 206.05C125.994 205.19 126.811 204.52 127.767 204.124C128.723 203.729 129.775 203.626 130.789 203.829C131.804 204.031 132.735 204.53 133.466 205.263C134.196 205.995 134.693 206.927 134.894 207.942C135.094 208.957 134.989 210.008 134.592 210.963C134.194 211.918 133.523 212.734 132.662 213.307C131.8 213.88 130.789 214.185 129.754 214.183C128.37 214.18 127.043 213.628 126.065 212.648C125.087 211.668 124.538 210.34 124.538 208.955Z" fill="black"/>
<path d="M125.641 208.957C125.641 208.147 125.881 207.356 126.331 206.683C126.781 206.009 127.421 205.485 128.169 205.176C128.917 204.866 129.741 204.786 130.535 204.945C131.329 205.103 132.058 205.494 132.629 206.068C133.201 206.641 133.59 207.371 133.747 208.165C133.903 208.96 133.821 209.783 133.509 210.53C133.198 211.278 132.672 211.916 131.998 212.364C131.323 212.813 130.531 213.051 129.721 213.049C129.184 213.049 128.653 212.943 128.157 212.737C127.661 212.531 127.211 212.23 126.832 211.85C126.453 211.469 126.153 211.018 125.948 210.522C125.744 210.026 125.639 209.494 125.641 208.957Z" fill="black"/>
<path d="M126.523 169.395C126.523 169.941 126.63 170.482 126.839 170.986C127.048 171.491 127.355 171.949 127.741 172.335C128.127 172.721 128.585 173.027 129.09 173.236C129.594 173.445 130.135 173.553 130.681 173.553H165.344L167.837 172.781C174.09 170.785 190.071 165.579 191.13 163.958C192.453 161.873 195.618 132.515 195.618 132.515H160.933C159.851 132.444 158.784 132.799 157.96 133.503C157.136 134.208 156.62 135.207 156.521 136.287L155.716 154.661C155.474 157.537 154.163 160.218 152.042 162.175C149.921 164.133 147.144 165.225 144.257 165.237H130.681C129.578 165.237 128.521 165.675 127.741 166.455C126.961 167.235 126.523 168.292 126.523 169.395Z" fill="#3CBCC3"/>
<path d="M152.584 178.859H166.249C168.245 178.859 169.877 175.981 169.877 172.43H148.922C148.955 175.97 150.588 178.859 152.584 178.859Z" fill="black"/>
<path d="M126.523 169.397C126.523 169.943 126.63 170.484 126.839 170.988C127.048 171.493 127.355 171.951 127.741 172.337C128.127 172.723 128.585 173.03 129.09 173.238C129.594 173.447 130.135 173.555 130.681 173.555H167.815V165.239H130.681C129.578 165.239 128.521 165.677 127.741 166.457C126.961 167.237 126.523 168.294 126.523 169.397Z" fill="#3CBCC3"/>
<path d="M165.344 173.555H178.866C183.842 173.534 188.631 171.649 192.287 168.272C195.943 164.896 198.202 160.272 198.618 155.313L199.423 136.939C199.51 135.839 199.156 134.75 198.439 133.911C197.722 133.073 196.702 132.553 195.602 132.467C194.502 132.381 193.413 132.735 192.574 133.451C191.736 134.168 191.216 135.189 191.13 136.288L190.325 154.651C190.082 157.528 188.772 160.211 186.651 162.17C184.53 164.13 181.753 165.224 178.866 165.239H165.344C164.242 165.239 163.184 165.677 162.404 166.457C161.625 167.237 161.187 168.294 161.187 169.397C161.187 170.5 161.625 171.557 162.404 172.337C163.184 173.117 164.242 173.555 165.344 173.555Z" fill="black"/>
<path d="M88.7603 201.269L89.4771 195.445L93.4365 197.342L90.8998 201.996L88.7603 201.269Z" fill="white"/>
<path d="M89.7087 195.853L93.0173 197.463L90.7343 201.654L89.0138 201.07L89.6645 195.853H89.7087ZM89.2565 195.026L88.4624 201.445L91.0431 202.327L93.8224 197.21L89.2565 195.004V195.026Z" fill="black"/>
<path d="M88.2637 200.608C88.2637 200.608 77.3672 196.924 73.3638 201.766L91.1312 207.766C91.1312 207.766 93.8994 204.358 91.3187 201.821C90.747 201.985 90.1371 201.955 89.5844 201.735C89.0317 201.516 88.5673 201.119 88.2637 200.608Z" fill="black"/>
<path d="M114.689 201.026L119.089 201.567L118.174 206.794L115.262 206.938L114.689 201.026Z" fill="white"/>
<path d="M114.998 201.346L118.77 201.798L117.942 206.518L115.516 206.651L114.998 201.346ZM114.391 200.706L115.02 207.224L118.417 207.048L119.42 201.324L114.391 200.706Z" fill="black"/>
<path d="M140.871 137.081C140.871 137.081 115.384 141.36 106.395 150.492C95.5541 161.521 87.9663 195.787 87.9663 195.787L93.8226 198.71C93.8226 198.71 110.983 172.053 117.314 165.624C123.644 159.194 142.338 164.83 152.187 159.845C171.885 149.841 140.871 137.081 140.871 137.081Z" fill="black"/>
<path d="M99.5796 189.701C99.5796 189.701 114.226 166.331 119.851 163.441C125.475 160.551 152.11 147.251 152.11 147.251L147.698 141.736C147.698 141.736 118.726 144.505 112.02 154C102.171 167.83 99.5796 189.701 99.5796 189.701Z" fill="black"/>
<path d="M169.855 137.081C169.855 137.081 131.056 141.956 122.056 151.088C111.226 162.116 113.961 202.327 113.961 202.327L119.839 203.011C119.839 203.011 128.023 174.48 134.342 168.05C140.662 161.62 156.223 167.84 166.524 163.859C183.608 157.275 169.855 137.081 169.855 137.081Z" fill="black"/>
<path d="M121.395 135.901C116.729 135.901 108.16 133.077 103.054 131.39C101.51 130.872 100.285 130.475 99.5354 130.287C98.995 130.133 98.0355 128.324 97.4399 126.89H97.5833C105.965 126.89 122.299 123.791 123.291 122.016C123.522 121.468 123.725 120.908 123.898 120.339C125.508 115.641 129.776 103.167 135.842 100.079C136.268 99.816 136.746 99.6468 137.243 99.583C137.651 99.583 137.783 99.947 138.103 101.083C138.213 101.491 138.346 101.965 138.533 102.495C140.353 107.822 138.048 119.81 133.791 127.166C132.82 128.853 132.115 130.21 131.585 131.291C129.379 135.504 129.379 135.504 122.839 135.857H121.99L121.395 135.901Z" fill="white"/>
<path d="M137.243 99.8376C137.442 99.8376 137.563 100.124 137.839 101.128C137.949 101.547 138.081 102.021 138.269 102.562C140.066 107.822 137.783 119.7 133.559 127.002C132.578 128.7 131.872 130.057 131.354 131.137C129.247 135.218 129.247 135.218 122.839 135.549H121.99H121.439C116.818 135.549 108.281 132.737 103.186 131.049C101.631 130.542 100.407 130.134 99.6458 129.946C98.869 129.128 98.275 128.155 97.9033 127.09C105.976 127.024 122.464 124.068 123.567 122.072C123.822 121.514 124.035 120.939 124.207 120.351C125.652 116.127 130.052 103.29 136.019 100.246C136.407 100.008 136.838 99.851 137.287 99.7824L137.243 99.8376ZM137.243 99.2861C136.704 99.3479 136.185 99.5246 135.721 99.8045C128.376 103.554 123.589 120.814 123.049 121.862C122.178 123.417 106.23 126.593 97.5945 126.593H97.021C97.021 126.593 98.4658 130.255 99.4584 130.531C102.767 131.435 115.285 136.177 121.395 136.177H121.979C131.354 135.648 128.971 136.056 134.034 127.288C138.335 119.855 140.651 107.844 138.787 102.396C138.125 100.455 138.136 99.2972 137.243 99.2972V99.2861Z" fill="black"/>
<path d="M95.2564 130.751C94.9397 130.755 94.624 130.714 94.319 130.629C94.0938 130.626 93.8722 130.573 93.67 130.474C93.4679 130.375 93.2902 130.232 93.1499 130.056C93.0966 129.99 93.0582 129.914 93.0372 129.832C93.0163 129.75 93.0133 129.665 93.0286 129.581V129.383L92.8521 129.295C92.6117 129.174 92.4234 128.971 92.3228 128.721C92.2851 128.641 92.2713 128.551 92.283 128.463C92.2947 128.375 92.3315 128.293 92.3889 128.225L92.5654 127.993L92.3117 127.828C92.2107 127.779 92.1282 127.699 92.0765 127.6C92.0248 127.501 92.0067 127.387 92.025 127.276C92.0352 127.136 92.0811 127.001 92.1583 126.883C92.2355 126.765 92.3414 126.669 92.4661 126.604L92.6867 126.46L92.5544 126.24C92.5039 126.133 92.4844 126.015 92.4981 125.898C92.5117 125.781 92.558 125.67 92.6316 125.578C92.7832 125.352 92.994 125.172 93.2409 125.057C93.4879 124.942 93.7616 124.897 94.0322 124.927C94.1975 124.916 94.3633 124.916 94.5285 124.927C95.2799 124.935 96.0251 125.065 96.7343 125.313L97.396 125.578L97.0762 124.938C96.8142 124.59 96.6312 124.188 96.5398 123.761C96.4484 123.335 96.4508 122.893 96.5468 122.468C96.5653 122.378 96.6159 122.299 96.689 122.244C96.7621 122.189 96.8527 122.163 96.9438 122.17C97.0229 122.164 97.1019 122.184 97.1679 122.228C97.234 122.272 97.2832 122.337 97.3078 122.413C97.5997 123.415 98.0343 124.369 98.5981 125.247C98.8777 125.743 99.054 126.291 99.1165 126.857V126.99H99.2047H99.2709H99.3591C101.157 127.089 102.227 127.828 102.227 128.468C102.227 129.107 100.98 130.309 96.3703 130.475C96.008 130.6 95.6352 130.692 95.2564 130.751Z" fill="white"/>
<path d="M96.9659 122.489C97.0431 122.489 97.0541 122.489 97.0541 122.489C97.3662 123.512 97.8151 124.488 98.3886 125.39C98.646 125.857 98.8072 126.371 98.8628 126.901V127.122L98.929 127.177L99.0393 127.265L99.1716 127.364H99.3371C101.047 127.463 101.951 128.125 101.951 128.566C101.951 129.008 100.418 130.155 96.3593 130.298H96.2821C95.9186 130.368 95.5494 130.405 95.1792 130.408C94.892 130.418 94.6052 130.38 94.33 130.298H94.2748C94.0992 130.296 93.926 130.256 93.7677 130.18C93.6095 130.104 93.4701 129.993 93.3595 129.857C93.3274 129.819 93.3039 129.775 93.2906 129.727C93.2773 129.68 93.2744 129.63 93.2823 129.581L93.3484 129.206L93.0176 129.008C92.8321 128.923 92.6833 128.774 92.5985 128.588C92.5772 128.552 92.566 128.51 92.566 128.467C92.566 128.424 92.5772 128.383 92.5985 128.346L92.9404 127.872L92.4551 127.552C92.3946 127.529 92.3444 127.485 92.314 127.429C92.2835 127.372 92.2749 127.306 92.2897 127.243C92.2897 127.122 92.2897 126.967 92.6095 126.791L93.0396 126.504L92.786 126.052C92.786 126.052 92.7088 125.919 92.8632 125.666C92.9885 125.494 93.1556 125.358 93.3487 125.269C93.5417 125.18 93.7542 125.142 93.966 125.158C94.1203 125.149 94.275 125.149 94.4292 125.158H94.5726C95.2617 125.169 95.9442 125.295 96.5909 125.533L97.4732 125.864L97.3298 124.938V124.795L97.2416 124.695C97.0121 124.382 96.8521 124.023 96.7722 123.642C96.6924 123.262 96.6945 122.869 96.7784 122.489C96.7784 122.423 96.9107 122.423 96.9107 122.423L96.9659 122.489ZM96.9659 121.938C96.8107 121.932 96.6584 121.98 96.5354 122.075C96.4124 122.17 96.3266 122.305 96.2931 122.456C96.195 122.912 96.1944 123.384 96.2914 123.84C96.3883 124.296 96.5806 124.727 96.8556 125.103C96.1486 124.844 95.4028 124.706 94.6498 124.695H94.5836C94.4037 124.684 94.2232 124.684 94.0432 124.695C93.7259 124.667 93.407 124.725 93.1198 124.863C92.8326 125.001 92.5878 125.213 92.411 125.478C92.3098 125.611 92.2487 125.77 92.235 125.936C92.2213 126.102 92.2556 126.268 92.3338 126.416C92.1722 126.503 92.0352 126.63 91.935 126.784C91.8349 126.938 91.7748 127.115 91.7603 127.298C91.7426 127.459 91.773 127.621 91.8476 127.764C91.9222 127.908 92.0377 128.026 92.1794 128.103C92.0951 128.209 92.0404 128.335 92.021 128.469C92.0017 128.602 92.0182 128.739 92.0691 128.864C92.1963 129.172 92.4316 129.423 92.7308 129.57C92.7063 129.691 92.7084 129.816 92.7369 129.936C92.7655 130.056 92.8199 130.168 92.8962 130.265C93.0514 130.464 93.2484 130.626 93.4733 130.741C93.6982 130.855 93.9455 130.918 94.1976 130.927C94.5292 131.031 94.8758 131.08 95.2233 131.07C95.6306 131.067 96.0367 131.026 96.4365 130.949C104.499 130.651 103.605 127.155 99.4253 126.912C99.3573 126.31 99.1658 125.728 98.8628 125.203C98.3133 124.345 97.8899 123.413 97.6055 122.434C97.5642 122.302 97.4802 122.186 97.3664 122.107C97.2527 122.027 97.1157 121.987 96.9769 121.993L96.9659 121.938Z" fill="black"/>
<path d="M99.7782 130.023L99.6459 129.924L98.2783 127.288L98.4107 127.112L98.7967 126.648H99.0062C99.2158 126.891 99.7121 127.012 100.528 127.012C101.666 127.238 102.722 127.768 103.583 128.545L102.8 129.803C102.605 129.917 102.398 130.01 102.183 130.078L101.399 130.31H100.297L99.7782 130.023Z" fill="white"/>
<path d="M98.8849 127.023C99.3759 127.357 99.9727 127.498 100.561 127.42C101.554 127.596 102.485 128.025 103.263 128.666C103.131 128.865 102.932 129.185 102.646 129.648C102.487 129.736 102.321 129.81 102.149 129.868L101.433 130.078H100.429L99.9437 129.813L99.8665 129.758L98.6092 127.332L98.8849 127.001V127.023ZM98.6864 126.405L98.1901 127.001L97.9585 127.321L99.4364 130.166L99.6459 130.32L100.297 130.662H101.521L102.304 130.431C102.562 130.344 102.81 130.23 103.043 130.089L103.98 128.578C103.016 127.716 101.833 127.136 100.561 126.902C99.1496 126.902 99.2047 126.527 99.2047 126.527L98.6974 126.438L98.6864 126.405Z" fill="black"/>
<path d="M142.879 117.802C140.022 118.289 137.096 118.196 134.276 117.527C133.725 117.407 133.183 117.249 132.655 117.053C130.037 116.103 127.648 114.615 125.641 112.685C125.938 111.196 128.243 101.27 133.361 96.7485C134.831 95.4587 136.449 94.348 138.18 93.4398C140.033 92.4803 142.007 91.9509 143.463 92.7671C143.708 92.9068 143.934 93.0773 144.136 93.2744C148.713 97.697 145.559 109.376 142.879 117.802Z" fill="#3CBCC3"/>
<path d="M138.721 118.399C136.668 118.102 134.641 117.652 132.655 117.053C139.703 112.079 132.942 105.208 135.28 102.12C136.284 100.808 136.802 94.4881 138.269 93.4184C140.122 92.4588 142.096 91.9295 143.552 92.7456C142.261 93.7713 139.835 96.0542 138.655 96.8593C136.548 99.7268 138.401 104.138 138.445 107.646C138.567 108.351 139.107 118.2 138.721 118.399Z" fill="black"/>
<path d="M126.743 140.037C148.492 149.522 172.546 137.589 172.645 137.545C172.248 136.762 167.384 128.556 166.028 125.567C165.371 123.967 164.969 122.274 164.837 120.549C164.574 117.983 164.574 115.396 164.837 112.829C164.925 111.892 165.024 111.186 165.068 110.855C165.077 110.815 165.077 110.774 165.068 110.734C166.811 102.032 170.583 91.7089 160.513 88.5216C159.076 88.0899 157.597 87.809 156.102 87.6834C153.973 87.5261 151.834 87.5261 149.705 87.6834C147.445 88.503 145.235 89.4568 143.088 90.5398C141.886 91.1464 140.617 91.8412 139.404 92.6022C135.754 94.8852 134.993 99.4732 135.092 102.594C135.18 104.8 137.772 109.377 138.478 110.314C136.934 120.549 128.364 137.059 126.743 140.037Z" fill="#3CBCC3"/>
<path d="M147.698 90.627C147.57 90.6438 147.44 90.6438 147.312 90.627C147.265 90.6252 147.218 90.611 147.178 90.5859C147.137 90.5607 147.104 90.5255 147.081 90.4836C147.028 89.8936 147.176 89.303 147.5 88.8072V88.741V84.7155L152.827 82.5098V87.4617C152.353 87.947 149.695 90.6159 147.665 90.6159L147.698 90.627Z" fill="white"/>
<path d="M152.628 82.9088V87.3204C151.69 88.2799 149.385 90.3092 147.731 90.3092C147.61 90.3196 147.488 90.3196 147.367 90.3092C147.355 89.8045 147.498 89.3081 147.775 88.8864L147.841 88.7541V84.894L152.628 82.9088ZM153.179 82.0817L147.29 84.519V88.5997C147.29 88.5997 146.187 90.6069 147.29 90.8055C147.437 90.8223 147.585 90.8223 147.731 90.8055C150.102 90.8055 153.179 87.4968 153.179 87.4968V81.9824V82.0817Z" fill="black"/>
<path d="M168.079 139.783C158.771 139.397 148.139 133.618 147.125 133.022L147.047 132.835H146.75C146.405 132.998 146.028 133.081 145.647 133.077C144.721 133.041 143.819 132.776 143.022 132.305H142.956C142.699 132.289 142.441 132.289 142.184 132.305C141.219 132.309 140.261 132.473 139.349 132.79C139.306 132.8 139.261 132.8 139.217 132.79C139.171 132.79 139.127 132.779 139.087 132.758C139.046 132.737 139.012 132.706 138.985 132.669C138.942 132.605 138.914 132.532 138.902 132.456C138.891 132.38 138.897 132.302 138.919 132.228L139.096 131.688L138.566 131.875C138.179 132.003 137.809 132.177 137.463 132.393C137.405 132.435 137.336 132.458 137.265 132.46C137.197 132.453 137.132 132.43 137.076 132.391C137.02 132.352 136.975 132.3 136.945 132.239C136.909 132.173 136.891 132.099 136.891 132.024C136.891 131.949 136.909 131.875 136.945 131.809L137.43 131.048L136.46 131.467C136.346 131.506 136.235 131.554 136.129 131.61C136.064 131.63 135.995 131.63 135.93 131.61C135.832 131.604 135.738 131.566 135.663 131.502C135.588 131.439 135.535 131.353 135.511 131.257C135.489 131.181 135.496 131.1 135.531 131.028C135.565 130.957 135.625 130.901 135.699 130.871L135.897 130.783L136.173 130.662V130.375C136.12 130.283 136.103 130.174 136.126 130.071C136.148 129.967 136.208 129.875 136.294 129.813C137.862 128.85 139.685 128.388 141.522 128.489H142.559C142.806 128.447 143.057 128.425 143.309 128.423H143.287C143.628 128.423 143.959 128.423 144.29 128.423C144.783 128.42 145.274 128.468 145.757 128.566L148.977 128.776C153.201 129.063 159.576 129.493 162.819 129.493C164.738 129.493 165.024 129.36 165.024 129.074C165.421 127.309 165.024 118.861 163.403 114.924C163.233 114.299 163.115 113.66 163.05 113.016C163.014 112.262 162.862 111.518 162.598 110.81C162.598 110.81 162.598 110.545 162.819 110.082C163.767 108.351 167.285 105.119 170.627 105.119C172.535 105.119 174.046 106.222 175.116 108.428C177.321 118.574 177.321 132.173 172.91 137.533C172.372 138.251 171.675 138.834 170.873 139.236C170.071 139.638 169.186 139.848 168.289 139.849L168.079 139.783Z" fill="white"/>
<path d="M170.627 104.833V105.385C172.436 105.385 173.858 106.421 174.873 108.473C177.079 118.63 176.847 132.152 172.734 137.236C172.22 137.921 171.554 138.477 170.788 138.86C170.022 139.242 169.178 139.442 168.322 139.442H168.057C159.058 139.067 148.757 133.596 147.268 132.824L147.103 132.339L146.54 132.626C146.221 132.768 145.875 132.84 145.525 132.835C144.648 132.791 143.793 132.538 143.033 132.096H142.934H142.812C142.548 132.08 142.283 132.08 142.018 132.096C141.008 132.104 140.005 132.279 139.052 132.615C139.034 132.585 139.025 132.55 139.025 132.516C139.025 132.481 139.034 132.447 139.052 132.416L139.404 131.313L138.302 131.688C137.894 131.817 137.504 131.999 137.144 132.229H137.088C137.088 132.229 137.088 132.229 137.011 132.152C137 132.129 136.995 132.105 136.995 132.08C136.995 132.055 137 132.031 137.011 132.008L137.982 130.486L136.327 131.203H136.195C136.07 131.246 135.949 131.298 135.831 131.358H135.765C135.729 131.351 135.696 131.334 135.671 131.309C135.645 131.283 135.628 131.25 135.622 131.214C135.622 131.214 135.622 131.214 135.622 131.137L135.809 131.049H135.886L136.427 130.828L136.173 130.31C136.107 130.166 136.173 130.111 136.173 130.089C137.703 129.167 139.474 128.725 141.257 128.821H142.305H142.371C142.591 128.799 142.813 128.799 143.033 128.821H143.287C143.595 128.821 143.915 128.821 144.235 128.821C144.706 128.812 145.176 128.86 145.636 128.964H145.735L148.911 129.163C153.124 129.45 159.51 129.88 162.763 129.88C164.561 129.88 165.135 129.791 165.256 129.24C165.664 127.453 165.256 118.917 163.635 114.903C163.47 114.299 163.356 113.683 163.293 113.061C163.239 112.308 163.083 111.566 162.83 110.855C163.073 110.143 163.494 109.505 164.054 109.002C165.532 107.403 168.135 105.539 170.583 105.539V104.988L170.627 104.833ZM170.627 104.833C166.381 104.833 161.804 109.962 162.377 110.943C162.697 111.451 162.863 114.252 163.161 114.98C164.738 118.906 165.146 127.288 164.771 128.964C164.771 129.108 163.988 129.174 162.808 129.174C158.396 129.174 148.128 128.38 145.801 128.258C145.301 128.151 144.791 128.099 144.279 128.104C143.937 128.104 143.606 128.104 143.287 128.104H143.132C142.877 128.104 142.622 128.126 142.371 128.17C140.088 128.325 137.96 128.17 135.952 129.593C135.814 129.693 135.717 129.84 135.678 130.006C135.64 130.172 135.663 130.347 135.743 130.497L135.434 130.641C134.772 130.994 135.18 131.898 135.798 131.898C135.914 131.898 136.028 131.867 136.129 131.81C136.275 131.736 136.426 131.674 136.581 131.622C136.514 131.727 136.475 131.847 136.468 131.971C136.461 132.096 136.487 132.219 136.543 132.331C136.598 132.442 136.682 132.537 136.785 132.606C136.889 132.675 137.008 132.716 137.133 132.725C137.258 132.723 137.381 132.684 137.485 132.615C137.814 132.411 138.165 132.248 138.533 132.13C138.493 132.226 138.476 132.331 138.484 132.435C138.491 132.54 138.523 132.641 138.577 132.731C138.63 132.821 138.704 132.897 138.792 132.954C138.88 133.01 138.981 133.045 139.085 133.056C139.161 133.07 139.24 133.07 139.316 133.056C140.195 132.747 141.12 132.587 142.051 132.582C142.301 132.566 142.552 132.566 142.801 132.582C143.641 133.071 144.587 133.348 145.559 133.387C145.992 133.395 146.422 133.305 146.816 133.122C146.818 133.148 146.818 133.174 146.816 133.199C146.816 133.199 158.109 139.64 168.046 140.048H168.333C177.774 140.048 177.961 120.263 175.402 108.363C175.402 108.363 175.402 108.285 175.402 108.23C174.167 105.727 172.458 104.822 170.66 104.822L170.627 104.833Z" fill="black"/>
<path d="M143.287 111.66C146.474 114.087 151.007 114.12 154.724 115.532C157.966 116.789 161.341 119.8 164.771 120.55C164.508 117.983 164.508 115.396 164.771 112.83C164.747 112.785 164.713 112.748 164.672 112.719C164.771 112.102 164.87 111.484 165.002 110.855C164.992 110.816 164.992 110.774 165.002 110.734C164.167 109.221 163.086 107.857 161.804 106.697C157.69 102.76 158.727 93.0107 158.727 93.0107C157.779 97.8634 157.536 105.297 159.157 108.275C160.12 109.959 161.227 111.557 162.466 113.05C162.466 113.05 162.466 113.149 162.466 113.216C162.565 114.815 152.749 111.561 151.58 111.252C149.009 110.516 146.333 110.211 143.662 110.348C142.923 110.392 142.857 111.308 143.287 111.66Z" fill="black"/>
<path d="M162.036 116.226C161.22 114.936 156.014 106.19 156.522 99.4294C156.775 96.3523 157.845 89.5034 161.738 89.5917C167.969 89.7902 173.793 100.433 177.675 108.341C173.826 113.282 169.072 116.204 162.036 116.226Z" fill="#3CBCC3"/>
<path d="M163.9 90.3404L162.94 89.7669C162.576 89.5464 160.282 88.6641 160.282 88.6641L156.576 93.0756L156.19 97.829L157.856 98.9319C157.856 98.9319 157.966 98.5018 158.187 98.8216C158.417 99.0473 158.716 99.1907 159.036 99.2297L161.242 96.693C161.242 96.693 163.128 93.8035 163.249 93.5939C163.37 93.3844 163.9 90.3404 163.9 90.3404Z" fill="#3CBCC3"/>
<path d="M139.372 92.8334C138.685 93.3724 137.946 93.8416 137.166 94.2341C136.604 94.4106 133.968 96.5171 134.089 98.403C134.21 100.289 134.762 103.333 134.762 103.333L134.872 102.781C134.872 102.781 134.872 102.23 135.225 102.583C135.578 102.936 136.229 102.506 136.229 102.506L137.806 99.9029L141.842 96.0759L144.379 95.2818L143.938 92.4033L139.372 92.8334Z" fill="#3CBCC3"/>
<path d="M148.139 86.4707C144.72 86.3273 142.096 82.2577 142.305 77.405C142.515 72.5524 145.36 68.8467 148.691 68.8467H148.867C152.297 68.979 154.911 73.0487 154.713 77.9013C154.514 82.754 151.658 86.4597 148.327 86.4597L148.139 86.4707Z" fill="white"/>
<path d="M148.691 69.1227H148.856C152.165 69.2661 154.636 73.2034 154.437 77.9458C154.239 82.6882 151.514 86.2174 148.327 86.2174H148.151C144.842 86.085 142.383 82.1477 142.57 77.3943C142.758 72.6409 145.493 69.1227 148.691 69.1227ZM148.691 68.5713C145.195 68.5713 142.228 72.4645 142.074 77.3943C141.919 82.3242 144.599 86.6034 148.173 86.7468H148.371C151.867 86.7468 154.834 82.8536 154.988 77.9237C155.143 72.9938 152.463 68.7257 148.879 68.5823L148.691 68.5713Z" fill="black"/>
<path d="M143.43 82.0698C142.978 82.0698 142.427 82.0698 142.096 81.9926C142.358 81.1682 142.698 80.3706 143.11 79.6104C143.464 80.3892 143.709 81.213 143.838 82.0587L143.43 82.0698Z" fill="white"/>
<path d="M143.077 80.2944C143.265 80.7834 143.42 81.2845 143.541 81.7944H143.43C143.121 81.7944 142.757 81.7944 142.46 81.7944C142.635 81.2965 142.841 80.8103 143.077 80.3386V80.2944ZM143.132 78.96C142.61 79.9077 142.175 80.9006 141.831 81.9267C141.823 81.9646 141.823 82.0037 141.831 82.0415C141.84 82.0794 141.856 82.115 141.879 82.1463C141.901 82.1775 141.931 82.2035 141.964 82.2227C141.998 82.2419 142.035 82.2538 142.074 82.2576C142.524 82.3134 142.977 82.3428 143.43 82.3458C143.613 82.3659 143.798 82.3659 143.982 82.3458C144.533 82.2135 143.132 79.0372 143.132 79.0372V78.96Z" fill="black"/>
<path d="M153.411 74.6359C152.917 74.7014 152.416 74.6045 151.982 74.3597C151.548 74.115 151.206 73.7358 151.007 73.2793C150.136 71.614 147.853 72.1764 146.331 73.2793C144.809 74.3822 143.265 75.3086 141.191 74.5697C139.614 74.0072 137.397 71.3934 139.702 68.934C141.798 66.7282 143.584 68.8678 144.434 67.4892C145.283 66.1106 147.665 64.5555 149.22 65.8459C150.775 67.1363 153.963 65.6474 155.507 65.9783C158.352 66.5848 159.289 72.0441 159.521 73.0367C160.624 77.6026 158.782 81.7164 156.301 82.0913C152.33 82.742 154.768 76.4887 153.411 74.6359Z" fill="black"/>
<path d="M154.117 79.5997C153.964 79.5972 153.813 79.5595 153.676 79.4895C153.485 79.4152 153.313 79.2995 153.172 79.1508C153.03 79.002 152.924 78.8239 152.86 78.6292C152.728 77.9422 152.833 77.2305 153.158 76.6109C153.158 76.6109 153.731 75.7617 154.415 75.7617C154.639 75.7701 154.853 75.8558 155.022 76.0044C155.276 76.3521 155.432 76.7614 155.475 77.19C155.517 77.6185 155.445 78.0507 155.264 78.4417C155.022 79.1696 154.591 79.5997 154.117 79.5997Z" fill="white"/>
<path d="M154.415 76.0368C154.574 76.0436 154.727 76.106 154.845 76.2133C155.231 76.511 155.297 77.5147 155.01 78.3528C154.845 78.8271 154.525 79.3234 154.117 79.3234C154.006 79.3228 153.896 79.2964 153.797 79.2462C153.642 79.1845 153.502 79.0906 153.386 78.9709C153.27 78.8511 153.181 78.7081 153.124 78.5514C153.007 77.9478 153.096 77.3223 153.378 76.7757C153.488 76.6213 153.952 76.0368 154.415 76.0368ZM154.415 75.4854C153.566 75.4854 152.926 76.4779 152.926 76.4779C152.926 76.4779 151.647 78.8491 153.577 79.7866C153.749 79.8694 153.937 79.9145 154.128 79.9189C155.672 79.9189 156.334 76.6875 155.231 75.8273C155.015 75.6364 154.736 75.5306 154.448 75.5295L154.415 75.4854Z" fill="black"/>
<path d="M142.702 79.1361L143.562 78.4082L144.665 81.4852V82.4778L144.037 82.555C143.918 82.5473 143.802 82.5174 143.695 82.4668C143.43 82.3675 143.287 81.1544 143.287 81.1544L142.702 79.1361Z" fill="white"/>
<path d="M153.731 75.3975L153.886 76.2577L153.985 79.5663C153.899 79.8767 153.899 80.2044 153.985 80.5148C154.139 81.0332 152.353 80.945 152.132 80.956C151.93 80.9342 151.735 80.8703 151.559 80.7685C151.345 79.7977 151.238 78.8067 151.239 77.8128C151.349 76.9194 151.426 76.4231 151.647 76.2356C152.324 75.9136 153.02 75.6336 153.731 75.3975Z" fill="white"/>
<path d="M115.196 206.332C115.196 206.332 103.693 206.332 101.443 212.199H120.192C120.192 212.199 121.725 208.075 118.472 206.508C117.983 206.844 117.396 207.009 116.804 206.977C116.212 206.945 115.646 206.718 115.196 206.332Z" fill="black"/>
<path d="M177.674 136.023L173.98 142.277H41.3802L37.6855 136.023H177.674Z" fill="#AAB6C2"/>
<path d="M174.333 214.438H177.63L171.929 142.276H164.925L174.333 214.438Z" fill="black"/>
<path d="M157.282 214.438H160.591L154.889 142.276H147.886L157.282 214.438Z" fill="#AAB6C2"/>
<path d="M42.3621 214.438H39.0645L44.7663 142.276H51.7586L42.3621 214.438Z" fill="#AAB6C2"/>
<path d="M58.1885 214.438H54.8799L60.5928 142.276H67.5851L58.1885 214.438Z" fill="black"/>
<path d="M177.674 136.023L173.98 142.277H145.283L143.143 136.023H177.674Z" fill="black"/>
<path d="M109.759 130.938L132.941 133.011L114.093 132.923L109.759 130.938Z" fill="black"/>
<path d="M114.369 133.199L132.677 133.287L132.754 135.548L114.358 135.956L114.369 133.199Z" fill="white"/>
<path d="M114.611 133.475L132.368 133.564V135.273L114.545 135.67V133.464L114.611 133.475ZM114.06 132.924V136.232L133.019 135.813L132.93 133.012L114.082 132.924H114.06Z" fill="black"/>
<path d="M73.5513 132.603L114.093 132.922L114.082 136.242L73.5513 135.658V132.603Z" fill="black"/>
<path d="M114.667 107.051C114.622 106.687 114.446 106.353 114.172 106.109C113.898 105.866 113.545 105.73 113.179 105.727L75.8902 105.43C75.5957 105.432 75.3084 105.521 75.063 105.683L72.9565 106.786L74.0594 108.319L74.3131 108.209L75.6586 131.535L114.16 132.947L116.267 132.572L114.667 107.051Z" fill="black"/>
<path d="M73.8053 132.318L72.4156 108.396C72.3902 108.199 72.4076 107.998 72.4666 107.808C72.5256 107.617 72.6248 107.442 72.7575 107.293C72.8947 107.137 73.0645 107.012 73.2551 106.928C73.4456 106.844 73.6523 106.803 73.8604 106.808L111.16 107.106C111.463 107.107 111.754 107.22 111.978 107.424C112.202 107.628 112.343 107.907 112.373 108.209L113.84 132.693L73.8053 132.318Z" fill="white"/>
<path d="M73.8049 107.062L111.082 107.36C111.311 107.357 111.533 107.437 111.707 107.585C111.881 107.733 111.996 107.939 112.031 108.165L113.509 132.362L74.0585 132.053L72.702 108.342C72.6869 108.184 72.7037 108.026 72.7516 107.875C72.7994 107.725 72.8772 107.586 72.9802 107.466C73.0833 107.347 73.2095 107.249 73.3512 107.18C73.4929 107.11 73.6473 107.07 73.8049 107.062ZM73.8049 106.511C73.5665 106.514 73.3314 106.567 73.1147 106.666C72.898 106.766 72.7045 106.909 72.5467 107.088C72.3888 107.267 72.27 107.476 72.198 107.704C72.126 107.931 72.1023 108.171 72.1285 108.408L73.5291 132.594L114.082 132.925L112.593 108.132C112.548 107.768 112.372 107.434 112.098 107.19C111.824 106.947 111.471 106.811 111.104 106.809L73.8049 106.511Z" fill="black"/>
<path d="M107.112 16.6693L15.5729 16.548C15.0984 16.5436 14.6277 16.633 14.1877 16.8109C13.7478 16.9888 13.3473 17.2518 13.0092 17.5848C12.6711 17.9177 12.402 18.3142 12.2174 18.7514C12.0328 19.1885 11.9363 19.6578 11.9334 20.1324L11.79 73.0706C11.7929 74.0176 12.168 74.9255 12.8346 75.5982C13.5011 76.2709 14.4054 76.6544 15.3523 76.666L75.1616 76.7763L94.5833 98.3487L89.1461 76.7984H94.2745L102.149 76.8645L106.913 76.7873C107.389 76.7902 107.86 76.6996 108.3 76.5204C108.74 76.3413 109.14 76.0773 109.478 75.7434C109.816 75.4096 110.085 75.0124 110.269 74.5746C110.454 74.1368 110.55 73.667 110.553 73.192L110.696 20.3088C110.702 19.3513 110.328 18.4305 109.656 17.7483C108.984 17.0661 108.069 16.6781 107.112 16.6693Z" fill="white"/>
<path d="M95.1239 99.3642L75.0515 77.053L15.3525 76.9427C14.8394 76.9369 14.3324 76.8298 13.8608 76.6274C13.3893 76.4251 12.9623 76.1314 12.6046 75.7635C12.2469 75.3955 11.9655 74.9605 11.7765 74.4833C11.5875 74.0062 11.4947 73.4964 11.5035 72.9833L11.6469 20.0451C11.6387 19.0202 12.035 18.0334 12.7498 17.2989C13.1123 16.9401 13.5431 16.6577 14.0167 16.4682C14.4902 16.2788 14.997 16.1862 15.507 16.196L107.046 16.3173C107.557 16.3217 108.063 16.4266 108.533 16.6263C109.004 16.826 109.431 17.1164 109.789 17.481C110.148 17.8456 110.431 18.2772 110.622 18.7512C110.814 19.2252 110.91 19.7323 110.906 20.2436L110.763 73.1819C110.754 74.2067 110.342 75.1868 109.615 75.9095C108.888 76.6322 107.906 77.0391 106.881 77.0419L102.127 77.1191L89.4661 77.0419L95.1239 99.3642ZM15.54 16.8247C14.6625 16.8247 13.821 17.1732 13.2005 17.7937C12.58 18.4142 12.2314 19.2558 12.2314 20.1333L12.0439 72.9833C12.0439 73.8608 12.3925 74.7024 13.013 75.3229C13.6335 75.9434 14.475 76.292 15.3525 76.292L75.2721 76.4023L75.3603 76.4905L94.0431 97.3349L88.7934 76.5236H94.3078L102.193 76.5898L106.947 76.5126C107.824 76.5126 108.666 76.164 109.286 75.5435C109.907 74.923 110.255 74.0814 110.255 73.2039L110.399 20.2656C110.403 19.8284 110.32 19.3946 110.155 18.9895C109.991 18.5844 109.747 18.2159 109.439 17.9055C109.134 17.5909 108.769 17.3401 108.365 17.1678C107.962 16.9955 107.529 16.9051 107.09 16.9019L15.5511 16.7805L15.54 16.8247Z" fill="black"/>
<path d="M25.9846 43.8875L25.9405 42.8066H16.9189L16.952 43.8875H25.9846Z" fill="#AAB6C2"/>
<path d="M36.0429 40.6453L36.0098 39.5645H16.9189L16.952 40.6453H36.0429Z" fill="#AAB6C2"/>
<path d="M32.271 37.4031L32.238 36.3223H16.9189L16.952 37.4031H32.271Z" fill="black"/>
<path d="M32.3593 37.458H16.9189V36.2559H32.3593V37.458ZM17.0403 37.3367H32.1828V36.3772H17.0072L17.0403 37.3367Z" fill="black"/>
<path d="M30.2197 43.8875L30.1866 42.8066H27.4404L27.4845 43.8875H30.2197Z" fill="#AAB6C2"/>
<path d="M25.9846 34.2713L25.9405 33.1904H16.9189L16.952 34.2713H25.9846Z" fill="#AAB6C2"/>
<path d="M36.0429 31.0291L36.0098 29.9482H16.9189L16.952 31.0291H36.0429Z" fill="#AAB6C2"/>
<path d="M32.271 27.7859L32.2269 26.7051H16.9189L16.952 27.7859H32.271Z" fill="#AAB6C2"/>
<path d="M30.0874 34.2713L30.0543 33.1904H27.3081L27.3522 34.2713H30.0874Z" fill="#AAB6C2"/>
<path d="M25.9846 24.6531L25.9405 23.5723H16.9189L16.952 24.6531H25.9846Z" fill="#AAB6C2"/>
<path d="M36.0429 21.4119L36.0098 20.3311H16.9189L16.952 21.4119H36.0429Z" fill="#AAB6C2"/>
<path d="M29.9658 24.6531L29.9217 23.5723H27.1865L27.2196 24.6531H29.9658Z" fill="#AAB6C2"/>
<path d="M25.9846 70.0268L25.9405 68.957H16.9189L16.952 70.0268H25.9846Z" fill="#AAB6C2"/>
<path d="M36.0429 66.7849L36.0098 65.7041H16.9189L16.952 66.7849H36.0429Z" fill="#AAB6C2"/>
<path d="M32.271 63.5408L32.238 62.46H16.9189L16.952 63.5408H32.271Z" fill="#AAB6C2"/>
<path d="M30.2197 70.0268L30.1866 68.957H27.4404L27.4845 70.0268H30.2197Z" fill="#AAB6C2"/>
<path d="M25.9846 60.409L25.9405 59.3281H16.9189L16.952 60.409H25.9846Z" fill="#AAB6C2"/>
<path d="M36.0429 57.1668L36.0098 56.0859H16.9189L16.952 57.1668H36.0429Z" fill="#AAB6C2"/>
<path d="M32.271 53.9246L32.2269 52.8438H16.9189L16.952 53.9246H32.271Z" fill="#AAB6C2"/>
<path d="M30.0874 60.409L30.0543 59.3281H27.3081L27.3522 60.409H30.0874Z" fill="#AAB6C2"/>
<path d="M25.9846 50.7927L25.9405 49.7119H16.9189L16.952 50.7927H25.9846Z" fill="#AAB6C2"/>
<path d="M36.0429 47.5486L36.0098 46.4678H16.9189L16.952 47.5486H36.0429Z" fill="#AAB6C2"/>
<path d="M29.9658 50.7927L29.9217 49.7119H27.1865L27.2196 50.7927H29.9658Z" fill="#AAB6C2"/>
<path d="M55.2989 47.0213L55.2658 45.9404H39.9468L39.9909 47.0213H55.2989Z" fill="#AAB6C2"/>
<path d="M49.0125 43.8875L48.9794 42.8066H39.9468L39.9909 43.8875H49.0125Z" fill="#AAB6C2"/>
<path d="M59.0707 40.6453L59.0376 39.5645H39.9468L39.9909 40.6453H59.0707Z" fill="black"/>
<path d="M59.1702 40.7002H39.9028V39.498H59.126L59.1702 40.7002ZM40.0683 40.5789H58.9937V39.6194H40.0352L40.0683 40.5789Z" fill="black"/>
<path d="M55.2989 56.7253L55.2658 55.6445H39.9468L39.9909 56.7253H55.2989Z" fill="#AAB6C2"/>
<path d="M49.0125 53.5932L48.9794 52.5234H39.9468L39.9909 53.5932H49.0125Z" fill="#AAB6C2"/>
<path d="M59.0707 50.3513L59.0376 49.2705H39.9468L39.9909 50.3513H59.0707Z" fill="#AAB6C2"/>
<path d="M55.2989 37.4031L55.2658 36.3223H39.9468L39.9909 37.4031H55.2989Z" fill="#AAB6C2"/>
<path d="M53.2475 43.8875L53.2144 42.8066H50.4683L50.5124 43.8875H53.2475Z" fill="#AAB6C2"/>
<path d="M55.2989 66.5525L55.2658 65.4717H39.9468L39.9909 66.5525H55.2989Z" fill="#AAB6C2"/>
<path d="M49.0125 63.4197L48.9794 62.3389H39.9468L39.9909 63.4197H49.0125Z" fill="#AAB6C2"/>
<path d="M59.0707 60.1785L59.0376 59.0977H39.9468L39.9909 60.1785H59.0707Z" fill="#AAB6C2"/>
<path d="M49.0125 73.1267L48.9794 72.0459H39.9468L39.9909 73.1267H49.0125Z" fill="#AAB6C2"/>
<path d="M59.0707 69.8826L59.0376 68.8018H39.9468L39.9909 69.8826H59.0707Z" fill="#AAB6C2"/>
<path d="M53.2475 63.4197L53.2144 62.3389H50.4683L50.5124 63.4197H53.2475Z" fill="#AAB6C2"/>
<path d="M78.3384 66.5525L78.2943 65.4717H62.9863L63.0194 66.5525H78.3384Z" fill="black"/>
<path d="M78.4267 66.6064H62.9863V65.4043H78.4267V66.6064ZM63.1076 66.4851H78.2171V65.5256H63.0746L63.1076 66.4851Z" fill="black"/>
<path d="M72.052 63.4197L72.0079 62.3389H62.9863L63.0194 63.4197H72.052Z" fill="#AAB6C2"/>
<path d="M82.1103 60.1785L82.0772 59.0977H62.9863L63.0194 60.1785H82.1103Z" fill="#AAB6C2"/>
<path d="M72.052 73.1267L72.0079 72.0459H62.9863L63.0194 73.1267H72.052Z" fill="#AAB6C2"/>
<path d="M82.1103 69.8826L82.0772 68.8018H62.9863L63.0194 69.8826H82.1103Z" fill="#AAB6C2"/>
<path d="M76.2871 63.4197L76.243 62.3389H73.5078L73.5409 63.4197H76.2871Z" fill="#AAB6C2"/>
<path d="M49.0125 34.2713L48.9794 33.1904H39.9468L39.9909 34.2713H49.0125Z" fill="#AAB6C2"/>
<path d="M59.0707 31.0291L59.0376 29.9482H39.9468L39.9909 31.0291H59.0707Z" fill="#AAB6C2"/>
<path d="M55.2989 27.7859L55.2658 26.7051H39.9468L39.9909 27.7859H55.2989Z" fill="#AAB6C2"/>
<path d="M53.1264 34.2713L53.0823 33.1904H50.3472L50.3803 34.2713H53.1264Z" fill="#AAB6C2"/>
<path d="M49.0125 24.6531L48.9794 23.5723H39.9468L39.9909 24.6531H49.0125Z" fill="#AAB6C2"/>
<path d="M59.0707 21.4119L59.0376 20.3311H39.9468L39.9909 21.4119H59.0707Z" fill="#AAB6C2"/>
<path d="M52.9941 24.6531L52.961 23.5723H50.2148L50.259 24.6531H52.9941Z" fill="#AAB6C2"/>
<path d="M72.052 43.8875L72.0079 42.8066H62.9863L63.0194 43.8875H72.052Z" fill="#AAB6C2"/>
<path d="M82.1103 40.6453L82.0772 39.5645H62.9863L63.0194 40.6453H82.1103Z" fill="#AAB6C2"/>
<path d="M78.3384 37.4031L78.2943 36.3223H62.9863L63.0194 37.4031H78.3384Z" fill="#AAB6C2"/>
<path d="M76.2871 43.8875L76.243 42.8066H73.5078L73.5409 43.8875H76.2871Z" fill="#AAB6C2"/>
<path d="M72.052 34.2713L72.0079 33.1904H62.9863L63.0194 34.2713H72.052Z" fill="#AAB6C2"/>
<path d="M82.1103 31.0291L82.0772 29.9482H62.9863L63.0194 31.0291H82.1103Z" fill="#AAB6C2"/>
<path d="M78.3384 27.7859L78.2943 26.7051H62.9863L63.0194 27.7859H78.3384Z" fill="#AAB6C2"/>
<path d="M76.1547 34.2713L76.1217 33.1904H73.3755L73.4196 34.2713H76.1547Z" fill="#AAB6C2"/>
<path d="M72.052 56.5271L72.0079 55.4463H62.9863L63.0194 56.5271H72.052Z" fill="#AAB6C2"/>
<path d="M82.1103 53.2849L82.0772 52.2041H62.9863L63.0194 53.2849H82.1103Z" fill="#AAB6C2"/>
<path d="M78.3384 50.0307L78.2943 48.9609H62.9863L63.0194 50.0307H78.3384Z" fill="#AAB6C2"/>
<path d="M76.2871 56.5271L76.243 55.4463H73.5078L73.5409 56.5271H76.2871Z" fill="#AAB6C2"/>
<path d="M72.052 46.9089L72.0079 45.8281H62.9863L63.0194 46.9089H72.052Z" fill="#AAB6C2"/>
<path d="M76.1547 46.9089L76.1217 45.8281H73.3755L73.4196 46.9089H76.1547Z" fill="#AAB6C2"/>
<path d="M72.052 24.6531L72.0079 23.5723H62.9863L63.0194 24.6531H72.052Z" fill="black"/>
<path d="M72.1399 24.7097H62.9419V23.5186H72.1399V24.7097ZM63.1073 24.5884H71.9304V23.6288H63.1073V24.5884Z" fill="black"/>
<path d="M82.1103 21.4119L82.0772 20.3311H62.9863L63.0194 21.4119H82.1103Z" fill="#AAB6C2"/>
<path d="M76.0217 24.6531L75.9886 23.5723H73.2534L73.2865 24.6531H76.0217Z" fill="black"/>
<path d="M76.1216 24.7097H73.21V23.5186H76.1216V24.7097ZM73.3754 24.5884H75.9451V23.6288H73.3423L73.3754 24.5884Z" fill="black"/>
<path d="M101.366 47.0213L101.333 45.9404H86.0142L86.0472 47.0213H101.366Z" fill="#AAB6C2"/>
<path d="M95.0798 43.8875L95.0467 42.8066H86.0142L86.0472 43.8875H95.0798Z" fill="#AAB6C2"/>
<path d="M105.138 40.6453L105.105 39.5645H86.0142L86.0472 40.6453H105.138Z" fill="#AAB6C2"/>
<path d="M101.366 37.4031L101.333 36.3223H86.0142L86.0472 37.4031H101.366Z" fill="#3CBCC3"/>
<path d="M99.3146 43.8875L99.2815 42.8066H96.5464L96.5795 43.8875H99.3146Z" fill="#AAB6C2"/>
<path d="M95.0798 34.2713L95.0467 33.1904H86.0142L86.0472 34.2713H95.0798Z" fill="#AAB6C2"/>
<path d="M105.138 31.0291L105.105 29.9482H86.0142L86.0472 31.0291H105.138Z" fill="#AAB6C2"/>
<path d="M101.366 27.7859L101.333 26.7051H86.0142L86.0472 27.7859H101.366Z" fill="#AAB6C2"/>
<path d="M99.1933 34.2713L99.1492 33.1904H96.4141L96.4471 34.2713H99.1933Z" fill="#AAB6C2"/>
<path d="M101.366 69.8826L101.333 68.8018H86.0142L86.0472 69.8826H101.366Z" fill="#AAB6C2"/>
<path d="M95.0798 66.7507L95.0467 65.6699H86.0142L86.0472 66.7507H95.0798Z" fill="#AAB6C2"/>
<path d="M105.138 63.5086L105.105 62.4277H86.0142L86.0472 63.5086H105.138Z" fill="#AAB6C2"/>
<path d="M101.366 60.2664L101.333 59.1855H86.0142L86.0472 60.2664H101.366Z" fill="#3CBCC3"/>
<path d="M99.3146 66.7507L99.2815 65.6699H96.5464L96.5795 66.7507H99.3146Z" fill="#AAB6C2"/>
<path d="M95.0798 56.5053L95.0467 55.4355H86.0142L86.0472 56.5053H95.0798Z" fill="#AAB6C2"/>
<path d="M105.138 53.2615L105.105 52.1807H86.0142L86.0472 53.2615H105.138Z" fill="#AAB6C2"/>
<path d="M101.366 50.0193L101.333 48.9385H86.0142L86.0472 50.0193H101.366Z" fill="#AAB6C2"/>
<path d="M99.1933 56.5053L99.1492 55.4355H96.4141L96.4471 56.5053H99.1933Z" fill="#AAB6C2"/>
<path d="M95.0798 24.6531L95.0467 23.5723H86.0142L86.0472 24.6531H95.0798Z" fill="#AAB6C2"/>
<path d="M105.138 21.4119L105.105 20.3311H86.0142L86.0472 21.4119H105.138Z" fill="#3CBCC3"/>
<path d="M99.0615 24.6531L99.0284 23.5723H96.2822L96.3263 24.6531H99.0615Z" fill="#AAB6C2"/>
<path d="M163.889 14.2754H138.544V39.6196H163.889V14.2754Z" fill="white"/>
<path d="M164.175 39.8956H138.28V14H164.175V39.8956ZM138.809 39.3442H163.602V14.5294H138.875L138.809 39.3442Z" fill="black"/>
<path d="M218.195 14.2754H192.851V39.6196H218.195V14.2754Z" fill="white"/>
<path d="M218.481 39.8956H192.575V14H218.481V39.8956ZM193.115 39.3442H217.919V14.5294H193.126L193.115 39.3442Z" fill="black"/>
<path d="M218.195 64.9863H192.851V90.3305H218.195V64.9863Z" fill="white"/>
<path d="M218.481 90.6286H192.575V64.7109H218.481V90.6286ZM193.115 90.0772H217.919V65.2624H193.126L193.115 90.0772Z" fill="black"/>
<path d="M151.492 43.8877H150.941V61.7544H151.492V43.8877Z" fill="black"/>
<path d="M189.817 26.4287H167.098V26.9802H189.817V26.4287Z" fill="black"/>
<path d="M205.798 43.8877H205.247V61.7544H205.798V43.8877Z" fill="black"/>
<path d="M215.062 79.3784C214.684 79.3783 214.31 79.4493 213.959 79.588C213.699 79.7254 213.482 79.9313 213.33 80.1835C213.131 80.5207 213.007 80.8969 212.966 81.2864C212.901 81.8242 212.875 82.3661 212.889 82.9076C212.921 83.801 212.862 84.6952 212.713 85.5766C212.624 86.0331 212.406 86.4543 212.084 86.7898C211.694 87.1317 211.23 87.3773 210.728 87.5067C210.11 87.6495 209.475 87.7089 208.842 87.6831H208.356V85.2678C208.82 85.2955 209.285 85.2508 209.735 85.1355C209.929 85.0641 210.095 84.9328 210.209 84.7605C210.331 84.4947 210.384 84.2028 210.364 83.9113C210.364 83.5142 210.364 82.7422 210.452 81.6173C210.459 81.0631 210.548 80.5129 210.717 79.985C210.842 79.6072 211.037 79.2557 211.29 78.9483C211.545 78.6422 211.855 78.3877 212.206 78.1984C211.784 77.9596 211.411 77.6456 211.103 77.2719C210.801 76.7718 210.616 76.2101 210.562 75.6286C210.485 75.1654 210.441 74.1618 210.397 72.6067C210.422 72.2739 210.377 71.9394 210.264 71.6252C210.174 71.4498 210.02 71.3157 209.834 71.2502C209.366 71.1339 208.882 71.0893 208.401 71.1179V68.7687H208.919C209.601 68.7468 210.283 68.8135 210.948 68.9672C211.4 69.0951 211.81 69.3383 212.139 69.6731C212.463 70.0101 212.689 70.4298 212.79 70.8862C212.932 71.6348 212.992 72.3967 212.966 73.1582C212.934 73.9441 212.982 74.7313 213.11 75.5073C213.205 75.937 213.437 76.324 213.772 76.6102C214.173 76.8677 214.641 77.0019 215.117 76.9962L215.062 79.3784Z" fill="black"/>
<path d="M195.994 77.0177C196.471 77.0234 196.938 76.8891 197.339 76.6317C197.674 76.3455 197.906 75.9585 198.001 75.5288C198.129 74.7527 198.177 73.9656 198.145 73.1797C198.125 72.4183 198.184 71.657 198.321 70.9077C198.422 70.4513 198.648 70.0316 198.972 69.6946C199.301 69.3598 199.711 69.1166 200.163 68.9887C200.828 68.835 201.51 68.7683 202.192 68.7902H202.71V71.1393C202.232 71.1096 201.752 71.1543 201.288 71.2717C201.097 71.3337 200.938 71.4684 200.847 71.6467C200.734 71.9609 200.689 72.2954 200.714 72.6282C200.715 73.6378 200.66 74.6467 200.549 75.6501C200.468 76.2388 200.253 76.801 199.92 77.2934C199.612 77.6671 199.238 77.9811 198.817 78.2198C199.167 78.4092 199.478 78.6637 199.733 78.9698C199.986 79.2793 200.183 79.63 200.317 80.0065C200.481 80.5357 200.57 81.085 200.582 81.6388C200.582 82.7416 200.659 83.5357 200.659 83.9328C200.639 84.2243 200.692 84.5162 200.814 84.782C200.932 84.9551 201.101 85.0863 201.299 85.157C201.745 85.2722 202.206 85.3169 202.666 85.2893V87.6495H202.148C201.514 87.6752 200.88 87.6159 200.262 87.473C199.76 87.3436 199.295 87.0981 198.906 86.7561C198.584 86.4207 198.365 85.9994 198.277 85.543C198.134 84.6609 198.075 83.7672 198.1 82.874C198.115 82.3324 198.089 81.7905 198.023 81.2528C197.983 80.8632 197.858 80.4871 197.659 80.1499C197.508 79.8977 197.291 79.6917 197.031 79.5543C196.679 79.4157 196.305 79.3446 195.928 79.3448L195.994 77.0177Z" fill="black"/>
<path d="M202.842 30.963L195.707 27.8639V26.1434L202.842 23.0664V25.0847L197.868 26.9816L202.842 28.9558V30.963Z" fill="black"/>
<path d="M203.493 32.3293L206.063 21.5762H207.563L204.96 32.3293H203.493Z" fill="black"/>
<path d="M208.225 30.9738V28.9665L213.199 27.0034L208.225 25.0734V23.0771L215.36 26.1652V27.8637L208.225 30.9738Z" fill="black"/>
<path d="M153.433 35.65L155.959 34.5472L155.385 32.8928C156.041 32.4139 156.608 31.8242 157.062 31.1503L158.738 31.6356L159.731 29.0658L158.164 28.3049C158.284 27.4988 158.265 26.6783 158.109 25.8785L159.631 25.0403L158.528 22.5258L156.885 23.0882C156.402 22.4353 155.808 21.8718 155.132 21.4229L155.617 19.7465L153.047 18.7539L152.286 20.32C151.484 20.1951 150.666 20.2138 149.871 20.3751L149.033 18.8421L146.507 19.945L147.069 21.5993C146.412 22.0809 145.845 22.6745 145.393 23.3529L143.717 22.8677L142.724 25.4374L144.29 26.1984C144.171 27.0007 144.189 27.8176 144.345 28.6137L142.823 29.4629L143.926 31.9774L145.57 31.415C146.05 32.0705 146.644 32.6346 147.323 33.0803L146.827 34.7567L149.397 35.7493L150.169 34.1832C150.971 34.3081 151.788 34.2894 152.584 34.1281L153.433 35.65ZM146.672 29.2533C146.28 28.3547 146.162 27.3602 146.333 26.3946C146.504 25.4291 146.956 24.5356 147.634 23.8265C148.311 23.1175 149.183 22.6244 150.14 22.4093C151.096 22.1943 152.095 22.2668 153.011 22.6178C153.927 22.9688 154.718 23.5826 155.286 24.382C155.854 25.1815 156.172 26.131 156.202 27.1111C156.232 28.0912 155.971 29.0583 155.453 29.8908C154.935 30.7233 154.182 31.384 153.29 31.79C152.689 32.0615 152.041 32.2112 151.382 32.2305C150.723 32.2497 150.067 32.1382 149.452 31.9023C148.836 31.6664 148.274 31.3108 147.797 30.8562C147.32 30.4015 146.938 29.8567 146.672 29.2533Z" fill="black"/>
</svg>
