<svg width="87" height="86" viewBox="0 0 87 86" fill="none" xmlns="http://www.w3.org/2000/svg">
<rect width="86" height="86" transform="translate(0.636719)" fill="white"/>
<rect x="9.2373" y="1.31055" width="76.7385" height="54.2462" rx="2" fill="#50D9D7"/>
<path d="M68.7756 64.8319H23.791V1.32423H49.6307C51.6331 1.32028 53.4662 2.4468 54.3673 4.235L55.3993 6.32546C56.293 8.12394 58.1277 9.26162 60.1359 9.26269H68.7756V64.8319Z" fill="#93E6E5"/>
<path d="M85.9758 9.26268V70.1242C85.9758 71.5857 84.791 72.7704 83.3296 72.7704H3.94498C2.48355 72.7704 1.29883 71.5857 1.29883 70.1242V3.97037C1.29883 2.50894 2.48355 1.32422 3.94498 1.32422H27.1385C29.1439 1.32278 30.9778 2.45488 31.8751 4.24822L32.9071 6.33868C33.8045 8.13202 35.6384 9.26412 37.6438 9.26268H85.9758Z" fill="#F3F3F3"/>
<path d="M61.9747 72.7708H25.299C24.2768 65.5971 27.5316 58.4861 33.6291 54.571C39.7266 50.656 47.5471 50.656 53.6447 54.571C59.7422 58.4861 62.9969 65.5971 61.9747 72.7708Z" fill="#D9D9D9"/>
<circle cx="43.6377" cy="70.123" r="15.8769" fill="#EEBA5B"/>
<circle cx="43.638" cy="70.1234" r="13.2308" fill="#F4D593"/>
<path d="M38.3449 75.4162C37.9932 75.4182 37.6552 75.2802 37.4055 75.0325L33.4363 71.0633C33.1858 70.8148 33.0449 70.4767 33.0449 70.1239C33.0449 69.7711 33.1858 69.4329 33.4363 69.1845L37.4055 65.2153C37.9243 64.6965 38.7655 64.6965 39.2843 65.2153C39.8031 65.7341 39.8031 66.5752 39.2843 67.094L36.2412 70.1239L39.2843 73.1537C39.6659 73.5323 39.7807 74.1041 39.5745 74.6005C39.3684 75.0969 38.8824 75.4193 38.3449 75.4162Z" fill="white"/>
<path d="M48.9294 75.4162C48.3919 75.4193 47.9059 75.0969 47.6998 74.6005C47.4937 74.1041 47.6084 73.5323 47.9901 73.1537L51.0331 70.1239L47.9901 67.094C47.4713 66.5752 47.4713 65.7341 47.9901 65.2153C48.5089 64.6965 49.35 64.6965 49.8688 65.2153L53.8381 69.1845C54.0885 69.4329 54.2294 69.7711 54.2294 70.1239C54.2294 70.4767 54.0885 70.8148 53.8381 71.0633L49.8688 75.0325C49.6191 75.2802 49.2811 75.4182 48.9294 75.4162Z" fill="white"/>
<path d="M42.3137 78.0614C41.9118 78.0695 41.5279 77.8944 41.2705 77.5856C41.0132 77.2767 40.9102 76.8676 40.9907 76.4737L43.6368 63.2429C43.7314 62.7702 44.0709 62.3839 44.5275 62.2294C44.9842 62.0749 45.4885 62.1758 45.8506 62.494C46.2127 62.8122 46.3775 63.2994 46.283 63.7721L43.6368 77.0029C43.5092 77.6289 42.9525 78.0742 42.3137 78.0614Z" fill="white"/>
<circle cx="80.6834" cy="5.28011" r="1.32308" fill="#00BEBD"/>
<circle cx="75.3914" cy="5.28011" r="1.32308" fill="#00BEBD"/>
<circle cx="70.0994" cy="5.28011" r="1.32308" fill="#00BEBD"/>
<circle cx="27.7606" cy="5.28011" r="1.32308" fill="#93E6E5"/>
<path d="M17.1767 29.1096C16.623 29.1114 16.1268 28.7683 15.933 28.2496L13.2075 20.9727L10.4819 28.2496C10.3165 28.694 9.92659 29.0163 9.45907 29.0952C8.99155 29.1741 8.51745 28.9975 8.21537 28.6321C7.9133 28.2666 7.82912 27.7678 7.99456 27.3235L11.9638 16.7389C12.1537 16.2156 12.6508 15.8672 13.2075 15.8672C13.7641 15.8672 14.2613 16.2156 14.4512 16.7389L18.4204 27.3235C18.5725 27.7304 18.5151 28.1861 18.2668 28.5426C18.0186 28.8991 17.6111 29.111 17.1767 29.1096Z" fill="#50D9D7"/>
<path d="M15.8527 26.4626H10.5604C9.82967 26.4626 9.2373 25.8702 9.2373 25.1395C9.2373 24.4088 9.82967 23.8164 10.5604 23.8164H15.8527C16.5834 23.8164 17.1758 24.4088 17.1758 25.1395C17.1758 25.8702 16.5834 26.4626 15.8527 26.4626Z" fill="#50D9D7"/>
<path d="M22.4686 29.1097C21.7379 29.1097 21.1455 28.5173 21.1455 27.7866V17.202C21.1455 16.4713 21.7379 15.8789 22.4686 15.8789C23.1993 15.8789 23.7917 16.4713 23.7917 17.202V27.7866C23.7917 28.5173 23.1993 29.1097 22.4686 29.1097Z" fill="#50D9D7"/>
<path fill-rule="evenodd" clip-rule="evenodd" d="M22.4686 25.1404H25.7763C28.3338 25.1404 30.407 23.0672 30.407 20.5097C30.407 17.9522 28.3338 15.8789 25.7763 15.8789H22.4686C21.7379 15.8789 21.1455 16.4713 21.1455 17.202V23.8174C21.1455 24.5481 21.7379 25.1404 22.4686 25.1404ZM25.7765 22.4936H23.7919V18.5244H25.7765C26.8725 18.5244 27.7611 19.413 27.7611 20.509C27.7611 21.6051 26.8725 22.4936 25.7765 22.4936Z" fill="#50D9D7"/>
<path d="M34.3758 29.1097C33.6451 29.1097 33.0527 28.5173 33.0527 27.7866V17.202C33.0527 16.4713 33.6451 15.8789 34.3758 15.8789C35.1065 15.8789 35.6989 16.4713 35.6989 17.202V27.7866C35.6989 28.5173 35.1065 29.1097 34.3758 29.1097Z" fill="#50D9D7"/>
<circle cx="39.6678" cy="27.786" r="1.32308" fill="#D9D9D9"/>
<circle cx="44.9598" cy="27.786" r="1.32308" fill="#D9D9D9"/>
<circle cx="50.2528" cy="27.786" r="1.32308" fill="#D9D9D9"/>
<rect x="7.91504" y="34.4004" width="7.93846" height="2.64615" fill="#D9D9D9"/>
<rect x="21.1455" y="34.4004" width="58.2154" height="2.64615" fill="#D9D9D9"/>
<rect x="7.91504" y="39.6934" width="7.93846" height="2.64615" fill="#D9D9D9"/>
<rect x="21.1455" y="39.6934" width="58.2154" height="2.64615" fill="#D9D9D9"/>
<rect x="7.91504" y="44.9844" width="7.93846" height="2.64615" fill="#D9D9D9"/>
<rect x="7.91504" y="50.2793" width="7.93846" height="2.64615" fill="#D9D9D9"/>
<rect x="21.1455" y="44.9844" width="58.2154" height="2.64615" fill="#D9D9D9"/>
</svg>
