<svg width="268" height="272" viewBox="0 0 268 272" fill="none" xmlns="http://www.w3.org/2000/svg">
<path d="M226.925 116.072L220.903 112.695L218.445 116.301C216.498 115.714 214.464 115.474 212.434 115.591L210.894 111.504L204.249 113.362L205.069 117.656C203.278 118.615 201.669 119.88 200.315 121.394L196.338 119.591L192.961 125.612L196.567 128.071C195.976 130.016 195.732 132.051 195.846 134.081L191.759 135.622L193.627 142.255L197.922 141.435C198.877 143.232 200.142 144.845 201.659 146.2L199.856 150.178L205.867 153.544L208.325 149.937C210.271 150.527 212.306 150.771 214.336 150.659L215.877 154.746L222.51 152.877L221.701 148.593C223.493 147.631 225.101 146.362 226.455 144.845L230.433 146.648L233.809 140.638L230.203 138.179C230.79 136.232 231.03 134.198 230.913 132.169L235 130.628L233.143 123.994L228.848 124.803C227.88 123.016 226.612 121.408 225.1 120.05L226.925 116.072ZM224.247 139.217C223.042 141.363 221.228 143.104 219.034 144.22C216.839 145.335 214.363 145.775 211.919 145.483C209.475 145.191 207.172 144.181 205.302 142.581C203.432 140.981 202.078 138.862 201.412 136.492C200.745 134.122 200.797 131.608 201.559 129.268C202.322 126.928 203.761 124.866 205.696 123.343C207.63 121.821 209.972 120.906 212.426 120.715C214.88 120.523 217.336 121.064 219.483 122.268C220.909 123.068 222.163 124.141 223.175 125.425C224.186 126.71 224.934 128.181 225.376 129.755C225.819 131.329 225.947 132.975 225.753 134.599C225.559 136.222 225.048 137.791 224.247 139.217Z" fill="#AAB6C2"/>
<path d="M93.2211 26.1351L89.0467 23.7856L87.3419 26.2881C85.9897 25.8823 84.577 25.7158 83.1675 25.7963L82.0747 22.9551L77.4959 24.2555L78.0641 27.2279C76.8295 27.8993 75.7204 28.7792 74.7858 29.8287L71.9992 28.572L69.6606 32.7465L72.1631 34.4512C71.7573 35.8034 71.5908 37.2162 71.6713 38.6257L68.8301 39.7185L70.1305 44.3191L73.1029 43.7509C73.7703 44.9851 74.6465 46.0943 75.6928 47.0292L74.447 49.794L78.6652 52.1326L80.3699 49.6301C81.7217 50.0379 83.1348 50.2044 84.5444 50.1218L85.6372 52.9631L90.1613 51.6627L89.5931 48.6903C90.8273 48.0229 91.9365 47.1466 92.8714 46.1004L95.6253 47.3461L97.9748 43.1717L95.4723 41.4669C95.8788 40.1186 96.0453 38.7093 95.964 37.3034L98.8053 36.2106L97.5049 31.61L94.5325 32.1673C93.8639 30.9308 92.9836 29.8212 91.9316 28.8889L93.2211 26.1351ZM91.3634 42.1882C90.5249 43.6757 89.264 44.8811 87.7403 45.652C86.2167 46.4228 84.4986 46.7246 82.8035 46.5189C81.1083 46.3133 79.5122 45.6096 78.217 44.4968C76.9218 43.384 75.9857 41.9121 75.5271 40.2673C75.0685 38.6224 75.108 36.8785 75.6406 35.2561C76.1732 33.6337 77.175 32.2057 78.5192 31.1527C79.8634 30.0996 81.4897 29.4689 83.1925 29.3402C84.8952 29.2115 86.5978 29.5907 88.085 30.4298C90.0787 31.5546 91.5441 33.4251 92.1589 35.6302C92.7737 37.8352 92.4875 40.1941 91.3634 42.1882Z" fill="black"/>
<path d="M212.686 39.642C212.828 27.1405 205.2 14.5078 193.649 14.5078C186.295 14.5078 175.826 22.2666 174.285 30.8997C174.121 30.8479 173.971 30.758 173.848 30.6374C171.125 28.4122 167.682 27.2595 164.167 27.3964C160.653 27.5332 157.31 28.9502 154.768 31.3805C152.409 33.6355 150.593 36.3969 149.457 39.4562C146.013 39.9301 142.855 41.6252 140.556 44.2327C138.257 46.8402 136.972 50.1866 136.934 53.6625C136.957 57.5704 138.528 61.3098 141.304 64.0609C144.08 66.8119 147.833 68.3503 151.741 68.3386H214.336C218.705 68.3447 222.901 66.6265 226.011 63.5574C229.121 60.4882 230.894 56.3159 230.946 51.9468C230.881 43.0733 223.177 34.178 212.686 39.642Z" fill="black"/>
<path d="M158.909 27.3809H164.308L164.81 34.6698H156.439L158.909 27.3809Z" fill="black"/>
<path d="M187.705 14.5078H193.649V25.5013C193.649 25.5013 182.558 26.5066 182.558 26.2007C182.558 25.8947 187.705 14.5078 187.705 14.5078Z" fill="black"/>
<path d="M211.604 37.9609H218.51L218.04 48.2878L201.714 50.7029L211.604 37.9609Z" fill="black"/>
<path d="M206.708 39.642C206.839 27.1405 199.222 14.5078 187.671 14.5078C180.295 14.5078 169.848 22.2666 168.274 30.8997C168.11 30.8479 167.96 30.758 167.837 30.6374C165.112 28.4114 161.667 27.2583 158.151 27.3952C154.635 27.5321 151.29 28.9494 148.746 31.3805C146.394 33.6391 144.582 36.3996 143.446 39.4562C140.002 39.928 136.842 41.6224 134.543 44.2304C132.244 46.8384 130.959 50.186 130.923 53.6625C130.966 57.5628 132.551 61.2876 135.332 64.0231C138.112 66.7586 141.862 68.2826 145.763 68.2621H208.358C212.727 68.2682 216.923 66.55 220.033 63.4809C223.143 60.4117 224.917 56.2395 224.968 51.8703C224.892 43.0733 217.199 34.178 206.708 39.642Z" fill="#3CBCC3"/>
<path d="M172.078 71.7385V60.5374H176.7L166.417 48.4512L156.134 60.5374H160.767V71.7385H172.078Z" fill="black"/>
<path d="M162.766 48.4512H166.416L167.104 54.8003L162.449 56.3958L162.766 48.4512Z" fill="black"/>
<path d="M157.302 71.5405V60.3394H152.909L162.766 48.7559L172.623 60.3394H168.219V71.5405H157.302Z" fill="white"/>
<path d="M162.81 49.0631L172.241 60.144H168.067V71.3342H157.543V60.144H153.38L162.81 49.0631ZM162.81 48.4512L152.527 60.5374H157.15V71.7385H168.46V60.5374H173.094L162.81 48.4512Z" fill="black"/>
<path d="M177.137 68.2617H172.066V71.7368H177.137V68.2617Z" fill="black"/>
<path d="M199.889 76.3593L190.491 87.3965L188.436 84.9705L184.6 80.4682L181.104 76.3593H185.333V68.2617H195.659V76.3593H199.889Z" fill="black"/>
<path d="M187.343 87.3973H190.491L192.272 82.8076L185.234 80.3379L187.343 87.3973Z" fill="black"/>
<path d="M196.741 76.3593L191.485 82.5336L189.419 84.9705L187.343 87.3965L177.956 76.3593H182.185V68.2617H192.512V76.3593H196.741Z" fill="#3CBCC3"/>
<path d="M167.925 228.357L166.941 226.106C166.894 226.004 166.818 225.919 166.723 225.861C166.628 225.803 166.517 225.774 166.406 225.778H155.303C155.182 225.779 155.063 225.81 154.957 225.867C154.85 225.924 154.759 226.006 154.691 226.106L153.161 228.346C152.982 228.607 152.866 228.906 152.822 229.22L149.478 256.54C149.459 256.659 149.466 256.781 149.499 256.896C149.532 257.012 149.591 257.12 149.67 257.21C149.749 257.301 149.848 257.373 149.958 257.422C150.069 257.47 150.188 257.494 150.309 257.49H184.098C184.365 257.493 184.623 257.397 184.824 257.222C185.026 257.047 185.156 256.804 185.191 256.54L188.469 229.755C188.488 229.636 188.481 229.515 188.448 229.399C188.415 229.283 188.357 229.176 188.277 229.085C188.198 228.994 188.1 228.922 187.989 228.873C187.879 228.825 187.759 228.802 187.639 228.805H168.558C168.42 228.804 168.284 228.761 168.171 228.68C168.058 228.6 167.972 228.487 167.925 228.357Z" fill="black"/>
<path d="M184.71 215.375H158.057V248.29H184.71V215.375Z" fill="white"/>
<path d="M157.849 248.494V215.164H184.917V248.494H157.849ZM158.253 215.579V248.079H184.48V215.579H158.253Z" fill="black"/>
<path d="M182.589 219.711H160.493V220.312H182.589V219.711Z" fill="black"/>
<path d="M182.589 221.973H160.493V222.574H182.589V221.973Z" fill="black"/>
<path d="M182.589 224.236H160.493V224.837H182.589V224.236Z" fill="black"/>
<path d="M182.589 226.498H160.493V227.099H182.589V226.498Z" fill="black"/>
<path d="M182.589 228.76H160.493V229.361H182.589V228.76Z" fill="black"/>
<path d="M182.589 231.262H160.493V231.863H182.589V231.262Z" fill="black"/>
<path d="M182.589 233.525H160.493V234.126H182.589V233.525Z" fill="black"/>
<path d="M182.589 235.787H160.493V236.388H182.589V235.787Z" fill="black"/>
<path d="M182.589 238.049H160.493V238.65H182.589V238.049Z" fill="black"/>
<path d="M182.589 240.312H160.493V240.914H182.589V240.312Z" fill="black"/>
<g opacity="0.15">
<path d="M183.53 218.948L179.869 215.363L156.877 215.374L156.888 248.289L183.552 248.278L183.53 218.948Z" fill="black"/>
</g>
<path d="M155.139 214.216L177.836 214.205L181.377 217.669L181.398 246.705L155.15 246.716L155.139 214.216Z" fill="white"/>
<path d="M177.749 214.413L181.17 217.768V246.509H155.358V214.424L177.749 214.413ZM177.913 213.998H154.965V246.913H181.629V217.582L177.957 213.998H177.913Z" fill="black"/>
<path d="M179.475 218.346H157.379V218.947H179.475V218.346Z" fill="black"/>
<path d="M179.475 220.607H157.379V221.208H179.475V220.607Z" fill="black"/>
<path d="M157.379 223.46H179.475V222.859L157.379 222.87V223.46Z" fill="black"/>
<path d="M179.475 225.133H157.379V225.734H179.475V225.133Z" fill="black"/>
<path d="M179.475 227.395H157.379V227.996H179.475V227.395Z" fill="black"/>
<path d="M179.464 229.896H157.368V230.498H179.464V229.896Z" fill="black"/>
<path d="M179.475 232.148H157.379V232.749H179.475V232.148Z" fill="black"/>
<path d="M179.475 234.41H157.379V235.011H179.475V234.41Z" fill="black"/>
<path d="M157.379 237.273L179.475 237.262V236.672L157.379 236.683V237.273Z" fill="black"/>
<path d="M179.475 238.934H157.379V239.535H179.475V238.934Z" fill="black"/>
<path d="M177.913 213.998L178.077 217.265L181.585 217.571L177.913 213.998Z" fill="white"/>
<path d="M182.152 217.832L177.879 217.449L177.683 213.482L182.152 217.832ZM178.273 217.067L181.016 217.318L178.109 214.488L178.273 217.067Z" fill="black"/>
<g opacity="0.15">
<path d="M181.606 245.829H154.942V225.066H158.909C159.031 225.072 159.149 225.104 159.257 225.161C159.365 225.218 159.459 225.297 159.532 225.394L160.177 226.258L160.625 226.859L161.182 227.58C161.266 227.697 161.375 227.794 161.502 227.862C161.629 227.93 161.77 227.968 161.914 227.973H180.492C180.754 227.97 181.008 228.061 181.209 228.229C181.409 228.398 181.543 228.633 181.585 228.891L181.639 229.121L181.606 245.829Z" fill="black"/>
</g>
<path d="M159.258 229.143L157.608 226.957C157.535 226.86 157.441 226.78 157.333 226.724C157.226 226.667 157.107 226.635 156.985 226.629H146.189C146.081 226.626 145.976 226.655 145.886 226.714C145.796 226.773 145.726 226.857 145.686 226.957L144.888 229.143C144.816 229.418 144.816 229.708 144.888 229.984L150.046 256.517C150.101 256.769 150.239 256.996 150.436 257.162C150.634 257.328 150.881 257.424 151.139 257.435H184.01C184.125 257.44 184.239 257.419 184.344 257.372C184.449 257.325 184.542 257.254 184.614 257.164C184.687 257.075 184.737 256.97 184.761 256.857C184.785 256.745 184.782 256.628 184.753 256.517L179.683 230.454C179.641 230.195 179.507 229.96 179.307 229.792C179.106 229.623 178.852 229.533 178.59 229.536H160.012C159.865 229.534 159.719 229.498 159.588 229.429C159.457 229.361 159.344 229.263 159.258 229.143Z" fill="#3CBCC3"/>
<path d="M39.3251 63.6719H11V257.314H39.3251V63.6719Z" fill="black"/>
<path d="M34.4512 257.106V63.9004H111.919V257.106H34.4512ZM39.0846 249.074H107.286V222.41H39.0846V249.074ZM39.0846 218.88H107.286V192.194H39.0846V218.88ZM39.0846 188.697H107.286V162.033H39.0846V188.697ZM39.0846 158.503H107.286V131.817H39.0846V158.503ZM39.0846 128.32H107.286V101.634H39.0846V128.32ZM39.0846 98.1375H107.286V71.4516H39.0846V98.1375Z" fill="white"/>
<path d="M111.679 64.1426V256.834H34.6918V64.1426H111.679ZM38.8444 98.3469H107.526V71.2129H38.8444V98.3469ZM38.8444 128.53H107.526V101.396H38.8444V128.53ZM38.8444 158.713H107.526V131.579H38.8444V158.756V158.713ZM38.8444 188.906H107.526V161.772H38.8444V188.906ZM38.8444 219.089H107.526V191.955H38.8444V219.089ZM38.8444 249.283H107.526V222.138H38.8444V249.283ZM112.16 63.6836H34.2109V257.315H112.16V63.6836ZM39.3252 97.8661V71.6391H107.078V97.8661H39.3252ZM39.3252 128.049V101.931H107.078V128.158L39.3252 128.049ZM39.3252 158.243V132.016H107.078V158.243H39.3252ZM39.3252 188.426V162.199H107.078V188.426H39.3252ZM39.3252 218.608V192.381H107.078V218.608H39.3252ZM39.3252 248.802V222.575H107.078V248.802H39.3252Z" fill="black"/>
<path d="M39.3148 97.8652L107.046 97.8652V71.6929H39.3148V97.8652Z" fill="#AAB6C2"/>
<path d="M80.4687 95.4824H102.751C103.3 95.4824 103.745 95.0372 103.745 94.488V75.0582C103.745 74.509 103.3 74.0637 102.751 74.0637H80.4687C79.9195 74.0637 79.4743 74.509 79.4743 75.0582V94.488C79.4743 95.0372 79.9195 95.4824 80.4687 95.4824Z" fill="black"/>
<path d="M43.1175 95.4824H45.3905C45.5837 95.4824 45.7402 95.3259 45.7402 95.1327V74.4134C45.7402 74.2203 45.5837 74.0637 45.3905 74.0637H43.1175C42.9244 74.0637 42.7678 74.2203 42.7678 74.4134V95.1327C42.7678 95.3259 42.9244 95.4824 43.1175 95.4824Z" fill="#3CBCC3"/>
<path d="M99.745 76.2188H83.1674C82.2017 76.2188 81.4189 77.0016 81.4189 77.9672V78.4808C81.4189 79.4465 82.2017 80.2293 83.1674 80.2293H99.745C100.711 80.2293 101.493 79.4465 101.493 78.4808V77.9672C101.493 77.0016 100.711 76.2188 99.745 76.2188Z" fill="white"/>
<path d="M99.745 76.2188H83.1674C82.2017 76.2188 81.4189 77.0016 81.4189 77.9672V78.4808C81.4189 79.4465 82.2017 80.2293 83.1674 80.2293H99.745C100.711 80.2293 101.493 79.4465 101.493 78.4808V77.9672C101.493 77.0016 100.711 76.2188 99.745 76.2188Z" fill="white"/>
<path d="M85.6594 78.9277H97.2539V77.518H85.6594V78.9277Z" fill="black"/>
<path d="M67.7811 80.4141H76.6982V75.8134H67.7811V80.4141Z" fill="black"/>
<path d="M54.8973 80.4141H63.8145V75.8134H54.8973V80.4141Z" fill="black"/>
<path d="M48.6465 87.9219H61.749V83.3212H48.6465V87.9219Z" fill="black"/>
<path d="M60.7551 84.7754H49.6523V86.4692H60.7551V84.7754Z" fill="white"/>
<path d="M48.6465 94.959H61.749V90.3583H48.6465V94.959Z" fill="black"/>
<path d="M60.7551 91.8125H49.6523V93.5063H60.7551V91.8125Z" fill="white"/>
<path d="M99.745 82.7637H83.1674C82.2017 82.7637 81.4189 83.5465 81.4189 84.5121V85.0257C81.4189 85.9914 82.2017 86.7742 83.1674 86.7742H99.745C100.711 86.7742 101.493 85.9914 101.493 85.0257V84.5121C101.493 83.5465 100.711 82.7637 99.745 82.7637Z" fill="white"/>
<path d="M99.745 89.3203H83.1674C82.2017 89.3203 81.4189 90.1031 81.4189 91.0688V91.5824C81.4189 92.548 82.2017 93.3308 83.1674 93.3308H99.745C100.711 93.3308 101.493 92.548 101.493 91.5824V91.0688C101.493 90.1031 100.711 89.3203 99.745 89.3203Z" fill="white"/>
<path d="M85.6594 85.4727H97.2539V84.063H85.6594V85.4727Z" fill="black"/>
<path d="M85.6594 92.041H97.2539V90.6313H85.6594V92.041Z" fill="black"/>
<path d="M76.392 85.9871C76.3812 85.7087 76.2889 85.4396 76.1264 85.2133C75.964 84.9869 75.7385 84.8134 75.4782 84.7142C75.2178 84.615 74.9341 84.5945 74.6622 84.6554C74.3903 84.7162 74.1423 84.8556 73.9491 85.0563C73.7558 85.257 73.6259 85.5101 73.5753 85.7841C73.5248 86.058 73.5559 86.3408 73.6649 86.5972C73.7738 86.8537 73.9558 87.0724 74.1881 87.2262C74.4203 87.38 74.6927 87.4621 74.9713 87.4623C75.1617 87.4595 75.3496 87.419 75.5243 87.3432C75.6989 87.2674 75.8568 87.1577 75.9889 87.0206C76.121 86.8834 76.2246 86.7215 76.2938 86.5441C76.3629 86.3667 76.3963 86.1774 76.392 85.9871Z" fill="#3CBCC3"/>
<path d="M71.6713 85.9871C71.6605 85.7082 71.5679 85.4387 71.4049 85.2121C71.242 84.9856 71.0159 84.8121 70.7549 84.7132C70.4939 84.6144 70.2096 84.5946 69.9375 84.6563C69.6653 84.718 69.4174 84.8585 69.2246 85.0603C69.0318 85.262 68.9027 85.5161 68.8534 85.7908C68.8041 86.0655 68.8368 86.3486 68.9474 86.6048C69.058 86.861 69.2416 87.079 69.4753 87.2315C69.709 87.384 69.9825 87.4643 70.2616 87.4623C70.451 87.4581 70.6377 87.4165 70.8111 87.3401C70.9845 87.2636 71.1411 87.1537 71.2721 87.0167C71.403 86.8797 71.5056 86.7183 71.5741 86.5416C71.6426 86.3649 71.6756 86.1765 71.6713 85.9871Z" fill="white"/>
<path d="M66.9613 85.9871C66.9506 85.7082 66.8579 85.4387 66.695 85.2121C66.532 84.9856 66.3059 84.8121 66.045 84.7132C65.784 84.6144 65.4997 84.5946 65.2275 84.6563C64.9554 84.718 64.7074 84.8585 64.5146 85.0603C64.3218 85.262 64.1927 85.5161 64.1434 85.7908C64.0941 86.0655 64.1268 86.3486 64.2374 86.6048C64.3481 86.861 64.5317 87.079 64.7654 87.2315C64.9991 87.384 65.2725 87.4643 65.5516 87.4623C65.741 87.4581 65.9278 87.4165 66.1012 87.3401C66.2746 87.2636 66.4312 87.1537 66.5621 87.0167C66.693 86.8797 66.7956 86.7183 66.8641 86.5416C66.9326 86.3649 66.9657 86.1765 66.9613 85.9871Z" fill="#3CBCC3"/>
<path d="M52.0016 78.1179C51.9887 77.7471 51.867 77.3882 51.6516 77.0861C51.4362 76.7839 51.1366 76.5518 50.7903 76.4188C50.4439 76.2857 50.066 76.2575 49.7037 76.3376C49.3414 76.4178 49.0107 76.6028 48.7528 76.8697C48.4949 77.1365 48.3213 77.4733 48.2535 77.8381C48.1857 78.2029 48.2268 78.5797 48.3716 78.9213C48.5164 79.2629 48.7586 79.5544 49.0679 79.7594C49.3772 79.9644 49.74 80.0738 50.1111 80.074C50.6203 80.0625 51.1044 79.8507 51.4583 79.4845C51.8123 79.1183 52.0075 78.6272 52.0016 78.1179Z" fill="white"/>
<path d="M76.3927 91.659C76.3715 91.3837 76.2704 91.1205 76.102 90.9017C75.9336 90.6829 75.705 90.5179 75.4443 90.4269C75.1835 90.336 74.902 90.323 74.634 90.3895C74.366 90.4561 74.1232 90.5993 73.9353 90.8016C73.7474 91.004 73.6225 91.2567 73.576 91.5289C73.5294 91.8011 73.5633 92.0809 73.6733 92.3342C73.7833 92.5875 73.9647 92.8032 74.1954 92.955C74.426 93.1068 74.6959 93.1881 74.9721 93.1889C75.1673 93.1863 75.3599 93.1441 75.5383 93.0649C75.7166 92.9857 75.8771 92.8711 76.0099 92.7281C76.1427 92.5851 76.2451 92.4166 76.3109 92.2328C76.3767 92.049 76.4046 91.8538 76.3927 91.659Z" fill="white"/>
<path d="M71.672 91.659C71.6507 91.3832 71.5494 91.1196 71.3805 90.9006C71.2115 90.6816 70.9823 90.5167 70.721 90.426C70.4596 90.3354 70.1775 90.3231 69.9093 90.3905C69.641 90.4579 69.3983 90.6022 69.2108 90.8056C69.0234 91.009 68.8994 91.2628 68.8541 91.5356C68.8088 91.8085 68.8442 92.0886 68.9558 92.3417C69.0675 92.5948 69.2506 92.8098 69.4827 92.9602C69.7147 93.1107 69.9857 93.1902 70.2623 93.1889C70.4565 93.1848 70.648 93.1416 70.8251 93.0617C71.0022 92.9819 71.1614 92.8671 71.293 92.7242C71.4247 92.5813 71.5261 92.4133 71.5912 92.2303C71.6563 92.0472 71.6838 91.8529 71.672 91.659Z" fill="#3CBCC3"/>
<path d="M66.962 91.659C66.9408 91.3832 66.8394 91.1196 66.6705 90.9006C66.5016 90.6816 66.2724 90.5167 66.011 90.426C65.7497 90.3354 65.4676 90.3231 65.1993 90.3905C64.9311 90.4579 64.6883 90.6022 64.5009 90.8056C64.3135 91.009 64.1895 91.2628 64.1442 91.5356C64.0989 91.8085 64.1342 92.0886 64.2459 92.3417C64.3575 92.5948 64.5406 92.8098 64.7727 92.9602C65.0048 93.1107 65.2757 93.1902 65.5523 93.1889C65.7466 93.1848 65.938 93.1416 66.1151 93.0617C66.2922 92.9819 66.4514 92.8671 66.583 92.7242C66.7147 92.5813 66.8161 92.4133 66.8813 92.2303C66.9464 92.0472 66.9739 91.8529 66.962 91.659Z" fill="white"/>
<path d="M39.3148 128.049H107.046V101.877H39.3148V128.049Z" fill="#AAB6C2"/>
<path d="M80.4687 125.678H102.751C103.3 125.678 103.745 125.233 103.745 124.683V105.254C103.745 104.704 103.3 104.259 102.751 104.259H80.4687C79.9195 104.259 79.4743 104.704 79.4743 105.254V124.683C79.4743 125.233 79.9195 125.678 80.4687 125.678Z" fill="black"/>
<path d="M43.1175 125.678H45.3905C45.5837 125.678 45.7402 125.521 45.7402 125.328V104.609C45.7402 104.416 45.5837 104.259 45.3905 104.259H43.1175C42.9244 104.259 42.7678 104.416 42.7678 104.609V125.328C42.7678 125.521 42.9244 125.678 43.1175 125.678Z" fill="#3CBCC3"/>
<path d="M99.745 106.4H83.1674C82.2017 106.4 81.4189 107.183 81.4189 108.149V108.662C81.4189 109.628 82.2017 110.411 83.1674 110.411H99.745C100.711 110.411 101.493 109.628 101.493 108.662V108.149C101.493 107.183 100.711 106.4 99.745 106.4Z" fill="white"/>
<path d="M99.745 106.4H83.1674C82.2017 106.4 81.4189 107.183 81.4189 108.149V108.662C81.4189 109.628 82.2017 110.411 83.1674 110.411H99.745C100.711 110.411 101.493 109.628 101.493 108.662V108.149C101.493 107.183 100.711 106.4 99.745 106.4Z" fill="white"/>
<path d="M85.6594 109.121H97.2539V107.711H85.6594V109.121Z" fill="black"/>
<path d="M67.7811 110.596H76.6982V105.995H67.7811V110.596Z" fill="black"/>
<path d="M54.8973 110.596H63.8145V105.995H54.8973V110.596Z" fill="black"/>
<path d="M48.6465 118.115H61.749V113.515H48.6465V118.115Z" fill="black"/>
<path d="M60.7551 114.967H49.6523V116.661H60.7551V114.967Z" fill="white"/>
<path d="M48.6465 125.143H61.749V120.542H48.6465V125.143Z" fill="black"/>
<path d="M60.7551 122.004H49.6523V123.698H60.7551V122.004Z" fill="white"/>
<path d="M99.745 112.957H83.1674C82.2017 112.957 81.4189 113.74 81.4189 114.706V115.219C81.4189 116.185 82.2017 116.968 83.1674 116.968H99.745C100.711 116.968 101.493 116.185 101.493 115.219V114.706C101.493 113.74 100.711 112.957 99.745 112.957Z" fill="white"/>
<path d="M99.745 119.514H83.1674C82.2017 119.514 81.4189 120.296 81.4189 121.262V121.776C81.4189 122.741 82.2017 123.524 83.1674 123.524H99.745C100.711 123.524 101.493 122.741 101.493 121.776V121.262C101.493 120.296 100.711 119.514 99.745 119.514Z" fill="white"/>
<path d="M85.6594 115.668H97.2539V114.258H85.6594V115.668Z" fill="black"/>
<path d="M85.6594 122.225H97.2539V120.815H85.6594V122.225Z" fill="black"/>
<path d="M76.3925 116.136C76.3796 115.858 76.2855 115.591 76.1218 115.366C75.9581 115.141 75.7321 114.969 75.4716 114.871C75.2111 114.774 74.9278 114.755 74.6567 114.817C74.3856 114.879 74.1386 115.019 73.9464 115.22C73.7543 115.421 73.6253 115.674 73.5756 115.948C73.5259 116.222 73.5576 116.504 73.6668 116.76C73.776 117.015 73.9578 117.234 74.1898 117.387C74.4218 117.54 74.6937 117.622 74.9719 117.623C75.1627 117.618 75.3509 117.576 75.5256 117.499C75.7003 117.422 75.8581 117.312 75.9901 117.174C76.122 117.036 76.2254 116.873 76.2945 116.695C76.3635 116.517 76.3968 116.327 76.3925 116.136Z" fill="#3CBCC3"/>
<path d="M71.6718 116.136C71.6589 115.858 71.5645 115.59 71.4003 115.365C71.2361 115.14 71.0094 114.968 70.7483 114.871C70.4872 114.773 70.2033 114.755 69.932 114.818C69.6606 114.881 69.4137 115.022 69.2219 115.224C69.0302 115.426 68.9022 115.68 68.8537 115.955C68.8052 116.229 68.8385 116.512 68.9493 116.767C69.0602 117.023 69.2437 117.24 69.4771 117.392C69.7105 117.544 69.9835 117.624 70.2621 117.622C70.6456 117.611 71.0091 117.448 71.2732 117.17C71.5373 116.892 71.6806 116.52 71.6718 116.136Z" fill="white"/>
<path d="M66.9619 116.137C66.9427 115.86 66.8431 115.595 66.6753 115.375C66.5075 115.154 66.2789 114.988 66.0176 114.895C65.7563 114.803 65.4737 114.789 65.2047 114.856C64.9356 114.922 64.6919 115.066 64.5034 115.269C64.3149 115.472 64.1899 115.726 64.1438 115.999C64.0977 116.272 64.1326 116.553 64.244 116.807C64.3555 117.06 64.5387 117.276 64.7712 117.427C65.0036 117.578 65.2751 117.657 65.5522 117.656C65.745 117.65 65.9347 117.606 66.1104 117.526C66.286 117.447 66.4441 117.333 66.5753 117.192C66.7065 117.05 66.8083 116.884 66.8746 116.703C66.941 116.522 66.9707 116.329 66.9619 116.137Z" fill="#3CBCC3"/>
<path d="M52.0012 108.302C51.9862 107.932 51.8627 107.574 51.6461 107.274C51.4294 106.973 51.1292 106.743 50.7827 106.611C50.4362 106.48 50.0587 106.453 49.6972 106.534C49.3356 106.616 49.006 106.802 48.7492 107.069C48.4924 107.336 48.3198 107.673 48.2528 108.037C48.1858 108.402 48.2275 108.778 48.3725 109.119C48.5176 109.46 48.7597 109.751 49.0687 109.955C49.3777 110.16 49.7401 110.269 50.1107 110.269C50.6218 110.258 51.1075 110.045 51.4618 109.676C51.816 109.307 52.01 108.813 52.0012 108.302Z" fill="white"/>
<path d="M76.3925 121.841C76.3796 121.564 76.2855 121.296 76.1218 121.071C75.9581 120.846 75.7321 120.674 75.4716 120.577C75.2111 120.479 74.9278 120.46 74.6567 120.522C74.3856 120.584 74.1386 120.724 73.9464 120.925C73.7543 121.126 73.6253 121.379 73.5756 121.653C73.5259 121.927 73.5576 122.209 73.6668 122.465C73.776 122.72 73.9578 122.939 74.1898 123.092C74.4218 123.245 74.6937 123.327 74.9719 123.328C75.1627 123.323 75.3509 123.282 75.5256 123.204C75.7003 123.127 75.8581 123.017 75.9901 122.879C76.122 122.741 76.2254 122.578 76.2945 122.4C76.3635 122.222 76.3968 122.032 76.3925 121.841Z" fill="white"/>
<path d="M70.2624 123.316C71.047 123.316 71.6831 122.655 71.6831 121.84C71.6831 121.026 71.047 120.365 70.2624 120.365C69.4778 120.365 68.8418 121.026 68.8418 121.84C68.8418 122.655 69.4778 123.316 70.2624 123.316Z" fill="#3CBCC3"/>
<path d="M66.9618 121.841C66.9489 121.563 66.8545 121.295 66.6904 121.07C66.5262 120.845 66.2994 120.673 66.0384 120.576C65.7773 120.478 65.4934 120.46 65.222 120.523C64.9506 120.586 64.7037 120.727 64.512 120.929C64.3203 121.131 64.1922 121.385 64.1437 121.66C64.0953 121.934 64.1285 122.217 64.2394 122.472C64.3502 122.728 64.5338 122.945 64.7672 123.097C65.0006 123.249 65.2735 123.329 65.5521 123.328C65.9357 123.316 66.2992 123.153 66.5633 122.875C66.8274 122.597 66.9706 122.225 66.9618 121.841Z" fill="white"/>
<path d="M39.3148 158.242H107.046V132.07H39.3148V158.242Z" fill="#AAB6C2"/>
<path d="M80.4687 155.859H102.751C103.3 155.859 103.745 155.414 103.745 154.865V135.435C103.745 134.886 103.3 134.441 102.751 134.441H80.4687C79.9195 134.441 79.4743 134.886 79.4743 135.435V154.865C79.4743 155.414 79.9195 155.859 80.4687 155.859Z" fill="black"/>
<path d="M43.1175 155.859H45.3905C45.5837 155.859 45.7402 155.703 45.7402 155.51V134.79C45.7402 134.597 45.5837 134.441 45.3905 134.441H43.1175C42.9244 134.441 42.7678 134.597 42.7678 134.79V155.51C42.7678 155.703 42.9244 155.859 43.1175 155.859Z" fill="#3CBCC3"/>
<path d="M99.745 136.584H83.1674C82.2017 136.584 81.4189 137.367 81.4189 138.332V138.846C81.4189 139.812 82.2017 140.595 83.1674 140.595H99.745C100.711 140.595 101.493 139.812 101.493 138.846V138.332C101.493 137.367 100.711 136.584 99.745 136.584Z" fill="white"/>
<path d="M99.745 136.584H83.1674C82.2017 136.584 81.4189 137.367 81.4189 138.332V138.846C81.4189 139.812 82.2017 140.595 83.1674 140.595H99.745C100.711 140.595 101.493 139.812 101.493 138.846V138.332C101.493 137.367 100.711 136.584 99.745 136.584Z" fill="white"/>
<path d="M85.6594 139.293H97.2539V137.883H85.6594V139.293Z" fill="black"/>
<path d="M67.7811 140.791H76.6982V136.19H67.7811V140.791Z" fill="black"/>
<path d="M54.8973 140.791H63.8145V136.19H54.8973V140.791Z" fill="black"/>
<path d="M48.6465 148.287H61.749V143.686H48.6465V148.287Z" fill="black"/>
<path d="M60.7551 145.152H49.6523V146.846H60.7551V145.152Z" fill="white"/>
<path d="M48.6465 155.334H61.749V150.733H48.6465V155.334Z" fill="black"/>
<path d="M60.7551 152.189H49.6523V153.883H60.7551V152.189Z" fill="white"/>
<path d="M99.745 143.141H83.1674C82.2017 143.141 81.4189 143.923 81.4189 144.889V145.403C81.4189 146.368 82.2017 147.151 83.1674 147.151H99.745C100.711 147.151 101.493 146.368 101.493 145.403V144.889C101.493 143.923 100.711 143.141 99.745 143.141Z" fill="white"/>
<path d="M99.745 149.697H83.1674C82.2017 149.697 81.4189 150.48 81.4189 151.446V151.959C81.4189 152.925 82.2017 153.708 83.1674 153.708H99.745C100.711 153.708 101.493 152.925 101.493 151.959V151.446C101.493 150.48 100.711 149.697 99.745 149.697Z" fill="white"/>
<path d="M85.6594 145.859H97.2539V144.45H85.6594V145.859Z" fill="black"/>
<path d="M85.6594 152.406H97.2539V150.997H85.6594V152.406Z" fill="black"/>
<path d="M76.392 146.364C76.3812 146.086 76.2889 145.817 76.1264 145.59C75.964 145.364 75.7385 145.19 75.4782 145.091C75.2178 144.992 74.9341 144.971 74.6622 145.032C74.3903 145.093 74.1423 145.233 73.9491 145.433C73.7558 145.634 73.6259 145.887 73.5753 146.161C73.5248 146.435 73.5559 146.718 73.6649 146.974C73.7738 147.231 73.9558 147.449 74.1881 147.603C74.4203 147.757 74.6927 147.839 74.9713 147.839C75.3549 147.831 75.7195 147.671 75.9856 147.394C76.2518 147.118 76.3978 146.748 76.392 146.364Z" fill="#3CBCC3"/>
<path d="M71.6716 146.365C71.663 146.086 71.5722 145.815 71.4104 145.587C71.2487 145.359 71.0233 145.184 70.7625 145.083C70.5016 144.983 70.2169 144.961 69.944 145.022C69.6711 145.083 69.4221 145.222 69.2282 145.424C69.0344 145.625 68.9042 145.879 68.8541 146.154C68.804 146.429 68.8361 146.713 68.9464 146.97C69.0568 147.227 69.2405 147.445 69.4745 147.598C69.7085 147.751 69.9824 147.832 70.2619 147.829C70.6417 147.818 71.0019 147.658 71.2653 147.385C71.5288 147.111 71.6747 146.745 71.6716 146.365Z" fill="white"/>
<path d="M66.9617 146.365C66.9531 146.086 66.8622 145.815 66.7005 145.587C66.5388 145.359 66.3134 145.184 66.0525 145.083C65.7917 144.983 65.507 144.961 65.234 145.022C64.9611 145.083 64.7122 145.222 64.5183 145.424C64.3244 145.625 64.1942 145.879 64.1441 146.154C64.094 146.429 64.1261 146.713 64.2365 146.97C64.3468 147.227 64.5305 147.445 64.7645 147.598C64.9985 147.751 65.2724 147.832 65.552 147.829C65.9317 147.818 66.2919 147.658 66.5554 147.385C66.8189 147.111 66.9647 146.745 66.9617 146.365Z" fill="#3CBCC3"/>
<path d="M52.0012 138.484C51.9862 138.114 51.8627 137.756 51.6461 137.455C51.4294 137.155 51.1292 136.924 50.7827 136.793C50.4362 136.661 50.0587 136.635 49.6972 136.716C49.3356 136.797 49.006 136.983 48.7492 137.25C48.4924 137.518 48.3198 137.854 48.2528 138.219C48.1858 138.583 48.2275 138.959 48.3725 139.3C48.5176 139.642 48.7597 139.932 49.0687 140.137C49.3777 140.341 49.7401 140.451 50.1107 140.451C50.6218 140.439 51.1075 140.226 51.4618 139.858C51.816 139.489 52.01 138.995 52.0012 138.484Z" fill="white"/>
<path d="M76.392 152.036C76.3812 151.758 76.2889 151.488 76.1264 151.262C75.964 151.036 75.7385 150.862 75.4782 150.763C75.2178 150.664 74.9341 150.643 74.6622 150.704C74.3903 150.765 74.1423 150.904 73.9491 151.105C73.7558 151.306 73.6259 151.559 73.5753 151.833C73.5248 152.107 73.5559 152.39 73.6649 152.646C73.7738 152.902 73.9558 153.121 74.1881 153.275C74.4203 153.429 74.6927 153.511 74.9713 153.511C75.3549 153.503 75.7195 153.343 75.9856 153.066C76.2518 152.79 76.3978 152.42 76.392 152.036Z" fill="white"/>
<path d="M71.6713 152.036C71.6605 151.757 71.5679 151.488 71.4049 151.261C71.242 151.034 71.0159 150.861 70.7549 150.762C70.4939 150.663 70.2096 150.643 69.9375 150.705C69.6653 150.767 69.4174 150.907 69.2246 151.109C69.0318 151.311 68.9027 151.565 68.8534 151.84C68.8041 152.114 68.8368 152.397 68.9474 152.654C69.058 152.91 69.2416 153.128 69.4753 153.28C69.709 153.433 69.9825 153.513 70.2616 153.511C70.6432 153.5 71.005 153.339 71.2688 153.062C71.5326 152.786 71.6772 152.418 71.6713 152.036Z" fill="#3CBCC3"/>
<path d="M66.9613 152.036C66.9506 151.757 66.8579 151.488 66.695 151.261C66.532 151.034 66.3059 150.861 66.045 150.762C65.784 150.663 65.4997 150.643 65.2275 150.705C64.9554 150.767 64.7074 150.907 64.5146 151.109C64.3218 151.311 64.1927 151.565 64.1434 151.84C64.0941 152.114 64.1268 152.397 64.2374 152.654C64.3481 152.91 64.5317 153.128 64.7654 153.28C64.9991 153.433 65.2725 153.513 65.5516 153.511C65.9333 153.5 66.2951 153.339 66.5589 153.062C66.8226 152.786 66.9672 152.418 66.9613 152.036Z" fill="white"/>
<path d="M39.3148 188.414H107.046V162.242H39.3148V188.414Z" fill="#AAB6C2"/>
<path d="M80.4687 186.043H102.751C103.3 186.043 103.745 185.598 103.745 185.049V165.619C103.745 165.07 103.3 164.624 102.751 164.624H80.4687C79.9195 164.624 79.4743 165.07 79.4743 165.619V185.049C79.4743 185.598 79.9195 186.043 80.4687 186.043Z" fill="black"/>
<path d="M43.1175 186.043H45.3905C45.5837 186.043 45.7402 185.886 45.7402 185.693V164.974C45.7402 164.781 45.5837 164.624 45.3905 164.624H43.1175C42.9244 164.624 42.7678 164.781 42.7678 164.974V185.693C42.7678 185.886 42.9244 186.043 43.1175 186.043Z" fill="#3CBCC3"/>
<path d="M99.745 166.777H83.1674C82.2017 166.777 81.4189 167.56 81.4189 168.526V169.039C81.4189 170.005 82.2017 170.788 83.1674 170.788H99.745C100.711 170.788 101.493 170.005 101.493 169.039V168.526C101.493 167.56 100.711 166.777 99.745 166.777Z" fill="white"/>
<path d="M99.745 166.777H83.1674C82.2017 166.777 81.4189 167.56 81.4189 168.526V169.039C81.4189 170.005 82.2017 170.788 83.1674 170.788H99.745C100.711 170.788 101.493 170.005 101.493 169.039V168.526C101.493 167.56 100.711 166.777 99.745 166.777Z" fill="white"/>
<path d="M85.6594 169.488H97.2539V168.079H85.6594V169.488Z" fill="black"/>
<path d="M67.7811 170.973H76.6982V166.372H67.7811V170.973Z" fill="black"/>
<path d="M54.8973 170.973H63.8145V166.372H54.8973V170.973Z" fill="black"/>
<path d="M48.6465 178.482H61.749V173.882H48.6465V178.482Z" fill="black"/>
<path d="M60.7551 175.334H49.6523V177.028H60.7551V175.334Z" fill="white"/>
<path d="M48.6465 185.52H61.749V180.919H48.6465V185.52Z" fill="black"/>
<path d="M60.7551 182.371H49.6523V184.065H60.7551V182.371Z" fill="white"/>
<path d="M99.745 173.334H83.1674C82.2017 173.334 81.4189 174.117 81.4189 175.082V175.596C81.4189 176.562 82.2017 177.345 83.1674 177.345H99.745C100.711 177.345 101.493 176.562 101.493 175.596V175.082C101.493 174.117 100.711 173.334 99.745 173.334Z" fill="white"/>
<path d="M99.745 179.879H83.1674C82.2017 179.879 81.4189 180.662 81.4189 181.627V182.141C81.4189 183.107 82.2017 183.889 83.1674 183.889H99.745C100.711 183.889 101.493 183.107 101.493 182.141V181.627C101.493 180.662 100.711 179.879 99.745 179.879Z" fill="white"/>
<path d="M85.6594 176.033H97.2539V174.623H85.6594V176.033Z" fill="black"/>
<path d="M85.6594 182.59H97.2539V181.18H85.6594V182.59Z" fill="black"/>
<path d="M76.392 176.546C76.3812 176.267 76.2889 175.998 76.1264 175.772C75.964 175.546 75.7385 175.372 75.4782 175.273C75.2178 175.174 74.9341 175.153 74.6622 175.214C74.3903 175.275 74.1423 175.414 73.9491 175.615C73.7558 175.816 73.6259 176.069 73.5753 176.343C73.5248 176.617 73.5559 176.899 73.6649 177.156C73.7738 177.412 73.9558 177.631 74.1881 177.785C74.4203 177.939 74.6927 178.021 74.9713 178.021C75.1617 178.018 75.3496 177.978 75.5243 177.902C75.6989 177.826 75.8568 177.716 75.9889 177.579C76.121 177.442 76.2246 177.28 76.2938 177.103C76.3629 176.925 76.3963 176.736 76.392 176.546Z" fill="#3CBCC3"/>
<path d="M71.6713 176.546C71.6605 176.267 71.5679 175.997 71.4049 175.771C71.242 175.544 71.0159 175.371 70.7549 175.272C70.4939 175.173 70.2096 175.153 69.9375 175.215C69.6653 175.277 69.4174 175.417 69.2246 175.619C69.0318 175.821 68.9027 176.075 68.8534 176.349C68.8041 176.624 68.8368 176.907 68.9474 177.163C69.058 177.42 69.2416 177.638 69.4753 177.79C69.709 177.943 69.9825 178.023 70.2616 178.021C70.451 178.017 70.6377 177.975 70.8111 177.899C70.9845 177.822 71.1411 177.712 71.2721 177.575C71.403 177.438 71.5056 177.277 71.5741 177.1C71.6426 176.924 71.6756 176.735 71.6713 176.546Z" fill="white"/>
<path d="M66.9613 176.546C66.9506 176.267 66.8582 175.998 66.6958 175.772C66.5333 175.546 66.3079 175.372 66.0475 175.273C65.7872 175.174 65.5034 175.153 65.2315 175.214C64.9597 175.275 64.7117 175.414 64.5184 175.615C64.3252 175.816 64.1952 176.069 64.1447 176.343C64.0941 176.617 64.1253 176.899 64.2342 177.156C64.3432 177.412 64.5251 177.631 64.7574 177.785C64.9897 177.939 65.2621 178.021 65.5407 178.021C65.731 178.018 65.919 177.978 66.0936 177.902C66.2683 177.826 66.4262 177.716 66.5582 177.579C66.6903 177.442 66.7939 177.28 66.8631 177.103C66.9323 176.925 66.9656 176.736 66.9613 176.546Z" fill="#3CBCC3"/>
<path d="M52.0012 168.679C51.9862 168.309 51.8627 167.951 51.6461 167.651C51.4294 167.35 51.1292 167.12 50.7827 166.988C50.4362 166.857 50.0587 166.83 49.6972 166.911C49.3356 166.993 49.006 167.179 48.7492 167.446C48.4924 167.713 48.3198 168.05 48.2528 168.414C48.1858 168.779 48.2275 169.155 48.3725 169.496C48.5176 169.837 48.7597 170.128 49.0687 170.332C49.3777 170.537 49.7401 170.646 50.1107 170.646C50.6218 170.635 51.1075 170.421 51.4618 170.053C51.816 169.684 52.01 169.19 52.0012 168.679Z" fill="white"/>
<path d="M76.392 182.219C76.3812 181.941 76.2889 181.672 76.1264 181.446C75.964 181.219 75.7385 181.046 75.4782 180.947C75.2178 180.847 74.9341 180.827 74.6622 180.888C74.3903 180.949 74.1423 181.088 73.9491 181.289C73.7558 181.489 73.6259 181.742 73.5753 182.016C73.5248 182.29 73.5559 182.573 73.6649 182.83C73.7738 183.086 73.9558 183.305 74.1881 183.459C74.4203 183.612 74.6927 183.695 74.9713 183.695C75.1617 183.692 75.3496 183.651 75.5243 183.576C75.6989 183.5 75.8568 183.39 75.9889 183.253C76.121 183.116 76.2246 182.954 76.2938 182.777C76.3629 182.599 76.3963 182.41 76.392 182.219Z" fill="white"/>
<path d="M71.6713 182.219C71.6605 181.941 71.5679 181.671 71.4049 181.445C71.242 181.218 71.0159 181.044 70.7549 180.946C70.4939 180.847 70.2096 180.827 69.9375 180.889C69.6653 180.95 69.4174 181.091 69.2246 181.293C69.0318 181.494 68.9027 181.749 68.8534 182.023C68.8041 182.298 68.8368 182.581 68.9474 182.837C69.058 183.093 69.2416 183.311 69.4753 183.464C69.709 183.616 69.9825 183.697 70.2616 183.695C70.451 183.69 70.6377 183.649 70.8111 183.572C70.9845 183.496 71.1411 183.386 71.2721 183.249C71.403 183.112 71.5056 182.951 71.5741 182.774C71.6426 182.597 71.6756 182.409 71.6713 182.219Z" fill="#3CBCC3"/>
<path d="M66.9613 182.219C66.9506 181.941 66.8582 181.672 66.6958 181.446C66.5333 181.219 66.3079 181.046 66.0475 180.947C65.7872 180.847 65.5034 180.827 65.2315 180.888C64.9597 180.949 64.7117 181.088 64.5184 181.289C64.3252 181.489 64.1952 181.742 64.1447 182.016C64.0941 182.29 64.1253 182.573 64.2342 182.83C64.3432 183.086 64.5251 183.305 64.7574 183.459C64.9897 183.612 65.2621 183.695 65.5407 183.695C65.731 183.692 65.919 183.651 66.0936 183.576C66.2683 183.5 66.4262 183.39 66.5582 183.253C66.6903 183.116 66.7939 182.954 66.8631 182.777C66.9323 182.599 66.9656 182.41 66.9613 182.219Z" fill="white"/>
<path d="M39.3148 218.607H107.046V192.435H39.3148V218.607Z" fill="#AAB6C2"/>
<path d="M80.4687 216.227H102.751C103.3 216.227 103.745 215.781 103.745 215.232V195.802C103.745 195.253 103.3 194.808 102.751 194.808H80.4687C79.9195 194.808 79.4743 195.253 79.4743 195.802V215.232C79.4743 215.781 79.9195 216.227 80.4687 216.227Z" fill="black"/>
<path d="M43.1175 216.227H45.3905C45.5837 216.227 45.7402 216.07 45.7402 215.877V195.158C45.7402 194.964 45.5837 194.808 45.3905 194.808H43.1175C42.9244 194.808 42.7678 194.964 42.7678 195.158V215.877C42.7678 216.07 42.9244 216.227 43.1175 216.227Z" fill="#3CBCC3"/>
<path d="M99.745 196.961H83.1674C82.2017 196.961 81.4189 197.744 81.4189 198.709V199.223C81.4189 200.189 82.2017 200.971 83.1674 200.971H99.745C100.711 200.971 101.493 200.189 101.493 199.223V198.709C101.493 197.744 100.711 196.961 99.745 196.961Z" fill="white"/>
<path d="M99.745 196.961H83.1674C82.2017 196.961 81.4189 197.744 81.4189 198.709V199.223C81.4189 200.189 82.2017 200.971 83.1674 200.971H99.745C100.711 200.971 101.493 200.189 101.493 199.223V198.709C101.493 197.744 100.711 196.961 99.745 196.961Z" fill="white"/>
<path d="M85.6594 199.68H97.2539V198.27H85.6594V199.68Z" fill="black"/>
<path d="M67.7811 201.156H76.6982V196.556H67.7811V201.156Z" fill="black"/>
<path d="M54.8973 201.156H63.8145V196.556H54.8973V201.156Z" fill="black"/>
<path d="M48.6465 208.664H61.749V204.063H48.6465V208.664Z" fill="black"/>
<path d="M60.7551 205.527H49.6523V207.221H60.7551V205.527Z" fill="white"/>
<path d="M48.6465 215.701H61.749V211.101H48.6465V215.701Z" fill="black"/>
<path d="M60.7551 212.564H49.6523V214.258H60.7551V212.564Z" fill="white"/>
<path d="M99.745 203.518H83.1674C82.2017 203.518 81.4189 204.3 81.4189 205.266V205.78C81.4189 206.745 82.2017 207.528 83.1674 207.528H99.745C100.711 207.528 101.493 206.745 101.493 205.78V205.266C101.493 204.3 100.711 203.518 99.745 203.518Z" fill="white"/>
<path d="M99.745 210.074H83.1674C82.2017 210.074 81.4189 210.857 81.4189 211.823V212.336C81.4189 213.302 82.2017 214.085 83.1674 214.085H99.745C100.711 214.085 101.493 213.302 101.493 212.336V211.823C101.493 210.857 100.711 210.074 99.745 210.074Z" fill="white"/>
<path d="M85.6594 206.227H97.2539V204.817H85.6594V206.227Z" fill="black"/>
<path d="M85.6594 212.783H97.2539V211.373H85.6594V212.783Z" fill="black"/>
<path d="M76.3925 206.73C76.3796 206.452 76.2855 206.184 76.1218 205.959C75.9581 205.735 75.7321 205.563 75.4716 205.465C75.2111 205.368 74.9278 205.349 74.6567 205.411C74.3856 205.473 74.1386 205.613 73.9464 205.814C73.7543 206.015 73.6253 206.268 73.5756 206.542C73.5259 206.815 73.5576 207.098 73.6668 207.353C73.776 207.609 73.9578 207.827 74.1898 207.981C74.4218 208.134 74.6937 208.216 74.9719 208.216C75.1627 208.212 75.3509 208.17 75.5256 208.093C75.7003 208.016 75.8581 207.905 75.9901 207.767C76.122 207.629 76.2254 207.467 76.2945 207.289C76.3635 207.111 76.3968 206.921 76.3925 206.73Z" fill="#3CBCC3"/>
<path d="M71.6718 206.73C71.6589 206.452 71.5645 206.183 71.4003 205.958C71.2361 205.733 71.0094 205.561 70.7483 205.464C70.4872 205.367 70.2033 205.349 69.932 205.412C69.6606 205.475 69.4137 205.616 69.2219 205.818C69.0302 206.02 68.9022 206.274 68.8537 206.548C68.8052 206.823 68.8385 207.105 68.9493 207.361C69.0602 207.616 69.2437 207.834 69.4771 207.986C69.7105 208.138 69.9835 208.218 70.2621 208.216C70.6456 208.205 71.0091 208.042 71.2732 207.764C71.5373 207.485 71.6806 207.114 71.6718 206.73Z" fill="white"/>
<path d="M66.9618 206.73C66.949 206.452 66.8549 206.184 66.6912 205.959C66.5275 205.735 66.3014 205.563 66.0409 205.465C65.7805 205.368 65.4971 205.349 65.226 205.411C64.9549 205.473 64.7079 205.613 64.5158 205.814C64.3236 206.015 64.1947 206.268 64.1449 206.542C64.0952 206.815 64.1269 207.098 64.2361 207.353C64.3453 207.609 64.5272 207.827 64.7592 207.981C64.9912 208.134 65.2631 208.216 65.5412 208.216C65.7321 208.212 65.9202 208.17 66.0949 208.093C66.2697 208.016 66.4275 207.905 66.5594 207.767C66.6913 207.629 66.7948 207.467 66.8638 207.289C66.9329 207.111 66.9662 206.921 66.9618 206.73Z" fill="#3CBCC3"/>
<path d="M52.0012 198.861C51.9862 198.491 51.8627 198.133 51.6461 197.832C51.4294 197.532 51.1292 197.301 50.7827 197.17C50.4362 197.038 50.0587 197.012 49.6972 197.093C49.3356 197.174 49.006 197.36 48.7492 197.627C48.4924 197.895 48.3198 198.231 48.2528 198.596C48.1858 198.96 48.2275 199.336 48.3725 199.677C48.5176 200.018 48.7597 200.309 49.0687 200.514C49.3777 200.718 49.7401 200.828 50.1107 200.828C50.6218 200.816 51.1075 200.603 51.4618 200.235C51.816 199.866 52.01 199.372 52.0012 198.861Z" fill="white"/>
<path d="M76.3925 212.4C76.3796 212.122 76.2855 211.854 76.1218 211.629C75.9581 211.405 75.7321 211.233 75.4716 211.135C75.2111 211.038 74.9278 211.019 74.6567 211.081C74.3856 211.143 74.1386 211.283 73.9464 211.484C73.7543 211.685 73.6253 211.938 73.5756 212.212C73.5259 212.485 73.5576 212.767 73.6668 213.023C73.776 213.279 73.9578 213.497 74.1898 213.651C74.4218 213.804 74.6937 213.886 74.9719 213.886C75.1627 213.882 75.3509 213.84 75.5256 213.763C75.7003 213.686 75.8581 213.575 75.9901 213.437C76.122 213.299 76.2254 213.137 76.2945 212.959C76.3635 212.781 76.3968 212.591 76.3925 212.4Z" fill="white"/>
<path d="M70.2624 213.876C71.047 213.876 71.6831 213.216 71.6831 212.401C71.6831 211.586 71.047 210.926 70.2624 210.926C69.4778 210.926 68.8418 211.586 68.8418 212.401C68.8418 213.216 69.4778 213.876 70.2624 213.876Z" fill="#3CBCC3"/>
<path d="M66.9618 212.4C66.949 212.122 66.8549 211.854 66.6912 211.629C66.5275 211.405 66.3014 211.233 66.0409 211.135C65.7805 211.038 65.4971 211.019 65.226 211.081C64.9549 211.143 64.7079 211.283 64.5158 211.484C64.3236 211.685 64.1947 211.938 64.1449 212.212C64.0952 212.485 64.1269 212.767 64.2361 213.023C64.3453 213.279 64.5272 213.497 64.7592 213.651C64.9912 213.804 65.2631 213.886 65.5412 213.886C65.7321 213.882 65.9202 213.84 66.0949 213.763C66.2697 213.686 66.4275 213.575 66.5594 213.437C66.6913 213.299 66.7948 213.137 66.8638 212.959C66.9329 212.781 66.9662 212.591 66.9618 212.4Z" fill="white"/>
<path d="M39.3148 248.803H107.046V222.63H39.3148V248.803Z" fill="#AAB6C2"/>
<path d="M80.4687 246.42H102.751C103.3 246.42 103.745 245.975 103.745 245.425V225.996C103.745 225.446 103.3 225.001 102.751 225.001H80.4687C79.9195 225.001 79.4743 225.446 79.4743 225.996V245.425C79.4743 245.975 79.9195 246.42 80.4687 246.42Z" fill="black"/>
<path d="M43.1175 246.42H45.3905C45.5837 246.42 45.7402 246.263 45.7402 246.07V225.351C45.7402 225.158 45.5837 225.001 45.3905 225.001H43.1175C42.9244 225.001 42.7678 225.158 42.7678 225.351V246.07C42.7678 246.263 42.9244 246.42 43.1175 246.42Z" fill="#3CBCC3"/>
<path d="M99.745 227.154H83.1674C82.2017 227.154 81.4189 227.937 81.4189 228.903V229.416C81.4189 230.382 82.2017 231.165 83.1674 231.165H99.745C100.711 231.165 101.493 230.382 101.493 229.416V228.903C101.493 227.937 100.711 227.154 99.745 227.154Z" fill="white"/>
<path d="M99.745 227.154H83.1674C82.2017 227.154 81.4189 227.937 81.4189 228.903V229.416C81.4189 230.382 82.2017 231.165 83.1674 231.165H99.745C100.711 231.165 101.493 230.382 101.493 229.416V228.903C101.493 227.937 100.711 227.154 99.745 227.154Z" fill="white"/>
<path d="M85.6594 229.854H97.2539V228.444H85.6594V229.854Z" fill="black"/>
<path d="M67.7811 231.35H76.6982V226.749H67.7811V231.35Z" fill="black"/>
<path d="M54.8973 231.35H63.8145V226.749H54.8973V231.35Z" fill="black"/>
<path d="M48.6465 238.846H61.749V234.245H48.6465V238.846Z" fill="black"/>
<path d="M60.7551 235.711H49.6523V237.405H60.7551V235.711Z" fill="white"/>
<path d="M48.6465 245.895H61.749V241.294H48.6465V245.895Z" fill="black"/>
<path d="M60.7551 242.748H49.6523V244.442H60.7551V242.748Z" fill="white"/>
<path d="M99.745 233.699H83.1674C82.2017 233.699 81.4189 234.482 81.4189 235.448V235.961C81.4189 236.927 82.2017 237.71 83.1674 237.71H99.745C100.711 237.71 101.493 236.927 101.493 235.961V235.448C101.493 234.482 100.711 233.699 99.745 233.699Z" fill="white"/>
<path d="M99.745 240.256H83.1674C82.2017 240.256 81.4189 241.039 81.4189 242.004V242.518C81.4189 243.484 82.2017 244.266 83.1674 244.266H99.745C100.711 244.266 101.493 243.484 101.493 242.518V242.004C101.493 241.039 100.711 240.256 99.745 240.256Z" fill="white"/>
<path d="M85.6594 236.422H97.2539V235.012H85.6594V236.422Z" fill="black"/>
<path d="M85.6594 242.967H97.2539V241.557H85.6594V242.967Z" fill="black"/>
<path d="M76.392 236.923C76.3812 236.644 76.2889 236.375 76.1264 236.149C75.964 235.922 75.7385 235.749 75.4782 235.65C75.2178 235.551 74.9341 235.53 74.6622 235.591C74.3903 235.652 74.1423 235.791 73.9491 235.992C73.7558 236.193 73.6259 236.446 73.5753 236.72C73.5248 236.994 73.5559 237.276 73.6649 237.533C73.7738 237.789 73.9558 238.008 74.1881 238.162C74.4203 238.316 74.6927 238.398 74.9713 238.398C75.3549 238.389 75.7195 238.229 75.9856 237.953C76.2518 237.677 76.3978 237.306 76.392 236.923Z" fill="#3CBCC3"/>
<path d="M70.2624 238.398C71.047 238.398 71.6831 237.737 71.6831 236.923C71.6831 236.108 71.047 235.447 70.2624 235.447C69.4778 235.447 68.8418 236.108 68.8418 236.923C68.8418 237.737 69.4778 238.398 70.2624 238.398Z" fill="white"/>
<path d="M66.9613 236.923C66.9506 236.644 66.8582 236.375 66.6958 236.149C66.5333 235.922 66.3079 235.749 66.0475 235.65C65.7872 235.551 65.5034 235.53 65.2315 235.591C64.9597 235.652 64.7117 235.791 64.5184 235.992C64.3252 236.193 64.1952 236.446 64.1447 236.72C64.0941 236.994 64.1253 237.276 64.2342 237.533C64.3432 237.789 64.5251 238.008 64.7574 238.162C64.9897 238.316 65.2621 238.398 65.5407 238.398C65.9242 238.389 66.2888 238.229 66.555 237.953C66.8211 237.677 66.9672 237.306 66.9613 236.923Z" fill="#3CBCC3"/>
<path d="M52.0012 229.045C51.9862 228.674 51.8627 228.316 51.6461 228.016C51.4294 227.715 51.1292 227.485 50.7827 227.353C50.4362 227.222 50.0587 227.195 49.6972 227.277C49.3356 227.358 49.006 227.544 48.7492 227.811C48.4924 228.078 48.3198 228.415 48.2528 228.779C48.1858 229.144 48.2275 229.52 48.3725 229.861C48.5176 230.202 48.7597 230.493 49.0687 230.697C49.3777 230.902 49.7401 231.011 50.1107 231.012C50.3642 231.007 50.6144 230.953 50.8468 230.852C51.0792 230.75 51.2894 230.604 51.4651 230.421C51.6408 230.238 51.7786 230.023 51.8706 229.786C51.9626 229.55 52.007 229.298 52.0012 229.045Z" fill="white"/>
<path d="M76.392 242.596C76.3812 242.318 76.2889 242.049 76.1264 241.823C75.964 241.596 75.7385 241.423 75.4782 241.324C75.2178 241.224 74.9341 241.204 74.6622 241.265C74.3903 241.326 74.1423 241.465 73.9491 241.666C73.7558 241.866 73.6259 242.119 73.5753 242.393C73.5248 242.667 73.5559 242.95 73.6649 243.207C73.7738 243.463 73.9558 243.682 74.1881 243.836C74.4203 243.989 74.6927 244.072 74.9713 244.072C75.3549 244.063 75.7195 243.903 75.9856 243.627C76.2518 243.35 76.3978 242.98 76.392 242.596Z" fill="white"/>
<path d="M71.6713 242.596C71.6605 242.318 71.5679 242.048 71.4049 241.822C71.242 241.595 71.0159 241.421 70.7549 241.323C70.4939 241.224 70.2096 241.204 69.9375 241.266C69.6653 241.327 69.4174 241.468 69.2246 241.67C69.0318 241.871 68.9027 242.125 68.8534 242.4C68.8041 242.675 68.8368 242.958 68.9474 243.214C69.058 243.47 69.2416 243.688 69.4753 243.841C69.709 243.993 69.9825 244.074 70.2616 244.072C70.6432 244.06 71.005 243.899 71.2688 243.623C71.5326 243.347 71.6772 242.978 71.6713 242.596Z" fill="#3CBCC3"/>
<path d="M66.9613 242.596C66.9506 242.318 66.8582 242.049 66.6958 241.823C66.5333 241.596 66.3079 241.423 66.0475 241.324C65.7872 241.224 65.5034 241.204 65.2315 241.265C64.9597 241.326 64.7117 241.465 64.5184 241.666C64.3252 241.866 64.1952 242.119 64.1447 242.393C64.0941 242.667 64.1253 242.95 64.2342 243.207C64.3432 243.463 64.5251 243.682 64.7574 243.836C64.9897 243.989 65.2621 244.072 65.5407 244.072C65.9242 244.063 66.2888 243.903 66.555 243.627C66.8211 243.35 66.9672 242.98 66.9613 242.596Z" fill="white"/>
<path d="M93.9643 107.002C95.057 111.832 102.291 115.351 106.597 112.378C109.274 110.52 110.465 107.045 110.542 103.909C110.542 102.204 110.127 100.412 110.465 98.7183C111.132 95.4399 113.143 95.3634 114.837 93.3308C114.877 93.2813 114.91 93.2261 114.935 93.1669C115.044 93.0757 115.117 92.9495 115.143 92.8099C115.169 92.6704 115.146 92.5261 115.077 92.4019C113.558 89.3203 108.171 87.7794 105.329 89.8339C103.647 91.2699 102.547 93.2714 102.237 95.4618C101.967 97.1662 101.796 98.8847 101.723 100.609C101.716 101.977 101.487 103.335 101.046 104.63C99.6468 107.395 96.3903 106.488 94.9587 106.302C94.4779 106.073 93.7785 106.368 93.9643 107.002Z" fill="black"/>
<path d="M142.802 146.223C142.103 147.086 138.671 148.638 137.742 148.496C131.437 147.578 128.038 142.147 125.558 139.59C125.164 139.167 124.799 138.718 124.465 138.246C123.017 136.295 122.085 134.009 121.755 131.602C121.577 130.463 121.526 129.309 121.602 128.159C121.602 128.159 118.203 111.44 121.831 113.112C125.459 114.784 129.896 121.603 133.218 127.318C133.317 127.482 133.404 127.646 133.502 127.799C133.71 128.159 133.907 128.509 134.103 128.837C134.617 129.733 135.098 130.574 135.535 131.296C136.475 132.88 138.813 136.541 138.813 136.541C138.813 136.541 145.709 142.672 142.802 146.223Z" fill="white"/>
<path d="M137.852 148.778H137.677C132.431 148.013 129.175 144.21 126.749 141.435C126.224 140.823 125.733 140.254 125.284 139.785C124.864 139.356 124.473 138.9 124.115 138.419C122.639 136.434 121.691 134.106 121.361 131.654C121.21 130.495 121.184 129.322 121.285 128.157C120.968 126.595 118.618 114.574 120.695 112.924C120.867 112.792 121.074 112.715 121.29 112.701C121.506 112.688 121.721 112.739 121.908 112.847C124.858 114.224 128.617 118.912 133.415 127.174L133.524 127.371L133.688 127.644L133.896 128.004C134.027 128.245 134.158 128.474 134.289 128.693C134.803 129.589 135.284 130.43 135.721 131.152C136.606 132.638 138.791 136.004 138.999 136.353C139.556 136.845 145.971 142.757 143.01 146.385C141.532 147.624 139.752 148.45 137.852 148.778ZM121.285 113.263C121.182 113.264 121.083 113.299 121.001 113.361C119.613 114.454 120.717 122.781 121.798 128.103V128.157C121.729 129.289 121.78 130.424 121.951 131.545C122.265 133.921 123.179 136.177 124.607 138.102C124.943 138.561 125.308 138.999 125.7 139.413C126.159 139.894 126.661 140.506 127.186 141.085C129.503 143.795 132.65 147.511 137.72 148.243C139.49 147.948 141.152 147.195 142.54 146.057C145.239 142.779 138.638 136.823 138.573 136.758H138.518C138.518 136.758 136.114 133.086 135.24 131.501C134.803 130.78 134.322 129.939 133.808 129.042L133.415 128.354L133.207 128.004C133.148 127.912 133.093 127.818 133.043 127.72L132.934 127.534C128.191 119.36 124.509 114.749 121.667 113.427C121.554 113.344 121.423 113.288 121.285 113.263Z" fill="black"/>
<path d="M121.547 128.156C121.47 129.306 121.522 130.46 121.7 131.599C122.098 134.647 123.374 137.513 125.372 139.849C127.819 142.603 136.201 129.162 133.797 125.785C130.136 120.638 125.24 114.059 121.656 112.409C118.072 110.759 121.547 128.156 121.547 128.156Z" fill="#3CBCC3"/>
<path d="M128.737 124.781C128.737 124.781 128.234 127.83 127.557 130.354C126.879 132.879 128.223 136.605 129.349 138.004C128.667 138.854 127.856 139.591 126.945 140.19C125.677 140.933 122.3 132.715 123.153 129.841C124.005 126.967 128.737 124.781 128.737 124.781Z" fill="black"/>
<path d="M132.015 152.058C125.622 144.048 114.989 161.401 113.11 163.783C112.378 164.69 113.536 168.712 115.295 173.782C115.634 174.81 116.017 175.881 116.388 176.984C119.033 184.525 122.278 193.376 122.617 197.9C122.617 198.545 122.715 199.255 122.77 200.02C123.48 209.112 124.639 221.177 125.535 230.389C126.628 241.962 128.442 252.398 128.442 252.398H134.157C135.25 236.683 140.593 211.036 140.593 198.108C140.593 185.18 139.337 161.237 132.015 152.058Z" fill="white"/>
<path d="M134.398 252.67H128.169V252.441C128.169 252.332 126.355 241.863 125.251 230.421C124.213 219.69 123.153 208.565 122.487 200.042C122.487 199.517 122.41 199.014 122.377 198.545V197.911C122.082 193.835 119.361 186.141 116.913 179.333L115.7 175.847L115.012 173.848C112.826 167.291 112.225 164.46 112.914 163.586C113.132 163.313 113.471 162.832 113.897 162.22C116.509 158.516 122.64 149.828 127.983 149.664C128.818 149.66 129.642 149.857 130.386 150.237C131.129 150.617 131.771 151.17 132.256 151.85C140.015 161.565 140.846 187.409 140.846 198.064C140.846 205.32 139.163 216.74 137.567 227.788C136.289 236.475 134.955 245.458 134.453 252.375L134.398 252.67ZM128.661 252.124H133.895C134.409 245.229 135.72 236.344 136.999 227.744C138.627 216.718 140.277 205.32 140.277 198.107C140.277 187.507 139.458 161.816 131.808 152.21C131.376 151.594 130.802 151.091 130.134 150.743C129.467 150.395 128.725 150.212 127.973 150.211C122.891 150.374 116.892 158.953 114.324 162.537C113.886 163.149 113.548 163.63 113.318 163.925C112.542 164.909 114.695 171.279 115.504 173.673C115.722 174.317 115.952 174.984 116.192 175.662L117.405 179.148C119.93 186.305 122.541 193.704 122.869 197.856V198.49C122.869 198.96 122.935 199.452 122.978 199.976C123.645 208.511 124.705 219.646 125.743 230.345C126.749 240.857 128.366 250.55 128.628 252.124H128.661Z" fill="black"/>
<path d="M118.291 156.789C114.149 151.85 102.718 149.926 102.522 150.232C101.178 152.735 97.6916 156.286 96.872 158.461C96.5223 159.379 96.2163 160.264 95.954 161.149C92.0855 173.727 96.0087 182.295 95.954 199.452C95.954 199.976 95.954 200.544 95.954 201.025C95.812 207.134 95.1235 213.341 95.2109 222.313C94.6645 235.831 94.0526 250.408 94.1181 253.009C94.1181 253.709 99.0029 255.861 99.0029 255.861C101.964 245.852 112.116 220.018 113.384 207.189C115.34 187.333 118.739 157.303 118.291 156.789Z" fill="white"/>
<path d="M99.1014 256.321L98.8172 256.19C96.5224 255.174 93.7795 253.819 93.7686 253.097C93.7686 250.912 94.151 240.716 94.5881 229.876L94.8941 222.379C94.8941 216.762 95.0908 212.172 95.3203 208.107C95.4514 205.681 95.5826 203.375 95.6263 201.102C95.6263 200.545 95.6263 200.01 95.6263 199.496C95.6021 194.066 95.2774 188.641 94.6537 183.246C93.856 175.313 93.2222 169.04 95.6591 161.117C95.9104 160.276 96.2055 159.423 96.577 158.407C97.3831 156.797 98.3891 155.296 99.5713 153.938C100.556 152.742 101.451 151.474 102.249 150.146C102.284 150.091 102.333 150.046 102.39 150.016C102.447 149.985 102.511 149.97 102.576 149.971C104.008 149.84 114.477 151.861 118.477 156.615C118.793 156.997 118.269 162.647 115.548 188.306C114.848 194.863 114.138 201.507 113.548 207.309C112.608 216.533 107.09 232.597 103.046 244.322C101.418 249.087 99.9975 253.196 99.156 256.037L99.1014 256.321ZM102.708 150.506C101.911 151.823 101.02 153.079 100.041 154.265C98.8906 155.596 97.9104 157.064 97.1234 158.637C96.7519 159.631 96.4677 160.483 96.2164 161.303C93.8013 169.138 94.4352 175.356 95.2329 183.224C95.8567 188.637 96.1814 194.08 96.2055 199.529C96.2055 200.064 96.2055 200.622 96.2055 201.113C96.2055 203.43 96.0197 205.736 95.8886 208.173C95.6591 212.227 95.4077 216.806 95.4624 222.379L95.1564 229.897C94.7193 240.738 94.304 250.966 94.3368 253.086C94.4789 253.447 96.6972 254.627 98.7845 255.567C99.6259 252.726 100.97 248.726 102.587 244.126C106.62 232.422 112.127 216.391 113.056 207.233C113.657 201.43 114.357 194.764 115.056 188.229C116.63 173.411 118.258 158.09 118.072 156.921C114.084 152.266 103.8 150.473 102.708 150.506Z" fill="black"/>
<path d="M129.12 143.391C129.12 143.391 144.55 164.7 145.162 186.632C138.007 192.148 129.225 195.134 120.191 195.123C120.191 195.123 115.667 180.065 115.634 175.53C115.602 170.994 116.727 147.478 116.727 147.478L129.12 143.391Z" fill="black"/>
<path d="M103.888 143.982C103.888 143.982 95.3529 153.686 92.7958 163.74C91.2549 169.783 91.5718 195.125 91.5718 195.125C91.5718 195.125 106.259 197.223 116.815 194.163C116.815 194.163 118.4 165.412 118.225 159.303C118.05 153.195 103.888 143.982 103.888 143.982Z" fill="black"/>
<path d="M136.638 153.64C136.638 153.64 109.133 163.825 94.0195 155.334C94.0195 155.334 103.614 145.739 103.21 135.609C103.21 135.161 103.21 134.713 103.101 134.265C102.991 133.38 102.838 132.473 102.642 131.533C100.522 121.239 95.4292 108.486 117.099 109.819C117.099 109.819 129.273 115.873 129 122.659C128.727 129.446 123.711 130.451 127.557 138.101C130.322 143.429 133.353 148.616 136.638 153.64Z" fill="#3CBCC3"/>
<path d="M108.171 129.251C107.078 131.141 104.619 138.66 102.783 140.047C102.783 139.588 103.133 134.758 103.078 134.31C102.969 133.425 102.816 132.518 102.619 131.578C103.401 130.151 104.416 128.866 105.624 127.775C109.569 124.049 109.231 114.902 109.231 114.902C110.127 119.416 109.689 126.409 108.171 129.251Z" fill="black"/>
<path d="M119.35 106.881V110.673C119.35 110.673 120.443 112.563 119.35 112.771C117.088 113.219 113.82 109.689 113.82 109.689V104.586L119.35 106.881Z" fill="white"/>
<path d="M118.934 113.134C116.618 113.134 113.744 110.063 113.612 109.921L113.547 109.844V104.184L119.623 106.697V110.675C119.776 110.959 120.289 112.03 119.994 112.664C119.938 112.778 119.855 112.878 119.753 112.954C119.65 113.03 119.53 113.08 119.404 113.101C119.249 113.129 119.092 113.14 118.934 113.134ZM114.093 109.582C114.574 110.085 117.372 112.86 119.295 112.5C119.426 112.5 119.47 112.423 119.492 112.369C119.645 112.052 119.361 111.276 119.109 110.806V110.675V107.069L114.126 104.992L114.093 109.582Z" fill="black"/>
<path d="M120.716 95.6895C121.928 98.2228 122.784 100.911 123.263 103.678C123.623 106.41 118.618 110.027 114.52 106.169C110.422 102.312 111.57 96.4216 111.57 96.4216L120.716 95.6895Z" fill="white"/>
<path d="M118.465 108.126C116.916 108.097 115.438 107.466 114.345 106.367C110.215 102.455 111.307 96.4335 111.329 96.3788V96.1712L120.847 95.4062L120.924 95.5702C122.15 98.1309 123.018 100.848 123.503 103.646C123.504 104.473 123.259 105.283 122.8 105.971C122.341 106.66 121.688 107.197 120.924 107.514C120.164 107.908 119.321 108.118 118.465 108.126ZM111.832 96.6848C111.679 97.7776 111.231 102.662 114.728 105.974C115.472 106.777 116.457 107.318 117.535 107.515C118.612 107.712 119.725 107.554 120.705 107.066C121.361 106.798 121.925 106.345 122.331 105.764C122.736 105.182 122.964 104.496 122.989 103.788C122.53 101.111 121.71 98.5081 120.552 96.051L111.832 96.6848Z" fill="black"/>
<path d="M122.683 95.5473C122.399 95.3724 122.038 95.3615 121.776 95.1866C120.946 94.6512 121.284 94.3998 120.804 93.8753C120.432 93.4373 119.954 93.1023 119.416 92.9027C117.882 92.4491 116.25 92.4491 114.717 92.9027C114.625 92.9226 114.539 92.9647 114.467 93.0253C114.395 93.0858 114.339 93.163 114.303 93.2502C114.268 93.3374 114.254 93.4319 114.263 93.5256C114.272 93.6193 114.304 93.7093 114.356 93.7879C113.377 94.0573 112.474 94.5504 111.718 95.2283C110.962 95.9063 110.374 96.7505 110 97.6946C109.626 98.6386 109.476 99.6566 109.563 100.668C109.649 101.68 109.97 102.658 110.499 103.525C111.493 105.055 113.384 106.311 114.4 104.279C115.014 102.808 115.196 101.193 114.924 99.6234C114.864 99.0932 114.864 98.558 114.924 98.0279C115.261 97.5034 115.714 97.0638 116.249 96.7434C116.783 96.423 117.385 96.2306 118.006 96.1811C118.312 96.498 118.574 96.9569 118.858 97.2739C119.293 97.7437 119.822 98.1162 120.41 98.3666C120.86 98.6164 121.381 98.707 121.889 98.6237C122.397 98.5404 122.861 98.2881 123.208 97.9077C123.337 97.7208 123.425 97.5094 123.469 97.2867C123.512 97.0639 123.509 96.8346 123.46 96.6131C123.411 96.3916 123.316 96.1826 123.183 95.9992C123.049 95.8158 122.879 95.6619 122.683 95.5473Z" fill="black"/>
<path d="M115.318 100.061C115.318 100.061 113.678 99.3074 113.351 100.619C113.023 101.93 114.225 102.717 114.848 102.476C115.471 102.236 115.7 100.619 115.318 100.061Z" fill="white"/>
<path d="M111.384 94.9593C111.737 94.2082 112.252 93.545 112.893 93.0176C113.534 92.4903 114.284 92.1121 115.089 91.9104C115.908 91.6154 116.487 92.8502 115.657 93.1453C115.026 93.277 114.431 93.5447 113.914 93.9297C113.397 94.3147 112.97 94.8078 112.663 95.3746C112.592 95.5238 112.47 95.6423 112.319 95.7078C112.167 95.7733 111.997 95.7813 111.84 95.7303C111.683 95.6794 111.551 95.573 111.467 95.431C111.383 95.2891 111.353 95.1214 111.384 94.9593Z" fill="#3CBCC3"/>
<path d="M118.334 167.848C118.334 167.848 117.416 182.578 117.317 184.567L119.503 192.523C119.503 192.523 120.017 178.043 118.334 167.848Z" fill="black"/>
<path d="M128.234 251.785C130.172 252.437 132.283 252.331 134.146 251.49C135.769 252.259 137.516 252.732 139.304 252.889C141.49 252.889 143.282 252.211 143.435 254.331C143.588 256.452 143.643 257.074 143.435 257.304C137.894 258.397 128.234 257.304 128.234 257.304C127.813 256.445 127.595 255.501 127.595 254.545C127.595 253.588 127.813 252.644 128.234 251.785Z" fill="black"/>
<path d="M94.0632 251.917C95.9777 252.558 98.065 252.445 99.8987 251.6C101.496 252.362 103.217 252.832 104.98 252.987C107.166 252.987 108.903 252.288 109.056 254.419C109.166 255.407 109.166 256.404 109.056 257.391C103.002 258.255 94.0632 257.391 94.0632 257.391C93.657 256.536 93.4463 255.601 93.4463 254.654C93.4463 253.707 93.657 252.772 94.0632 251.917Z" fill="black"/>
<path d="M125.076 145.336C124.168 145.052 123.214 144.948 122.267 145.03C122.147 145.03 122.038 145.03 121.918 145.03C121.988 144.929 122.05 144.823 122.103 144.713C122.42 144.024 122.475 142.855 121.612 142.527C120.748 142.199 120.136 143.314 119.677 143.871C119.15 144.553 118.497 145.128 117.754 145.565C116.97 145.824 116.16 145.996 115.339 146.079C115.033 146.079 114.64 146.166 114.246 146.265C114.246 146.265 101.887 147.27 99.428 143.161C98.98 142.418 100.291 133.883 102.586 131.676C103.602 130.703 104.684 129.731 105.624 128.911C107.92 126.942 109.464 124.239 109.995 121.262C110.333 118.905 109.988 116.5 109.001 114.333C108.828 113.73 108.508 113.179 108.071 112.729C107.633 112.279 107.091 111.945 106.492 111.755C105.894 111.566 105.258 111.528 104.641 111.644C104.025 111.76 103.446 112.027 102.958 112.421C98.8051 115.809 92.1063 124.496 91.9424 124.715C85.9976 132.485 83.9869 142.833 88.7296 149.499C93.4723 156.165 114.487 149.893 114.487 149.893C114.977 150.113 115.496 150.264 116.027 150.341C116.945 150.676 117.939 150.737 118.891 150.516C119.094 150.457 119.291 150.38 119.481 150.286C120.325 150.642 121.254 150.752 122.158 150.603C122.248 150.589 122.334 150.554 122.409 150.502C122.484 150.449 122.546 150.38 122.591 150.3C122.635 150.22 122.66 150.131 122.665 150.039C122.669 149.948 122.653 149.857 122.617 149.772C122.802 149.726 122.971 149.632 123.109 149.499C123.205 149.432 123.287 149.346 123.349 149.247C123.411 149.147 123.452 149.036 123.469 148.92C123.644 148.831 123.803 148.712 123.939 148.57C124.163 148.357 124.319 148.083 124.389 147.782C124.459 147.481 124.439 147.166 124.333 146.877C125.209 147.334 125.992 147.953 126.638 148.702C126.711 148.789 126.805 148.856 126.912 148.895C127.019 148.934 127.135 148.943 127.246 148.922C127.358 148.901 127.462 148.85 127.548 148.774C127.633 148.699 127.696 148.602 127.731 148.494C128.3 147.062 126.169 145.696 125.076 145.336Z" fill="white"/>
<path d="M98.1173 152.812C94.0193 152.812 90.3039 152.036 88.5882 149.621C84.0422 143.25 85.3098 132.923 91.801 124.487C92.9921 122.935 99.0025 115.297 102.86 112.149C103.343 111.743 103.917 111.458 104.533 111.319C105.149 111.18 105.79 111.191 106.401 111.352C107.081 111.555 107.702 111.918 108.213 112.411C108.725 112.903 109.111 113.51 109.34 114.182C110.35 116.4 110.702 118.862 110.357 121.274C109.792 124.307 108.198 127.051 105.843 129.044C104.751 129.995 103.658 130.956 102.816 131.798C100.554 133.983 99.3631 142.256 99.7019 142.955C102.019 146.813 113.821 145.949 114.258 145.917C114.507 145.86 114.758 145.816 115.012 145.785H115.307L115.919 145.698C116.518 145.628 117.108 145.492 117.678 145.294C118.378 144.875 118.99 144.326 119.481 143.676C119.569 143.578 119.656 143.458 119.744 143.338C120.17 142.758 120.836 141.873 121.743 142.245C121.912 142.314 122.064 142.417 122.192 142.546C122.319 142.676 122.42 142.83 122.487 142.999C122.677 143.591 122.642 144.234 122.388 144.802C123.332 144.726 124.282 144.834 125.186 145.119C126.334 145.493 127.308 146.269 127.929 147.304C128.026 147.511 128.076 147.737 128.076 147.966C128.076 148.194 128.026 148.42 127.929 148.627C127.864 148.773 127.765 148.902 127.639 149.001C127.513 149.1 127.365 149.167 127.207 149.195C127.06 149.219 126.909 149.204 126.77 149.152C126.63 149.101 126.506 149.014 126.41 148.9C125.901 148.325 125.316 147.821 124.672 147.403C124.668 147.915 124.464 148.405 124.104 148.769C123.984 148.895 123.848 149.005 123.7 149.097C123.666 149.323 123.563 149.533 123.404 149.698C123.295 149.809 123.165 149.898 123.022 149.96C123.047 150.178 122.985 150.398 122.851 150.571C122.716 150.745 122.518 150.859 122.301 150.889C121.387 151.033 120.452 150.931 119.591 150.594C119.42 150.671 119.245 150.737 119.066 150.79C118.065 151.025 117.017 150.965 116.05 150.616C115.543 150.539 115.047 150.4 114.575 150.2C109.217 151.745 103.69 152.622 98.1173 152.812ZM105.384 111.767C104.584 111.772 103.81 112.058 103.199 112.576C99.3849 115.679 93.3637 123.285 92.2709 124.771C85.9546 133.033 84.6214 143.097 88.9925 149.271C93.5604 155.686 114.236 149.632 114.444 149.566H114.542H114.64C115.11 149.766 115.601 149.909 116.105 149.993C116.989 150.306 117.942 150.366 118.858 150.167C119.043 150.112 119.223 150.039 119.394 149.949H119.503H119.623C120.42 150.286 121.295 150.388 122.148 150.244C122.192 150.242 122.235 150.228 122.273 150.205C122.311 150.183 122.343 150.151 122.366 150.113C122.391 150.062 122.403 150.006 122.403 149.949C122.403 149.892 122.391 149.836 122.366 149.785L122.279 149.512L122.552 149.435C122.693 149.397 122.822 149.321 122.924 149.217C123.024 149.111 123.079 148.969 123.077 148.823V148.67L123.208 148.594C123.356 148.515 123.492 148.416 123.612 148.299C123.798 148.119 123.929 147.89 123.989 147.638C124.049 147.386 124.036 147.123 123.951 146.878L123.71 146.244L124.322 146.539C125.251 147.023 126.075 147.684 126.748 148.485C126.788 148.529 126.837 148.564 126.892 148.587C126.947 148.609 127.006 148.619 127.065 148.616C127.135 148.601 127.201 148.569 127.256 148.523C127.311 148.477 127.354 148.419 127.382 148.353C127.442 148.216 127.473 148.067 127.473 147.916C127.473 147.766 127.442 147.617 127.382 147.479C126.823 146.589 125.968 145.923 124.967 145.6C124.095 145.327 123.178 145.227 122.268 145.305H122.17H121.995H121.842L121.459 145.228L121.656 144.889L121.743 144.769L121.842 144.605C122.04 144.169 122.071 143.675 121.929 143.217C121.892 143.115 121.834 143.021 121.759 142.942C121.684 142.863 121.593 142.8 121.492 142.758C121 142.562 120.618 143.01 120.137 143.654L119.864 144.026C119.315 144.734 118.636 145.331 117.864 145.785C117.249 146.017 116.606 146.168 115.952 146.233L115.362 146.332H115.056C114.815 146.332 114.564 146.408 114.323 146.463L113.974 146.561V146.496C112.029 146.627 101.527 147.13 99.1882 143.217C98.6746 142.343 100.008 133.688 102.39 131.393C103.286 130.541 104.346 129.579 105.45 128.618C107.715 126.71 109.258 124.083 109.821 121.176C110.151 118.867 109.814 116.512 108.849 114.39C108.647 113.802 108.309 113.271 107.863 112.84C107.417 112.409 106.874 112.09 106.28 111.909C105.99 111.817 105.688 111.769 105.384 111.767Z" fill="black"/>
<path d="M102.62 133.437C103.56 132.53 109.515 126.695 110.433 120.892C110.849 118.258 110.029 111.887 106.74 111.122C101.483 109.91 94.4567 117.548 89.5938 123.307C91.7793 128.334 96.7078 131.842 102.62 133.437Z" fill="#3CBCC3"/>
<path d="M124.169 151.26L110.498 152.079L123.579 155.751L124.169 151.26Z" fill="white"/>
<path d="M123.82 156.099L108.859 151.903L124.486 150.963L123.82 156.099ZM112.127 152.252L123.35 155.4L123.852 151.542L112.127 152.252Z" fill="black"/>
<path d="M110.498 152.08L110.422 153.381L123.59 157.402L123.579 155.752L110.498 152.08Z" fill="white"/>
<path d="M123.863 157.774L110.138 153.577L110.236 151.73L123.852 155.544L123.863 157.774ZM110.75 153.184L123.36 157.03V155.938L110.793 152.419L110.75 153.184Z" fill="black"/>
<path d="M151.882 154.045L123.579 155.75L123.59 157.4L151.882 155.509V154.045Z" fill="white"/>
<path d="M123.316 157.665V155.479L152.177 153.73V155.752L123.316 157.665ZM123.863 155.982V157.074L151.609 155.217V154.386L123.863 155.982Z" fill="black"/>
<path d="M151.882 154.046L123.579 155.751L125.765 140.375C125.794 140.107 125.923 139.859 126.124 139.679C126.326 139.499 126.587 139.401 126.857 139.402L152.888 137.829C153.053 137.814 153.22 137.836 153.376 137.895C153.531 137.954 153.671 138.048 153.785 138.169C153.899 138.29 153.983 138.436 154.032 138.595C154.081 138.753 154.094 138.921 154.068 139.086L151.882 154.046Z" fill="white"/>
<path d="M123.263 156.044L125.448 140.341C125.483 140.012 125.633 139.706 125.87 139.476C126.108 139.247 126.419 139.108 126.749 139.084L152.779 137.51C152.982 137.504 153.185 137.541 153.373 137.618C153.561 137.696 153.731 137.811 153.872 137.958C154.007 138.104 154.109 138.277 154.172 138.465C154.234 138.654 154.255 138.854 154.232 139.051L152.047 154.219L123.263 156.044ZM152.899 138.1L126.869 139.674C126.672 139.688 126.486 139.769 126.342 139.905C126.199 140.04 126.107 140.221 126.082 140.417L123.897 155.454L151.653 153.782L153.741 139.084C153.757 138.962 153.745 138.838 153.708 138.721C153.67 138.603 153.606 138.496 153.522 138.406C153.446 138.314 153.351 138.239 153.244 138.186C153.136 138.134 153.019 138.104 152.899 138.1Z" fill="black"/>
<path d="M142.047 155.39C142.047 155.128 142.342 154.658 142.746 154.734L142.877 154.789C142.839 154.605 142.839 154.415 142.877 154.232C142.976 153.838 143.358 153.259 143.894 153.587C144.107 153.72 144.283 153.904 144.407 154.122C144.444 153.931 144.532 153.753 144.66 153.607C144.789 153.461 144.955 153.352 145.139 153.292C145.784 153.051 146.09 153.467 146.232 153.937C146.342 153.456 146.626 152.767 147.249 153.117C147.582 153.362 147.845 153.69 148.014 154.068C148.275 154.508 148.474 154.982 148.604 155.477C148.61 155.495 148.61 155.514 148.604 155.532C148.623 155.561 148.634 155.595 148.634 155.63C148.634 155.665 148.623 155.7 148.604 155.729C148.418 156.231 147.806 156.756 147.205 156.308C147.05 156.187 146.907 156.052 146.779 155.904C146.779 156.352 146.779 156.745 146.232 156.843C145.973 156.86 145.715 156.803 145.487 156.68C145.258 156.556 145.07 156.37 144.943 156.144C144.812 156.352 144.626 156.625 144.309 156.614C144.184 156.6 144.064 156.56 143.955 156.498C143.846 156.436 143.751 156.353 143.675 156.253C143.672 156.28 143.662 156.306 143.647 156.329C143.632 156.352 143.612 156.371 143.588 156.384C143.421 156.459 143.239 156.491 143.057 156.477C142.876 156.464 142.7 156.405 142.547 156.306C142.394 156.207 142.268 156.071 142.181 155.911C142.093 155.751 142.047 155.572 142.047 155.39Z" fill="white"/>
<path d="M146.069 157.105C145.858 157.098 145.651 157.045 145.463 156.951C145.274 156.857 145.108 156.723 144.976 156.558C144.894 156.656 144.793 156.735 144.677 156.79C144.562 156.844 144.437 156.873 144.31 156.875C144.08 156.869 143.86 156.784 143.687 156.635C143.456 156.758 143.194 156.812 142.933 156.793C142.672 156.774 142.422 156.681 142.211 156.525C142.025 156.396 141.878 156.217 141.789 156.008C141.701 155.799 141.673 155.569 141.709 155.345C141.743 155.135 141.837 154.939 141.981 154.782C142.125 154.625 142.311 154.513 142.517 154.46C142.505 154.362 142.505 154.263 142.517 154.165C142.557 153.975 142.638 153.796 142.755 153.641C142.873 153.486 143.023 153.359 143.195 153.269C143.316 153.222 143.447 153.204 143.576 153.218C143.705 153.231 143.829 153.275 143.938 153.345C144.05 153.412 144.153 153.493 144.244 153.586C144.41 153.331 144.656 153.139 144.943 153.039C145.209 152.93 145.508 152.93 145.774 153.039C145.901 153.097 146.013 153.183 146.102 153.291C146.198 153.087 146.359 152.922 146.561 152.821C146.681 152.771 146.811 152.751 146.94 152.763C147.07 152.774 147.194 152.817 147.304 152.886C147.649 153.126 147.928 153.449 148.112 153.826L148.178 153.936C148.445 154.387 148.651 154.872 148.79 155.378C148.823 155.439 148.84 155.506 148.84 155.575C148.84 155.643 148.823 155.711 148.79 155.771C148.713 155.977 148.592 156.163 148.436 156.316C148.279 156.469 148.09 156.585 147.883 156.657C147.726 156.696 147.562 156.699 147.403 156.667C147.244 156.635 147.095 156.568 146.965 156.471C146.913 156.631 146.819 156.773 146.692 156.883C146.564 156.993 146.41 157.066 146.244 157.094L146.069 157.105ZM144.922 155.553L145.195 155.946C145.424 156.263 145.785 156.624 146.2 156.547C146.331 156.547 146.583 156.46 146.528 155.892L146.451 155.039L147.009 155.684C147.122 155.822 147.25 155.946 147.391 156.056C147.45 156.107 147.521 156.143 147.597 156.16C147.674 156.177 147.753 156.175 147.828 156.154C147.945 156.109 148.051 156.042 148.141 155.955C148.231 155.869 148.303 155.766 148.353 155.651V155.476C148.221 155.025 148.034 154.592 147.796 154.187L147.719 154.067C147.587 153.777 147.384 153.525 147.129 153.335C146.976 153.247 146.899 153.335 146.878 153.335C146.673 153.505 146.544 153.748 146.517 154.012L146.309 154.93L145.992 154.056C145.945 153.849 145.82 153.669 145.643 153.553C145.577 153.524 145.507 153.509 145.435 153.509C145.364 153.509 145.293 153.524 145.228 153.553C145.085 153.596 144.957 153.676 144.857 153.786C144.757 153.896 144.689 154.03 144.659 154.176L144.517 154.843L144.168 154.263C144.064 154.082 143.917 153.928 143.741 153.815C143.702 153.797 143.659 153.787 143.616 153.787C143.572 153.787 143.529 153.797 143.49 153.815C143.309 153.934 143.18 154.118 143.129 154.329C143.102 154.481 143.102 154.636 143.129 154.788L143.217 155.356L142.725 155.061C142.506 155.006 142.332 155.312 142.299 155.487C142.28 155.611 142.297 155.737 142.347 155.851C142.397 155.965 142.479 156.063 142.583 156.132C142.711 156.222 142.861 156.276 143.016 156.287C143.172 156.299 143.328 156.268 143.468 156.198L143.566 155.739L143.927 156.099C144.035 156.24 144.19 156.337 144.364 156.372C144.528 156.372 144.637 156.23 144.769 156.034L144.922 155.553Z" fill="black"/>
</svg>
