<svg width="87" height="86" viewBox="0 0 87 86" fill="none" xmlns="http://www.w3.org/2000/svg">
<rect width="86" height="86" transform="translate(0.636719)" fill="white"/>
<path d="M70.2888 37.6254C70.3031 25.1239 61.7664 14.2634 49.6925 11.4225C37.6187 8.58169 25.1966 14.5108 19.7221 25.7276C14.2476 36.9444 17.1666 50.4863 26.7646 58.3998C30.4405 61.4505 32.9551 65.6906 33.881 70.3994C34.1325 71.6763 35.2554 72.5878 36.5463 72.5629H50.7789C52.0697 72.5878 53.1927 71.6763 53.4442 70.3994C54.3601 65.7039 56.8606 61.4732 60.5205 58.4266C66.7222 53.334 70.3119 45.6901 70.2888 37.6254Z" fill="#F4D593"/>
<path d="M43.6365 86C39.2205 86 35.6406 82.3903 35.6406 77.9375V72.5625H51.6324V77.9375C51.6324 82.3903 48.0525 86 43.6365 86Z" fill="#D9D9D9"/>
<path d="M43.6364 8.0625C42.9004 8.0625 42.3037 7.46088 42.3037 6.71875V1.34375C42.3037 0.601617 42.9004 0 43.6364 0C44.3724 0 44.969 0.601617 44.969 1.34375V6.71875C44.969 7.46088 44.3724 8.0625 43.6364 8.0625Z" fill="#F4D593"/>
<path d="M22.9007 16.7177C22.3809 17.2387 21.5415 17.2387 21.0217 16.7177L17.2503 12.9283C16.7278 12.4014 16.7278 11.5471 17.2503 11.0202C17.7729 10.4933 18.6201 10.4933 19.1427 11.0202L22.9007 14.7827C23.1613 15.036 23.3086 15.3852 23.3086 15.7502C23.3086 16.1151 23.1613 16.4644 22.9007 16.7177Z" fill="#F4D593"/>
<path d="M14.3181 37.625C14.3181 38.3671 13.7215 38.9688 12.9855 38.9688H7.65491C6.91891 38.9688 6.32227 38.3671 6.32227 37.625C6.32227 36.8829 6.91891 36.2812 7.65491 36.2812H12.9855C13.7215 36.2812 14.3181 36.8829 14.3181 37.625Z" fill="#F4D593"/>
<path d="M22.9008 58.5343C23.4175 59.0584 23.4175 59.9048 22.9008 60.429L19.1427 64.2318C18.8047 64.5726 18.312 64.7057 17.8502 64.581C17.3884 64.4562 17.0278 64.0925 16.904 63.6269C16.7803 63.1613 16.9123 62.6645 17.2503 62.3236L20.9818 58.5343C21.2329 58.2715 21.5793 58.123 21.9413 58.123C22.3032 58.123 22.6496 58.2715 22.9008 58.5343Z" fill="#F4D593"/>
<path d="M64.3717 58.5333C64.8915 58.0123 65.7309 58.0123 66.2507 58.5333L70.0221 62.3227C70.3601 62.6636 70.4922 63.1604 70.3684 63.626C70.2447 64.0916 69.884 64.4553 69.4223 64.58C68.9605 64.7048 68.4678 64.5717 68.1297 64.2308L64.3717 60.4683C64.1111 60.2151 63.9639 59.8658 63.9639 59.5008C63.9639 59.1359 64.1111 58.7866 64.3717 58.5333Z" fill="#F4D593"/>
<path d="M72.9541 37.625C72.9541 36.8829 73.5507 36.2812 74.2867 36.2812H79.6173C80.3533 36.2812 80.95 36.8829 80.95 37.625C80.95 38.3671 80.3533 38.9688 79.6173 38.9688H74.2867C73.5507 38.9688 72.9541 38.3671 72.9541 37.625Z" fill="#F4D593"/>
<path d="M64.3729 16.7177C63.8562 16.1936 63.8562 15.3471 64.3729 14.823L68.1309 11.0202C68.469 10.6794 68.9617 10.5462 69.4234 10.671C69.8852 10.7958 70.2459 11.1595 70.3696 11.6251C70.4933 12.0907 70.3613 12.5875 70.0233 12.9283L66.2919 16.7177C66.0407 16.9805 65.6943 17.1289 65.3324 17.1289C64.9704 17.1289 64.6241 16.9805 64.3729 16.7177Z" fill="#F4D593"/>
<path d="M52.9653 77.9375H34.3082C33.5722 77.9375 32.9756 77.3359 32.9756 76.5938C32.9756 75.8516 33.5722 75.25 34.3082 75.25H52.9653C53.7013 75.25 54.2979 75.8516 54.2979 76.5938C54.2979 77.3359 53.7013 77.9375 52.9653 77.9375Z" fill="#C8C8C8"/>
<path d="M51.632 83.3125H35.6403C34.9043 83.3125 34.3076 82.7109 34.3076 81.9688C34.3076 81.2266 34.9043 80.625 35.6403 80.625H51.632C52.368 80.625 52.9646 81.2266 52.9646 81.9688C52.9646 82.7109 52.368 83.3125 51.632 83.3125Z" fill="#C8C8C8"/>
<ellipse cx="43.6358" cy="37.625" rx="21.3223" ry="21.5" fill="#F3F3F3"/>
<path d="M62.2935 39.8019V35.4481C62.2935 34.424 61.4702 33.5938 60.4545 33.5938C59.6932 33.5959 59.0118 33.1181 58.7487 32.3978C58.5369 31.7676 58.2831 31.1526 57.9891 30.5569C57.6737 29.8517 57.8221 29.0234 58.3622 28.4741C58.709 28.1305 58.9043 27.6608 58.9043 27.1706C58.9043 26.6804 58.709 26.2108 58.3622 25.8672L55.2972 22.8438C54.9564 22.4941 54.4906 22.2972 54.0045 22.2972C53.5184 22.2972 53.0526 22.4941 52.7118 22.8438C52.1689 23.392 51.3451 23.542 50.6462 23.22C50.0554 22.9235 49.4455 22.6676 48.8205 22.4541C48.0853 22.1773 47.6078 21.4577 47.6345 20.6669C47.6345 20.1751 47.4407 19.7034 47.0958 19.3556C46.7509 19.0079 46.2831 18.8125 45.7954 18.8125H41.4776C40.462 18.8125 39.6386 19.6427 39.6386 20.6669C39.6407 21.4345 39.1669 22.1216 38.4525 22.3869C37.8276 22.6005 37.2176 22.8564 36.6268 23.1528C35.9408 23.4882 35.1211 23.3656 34.5612 22.8438C34.2205 22.4941 33.7547 22.2972 33.2685 22.2972C32.7824 22.2972 32.3166 22.4941 31.9759 22.8438L28.9774 25.8672C28.6307 26.2108 28.4354 26.6804 28.4354 27.1706C28.4354 27.6608 28.6307 28.1305 28.9774 28.4741C29.5211 29.0216 29.6699 29.8522 29.3506 30.5569C29.0566 31.1526 28.8028 31.7676 28.591 32.3978C28.3247 33.1156 27.6452 33.592 26.8852 33.5938C26.386 33.5755 25.9009 33.7628 25.5415 34.1125C25.182 34.4623 24.9792 34.9444 24.9795 35.4481V39.8019C24.9795 40.826 25.8029 41.6562 26.8185 41.6562C27.5798 41.6541 28.2612 42.1319 28.5243 42.8522C28.7361 43.4824 28.9899 44.0974 29.2839 44.6931C29.6166 45.3848 29.4949 46.2114 28.9774 46.7759C28.6307 47.1195 28.4354 47.5892 28.4354 48.0794C28.4354 48.5696 28.6307 49.0392 28.9774 49.3828L32.0425 52.4734C32.3833 52.8231 32.849 53.02 33.3352 53.02C33.8213 53.02 34.2871 52.8231 34.6278 52.4734C35.1708 51.9252 35.9946 51.7752 36.6934 52.0972C37.2842 52.3936 37.8942 52.6495 38.5192 52.8631C39.2048 53.1531 39.6476 53.8334 39.6386 54.5831C39.6386 55.6073 40.462 56.4375 41.4776 56.4375H45.7954C46.8111 56.4375 47.6345 55.6073 47.6345 54.5831C47.6323 53.8155 48.1061 53.1284 48.8205 52.8631C49.4455 52.6495 50.0554 52.3936 50.6462 52.0972C51.3456 51.7792 52.167 51.9288 52.7118 52.4734C53.0526 52.8231 53.5184 53.02 54.0045 53.02C54.4906 53.02 54.9564 52.8231 55.2972 52.4734L58.3622 49.3828C58.709 49.0392 58.9043 48.5696 58.9043 48.0794C58.9043 47.5892 58.709 47.1195 58.3622 46.7759C57.8186 46.2284 57.6698 45.3978 57.9891 44.6931C58.2831 44.0974 58.5369 43.4824 58.7487 42.8522C59.015 42.1344 59.6945 41.658 60.4545 41.6562C61.4702 41.6562 62.2935 40.826 62.2935 39.8019Z" fill="#00BEBD"/>
<ellipse cx="43.6364" cy="37.625" rx="11.9938" ry="12.0938" fill="#50D9D7"/>
<path d="M38.3055 41.6559C37.5858 41.6559 37.5459 41.4543 34.694 38.5787C34.4417 38.3264 34.2998 37.9829 34.2998 37.6246C34.2998 37.2663 34.4417 36.9229 34.694 36.6706L37.3593 33.9831C37.8818 33.4562 38.7291 33.4562 39.2516 33.9831C39.7742 34.51 39.7742 35.3643 39.2516 35.8912L37.5192 37.6246L39.2516 39.3581C39.6361 39.7425 39.7516 40.3232 39.544 40.8274C39.3364 41.3316 38.8469 41.6591 38.3055 41.6559Z" fill="white"/>
<path d="M48.9674 41.6559C48.426 41.6591 47.9365 41.3316 47.7289 40.8274C47.5213 40.3232 47.6368 39.7425 48.0212 39.3581L49.7536 37.6246L48.0212 35.8912C47.4987 35.3643 47.4987 34.51 48.0212 33.9831C48.5438 33.4562 49.391 33.4562 49.9136 33.9831L52.5789 36.6706C52.8311 36.9229 52.9731 37.2663 52.9731 37.6246C52.9731 37.9829 52.8311 38.3264 52.5789 38.5787C49.6737 41.5081 49.687 41.6559 48.9674 41.6559Z" fill="white"/>
<path d="M42.3044 44.3423C41.8878 44.3547 41.4895 44.1698 41.2279 43.8427C40.9663 43.5156 40.8715 43.084 40.9717 42.6761L43.637 31.9261C43.8357 31.2326 44.5424 30.8213 45.2374 30.9947C45.9323 31.1681 46.3672 31.8641 46.2223 32.5711L43.5571 43.3211C43.4139 43.9063 42.9018 44.3237 42.3044 44.3423Z" fill="white"/>
</svg>
