<svg width="101" height="100" viewBox="0 0 101 100" fill="none" xmlns="http://www.w3.org/2000/svg">
<rect width="100" height="100" transform="translate(0.636719)" fill="white"/>
<path d="M99.4216 68.1395C95.2099 63.9578 89.107 62.3035 83.36 63.7856L63.36 69.0164C64.5446 66.9395 63.9908 66.1549 63.9908 65.9395C63.8014 65.2274 63.3722 64.6025 62.7754 64.1703L50.9754 55.5395C48.0821 53.438 44.5975 52.3069 41.0216 52.3087H31.9754C28.7831 52.2962 25.6523 53.1869 22.9446 54.878L14.4369 60.2318C13.9862 60.5135 13.7128 61.008 13.7139 61.5395V92.3087C13.7139 93.1584 14.4027 93.8472 15.2523 93.8472C26.7293 93.8472 29.4677 93.6164 34.2677 94.7241C48.5908 98.0318 49.6523 98.4626 53.0523 98.4626C57.8089 98.4734 62.4464 96.976 66.2985 94.1856L99.2216 70.478C99.59 70.2161 99.8247 69.8054 99.8632 69.355C99.9017 68.9047 99.7402 68.4601 99.4216 68.1395Z" fill="#E9E9E9"/>
<rect x="1.40625" y="53.8477" width="15.3846" height="46.1538" rx="3" fill="#3CBCC3"/>
<ellipse cx="10.6375" cy="93.8465" rx="3.07692" ry="3.07692" fill="#F0FBFA"/>
<path d="M67.5605 67.9082C66.3967 70.8645 63.9869 73.156 60.9759 74.1697C58.0637 75.1463 54.8731 74.8328 52.2066 73.3082L50.4066 72.3082C49.6674 71.8834 49.4126 70.9397 49.8374 70.2005C50.2622 69.4613 51.2059 69.2064 51.9451 69.6313L53.7297 70.6467C56.8928 72.486 60.9138 71.8426 63.3451 69.1082L67.5605 67.9082Z" fill="#E2E2E2"/>
<path d="M41.806 14.2778C39.3554 15.6392 37.6155 17.9964 37.0368 20.7394L36.8214 21.7701C36.8214 22.6198 36.1326 23.3086 35.283 23.3086C34.4333 23.3086 33.7445 22.6198 33.7445 21.7701L33.5291 20.7394C32.9504 17.9964 31.2105 15.6392 28.7599 14.2778C28.058 13.8704 27.626 13.1202 27.626 12.3086C27.626 11.497 28.058 10.7468 28.7599 10.3394C31.2105 8.97801 32.9504 6.62081 33.5291 3.87782L33.7137 2.84706C33.7137 1.99739 34.4025 1.30859 35.2522 1.30859C36.1019 1.30859 36.7906 1.99739 36.7906 2.84706L37.006 3.87782C37.5848 6.62081 39.3246 8.97801 41.7753 10.3394C42.4804 10.7413 42.9183 11.4881 42.9246 12.2997C42.9309 13.1113 42.5048 13.865 41.806 14.2778Z" fill="#EBA63F"/>
<path d="M98.3292 29.4006V25.9852C98.3292 24.3793 97.0274 23.0775 95.4215 23.0775C94.171 23.0808 93.0601 22.2802 92.6676 21.0929C92.3159 19.9915 91.8734 18.9211 91.3446 17.8929C90.7731 16.7747 90.984 15.416 91.8676 14.5237C93.002 13.3834 93.002 11.5409 91.8676 10.4006L89.4676 8.0006C88.3274 6.86624 86.4849 6.86624 85.3446 8.0006C84.4569 8.89337 83.0919 9.1053 81.9753 8.52368C80.9471 7.99486 79.8768 7.55232 78.7753 7.2006C77.591 6.80412 76.7922 5.69566 76.7907 4.44675C76.7907 2.84088 75.4889 1.53906 73.883 1.53906H70.4676C69.6965 1.53906 68.9569 1.84541 68.4116 2.39071C67.8663 2.936 67.5599 3.67559 67.5599 4.44675C67.5633 5.6972 66.7626 6.80818 65.5753 7.2006C64.4739 7.55232 63.4036 7.99486 62.3753 8.52368C61.2571 9.09516 59.8984 8.88422 59.0061 8.0006C57.8658 6.86624 56.0233 6.86624 54.883 8.0006L52.483 10.4006C51.3487 11.5409 51.3487 13.3834 52.483 14.5237C53.3758 15.4113 53.5877 16.7764 53.0061 17.8929C52.4773 18.9211 52.0347 19.9915 51.683 21.0929C51.2865 22.2772 50.1781 23.076 48.9292 23.0775C47.3233 23.0775 46.0215 24.3793 46.0215 25.9852V29.4006C46.0215 31.0065 47.3233 32.3083 48.9292 32.3083C50.1796 32.305 51.2906 33.1056 51.683 34.2929C52.0347 35.3944 52.4773 36.4647 53.0061 37.4929C53.5776 38.6111 53.3666 39.9698 52.483 40.8621C51.3487 42.0024 51.3487 43.8449 52.483 44.9852L54.883 47.3852C56.0233 48.5196 57.8658 48.5196 59.0061 47.3852C59.8938 46.4924 61.2588 46.2805 62.3753 46.8621C63.4036 47.391 64.4739 47.8335 65.5753 48.1852C66.7596 48.5817 67.5585 49.6902 67.5599 50.9391C67.5599 51.7102 67.8663 52.4498 68.4116 52.9951C68.9569 53.5404 69.6965 53.8468 70.4676 53.8468H73.883C75.4889 53.8468 76.7907 52.5449 76.7907 50.9391C76.7874 49.6886 77.5881 48.5776 78.7753 48.1852C79.8768 47.8335 80.9471 47.391 81.9753 46.8621C83.0935 46.2907 84.4523 46.5016 85.3446 47.3852C86.4849 48.5196 88.3274 48.5196 89.4676 47.3852L91.8676 44.9852C93.002 43.8449 93.002 42.0024 91.8676 40.8621C90.9749 39.9745 90.763 38.6095 91.3446 37.4929C91.8734 36.4647 92.3159 35.3944 92.6676 34.2929C93.0641 33.1086 94.1726 32.3098 95.4215 32.3083C96.1927 32.3083 96.9322 32.002 97.4775 31.4567C98.0228 30.9114 98.3292 30.1718 98.3292 29.4006Z" fill="#EBA63F"/>
<ellipse cx="72.1756" cy="27.6932" rx="15.3846" ry="15.3846" fill="#EEBA5B"/>
<path d="M66.0212 33.8472C65.6122 33.8496 65.2192 33.689 64.9289 33.401L60.3135 28.7856C60.0222 28.4968 59.8584 28.1036 59.8584 27.6933C59.8584 27.2831 60.0222 26.8899 60.3135 26.601L64.9289 21.9857C65.5321 21.3824 66.5102 21.3824 67.1135 21.9857C67.7167 22.5889 67.7167 23.567 67.1135 24.1703L63.575 27.6933L67.1135 31.2164C67.5573 31.6566 67.6906 32.3214 67.451 32.8987C67.2113 33.4759 66.6462 33.8508 66.0212 33.8472Z" fill="#F0FBFA"/>
<path d="M78.3297 33.8472C77.7047 33.8508 77.1396 33.4759 76.8999 32.8987C76.6602 32.3214 76.7936 31.6566 77.2374 31.2164L80.7758 27.6933L77.2374 24.1703C76.6341 23.567 76.6341 22.5889 77.2374 21.9857C77.8406 21.3824 78.8187 21.3824 79.422 21.9857L84.0374 26.601C84.3286 26.8899 84.4924 27.2831 84.4924 27.6933C84.4924 28.1036 84.3286 28.4968 84.0374 28.7856L79.422 33.401C79.1317 33.689 78.7386 33.8496 78.3297 33.8472Z" fill="#F0FBFA"/>
<path d="M70.6373 35.3857C70.1564 35.3998 69.6966 35.1881 69.3946 34.8137C69.0926 34.4392 68.9832 33.945 69.0989 33.478L72.1758 21.1703C72.4052 20.3763 73.221 19.9054 74.0233 20.1039C74.8256 20.3024 75.3277 21.0994 75.1604 21.9088L72.0835 34.2164C71.9182 34.8864 71.327 35.3644 70.6373 35.3857Z" fill="#F0FBFA"/>
</svg>
