<svg width="296" height="263" viewBox="0 0 296 263" fill="none" xmlns="http://www.w3.org/2000/svg">
<g clip-path="url(#clip0_2117_12307)">
<path d="M146.1 56.6065C117.74 62.1965 103.27 94.3065 57.5998 122.886C11.9298 151.466 21.9998 263.056 94.1098 244.856C162.92 227.496 166.11 228.856 211.16 230.466C267.56 232.476 235.84 38.9265 146.1 56.6065Z" fill="url(#paint0_linear_2117_12307)"/>
<path d="M69.1894 103.686C82.4994 93.0963 93.5894 74.6163 87.2794 56.8063C80.9694 38.9963 67.9994 72.1463 57.4994 83.1863C42.3394 99.1663 41.3394 125.856 69.1894 103.686Z" fill="url(#paint1_linear_2117_12307)"/>
<path d="M233.02 246.855H36.2402V248.225H233.02V246.855Z" fill="#C8D3FB"/>
<path d="M217.58 97.7564L220.21 97.5864L219.71 96.3364L216.83 95.3164L217.58 97.7564Z" fill="#D35600"/>
<path d="M203.119 84.4153L205.749 84.2453L205.589 83.1953H203.069L203.119 84.4153Z" fill="#D35600"/>
<path d="M123.278 67.3198L122.952 236.939L217.902 237.122L218.228 67.5021L123.278 67.3198Z" fill="url(#paint2_linear_2117_12307)"/>
<path d="M123.509 67.5566L217.959 67.7466L217.639 236.877L123.189 236.687L123.509 67.5566ZM123.009 67.0566L122.689 237.187L218.139 237.377L218.459 67.2466L122.999 67.0566H123.009Z" fill="#1D1D2C"/>
<path d="M215.169 60.7461L159.999 61.0661V68.2261L187.949 68.2861L207.869 68.3961C209.465 68.3987 211.044 68.7156 212.518 69.3286C213.991 69.9416 215.329 70.8388 216.455 71.9689C217.581 73.099 218.474 74.4399 219.082 75.915C219.69 77.3901 220.002 78.9705 219.999 80.5661L219.739 219.156C219.737 220.752 219.42 222.333 218.806 223.806C218.192 225.28 217.294 226.619 216.163 227.745C215.032 228.872 213.69 229.764 212.214 230.372C210.737 230.979 209.156 231.29 207.559 231.286L159.689 231.386V246.386L214.879 246.906C218.087 246.901 221.162 245.626 223.433 243.361C225.704 241.096 226.986 238.024 226.999 234.816L227.309 72.9261C227.313 71.3289 227.002 69.7465 226.394 68.2696C225.786 66.7927 224.893 65.4502 223.765 64.3189C222.637 63.1876 221.298 62.2897 219.823 61.6767C218.348 61.0636 216.767 60.7474 215.169 60.7461Z" fill="#1D1D2C"/>
<path d="M211 60.6953C210.73 60.6953 210.44 60.6953 210.16 60.6953H125.34C124.306 60.694 123.281 60.8966 122.325 61.2915C121.369 61.6864 120.5 62.2659 119.769 62.9968C119.037 63.7278 118.456 64.5958 118.06 65.5513C117.664 66.5068 117.46 67.531 117.46 68.5653V239.025C117.459 240.058 117.661 241.081 118.055 242.036C118.45 242.991 119.029 243.859 119.759 244.59C120.489 245.321 121.355 245.9 122.31 246.296C123.264 246.692 124.287 246.895 125.32 246.895H210.19H211.02C214.095 246.687 216.976 245.319 219.079 243.067C221.183 240.814 222.352 237.847 222.35 234.765V72.8753C222.364 69.7817 221.198 66.7991 219.089 64.5358C216.98 62.2725 214.087 60.899 211 60.6953ZM215 223.365C215 225.455 214.17 227.46 212.692 228.937C211.214 230.415 209.21 231.245 207.12 231.245H132.61C131.577 231.245 130.554 231.042 129.6 230.646C128.645 230.25 127.779 229.671 127.049 228.94C126.319 228.209 125.74 227.341 125.345 226.386C124.951 225.432 124.749 224.408 124.75 223.375V76.2353C124.75 75.2001 124.954 74.1751 125.351 73.219C125.748 72.2628 126.329 71.3944 127.062 70.6633C127.795 69.9322 128.665 69.353 129.622 68.9586C130.579 68.5643 131.605 68.3627 132.64 68.3653H207.16C209.237 68.3732 211.226 69.2018 212.695 70.6703C214.164 72.1389 214.992 74.1285 215 76.2053V223.365Z" fill="#414267"/>
<path d="M179.83 242.695H159.6C159.117 242.695 158.639 242.6 158.193 242.415C157.747 242.23 157.342 241.959 157.001 241.617C156.66 241.275 156.39 240.869 156.206 240.423C156.022 239.977 155.928 239.498 155.93 239.015C155.935 238.043 156.325 237.112 157.015 236.426C157.704 235.74 158.637 235.355 159.61 235.355H179.84C180.322 235.355 180.801 235.451 181.246 235.636C181.692 235.821 182.097 236.092 182.438 236.434C182.779 236.776 183.049 237.182 183.233 237.628C183.417 238.074 183.511 238.553 183.51 239.035C183.51 239.518 183.414 239.995 183.229 240.441C183.044 240.886 182.773 241.29 182.431 241.631C182.089 241.971 181.683 242.24 181.236 242.423C180.79 242.605 180.312 242.698 179.83 242.695Z" fill="#1D1D2C"/>
<path d="M215 78.9463H124.75V71.2862C124.75 70.4561 125.08 69.66 125.667 69.073C126.254 68.486 127.05 68.1562 127.88 68.1562H211.88C212.708 68.1589 213.502 68.4898 214.087 69.0765C214.672 69.6632 215 70.4578 215 71.2862V78.9463Z" fill="#1D1D2C"/>
<path d="M129.819 72.3456L130.639 71.5156L131.809 72.6956L132.979 71.5156L133.799 72.3456L132.629 73.5156L133.799 74.6856L132.979 75.5056L131.809 74.3356L130.639 75.5056L129.819 74.6856L130.989 73.5156L129.819 72.3456Z" fill="white"/>
<path d="M197.549 73.5567C197.551 73.228 197.456 72.9061 197.275 72.6318C197.093 72.3575 196.835 72.1431 196.532 72.016C196.229 71.8888 195.894 71.8545 195.572 71.9174C195.249 71.9803 194.952 72.1376 194.719 72.3694C194.486 72.6011 194.327 72.8969 194.262 73.2192C194.197 73.5415 194.23 73.8757 194.355 74.1796C194.48 74.4836 194.693 74.7434 194.966 74.9262C195.239 75.1091 195.561 75.2067 195.889 75.2067C196.328 75.2067 196.749 75.0332 197.06 74.7241C197.371 74.4149 197.547 73.9952 197.549 73.5567Z" fill="white"/>
<path d="M203.92 73.5567C203.922 73.2275 203.826 72.9052 203.644 72.6307C203.462 72.3562 203.203 72.1419 202.899 72.015C202.596 71.8881 202.261 71.8544 201.938 71.9181C201.615 71.9819 201.319 72.1402 201.086 72.3729C200.853 72.6057 200.695 72.9024 200.631 73.2253C200.567 73.5483 200.601 73.8828 200.728 74.1866C200.855 74.4903 201.069 74.7495 201.344 74.9311C201.618 75.1127 201.94 75.2087 202.27 75.2067C202.707 75.2067 203.127 75.0329 203.436 74.7234C203.746 74.414 203.92 73.9943 203.92 73.5567Z" fill="#C8D3FB"/>
<path d="M210.299 73.5567C210.301 73.228 210.206 72.9061 210.025 72.6318C209.843 72.3575 209.585 72.1431 209.282 72.016C208.979 71.8888 208.644 71.8545 208.322 71.9174C207.999 71.9803 207.702 72.1376 207.469 72.3694C207.236 72.6011 207.077 72.8969 207.012 73.2192C206.947 73.5415 206.98 73.8757 207.105 74.1796C207.23 74.4836 207.443 74.7434 207.716 74.9262C207.989 75.1091 208.311 75.2067 208.639 75.2067C209.078 75.2067 209.499 75.0332 209.81 74.7241C210.121 74.4149 210.297 73.9952 210.299 73.5567Z" fill="#BAE1FD"/>
<path d="M163.85 151.275C163.85 151.275 162.21 189.735 118.66 239.135L143.81 246.295L200.93 226.795C200.93 226.795 183.31 207.385 175.18 151.795L163.85 151.275Z" fill="#BAE1FD"/>
<path d="M176.2 155.926H163.2C162.629 155.926 162.066 155.797 161.552 155.548C161.038 155.3 160.587 154.939 160.232 154.492C159.878 154.045 159.628 153.523 159.503 152.966C159.378 152.41 159.38 151.832 159.51 151.276L160.85 145.596C161.042 144.766 161.509 144.026 162.176 143.496C162.842 142.965 163.668 142.676 164.52 142.676H174.86C175.713 142.675 176.541 142.962 177.21 143.49C177.88 144.018 178.352 144.756 178.55 145.586L179.89 151.256C180.025 151.813 180.031 152.394 179.909 152.954C179.786 153.514 179.538 154.039 179.182 154.489C178.827 154.939 178.373 155.302 177.857 155.551C177.34 155.8 176.773 155.928 176.2 155.926Z" fill="#C8D3FB"/>
<path d="M180.68 102.136L202.68 124.896C203.392 125.628 203.881 126.547 204.09 127.546L210.48 157.796C210.541 158.092 210.509 158.399 210.387 158.676C210.266 158.953 210.062 159.185 209.803 159.341C209.544 159.497 209.243 159.569 208.942 159.546C208.64 159.524 208.353 159.408 208.12 159.216L191 144.826C190.665 144.539 190.249 144.364 189.81 144.326L179.03 143.616C178.736 143.533 178.473 143.366 178.274 143.135C178.075 142.904 177.948 142.619 177.91 142.316L179.62 102.736C179.53 101.866 180 101.596 180.68 102.136Z" fill="#C8D3FB"/>
<path d="M158.63 102.166L136.71 124.976C136.003 125.71 135.518 126.629 135.31 127.626L129 157.906C128.942 158.202 128.977 158.509 129.101 158.784C129.224 159.06 129.43 159.29 129.69 159.443C129.95 159.597 130.251 159.666 130.552 159.642C130.853 159.617 131.138 159.5 131.37 159.306L148.37 144.876C148.707 144.593 149.122 144.419 149.56 144.376L160.34 143.636C160.633 143.552 160.896 143.385 161.095 143.154C161.294 142.923 161.421 142.638 161.46 142.336L159.65 102.756C159.77 101.886 159.31 101.626 158.63 102.166Z" fill="#C8D3FB"/>
<path d="M193.999 98.4754C193.999 127.285 183.129 150.645 169.649 150.655C156.169 150.665 145.179 127.365 145.149 98.5254C145.149 83.8954 147.939 69.5254 152.469 58.8654C152.411 59.0221 152.38 59.188 152.379 59.3554C152.379 62.0054 160.049 64.1254 169.509 64.1154C178.969 64.1054 186.619 61.9554 186.619 59.3154C186.619 59.1299 186.581 58.9464 186.509 58.7754C191.099 69.3654 193.939 83.8154 193.999 98.4754Z" fill="#414267"/>
<path d="M186.62 59.3664C186.62 62.0064 178.96 64.1564 169.51 64.1664C160.06 64.1764 152.38 62.0064 152.38 59.3664C152.38 56.7264 160.04 54.5764 169.49 54.5664C178.94 54.5564 186.62 56.6664 186.62 59.3664Z" fill="#C28E61"/>
<path d="M186.51 58.765C187.75 62.485 175.91 64.085 169.51 64.105C163.11 64.125 151.4 62.635 152.51 58.875C156.87 48.605 162.85 41.875 169.51 41.875C176.17 41.875 182.09 48.525 186.51 58.765Z" fill="#D3D8EA"/>
<path d="M181.829 88.4352C181.829 90.8719 181.107 93.2538 179.753 95.2799C178.399 97.3059 176.475 98.885 174.224 99.8174C171.973 100.75 169.496 100.994 167.106 100.519C164.716 100.043 162.521 98.8698 160.798 97.1468C159.075 95.4238 157.902 93.2286 157.426 90.8387C156.951 88.4489 157.195 85.9718 158.127 83.7206C159.06 81.4694 160.639 79.5453 162.665 78.1915C164.691 76.8378 167.073 76.1152 169.509 76.1152C172.777 76.1152 175.911 77.4132 178.221 79.7237C180.531 82.0341 181.829 85.1678 181.829 88.4352Z" fill="#C8D3FB"/>
<path d="M179.329 88.4352C179.329 90.3774 178.754 92.276 177.674 93.8909C176.595 95.5058 175.062 96.7645 173.267 97.5077C171.473 98.251 169.499 98.4454 167.594 98.0665C165.689 97.6876 163.939 96.7524 162.566 95.379C161.192 94.0057 160.257 92.2559 159.878 90.351C159.499 88.4461 159.694 86.4717 160.437 84.6773C161.18 82.8829 162.439 81.3492 164.054 80.2702C165.669 79.1912 167.567 78.6152 169.509 78.6152C172.114 78.6152 174.612 79.6498 176.453 81.4914C178.295 83.3331 179.329 85.8308 179.329 88.4352Z" fill="url(#paint3_linear_2117_12307)"/>
<path d="M164.87 38.8956V107.496C164.87 108.146 164.612 108.771 164.153 109.232C163.694 109.693 163.07 109.953 162.42 109.956H66.8897C66.2373 109.956 65.6115 109.696 65.1502 109.235C64.6889 108.774 64.4297 108.148 64.4297 107.496V38.8956C64.4297 38.0655 64.7595 37.2694 65.3464 36.6824C65.9334 36.0954 66.7296 35.7656 67.5597 35.7656H161.74C162.57 35.7656 163.366 36.0954 163.953 36.6824C164.54 37.2694 164.87 38.0655 164.87 38.8956Z" fill="#B2CDFA"/>
<path d="M164.87 46.5559H64.4297V38.8959C64.4297 38.0631 64.7605 37.2644 65.3494 36.6755C65.9382 36.0867 66.7369 35.7559 67.5697 35.7559H161.74C162.571 35.7585 163.367 36.0905 163.954 36.6791C164.54 37.2677 164.87 38.0648 164.87 38.8959V46.5559Z" fill="#414267"/>
<path d="M81.71 41.1561C81.71 40.8273 81.8076 40.506 81.9905 40.2328C82.1733 39.9596 82.4332 39.7468 82.7371 39.6215C83.041 39.4961 83.3753 39.4639 83.6975 39.5287C84.0198 39.5936 84.3156 39.7527 84.5473 39.9858C84.7791 40.219 84.9364 40.5157 84.9993 40.8384C85.0622 41.1611 85.0279 41.4951 84.9007 41.7983C84.7736 42.1014 84.5592 42.36 84.285 42.5412C84.0107 42.7224 83.6887 42.818 83.36 42.8161C83.1425 42.8161 82.9271 42.7731 82.7262 42.6895C82.5254 42.606 82.3431 42.4835 82.1897 42.3293C82.0364 42.175 81.915 41.9919 81.8327 41.7906C81.7504 41.5892 81.7087 41.3736 81.71 41.1561Z" fill="white"/>
<path d="M75.3193 41.156C75.3194 40.8285 75.4162 40.5084 75.5978 40.2358C75.7793 39.9633 76.0374 39.7505 76.3395 39.6243C76.6417 39.4981 76.9744 39.4641 77.2959 39.5266C77.6173 39.589 77.9132 39.7451 78.1461 39.9753C78.379 40.2054 78.5387 40.4994 78.605 40.82C78.6713 41.1407 78.6412 41.4738 78.5186 41.7775C78.3961 42.0811 78.1864 42.3418 77.9161 42.5265C77.6457 42.7113 77.3268 42.812 76.9993 42.816C76.7797 42.8186 76.5617 42.7776 76.3579 42.6954C76.1542 42.6132 75.9689 42.4913 75.8126 42.3369C75.6563 42.1825 75.5322 41.9986 75.4476 41.7959C75.3629 41.5932 75.3193 41.3757 75.3193 41.156Z" fill="#BAE1FD"/>
<path d="M68.9395 41.1561C68.9395 40.8278 69.0368 40.5068 69.2192 40.2338C69.4016 39.9609 69.6609 39.7481 69.9642 39.6225C70.2676 39.4968 70.6013 39.4639 70.9233 39.528C71.2453 39.592 71.5411 39.7501 71.7733 39.9823C72.0054 40.2145 72.1635 40.5102 72.2276 40.8322C72.2916 41.1543 72.2588 41.488 72.1331 41.7914C72.0075 42.0947 71.7947 42.3539 71.5217 42.5363C71.2487 42.7187 70.9278 42.8161 70.5995 42.8161C70.3811 42.8174 70.1647 42.7754 69.9627 42.6924C69.7607 42.6095 69.5771 42.4873 69.4227 42.3329C69.2683 42.1784 69.1461 41.9949 69.0631 41.7929C68.9802 41.5909 68.9382 41.3745 68.9395 41.1561Z" fill="white"/>
<path d="M156.97 39.945L157.79 39.125L158.96 40.295L160.13 39.125L160.96 39.945L159.78 41.115L160.96 42.295L160.13 43.115L158.96 41.945L157.79 43.115L156.97 42.295L158.14 41.115L156.97 39.945Z" fill="white"/>
<path d="M98.2598 50.4766L98.3398 51.8066H120.55L120.47 50.4766H98.2598Z" fill="white"/>
<path d="M109.149 54.4766L109.239 55.8066H145.349L145.269 54.4766H109.149Z" fill="white"/>
<path d="M98.3193 54.4766L98.3993 55.8066H107.589L107.509 54.4766H98.3193Z" fill="#414267"/>
<path d="M98.2197 58.4766L98.2997 59.8066H116.68L116.55 58.4766H98.2197Z" fill="white"/>
<path d="M117.83 58.4766L117.96 59.8066H135.97L135.89 58.4766H117.83Z" fill="#414267"/>
<path d="M82.1399 58.4766L82.1299 59.8066H91.1699V58.4766H82.1399Z" fill="white"/>
<path d="M71.1594 54.4766L71.1494 55.8066H85.8494V54.4766H71.1594Z" fill="white"/>
<path d="M87.5293 54.4766V55.8066H91.2693V54.4766H87.5293Z" fill="white"/>
<path d="M83.96 50.4766L83.97 51.8066H91.43L91.44 50.4766H83.96Z" fill="#F0F8FF"/>
<path d="M75.1201 50.4766V51.8066H82.4601L82.4501 50.4766H75.1201Z" fill="#BAE1FD"/>
<path d="M82.0295 73.4453L82.0195 74.7653H91.0495L91.0595 73.4453H82.0295Z" fill="white"/>
<path d="M71.05 69.4453L71.04 70.7753H85.73L85.74 69.4453H71.05Z" fill="white"/>
<path d="M87.4199 69.4453V70.7753H91.1499L91.1599 69.4453H87.4199Z" fill="white"/>
<path d="M81.8799 81.8555V83.1855H90.9099L90.9199 81.8555H81.8799Z" fill="white"/>
<path d="M70.8994 77.8652V79.1852H85.5894L85.5994 77.8652H70.8994Z" fill="#F0F8FF"/>
<path d="M87.2795 77.8652L87.2695 79.1852H91.0095L91.0195 77.8652H87.2795Z" fill="#BAE1FD"/>
<path d="M83.8496 65.4453L83.8596 66.7753H91.3196L91.3296 65.4453H83.8496Z" fill="#F0F8FF"/>
<path d="M75.01 65.4453L75 66.7753H82.35L82.34 65.4453H75.01Z" fill="#BAE1FD"/>
<path d="M122.75 50.4766L122.83 51.8066H129.57L129.49 50.4766H122.75Z" fill="#414267"/>
<path d="M147.6 54.4766L147.68 55.8066H158.46L158.38 54.4766H147.6Z" fill="white"/>
<path d="M137.949 58.4766L138.029 59.8066H148.969L148.889 58.4766H137.949Z" fill="white"/>
<path d="M132.51 50.4766L132.67 51.8066H151.71L151.56 50.4766H132.51Z" fill="white"/>
<path d="M98.1494 65.4453L98.2294 66.7753H120.439L120.359 65.4453H98.1494Z" fill="white"/>
<path d="M109.04 69.4453L109.13 70.7753H145.24L145.16 69.4453H109.04Z" fill="white"/>
<path d="M98.21 69.4453L98.29 70.7753H107.48L107.39 69.4453H98.21Z" fill="white"/>
<path d="M98.1094 73.4453L98.1894 74.7653H116.569L116.439 73.4453H98.1094Z" fill="white"/>
<path d="M117.72 73.4453L117.85 74.7653H135.86L135.78 73.4453H117.72Z" fill="white"/>
<path d="M122.64 65.4453L122.72 66.7753H129.46L129.38 65.4453H122.64Z" fill="white"/>
<path d="M147.49 69.4453L147.57 70.7753H158.35L158.27 69.4453H147.49Z" fill="white"/>
<path d="M137.84 73.4453L137.92 74.7653H148.85L148.77 73.4453H137.84Z" fill="#414267"/>
<path d="M109.34 77.8652L109.43 79.1852H145.54L145.46 77.8652H109.34Z" fill="white"/>
<path d="M98.5098 77.8652L98.5898 79.1852H107.78L107.7 77.8652H98.5098Z" fill="white"/>
<path d="M98.4102 81.8555L98.4902 83.1855H116.87L116.74 81.8555H98.4102Z" fill="white"/>
<path d="M118.02 81.8555L118.15 83.1855H136.16L136.08 81.8555H118.02Z" fill="#414267"/>
<path d="M147.79 77.8652L147.87 79.1852H158.65L158.57 77.8652H147.79Z" fill="#414267"/>
<path d="M138.14 81.8555L138.22 83.1855H149.16L149.07 81.8555H138.14Z" fill="white"/>
<path d="M132.399 65.4453L132.559 66.7753H151.599L151.439 65.4453H132.399Z" fill="#414267"/>
<path d="M81.7297 95.625L81.7197 96.955H90.7597L90.7697 95.625H81.7297Z" fill="white"/>
<path d="M70.7502 91.6367L70.7402 92.9567H85.4402V91.6367H70.7502Z" fill="white"/>
<path d="M87.1301 91.6367L87.1201 92.9567H90.8601L90.8701 91.6367H87.1301Z" fill="white"/>
<path d="M81.5901 104.045L81.5801 105.375H90.6101L90.6201 104.045H81.5901Z" fill="white"/>
<path d="M70.6096 100.045L70.5996 101.375H85.2896L85.2996 100.045H70.6096Z" fill="#BAE1FD"/>
<path d="M86.9795 100.045V101.375H90.7095L90.7195 100.045H86.9795Z" fill="#BAE1FD"/>
<path d="M83.5498 87.6367L83.5698 88.9567H91.0198L91.0298 87.6367H83.5498Z" fill="#BAE1FD"/>
<path d="M74.72 87.6367L74.71 88.9567H82.06L82.04 87.6367H74.72Z" fill="#F0F8FF"/>
<path d="M97.8594 87.6367L97.9394 88.9567H120.139L120.059 87.6367H97.8594Z" fill="white"/>
<path d="M108.75 91.6367L108.83 92.9567H144.94L144.86 91.6367H108.75Z" fill="white"/>
<path d="M97.9102 91.6367L97.9902 92.9567H107.19L107.1 91.6367H97.9102Z" fill="white"/>
<path d="M97.8096 95.625L97.8896 96.955H116.27L116.14 95.625H97.8096Z" fill="white"/>
<path d="M117.42 95.625L117.56 96.955H135.56L135.48 95.625H117.42Z" fill="white"/>
<path d="M122.34 87.6367L122.42 88.9567H129.16L129.08 87.6367H122.34Z" fill="white"/>
<path d="M147.189 91.6367L147.269 92.9567H158.059L157.969 91.6367H147.189Z" fill="white"/>
<path d="M137.54 95.625L137.62 96.955H148.56L148.48 95.625H137.54Z" fill="#414267"/>
<path d="M109.05 100.045L109.13 101.375H145.25L145.16 100.045H109.05Z" fill="white"/>
<path d="M98.2197 100.045L98.2997 101.375H107.49L107.4 100.045H98.2197Z" fill="white"/>
<path d="M98.1094 104.045L98.1894 105.375H116.579L116.439 104.045H98.1094Z" fill="white"/>
<path d="M117.72 104.045L117.86 105.375H135.86L135.78 104.045H117.72Z" fill="#414267"/>
<path d="M147.49 100.045L147.57 101.375H158.36L158.28 100.045H147.49Z" fill="#414267"/>
<path d="M137.84 104.045L137.93 105.375H148.86L148.78 104.045H137.84Z" fill="white"/>
<path d="M132.1 87.6367L132.26 88.9567H151.31L151.15 87.6367H132.1Z" fill="#414267"/>
<path d="M253.76 229.165C252.952 229.136 252.144 229.22 251.36 229.415C251.432 228.988 251.479 228.557 251.5 228.125C251.571 226.298 251.11 224.49 250.174 222.92C249.238 221.349 247.867 220.084 246.226 219.278C244.586 218.471 242.746 218.158 240.931 218.376C239.116 218.594 237.403 219.333 236 220.505C234.835 217.547 232.686 215.08 229.915 213.52C227.145 211.961 223.921 211.403 220.788 211.942C217.654 212.481 214.802 214.083 212.711 216.479C210.621 218.875 209.42 221.917 209.31 225.095C209.285 225.565 209.285 226.035 209.31 226.505C208.009 225.78 206.562 225.36 205.075 225.276C203.589 225.193 202.103 225.447 200.73 226.02C199.356 226.594 198.13 227.472 197.145 228.587C196.16 229.703 195.44 231.028 195.041 232.462C194.642 233.896 194.573 235.402 194.84 236.867C195.108 238.331 195.703 239.716 196.583 240.917C197.463 242.117 198.604 243.103 199.92 243.799C201.236 244.495 202.692 244.883 204.18 244.935L254 246.705C256.25 246.57 258.361 245.573 259.895 243.921C261.429 242.269 262.267 240.089 262.235 237.836C262.202 235.582 261.303 233.427 259.722 231.819C258.142 230.212 256.003 229.276 253.75 229.205L253.76 229.165Z" fill="#C8D3FB"/>
<path d="M246.89 228.946C246.081 228.949 245.276 229.067 244.5 229.296C244.559 228.865 244.592 228.431 244.6 227.996C244.603 226.169 244.076 224.381 243.085 222.847C242.093 221.313 240.679 220.099 239.012 219.352C237.346 218.604 235.498 218.355 233.693 218.634C231.888 218.913 230.203 219.709 228.84 220.926C227.571 218.01 225.335 215.621 222.51 214.161C219.685 212.701 216.444 212.259 213.331 212.91C210.218 213.56 207.425 215.263 205.421 217.733C203.417 220.202 202.326 223.286 202.33 226.466C202.33 226.946 202.33 227.466 202.4 227.876C201.075 227.198 199.613 226.829 198.124 226.798C196.636 226.767 195.16 227.074 193.807 227.696C192.454 228.318 191.261 229.239 190.315 230.389C189.37 231.539 188.698 232.889 188.351 234.336C188.003 235.784 187.988 237.292 188.307 238.746C188.626 240.2 189.271 241.563 190.194 242.731C191.116 243.9 192.291 244.844 193.631 245.493C194.971 246.142 196.441 246.478 197.93 246.476H247.76C249.987 246.238 252.038 245.156 253.494 243.454C254.949 241.751 255.697 239.557 255.586 237.32C255.475 235.083 254.512 232.973 252.895 231.424C251.278 229.874 249.13 229.002 246.89 228.986V228.946Z" fill="white"/>
<path d="M234.81 232.156C234.136 232.129 233.463 232.2 232.81 232.366C232.875 232.012 232.915 231.655 232.93 231.296C232.984 229.783 232.6 228.287 231.824 226.987C231.047 225.687 229.912 224.64 228.554 223.971C227.196 223.302 225.673 223.04 224.17 223.217C222.666 223.393 221.246 224 220.08 224.966C219.111 222.513 217.327 220.468 215.028 219.176C212.729 217.884 210.055 217.422 207.456 217.869C204.857 218.316 202.491 219.645 200.756 221.631C199.021 223.617 198.023 226.14 197.93 228.776C197.93 229.176 197.93 229.566 197.93 229.946C196.851 229.347 195.651 229.001 194.419 228.933C193.188 228.865 191.957 229.078 190.819 229.554C189.681 230.031 188.666 230.759 187.85 231.684C187.034 232.609 186.439 233.707 186.109 234.896C185.778 236.084 185.722 237.332 185.943 238.545C186.164 239.759 186.658 240.906 187.387 241.902C188.115 242.897 189.06 243.714 190.15 244.291C191.24 244.869 192.447 245.192 193.68 245.236L235 246.706C236.86 246.586 238.604 245.755 239.869 244.387C241.135 243.018 241.827 241.215 241.801 239.351C241.776 237.486 241.035 235.703 239.732 234.37C238.428 233.036 236.663 232.254 234.8 232.186L234.81 232.156Z" fill="#C8D3FB"/>
<path d="M229.11 231.975C228.433 231.975 227.76 232.069 227.11 232.255C227.162 231.901 227.188 231.543 227.19 231.185C227.18 229.677 226.736 228.203 225.91 226.941C225.085 225.678 223.913 224.681 222.535 224.067C221.158 223.453 219.632 223.249 218.141 223.479C216.651 223.709 215.258 224.364 214.13 225.365C213.029 222.864 211.072 220.837 208.61 219.65C206.149 218.463 203.344 218.192 200.701 218.888C198.058 219.583 195.75 221.198 194.192 223.443C192.633 225.689 191.927 228.416 192.2 231.135C191.101 230.575 189.889 230.271 188.656 230.247C187.423 230.222 186.2 230.478 185.08 230.994C183.959 231.51 182.971 232.273 182.188 233.227C181.405 234.18 180.848 235.298 180.56 236.497C180.272 237.697 180.259 238.946 180.523 240.151C180.787 241.356 181.32 242.485 182.084 243.454C182.847 244.423 183.82 245.207 184.929 245.745C186.039 246.284 187.256 246.564 188.49 246.565H229.83C231.678 246.371 233.382 245.476 234.591 244.064C235.8 242.652 236.422 240.831 236.33 238.974C236.238 237.118 235.438 235.367 234.095 234.082C232.753 232.797 230.968 232.075 229.11 232.065V231.975Z" fill="white"/>
<path d="M173.45 224.687C172.406 224.649 171.362 224.76 170.35 225.017C170.454 224.465 170.517 223.907 170.54 223.347C170.628 220.991 170.032 218.66 168.823 216.636C167.613 214.612 165.843 212.983 163.727 211.945C161.61 210.906 159.238 210.504 156.897 210.787C154.557 211.069 152.349 212.025 150.54 213.537C149.036 209.733 146.268 206.564 142.702 204.56C139.137 202.557 134.99 201.842 130.959 202.535C126.929 203.228 123.259 205.288 120.568 208.368C117.877 211.447 116.327 215.359 116.18 219.447C116.18 220.067 116.18 220.667 116.18 221.267C114.506 220.334 112.642 219.793 110.728 219.685C108.815 219.576 106.902 219.904 105.133 220.642C103.364 221.38 101.786 222.51 100.517 223.946C99.2482 225.383 98.3217 227.088 97.8074 228.935C97.2931 230.781 97.2044 232.72 97.548 234.605C97.8915 236.491 98.6583 238.274 99.7907 239.82C100.923 241.367 102.391 242.636 104.085 243.532C105.779 244.429 107.655 244.93 109.57 244.997L173.69 247.287V247.227C176.6 247.071 179.336 245.795 181.326 243.666C183.316 241.537 184.405 238.721 184.365 235.808C184.325 232.894 183.159 230.109 181.111 228.036C179.063 225.963 176.293 224.763 173.38 224.687H173.45Z" fill="white"/>
<path d="M164.609 224.416C163.564 224.415 162.524 224.559 161.519 224.846C161.598 224.293 161.642 223.735 161.649 223.176C161.654 220.824 160.977 218.521 159.7 216.545C158.424 214.57 156.602 213.007 154.455 212.045C152.308 211.083 149.929 210.764 147.605 211.126C145.281 211.489 143.111 212.517 141.359 214.086C139.654 210.199 136.618 207.048 132.797 205.201C128.975 203.353 124.62 202.93 120.515 204.008C116.409 205.086 112.823 207.594 110.402 211.08C107.982 214.567 106.885 218.803 107.309 223.026C105.603 222.172 103.726 221.715 101.817 221.688C99.9095 221.661 98.02 222.065 96.2902 222.871C94.5603 223.676 93.0348 224.862 91.8274 226.34C90.62 227.818 89.762 229.549 89.3174 231.405C88.8728 233.26 88.8532 235.192 89.2598 237.057C89.6665 238.921 90.489 240.67 91.666 242.172C92.8431 243.673 94.3441 244.89 96.0572 245.731C97.7702 246.571 99.6511 247.014 101.559 247.026H165.719V246.966C168.611 246.693 171.285 245.316 173.186 243.121C175.088 240.925 176.069 238.081 175.926 235.181C175.783 232.28 174.527 229.546 172.419 227.549C170.311 225.551 167.513 224.443 164.609 224.456V224.416Z" fill="#C8D3FB"/>
<path d="M211.299 220.575C210.104 220.536 208.908 220.667 207.749 220.965C207.867 220.304 207.937 219.636 207.959 218.965C208.145 215.214 206.835 211.542 204.317 208.755C201.8 205.967 198.28 204.292 194.529 204.095C191.099 203.974 187.748 205.152 185.149 207.395C183.747 203.642 181.272 200.384 178.033 198.026C174.793 195.668 170.932 194.315 166.929 194.135C155.689 193.715 146.239 202.755 145.829 214.325C145.789 215.038 145.789 215.752 145.829 216.465C143.839 215.312 141.598 214.663 139.299 214.575C135.414 214.546 131.671 216.034 128.866 218.722C126.061 221.41 124.415 225.087 124.278 228.97C124.141 232.852 125.524 236.635 128.133 239.514C130.743 242.393 134.372 244.141 138.249 244.385L211.599 247.135V247.065C214.928 246.752 218.016 245.198 220.251 242.712C222.486 240.227 223.704 236.991 223.662 233.648C223.621 230.305 222.323 227.101 220.027 224.671C217.731 222.242 214.604 220.765 211.269 220.535L211.299 220.575Z" fill="#C8D3FB"/>
<path d="M203.289 220.246C202.094 220.249 200.905 220.424 199.759 220.766C199.846 220.103 199.896 219.435 199.909 218.766C199.958 215.024 198.521 211.414 195.914 208.729C193.307 206.043 189.742 204.5 185.999 204.436C182.564 204.443 179.256 205.738 176.729 208.066C175.197 204.356 172.6 201.181 169.268 198.943C165.935 196.704 162.014 195.502 157.999 195.486C146.749 195.486 137.619 204.856 137.609 216.436C137.609 217.156 137.609 217.866 137.709 218.566C135.682 217.493 133.424 216.93 131.129 216.926C127.241 217.027 123.545 218.643 120.83 221.429C118.115 224.215 116.596 227.951 116.596 231.841C116.596 235.731 118.115 239.468 120.83 242.254C123.545 245.04 127.241 246.656 131.129 246.756L204.529 246.816V246.746C207.865 246.344 210.925 244.695 213.094 242.129C215.263 239.563 216.381 236.271 216.223 232.915C216.065 229.559 214.642 226.387 212.241 224.037C209.84 221.687 206.638 220.333 203.279 220.246H203.289Z" fill="white"/>
<path d="M84.3894 151.217C83.4395 146.71 81.1739 142.586 77.8794 139.367C75.7694 137.567 69.8794 137.747 67.4894 142.647C65.0994 147.547 64.2294 150.507 64.8894 159.327C65.5494 168.147 72.8894 198.327 72.8894 204.907C72.8894 211.487 86.6594 210.807 85.8894 201.327C85.1194 191.847 85.9994 158.677 84.3894 151.217Z" fill="#414267"/>
<path d="M64.6999 153.095C64.7715 149.437 65.7289 145.852 67.4899 142.645C68.0446 141.482 68.8866 140.48 69.9365 139.732C70.9863 138.985 72.2093 138.518 73.4899 138.375H73.9199H74.2899C74.6474 138.375 75.0046 138.395 75.3599 138.435C75.7926 138.49 76.2183 138.591 76.6299 138.735C76.8299 138.805 77.0099 138.885 77.1899 138.965L77.4299 139.105C77.5862 139.198 77.7335 139.305 77.8699 139.425C77.9683 139.502 78.0619 139.586 78.1499 139.675L78.3199 139.835L78.3799 139.895L78.5199 140.035L78.5899 140.105L78.7399 140.265L78.7999 140.335L79.2699 140.865L79.3399 140.945L79.5199 141.165L79.5999 141.265L79.7899 141.505C79.8156 141.537 79.8389 141.57 79.8599 141.605C80.0399 141.825 80.2199 142.065 80.3999 142.325C80.429 142.36 80.4557 142.397 80.4799 142.435L80.6799 142.725L80.7699 142.855L80.9699 143.155L81.0499 143.285C81.2399 143.565 81.4199 143.875 81.6099 144.185C81.6099 144.235 81.6099 144.275 81.6799 144.325C81.7499 144.375 81.8199 144.555 81.8799 144.675L81.9699 144.845L82.1699 145.205C82.1926 145.257 82.2194 145.307 82.2499 145.355C82.3399 145.525 82.4299 145.705 82.5099 145.885C82.5999 146.065 82.6899 146.245 82.7699 146.435C82.7992 146.489 82.8226 146.546 82.8399 146.605L83.0199 147.005C83.0508 147.07 83.0775 147.137 83.0999 147.205C83.1599 147.345 83.2199 147.475 83.2699 147.615C83.2976 147.677 83.321 147.74 83.3399 147.805C83.4199 148.005 83.4999 148.205 83.5699 148.405L83.7799 149.025L83.8399 149.225C83.8899 149.375 83.9299 149.525 83.9799 149.675C83.9972 149.753 84.0206 149.83 84.0499 149.905L84.1699 150.365C84.1745 150.438 84.1745 150.512 84.1699 150.585C84.2299 150.805 84.2799 151.035 84.3299 151.255C84.3299 151.375 84.3299 151.515 84.3999 151.645V151.795C84.3999 151.895 84.3999 151.995 84.3999 152.105V152.285C84.3999 152.385 84.3999 152.495 84.3999 152.595V152.795C84.3999 152.915 84.3999 153.025 84.3999 153.145C84.395 153.212 84.395 153.278 84.3999 153.345C84.3999 153.485 84.3999 153.625 84.3999 153.775C84.3999 153.925 84.3999 153.875 84.3999 153.925C84.3999 154.335 84.4799 154.775 84.5199 155.235C84.5199 155.235 84.5199 155.325 84.5199 155.375C84.5199 155.425 84.5199 155.745 84.5199 155.935V156.125V156.695V156.885V157.505C84.5248 157.555 84.5248 157.605 84.5199 157.655C84.5199 157.915 84.5199 158.175 84.5199 158.445C84.5732 159.305 84.6132 160.205 84.6399 161.145V161.215V162.105V162.175C84.6399 162.485 84.6399 162.805 84.6399 163.175C78.7999 167.345 68.7299 167.265 69.0599 170.235C69.2099 171.575 73.4599 200.235 73.9599 201.315C74.0199 201.435 73.1899 205.535 72.2699 205.505C72.2596 205.328 72.2596 205.152 72.2699 204.975C72.2699 198.465 65.1799 169.185 64.3199 159.835C64.3199 159.695 64.3199 159.555 64.3199 159.415C64.2199 158.035 64.1499 156.805 64.1299 155.675C64.4832 154.728 64.6732 153.868 64.6999 153.095Z" fill="#1D1D2C"/>
<path d="M52.6995 151.366C54.5295 146.721 57.4764 142.6 61.2795 139.366C63.6995 137.536 69.5595 137.606 71.0895 142.476C72.6195 147.346 72.9895 150.306 70.7795 159.176C68.5695 168.046 60.2395 198.286 59.0695 204.926C57.8995 211.566 45.4695 206.316 46.8995 196.606C48.4695 185.826 49.7795 158.846 52.6995 151.366Z" fill="#414267"/>
<path d="M66.2895 164.465C63.2095 163.955 58.4195 163.145 57.2895 163.465C56.1303 163.787 55.1034 164.469 54.3574 165.413C53.6114 166.357 53.1848 167.513 53.1395 168.715C53.1395 171.605 48.5995 199.435 48.6095 199.565C47.9582 199.034 47.3435 198.459 46.7695 197.845C46.7722 197.41 46.809 196.975 46.8795 196.545C48.4495 185.805 49.7595 158.825 52.6795 151.315C54.4469 146.877 57.2115 142.905 60.7595 139.705L61.2595 139.305C63.6795 137.475 69.5395 137.545 71.0695 142.415C72.5995 147.285 72.9695 150.245 70.7595 159.115C70.6495 159.545 70.1595 161.015 69.6995 162.385C69.4658 163.077 68.9961 163.665 68.3726 164.045C67.7491 164.426 67.0117 164.574 66.2895 164.465Z" fill="#1D1D2C"/>
<path d="M93.7797 119.157C92.0397 116.737 90.0597 115.107 84.3297 109.767C84.123 109.52 83.903 109.27 83.6697 109.017C79.4597 104.557 76.2697 98.2867 75.4497 97.5267C72.3497 94.6667 63.4497 95.8767 66.4497 104.527C69.0697 112.367 80.5097 124.367 86.2897 125.667C88.4697 126.157 92.4897 124.117 93.2897 122.337C92.9997 122.147 94.2897 119.857 93.7797 119.157Z" fill="#414267"/>
<path d="M110.11 107.565C113.23 106.965 116.53 107.915 116.86 105.305C116.966 104.301 116.841 103.286 116.495 102.338C116.148 101.39 115.589 100.534 114.86 99.8353C114.62 99.5653 119.16 96.6053 118.51 95.9153C117.62 94.9153 113.31 98.6153 112.81 98.7953C111.71 99.1753 110.29 100.685 108.69 102.555C106.36 105.295 92.2196 112.055 88.1396 115.305C83.6596 118.875 87.2996 127.495 90.2596 125.635C94.5896 122.885 107 108.165 110.11 107.565Z" fill="#FFD2A7"/>
<path d="M63.8994 83.1353C64.4894 87.5653 58.9994 89.3653 58.9994 89.3653C58.5694 86.0753 54.8594 84.2153 53.6494 80.2053C52.3994 76.0453 54.8994 71.6453 60.7294 71.8153C64.3494 71.8953 63.3194 78.6953 63.8994 83.1353Z" fill="#1D1D2C"/>
<path d="M59.1697 95.7165C56.0497 96.1165 50.3597 97.5265 48.6697 100.497C46.9797 103.467 48.2097 131.847 50.3697 150.417C50.3697 150.417 76.1597 161.317 85.3197 149.607C85.3197 149.607 78.9297 101.787 75.3197 97.3465C72.2297 93.6465 62.2897 95.3065 59.1697 95.7165Z" fill="#414267"/>
<path d="M58.5293 95.7952C58.5293 95.7952 69.4093 110.935 70.6793 112.175C70.6793 112.175 70.2793 99.1752 70.0493 95.2852L58.5293 95.7952Z" fill="url(#paint4_linear_2117_12307)"/>
<path d="M60.53 89.3663C60.4 88.7963 60.29 88.3663 60.29 88.3663C60.29 88.3663 66.47 83.4463 67.29 88.4463L60.53 89.3663Z" fill="#BAE1FD"/>
<path d="M67.1497 98.9552L68.9996 95.3652C68.9996 95.3652 67.0596 94.0552 67.3196 90.6352C67.9496 82.2852 60.2596 88.4152 60.2596 88.4152C60.2596 88.4152 61.6596 95.4152 59.1396 95.6852L67.1497 98.9552Z" fill="#FFD2A7"/>
<path d="M67.0999 97.3663C62.7699 97.9263 62.9899 92.5063 62.7799 91.4863C62.5699 90.4663 60.2899 88.4863 60.2899 88.4863C60.2899 88.4863 61.6899 95.4863 59.1699 95.7563L67.1699 99.0063L68.2799 96.8963C67.9385 97.1606 67.5296 97.3235 67.0999 97.3663Z" fill="#FFBC8E"/>
<path d="M47.8799 117.585L57.7999 109.365L54.6299 118.945C52.5956 124.949 52.6237 131.46 54.7099 137.445C57.5599 145.345 64.1999 154.035 79.7099 153.665C68.4599 158.065 50.3499 150.415 50.3499 150.415C49.3399 141.515 48.2699 127.115 47.8799 117.585Z" fill="#414267"/>
<path d="M69.4897 76.4668L71.6197 86.1068C71.9997 88.9868 68.9997 91.7568 65.9997 92.1568C64.5863 92.3784 63.1427 92.0301 61.9858 91.1882C60.829 90.3464 60.0536 89.0799 59.8297 87.6668V87.4268C58.9605 87.4838 58.1027 87.2039 57.4343 86.6454C56.7658 86.0868 56.3381 85.2923 56.2397 84.4268C55.7497 81.2368 57.9997 82.2668 57.9997 82.2668L57.8197 80.8968C57.7706 80.5225 57.7958 80.1421 57.894 79.7775C57.9921 79.4129 58.1612 79.0713 58.3916 78.7722C58.6219 78.4731 58.9091 78.2223 59.2365 78.0344C59.5639 77.8464 59.9253 77.7249 60.2997 77.6768L69.4897 76.4668Z" fill="#FFD2A7"/>
<path d="M57.9997 82.2663L57.8097 80.7663C57.716 80.0452 57.9116 79.3163 58.3539 78.7391C58.7962 78.1619 59.4491 77.7834 60.1697 77.6863L61.7197 77.4863C61.7149 77.5161 61.7149 77.5465 61.7197 77.5763L63.1697 88.6263C63.3518 89.5568 63.8917 90.3787 64.6733 90.9154C65.455 91.4521 66.4159 91.6606 67.3497 91.4963C68.1156 91.3154 68.8434 91.0005 69.4997 90.5663C68.5043 91.4126 67.2919 91.9633 65.9997 92.1563C64.5863 92.378 63.1427 92.0296 61.9858 91.1878C60.829 90.3459 60.0536 89.0794 59.8297 87.6663V87.4263C58.9605 87.4833 58.1027 87.2035 57.4343 86.6449C56.7658 86.0863 56.3381 85.2919 56.2397 84.4263C55.7497 81.2363 57.9997 82.2663 57.9997 82.2663Z" fill="#FFBC8E"/>
<path d="M68.0894 94.2949C68.1552 95.9012 67.8328 97.4997 67.1494 98.9549C67.5988 98.7377 68.1106 98.6868 68.594 98.8113C69.0773 98.9358 69.5009 99.2276 69.7894 99.6349C70.0717 99.9748 70.4715 100.196 70.9094 100.255C70.7913 98.5205 70.4861 96.8039 69.9994 95.1349L68.0894 94.2949Z" fill="#C8D3FB"/>
<path d="M37.7099 120.505C39.1399 117.885 48.0999 101.135 48.8199 100.275C51.5399 97.055 60.4799 97.175 58.6399 106.105C56.9699 114.225 51.5299 124.045 45.9399 126.045C43.8499 126.795 39.5999 125.275 38.6199 123.605C38.3999 123.115 37.2999 121.265 37.7099 120.505Z" fill="#414267"/>
<path d="M45.5093 126.846C40.3093 127.926 25.5093 125.326 22.1593 126.026C20.4193 126.396 21.3193 121.026 22.8693 121.336C26.4193 122.046 37.6893 118.426 42.9593 117.926C47.4593 117.496 48.9993 126.106 45.5093 126.846Z" fill="#FFD2A7"/>
<path d="M60.4993 94.1152C61.8993 96.2752 67.1493 98.9552 67.1493 98.9552C67.1493 98.9552 65.5393 98.6152 63.9993 100.695C63.5685 101.251 62.9844 101.668 62.3193 101.895C62.3193 101.895 58.9993 99.3652 58.5293 95.7952L60.4993 94.1152Z" fill="#C8D3FB"/>
<path d="M61.3992 76.5562C62.2512 77.3018 63.2713 77.8296 64.3721 78.0943C65.4728 78.3591 66.6214 78.3529 67.7192 78.0762C71.6292 77.1662 72.2392 79.2062 72.2392 79.2062C72.2392 79.2062 73.1592 71.7363 67.7692 69.8363C62.3792 67.9363 59.6992 71.8363 59.6992 71.8363L61.3992 76.5562Z" fill="#1D1D2C"/>
<path d="M46.0292 121.855H5.94922V123.975H46.0292V121.855Z" fill="#C8D3FB"/>
<path d="M46 123.975H60.58V122.785C60.5813 122.664 60.5585 122.543 60.5129 122.43C60.4672 122.318 60.3997 122.215 60.3141 122.128C60.2285 122.042 60.1267 121.973 60.0144 121.926C59.9021 121.88 59.7817 121.855 59.66 121.855H46V123.975Z" fill="#C8D3FB"/>
<path d="M7.08007 121.857H47.0001L41.7401 97.2766C41.676 96.9391 41.4981 96.6338 41.236 96.4118C40.9739 96.1897 40.6435 96.0644 40.3001 96.0566H4.35007C4.00424 96.0702 3.66578 96.1606 3.35927 96.3213C3.05276 96.4821 2.78591 96.7091 2.5781 96.9858C2.37029 97.2626 2.22675 97.5822 2.1579 97.9213C2.08905 98.2605 2.09662 98.6108 2.18007 98.9466L7.08007 121.857Z" fill="#C8D3FB"/>
<path d="M6.10974 121.857H45.9997L40.7697 97.2766C40.7057 96.9391 40.5278 96.6338 40.2657 96.4118C40.0035 96.1897 39.6732 96.0644 39.3297 96.0566H2.61973C2.36455 96.0596 2.11335 96.1203 1.88497 96.2342C1.6566 96.3481 1.45698 96.5122 1.30111 96.7143C1.14523 96.9163 1.03714 97.1511 0.984943 97.4009C0.932748 97.6507 0.937805 97.9091 0.999735 98.1566L6.10974 121.857Z" fill="url(#paint5_linear_2117_12307)"/>
<path opacity="0.34" d="M21.78 96.0566L10.54 121.857H15.68L27.34 96.0566H21.78Z" fill="#DAE7FF"/>
<path opacity="0.34" d="M30.1795 96.0566L18.9395 121.857H20.9395L32.5995 96.0566H30.1795Z" fill="#DAE7FF"/>
<path d="M25.3002 123.956C25.1502 123.526 24.6502 122.796 24.0802 122.956C24.0118 122.976 23.9499 123.014 23.9002 123.066C23.8946 122.744 23.8337 122.426 23.7202 122.126C23.4702 121.486 22.7202 120.586 22.0302 121.236C21.7504 121.514 21.5442 121.858 21.4302 122.236C21.3298 121.935 21.1568 121.663 20.9266 121.445C20.6964 121.227 20.416 121.07 20.1102 120.986C19.1102 120.696 18.7602 121.436 18.6402 122.256C18.3502 121.476 17.7402 120.376 16.9102 121.066C16.4772 121.559 16.1777 122.154 16.0402 122.796C15.7776 123.572 15.613 124.378 15.5502 125.196C15.5454 125.225 15.5454 125.256 15.5502 125.286C15.5174 125.338 15.5 125.399 15.5 125.461C15.5 125.523 15.5174 125.583 15.5502 125.636C15.9802 126.436 17.0302 127.206 17.7902 126.346C17.9883 126.114 18.1625 125.862 18.3102 125.596C18.3702 126.356 18.6402 126.996 19.3902 127.066C20.1402 127.136 20.7402 126.466 21.0902 125.666C21.3502 125.976 21.6902 126.396 22.1602 126.336C22.344 126.284 22.5143 126.192 22.6593 126.068C22.8043 125.944 22.9206 125.789 23.0002 125.616C23.0115 125.66 23.0315 125.701 23.059 125.737C23.0865 125.773 23.1209 125.803 23.1602 125.826C23.4328 125.96 23.739 126.01 24.0402 125.97C24.3414 125.931 24.6241 125.803 24.8529 125.603C25.0816 125.403 25.2462 125.14 25.3258 124.847C25.4054 124.554 25.3965 124.244 25.3002 123.956Z" fill="#FFD2A7"/>
<path d="M41.2695 242.276C44.4595 241.166 45.2695 236.276 45.5495 233.406L50.2095 235.086C50.2095 235.086 48.3695 240.026 49.0995 243.386C49.8295 246.746 48.8195 246.386 48.8195 246.386H34.5195C36.5481 244.682 38.8241 243.296 41.2695 242.276Z" fill="#FFD2A7"/>
<path d="M34.2393 246.846H48.7393C48.7393 246.846 49.2693 247.016 49.4793 245.926C49.6444 245.269 49.6444 244.582 49.4793 243.926C49.4373 243.641 49.4106 243.354 49.3993 243.066C48.2011 243.018 47.0276 242.711 45.9593 242.166C45.3693 240.556 43.2593 239.826 42.7293 240.656C41.8593 242.126 40.0493 242.466 38.7993 242.896C36.0493 243.816 35.3793 244.896 34.7193 245.946C34.5269 246.227 34.366 246.529 34.2393 246.846Z" fill="#1D1D2C"/>
<path d="M34.2393 246.846H48.7393C48.7393 246.846 49.2693 247.016 49.4793 245.926H34.7193C34.5256 246.214 34.3647 246.522 34.2393 246.846Z" fill="#1D1D2C"/>
<path d="M47.69 195.307C43.48 198.747 45.41 223.437 43.29 239.857C43.29 239.857 48.15 240.946 51.09 239.667C51.09 239.667 59.09 210.777 59.09 204.057C59.09 192.237 52.2 191.627 47.69 195.307Z" fill="#414267"/>
<path d="M87.8698 242.605C84.6698 241.525 86.1298 236.415 85.7798 233.525L81.1398 235.255C80.9225 238.119 80.5587 240.969 80.0498 243.795C79.3498 247.165 80.3598 246.795 80.3598 246.795L94.9398 246.645C92.7777 244.984 90.3991 243.624 87.8698 242.605Z" fill="#FFD2A7"/>
<path d="M87.8698 242.606C86.8698 242.306 86.6698 241.606 86.0798 240.736C85.7098 240.086 84.5798 241.216 84.0098 242.496C84.0098 242.496 81.4998 243.496 80.1598 243.116C80.1598 243.346 80.0998 243.576 80.0498 243.796C79.3498 247.166 80.3598 246.796 80.3598 246.796L94.9398 246.646C94.1898 243.946 90.9998 243.546 87.8698 242.606Z" fill="#1D1D2C"/>
<path d="M79.8096 245.966C79.8696 246.966 80.3596 246.846 80.3596 246.846L94.9396 246.696C94.8683 246.385 94.7467 246.088 94.5796 245.816L79.8096 245.966Z" fill="#1D1D2C"/>
<path d="M84.9993 200.436C87.6893 203.436 85.9993 223.916 86.7893 238.736C86.7893 238.736 81.8893 240.166 79.0793 238.896C79.0793 238.896 71.3193 210.376 73.0093 204.486C75.2893 196.576 81.4093 196.426 84.9993 200.436Z" fill="#414267"/>
<path d="M73.0002 204.485C73.2992 203.394 73.736 202.346 74.3002 201.365C74.3002 201.745 79.6502 226.925 80.3002 239.265C80.0398 239.214 79.7827 239.147 79.5302 239.065L79.1102 238.895C79.1102 238.895 76.6402 229.585 74.6302 220.075C73.2902 213.415 72.3302 206.955 73.0002 204.485Z" fill="#1D1D2C"/>
<path d="M47.69 195.306C48.2179 194.876 48.7874 194.501 49.39 194.186C48.83 196.446 46.63 205.836 46.78 212.536C46.95 219.986 45.53 237.746 44.91 240.126C43.91 240.006 43.29 239.856 43.29 239.856C45.41 223.436 43.48 198.746 47.69 195.306Z" fill="#1D1D2C"/>
</g>
<defs>
<linearGradient id="paint0_linear_2117_12307" x1="-33.3402" y1="177.206" x2="270.66" y2="129.206" gradientUnits="userSpaceOnUse">
<stop stop-color="white"/>
<stop offset="1" stop-color="#D3DBEB"/>
</linearGradient>
<linearGradient id="paint1_linear_2117_12307" x1="-45.5606" y1="99.7963" x2="258.439" y2="51.7963" gradientUnits="userSpaceOnUse">
<stop stop-color="white"/>
<stop offset="1" stop-color="#D3DBEB"/>
</linearGradient>
<linearGradient id="paint2_linear_2117_12307" x1="210.995" y1="173.098" x2="30.5051" y2="79.0817" gradientUnits="userSpaceOnUse">
<stop stop-color="white"/>
<stop offset="1" stop-color="#D3DBEB"/>
</linearGradient>
<linearGradient id="paint3_linear_2117_12307" x1="159.689" y1="88.4352" x2="179.329" y2="88.4352" gradientUnits="userSpaceOnUse">
<stop stop-color="white"/>
<stop offset="1" stop-color="#D3DBEB"/>
</linearGradient>
<linearGradient id="paint4_linear_2117_12307" x1="70.6793" y1="103.725" x2="58.5193" y2="103.725" gradientUnits="userSpaceOnUse">
<stop stop-color="white"/>
<stop offset="1" stop-color="#D3DBEB"/>
</linearGradient>
<linearGradient id="paint5_linear_2117_12307" x1="46.0297" y1="108.957" x2="0.999737" y2="108.957" gradientUnits="userSpaceOnUse">
<stop stop-color="white"/>
<stop offset="1" stop-color="#D3DBEB"/>
</linearGradient>
<clipPath id="clip0_2117_12307">
<rect width="261.22" height="233.86" fill="white" transform="translate(1 14.3652)"/>
</clipPath>
</defs>
</svg>
