<svg width="242" height="228" viewBox="0 0 242 228" fill="none" xmlns="http://www.w3.org/2000/svg">
<path d="M190.8 211.977H1V213.417H190.8V211.977Z" fill="black"/>
<g opacity="0.5">
<path d="M149.08 204.295V195.245L148.91 195.185C144.898 193.929 141.138 191.979 137.8 189.425L137.65 189.315L130.25 194.515L121.25 183.865L127.65 177.465L127.56 177.305C125.619 173.575 124.343 169.534 123.79 165.365V165.185L114.89 163.675L116.09 149.825H125.09L125.14 149.645C126.399 145.634 128.352 141.873 130.91 138.535L131.02 138.385L125.81 130.985L136.46 121.985L142.86 128.385L143.03 128.305C146.754 126.356 150.792 125.076 154.96 124.525H155.15L156.7 115.605L170.55 116.805V125.805H170.72C174.756 127.09 178.534 129.077 181.88 131.675L182.03 131.785L189.43 126.585L198.43 137.235L192.03 143.635L192.12 143.795C194.041 147.51 195.303 151.529 195.85 155.675V155.855L204.77 157.405L203.57 171.255H194.52L194.47 171.425C193.217 175.443 191.263 179.208 188.7 182.545L188.59 182.685L193.8 190.095L183.15 199.045L176.75 192.655L176.58 192.735C172.855 194.682 168.817 195.958 164.65 196.505H164.47L162.91 205.425L149.08 204.295ZM159.83 134.355C153.867 134.359 148.085 136.398 143.438 140.133C138.791 143.869 135.557 149.078 134.272 154.901C132.987 160.723 133.727 166.809 136.37 172.154C139.013 177.499 143.4 181.782 148.807 184.295C154.214 186.808 160.316 187.401 166.106 185.977C171.896 184.552 177.026 181.194 180.648 176.458C184.271 171.722 186.169 165.892 186.03 159.932C185.89 153.971 183.72 148.236 179.88 143.675C177.419 140.755 174.349 138.408 170.886 136.798C167.422 135.188 163.649 134.354 159.83 134.355Z" fill="#D3D8EA"/>
</g>
<path d="M122.6 41.0549L122.65 17.6749C122.65 17.5556 122.619 17.4382 122.56 17.3349C122.529 17.2723 122.488 17.2149 122.44 17.1649L121.08 15.2949L117.14 16.9449L65.8095 16.8349C65.6194 16.8375 65.4377 16.9142 65.3033 17.0487C65.1688 17.1831 65.0921 17.3648 65.0895 17.5549V38.7549L63.7695 39.3049L65.1695 41.2149C65.2195 41.2975 65.2899 41.3657 65.374 41.413C65.4581 41.4603 65.553 41.4851 65.6495 41.4849L122.08 41.6049C122.219 41.5949 122.35 41.5329 122.447 41.4311C122.543 41.3293 122.597 41.195 122.6 41.0549Z" fill="black"/>
<path d="M120.57 39.6158L64.1401 39.4958C63.9916 39.4958 63.8491 39.4368 63.7441 39.3318C63.6391 39.2267 63.5801 39.0843 63.5801 38.9358V15.5558C63.5801 15.4617 63.5988 15.3685 63.6351 15.2817C63.6714 15.1949 63.7246 15.1162 63.7916 15.0502C63.8585 14.9841 63.938 14.932 64.0253 14.8969C64.1126 14.8618 64.206 14.8444 64.3001 14.8458L120.42 14.9658C120.611 14.9658 120.794 15.0416 120.929 15.1767C121.064 15.3117 121.14 15.4948 121.14 15.6858L121.09 39.0558C121.088 39.1969 121.034 39.3324 120.938 39.4358C120.842 39.5393 120.711 39.6034 120.57 39.6158Z" fill="#075085"/>
<path d="M70.8701 33.0959V20.8359H73.3501V25.6759H78.2001V20.8359H80.6701V33.1059H78.2001V27.7359H73.3501V33.0959H70.8701Z" fill="white"/>
<path d="M86.0004 33.1059V22.9159H82.3604V20.8359H92.1104V22.9059H88.4804V33.1059H86.0004Z" fill="white"/>
<path d="M93.6699 33.1057V20.8457H97.3799L99.5999 29.2157L101.81 20.8457H105.52V33.1157H103.22V23.4557L100.78 33.1157H98.3899L95.9699 23.4657V33.1157L93.6699 33.1057Z" fill="white"/>
<path d="M108.04 33.1151V20.9551H110.51V31.0451H116.66V33.1051L108.04 33.1151Z" fill="white"/>
<path d="M208.29 105.147V76.0266C208.29 75.8763 208.252 75.7284 208.18 75.5966C208.141 75.519 208.091 75.4481 208.03 75.3866L206.33 73.0566L201.42 75.1166L152.36 74.9766C152.124 74.9766 151.897 75.0704 151.73 75.2373C151.563 75.4042 151.47 75.6306 151.47 75.8666L151.41 102.297L149.77 102.987L151.51 105.367C151.571 105.468 151.657 105.552 151.761 105.61C151.864 105.668 151.981 105.698 152.1 105.697L207.53 105.847C207.626 105.855 207.724 105.843 207.816 105.812C207.908 105.78 207.992 105.73 208.064 105.664C208.135 105.598 208.192 105.518 208.231 105.429C208.27 105.34 208.29 105.244 208.29 105.147Z" fill="black"/>
<path d="M205.74 103.356L150.29 103.206C150.197 103.206 150.105 103.188 150.02 103.152C149.934 103.116 149.856 103.064 149.791 102.998C149.726 102.932 149.675 102.853 149.64 102.767C149.606 102.681 149.589 102.589 149.59 102.496L149.65 73.3764C149.65 73.2587 149.673 73.1421 149.719 73.0335C149.764 72.9248 149.83 72.8263 149.914 72.7435C149.998 72.6607 150.097 72.5954 150.206 72.5512C150.315 72.5071 150.432 72.4851 150.55 72.4864L205.55 72.6364C205.667 72.635 205.784 72.6572 205.892 72.7014C206.001 72.7457 206.099 72.8112 206.182 72.8941C206.265 72.977 206.331 73.0756 206.375 73.1842C206.419 73.2928 206.441 73.4091 206.44 73.5264V102.676C206.435 102.859 206.359 103.031 206.228 103.158C206.097 103.285 205.922 103.356 205.74 103.356Z" fill="#F0F8FF"/>
<path d="M159.84 94.8964V81.1564H164.29C165.394 81.115 166.499 81.1819 167.59 81.3564C168.391 81.5652 169.097 82.0415 169.59 82.7064C170.15 83.4846 170.432 84.4286 170.39 85.3864C170.416 86.1204 170.258 86.8492 169.93 87.5064C169.656 88.0482 169.255 88.515 168.76 88.8664C168.328 89.1767 167.838 89.3977 167.32 89.5164C166.371 89.6701 165.411 89.737 164.45 89.7164H162.64V94.8964H159.84ZM162.62 83.4764V87.3764H164.13C164.87 87.4171 165.611 87.3463 166.33 87.1664C166.682 87.0336 166.986 86.7964 167.2 86.4864C167.412 86.1709 167.521 85.7967 167.51 85.4164C167.526 84.9652 167.369 84.5248 167.07 84.1864C166.778 83.8595 166.383 83.6439 165.95 83.5764C165.287 83.4874 164.618 83.454 163.95 83.4764H162.62Z" fill="black"/>
<path d="M172.66 94.8962V81.1562H175.43V86.5662H180.87V81.1562H183.65V94.8962H180.87V88.8962H175.43V94.8962H172.66Z" fill="black"/>
<path d="M186.52 94.8964V81.1564H190.97C192.073 81.115 193.179 81.1819 194.27 81.3564C195.074 81.5532 195.786 82.019 196.29 82.6764C196.85 83.4546 197.131 84.3986 197.09 85.3564C197.111 86.09 196.953 86.8176 196.63 87.4764C196.353 88.0162 195.952 88.4824 195.46 88.8364C195.028 89.1467 194.538 89.3677 194.02 89.4864C193.068 89.6404 192.104 89.7073 191.14 89.6864H189.29V94.8664L186.52 94.8964ZM189.29 83.4764V87.3764H190.81C191.546 87.4173 192.284 87.3465 193 87.1664C193.352 87.0336 193.656 86.7964 193.87 86.4864C194.085 86.1718 194.197 85.7977 194.19 85.4164C194.206 84.9652 194.049 84.5248 193.75 84.1864C193.457 83.8614 193.061 83.6462 192.63 83.5764C191.967 83.4881 191.298 83.4547 190.63 83.4764H189.29Z" fill="black"/>
<path d="M53.5598 100.146V78.1462C53.5594 78.0347 53.532 77.9249 53.4798 77.8262C53.4515 77.7651 53.4106 77.7106 53.3598 77.6662L52.0798 75.9062L48.3698 77.4562L11.2998 77.3562C11.1221 77.3562 10.9517 77.4268 10.8261 77.5525C10.7004 77.6781 10.6298 77.8486 10.6298 78.0262L10.5798 98.0262L9.33984 98.5462L10.6598 100.346C10.7074 100.423 10.7737 100.486 10.8525 100.53C10.9312 100.573 11.0198 100.596 11.1098 100.596L53.0298 100.676C53.1704 100.676 53.3052 100.62 53.4046 100.521C53.504 100.422 53.5598 100.287 53.5598 100.146Z" fill="black"/>
<path d="M9.77023 98.4266C9.69597 98.4266 9.62475 98.3971 9.57224 98.3446C9.51973 98.292 9.49023 98.2208 9.49023 98.1466L9.54023 76.1466C9.54023 76.0352 9.58448 75.9283 9.66325 75.8496C9.74201 75.7708 9.84884 75.7266 9.96023 75.7266L51.5502 75.8366C51.6057 75.8358 51.6607 75.846 51.7122 75.8666C51.7637 75.8872 51.8106 75.9177 51.8502 75.9566C51.8898 75.9977 51.9208 76.0463 51.9414 76.0995C51.962 76.1527 51.9718 76.2095 51.9702 76.2666V98.2666C51.9702 98.3408 51.9407 98.412 51.8882 98.4645C51.8357 98.5171 51.7645 98.5466 51.6902 98.5466L9.77023 98.4266Z" fill="white"/>
<path d="M9.96023 75.9651L51.5502 76.0751C51.5889 76.0605 51.6316 76.0605 51.6702 76.0751C51.6864 76.1169 51.6864 76.1633 51.6702 76.2051L51.6002 98.2051L9.69023 98.0651L9.74023 76.0651C9.73876 76.0424 9.74215 76.0196 9.75018 75.9983C9.7582 75.977 9.77067 75.9577 9.78676 75.9416C9.80285 75.9255 9.82219 75.913 9.84348 75.905C9.86477 75.897 9.88753 75.8936 9.91023 75.8951L9.96023 75.9651ZM9.96023 75.4651C9.78254 75.4651 9.61212 75.5357 9.48647 75.6613C9.36082 75.787 9.29023 75.9574 9.29023 76.1351L9.24023 98.1351C9.24023 98.2756 9.29607 98.4105 9.39547 98.5098C9.49486 98.6092 9.62967 98.6651 9.77023 98.6651L51.6502 98.7751C51.7908 98.7751 51.9256 98.7192 52.025 98.6198C52.1244 98.5204 52.1802 98.3856 52.1802 98.2451V76.2451C52.1816 76.1563 52.1652 76.0681 52.1321 75.9856C52.0991 75.9032 52.0499 75.8281 51.9876 75.7648C51.9252 75.7016 51.8509 75.6513 51.769 75.617C51.687 75.5827 51.5991 75.5651 51.5102 75.5651L9.92023 75.4551L9.96023 75.4651Z" fill="black"/>
<path d="M23.6101 88.5758L25.6101 89.2258C25.3871 90.2144 24.8419 91.1009 24.0601 91.7458C23.1238 92.3741 21.9992 92.6596 20.8767 92.5539C19.7541 92.4482 18.7026 91.9578 17.9001 91.1658C16.9671 90.0997 16.4896 88.7102 16.5701 87.2958C16.486 85.8415 16.9619 84.4102 17.9001 83.2958C18.3534 82.8208 18.9026 82.4476 19.5112 82.201C20.1198 81.9545 20.7739 81.8402 21.4301 81.8658C21.9943 81.8399 22.5581 81.9265 23.0886 82.1205C23.619 82.3145 24.1056 82.612 24.5201 82.9958C25.0438 83.5218 25.4108 84.1831 25.5801 84.9058L23.5101 85.3958C23.4074 84.9021 23.1353 84.4598 22.7408 84.1456C22.3463 83.8315 21.8543 83.6653 21.3501 83.6758C20.996 83.6642 20.6438 83.7329 20.32 83.8766C19.9962 84.0204 19.709 84.2354 19.4801 84.5058C18.9312 85.2899 18.6763 86.2424 18.7601 87.1958C18.6668 88.1831 18.9176 89.1723 19.4701 89.9958C19.6915 90.2679 19.9727 90.4853 20.2918 90.631C20.6109 90.7767 20.9594 90.8468 21.3101 90.8358C21.8389 90.8423 22.3516 90.6536 22.7501 90.3058C23.2092 89.8323 23.5097 89.2277 23.6101 88.5758Z" fill="black"/>
<path d="M26.9102 89.0156L28.9102 88.8156C28.9728 89.3921 29.2387 89.9274 29.6602 90.3256C30.088 90.6727 30.6301 90.8475 31.1802 90.8156C31.7242 90.8502 32.2638 90.6986 32.7102 90.3856C32.865 90.2681 32.9913 90.1172 33.0796 89.944C33.1679 89.7708 33.216 89.58 33.2202 89.3856C33.2267 89.1587 33.1482 88.9376 33.0002 88.7656C32.7931 88.5535 32.5348 88.3985 32.2502 88.3156C32.0002 88.2256 31.4402 88.0756 30.5702 87.8556C29.7149 87.7052 28.9047 87.3633 28.2002 86.8556C27.8899 86.6024 27.6394 86.2837 27.4665 85.9224C27.2936 85.5611 27.2027 85.1661 27.2002 84.7656C27.1995 84.2354 27.3561 83.7168 27.6502 83.2756C27.9722 82.8224 28.421 82.4745 28.9402 82.2756C29.5771 82.0268 30.2564 81.9045 30.9402 81.9156C31.9916 81.84 33.0352 82.1453 33.8802 82.7756C34.2016 83.063 34.4574 83.4164 34.6299 83.8115C34.8025 84.2067 34.8878 84.6345 34.8802 85.0656L32.7802 85.1556C32.742 84.7119 32.5343 84.3 32.2002 84.0056C31.8162 83.7342 31.3488 83.6067 30.8802 83.6456C30.3723 83.6191 29.8688 83.752 29.4402 84.0256C29.3357 84.0983 29.2509 84.1957 29.1934 84.3091C29.1358 84.4225 29.1072 84.5484 29.1102 84.6756C29.1133 84.7968 29.1427 84.9158 29.1962 85.0246C29.2497 85.1333 29.3261 85.2292 29.4202 85.3056C30.0159 85.6516 30.6701 85.8854 31.3502 85.9956C32.1895 86.1156 33.0097 86.3441 33.7902 86.6756C34.255 86.9017 34.6517 87.2467 34.9402 87.6756C35.2285 88.1863 35.3733 88.7654 35.3592 89.3516C35.3451 89.9379 35.1727 90.5094 34.8602 91.0056C34.5247 91.5278 34.0356 91.9331 33.4602 92.1656C32.7382 92.4363 31.9709 92.5653 31.2002 92.5456C30.1239 92.6072 29.0608 92.2848 28.2002 91.6356C27.4553 90.9561 26.9946 90.0203 26.9102 89.0156Z" fill="black"/>
<path d="M36.5898 89.0156L38.5898 88.8156C38.6525 89.3921 38.9184 89.9274 39.3398 90.3256C39.7677 90.6727 40.3098 90.8475 40.8598 90.8156C41.4009 90.852 41.938 90.7 42.3798 90.3856C42.5376 90.2702 42.6667 90.1199 42.7569 89.9465C42.8471 89.773 42.896 89.5811 42.8998 89.3856C42.9064 89.1587 42.8279 88.9376 42.6798 88.7656C42.4728 88.5535 42.2144 88.3985 41.9298 88.3156C41.6798 88.2256 41.1198 88.0756 40.2498 87.8556C39.3933 87.7096 38.5821 87.3674 37.8798 86.8556C37.568 86.6038 37.3163 86.2854 37.1433 85.9238C36.9703 85.5622 36.8803 85.1665 36.8798 84.7656C36.8808 84.2371 37.0335 83.7199 37.3198 83.2756C37.6454 82.8217 38.0976 82.4738 38.6198 82.2756C39.2568 82.0268 39.9361 81.9045 40.6198 81.9156C41.6713 81.84 42.7149 82.1453 43.5598 82.7756C43.8813 83.063 44.1371 83.4164 44.3096 83.8115C44.4822 84.2067 44.5675 84.6345 44.5598 85.0656L42.4598 85.1556C42.4217 84.7119 42.214 84.3 41.8798 84.0056C41.4906 83.7373 41.0213 83.6102 40.5498 83.6456C40.0451 83.6185 39.5446 83.7515 39.1198 84.0256C39.0154 84.0983 38.9306 84.1957 38.8731 84.3091C38.8155 84.4225 38.7869 84.5484 38.7898 84.6756C38.7902 84.7973 38.8183 84.9173 38.872 85.0264C38.9258 85.1356 39.0037 85.2311 39.0998 85.3056C39.6956 85.6516 40.3498 85.8854 41.0298 85.9956C41.8104 86.1547 42.5691 86.4065 43.2898 86.7456C43.8102 86.9275 44.2704 87.2493 44.6198 87.6756C44.902 88.1882 45.0433 88.7664 45.0292 89.3514C45.0152 89.9364 44.8463 90.5072 44.5398 91.0056C44.2044 91.5278 43.7153 91.9331 43.1398 92.1656C42.4179 92.4363 41.6506 92.5653 40.8798 92.5456C39.8034 92.609 38.7397 92.2863 37.8798 91.6356C37.135 90.9561 36.6743 90.0203 36.5898 89.0156Z" fill="black"/>
<path d="M135.29 124.336C125.78 112.876 115.21 118.786 112.52 122.046C87.9901 151.676 51.2901 157.676 47.6001 176.116C45.6001 186.116 54.0901 211.176 104.78 211.526C157.68 211.906 170.04 181.296 157.95 161.736C145.86 142.176 144.78 135.816 135.29 124.336Z" fill="#AAB6C2"/>
<path d="M105.74 211.796H104.74C73.6702 211.576 59.4702 202.136 53.0302 194.256C47.5102 187.486 46.4502 180.426 47.3102 176.076C49.1802 166.546 59.5902 160.406 72.7602 152.636C85.0102 145.406 100.26 136.406 112.25 121.896C113.6 120.469 115.224 119.331 117.025 118.549C118.826 117.767 120.767 117.358 122.73 117.346C127.38 117.346 131.65 119.646 135.41 124.186C141.06 130.986 143.76 136.036 147.5 143.026C150.04 147.746 153.19 153.636 158.12 161.606C160.796 165.821 162.277 170.684 162.405 175.675C162.534 180.666 161.305 185.598 158.85 189.946C155.2 196.426 148.85 201.826 140.52 205.536C131.23 209.676 119.51 211.796 105.74 211.796ZM122.74 117.846C120.852 117.857 118.986 118.25 117.254 119.001C115.521 119.752 113.959 120.845 112.66 122.216C100.61 136.786 85.3202 145.816 73.0302 153.066C59.9702 160.776 49.6502 166.866 47.8202 176.166C46.9902 180.406 48.0302 187.296 53.4402 193.916C59.8102 201.716 73.8802 211.056 104.75 211.276C118.87 211.376 130.84 209.276 140.33 205.056C148.57 201.386 154.83 196.056 158.42 189.686C160.83 185.418 162.036 180.576 161.909 175.676C161.782 170.777 160.328 166.003 157.7 161.866C152.76 153.866 149.61 147.986 147.07 143.256C143.34 136.256 140.65 131.256 135.07 124.506C131.4 120.086 127.29 117.846 122.78 117.846H122.74Z" fill="black"/>
<path d="M79.2897 145.845C77.6197 145.845 75.5597 145.095 72.8097 143.475C65.8897 139.405 65.4897 138.195 64.6197 135.555C64.4497 135.045 64.2697 134.495 64.0197 133.855C63.8597 133.445 65.1097 132.545 66.4197 131.925C69.8897 134.875 72.2297 136.195 73.9897 136.195C74.5292 136.174 75.0581 136.039 75.541 135.797C76.0239 135.556 76.4497 135.214 76.7897 134.795C77.2967 133.8 77.6956 132.754 77.9797 131.675C80.0497 125.925 84.3397 113.975 89.7697 111.205C90.1878 110.949 90.6542 110.782 91.1397 110.715C91.5497 110.715 91.6797 111.075 91.9897 112.185C92.0997 112.585 92.2297 113.045 92.4097 113.565C94.1797 118.745 91.9397 130.395 87.7997 137.565C84.6397 143.065 82.4497 145.845 79.2897 145.845Z" fill="white"/>
<path d="M91.1402 111.006C91.3602 111.006 91.4702 111.286 91.7502 112.296C91.8602 112.696 91.9902 113.156 92.1702 113.686C93.9202 118.806 91.6902 130.366 87.5902 137.466C84.4702 142.856 82.3302 145.596 79.2402 145.596C77.6102 145.596 75.5902 144.856 72.8902 143.266C66.0502 139.266 65.6602 138.056 64.8102 135.476C64.6402 134.976 64.4502 134.406 64.2102 133.786C64.2102 133.496 65.2102 132.786 66.3402 132.226C69.7802 135.146 72.1402 136.446 73.9402 136.446C74.5174 136.43 75.0845 136.29 75.6023 136.035C76.1202 135.779 76.5766 135.414 76.9402 134.966C77.5068 133.969 77.9437 132.904 78.2402 131.796C80.2402 126.086 84.5602 114.196 89.9102 111.466C90.2936 111.234 90.7179 111.078 91.1602 111.006H91.1402ZM91.1402 110.506C90.6165 110.57 90.1122 110.744 89.6602 111.016C82.5202 114.676 77.3602 133.786 76.5602 134.676C76.2432 135.07 75.8453 135.392 75.3934 135.62C74.9414 135.848 74.4459 135.976 73.9402 135.996C72.3602 135.996 70.1302 134.856 66.4102 131.686C66.4102 131.686 63.4102 133.066 63.7402 133.996C65.2902 137.996 64.3202 138.856 72.6302 143.746C75.3602 145.346 77.4602 146.146 79.2402 146.146C82.5802 146.146 84.8102 143.326 88.0202 137.766C92.2002 130.546 94.4502 118.866 92.6402 113.576C92.0002 111.686 92.0102 110.576 91.1402 110.576V110.506Z" fill="black"/>
<path d="M125.59 147.675C123.82 147.945 121.99 148.155 120.07 148.285C117.551 148.443 115.023 148.403 112.51 148.165C112.384 148.16 112.261 148.198 112.159 148.273C112.057 148.347 111.984 148.454 111.95 148.575C106.75 149.015 101.55 149.575 96.3802 149.955C88.2702 150.525 80.3802 151.065 72.9402 147.695C67.0002 144.995 66.4602 143.455 59.4602 145.195C58.5802 145.415 55.3902 151.785 56.2602 151.555C59.8602 150.655 59.1602 148.555 62.7302 148.855C62.3402 151.595 64.6702 153.615 66.5802 155.355C69.9613 158.296 73.5035 161.047 77.1902 163.595C81.0568 166.448 84.9702 169.248 88.9302 171.995C91.7902 173.995 94.4702 176.615 98.1302 176.435C106.27 176.025 114 171.575 120.73 167.365C124.03 165.295 127.21 163.045 130.31 160.705C129.44 155.975 126.2 148.975 125.59 147.675Z" fill="black"/>
<path d="M96.6104 128.506C93.8344 128.98 90.9916 128.891 88.2504 128.246C87.7186 128.123 87.1944 127.97 86.6804 127.786C84.1537 126.862 81.8454 125.425 79.9004 123.566C80.2004 122.126 82.4304 112.476 87.4504 108.076C88.8794 106.81 90.4498 105.713 92.1304 104.806C93.9304 103.876 95.8504 103.366 97.2704 104.166C97.5105 104.296 97.7296 104.461 97.9204 104.656C102.29 108.966 99.2204 120.346 96.6104 128.506Z" fill="#075085"/>
<path d="M125.63 147.766C125.63 147.846 125.98 148.506 125.97 148.576C125.52 153.266 118.97 154.216 115.4 154.286C113.9 154.286 112.4 154.286 110.88 154.286C104.99 155.386 98.6801 156.007 92.8801 154.527C92.7317 154.496 92.597 154.418 92.4959 154.305C92.3947 154.193 92.3323 154.05 92.3177 153.899C92.3032 153.749 92.3373 153.597 92.4151 153.467C92.4929 153.337 92.6103 153.235 92.7501 153.176C96.2501 151.716 100.63 152.226 104.64 152.576C106.208 152.361 107.761 152.047 109.29 151.637C112.41 150.757 115.37 149.466 118.53 148.756C119.1 148.626 119.61 148.467 120.11 148.307C122.47 148.127 125.86 147.606 125.63 147.766Z" fill="black"/>
<path d="M92.5697 129.086C90.5763 128.803 88.6073 128.368 86.6797 127.786C93.5297 122.946 86.9597 116.276 89.2297 113.266C90.2297 111.986 90.7097 105.856 92.1297 104.806C93.9297 103.876 95.8497 103.366 97.2697 104.166C96.0097 105.166 93.6597 107.326 92.5097 108.166C90.5097 110.956 92.2597 115.246 92.3097 118.646C92.4197 119.316 92.9497 128.906 92.5697 129.086Z" fill="black"/>
<path d="M80.8799 150.116C102.01 159.336 125.39 147.736 125.49 147.696C125.1 146.936 120.38 138.966 119.08 136.056C118.442 134.499 118.05 132.853 117.92 131.176C117.661 128.682 117.661 126.169 117.92 123.676C118 122.766 118.1 122.076 118.14 121.746C118.143 121.709 118.143 121.672 118.14 121.636C119.84 113.176 123.53 103.146 113.71 100.056C112.31 99.6291 110.869 99.3575 109.41 99.2456C107.34 99.0874 105.26 99.0874 103.19 99.2456C101.001 100.042 98.8604 100.967 96.7799 102.016C95.6099 102.606 94.3799 103.286 93.1999 104.016C89.6499 106.236 88.8799 110.686 89.0099 113.726C89.0899 115.836 91.6099 120.316 92.2999 121.226C90.8399 131.176 82.5099 147.226 80.8799 150.116Z" fill="#075085"/>
<path d="M101.29 102.096C101.163 102.111 101.036 102.111 100.91 102.096C100.861 102.091 100.814 102.073 100.774 102.045C100.734 102.017 100.701 101.98 100.68 101.936C100.51 101.576 100.84 100.736 101.08 100.296V100.236V96.3358L106.3 94.1758V99.0158C105.85 99.4858 103.3 102.096 101.3 102.096H101.29Z" fill="white"/>
<path d="M106.12 94.5466V98.9166C105.22 99.8566 102.95 101.847 101.33 101.847C101.221 101.857 101.11 101.857 101 101.847C100.975 101.344 101.112 100.846 101.39 100.427L101.45 100.317V96.5066L106.17 94.5066L106.12 94.5466ZM106.62 93.8066L100.9 96.1766V100.177C100.9 100.177 99.8304 102.177 100.9 102.347C101.043 102.362 101.187 102.362 101.33 102.347C103.63 102.347 106.62 99.1166 106.62 99.1166V93.8066Z" fill="black"/>
<path d="M101.29 98.3055C99.5901 98.3055 98.1101 97.5155 97.6801 96.3955C96.6824 93.384 95.9792 90.2828 95.5801 87.1355L104.38 84.4355C104.97 85.2355 107.94 89.5555 106.38 94.3755C106.086 95.5014 105.427 96.4978 104.506 97.209C103.585 97.9201 102.454 98.3057 101.29 98.3055Z" fill="white"/>
<path d="M104.23 84.7265C104.98 85.7865 107.54 89.8265 106.08 94.2965C105.807 95.3632 105.19 96.3099 104.323 96.9898C103.457 97.6697 102.391 98.0446 101.29 98.0565C99.72 98.0565 98.29 97.3165 97.92 96.3065C96.9413 93.3809 96.2513 90.3665 95.86 87.3065L104.28 84.7165L104.23 84.7265ZM104.42 84.1465L95.29 86.9565C95.6878 90.1959 96.4047 93.388 97.43 96.4865C97.9 97.7165 99.5 98.5565 101.27 98.5565C102.485 98.5539 103.664 98.1494 104.625 97.4059C105.586 96.6624 106.273 95.6218 106.58 94.4465C108.38 88.9365 104.45 84.1465 104.45 84.1465H104.42Z" fill="black"/>
<path d="M108.77 77.6765C108.082 76.9687 107.169 76.5242 106.188 76.4201C105.207 76.3159 104.22 76.5588 103.4 77.1065C103.082 77.2422 102.798 77.4471 102.569 77.7061C102.34 77.9651 102.172 78.2718 102.076 78.604C101.98 78.9362 101.96 79.2856 102.016 79.6267C102.072 79.9679 102.203 80.2923 102.4 80.5765C99.1598 80.4365 87.7998 84.0465 94.4598 91.2965C94.5634 90.4374 94.8746 89.6164 95.3665 88.9046C95.8585 88.1927 96.5163 87.6113 97.2833 87.2106C98.0502 86.8099 98.9032 86.6019 99.7685 86.6047C100.634 86.6075 101.485 86.8209 102.25 87.2265C102.547 87.6824 102.795 88.1685 102.99 88.6765C103.503 90.2517 104.466 91.6423 105.76 92.6765C107.67 94.0165 109.55 93.1465 109.76 91.2565C109.734 89.3413 109.347 87.4482 108.62 85.6765C109.278 85.7447 109.941 85.6097 110.521 85.2897C111.1 84.9697 111.567 84.48 111.86 83.8865C112.7 81.7565 110.17 78.9965 108.77 77.6765Z" fill="black"/>
<path d="M104.37 91.0051C104.085 90.9448 103.832 90.7809 103.66 90.5451C103.356 90.2248 103.154 89.8209 103.08 89.3851C103.337 89.0304 103.72 88.7872 104.15 88.7051C104.259 88.7112 104.365 88.7401 104.461 88.7901C104.558 88.8401 104.642 88.91 104.71 88.9951C104.888 89.1713 105.012 89.395 105.067 89.6396C105.122 89.8843 105.106 90.1395 105.02 90.3751C104.973 90.5195 104.894 90.6514 104.788 90.7605C104.682 90.8697 104.553 90.9533 104.41 91.0051H104.37Z" fill="white"/>
<path d="M104.15 88.9551C104.223 88.9581 104.294 88.9777 104.358 89.0124C104.422 89.0471 104.477 89.0958 104.52 89.1551C104.668 89.2981 104.772 89.4805 104.82 89.6807C104.868 89.8809 104.857 90.0906 104.79 90.2851C104.761 90.3905 104.708 90.4877 104.635 90.5692C104.562 90.6508 104.471 90.7144 104.37 90.7551C104.37 90.7551 104.12 90.6851 103.85 90.3751C103.607 90.1187 103.432 89.806 103.34 89.4651C103.542 89.2058 103.829 89.0254 104.15 88.9551ZM104.15 88.4551C103.45 88.4551 102.83 89.2951 102.83 89.2951C102.76 89.9551 103.68 91.2951 104.37 91.2951H104.44C104.671 91.2075 104.876 91.0618 105.035 90.872C105.193 90.6823 105.3 90.4548 105.346 90.2117C105.391 89.9685 105.373 89.7178 105.293 89.4837C105.213 89.2496 105.074 89.04 104.89 88.8751C104.8 88.7642 104.688 88.6738 104.56 88.61C104.432 88.5461 104.293 88.5104 104.15 88.5051V88.4551Z" fill="black"/>
<path d="M97.0403 122.536C100.14 124.896 104.56 124.926 108.15 126.306C111.31 127.526 114.59 130.446 117.92 131.176C117.661 128.683 117.661 126.169 117.92 123.676C117.892 123.635 117.858 123.598 117.82 123.566C117.92 122.976 118.01 122.366 118.14 121.746C118.135 121.71 118.135 121.673 118.14 121.636C117.336 120.163 116.288 118.838 115.04 117.716C112.488 115.212 110.518 112.177 109.27 108.826C108.565 112.891 109.308 117.073 111.37 120.646C112.061 121.826 112.879 122.926 113.81 123.926C113.81 123.926 113.81 124.026 113.81 124.096C113.91 125.636 106.13 122.436 104.99 122.096C102.496 121.381 99.9018 121.081 97.3103 121.206C96.6603 121.296 96.5903 122.196 97.0403 122.536Z" fill="black"/>
<path d="M116.29 167.355L115.08 167.125C115.196 166.987 115.297 166.836 115.38 166.675C115.52 166.415 116.56 155.555 116.38 155.375C115.3 154.565 112.68 155.855 111.38 155.935C110.143 156.13 108.893 156.231 107.64 156.235C105.77 156.065 103.9 156.735 102.13 156.145C96.9001 154.415 91.5701 156.665 86.5001 154.495C83.6201 153.265 80.8401 155.625 78.3301 153.735C76.4701 152.335 74.7901 150.735 72.8101 149.475C71.8701 148.895 67.7201 146.355 67.6101 149.235C67.5001 151.755 72.6101 153.875 74.3101 154.825C79.7601 157.825 84.3102 162.025 88.9802 166.015C92.1902 168.745 95.1501 172.605 99.6901 172.325C105.39 171.985 106.87 174.205 112.25 172.325C112.87 172.115 116.99 167.465 116.29 167.355Z" fill="black"/>
<path d="M115.41 183.216C115.327 183.226 115.243 183.226 115.16 183.216C114.802 183.057 114.466 182.852 114.16 182.606L113.87 182.396C113.312 182.147 112.718 181.992 112.11 181.936L111.5 181.836C110.399 181.624 109.326 181.289 108.3 180.836C107.32 180.357 106.395 179.773 105.54 179.096C104.272 178.008 102.764 177.237 101.14 176.846C101.115 176.847 101.091 176.84 101.071 176.825C101.051 176.811 101.037 176.79 101.03 176.766L100.98 176.626H100.84C100.805 176.621 100.774 176.605 100.75 176.579C100.726 176.554 100.712 176.521 100.71 176.486C100.58 175.266 101.32 173.096 102.61 172.586C102.739 172.544 102.874 172.524 103.01 172.526C103.349 172.545 103.684 172.602 104.01 172.696L104.59 172.826C105.11 172.902 105.635 172.939 106.16 172.936C107.38 172.9 108.595 172.756 109.79 172.506C110.073 172.45 110.361 172.423 110.65 172.426C111.563 172.469 112.464 172.655 113.32 172.976C114.259 173.327 115.248 173.527 116.25 173.566H116.79C117.89 173.566 118.38 173.756 118.57 174.926C118.76 176.096 118.27 180.666 116.71 182.496C116.556 182.711 116.356 182.888 116.124 183.015C115.892 183.141 115.634 183.213 115.37 183.226L115.41 183.216Z" fill="white"/>
<path d="M110.69 172.676C111.576 172.718 112.45 172.9 113.28 173.216C114.241 173.576 115.254 173.779 116.28 173.816H116.82C117.82 173.816 118.19 173.976 118.35 174.966C118.57 176.276 118.01 180.626 116.55 182.336C116.417 182.521 116.245 182.674 116.047 182.785C115.848 182.896 115.627 182.961 115.4 182.976H115.21C114.905 182.814 114.617 182.623 114.35 182.406C114.249 182.322 114.142 182.245 114.03 182.176C113.448 181.911 112.826 181.745 112.19 181.686L111.59 181.586C110.507 181.39 109.45 181.072 108.44 180.636C107.48 180.16 106.572 179.587 105.73 178.926C104.445 177.84 102.925 177.07 101.29 176.676L101.22 176.466H101C100.91 175.346 101.6 173.346 102.75 172.906C102.852 172.884 102.958 172.884 103.06 172.906C103.375 172.924 103.687 172.977 103.99 173.066C104.189 173.125 104.393 173.169 104.6 173.196C105.129 173.281 105.664 173.321 106.2 173.316C107.434 173.284 108.663 173.136 109.87 172.876C110.14 172.828 110.415 172.804 110.69 172.806V172.676ZM110.69 172.176C110.388 172.174 110.087 172.2 109.79 172.256C108.609 172.508 107.407 172.652 106.2 172.686C105.688 172.688 105.176 172.651 104.67 172.576C104.142 172.435 103.603 172.335 103.06 172.276C102.893 172.272 102.727 172.299 102.57 172.356C101.18 172.896 100.36 175.176 100.51 176.506C100.517 176.594 100.554 176.677 100.613 176.742C100.673 176.807 100.753 176.851 100.84 176.866C100.861 176.933 100.902 176.993 100.957 177.038C101.012 177.082 101.079 177.109 101.15 177.116C103.85 177.536 105.79 179.986 108.25 181.116C109.294 181.574 110.388 181.909 111.51 182.116C112.298 182.192 113.072 182.377 113.81 182.666C114.213 182.995 114.652 183.277 115.12 183.506C115.216 183.516 115.313 183.516 115.41 183.506C118.16 183.506 119.15 176.716 118.85 174.916C118.63 173.526 117.92 173.346 116.85 173.346H116.29C114.23 173.346 112.67 172.206 110.69 172.206V172.176Z" fill="black"/>
<path d="M107.49 172.545C107.49 172.545 110.22 180.545 109.49 181.545C109.49 181.545 115.12 193.805 117.78 185.145C118.539 182.725 118.512 180.126 117.701 177.722C116.891 175.318 115.34 173.232 113.27 171.765C111.309 171.486 109.308 171.756 107.49 172.545Z" fill="black"/>
<path d="M104.47 172.255C101.34 168.655 86.1697 157.255 82.5797 154.185C79.2046 151.147 75.3663 148.665 71.2097 146.835C67.9697 145.515 63.5697 144.175 60.0497 145.035C56.9197 145.795 56.0497 147.445 55.1497 150.255C54.8403 151.173 54.6323 152.122 54.5297 153.085C54.2161 155.724 54.7335 158.395 56.0097 160.725C58.0097 164.305 61.7997 166.465 65.1597 168.585C69.0897 171.065 99.5297 178.475 101.16 177.375C101.728 176.917 102.215 176.366 102.6 175.745C103.73 174.265 104.2 173.895 104.47 172.255Z" fill="black"/>
<path d="M100.8 174.217C97.4999 172.217 93.6999 171.367 89.9499 170.667C85.5522 169.969 81.2084 168.967 76.9499 167.667C71.9999 166.007 67.0399 164.077 62.8299 160.917C59.8169 158.552 57.0224 155.921 54.4799 153.057C54.1663 155.695 54.6837 158.366 55.9599 160.697C57.9599 164.277 61.7499 166.437 65.1099 168.557C69.0399 171.037 99.4799 178.447 101.11 177.347C101.678 176.888 102.165 176.337 102.55 175.717C102.05 175.127 101.459 174.621 100.8 174.217Z" fill="black"/>
<path d="M121.37 208.326C119.16 208.326 118.37 207.996 118.29 207.806C118.29 207.806 118.29 207.806 118.29 207.646C118.738 206.976 119.142 206.278 119.5 205.556C119.756 205.02 119.938 204.452 120.04 203.866C120.068 203.715 120.085 203.561 120.09 203.406C120.051 203.052 120.144 202.697 120.35 202.406C121.279 201.73 122.413 201.395 123.56 201.456C123.923 201.453 124.285 201.489 124.64 201.566V201.746L124.86 201.846C124.785 203.12 125.118 204.385 125.81 205.456C126.199 206.157 126.492 206.907 126.68 207.686C124.942 208.144 123.147 208.353 121.35 208.306L121.37 208.326Z" fill="white"/>
<path d="M123.6 201.726C123.892 201.726 124.183 201.75 124.47 201.796V201.936L124.64 202.016C124.618 203.278 124.965 204.519 125.64 205.586C125.975 206.195 126.243 206.839 126.44 207.506C124.806 207.917 123.125 208.108 121.44 208.076C120.493 208.15 119.54 208.031 118.64 207.726C119.089 207.069 119.49 206.38 119.84 205.666C120.102 205.109 120.29 204.521 120.4 203.916C120.428 203.75 120.445 203.583 120.45 203.416C120.425 203.132 120.491 202.848 120.64 202.606C121.508 201.974 122.569 201.662 123.64 201.726H123.6ZM123.6 201.226C122.388 201.15 121.187 201.504 120.21 202.226C119.8 202.656 119.92 203.336 119.84 203.796C119.735 204.36 119.557 204.908 119.31 205.426C118.956 206.136 118.559 206.824 118.12 207.486C117.62 208.266 119.32 208.546 121.37 208.546C123.93 208.546 127.03 208.096 126.95 207.636C126.59 205.636 124.79 203.906 125.14 201.866C125.149 201.812 125.138 201.757 125.111 201.709C125.084 201.662 125.041 201.626 124.99 201.606C124.99 201.486 124.93 201.366 124.74 201.316C124.367 201.231 123.984 201.19 123.6 201.196V201.226Z" fill="black"/>
<path d="M118.22 211.167C118.436 210.581 118.834 210.08 119.357 209.738C119.879 209.395 120.497 209.23 121.12 209.267C121.917 209.407 122.702 209.604 123.47 209.857C124.492 210.025 125.496 210.286 126.47 210.637C126.93 210.827 126.47 211.347 125.97 211.177C123.66 210.367 121.08 210.957 118.69 211.667C118.29 211.777 117.93 211.367 118.22 211.167Z" fill="#9BCEF5"/>
<path d="M131.37 168.596C131.04 164.826 130.82 160.676 128.92 157.436C127.753 155.437 125.976 153.864 123.85 152.946C123.112 152.637 122.34 152.416 121.55 152.286C119.69 151.986 117.8 151.866 116.25 152.916C115.75 153.254 115.316 153.681 114.97 154.176C113.08 156.816 112.45 161.176 112.26 164.486C112.095 168.804 112.522 173.125 113.53 177.326C114.53 181.696 118.06 199.456 119.53 203.656C119.53 203.766 119.89 203.836 120.38 203.866C121.26 203.898 122.141 203.844 123.01 203.706C123.61 203.639 124.191 203.456 124.72 203.166C126.19 202.206 131.77 173.006 131.37 168.596Z" fill="black"/>
<path d="M120.42 203.866C119.93 203.866 119.61 203.766 119.57 203.656C118.06 199.456 114.5 181.656 113.57 177.326C112.558 173.125 112.128 168.804 112.29 164.486C112.48 161.156 113.11 156.816 115 154.176C115.346 153.681 115.78 153.254 116.28 152.916C116.28 153.156 115.02 163.226 115.77 168.526C116.52 173.826 121.01 200.746 120.42 203.866Z" fill="black"/>
<path d="M108.95 83.8549C106.627 82.9802 104.532 81.5924 102.82 79.7949C102.19 79.1449 101.26 80.1949 101.88 80.7949C103.672 82.6903 105.861 84.1656 108.29 85.1149C109.16 85.4349 109.8 84.1849 108.95 83.8549Z" fill="#075085"/>
<path d="M103.03 88.806L103.32 89.356L104.32 91.036C104.371 91.2242 104.463 91.3986 104.59 91.546C104.8 91.796 103.76 92.406 103.41 92.146C103.06 91.886 101.85 90.856 101.85 90.856C101.708 90.4211 101.667 89.9593 101.73 89.506C101.89 89.056 102.68 88.666 102.68 88.666L103.03 88.806Z" fill="white"/>
<path d="M111.98 109.895C111.67 109.863 111.375 109.753 111.12 109.575C111.082 109.512 111.03 109.458 110.967 109.42C110.904 109.382 110.833 109.359 110.76 109.355C110.715 109.354 110.671 109.363 110.629 109.38C110.588 109.397 110.551 109.423 110.52 109.455L109.52 108.705L109.88 104.225L110.26 101.495C111.01 101.435 113.72 101.245 115.06 101.245C115.279 101.228 115.5 101.228 115.72 101.245L116.48 101.705C116.27 102.835 115.96 104.375 115.89 104.555C115.82 104.735 114.69 106.415 113.95 107.555L111.98 109.895Z" fill="white"/>
<path d="M115.11 101.496C115.296 101.484 115.483 101.484 115.67 101.496L116.25 101.846C116.02 103.046 115.78 104.276 115.73 104.426C115.68 104.576 114.51 106.306 113.81 107.426L111.88 109.636C111.685 109.607 111.495 109.547 111.32 109.456C111.263 109.357 111.181 109.275 111.083 109.217C110.985 109.16 110.874 109.128 110.76 109.126C110.684 109.111 110.606 109.111 110.53 109.126L109.83 108.576L110.18 104.256L110.53 101.706C111.53 101.636 113.88 101.476 115.11 101.476V101.496ZM115.11 100.996C113.52 100.996 110.11 101.256 110.11 101.256L109.71 104.256L109.34 108.876L110.61 109.876C110.61 109.876 110.67 109.656 110.79 109.656C110.91 109.656 110.88 109.656 110.94 109.766C111.16 110.076 112.1 110.216 112.1 110.216L114.24 107.756C114.24 107.756 116.07 104.946 116.24 104.756C116.41 104.566 116.88 101.676 116.88 101.676L115.95 101.116C115.701 101.06 115.445 101.039 115.19 101.056L115.11 100.996Z" fill="black"/>
<path d="M93.1999 104.186C92.549 104.706 91.8491 105.161 91.1099 105.546C90.5599 105.716 87.9999 107.766 88.1099 109.606C88.2199 111.446 88.7599 114.396 88.7599 114.396L88.8699 113.856C88.8699 113.856 88.8699 113.326 89.2099 113.666C89.5499 114.006 90.2099 113.596 90.2099 113.596L91.7399 111.066L95.6599 107.336L98.1299 106.566L97.6999 103.766L93.1999 104.186Z" fill="#075085"/>
<path d="M121.56 143.725C113.89 143.725 104.65 141.015 104.56 140.985H104.47H104.39C103.904 141.196 103.394 141.347 102.87 141.435C102.262 141.63 101.629 141.738 100.99 141.755C100.652 141.756 100.315 141.709 99.9904 141.615C99.7951 141.556 99.6045 141.483 99.4204 141.395H99.3204H99.2204C98.6284 141.644 97.9928 141.773 97.3504 141.775C97.0926 141.774 96.8352 141.754 96.5804 141.715C96.5294 141.709 96.4804 141.691 96.437 141.664C96.3937 141.636 96.3573 141.599 96.3304 141.555C96.3029 141.497 96.2886 141.434 96.2886 141.37C96.2886 141.306 96.3029 141.243 96.3304 141.185L96.4104 140.935L96.1604 140.865C96.011 140.82 95.874 140.742 95.7604 140.635C95.7051 140.578 95.6615 140.511 95.6323 140.437C95.6032 140.363 95.5889 140.284 95.5904 140.205V140.065L95.4604 139.995C95.3063 139.912 95.1649 139.808 95.0404 139.685C94.8412 139.497 94.701 139.255 94.6371 138.988C94.5732 138.722 94.5882 138.443 94.6804 138.185L94.9004 137.605L94.3404 137.865C93.3987 138.366 92.5632 139.045 91.8804 139.865C91.8437 139.906 91.7991 139.94 91.7494 139.964C91.6996 139.988 91.6456 140.002 91.5904 140.005C91.502 139.999 91.4168 139.969 91.3445 139.918C91.2721 139.867 91.2153 139.796 91.1804 139.715C91.1111 139.57 91.0752 139.411 91.0752 139.25C91.0752 139.089 91.1111 138.93 91.1804 138.785C91.7492 137.838 92.6404 137.128 93.6904 136.785C94.3912 136.56 95.1244 136.451 95.8604 136.465C96.0804 136.465 96.2904 136.465 96.5104 136.465H96.7704H96.9304L97.2804 136.395L97.1004 136.085L97.0204 135.955C96.9781 135.902 96.9413 135.845 96.9104 135.785C96.6972 135.327 96.665 134.805 96.8204 134.325C96.8604 134.215 96.9228 134.115 97.0037 134.03C97.0846 133.946 97.1823 133.879 97.2904 133.835C97.374 133.805 97.4617 133.788 97.5504 133.785C98.0004 133.785 98.4004 134.335 98.7304 134.785C98.8304 134.925 98.9204 135.055 99.0104 135.165C99.5768 135.893 100.276 136.507 101.07 136.975C101.714 137.215 102.386 137.37 103.07 137.435L103.69 137.535H104.03C104.28 137.563 104.528 137.61 104.77 137.675C104.77 137.675 106.21 137.795 108.17 137.795C112.8 137.795 118.69 137.195 120.39 134.355C120.93 133.455 119.55 124.525 117.09 122.155C116.16 121.265 115.09 120.275 113.93 119.285C111.591 117.299 110.002 114.57 109.43 111.555C108.988 109.12 109.198 106.612 110.04 104.285C110.32 103.527 110.828 102.874 111.494 102.418C112.161 101.961 112.953 101.722 113.76 101.735C114.687 101.746 115.581 102.078 116.29 102.675C120.1 105.775 125.91 113.105 127.61 115.275C134.18 123.875 135.54 134.275 130.97 140.705C129.53 142.705 126.37 143.765 121.59 143.765L121.56 143.725Z" fill="white"/>
<path d="M113.72 101.975C114.59 101.976 115.434 102.276 116.11 102.825C120 106.005 126.19 113.825 127.39 115.405V115.465C133.84 123.895 135.2 134.205 130.7 140.525C129.3 142.525 126.21 143.525 121.52 143.525C113.89 143.525 104.68 140.825 104.59 140.795H104.41L104.24 140.875C103.776 141.076 103.289 141.217 102.79 141.295H102.72C102.147 141.477 101.551 141.578 100.95 141.595C100.638 141.599 100.328 141.555 100.03 141.465C99.8465 141.413 99.669 141.343 99.4999 141.255L99.2999 141.155L99.0899 141.245C98.5302 141.483 97.9281 141.605 97.3199 141.605C97.0754 141.605 96.8313 141.584 96.5899 141.545C96.5299 141.545 96.5199 141.545 96.5199 141.545C96.5089 141.52 96.5032 141.493 96.5032 141.465C96.5032 141.438 96.5089 141.41 96.5199 141.385L96.6999 140.895L96.1899 140.745C96.0803 140.72 95.98 140.664 95.8999 140.585C95.8656 140.549 95.839 140.507 95.8217 140.461C95.8045 140.414 95.7971 140.365 95.7999 140.315V140.035L95.5499 139.895C95.4157 139.826 95.294 139.735 95.1899 139.625C95.0231 139.471 94.9056 139.271 94.8522 139.05C94.7988 138.83 94.8119 138.598 94.8899 138.385L95.3199 137.225L94.1999 137.765C93.232 138.261 92.3695 138.941 91.6599 139.765C91.6599 139.825 91.5699 139.825 91.5599 139.825C91.52 139.82 91.4821 139.805 91.4504 139.78C91.4186 139.756 91.3943 139.723 91.3799 139.685C91.3234 139.57 91.294 139.443 91.294 139.315C91.294 139.187 91.3234 139.06 91.3799 138.945C91.9315 138.083 92.7659 137.439 93.7399 137.125C94.4151 136.909 95.121 136.804 95.8299 136.815C96.0399 136.815 96.2499 136.815 96.4599 136.815H96.5499H96.6299H96.7699H96.9499L97.6499 136.685L97.2799 136.075C97.2593 136.025 97.2324 135.978 97.1999 135.935C97.1664 135.891 97.1363 135.844 97.1099 135.795C96.9253 135.397 96.8933 134.945 97.0199 134.525C97.0478 134.447 97.0915 134.376 97.1483 134.316C97.2051 134.255 97.2737 134.207 97.3499 134.175H97.5199C97.8499 134.175 98.2199 134.685 98.5199 135.065L98.8199 135.455C99.4167 136.221 100.157 136.863 101 137.345C101.645 137.584 102.316 137.741 103 137.815L103.62 137.915H103.96C104.202 137.943 104.443 137.986 104.68 138.045H104.77C104.83 138.045 106.21 138.165 108.14 138.165C112.84 138.165 118.81 137.545 120.58 134.595C121.29 133.405 119.63 124.405 117.23 122.095C116.05 120.965 114.85 119.905 114.06 119.215C111.767 117.267 110.21 114.592 109.65 111.635C109.208 109.244 109.415 106.779 110.25 104.495C110.511 103.785 110.986 103.174 111.609 102.746C112.233 102.318 112.974 102.094 113.73 102.105L113.72 101.975ZM113.72 101.475C112.853 101.455 112.001 101.706 111.284 102.194C110.567 102.682 110.02 103.381 109.72 104.195C108.856 106.558 108.638 109.11 109.09 111.585C109.672 114.658 111.288 117.439 113.67 119.465C114.67 120.305 115.76 121.305 116.82 122.325C119.2 124.605 120.55 133.445 120.09 134.215C118.38 137.065 112.09 137.535 108.09 137.535C106.15 137.535 104.77 137.425 104.76 137.425C104.38 137.315 103.96 137.285 103.65 137.225C102.799 137.145 101.96 136.967 101.15 136.695C100.374 136.25 99.694 135.655 99.1499 134.945C98.7299 134.445 98.2299 133.485 97.4899 133.485C97.3698 133.485 97.2508 133.509 97.1399 133.555C96.2499 133.915 96.2999 135.125 96.6299 135.835C96.6873 135.948 96.7507 136.059 96.8199 136.165C96.6986 136.176 96.5783 136.196 96.4599 136.225C96.2399 136.225 96.0199 136.225 95.7999 136.225C95.0369 136.212 94.2769 136.323 93.5499 136.555C92.4199 136.935 90.2199 138.345 90.8799 139.795C90.9344 139.921 91.0233 140.029 91.1365 140.107C91.2498 140.185 91.3826 140.229 91.5199 140.235C91.6092 140.233 91.697 140.212 91.7778 140.174C91.8587 140.136 91.9309 140.082 91.9899 140.015C92.6598 139.237 93.4707 138.592 94.3799 138.115C94.2722 138.416 94.2526 138.742 94.3235 139.053C94.3943 139.365 94.5527 139.65 94.7799 139.875C94.9273 140.015 95.0919 140.136 95.2699 140.235C95.2729 140.458 95.3584 140.672 95.5099 140.835C95.654 140.971 95.829 141.071 96.0199 141.125C95.984 141.212 95.9683 141.306 95.974 141.4C95.9797 141.494 96.0067 141.585 96.053 141.667C96.0992 141.749 96.1635 141.819 96.2409 141.873C96.3184 141.926 96.4069 141.961 96.4999 141.975C96.7639 142.023 97.0317 142.046 97.2999 142.045C97.9869 142.049 98.6674 141.913 99.2999 141.645C99.4953 141.744 99.6995 141.824 99.9099 141.885C100.255 141.984 100.611 142.034 100.97 142.035C101.619 142.02 102.263 141.909 102.88 141.705C103.428 141.622 103.962 141.467 104.47 141.245C104.47 141.245 113.74 143.995 121.54 143.995C125.69 143.995 129.43 143.225 131.13 140.835C136.05 133.935 133.96 123.215 127.81 115.175C127.64 114.965 120.7 105.965 116.4 102.455C115.643 101.819 114.689 101.466 113.7 101.455L113.72 101.475Z" fill="black"/>
<path d="M116.86 124.216C115.86 123.286 109.72 117.216 108.77 111.216C108.34 108.486 109.19 101.896 112.59 101.106C118.03 99.8464 125.31 107.756 130.33 113.716C128.03 118.936 122.97 122.576 116.86 124.216Z" fill="#075085"/>
<path d="M109.29 112.977C109.29 112.977 109.03 112.577 109.01 113.077C108.99 113.577 107.01 112.007 106.86 110.957C106.71 109.907 106.29 107.227 106.86 105.957C107.949 104.114 109.165 102.35 110.5 100.677L114.3 100.557L115.62 100.957L118.38 102.567L117.7 106.567C117.7 106.567 113.7 113.967 113.52 113.967C113.34 113.967 109.29 112.977 109.29 112.977Z" fill="#075085"/>
<path d="M128.29 209.346V209.506C128.287 210.297 127.992 211.058 127.463 211.645C126.933 212.232 126.206 212.603 125.42 212.686H125.1H119.75H119.43C118.644 212.601 117.918 212.229 117.389 211.643C116.86 211.057 116.565 210.296 116.56 209.506V209.346C116.564 209.139 116.601 208.933 116.67 208.736C116.67 208.606 116.67 208.476 116.74 208.356C116.91 207.466 119.35 205.426 119.35 205.426C123.52 206.606 126.07 205.316 126.07 205.316C127.095 206.171 127.82 207.331 128.14 208.626C128.234 208.855 128.285 209.099 128.29 209.346Z" fill="black"/>
<path d="M98.4004 151.045L117.01 152.175L99.2004 157.165L98.4004 151.045Z" fill="#AAB6C2"/>
<path d="M99.4404 157.356L116.77 152.496L116.84 153.756L99.4404 159.076V157.356Z" fill="white"/>
<path d="M116.54 152.826V153.576L99.6504 158.736V157.546L116.5 152.826H116.54ZM117 152.176L99.1904 157.176V159.426L117.11 153.946L117.01 152.186L117 152.176Z" fill="black"/>
<path d="M60.6797 154.836L99.1997 157.166L99.1897 159.416L60.6897 156.846L60.6797 154.836Z" fill="#AAB6C2"/>
<path d="M60.8903 154.605L58.0303 134.465C58.0093 134.286 58.026 134.105 58.0795 133.933C58.133 133.76 58.2219 133.601 58.3407 133.466C58.4594 133.33 58.6052 133.221 58.7688 133.145C58.9323 133.069 59.11 133.028 59.2903 133.025L94.7903 135.175C95.0852 135.19 95.3655 135.308 95.5815 135.51C95.7974 135.711 95.9352 135.982 95.9703 136.275L98.9003 156.905L60.8903 154.605Z" fill="white"/>
<path d="M59.2897 133.275H59.3597L94.7697 135.415C95.017 135.414 95.256 135.504 95.4406 135.668C95.6253 135.833 95.7425 136.06 95.7697 136.305L98.6097 156.675L61.1097 154.405L58.2897 134.435C58.2664 134.291 58.2748 134.144 58.3145 134.003C58.3542 133.863 58.4241 133.733 58.5194 133.622C58.6147 133.512 58.7331 133.423 58.8661 133.364C58.9992 133.304 59.1438 133.274 59.2897 133.275ZM59.2897 132.775C59.0725 132.776 58.858 132.824 58.6604 132.914C58.4628 133.004 58.2868 133.136 58.1439 133.299C58.0011 133.463 57.8947 133.655 57.8319 133.863C57.7691 134.071 57.7513 134.29 57.7797 134.505L60.6797 154.835L99.1897 157.165L96.1897 136.245C96.1437 135.894 95.9767 135.571 95.7175 135.33C95.4583 135.089 95.1231 134.946 94.7697 134.925L59.3897 132.785L59.2897 132.775Z" fill="black"/>
<path d="M128.29 209.506C128.284 210.296 127.989 211.056 127.46 211.642C126.931 212.229 126.205 212.6 125.42 212.686H125.09H119.75H119.42C118.635 212.6 117.91 212.228 117.383 211.642C116.855 211.055 116.562 210.295 116.56 209.506H128.29Z" fill="black"/>
<path d="M187.46 159.766L176.03 154.766V152.016L187.46 147.076V150.306L179.46 153.356L187.46 156.516V159.766Z" fill="black"/>
<path d="M188.51 161.946L192.64 144.676H195.04L190.87 161.906L188.51 161.946Z" fill="black"/>
<path d="M196.09 159.775V156.555L204.09 153.415L196.09 150.315V147.125L207.53 152.065V154.795L196.09 159.775Z" fill="black"/>
<path d="M178.94 42.0264C178.494 42.0297 178.053 42.1179 177.64 42.2864C177.328 42.448 177.068 42.694 176.89 42.9964C176.666 43.3852 176.517 43.8126 176.45 44.2564C176.373 44.9202 176.343 45.5884 176.36 46.2564C176.395 47.3274 176.324 48.3991 176.15 49.4564C176.042 50.0029 175.778 50.5064 175.39 50.9064C174.928 51.3223 174.372 51.6208 173.77 51.7764C173.029 51.9433 172.269 52.0139 171.51 51.9864H170.88V49.1064C171.435 49.1415 171.992 49.0875 172.53 48.9464C172.766 48.862 172.967 48.6998 173.1 48.4864C173.245 48.1739 173.31 47.8303 173.29 47.4864C173.29 47.0164 173.29 46.0964 173.39 44.7464C173.396 44.0675 173.504 43.3934 173.71 42.7464C173.86 42.2904 174.094 41.8665 174.4 41.4964C174.71 41.1331 175.082 40.8283 175.5 40.5964C175.015 40.3037 174.585 39.928 174.23 39.4864C173.825 38.8875 173.565 38.2029 173.47 37.4864C173.39 36.9364 173.32 35.7264 173.28 33.8664C173.308 33.4663 173.253 33.0647 173.12 32.6864C173.009 32.4704 172.819 32.3056 172.59 32.2264C172.03 32.0929 171.454 32.0423 170.88 32.0764V29.2964H171.5C172.321 29.268 173.142 29.3521 173.94 29.5464C174.484 29.6895 174.978 29.9799 175.368 30.3857C175.758 30.7914 176.029 31.2969 176.15 31.8464C176.318 32.7462 176.388 33.6615 176.36 34.5764C176.326 35.5164 176.383 36.4574 176.53 37.3864C176.643 37.9088 176.92 38.3816 177.32 38.7364C177.802 39.0479 178.366 39.2113 178.94 39.2064V42.0264Z" fill="black"/>
<path d="M146 39.2064C146.571 39.2117 147.132 39.0482 147.61 38.7364C148.013 38.3843 148.291 37.9104 148.4 37.3864C148.558 36.4586 148.618 35.5168 148.58 34.5764C148.55 33.6619 148.617 32.7467 148.78 31.8464C148.902 31.2969 149.172 30.7914 149.562 30.3857C149.952 29.9799 150.446 29.6895 150.99 29.5464C151.788 29.3521 152.609 29.268 153.43 29.2964H154.05V32.1164C153.476 32.0823 152.9 32.1329 152.34 32.2664C152.114 32.3507 151.926 32.5141 151.81 32.7264C151.682 33.1059 151.628 33.5065 151.65 33.9064C151.651 35.1156 151.587 36.3239 151.46 37.5264C151.368 38.2421 151.112 38.9268 150.71 39.5264C150.353 39.9656 149.923 40.341 149.44 40.6364C149.854 40.8736 150.226 41.1777 150.54 41.5364C150.839 41.9114 151.072 42.334 151.23 42.7864C151.427 43.4352 151.531 44.1085 151.54 44.7864C151.61 46.1364 151.64 47.0564 151.64 47.5264C151.625 47.87 151.69 48.2124 151.83 48.5264C151.963 48.7398 152.164 48.902 152.4 48.9864C152.938 49.1275 153.495 49.1815 154.05 49.1464V51.9764H153.43C152.671 52.0045 151.911 51.9339 151.17 51.7664C150.564 51.613 150.005 51.3144 149.54 50.8964C149.152 50.4964 148.889 49.9929 148.78 49.4464C148.611 48.3887 148.544 47.317 148.58 46.2464C148.589 45.5783 148.556 44.9103 148.48 44.2464C148.418 43.8015 148.269 43.3732 148.04 42.9864C147.862 42.684 147.602 42.438 147.29 42.2764C146.877 42.1079 146.436 42.0197 145.99 42.0164L146 39.2064Z" fill="black"/>
<path d="M164.02 50.3862C164.02 50.6952 163.929 50.9972 163.757 51.2539C163.585 51.5107 163.341 51.7106 163.055 51.8284C162.769 51.9462 162.455 51.9765 162.152 51.9155C161.849 51.8544 161.572 51.7049 161.354 51.4857C161.136 51.2665 160.988 50.9876 160.929 50.6844C160.87 50.3811 160.902 50.0671 161.022 49.7823C161.142 49.4974 161.343 49.2544 161.601 49.0842C161.859 48.914 162.161 48.8242 162.47 48.8262C162.882 48.8288 163.277 48.9944 163.567 49.2866C163.857 49.5789 164.02 49.9742 164.02 50.3862Z" fill="black"/>
<path d="M169 50.3862C168.998 50.6923 168.906 50.991 168.734 51.2446C168.563 51.4981 168.32 51.6953 168.037 51.811C167.753 51.9268 167.442 51.9561 167.142 51.8952C166.842 51.8342 166.567 51.6858 166.351 51.4687C166.135 51.2515 165.988 50.9753 165.929 50.6749C165.87 50.3745 165.902 50.0634 166.019 49.7807C166.137 49.4981 166.336 49.2566 166.59 49.0867C166.845 48.9168 167.144 48.8262 167.45 48.8262C167.655 48.8262 167.857 48.8666 168.046 48.9451C168.235 49.0236 168.406 49.1387 168.55 49.2837C168.694 49.4287 168.808 49.6007 168.885 49.7899C168.963 49.9792 169.002 50.1818 169 50.3862Z" fill="black"/>
<path d="M159.04 50.3862C159.04 50.6947 158.948 50.9963 158.777 51.2529C158.606 51.5094 158.362 51.7094 158.077 51.8274C157.792 51.9455 157.478 51.9764 157.176 51.9162C156.873 51.856 156.595 51.7074 156.377 51.4893C156.159 51.2711 156.01 50.9931 155.95 50.6905C155.89 50.3879 155.921 50.0742 156.039 49.7892C156.157 49.5041 156.357 49.2605 156.613 49.0891C156.87 48.9177 157.171 48.8262 157.48 48.8262C157.894 48.8262 158.29 48.9905 158.583 49.2831C158.876 49.5756 159.04 49.9724 159.04 50.3862Z" fill="black"/>
</svg>
