<svg width="116" height="116" viewBox="0 0 116 116" fill="none" xmlns="http://www.w3.org/2000/svg">
<rect x="45.3125" y="47.125" width="25.375" height="12.6875" fill="#F0F8FF"/>
<circle cx="58" cy="83.375" r="32.625" fill="#BAE1FD"/>
<circle cx="58" cy="83.375" r="27.1875" fill="#F0F8FF"/>
<rect x="21.75" y="39.875" width="72.5" height="7.25" rx="1" fill="#BAE1FD"/>
<path d="M32.625 0H83.375C85.377 0 87 1.62297 87 3.625V39.875H29V3.625C29 1.62297 30.623 0 32.625 0Z" fill="#D3D8EA"/>
<rect x="43.5" width="29" height="39.875" fill="#414267"/>
<path d="M47.125 92.4371C46.6432 92.4399 46.1802 92.2508 45.8381 91.9115L38.5881 84.6615C38.245 84.3212 38.052 83.8579 38.052 83.3746C38.052 82.8913 38.245 82.4281 38.5881 82.0877L45.8381 74.8377C46.5489 74.127 47.7012 74.127 48.4119 74.8377C49.1226 75.5484 49.1226 76.7008 48.4119 77.4115L42.4306 83.3746L48.4119 89.3377C48.9347 89.8563 49.0919 90.6396 48.8095 91.3197C48.5271 91.9997 47.8614 92.4414 47.125 92.4371Z" fill="#D3D8EA"/>
<path d="M68.8751 92.4371C68.1387 92.4414 67.473 91.9997 67.1906 91.3197C66.9082 90.6396 67.0654 89.8563 67.5882 89.3377L73.5695 83.3746L67.5882 77.4115C66.8775 76.7008 66.8775 75.5484 67.5882 74.8377C68.2989 74.127 69.4513 74.127 70.162 74.8377L77.412 82.0877C77.7551 82.4281 77.9481 82.8913 77.9481 83.3746C77.9481 83.8579 77.7551 84.3212 77.412 84.6615L70.162 91.9115C69.8199 92.2508 69.3569 92.4399 68.8751 92.4371Z" fill="#D3D8EA"/>
<path d="M54.3751 97.8749C53.7961 97.8965 53.2418 97.6401 52.8834 97.1849C52.525 96.7297 52.4057 96.1307 52.5626 95.573L59.8126 70.198C60.1365 69.3061 61.0935 68.8151 62.0069 69.072C62.9203 69.3289 63.481 70.2468 63.2926 71.1767L56.0426 96.5517C55.8315 97.3071 55.1586 97.841 54.3751 97.8749Z" fill="#D3D8EA"/>
</svg>
