<svg width="20" height="20" viewBox="0 0 20 20" fill="none" xmlns="http://www.w3.org/2000/svg">
<path fill-rule="evenodd" clip-rule="evenodd" d="M0.931541 0.931541C1.28427 0.578809 1.85616 0.578809 2.2089 0.931541L10.0003 8.72297L17.7918 0.931541C18.1445 0.578809 18.7164 0.578809 19.0691 0.931541C19.4218 1.28427 19.4218 1.85616 19.0691 2.2089L11.2777 10.0003L19.0691 17.7918C19.4218 18.1445 19.4218 18.7164 19.0691 19.0691C18.7164 19.4218 18.1445 19.4218 17.7918 19.0691L10.0003 11.2777L2.2089 19.0691C1.85616 19.4218 1.28427 19.4218 0.931541 19.0691C0.578809 18.7164 0.578809 18.1445 0.931541 17.7918L8.72297 10.0003L0.931541 2.2089C0.578809 1.85616 0.578809 1.28427 0.931541 0.931541Z" fill="#030D45"/>
</svg>
