<svg width="266" height="232" viewBox="0 0 266 232" fill="none" xmlns="http://www.w3.org/2000/svg">
<path d="M222.8 216.339H33V217.779H222.8V216.339Z" fill="black"/>
<path d="M151.57 78.2788H133.75V68.5088H151.57V78.2788ZM134.77 77.2788H150.55V69.5288H134.77V77.2788Z" fill="#AAB6C2"/>
<path d="M120.28 186.099H102.42V176.329H120.28V186.099ZM103.47 185.099H119.22V177.379H103.44L103.47 185.099Z" fill="#AAB6C2"/>
<path d="M137.07 186.099H119.28V176.329H137.11L137.07 186.099ZM120.28 185.079H136.07V177.359H120.28V185.079Z" fill="#AAB6C2"/>
<path d="M128.65 194.849H110.82V185.079H128.65V194.849ZM111.84 193.849H127.62V186.129H111.84V193.849Z" fill="#AAB6C2"/>
<path d="M91.55 125.559H73.72V115.789H91.55V125.559ZM74.75 124.559H90.53V116.839H74.75V124.559Z" fill="#AAB6C2"/>
<path d="M193.09 14.4187L225.98 14.2887C226.694 14.2285 227.412 14.3105 228.094 14.5298C228.776 14.7492 229.408 15.1015 229.953 15.5664C230.498 16.0314 230.945 16.5997 231.269 17.2386C231.593 17.8775 231.787 18.5743 231.84 19.2887L229.84 36.8687C229.844 37.3514 229.753 37.8303 229.571 38.2777C229.39 38.7251 229.122 39.1324 228.783 39.4761C228.444 39.8198 228.04 40.0932 227.595 40.2807C227.15 40.4682 226.673 40.566 226.19 40.5687L206.14 40.7187C206.04 43.0287 203.83 45.5087 201.31 48.2487L201.73 48.4687L199.5 52.9787L197.28 51.2987C197.28 51.2987 199.87 45.1187 198.14 40.7887L194.01 40.7087L193.37 41.7087L191.37 40.2087C191.168 40.0789 190.977 39.9317 190.8 39.7687H190.73C190.378 39.4278 190.098 39.0209 189.904 38.5713C189.71 38.1217 189.607 37.6382 189.6 37.1486L189.46 18.1487C189.452 17.665 189.54 17.1846 189.718 16.735C189.897 16.2854 190.162 15.8755 190.499 15.5289C190.837 15.1822 191.239 14.9057 191.684 14.7152C192.128 14.5246 192.606 14.4239 193.09 14.4187Z" fill="black"/>
<path d="M199.88 52.6487C200.43 51.1987 202.1 46.1287 200.58 42.3387L200.52 42.1887L195.52 42.1087C194.612 42.1114 193.739 41.756 193.092 41.1195C192.444 40.483 192.073 39.6167 192.06 38.7087L191.92 19.7587C191.915 18.8576 192.264 17.9905 192.893 17.3449C193.521 16.6993 194.379 16.3271 195.28 16.3087L228.18 16.1787C229.086 16.1786 229.956 16.5352 230.602 17.1714C231.248 17.8077 231.617 18.6724 231.63 19.5787L231.77 38.5287C231.775 39.4299 231.426 40.2969 230.797 40.9425C230.169 41.5881 229.311 41.9603 228.41 41.9787L208.12 42.1187V42.3587C207.97 45.6487 204.75 51.8887 199.88 52.6487Z" fill="white"/>
<path d="M228.28 15.9787V16.4787C229.116 16.4839 229.916 16.8168 230.509 17.4059C231.102 17.9949 231.44 18.7931 231.45 19.6287L231.59 38.5787C231.595 39.4204 231.267 40.2298 230.676 40.8297C230.086 41.4295 229.282 41.7708 228.44 41.7787L208.44 41.9187H207.96V42.3887C207.85 45.0487 205.14 51.3087 200.37 52.3887C201.02 50.5287 202.37 45.8787 200.92 42.3187L200.79 42.0087H200.46L195.58 41.9387C195.149 41.9536 194.719 41.8808 194.316 41.7247C193.914 41.5685 193.547 41.3323 193.238 41.0303C192.93 40.7284 192.686 40.3669 192.521 39.9678C192.356 39.5687 192.274 39.1404 192.28 38.7087L192.14 19.7587C192.135 18.9187 192.462 18.1108 193.05 17.5112C193.638 16.9117 194.44 16.5693 195.28 16.5587L228.18 16.4287V15.9287L228.28 15.9787ZM228.28 15.9787L195.38 16.1087C194.898 16.1126 194.422 16.2115 193.978 16.3995C193.534 16.5876 193.132 16.8612 192.794 17.2048C192.456 17.5484 192.189 17.9552 192.008 18.402C191.827 18.8487 191.736 19.3268 191.74 19.8087L191.88 38.7587C191.888 39.7278 192.278 40.6546 192.965 41.338C193.652 42.0214 194.581 42.4061 195.55 42.4087L200.39 42.4787C202.13 46.8087 199.54 52.9987 199.54 52.9987C204.94 52.5087 208.26 45.6687 208.4 42.4187L228.4 42.2787C228.882 42.2748 229.358 42.176 229.802 41.9879C230.246 41.7998 230.648 41.5262 230.986 41.1826C231.324 40.839 231.591 40.4322 231.772 39.9855C231.953 39.5387 232.044 39.0607 232.04 38.5787L231.9 19.6287C231.892 18.6682 231.509 17.7488 230.833 17.0668C230.157 16.3848 229.24 15.9943 228.28 15.9787Z" fill="black"/>
<path d="M207.94 35.3286L197.05 30.5886V27.9786L207.94 23.2686V26.3586L200.34 29.2586L207.94 32.2586V35.3286Z" fill="black"/>
<path d="M208.95 37.4085L212.88 20.9785H215.17L211.17 37.4085H208.95Z" fill="black"/>
<path d="M216.18 35.3386V32.2686L223.79 29.2686L216.18 26.2686V23.2686L227.08 27.9786V30.5786L216.18 35.3386Z" fill="black"/>
<path d="M87.06 200.688C85.0814 200.683 83.1854 199.894 81.7873 198.494C80.3891 197.094 79.6026 195.197 79.6 193.218V48.8782C79.6026 46.8978 80.3905 44.9994 81.7908 43.599C83.1911 42.1987 85.0896 41.4108 87.07 41.4082H160.17C162.152 41.4109 164.052 42.2001 165.453 43.6026C166.853 45.0051 167.64 46.9061 167.64 48.8882V193.228C167.637 195.207 166.851 197.104 165.453 198.504C164.055 199.904 162.159 200.693 160.18 200.698L87.06 200.688Z" fill="white"/>
<path d="M160.15 41.6387C162.066 41.6413 163.902 42.4042 165.256 43.7598C166.61 45.1154 167.37 46.9529 167.37 48.8687V193.209C167.367 195.121 166.607 196.954 165.256 198.308C163.905 199.661 162.072 200.423 160.16 200.429H87.06C85.1477 200.423 83.3153 199.661 81.9641 198.308C80.6128 196.954 79.8526 195.121 79.85 193.209V48.8687C79.85 46.9538 80.6107 45.1174 81.9647 43.7634C83.3187 42.4094 85.1551 41.6487 87.07 41.6487H160.17L160.15 41.6387ZM160.15 41.1387H87.05C86.0358 41.1374 85.0314 41.3361 84.0941 41.7236C83.1569 42.1111 82.3053 42.6797 81.5882 43.3969C80.8711 44.114 80.3025 44.9656 79.915 45.9028C79.5275 46.84 79.3287 47.8445 79.33 48.8587V193.199C79.3234 194.218 79.5185 195.229 79.904 196.172C80.2895 197.116 80.8579 197.974 81.5763 198.697C82.2948 199.42 83.1491 199.994 84.0903 200.386C85.0314 200.777 86.0407 200.979 87.06 200.979H160.18C161.193 200.979 162.197 200.779 163.133 200.391C164.069 200.003 164.919 199.434 165.635 198.717C166.351 198 166.919 197.149 167.306 196.212C167.693 195.276 167.891 194.272 167.89 193.259V48.9187C167.89 46.8703 167.077 44.9056 165.629 43.4563C164.182 42.0069 162.218 41.1913 160.17 41.1887L160.15 41.1387Z" fill="black"/>
<g opacity="0.3">
<path d="M167.89 193.208C167.898 194.226 167.704 195.235 167.32 196.177C166.936 197.12 166.37 197.977 165.653 198.699C164.936 199.421 164.084 199.994 163.144 200.386C162.205 200.777 161.198 200.978 160.18 200.978H87.08C85.0316 200.978 83.0669 200.165 81.6176 198.718C80.1682 197.27 79.3526 195.307 79.35 193.258V48.9182C79.3487 47.9041 79.5475 46.8996 79.935 45.9624C80.3225 45.0251 80.8911 44.1736 81.6082 43.4564C82.3253 42.7393 83.1769 42.1707 84.1141 41.7832C85.0513 41.3957 86.0558 41.1969 87.07 41.1982H160.17C162.218 41.2009 164.182 42.0165 165.629 43.4658C167.077 44.9152 167.89 46.8799 167.89 48.9282V193.208Z" fill="#AAB6C2"/>
</g>
<path d="M79.19 33.709L133.28 33.979V40.979H105.86L86.32 41.089C84.7496 41.0916 83.1951 41.4045 81.746 42.0097C80.2969 42.6149 78.9816 43.5005 77.8758 44.6156C76.77 45.7307 75.8955 47.0533 75.3024 48.5075C74.7093 49.9616 74.4095 51.5186 74.42 53.089L74.67 189.089C74.6739 190.659 74.9881 192.214 75.5945 193.662C76.201 195.111 77.0877 196.425 78.2037 197.53C79.3197 198.635 80.6431 199.509 82.0977 200.1C83.5524 200.692 85.1096 200.991 86.68 200.979L133.68 201.079V215.839L79.54 216.349C77.9746 216.352 76.4241 216.046 74.9769 215.449C73.5297 214.853 72.2142 213.977 71.1054 212.872C69.9967 211.767 69.1165 210.454 68.515 209.009C67.9135 207.564 67.6026 206.014 67.6 204.449L67.28 45.649C67.2761 44.0824 67.5812 42.5305 68.178 41.082C68.7747 39.6336 69.6514 38.3171 70.7577 37.2079C71.8641 36.0988 73.1784 35.2189 74.6253 34.6184C76.0723 34.018 77.6234 33.709 79.19 33.709Z" fill="black"/>
<path d="M72.15 45.5583V204.368C72.1461 207.395 73.2944 210.309 75.3617 212.519C77.4289 214.73 80.2601 216.07 83.28 216.268C83.55 216.268 83.83 216.268 84.1 216.268H167.34C169.387 216.268 171.351 215.455 172.799 214.007C174.247 212.559 175.06 210.596 175.06 208.548V41.3283C175.057 40.3107 174.854 39.3035 174.461 38.3647C174.068 37.4259 173.494 36.5739 172.771 35.8576C172.048 35.1412 171.191 34.5747 170.249 34.1904C169.307 33.8062 168.298 33.6117 167.28 33.6183H84.07C83.79 33.6183 83.52 33.6183 83.25 33.6183C80.2303 33.8289 77.4035 35.1796 75.3424 37.3966C73.2814 39.6136 72.1402 42.5313 72.15 45.5583ZM79.33 48.8783C79.3274 47.8633 79.5252 46.8578 79.9121 45.9194C80.299 44.981 80.8674 44.1282 81.5847 43.4101C82.3019 42.6919 83.154 42.1224 84.0918 41.7342C85.0297 41.3461 86.035 41.147 87.05 41.1483H160.15C162.197 41.1483 164.161 41.9617 165.609 43.4095C167.057 44.8572 167.87 46.8209 167.87 48.8683V193.218C167.87 195.266 167.057 197.229 165.609 198.677C164.161 200.125 162.197 200.938 160.15 200.938H87.08C85.0316 200.938 83.067 200.125 81.6176 198.678C80.1683 197.23 79.3527 195.267 79.35 193.218L79.33 48.8783Z" fill="#AAB6C2"/>
<path d="M113.86 212.199H133.7C134.656 212.196 135.571 211.815 136.246 211.138C136.921 210.461 137.3 209.545 137.3 208.589C137.299 208.116 137.204 207.648 137.022 207.212C136.84 206.776 136.574 206.38 136.239 206.046C135.903 205.713 135.506 205.449 135.068 205.269C134.631 205.09 134.163 204.998 133.69 204.999H113.84C112.89 205.007 111.981 205.391 111.314 206.068C110.646 206.745 110.275 207.659 110.28 208.609C110.28 209.559 110.657 210.471 111.328 211.144C111.999 211.817 112.91 212.196 113.86 212.199Z" fill="black"/>
<g opacity="0.5">
<path d="M114.31 92.7483L114.25 90.9883H87L87.06 92.7483H114.31Z" fill="#AAB6C2"/>
<path d="M103.13 87.6389L103.06 85.8789H87L87.06 87.6389H103.13Z" fill="#AAB6C2"/>
<path d="M121.03 82.3381L120.96 80.5781H87L87.06 82.3381H121.03Z" fill="black"/>
<path d="M121.18 82.4385H86.92L86.84 80.4385H121.11L121.18 82.4385ZM87.18 82.2385H120.87L120.81 80.6685H87.15L87.18 82.2385Z" fill="black"/>
<path d="M114.31 108.609L114.25 106.849H87L87.06 108.609H114.31Z" fill="#AAB6C2"/>
<path d="M103.13 103.498L103.06 101.738H87L87.06 103.498H103.13Z" fill="#AAB6C2"/>
<path d="M121.03 98.1985L120.96 96.4385H87L87.06 98.1985H121.03Z" fill="#AAB6C2"/>
<path d="M114.31 77.0383L114.25 75.2783H87L87.06 77.0383H114.31Z" fill="#AAB6C2"/>
<path d="M110.67 87.6389L110.6 85.8789H105.72L105.79 87.6389H110.67Z" fill="#AAB6C2"/>
<path d="M114.31 124.649L114.25 122.889H87L87.06 124.649H114.31Z" fill="#AAB6C2"/>
<path d="M103.13 119.538L103.06 117.778H87L87.06 119.538H103.13Z" fill="#AAB6C2"/>
<path d="M121.03 114.239L120.96 112.479H87L87.06 114.239H121.03Z" fill="#AAB6C2"/>
<path d="M103.13 135.399L103.06 133.639H87L87.06 135.399H103.13Z" fill="#AAB6C2"/>
<path d="M121.03 130.099L120.96 128.339H87L87.06 130.099H121.03Z" fill="#AAB6C2"/>
<path d="M110.67 119.538L110.6 117.778H105.72L105.79 119.538H110.67Z" fill="#AAB6C2"/>
<path d="M155.29 124.649L155.22 122.889H127.97L128.04 124.649H155.29Z" fill="black"/>
<path d="M155.44 124.748H127.89L127.81 122.748H155.37L155.44 124.748ZM128.19 124.558H155.13L155.07 122.988H128.13L128.19 124.558Z" fill="black"/>
<path d="M144.1 119.538L144.03 117.778H127.97L128.04 119.538H144.1Z" fill="#AAB6C2"/>
<path d="M162 114.239L161.93 112.479H127.97L128.04 114.239H162Z" fill="#AAB6C2"/>
<path d="M144.1 135.399L144.03 133.639H127.97L128.04 135.399H144.1Z" fill="#AAB6C2"/>
<path d="M162 130.099L161.93 128.339H127.97L128.04 130.099H162Z" fill="#AAB6C2"/>
<path d="M151.64 119.538L151.57 117.778H146.7L146.76 119.538H151.64Z" fill="#AAB6C2"/>
<path d="M114.31 146.628L114.25 144.868H87L87.06 146.628H114.31Z" fill="#AAB6C2"/>
<path d="M103.13 141.519L103.06 139.759H87L87.06 141.519H103.13Z" fill="#AAB6C2"/>
<path d="M114.31 162.668L114.25 160.908H87L87.06 162.668H114.31Z" fill="#AAB6C2"/>
<path d="M103.13 157.569L103.06 155.799H87L87.06 157.569H103.13Z" fill="#AAB6C2"/>
<path d="M121.03 152.258L120.96 150.498H87L87.06 152.258H121.03Z" fill="#AAB6C2"/>
<path d="M103.13 173.418L103.06 171.658H87L87.06 173.418H103.13Z" fill="#AAB6C2"/>
<path d="M121.03 168.118L120.96 166.358H87L87.06 168.118H121.03Z" fill="#AAB6C2"/>
<path d="M110.67 157.569L110.6 155.799H105.72L105.79 157.569H110.67Z" fill="#AAB6C2"/>
<path d="M114.31 184.498L114.25 182.738H87L87.06 184.498H114.31Z" fill="#AAB6C2"/>
<path d="M103.13 179.389L103.06 177.629H87L87.06 179.389H103.13Z" fill="#AAB6C2"/>
<path d="M121.03 189.948L120.96 188.188H87L87.06 189.948H121.03Z" fill="#AAB6C2"/>
<path d="M110.67 179.389L110.6 177.629H105.72L105.79 179.389H110.67Z" fill="#AAB6C2"/>
<path d="M155.29 151.998L155.22 150.238H127.97L128.04 151.998H155.29Z" fill="black"/>
<path d="M155.44 152.099H127.89L127.81 150.099H155.37L155.44 152.099ZM128.19 151.909H155.13L155.07 150.339H128.13L128.19 151.909Z" fill="black"/>
<path d="M144.1 146.889L144.03 145.129H127.97L128.04 146.889H144.1Z" fill="#AAB6C2"/>
<path d="M162 141.588L161.93 139.828H127.97L128.04 141.588H162Z" fill="#AAB6C2"/>
<path d="M144.1 162.748L144.03 160.988H127.97L128.04 162.748H144.1Z" fill="#AAB6C2"/>
<path d="M162 157.448L161.93 155.688H127.97L128.04 157.448H162Z" fill="#AAB6C2"/>
<path d="M151.64 146.889L151.57 145.129H146.7L146.76 146.889H151.64Z" fill="#AAB6C2"/>
<path d="M155.29 179.599L155.22 177.839H127.97L128.04 179.599H155.29Z" fill="black"/>
<path d="M155.44 179.698H127.89L127.81 177.698H155.37L155.44 179.698ZM128.19 179.508H155.13L155.07 177.938H128.13L128.19 179.508Z" fill="black"/>
<path d="M144.1 174.489L144.03 172.729H127.97L128.04 174.489H144.1Z" fill="#AAB6C2"/>
<path d="M162 169.189L161.93 167.429H127.97L128.04 169.189H162Z" fill="#AAB6C2"/>
<path d="M144.1 190.349L144.03 188.589H127.97L128.04 190.349H144.1Z" fill="#AAB6C2"/>
<path d="M162 185.048L161.93 183.288H127.97L128.04 185.048H162Z" fill="#AAB6C2"/>
<path d="M151.64 174.489L151.57 172.729H146.7L146.76 174.489H151.64Z" fill="#AAB6C2"/>
<path d="M103.13 71.928L103.06 70.168H87L87.06 71.928H103.13Z" fill="#AAB6C2"/>
<path d="M121.03 66.6282L120.96 64.8682H87L87.06 66.6282H121.03Z" fill="#AAB6C2"/>
<path d="M114.31 61.3286L114.25 59.5586H87L87.06 61.3286H114.31Z" fill="#AAB6C2"/>
<path d="M110.44 71.928L110.37 70.168H105.5L105.56 71.928H110.44Z" fill="#AAB6C2"/>
<path d="M103.13 56.218L103.06 54.458H87L87.06 56.218H103.13Z" fill="#AAB6C2"/>
<path d="M121.03 50.9184L120.96 49.1484H87L87.06 50.9184H121.03Z" fill="#AAB6C2"/>
<path d="M110.21 56.218L110.14 54.458H105.27L105.33 56.218H110.21Z" fill="#AAB6C2"/>
<path d="M144.1 87.6389L144.03 85.8789H127.97L128.04 87.6389H144.1Z" fill="#AAB6C2"/>
<path d="M162 82.3381L161.93 80.5781H127.97L128.04 82.3381H162Z" fill="#AAB6C2"/>
<path d="M155.29 77.0383L155.22 75.2783H127.97L128.04 77.0383H155.29Z" fill="#AAB6C2"/>
<path d="M151.64 87.6389L151.57 85.8789H146.7L146.76 87.6389H151.64Z" fill="#AAB6C2"/>
<path d="M144.1 71.928L144.03 70.168H127.97L128.04 71.928H144.1Z" fill="#AAB6C2"/>
<path d="M162 66.6282L161.93 64.8682H127.97L128.04 66.6282H162Z" fill="#AAB6C2"/>
<path d="M155.29 61.3286L155.22 59.5586H127.97L128.04 61.3286H155.29Z" fill="#AAB6C2"/>
<path d="M151.41 71.928L151.34 70.168H146.47L146.53 71.928H151.41Z" fill="#AAB6C2"/>
<path d="M144.1 108.279L144.03 106.519H127.97L128.04 108.279H144.1Z" fill="#AAB6C2"/>
<path d="M162 102.979L161.93 101.219H127.97L128.04 102.979H162Z" fill="#AAB6C2"/>
<path d="M155.29 97.678L155.22 95.918H127.97L128.04 97.678H155.29Z" fill="#AAB6C2"/>
<path d="M151.64 108.279L151.57 106.519H146.7L146.76 108.279H151.64Z" fill="#AAB6C2"/>
<path d="M144.1 92.5686L144.03 90.8086H127.97L128.04 92.5686H144.1Z" fill="#AAB6C2"/>
<path d="M151.41 92.5686L151.34 90.8086H146.47L146.53 92.5686H151.41Z" fill="#AAB6C2"/>
<path d="M144.1 56.218L144.03 54.458H127.97L128.04 56.218H144.1Z" fill="black"/>
<path d="M144.28 56.3084H127.89L127.81 54.3584H144.18L144.28 56.3084ZM128.22 56.1184H143.97L143.91 54.5484H128.13L128.22 56.1184Z" fill="black"/>
<path d="M162 50.9184L161.93 49.1484H127.97L128.04 50.9184H162Z" fill="#AAB6C2"/>
<path d="M151.18 56.218L151.11 54.458H146.24L146.31 56.218H151.18Z" fill="black"/>
<path d="M151.34 56.3084H146.16L146.08 54.3584H151.28L151.34 56.3084ZM146.45 56.1184H151.02V54.5484H146.44L146.45 56.1184Z" fill="black"/>
</g>
<path d="M182.62 99.7389C182.62 99.7389 190.17 116.099 193.38 115.469C194.97 115.159 193.85 111.029 194.6 110.719C195.35 110.409 190.79 103.089 190.79 103.089L186.08 98.6689L182.62 99.7389Z" fill="black"/>
<path d="M183.34 112.218C182.666 112.217 181.994 112.133 181.34 111.968L180.62 111.788C172.96 109.638 159.62 101.648 159.48 101.558L159.34 101.478L159.2 101.578C158.223 102.208 157.07 102.509 155.91 102.438C154.849 102.414 153.792 102.3 152.75 102.098L152.28 101.978C152.218 101.975 152.16 101.952 152.113 101.913C152.066 101.873 152.033 101.819 152.02 101.758C152.004 101.668 152.012 101.575 152.044 101.489C152.076 101.403 152.129 101.327 152.2 101.268L152.6 100.978L152.13 100.828C151.784 100.725 151.449 100.588 151.13 100.418C151.057 100.387 150.997 100.331 150.962 100.259C150.927 100.187 150.919 100.105 150.94 100.028C150.962 99.9333 151.014 99.8474 151.087 99.7829C151.161 99.7184 151.253 99.6784 151.35 99.6685H152.35L151.5 99.1985L150.95 98.8985C150.874 98.8565 150.815 98.7901 150.783 98.7101C150.75 98.6301 150.745 98.5414 150.77 98.4585C150.788 98.3702 150.834 98.2898 150.9 98.2288C150.967 98.1678 151.05 98.1292 151.14 98.1185C151.208 98.1212 151.273 98.1419 151.33 98.1785L151.89 98.4885L152.15 98.0685C152.101 98.0217 152.068 97.9615 152.054 97.8956C152.039 97.8298 152.045 97.7611 152.07 97.6985C152.103 97.6118 152.16 97.5364 152.234 97.4814C152.309 97.4264 152.398 97.3941 152.49 97.3885C152.584 97.3929 152.673 97.4321 152.74 97.4985C153.59 98.2885 156 98.6585 157.35 98.6585H157.74L157.81 98.5785C157.946 98.4517 158.051 98.296 158.119 98.1229C158.186 97.9498 158.214 97.7637 158.2 97.5785V97.4485L158.09 97.3885C157.843 97.2374 157.56 97.1546 157.27 97.1485H157.12C157.064 97.1524 157.007 97.1452 156.953 97.1272C156.899 97.1093 156.85 97.0809 156.807 97.0437C156.764 97.0066 156.729 96.9614 156.704 96.9108C156.679 96.8601 156.664 96.8049 156.66 96.7485C156.656 96.692 156.663 96.6353 156.681 96.5816C156.699 96.528 156.728 96.4784 156.765 96.4356C156.802 96.3929 156.847 96.3579 156.898 96.3327C156.948 96.3074 157.004 96.2924 157.06 96.2885H157.28C157.735 96.2898 158.182 96.4141 158.573 96.6481C158.964 96.8822 159.284 97.2175 159.5 97.6185C159.651 97.8778 159.752 98.1625 159.8 98.4585V98.6285H159.97C164.34 99.3785 181.52 102.268 181.58 102.278C181.648 102.28 181.715 102.266 181.776 102.236C181.837 102.207 181.89 102.163 181.93 102.108C183.12 100.878 187.44 89.5085 187.4 88.3685C187.415 88.0668 187.491 87.7713 187.624 87.4998C187.756 87.2283 187.942 86.9863 188.17 86.7885C189.662 85.4005 191.587 84.5703 193.62 84.4385C194.25 84.4385 195.01 84.5885 195.06 85.3085C195.109 86.4793 195.26 87.6436 195.51 88.7885C195.76 89.9785 195.9 90.6285 195.44 95.5285V95.6485C194.59 104.908 189.26 112.178 183.32 112.178L183.34 112.218Z" fill="white"/>
<path d="M193.65 84.7288C194.41 84.7288 194.81 84.9387 194.84 85.3587C194.884 86.5426 195.032 87.7204 195.28 88.8788C195.52 90.0388 195.66 90.6788 195.2 95.5288C195.205 95.572 195.205 95.6155 195.2 95.6588C194.36 104.809 189.15 111.969 183.33 111.969C182.689 111.968 182.051 111.887 181.43 111.729L180.73 111.549C173.1 109.409 159.73 101.429 159.64 101.349L159.35 101.179L159.08 101.379C158.144 101.972 157.046 102.255 155.94 102.189C154.892 102.163 153.849 102.049 152.82 101.849L152.27 101.759C152.259 101.714 152.26 101.667 152.275 101.622C152.289 101.578 152.315 101.539 152.35 101.509L153.14 100.919L152.2 100.639C151.856 100.535 151.521 100.401 151.2 100.239C151.2 100.239 151.13 100.239 151.2 100.129C151.27 100.019 151.3 99.9588 151.36 99.9588L153.7 100.119L151.63 99.0188C151.45 98.9188 151.26 98.8287 151.08 98.7188C151.08 98.7188 151 98.7188 151.08 98.5588C151.16 98.3988 151.17 98.4088 151.2 98.4088H151.26C151.45 98.5188 151.64 98.6288 151.84 98.7288L152.21 98.1188L152.4 97.9088C152.4 97.9088 152.4 97.8388 152.4 97.8088C152.416 97.7692 152.441 97.7344 152.475 97.708C152.508 97.6817 152.548 97.6647 152.59 97.6588C152.616 97.6503 152.644 97.6503 152.67 97.6588C153.57 98.5088 156.06 98.8988 157.45 98.8988H157.96L158.1 98.7487C158.257 98.5932 158.379 98.4053 158.457 98.1981C158.534 97.991 158.566 97.7694 158.55 97.5488V97.2988L158.33 97.1688C158.028 96.9884 157.682 96.8949 157.33 96.8988H157.13C157.03 96.8988 157.01 96.7587 157.01 96.7188C157.01 96.6788 157.11 96.5288 157.14 96.5288H157.28C157.69 96.5313 158.092 96.6439 158.444 96.855C158.796 97.0661 159.085 97.3679 159.28 97.7288C159.418 97.9669 159.513 98.2276 159.56 98.4987L159.62 98.8388L159.96 98.8888C163.56 99.5088 180.24 102.329 181.51 102.539H181.57H181.67C181.766 102.535 181.861 102.511 181.947 102.468C182.033 102.424 182.109 102.363 182.17 102.289C183.41 101.009 187.76 89.6287 187.71 88.3587C187.754 87.8193 188.005 87.3178 188.41 86.9588C189.852 85.6169 191.714 84.8149 193.68 84.6888L193.65 84.7288ZM193.65 84.2288C191.24 84.2288 187.1 86.2988 187.18 88.4188C187.18 89.6188 182.41 102.079 181.64 102.079C181.64 102.079 164.9 99.2687 160.05 98.4287C159.991 98.1046 159.876 97.7932 159.71 97.5088C159.473 97.0709 159.122 96.7052 158.694 96.45C158.266 96.1949 157.778 96.0597 157.28 96.0588H156.98C156.813 96.079 156.658 96.1599 156.547 96.2861C156.435 96.4123 156.373 96.5751 156.373 96.7438C156.373 96.9124 156.435 97.0752 156.547 97.2014C156.658 97.3276 156.813 97.4085 156.98 97.4287H157.18C157.424 97.4309 157.663 97.5001 157.87 97.6288C157.881 97.7792 157.858 97.9301 157.803 98.0704C157.747 98.2107 157.661 98.3366 157.55 98.4388H157.28C155.81 98.4388 153.57 98.0188 152.84 97.3388C152.726 97.232 152.576 97.1714 152.42 97.1688C152.289 97.1654 152.16 97.2012 152.049 97.2716C151.938 97.342 151.851 97.4438 151.798 97.564C151.746 97.6842 151.73 97.8173 151.754 97.9464C151.777 98.0755 151.839 98.1947 151.93 98.2887C151.74 98.1887 151.55 98.0888 151.37 97.9788C151.276 97.9228 151.169 97.8918 151.06 97.8888C150.92 97.9015 150.788 97.957 150.681 98.0478C150.574 98.1387 150.498 98.2603 150.463 98.396C150.428 98.5318 150.436 98.6751 150.486 98.8062C150.535 98.9374 150.624 99.0501 150.74 99.1288L151.3 99.4388C150.71 99.4388 150.3 100.339 150.96 100.669C151.305 100.836 151.663 100.977 152.03 101.089C151.63 101.399 151.6 102.149 152.23 102.239C153.462 102.49 154.713 102.637 155.97 102.679C157.184 102.747 158.389 102.429 159.41 101.769C161.54 103.049 173.56 110.039 180.62 112.019L181.34 112.199C181.994 112.366 182.665 112.453 183.34 112.459C189.82 112.459 194.89 104.589 195.71 95.6988C195.71 95.6988 195.71 95.6188 195.71 95.5888C196.44 87.8188 195.66 90.5887 195.33 85.3187C195.28 84.5487 194.59 84.2188 193.64 84.2188L193.65 84.2288Z" fill="black"/>
<path d="M210.68 215.048C210.44 214.828 209.99 214.218 210.68 213.138C211.51 211.768 212.29 210.268 212.51 209.838V209.768V209.698C212.12 205.498 212.18 203.698 212.35 203.498C212.35 203.498 212.52 203.288 213.76 203.288C214.847 203.273 215.93 203.408 216.98 203.688L217.07 204.218C217.66 207.758 217.85 209.698 217.62 210.008C217.406 210.153 217.17 210.262 216.92 210.328L212.92 213.828L210.68 215.048Z" fill="white"/>
<path d="M213.74 203.539C214.749 203.54 215.755 203.651 216.74 203.869L216.8 204.259C217.47 208.259 217.5 209.499 217.4 209.849C217.208 209.943 217.011 210.027 216.81 210.099H216.72L216.65 210.159L212.74 213.579L210.74 214.709C210.57 214.469 210.41 213.999 210.86 213.239C211.73 211.809 212.54 210.239 212.7 209.919L212.76 209.789V209.649C212.31 204.799 212.5 203.799 212.54 203.649C212.936 203.533 213.349 203.489 213.76 203.519L213.74 203.539ZM213.74 203.039C212.95 203.039 212.29 203.119 212.13 203.349C211.75 203.859 212.05 207.679 212.24 209.719C212.08 210.039 211.24 211.599 210.43 213.009C209.43 214.589 210.65 215.349 210.65 215.349L213.03 214.019L216.98 210.569C217.267 210.478 217.54 210.347 217.79 210.179C218.29 209.639 217.36 204.619 217.2 203.559C217.2 203.339 215.2 203.039 213.74 203.039Z" fill="black"/>
<path d="M180.06 215.139C179.81 214.939 179.32 214.349 179.91 213.229C180.76 211.639 181.91 210.049 181.91 210.029L181.97 209.939V209.829C181.97 209.629 181.8 209.219 181.64 208.699C181.27 207.439 180.27 204.109 180.51 203.699C180.69 203.439 182.51 203.129 184.62 203.129C185.045 203.11 185.471 203.137 185.89 203.209C186.17 204.259 186.83 207.989 186.96 208.709L182.22 213.869L180.06 215.139Z" fill="white"/>
<path d="M184.56 203.339C184.913 203.314 185.267 203.314 185.62 203.339C185.91 204.479 186.47 207.639 186.62 208.539L182.01 213.539L180.07 214.759C179.918 214.542 179.837 214.284 179.837 214.019C179.837 213.754 179.918 213.496 180.07 213.279C180.91 211.709 182 210.119 182.01 210.109L182.14 209.919V209.709C182.09 209.489 181.97 209.099 181.81 208.549C181.272 206.987 180.887 205.376 180.66 203.739C181.923 203.373 183.236 203.214 184.55 203.269L184.56 203.339ZM184.56 202.839C182.93 202.839 180.5 203.059 180.23 203.539C179.85 204.239 181.46 209.029 181.66 209.889C180.937 210.93 180.27 212.008 179.66 213.119C178.8 214.739 180.02 215.439 180.02 215.439L182.32 213.989L187.14 208.749C187.14 208.749 186.31 204.029 186.01 203.009C186.01 202.889 185.36 202.839 184.53 202.839H184.56Z" fill="black"/>
<path d="M187.28 206.169C187.28 206.169 187.6 207.629 187.98 210.169C187.98 210.169 185.13 209.659 183.9 215.509C183.61 216.859 179.9 216.769 178.53 217.069C178.53 217.069 177.02 216.809 177.68 214.939C177.94 214.189 179.27 213.839 179.68 213.129C180.81 214.909 182.93 212.909 187.28 206.169Z" fill="black"/>
<path d="M188.02 210.159L187.79 215.459L186.69 215.669L186.01 210.539L187.29 209.329L188.02 210.159Z" fill="black"/>
<path d="M200.52 120.979C200.01 128.979 193.24 144.819 188.92 152.279C186.34 156.749 185.98 161.929 186.75 163.959C189.75 171.899 188.2 197.109 187.28 204.889C186.75 205.979 185.42 206.389 183.99 206.489C182.355 206.546 180.719 206.378 179.13 205.989C176.89 188.729 177.18 177.849 173.61 165.719C167.99 146.609 184.02 108.179 184.02 108.179C186.1 100.919 201.4 106.979 200.52 120.979Z" fill="black"/>
<path d="M194.35 120.288C192.75 131.938 185.63 132.288 183.96 147.548C183.49 151.788 180.36 161.468 183.56 166.748C187.56 173.298 183.03 183.568 182.71 191.268C182.515 195.094 182.7 198.929 183.26 202.718C183.425 203.972 183.669 205.215 183.99 206.438C185.42 206.338 186.75 205.928 187.28 204.838C190.28 196.958 191.63 171.368 188.61 163.428C187.84 161.428 191 151.898 192.61 146.998C194.14 142.418 197.04 134.998 198.09 131.928C199.47 127.878 194.28 119.978 194.35 120.288Z" fill="black"/>
<path d="M210.83 73.7491C210.802 73.6623 210.765 73.5785 210.72 73.4991C210.951 72.9649 210.986 72.3667 210.82 71.8091C210.731 71.5744 210.591 71.3626 210.41 71.1891C210.87 70.4391 210.41 69.7491 210.06 69.0391C209.947 68.7237 209.76 68.4401 209.515 68.2121C209.269 67.9842 208.973 67.8185 208.65 67.7291C208.757 67.5244 208.822 67.3004 208.84 67.0702C208.859 66.8401 208.832 66.6085 208.76 66.3891C208.614 65.8935 208.297 65.4662 207.864 65.1839C207.431 64.9016 206.912 64.7829 206.4 64.8491C206.394 64.6185 206.341 64.3915 206.245 64.1818C206.148 63.9722 206.011 63.7842 205.84 63.6291C205.492 63.2816 205.046 63.0486 204.561 62.961C204.077 62.8735 203.578 62.9356 203.13 63.1391C202.948 62.7461 202.682 62.3974 202.352 62.1167C202.022 61.8361 201.635 61.6302 201.218 61.5133C200.801 61.3965 200.364 61.3713 199.936 61.4396C199.508 61.5079 199.1 61.6681 198.74 61.9091C197.1 60.1691 195.02 62.0591 194.05 63.9091C193.968 64.0603 193.949 64.2379 193.998 64.4028C194.047 64.5678 194.159 64.7067 194.31 64.7891C194.46 66.6991 194.52 68.9191 196.53 69.6891C197.09 69.8991 197.7 70.0991 198.33 70.2691C198.213 70.9968 198.362 71.7422 198.75 72.3691C199.012 72.7583 199.395 73.05 199.84 73.1991C199.793 73.3122 199.756 73.4293 199.73 73.5491C199.652 74.0382 199.717 74.5394 199.915 74.9931C200.114 75.4468 200.438 75.8341 200.85 76.1091C201.133 76.2673 201.447 76.3629 201.77 76.3891C201.459 77.0108 201.292 77.6942 201.28 78.3891C201.289 78.9373 201.418 79.4769 201.66 79.9691C200.98 81.1891 200.66 82.9691 201.54 83.7291H201.47C201.168 83.9989 200.944 84.344 200.82 84.7291C200.7 85.1231 200.699 85.5436 200.816 85.9383C200.934 86.333 201.164 86.6845 201.48 86.9491C201.789 87.2008 202.172 87.3448 202.57 87.3591C202.739 87.6555 202.955 87.9224 203.21 88.1491C203.524 88.465 203.918 88.6897 204.35 88.7991C204.61 89.014 204.914 89.1678 205.242 89.2492C205.569 89.3305 205.91 89.3373 206.24 89.2691C206.666 89.2391 207.082 89.1183 207.458 88.9148C207.834 88.7113 208.162 88.4298 208.42 88.0891C208.557 87.856 208.646 87.5974 208.68 87.3291C209.241 87.2541 209.757 86.9852 210.14 86.5691C210.427 86.2806 210.609 85.9053 210.66 85.5018C210.711 85.0984 210.626 84.6895 210.42 84.3391C210.852 84.156 211.206 83.8268 211.42 83.4091C211.818 82.5803 211.872 81.6276 211.57 80.7591C211.438 80.5107 211.227 80.3136 210.97 80.1991C211.379 79.9284 211.666 79.5085 211.77 79.0291C211.806 78.7522 211.744 78.4715 211.597 78.2346C211.449 77.9977 211.224 77.8191 210.96 77.7291C211.419 77.3334 211.764 76.8225 211.96 76.2491C212.126 75.7669 212.101 75.2395 211.891 74.7748C211.681 74.3101 211.302 73.9432 210.83 73.7491Z" fill="black"/>
<path d="M213.13 113.169C201.67 117.779 190.3 115.709 180.75 113.629C180.85 112.999 181.84 110.689 182.86 108.129C184.86 109.389 193.74 113.969 211.19 108.689C211.948 110.131 212.597 111.629 213.13 113.169Z" fill="black"/>
<path d="M217.74 206.269L211.49 206.999C208.23 195.319 199.49 175.379 198.24 163.129C196.24 144.129 193.85 123.739 193.74 118.739C193.74 117.929 193.74 117.499 193.74 117.499C198.04 111.839 205.33 109.499 208.57 109.109C209.85 108.939 210.79 109.209 211.19 109.939C212.392 112.087 213.444 114.316 214.34 116.609C219.58 130.069 215.17 138.209 215.27 155.719C215.27 156.719 215.27 157.719 215.27 158.799C215.44 166.039 213.64 174.949 215.56 182.509C219.34 197.349 217.74 206.269 217.74 206.269Z" fill="black"/>
<path d="M216.77 182.029C215.827 174.321 215.33 166.565 215.28 158.799C215.28 157.799 215.28 156.729 215.28 155.719C215.18 138.209 220.36 127.919 211.22 108.719C206.04 105.719 208.47 112.209 208.42 113.849C208.42 115.818 208.577 117.785 208.89 119.729C209.41 123.119 210.08 126.479 209.62 129.989C208.92 135.409 207.3 140.529 206.96 146.059C206.35 156.219 208.5 165.549 211.68 174.989C213.772 180.783 215.188 186.8 215.9 192.919C216.29 196.859 216.38 202.479 216.35 206.449L217.77 206.299C217.77 206.299 219.38 200.679 216.77 182.029Z" fill="black"/>
<path d="M203.58 95.2289C204.58 97.1289 206.72 100.229 208.58 101.639C208.58 101.189 208.63 100.739 208.68 100.289C208.79 99.4089 208.96 98.4989 209.15 97.5589C208.369 96.1338 207.355 94.8494 206.15 93.7589C202.21 90.0389 202.55 80.8789 202.55 80.8789C201.62 85.4489 202.05 92.4289 203.58 95.2289Z" fill="#1F0D52"/>
<path d="M211.19 108.689C193.74 113.969 184.86 109.389 182.86 108.129C183.28 107.129 183.69 106.079 184.05 105.129C184.605 103.755 185.004 102.322 185.24 100.859C185.24 100.679 184.56 97.159 184.47 96.979C183.13 94.399 180.62 92.279 180.47 88.349C180.2 81.559 194.66 75.889 194.66 75.889C216.34 74.599 208.66 100.739 208.66 100.889C208.66 101.039 208.59 102.459 208.59 102.459C208.735 103.443 209.043 104.396 209.5 105.279C209.95 106.349 210.58 107.549 211.19 108.689Z" fill="#075085"/>
<path d="M192.81 78.6285C192.687 78.6438 192.563 78.6438 192.44 78.6285C192.394 78.6237 192.349 78.6075 192.311 78.5813C192.273 78.5551 192.241 78.5198 192.22 78.4785C192.06 78.1285 192.41 77.2585 192.61 76.8985V76.8385V73.0685L197.61 70.9785V75.6485C197.17 76.1085 194.61 78.6485 192.74 78.6485L192.81 78.6285Z" fill="white"/>
<path d="M197.43 71.3584V75.5584C196.56 76.4584 194.37 78.3784 192.81 78.3784C192.69 78.3915 192.57 78.3915 192.45 78.3784C192.434 77.8968 192.566 77.4218 192.83 77.0184L192.89 76.9084V73.2384L197.43 71.3584ZM197.93 70.6084L192.39 72.8984V76.7384C192.39 76.7384 191.39 78.6284 192.39 78.8384C192.53 78.8482 192.67 78.8482 192.81 78.8384C195.04 78.8384 197.93 75.7084 197.93 75.7084V70.6084Z" fill="black"/>
<path d="M192.7 74.2887C190.75 74.2887 188.89 73.1087 188.7 71.7187C188.327 69.0181 188.327 66.2792 188.7 63.5787L197.28 61.6387C197.72 62.5687 199.67 67.1687 197.28 71.4087C196.862 72.2647 196.214 72.9876 195.409 73.4963C194.604 74.0049 193.673 74.2793 192.72 74.2887H192.7Z" fill="white"/>
<path d="M197.09 61.9787C197.64 63.1887 199.23 67.4187 197.04 71.3387C196.645 72.156 196.029 72.8466 195.262 73.3326C194.495 73.8185 193.608 74.0804 192.7 74.0887C190.86 74.0887 189.12 73.0087 188.89 71.7287C188.537 69.1105 188.537 66.4568 188.89 63.8387L197.09 61.9787ZM197.37 61.3987L188.45 63.3987C188.064 66.182 188.064 69.0053 188.45 71.7887C188.71 73.2987 190.63 74.5687 192.75 74.5687C193.745 74.5596 194.718 74.2743 195.56 73.7446C196.402 73.2149 197.081 72.4615 197.52 71.5687C200.27 66.6787 197.42 61.3887 197.42 61.3887L197.37 61.3987Z" fill="black"/>
<path d="M198.79 59.8486C198.711 59.5277 198.563 59.2278 198.356 58.97C198.15 58.7122 197.889 58.5026 197.593 58.3559C197.297 58.2093 196.972 58.1291 196.642 58.1209C196.311 58.1127 195.983 58.1768 195.68 58.3086C195.55 57.8358 195.272 57.4167 194.888 57.1121C194.504 56.8074 194.032 56.633 193.542 56.614C193.052 56.5951 192.569 56.7326 192.162 57.0067C191.755 57.2808 191.446 57.6773 191.28 58.1386C190.958 58.0029 190.609 57.9395 190.26 57.953C189.911 57.9665 189.568 58.0565 189.257 58.2167C188.946 58.3769 188.675 58.6034 188.461 58.8802C188.247 59.157 188.096 59.4773 188.02 59.8186C186.67 59.5886 185.47 61.6486 186.32 62.8186C185.942 62.9728 185.637 63.2658 185.467 63.6377C185.298 64.0096 185.278 64.4321 185.41 64.8186C185.45 65.0533 185.556 65.2718 185.715 65.4488C185.875 65.6258 186.081 65.754 186.31 65.8186C186.408 65.9821 186.533 66.1276 186.68 66.2486C187.125 66.5076 187.645 66.609 188.154 66.5365C188.664 66.4639 189.135 66.2216 189.49 65.8486C189.977 65.441 190.369 64.9326 190.64 64.3586C190.83 63.9786 190.94 63.4486 191.14 63.0686C191.755 62.9202 192.397 62.9198 193.012 63.0676C193.628 63.2153 194.199 63.507 194.68 63.9186C194.891 64.4076 195.052 64.9169 195.16 65.4386C195.363 67.0179 196.02 68.5045 197.05 69.7186C197.273 69.9727 197.554 70.1684 197.87 70.2886H197.95C197.983 70.2166 198.019 70.1465 198.06 70.0786C199.06 70.2586 199.64 69.2586 199.76 68.2486C200.156 68.1797 200.513 67.9658 200.76 67.6486C200.931 67.4277 201.045 67.1675 201.09 66.8916C201.136 66.6157 201.112 66.3328 201.02 66.0686C201.65 65.5086 202.09 64.5986 201.52 64.0686C201.525 64.0121 201.525 63.9552 201.52 63.8986C201.473 63.6751 201.511 63.442 201.628 63.2457C201.745 63.0493 201.931 62.904 202.15 62.8386C202.391 62.5518 202.54 62.1996 202.579 61.8272C202.618 61.4549 202.546 61.0793 202.37 60.7486C201.58 58.9786 200.04 59.0986 198.79 59.8486Z" fill="black"/>
<path d="M196.08 67.8489C195.968 67.8156 195.863 67.7605 195.772 67.6867C195.681 67.6129 195.606 67.5219 195.55 67.4189C195.268 67.0298 195.121 66.5594 195.13 66.0789C195.408 65.8285 195.758 65.6712 196.13 65.6289C196.255 65.6319 196.377 65.6688 196.483 65.7358C196.588 65.8027 196.674 65.8971 196.73 66.0089C196.86 66.2042 196.934 66.4312 196.945 66.6656C196.955 66.8999 196.902 67.1327 196.79 67.3389C196.723 67.4743 196.625 67.5915 196.503 67.6804C196.381 67.7692 196.239 67.8271 196.09 67.8489H196.08Z" fill="white"/>
<path d="M196.14 65.8789C196.25 65.8789 196.38 65.8789 196.52 66.1389C196.633 66.2942 196.698 66.4786 196.709 66.6701C196.719 66.8616 196.675 67.0521 196.58 67.2189C196.534 67.3145 196.467 67.3983 196.384 67.4642C196.301 67.53 196.204 67.5761 196.1 67.5989C195.936 67.5155 195.803 67.3825 195.72 67.2189C195.519 66.9212 195.399 66.5768 195.37 66.2189C195.589 66.036 195.857 65.9213 196.14 65.8889V65.8789ZM196.14 65.3789C195.681 65.4319 195.251 65.6278 194.91 65.9389C194.71 66.5789 195.39 68.0589 196.07 68.0989C196.301 68.05 196.516 67.9437 196.696 67.7898C196.875 67.636 197.013 67.4395 197.097 67.2185C197.18 66.9974 197.207 66.7589 197.174 66.5248C197.142 66.2908 197.051 66.0687 196.91 65.8789C196.834 65.7289 196.719 65.6028 196.576 65.5145C196.433 65.4263 196.268 65.3794 196.1 65.3789H196.14Z" fill="black"/>
<path d="M203.35 78.8789C196.53 82.2789 202.85 94.2089 203.35 95.3889C203.958 96.3733 204.654 97.3005 205.43 98.1589C206.1 99.1589 207.12 101.749 208.53 102.159C208.52 101.976 208.52 101.792 208.53 101.609C208.53 101.349 208.53 101.099 208.58 100.839C208.63 100.579 208.7 100.379 208.74 100.199C208.97 99.1989 209.43 96.4889 209.58 95.7689C209.75 94.6097 209.844 93.4404 209.86 92.2689C209.86 91.0289 209.54 82.1389 207.96 82.3689C207.96 81.9789 204.18 91.7889 204.11 91.3689C204.02 90.5289 204.14 78.4789 203.35 78.8789Z" fill="black"/>
<path d="M211.49 108.609C211.393 108.646 211.293 108.673 211.19 108.689C193.74 113.969 184.86 109.389 182.86 108.129L182.43 107.819C182.513 106.736 183.015 105.727 183.83 105.009L184.05 105.089C195.18 109.739 208.89 105.459 209.45 105.279C210.49 105.809 211.49 108.609 211.49 108.609Z" fill="black"/>
<path d="M217.73 207.099C217.73 207.099 218.73 207.929 218.92 210.469C218.92 210.469 216.1 209.819 214.54 215.609C214.18 216.939 210.43 216.659 209.08 216.889C209.08 216.889 207.59 216.549 208.36 214.719C208.66 213.989 210 213.719 210.43 213.009C211.44 214.859 213.95 214.429 217.73 207.099Z" fill="black"/>
<path d="M218.92 210.469L218.39 215.759L217.28 215.909L216.89 210.759L218.24 209.619L218.92 210.469Z" fill="black"/>
<path d="M195.09 65.149C195.09 65.149 195.62 66.369 195.82 66.899C196.02 67.429 195.98 68.229 196.26 68.669C196.54 69.109 194.12 70.669 193.81 69.769C193.5 68.869 192.66 65.279 192.97 64.959C193.28 64.639 195.09 65.149 195.09 65.149Z" fill="white"/>
<path d="M176.02 78.6289H89.2V118.709H176.02V78.6289Z" fill="white"/>
<path d="M175.77 78.8789V118.459H89.45V78.8789H175.77ZM176.27 78.3789H88.95V118.979H176.28V78.3789H176.27Z" fill="black"/>
<path d="M122.85 87.5889V111.289C122.85 111.819 122.639 112.328 122.264 112.703C121.889 113.078 121.38 113.289 120.85 113.289H95.28C94.7496 113.289 94.2409 113.078 93.8658 112.703C93.4907 112.328 93.28 111.819 93.28 111.289V87.5889C93.2927 87.0624 93.5075 86.5611 93.8799 86.1887C94.2522 85.8163 94.7536 85.6016 95.28 85.5889H120.81C121.343 85.5913 121.855 85.8016 122.236 86.175C122.617 86.5484 122.837 87.0556 122.85 87.5889Z" fill="#075085"/>
<path d="M122.85 99.5688V111.289C122.85 111.819 122.639 112.328 122.264 112.703C121.889 113.078 121.38 113.289 120.85 113.289H95.28C94.7496 113.289 94.2409 113.078 93.8658 112.703C93.4907 112.328 93.28 111.819 93.28 111.289V107.979L97.73 102.979C97.8232 102.884 97.9344 102.808 98.0572 102.756C98.18 102.705 98.3118 102.678 98.445 102.678C98.5782 102.678 98.7101 102.705 98.8329 102.756C98.9557 102.808 99.0669 102.884 99.16 102.979L105.03 109.049C105.123 109.143 105.234 109.217 105.355 109.268C105.477 109.318 105.608 109.345 105.74 109.345C105.872 109.345 106.003 109.318 106.125 109.268C106.246 109.217 106.357 109.143 106.45 109.049L118.52 95.8788C118.614 95.7741 118.729 95.6903 118.857 95.6329C118.985 95.5756 119.124 95.5459 119.265 95.5459C119.406 95.5459 119.545 95.5756 119.673 95.6329C119.801 95.6903 119.916 95.7741 120.01 95.8788L122.85 99.5688Z" fill="black"/>
<path d="M105.75 92.7089C105.75 92.0009 105.54 91.3087 105.147 90.72C104.753 90.1312 104.194 89.6724 103.54 89.4014C102.886 89.1305 102.166 89.0596 101.472 89.1977C100.777 89.3358 100.139 89.6768 99.6385 90.1775C99.1379 90.6781 98.7969 91.316 98.6588 92.0105C98.5206 92.7049 98.5915 93.4248 98.8625 94.0789C99.1334 94.7331 99.5923 95.2922 100.181 95.6856C100.77 96.0789 101.462 96.2889 102.17 96.2889C103.119 96.2889 104.03 95.9117 104.701 95.2404C105.373 94.569 105.75 93.6584 105.75 92.7089Z" fill="white"/>
<path d="M172 85.5391H126.56V93.8691H172V85.5391Z" fill="#AAB6C2"/>
<path d="M135.06 99.249H126.56V100.519H135.06V99.249Z" fill="#AAB6C2"/>
<path d="M172.01 99.249H138.1V100.519H172.01V99.249Z" fill="#AAB6C2"/>
<path d="M148.99 102.249H126.56V103.519H148.99V102.249Z" fill="#AAB6C2"/>
<path d="M159.3 102.249H150.8V103.519H159.3V102.249Z" fill="#AAB6C2"/>
<path d="M172 102.249H161.41V103.519H172V102.249Z" fill="#AAB6C2"/>
<path d="M153.38 105.249H126.56V106.519H153.38V105.249Z" fill="#AAB6C2"/>
<path d="M172 105.249H155.81V106.519H172V105.249Z" fill="#AAB6C2"/>
<path d="M172.01 108.318H150.8V109.588H172.01V108.318Z" fill="#AAB6C2"/>
<path d="M131.8 108.259H126.56V109.529H131.8V108.259Z" fill="#AAB6C2"/>
<path d="M148.66 108.259H133.75V109.529H148.66V108.259Z" fill="#AAB6C2"/>
<path d="M135.06 111.259H126.56V112.529H135.06V111.259Z" fill="#AAB6C2"/>
<path d="M172.01 111.259H138.1V112.529H172.01V111.259Z" fill="#AAB6C2"/>
<path d="M202.5 105.289C202.5 105.289 218.28 118.979 221.41 116.769C222.94 115.679 219.79 111.849 220.41 111.169C221.03 110.489 212.72 104.919 212.72 104.919L205.63 102.499L202.5 105.289Z" fill="black"/>
<path d="M171.33 122.288C171.266 122.287 171.204 122.269 171.149 122.235C171.095 122.202 171.05 122.155 171.02 122.098C170.968 122.007 170.941 121.904 170.941 121.798C170.941 121.693 170.968 121.59 171.02 121.498L171.25 121.068L170.76 121.128C170.428 121.173 170.094 121.196 169.76 121.198H169.46C169.355 121.201 169.252 121.163 169.174 121.093C169.096 121.022 169.048 120.924 169.04 120.818C169.014 120.698 169.03 120.572 169.084 120.462C169.139 120.351 169.229 120.262 169.34 120.208L170.44 119.798L169.27 119.728C169.03 119.728 168.78 119.728 168.54 119.668C168.475 119.662 168.411 119.643 168.353 119.612C168.295 119.581 168.244 119.538 168.203 119.487C168.162 119.435 168.132 119.376 168.114 119.313C168.097 119.25 168.092 119.184 168.1 119.118C168.096 119.058 168.104 118.997 168.124 118.939C168.145 118.882 168.176 118.829 168.217 118.784C168.258 118.739 168.308 118.703 168.364 118.678C168.419 118.653 168.479 118.64 168.54 118.638L169.35 118.708L169.42 118.218C169.316 118.186 169.227 118.116 169.171 118.021C169.116 117.927 169.098 117.816 169.12 117.708C169.134 117.582 169.191 117.465 169.283 117.378C169.374 117.29 169.494 117.237 169.62 117.228H169.78C170.075 117.315 170.382 117.355 170.69 117.348C172.353 117.255 173.981 116.834 175.48 116.108H175.58V116.008C175.656 115.812 175.69 115.602 175.68 115.392C175.669 115.182 175.615 114.976 175.52 114.788L175.45 114.678H175.08C174.776 114.673 174.475 114.749 174.21 114.898C174.138 114.944 174.055 114.969 173.97 114.968C173.849 114.958 173.735 114.908 173.645 114.827C173.555 114.746 173.493 114.637 173.47 114.518C173.433 114.413 173.434 114.297 173.475 114.193C173.515 114.088 173.591 114.002 173.69 113.948C174.139 113.686 174.649 113.544 175.17 113.538C175.828 113.548 176.468 113.761 177 114.148C177.284 114.355 177.531 114.609 177.73 114.898L177.83 115.048H178C183.66 113.578 202.58 108.578 202.59 108.568C202.639 108.557 202.686 108.536 202.725 108.504C202.765 108.473 202.797 108.434 202.82 108.388C203.59 107.088 202.66 92.2784 202.09 91.1184C201.68 90.3084 201.94 89.1184 202.81 87.6884C204.14 85.5384 206.52 83.6884 207.89 83.6884C208.076 83.6765 208.261 83.7207 208.421 83.8152C208.582 83.9096 208.71 84.0501 208.79 84.2184C209.406 85.429 210.122 86.5863 210.93 87.6784C211.77 88.8084 212.23 89.4384 214.09 94.8484V94.9584C216.56 102.078 216.36 109.428 213.6 114.178C212.919 115.421 211.972 116.498 210.825 117.332C209.679 118.165 208.362 118.734 206.97 118.998L206.13 119.138C203.415 119.496 200.678 119.657 197.94 119.618C189 119.618 178.94 118.468 178.86 118.448H178.69L178.61 118.598C177.35 120.858 173.88 121.768 172.01 122.258L171.39 122.418L171.33 122.288Z" fill="white"/>
<path d="M207.93 83.7988C208.07 83.7857 208.21 83.8162 208.332 83.886C208.454 83.9558 208.551 84.0616 208.61 84.1888C209.228 85.4123 209.951 86.58 210.77 87.6788C211.59 88.7988 212.05 89.4188 213.89 94.7788C213.89 94.7788 213.89 94.8588 213.89 94.9188C216.33 101.919 216.14 109.229 213.41 113.919C212.755 115.137 211.834 116.192 210.716 117.006C209.598 117.819 208.311 118.371 206.95 118.619L206.12 118.759C203.419 119.117 200.695 119.277 197.97 119.239C189.04 119.239 178.97 118.089 178.92 118.079H178.59L178.42 118.369C177.22 120.539 173.81 121.429 171.98 121.909L171.35 122.069H171.28C171.28 122.069 171.22 122.069 171.18 121.999C171.153 121.945 171.139 121.885 171.139 121.824C171.139 121.763 171.153 121.703 171.18 121.649L171.66 120.789L170.66 120.909C170.329 120.957 169.995 120.981 169.66 120.979H169.37C169.3 120.979 169.21 120.979 169.19 120.809C169.175 120.746 169.18 120.68 169.205 120.621C169.231 120.561 169.274 120.511 169.33 120.479L171.52 119.659L169.19 119.509L168.47 119.449C168.436 119.445 168.403 119.435 168.374 119.418C168.344 119.401 168.318 119.379 168.297 119.351C168.277 119.324 168.262 119.293 168.254 119.26C168.246 119.227 168.244 119.192 168.25 119.159C168.247 119.129 168.251 119.098 168.261 119.07C168.27 119.041 168.286 119.015 168.307 118.993C168.328 118.972 168.353 118.954 168.382 118.943C168.41 118.932 168.44 118.927 168.47 118.929L169.23 118.989L169.32 118.269L169.41 118.009C169.384 118.006 169.359 117.997 169.337 117.983C169.315 117.969 169.297 117.95 169.283 117.928C169.27 117.906 169.262 117.881 169.259 117.855C169.257 117.829 169.261 117.803 169.27 117.779C169.27 117.669 169.37 117.509 169.52 117.509H169.59C169.915 117.604 170.252 117.648 170.59 117.639C172.293 117.545 173.962 117.117 175.5 116.379L175.68 116.279L175.75 116.089C175.839 115.86 175.877 115.614 175.862 115.369C175.846 115.124 175.777 114.885 175.66 114.669L175.53 114.449H175.28H175.01C174.659 114.439 174.312 114.529 174.01 114.709H173.89C173.79 114.709 173.67 114.589 173.63 114.439C173.618 114.413 173.612 114.386 173.611 114.358C173.611 114.33 173.616 114.302 173.626 114.276C173.636 114.25 173.652 114.226 173.671 114.206C173.691 114.186 173.714 114.17 173.74 114.159C174.148 113.913 174.614 113.782 175.09 113.779C175.698 113.793 176.287 113.992 176.78 114.349C177.042 114.538 177.269 114.771 177.45 115.039L177.65 115.319L177.98 115.229C182.78 113.989 201.29 109.099 202.53 108.759C202.621 108.744 202.707 108.709 202.782 108.655C202.856 108.601 202.917 108.53 202.96 108.449C203.77 107.109 202.96 92.2888 202.24 90.9488C201.88 90.2288 202.14 89.0688 202.95 87.7588C204.22 85.7588 206.54 83.8388 207.82 83.8388L207.93 83.7988ZM207.93 83.2988C205.45 83.2988 200.63 88.5588 201.93 91.1288C202.56 92.3888 203.45 108.209 202.58 108.229C202.58 108.229 183.53 113.229 178 114.709C177.686 114.264 177.272 113.898 176.791 113.643C176.309 113.388 175.775 113.249 175.23 113.239C174.667 113.239 174.114 113.391 173.63 113.679C173.486 113.772 173.375 113.908 173.313 114.068C173.251 114.228 173.242 114.404 173.286 114.57C173.331 114.736 173.427 114.883 173.561 114.991C173.694 115.098 173.859 115.161 174.03 115.169C174.16 115.168 174.287 115.133 174.4 115.069C174.625 114.94 174.881 114.874 175.14 114.879H175.36C175.433 115.035 175.471 115.206 175.471 115.379C175.471 115.552 175.433 115.722 175.36 115.879C173.894 116.584 172.304 116.995 170.68 117.089C170.396 117.098 170.112 117.061 169.84 116.979H169.61C169.434 116.985 169.266 117.051 169.133 117.166C169.001 117.281 168.911 117.437 168.879 117.61C168.848 117.783 168.876 117.961 168.96 118.116C169.044 118.27 169.178 118.391 169.34 118.459C169.09 118.459 168.84 118.459 168.6 118.399H168.51C168.322 118.42 168.149 118.51 168.023 118.651C167.897 118.792 167.828 118.975 167.828 119.164C167.828 119.353 167.897 119.535 168.023 119.676C168.149 119.817 168.322 119.907 168.51 119.929C168.75 119.929 169 119.929 169.25 119.989C168.58 120.239 168.59 121.419 169.44 121.459H169.75C170.084 121.455 170.418 121.431 170.75 121.389C170.49 121.849 170.75 122.549 171.29 122.549C171.359 122.561 171.431 122.561 171.5 122.549C173.08 122.109 177.4 121.259 178.87 118.609C180.95 118.849 189.97 119.779 197.98 119.779C200.731 119.815 203.482 119.655 206.21 119.299L207.05 119.149C215.79 117.549 218.11 105.599 214.38 94.8088C214.377 94.7655 214.377 94.7221 214.38 94.6788C211.38 86.1088 211.93 89.3988 209.06 84.0088C208.96 83.8004 208.799 83.6264 208.6 83.509C208.401 83.3915 208.171 83.3358 207.94 83.3488L207.93 83.2988Z" fill="black"/>
<path d="M215.97 113.249C213.82 111.859 208.63 107.059 202.89 106.059C200.69 103.799 200.57 98.4586 199.8 94.7286C199.28 92.2286 195.08 77.0486 202.75 77.4086C217.14 78.0686 223.22 111.519 221.81 116.109C221.2 118.119 219.73 115.679 215.97 113.249Z" fill="#075085"/>
<path d="M200.8 100.728C200.629 97.8427 200.043 94.9967 199.06 92.2783C199.06 92.2783 202.7 93.8383 202.7 95.8283C202.7 97.8183 200.8 100.728 200.8 100.728Z" fill="black"/>
</svg>
