<svg width="242" height="220" viewBox="0 0 242 220" fill="none" xmlns="http://www.w3.org/2000/svg">
<path d="M174.218 61.7583C173.987 61.7583 173.766 61.6666 173.603 61.5035C173.44 61.3404 173.348 61.1192 173.348 60.8885V60.0186C173.348 59.788 173.44 59.5667 173.603 59.4036C173.766 59.2405 173.987 59.1488 174.218 59.1488C174.448 59.1488 174.67 59.2405 174.833 59.4036C174.996 59.5667 175.088 59.788 175.088 60.0186V60.8885C175.088 61.1192 174.996 61.3404 174.833 61.5035C174.67 61.6666 174.448 61.7583 174.218 61.7583ZM174.218 56.5394C173.987 56.5394 173.766 56.4477 173.603 56.2846C173.44 56.1215 173.348 55.9002 173.348 55.6696V51.3205C173.348 51.0898 173.44 50.8685 173.603 50.7054C173.766 50.5423 173.987 50.4506 174.218 50.4506C174.448 50.4506 174.67 50.5423 174.833 50.7054C174.996 50.8685 175.088 51.0898 175.088 51.3205V55.6696C175.088 55.9002 174.996 56.1215 174.833 56.2846C174.67 56.4477 174.448 56.5394 174.218 56.5394ZM134.05 53.6603C133.819 53.6603 133.598 53.5686 133.434 53.4055C133.271 53.2424 133.18 53.0211 133.18 52.7905V48.4414C133.18 48.2107 133.271 47.9894 133.434 47.8263C133.598 47.6632 133.819 47.5715 134.05 47.5715C134.28 47.5715 134.501 47.6632 134.665 47.8263C134.828 47.9894 134.919 48.2107 134.919 48.4414V52.7905C134.908 53.0135 134.812 53.2238 134.65 53.3776C134.488 53.5314 134.273 53.6171 134.05 53.6168V53.6603ZM174.218 47.8412C173.987 47.8412 173.766 47.7495 173.603 47.5864C173.44 47.4233 173.348 47.2021 173.348 46.9714V42.6223C173.348 42.3916 173.44 42.1703 173.603 42.0072C173.766 41.8441 173.987 41.7525 174.218 41.7525C174.448 41.7525 174.67 41.8441 174.833 42.0072C174.996 42.1703 175.088 42.3916 175.088 42.6223V46.9714C175.088 47.2021 174.996 47.4233 174.833 47.5864C174.67 47.7495 174.448 47.8412 174.218 47.8412ZM134.05 44.9621C133.819 44.9621 133.598 44.8704 133.434 44.7073C133.271 44.5442 133.18 44.323 133.18 44.0923V39.7432C133.18 39.5125 133.271 39.2912 133.434 39.1281C133.598 38.965 133.819 38.8734 134.05 38.8734C134.28 38.8734 134.501 38.965 134.665 39.1281C134.828 39.2912 134.919 39.5125 134.919 39.7432V44.0923C134.908 44.3153 134.812 44.5256 134.65 44.6794C134.488 44.8332 134.273 44.9189 134.05 44.9186V44.9621ZM174.218 39.143C173.987 39.143 173.766 39.0514 173.603 38.8882C173.44 38.7251 173.348 38.5039 173.348 38.2732V35.7246C173.348 35.1418 173.348 34.5504 173.27 33.985C173.249 33.7543 173.321 33.5248 173.469 33.347C173.617 33.1692 173.83 33.0576 174.061 33.0369C174.292 33.0161 174.521 33.0878 174.699 33.2363C174.877 33.3847 174.988 33.5977 175.009 33.8284C175.07 34.4721 175.096 35.1157 175.096 35.7507V38.2732C175.096 38.3881 175.073 38.502 175.029 38.6081C174.985 38.7142 174.92 38.8104 174.838 38.8913C174.757 38.9722 174.66 39.0361 174.553 39.0793C174.447 39.1225 174.333 39.1442 174.218 39.143ZM134.058 36.2639C133.828 36.2639 133.606 36.1723 133.443 36.0091C133.28 35.846 133.188 35.6248 133.188 35.3941C133.215 33.8791 133.404 32.3714 133.754 30.8971C133.781 30.7829 133.83 30.6751 133.898 30.5798C133.967 30.4846 134.053 30.4037 134.153 30.3419C134.253 30.2801 134.364 30.2386 134.48 30.2197C134.595 30.2008 134.714 30.2049 134.828 30.2317C134.942 30.2586 135.05 30.3076 135.145 30.3761C135.241 30.4447 135.321 30.5313 135.383 30.631C135.445 30.7308 135.487 30.8417 135.505 30.9575C135.524 31.0733 135.52 31.1917 135.493 31.3059C135.172 32.6545 134.997 34.034 134.972 35.4202C134.954 35.6463 134.848 35.8565 134.678 36.006C134.507 36.1555 134.285 36.2325 134.058 36.2204V36.2639ZM173.278 30.5405C173.088 30.5498 172.899 30.4961 172.742 30.3876C172.585 30.2792 172.467 30.122 172.409 29.9403C172.004 28.6022 171.452 27.3129 170.765 26.0957C170.661 25.8969 170.637 25.6657 170.7 25.4502C170.762 25.2347 170.906 25.0518 171.1 24.9395C171.294 24.8272 171.524 24.7943 171.742 24.8477C171.96 24.9011 172.149 25.0366 172.269 25.2259C173.026 26.5374 173.641 27.9252 174.105 29.3662C174.14 29.4753 174.153 29.5903 174.144 29.7045C174.134 29.8187 174.102 29.9299 174.05 30.0317C173.997 30.1336 173.925 30.224 173.837 30.2979C173.75 30.3718 173.649 30.4276 173.539 30.4622C173.455 30.487 173.367 30.4987 173.278 30.497V30.5405ZM136.067 27.8354C135.935 27.8359 135.804 27.8062 135.685 27.7484C135.582 27.6983 135.49 27.6284 135.414 27.5426C135.338 27.4569 135.28 27.357 135.243 27.2487C135.206 27.1404 135.19 27.0258 135.197 26.9116C135.204 26.7973 135.234 26.6856 135.285 26.5828C135.948 25.2218 136.756 23.9358 137.694 22.7469C137.837 22.5658 138.046 22.449 138.275 22.4221C138.505 22.3951 138.735 22.4604 138.916 22.6034C139.097 22.7464 139.214 22.9555 139.241 23.1847C139.268 23.4139 139.203 23.6444 139.06 23.8255C138.197 24.9004 137.456 26.0672 136.85 27.3048C136.785 27.4593 136.676 27.5916 136.537 27.6858C136.398 27.7799 136.235 27.8319 136.067 27.8354ZM168.947 23.0427C168.827 23.0423 168.709 23.0174 168.6 22.9695C168.491 22.9216 168.393 22.8518 168.312 22.7643C167.383 21.7353 166.344 20.8108 165.215 20.007C165.121 19.9411 165.041 19.8572 164.979 19.7601C164.918 19.6631 164.876 19.5548 164.857 19.4416C164.838 19.3284 164.841 19.2125 164.866 19.1005C164.892 18.9885 164.94 18.8827 165.006 18.7893C165.139 18.6017 165.341 18.4745 165.568 18.4354C165.794 18.3963 166.027 18.4484 166.215 18.5805C167.436 19.4581 168.558 20.4642 169.564 21.5814C169.726 21.7443 169.817 21.9648 169.817 22.1946C169.817 22.4244 169.726 22.6448 169.564 22.8078C169.396 22.9611 169.174 23.0423 168.947 23.034V23.0427ZM141.417 21.0595C141.288 21.0586 141.162 21.0293 141.046 20.9737C140.93 20.918 140.828 20.8374 140.747 20.7376C140.674 20.6498 140.619 20.5483 140.585 20.439C140.551 20.3298 140.539 20.2149 140.549 20.101C140.56 19.987 140.593 19.8763 140.646 19.7751C140.699 19.6739 140.772 19.5842 140.86 19.5112C142.028 18.5528 143.297 17.7245 144.644 17.0409C144.746 16.9849 144.858 16.9499 144.974 16.9381C145.09 16.9262 145.207 16.9377 145.318 16.9719C145.429 17.006 145.533 17.0622 145.622 17.137C145.711 17.2118 145.784 17.3038 145.837 17.4074C145.89 17.511 145.922 17.6242 145.93 17.7403C145.939 17.8564 145.924 17.973 145.886 18.0832C145.849 18.1934 145.789 18.295 145.712 18.3819C145.635 18.4688 145.541 18.5393 145.435 18.5892C144.198 19.2195 143.031 19.9806 141.956 20.8594C141.804 20.9853 141.614 21.0559 141.417 21.0595ZM161.892 18.0673C161.776 18.0694 161.66 18.0457 161.553 17.9977C160.275 17.4635 158.942 17.0698 157.578 16.8235C157.347 16.7831 157.142 16.6527 157.008 16.4611C156.873 16.2694 156.82 16.0321 156.861 15.8014C156.901 15.5707 157.031 15.3655 157.223 15.231C157.415 15.0964 157.652 15.0435 157.883 15.0838C159.374 15.3559 160.832 15.7875 162.232 16.3712C162.416 16.4497 162.568 16.5894 162.661 16.7668C162.754 16.9441 162.783 17.1482 162.743 17.3445C162.703 17.5409 162.597 17.7174 162.442 17.8444C162.287 17.9713 162.093 18.0408 161.892 18.0412V18.0673ZM149.106 17.1453C148.875 17.1741 148.643 17.1101 148.459 16.9674C148.276 16.8247 148.156 16.6149 148.128 16.3842C148.099 16.1535 148.163 15.9208 148.305 15.7373C148.448 15.5538 148.658 15.4345 148.889 15.4057C150.354 15.035 151.857 14.8279 153.368 14.7881C153.599 14.7881 153.82 14.8797 153.983 15.0428C154.146 15.206 154.238 15.4272 154.238 15.6579C154.238 15.8886 154.146 16.1098 153.983 16.273C153.82 16.4361 153.599 16.5277 153.368 16.5277C151.98 16.58 150.601 16.7783 149.254 17.1192C149.205 17.1321 149.156 17.1409 149.106 17.1453Z" fill="#BAE1FD"/>
<path d="M167.285 58.8359L174.218 70.8481L181.159 58.8359H167.285Z" fill="#BAE1FD"/>
<path d="M162.779 42.3004V129.16C162.779 129.569 162.698 129.973 162.542 130.351C162.385 130.728 162.155 131.071 161.866 131.359C161.577 131.648 161.234 131.876 160.856 132.032C160.478 132.187 160.073 132.267 159.665 132.266H38.7166C37.893 132.266 37.1032 131.939 36.5208 131.356C35.9385 130.774 35.6113 129.984 35.6113 129.16V42.3091C35.6113 41.2563 36.0289 40.2466 36.7725 39.5013C37.5161 38.7561 38.525 38.3363 39.5777 38.334H158.804C159.325 38.3329 159.842 38.4346 160.324 38.6334C160.806 38.8322 161.245 39.1242 161.614 39.4926C161.983 39.8611 162.276 40.2987 162.476 40.7805C162.676 41.2623 162.779 41.7788 162.779 42.3004Z" fill="white"/>
<path d="M162.779 52.0075H35.6113V42.3004C35.6113 41.2484 36.0292 40.2395 36.7731 39.4957C37.5169 38.7519 38.5258 38.334 39.5777 38.334H158.804C159.856 38.334 160.866 38.7516 161.611 39.4952C162.357 40.2388 162.776 41.2476 162.779 42.3004V52.0075Z" fill="#0B3E66"/>
<path d="M57.4873 45.1705C57.4873 44.7559 57.6102 44.3506 57.8406 44.0059C58.0709 43.6611 58.3983 43.3924 58.7814 43.2338C59.1644 43.0751 59.5859 43.0336 59.9925 43.1145C60.3992 43.1954 60.7727 43.395 61.0658 43.6882C61.359 43.9814 61.5587 44.3549 61.6395 44.7615C61.7204 45.1682 61.6789 45.5896 61.5203 45.9727C61.3616 46.3557 61.0929 46.6831 60.7482 46.9135C60.4035 47.1438 59.9982 47.2667 59.5836 47.2667C59.0283 47.2645 58.4964 47.0429 58.1038 46.6502C57.7112 46.2576 57.4896 45.7257 57.4873 45.1705Z" fill="#D3D8EA"/>
<path d="M49.4072 45.1703C49.4055 44.7532 49.5277 44.3451 49.7584 43.9976C49.989 43.6501 50.3177 43.3789 50.7026 43.2185C51.0876 43.0581 51.5116 43.0157 51.9207 43.0967C52.3298 43.1776 52.7057 43.3783 53.0006 43.6732C53.2955 43.9681 53.4962 44.3439 53.5771 44.7531C53.6581 45.1622 53.6156 45.5862 53.4553 45.9711C53.2949 46.3561 53.0237 46.6848 52.6762 46.9154C52.3287 47.1461 51.9206 47.2683 51.5035 47.2665C50.9482 47.2643 50.4164 47.0427 50.0238 46.65C49.6311 46.2574 49.4095 45.7255 49.4072 45.1703Z" fill="#BAE1FD"/>
<path d="M41.3262 45.1703C41.3245 44.754 41.4462 44.3465 41.6761 43.9994C41.906 43.6523 42.2336 43.3811 42.6176 43.2202C43.0015 43.0593 43.4246 43.0159 43.8333 43.0954C44.2419 43.1749 44.6178 43.3739 44.9134 43.667C45.209 43.9602 45.411 44.3344 45.4939 44.7424C45.5768 45.1504 45.5369 45.5738 45.3792 45.9591C45.2215 46.3444 44.953 46.6742 44.6078 46.907C44.2626 47.1397 43.8562 47.2648 43.4398 47.2665C43.1634 47.2677 42.8895 47.2144 42.6337 47.1096C42.3778 47.0049 42.1451 46.8508 41.9489 46.6562C41.7526 46.4615 41.5966 46.2301 41.4897 45.9752C41.3829 45.7202 41.3273 45.4467 41.3262 45.1703Z" fill="white"/>
<path d="M152.776 43.6308L153.811 42.5957L155.299 44.0744L156.786 42.5957L157.821 43.6308L156.334 45.1182L157.821 46.6056L156.786 47.6407L155.299 46.1533L153.811 47.6407L152.776 46.6056L154.255 45.1182L152.776 43.6308Z" fill="white"/>
<path d="M78.4502 56.9648L78.5546 58.6523H106.667L106.563 56.9648H78.4502Z" fill="#D3D8EA"/>
<path d="M92.2373 62.0273L92.3504 63.7148H138.068L137.964 62.0273H92.2373Z" fill="#D3D8EA"/>
<path d="M78.5195 62.0273L78.6239 63.7148H90.2621L90.149 62.0273H78.5195Z" fill="#075085"/>
<path d="M78.3896 67.0898L78.494 68.7773H101.77L101.605 67.0898H78.3896Z" fill="#D3D8EA"/>
<path d="M103.223 67.0898L103.388 68.7773H126.186L126.09 67.0898H103.223Z" fill="#075085"/>
<path d="M58.036 67.0898L58.0273 68.7773H69.4655L69.4742 67.0898H58.036Z" fill="#D3D8EA"/>
<path d="M44.1357 62.0273L44.127 63.7148H62.7324V62.0273H44.1357Z" fill="#D3D8EA"/>
<path d="M64.8632 62.0273L64.8545 63.7148H69.5863L69.595 62.0273H64.8632Z" fill="#D3D8EA"/>
<path d="M60.3408 56.9648L60.3582 58.6523H69.7957L69.8131 56.9648H60.3408Z" fill="#BAE1FD"/>
<path d="M49.1552 56.9648L49.1465 58.6523H58.4448L58.4274 56.9648H49.1552Z" fill="#BAE1FD"/>
<path d="M57.8964 86.0352L57.8877 87.7226H69.3171L69.3345 86.0352H57.8964Z" fill="#D3D8EA"/>
<path d="M43.9969 80.9805L43.9795 82.6592H62.5849L62.5936 80.9805H43.9969Z" fill="#D3D8EA"/>
<path d="M64.7245 80.9805L64.7158 82.6592H69.4476L69.4563 80.9805H64.7245Z" fill="#D3D8EA"/>
<path d="M57.7138 96.6992L57.7051 98.378H69.1345L69.1519 96.6992H57.7138Z" fill="#D3D8EA"/>
<path d="M43.8144 91.6367L43.8057 93.3155H62.4024L62.4111 91.6367H43.8144Z" fill="#F0F8FF"/>
<path d="M64.5419 91.6367L64.5332 93.3155H69.265L69.2737 91.6367H64.5419Z" fill="#F0F8FF"/>
<path d="M60.2012 75.9199L60.2186 77.5987H69.6561L69.6648 75.9199H60.2012Z" fill="#F0F8FF"/>
<path d="M49.0155 75.9199L49.0068 77.5987H58.3052L58.2878 75.9199H49.0155Z" fill="#BAE1FD"/>
<path d="M109.45 56.9648L109.555 58.6523H118.087L117.983 56.9648H109.45Z" fill="#075085"/>
<path d="M140.912 62.0273L141.008 63.7148H154.664L154.56 62.0273H140.912Z" fill="#D3D8EA"/>
<path d="M128.7 67.0898L128.796 68.7773H142.643L142.539 67.0898H128.7Z" fill="#D3D8EA"/>
<path d="M121.811 56.9648L122.011 58.6523H146.122L145.922 56.9648H121.811Z" fill="#D3D8EA"/>
<path d="M78.3115 75.9199L78.4072 77.5987H106.52L106.424 75.9199H78.3115Z" fill="#D3D8EA"/>
<path d="M92.0977 80.9805L92.202 82.6592H137.928L137.824 80.9805H92.0977Z" fill="#D3D8EA"/>
<path d="M78.3809 80.9805L78.4852 82.6592H90.1234L90.0103 80.9805H78.3809Z" fill="#D3D8EA"/>
<path d="M78.25 86.0352L78.3544 87.7226H101.631L101.457 86.0352H78.25Z" fill="#D3D8EA"/>
<path d="M103.083 86.0352L103.248 87.7226H126.046L125.951 86.0352H103.083Z" fill="#D3D8EA"/>
<path d="M109.312 75.9199L109.416 77.5987H117.949L117.844 75.9199H109.312Z" fill="#D3D8EA"/>
<path d="M140.772 80.9805L140.868 82.6592H154.524L154.42 80.9805H140.772Z" fill="#D3D8EA"/>
<path d="M128.561 86.0352L128.656 87.7226H142.504L142.399 86.0352H128.561Z" fill="#075085"/>
<path d="M92.4805 91.6367L92.5848 93.3155H138.303L138.207 91.6367H92.4805Z" fill="#D3D8EA"/>
<path d="M78.7637 91.6367L78.8681 93.3155H90.4975L90.3931 91.6367H78.7637Z" fill="#D3D8EA"/>
<path d="M78.6328 96.6992L78.7372 98.378H102.005L101.84 96.6992H78.6328Z" fill="#D3D8EA"/>
<path d="M103.467 96.6992L103.632 98.378H126.43L126.326 96.6992H103.467Z" fill="#075085"/>
<path d="M141.146 91.6367L141.251 93.3155H154.907L154.803 91.6367H141.146Z" fill="#075085"/>
<path d="M128.935 96.6992L129.039 98.378H142.886L142.782 96.6992H128.935Z" fill="#D3D8EA"/>
<path d="M121.663 75.9199L121.863 77.5987H145.975L145.774 75.9199H121.663Z" fill="#075085"/>
<path d="M57.5223 114.131L57.5049 115.81H68.943L68.9604 114.131H57.5223Z" fill="#D3D8EA"/>
<path d="M43.6142 109.068L43.6055 110.747H62.2109L62.2196 109.068H43.6142Z" fill="#D3D8EA"/>
<path d="M64.3505 109.068L64.3418 110.747H69.0736L69.0823 109.068H64.3505Z" fill="#D3D8EA"/>
<path d="M57.3397 124.785L57.3223 126.464H68.7604L68.7778 124.785H57.3397Z" fill="#D3D8EA"/>
<path d="M43.4402 119.723L43.4229 121.41H62.0283L62.037 119.723H43.4402Z" fill="#F0F8FF"/>
<path d="M64.1679 119.723L64.1592 121.41H68.891L68.8997 119.723H64.1679Z" fill="#BAE1FD"/>
<path d="M59.8271 104.006L59.8445 105.685H69.2821L69.2908 104.006H59.8271Z" fill="#F0F8FF"/>
<path d="M48.6414 104.006L48.624 105.685H57.9311L57.9137 104.006H48.6414Z" fill="#BAE1FD"/>
<path d="M77.9287 104.006L78.0331 105.685H106.146L106.05 104.006H77.9287Z" fill="#D3D8EA"/>
<path d="M91.7236 109.068L91.828 110.747H137.546L137.45 109.068H91.7236Z" fill="#D3D8EA"/>
<path d="M78.0068 109.068L78.1112 110.747H89.7407L89.6363 109.068H78.0068Z" fill="#D3D8EA"/>
<path d="M77.876 114.131L77.9804 115.81H101.248L101.083 114.131H77.876Z" fill="#D3D8EA"/>
<path d="M102.71 114.131L102.875 115.81H125.673L125.569 114.131H102.71Z" fill="#D3D8EA"/>
<path d="M108.938 104.006L109.042 105.685H117.575L117.47 104.006H108.938Z" fill="#D3D8EA"/>
<path d="M140.39 109.068L140.494 110.747H154.15L154.046 109.068H140.39Z" fill="#D3D8EA"/>
<path d="M128.178 114.131L128.282 115.81H142.13L142.025 114.131H128.178Z" fill="#075085"/>
<path d="M92.0977 119.723L92.2107 121.41H137.928L137.833 119.723H92.0977Z" fill="#D3D8EA"/>
<path d="M78.3896 119.723L78.4853 121.41H90.1235L90.0191 119.723H78.3896Z" fill="#D3D8EA"/>
<path d="M78.2588 124.785L78.3632 126.464H101.631L101.466 124.785H78.2588Z" fill="#D3D8EA"/>
<path d="M103.092 124.785L103.257 126.464H126.055L125.951 124.785H103.092Z" fill="#075085"/>
<path d="M140.772 119.723L140.877 121.41H154.533L154.429 119.723H140.772Z" fill="#075085"/>
<path d="M128.561 124.785L128.665 126.464H142.504L142.408 124.785H128.561Z" fill="#D3D8EA"/>
<path d="M121.289 104.006L121.489 105.685H145.6L145.4 104.006H121.289Z" fill="#075085"/>
<path d="M204.431 80.6697L138.203 80.7969L138.43 199.118L204.658 198.991L204.431 80.6697Z" fill="#D3D8EA"/>
<path d="M204.252 80.8421L204.479 198.807L138.598 198.946L138.372 80.9725L204.252 80.8421ZM204.6 80.4941L138.024 80.6246L138.251 199.294L204.826 199.163L204.6 80.4941Z" fill="#1D1D2C"/>
<path d="M140.32 76.0841L178.81 76.3102V81.303H159.317L145.4 81.3812C143.152 81.3859 140.998 82.2826 139.411 83.8744C137.824 85.4662 136.934 87.623 136.937 89.8707L137.119 186.542C137.121 187.656 137.343 188.758 137.772 189.785C138.2 190.813 138.827 191.746 139.616 192.531C140.405 193.316 141.341 193.938 142.371 194.361C143.401 194.784 144.504 195 145.617 194.997L179.001 195.067V205.565L140.503 205.922C139.39 205.925 138.287 205.709 137.258 205.286C136.229 204.863 135.293 204.241 134.504 203.455C133.716 202.67 133.09 201.737 132.663 200.709C132.235 199.682 132.014 198.58 132.013 197.467L131.796 84.5387C131.8 83.4238 132.025 82.3208 132.455 81.2926C132.886 80.2643 133.515 79.331 134.307 78.5459C135.099 77.7608 136.037 77.1394 137.069 76.7169C138.1 76.2945 139.205 76.0795 140.32 76.0841Z" fill="#1D1D2C"/>
<path d="M135.319 84.5118V197.44C135.319 199.59 136.136 201.659 137.604 203.229C139.072 204.798 141.082 205.752 143.226 205.895H143.8H202.948C203.669 205.896 204.383 205.755 205.05 205.479C205.716 205.204 206.321 204.8 206.831 204.29C207.341 203.78 207.745 203.175 208.021 202.508C208.296 201.842 208.437 201.127 208.436 200.406V81.5109C208.436 80.053 207.857 78.6547 206.826 77.6238C205.795 76.5928 204.397 76.0137 202.939 76.0137H143.791H143.2C141.054 76.168 139.047 77.1312 137.584 78.7088C136.121 80.2863 135.312 82.3604 135.319 84.5118ZM140.417 86.8777C140.417 85.4197 140.996 84.0215 142.027 82.9906C143.058 81.9596 144.456 81.3804 145.914 81.3804H197.885C198.606 81.3804 199.32 81.5224 199.986 81.7982C200.652 82.0741 201.257 82.4784 201.766 82.988C202.276 83.4977 202.68 84.1027 202.956 84.7686C203.232 85.4345 203.374 86.1482 203.374 86.869V189.508C203.374 190.228 203.232 190.942 202.956 191.608C202.68 192.274 202.276 192.879 201.766 193.389C201.257 193.898 200.652 194.303 199.986 194.578C199.32 194.854 198.606 194.996 197.885 194.996H145.931C144.475 194.996 143.078 194.418 142.047 193.389C141.016 192.36 140.436 190.964 140.434 189.508L140.417 86.8777Z" fill="#0B3E66"/>
<path d="M164.971 203.008H179.089C179.77 202.992 180.418 202.71 180.895 202.222C181.371 201.735 181.637 201.08 181.637 200.398C181.637 200.062 181.571 199.729 181.442 199.419C181.312 199.109 181.123 198.827 180.885 198.59C180.646 198.353 180.363 198.166 180.052 198.039C179.741 197.912 179.407 197.847 179.071 197.85H164.963C164.626 197.85 164.293 197.916 163.982 198.045C163.671 198.174 163.389 198.363 163.151 198.602C162.914 198.84 162.726 199.123 162.598 199.434C162.47 199.746 162.404 200.079 162.406 200.416C162.401 200.755 162.464 201.092 162.591 201.407C162.718 201.722 162.906 202.008 163.145 202.25C163.384 202.491 163.669 202.682 163.982 202.812C164.296 202.942 164.632 203.009 164.971 203.008Z" fill="#1D1D2C"/>
<path d="M140.416 88.7837H203.399V83.443C203.399 83.1556 203.343 82.871 203.232 82.6055C203.122 82.3401 202.961 82.099 202.757 81.8962C202.553 81.6933 202.312 81.5327 202.046 81.4235C201.78 81.3143 201.495 81.2586 201.208 81.2598H142.599C142.312 81.2586 142.027 81.3143 141.761 81.4235C141.495 81.5327 141.253 81.6933 141.05 81.8962C140.846 82.099 140.685 82.3401 140.574 82.6055C140.464 82.871 140.407 83.1556 140.407 83.443L140.416 88.7837Z" fill="#1D1D2C"/>
<path d="M199.86 84.1728L199.286 83.6074L198.468 84.425L197.65 83.6074L197.076 84.1728L197.894 84.9904L197.076 85.8081L197.65 86.3821L198.468 85.5645L199.286 86.3821L199.86 85.8081L199.042 84.9904L199.86 84.1728Z" fill="white"/>
<path d="M152.611 85.0182C152.611 84.7894 152.679 84.5657 152.806 84.3755C152.933 84.1852 153.114 84.0369 153.325 83.9494C153.537 83.8618 153.769 83.8389 153.994 83.8836C154.218 83.9282 154.424 84.0384 154.586 84.2002C154.748 84.362 154.858 84.5681 154.903 84.7925C154.947 85.0169 154.925 85.2495 154.837 85.4609C154.749 85.6723 154.601 85.853 154.411 85.9801C154.221 86.1072 153.997 86.175 153.768 86.175C153.461 86.175 153.167 86.0532 152.95 85.8362C152.733 85.6193 152.611 85.325 152.611 85.0182Z" fill="white"/>
<path d="M148.166 85.0182C148.166 84.7894 148.234 84.5657 148.361 84.3755C148.488 84.1852 148.669 84.0369 148.88 83.9494C149.092 83.8618 149.324 83.8389 149.549 83.8836C149.773 83.9282 149.979 84.0384 150.141 84.2002C150.303 84.362 150.413 84.5681 150.458 84.7925C150.502 85.0169 150.479 85.2495 150.392 85.4609C150.304 85.6723 150.156 85.853 149.966 85.9801C149.775 86.1072 149.552 86.175 149.323 86.175C149.171 86.1762 149.02 86.1471 148.879 86.0893C148.738 86.0316 148.61 85.9464 148.502 85.8388C148.395 85.7311 148.309 85.6031 148.252 85.4623C148.194 85.3214 148.165 85.1704 148.166 85.0182Z" fill="#D3D8EA"/>
<path d="M143.722 85.0182C143.722 84.7894 143.79 84.5657 143.917 84.3755C144.044 84.1852 144.224 84.0369 144.436 83.9494C144.647 83.8618 144.88 83.8389 145.104 83.8836C145.329 83.9282 145.535 84.0384 145.697 84.2002C145.858 84.362 145.969 84.5681 146.013 84.7925C146.058 85.0169 146.035 85.2495 145.947 85.4609C145.86 85.6723 145.712 85.853 145.521 85.9801C145.331 86.1072 145.107 86.175 144.879 86.175C144.726 86.1762 144.575 86.1471 144.434 86.0893C144.294 86.0316 144.166 85.9464 144.058 85.8388C143.95 85.7311 143.865 85.6031 143.807 85.4623C143.75 85.3214 143.721 85.1704 143.722 85.0182Z" fill="#BAE1FD"/>
<path d="M203.4 189.5C203.4 190.957 202.822 192.354 201.793 193.384C200.764 194.415 199.368 194.995 197.912 194.997H158.117C156.659 194.997 155.261 194.418 154.23 193.387C153.199 192.356 152.62 190.958 152.62 189.5V86.8616C152.619 86.1405 152.76 85.4263 153.036 84.7599C153.311 84.0935 153.715 83.4879 154.225 82.9781C154.735 82.4682 155.341 82.0639 156.007 81.7885C156.673 81.5131 157.388 81.3719 158.109 81.3731H197.912C199.368 81.3754 200.764 81.9555 201.793 82.9862C202.822 84.0169 203.4 85.4138 203.4 86.8703V189.5Z" fill="url(#paint0_linear_2117_11553)"/>
<path d="M174.461 87.7578L174.504 89.1495H186.125L186.082 87.7578H174.461Z" fill="#D3D8EA"/>
<path d="M180.158 91.959L180.202 93.3507H199.103L199.059 91.959H180.158Z" fill="#D3D8EA"/>
<path d="M174.487 91.959L174.531 93.3507H179.341L179.297 91.959H174.487Z" fill="#075085"/>
<path d="M174.435 96.1504L174.478 97.5508H184.098L184.029 96.1504H174.435Z" fill="#D3D8EA"/>
<path d="M184.698 96.1504L184.768 97.5508H194.197L194.153 96.1504H184.698Z" fill="#075085"/>
<path d="M164.145 96.1504V97.5508H169.946L169.955 96.1504H164.145Z" fill="#D3D8EA"/>
<path d="M157.091 91.959L157.082 93.3507H166.528L166.537 91.959H157.091Z" fill="#D3D8EA"/>
<path d="M167.615 91.959L167.606 93.3507H170.016V91.959H167.615Z" fill="#D3D8EA"/>
<path d="M165.319 87.7578L165.328 89.1495H170.121L170.129 87.7578H165.319Z" fill="#F0F8FF"/>
<path d="M159.639 87.7578L159.63 89.1495H164.353L164.344 87.7578H159.639Z" fill="#BAE1FD"/>
<path d="M164.075 111.869L164.066 113.27H169.877L169.885 111.869H164.075Z" fill="#D3D8EA"/>
<path d="M157.02 107.676L157.012 109.067H166.458V107.676H157.02Z" fill="#D3D8EA"/>
<path d="M167.546 107.676L167.537 109.067H169.938L169.947 107.676H167.546Z" fill="#D3D8EA"/>
<path d="M163.979 120.715V122.107H169.781L169.79 120.715H163.979Z" fill="#D3D8EA"/>
<path d="M156.926 116.514L156.917 117.914H166.363L166.372 116.514H156.926Z" fill="#F0F8FF"/>
<path d="M167.45 116.514V117.914H169.851V116.514H167.45Z" fill="#F0F8FF"/>
<path d="M165.249 103.475L165.258 104.866H170.05V103.475H165.249Z" fill="#BAE1FD"/>
<path d="M159.569 103.475L159.561 104.866H164.284L164.275 103.475H159.569Z" fill="#BAE1FD"/>
<path d="M187.273 87.7578L187.317 89.1495H190.848L190.805 87.7578H187.273Z" fill="#075085"/>
<path d="M195.232 96.1504L195.276 97.5508H200.999L200.956 96.1504H195.232Z" fill="#D3D8EA"/>
<path d="M192.388 87.7578L192.466 89.1495H202.434L202.347 87.7578H192.388Z" fill="#D3D8EA"/>
<path d="M174.399 103.475L174.443 104.866H186.064L186.02 103.475H174.399Z" fill="#D3D8EA"/>
<path d="M180.098 107.676L180.141 109.067H199.051L199.008 107.676H180.098Z" fill="#D3D8EA"/>
<path d="M174.426 107.676L174.469 109.067H179.279L179.236 107.676H174.426Z" fill="#D3D8EA"/>
<path d="M174.374 111.869L174.418 113.27H184.038L183.968 111.869H174.374Z" fill="#D3D8EA"/>
<path d="M184.638 111.869L184.707 113.27H194.136L194.093 111.869H184.638Z" fill="#D3D8EA"/>
<path d="M187.221 103.475L187.256 104.866H190.787L190.743 103.475H187.221Z" fill="#D3D8EA"/>
<path d="M195.171 111.869L195.214 113.27H200.938L200.894 111.869H195.171Z" fill="#075085"/>
<path d="M180.254 116.514L180.297 117.914H199.207L199.164 116.514H180.254Z" fill="#D3D8EA"/>
<path d="M174.592 116.514L174.627 117.914H179.445L179.393 116.514H174.592Z" fill="#D3D8EA"/>
<path d="M174.53 120.715L174.574 122.107H184.194L184.133 120.715H174.53Z" fill="#D3D8EA"/>
<path d="M184.803 120.715L184.864 122.107H194.292L194.249 120.715H184.803Z" fill="#075085"/>
<path d="M195.328 120.715L195.372 122.107H201.095L201.052 120.715H195.328Z" fill="#D3D8EA"/>
<path d="M192.327 103.475L192.405 104.866H202.374L202.295 103.475H192.327Z" fill="#075085"/>
<path d="M163.884 135.18L163.875 136.571H169.685L169.694 135.18H163.884Z" fill="#D3D8EA"/>
<path d="M156.83 130.979L156.821 132.37H166.268V130.979H156.83Z" fill="#D3D8EA"/>
<path d="M167.354 130.979L167.346 132.37H169.746L169.755 130.979H167.354Z" fill="#D3D8EA"/>
<path d="M163.797 144.018L163.788 145.418H169.59L169.598 144.018H163.797Z" fill="#D3D8EA"/>
<path d="M156.734 139.816V141.217H166.172L166.181 139.816H156.734Z" fill="#F0F8FF"/>
<path d="M167.259 139.816V141.217H169.659L169.668 139.816H167.259Z" fill="#F0F8FF"/>
<path d="M165.058 126.777L165.066 128.169H169.859V126.777H165.058Z" fill="#BAE1FD"/>
<path d="M159.378 126.777L159.369 128.169H164.092L164.084 126.777H159.378Z" fill="#BAE1FD"/>
<path d="M174.243 126.777L174.287 128.169H185.907L185.864 126.777H174.243Z" fill="#D3D8EA"/>
<path d="M179.94 130.979L179.993 132.37H198.894L198.85 130.979H179.94Z" fill="#D3D8EA"/>
<path d="M174.278 130.979L174.313 132.37H179.132L179.08 130.979H174.278Z" fill="#D3D8EA"/>
<path d="M174.217 135.18L174.26 136.571H183.88L183.811 135.18H174.217Z" fill="#D3D8EA"/>
<path d="M184.49 135.18L184.56 136.571H193.98L193.936 135.18H184.49Z" fill="#D3D8EA"/>
<path d="M187.064 126.777L187.108 128.169H190.631L190.587 126.777H187.064Z" fill="#D3D8EA"/>
<path d="M195.015 135.18L195.058 136.571H200.782L200.738 135.18H195.015Z" fill="#075085"/>
<path d="M180.105 139.816L180.149 141.217H199.05L199.007 139.816H180.105Z" fill="#D3D8EA"/>
<path d="M174.435 139.816L174.478 141.217H179.288L179.236 139.816H174.435Z" fill="#D3D8EA"/>
<path d="M174.383 144.018L174.418 145.418H184.046L183.977 144.018H174.383Z" fill="#D3D8EA"/>
<path d="M184.646 144.018L184.716 145.418H194.136L194.101 144.018H184.646Z" fill="#075085"/>
<path d="M195.171 144.018L195.214 145.418H200.938L200.894 144.018H195.171Z" fill="#D3D8EA"/>
<path d="M192.17 126.777L192.257 128.169H202.225L202.138 126.777H192.17Z" fill="#075085"/>
<path d="M164.075 160.848L164.066 162.248H169.877L169.885 160.848H164.075Z" fill="#D3D8EA"/>
<path d="M157.02 156.646L157.012 158.047H166.458V156.646H157.02Z" fill="#D3D8EA"/>
<path d="M167.546 156.646L167.537 158.047H169.938L169.947 156.646H167.546Z" fill="#D3D8EA"/>
<path d="M163.979 169.693V171.085H169.781L169.79 169.693H163.979Z" fill="#D3D8EA"/>
<path d="M156.926 165.492L156.917 166.884H166.363L166.372 165.492H156.926Z" fill="#BAE1FD"/>
<path d="M167.45 165.492V166.884H169.851V165.492H167.45Z" fill="#BAE1FD"/>
<path d="M165.249 152.453L165.258 153.845H170.05V152.453H165.249Z" fill="#BAE1FD"/>
<path d="M159.569 152.453L159.561 153.845H164.284L164.275 152.453H159.569Z" fill="#BAE1FD"/>
<path d="M174.399 152.453L174.443 153.845H186.064L186.02 152.453H174.399Z" fill="#D3D8EA"/>
<path d="M180.098 156.646L180.141 158.047H199.051L199.008 156.646H180.098Z" fill="#D3D8EA"/>
<path d="M174.426 156.646L174.469 158.047H179.279L179.236 156.646H174.426Z" fill="#D3D8EA"/>
<path d="M174.374 160.848L174.418 162.248H184.038L183.968 160.848H174.374Z" fill="#D3D8EA"/>
<path d="M184.638 160.848L184.707 162.248H194.136L194.093 160.848H184.638Z" fill="#D3D8EA"/>
<path d="M187.221 152.453L187.256 153.845H190.787L190.743 152.453H187.221Z" fill="#D3D8EA"/>
<path d="M195.171 160.848L195.214 162.248H200.938L200.894 160.848H195.171Z" fill="#075085"/>
<path d="M180.254 165.492L180.297 166.884H199.207L199.164 165.492H180.254Z" fill="#D3D8EA"/>
<path d="M174.592 165.492L174.627 166.884H179.445L179.393 165.492H174.592Z" fill="#D3D8EA"/>
<path d="M174.53 169.693L174.574 171.085H184.194L184.133 169.693H174.53Z" fill="#D3D8EA"/>
<path d="M184.803 169.693L184.864 171.085H194.292L194.249 169.693H184.803Z" fill="#075085"/>
<path d="M195.328 169.693L195.372 171.085H201.095L201.052 169.693H195.328Z" fill="#D3D8EA"/>
<path d="M192.327 152.453L192.405 153.845H202.374L202.295 152.453H192.327Z" fill="#075085"/>
<path d="M163.884 184.15L163.875 185.551H169.685L169.694 184.15H163.884Z" fill="#D3D8EA"/>
<path d="M156.83 179.949L156.821 181.35H166.268V179.949H156.83Z" fill="#D3D8EA"/>
<path d="M167.354 179.949L167.346 181.35H169.746L169.755 179.949H167.354Z" fill="#D3D8EA"/>
<path d="M156.734 188.797V190.189H166.172L166.181 188.797H156.734Z" fill="#BAE1FD"/>
<path d="M167.259 188.797V190.189H169.659L169.668 188.797H167.259Z" fill="#F0F8FF"/>
<path d="M165.058 175.758L165.066 177.15H169.859V175.758H165.058Z" fill="#BAE1FD"/>
<path d="M159.378 175.758L159.369 177.15H164.092L164.084 175.758H159.378Z" fill="#BAE1FD"/>
<path d="M174.243 175.758L174.287 177.15H185.907L185.864 175.758H174.243Z" fill="#D3D8EA"/>
<path d="M179.94 179.949L179.993 181.35H198.894L198.85 179.949H179.94Z" fill="#D3D8EA"/>
<path d="M174.278 179.949L174.313 181.35H179.132L179.08 179.949H174.278Z" fill="#D3D8EA"/>
<path d="M174.217 184.15L174.26 185.551H183.88L183.811 184.15H174.217Z" fill="#D3D8EA"/>
<path d="M184.49 184.15L184.56 185.551H193.98L193.936 184.15H184.49Z" fill="#D3D8EA"/>
<path d="M187.064 175.758L187.108 177.15H190.631L190.587 175.758H187.064Z" fill="#D3D8EA"/>
<path d="M195.015 184.15L195.058 185.551H200.782L200.738 184.15H195.015Z" fill="#075085"/>
<path d="M180.105 188.797L180.149 190.189H199.05L199.007 188.797H180.105Z" fill="#D3D8EA"/>
<path d="M174.435 188.797L174.478 190.189H179.288L179.236 188.797H174.435Z" fill="#D3D8EA"/>
<defs>
<linearGradient id="paint0_linear_2117_11553" x1="154.516" y1="150.367" x2="258.729" y2="96.3339" gradientUnits="userSpaceOnUse">
<stop stop-color="white"/>
<stop offset="1" stop-color="#D3DBEB"/>
</linearGradient>
</defs>
</svg>
