<svg width="277" height="205" viewBox="0 0 277 205" fill="none" xmlns="http://www.w3.org/2000/svg">
<path d="M227.735 188.951H53.9741V190.269H227.735V188.951Z" fill="black"/>
<path d="M91.9122 129.93H75.5889V121.004H91.9122V129.93ZM76.5227 129.014H90.9784V121.919H76.5227V129.014Z" fill="#AAB6C2"/>
<path d="M80.734 137.94H64.4107V128.995H80.734V137.94ZM65.3537 137.024H79.8002V129.956H65.3537V137.024Z" fill="#AAB6C2"/>
<path d="M132.148 53.0919H115.834V44.1475H132.148V53.0919ZM116.768 52.1764H131.214V45.0813H116.768V52.1764Z" fill="#AAB6C2"/>
<path d="M160.831 151.801H144.517V142.856H160.831V151.801ZM145.45 150.885H159.897V143.809H145.45V150.885Z" fill="#AAB6C2"/>
<path d="M145.432 151.801H129.127V142.856H145.45L145.432 151.801ZM130.052 150.885H144.498V143.809H130.043L130.052 150.885Z" fill="#AAB6C2"/>
<path d="M153.141 159.801H136.826V150.866H153.141V159.801ZM137.76 158.886H152.207V151.818H137.76V158.886Z" fill="#AAB6C2"/>
<path d="M147.538 93.8868H131.214V84.9424H147.538V93.8868ZM132.148 92.9713H146.595V85.8762H132.148V92.9713Z" fill="#AAB6C2"/>
<path d="M158.707 101.887H142.393V92.9521H158.707V101.887ZM143.326 100.972H157.773V93.9043H143.326V100.972Z" fill="#AAB6C2"/>
<path d="M211.769 63.5928H195.445V54.6484H211.769V63.5928ZM196.379 62.6773H210.826V55.5822H196.379V62.6773Z" fill="#AAB6C2"/>
<path d="M196.361 63.5928H180.047V54.6484H196.361V63.5928ZM180.981 62.6773H195.427V55.5822H180.981V62.6773Z" fill="#AAB6C2"/>
<path d="M204.07 71.567H187.719V62.6592H204.033L204.07 71.567ZM188.689 70.6515H203.136V63.593H188.689V70.6515Z" fill="#AAB6C2"/>
<path d="M160.51 106.043H135.572V183.997H160.51V106.043Z" fill="#AAB6C2"/>
<path d="M160.51 148.303H135.572V160.003H160.51V148.303Z" fill="black"/>
<path d="M223.194 54.3729V142.975C223.196 145.022 222.578 147.023 221.423 148.713C220.268 150.404 218.63 151.707 216.722 152.45C215.553 152.9 214.312 153.133 213.06 153.137H65.7565C63.0614 153.137 60.4766 152.066 58.5709 150.16C56.6651 148.254 55.5945 145.67 55.5945 142.975V54.3729C55.5969 51.6786 56.6683 49.0952 58.5735 47.19C60.4788 45.2848 63.0621 44.2134 65.7565 44.2109H213.032H213.646C216.23 44.3672 218.657 45.504 220.432 47.3891C222.206 49.2743 223.194 51.7656 223.194 54.3546V54.3729Z" fill="black"/>
<path d="M229.612 54.3729V142.975C229.611 143.779 229.516 144.581 229.328 145.364C228.795 147.581 227.53 149.555 225.738 150.965C223.946 152.375 221.73 153.14 219.45 153.137H72.0001C69.3337 153.093 66.7911 152.004 64.9208 150.103C63.0506 148.202 62.0026 145.641 62.0029 142.975V54.3729C62.0029 53.0377 62.2661 51.7155 62.7773 50.482C63.2886 49.2485 64.0379 48.1278 64.9825 47.1841C65.9271 46.2403 67.0485 45.492 68.2824 44.9819C69.5164 44.4717 70.8388 44.2097 72.1741 44.2109H219.45C219.697 44.2109 219.953 44.2109 220.201 44.2109C222.764 44.4008 225.159 45.5547 226.906 47.4402C228.652 49.3258 229.619 51.803 229.612 54.3729Z" fill="#AAB6C2"/>
<path d="M73.1445 50.1709H218.461C218.986 50.1709 219.505 50.2745 219.989 50.4758C220.474 50.6771 220.914 50.9721 221.284 51.3438C221.654 51.7155 221.947 52.1567 222.146 52.642C222.345 53.1273 222.446 53.6471 222.444 54.1716V143.204C222.444 144.26 222.024 145.273 221.277 146.02C220.53 146.766 219.517 147.186 218.461 147.186H73.1445C72.0883 147.186 71.0753 146.766 70.3285 146.02C69.5817 145.273 69.1621 144.26 69.1621 143.204V54.1716C69.1585 53.6468 69.2588 53.1264 69.4575 52.6406C69.6561 52.1547 69.949 51.7131 70.3193 51.3411C70.6896 50.9691 71.1299 50.6742 71.6148 50.4733C72.0997 50.2725 72.6196 50.1697 73.1445 50.1709Z" fill="white"/>
<path d="M218.461 50.4001C219.455 50.4001 220.408 50.7943 221.112 51.4963C221.816 52.1982 222.212 53.1506 222.215 54.1445V143.176C222.212 144.171 221.816 145.125 221.113 145.828C220.409 146.531 219.456 146.928 218.461 146.93H73.1444C72.1505 146.928 71.1981 146.531 70.4962 145.827C69.7942 145.124 69.4 144.17 69.4 143.176V54.172C69.4 53.1789 69.7945 52.2265 70.4967 51.5243C71.199 50.8221 72.1514 50.4276 73.1444 50.4276L218.461 50.4001ZM218.461 49.9424H73.1444C72.5899 49.9412 72.0407 50.0499 71.5285 50.2624C71.0163 50.4748 70.5514 50.7868 70.1606 51.1801C69.7698 51.5735 69.4609 52.0405 69.2518 52.554C69.0426 53.0676 68.9375 53.6175 68.9423 54.172V143.204C68.9411 143.757 69.0489 144.304 69.2595 144.815C69.4702 145.326 69.7795 145.79 70.1698 146.181C70.5602 146.572 71.0238 146.883 71.5342 147.094C72.0446 147.306 72.5918 147.415 73.1444 147.415H218.461C219.578 147.415 220.649 146.972 221.439 146.182C222.229 145.392 222.672 144.321 222.672 143.204V54.172C222.672 53.6194 222.563 53.0722 222.352 52.5618C222.14 52.0514 221.829 51.5877 221.438 51.1974C221.047 50.8071 220.583 50.4977 220.072 50.2871C219.561 50.0765 219.014 49.9687 218.461 49.9699V49.9424Z" fill="black"/>
<path d="M78.6466 98.519C77.9397 98.5222 77.2435 98.3458 76.6234 98.0064L76.9713 97.3655C77.4866 97.6416 78.062 97.7863 78.6466 97.7866H79.6903V98.519H78.6466ZM82.5833 98.519V97.7958H85.522V98.5282L82.5833 98.519ZM88.4608 98.519V97.7958H91.3995V98.5282L88.4608 98.519ZM94.3291 98.519V97.7866H97.2678V98.5099L94.3291 98.519ZM100.197 98.519V97.7866H103.127V98.5099L100.197 98.519ZM106.066 98.519V97.7866H108.986V98.5099L106.066 98.519ZM111.934 98.519V97.7866H114.845V98.1437V98.5099L111.934 98.519ZM117.766 97.3381L117.262 96.8162C117.906 96.1912 118.283 95.3416 118.315 94.4451H119.047C118.999 95.5203 118.541 96.5362 117.766 97.2831V97.3381ZM74.6185 95.6535C74.4907 95.2352 74.426 94.8001 74.4262 94.3627V92.6233H75.1128V94.3627C75.1117 94.7231 75.1673 95.0815 75.2776 95.4247L74.6185 95.6535ZM118.315 91.5247V88.5951H119.057V91.5247H118.315ZM74.4171 89.6937V86.7H75.1128V89.6296L74.4171 89.6937ZM118.306 85.6563V82.7267H119.057V85.6563H118.306ZM74.3621 83.8253V80.8317H75.1128V83.7613L74.3621 83.8253ZM118.306 79.788V76.8584H119.057V79.788H118.306ZM74.3621 77.957V75.0274H75.1128V77.957H74.3621ZM118.306 73.9288V70.9992H119.057V73.9288H118.306ZM74.3621 72.0978V69.095H75.1128V72.0246L74.3621 72.0978ZM118.26 68.0697V65.0668H119.057V67.9964L118.26 68.0697ZM74.3163 66.2387V63.3091H75.1128V66.2387H74.3163ZM118.26 62.2105V60.3703C118.272 60.0185 118.232 59.6669 118.141 59.3267L118.837 59.107C118.965 59.5126 119.03 59.9357 119.029 60.3612V62.1281L118.26 62.2105ZM75.1128 60.3063H74.3804C74.4218 59.2233 74.8774 58.1976 75.653 57.4408L76.1565 57.9626C75.5219 58.5818 75.1485 59.4204 75.1128 60.3063ZM116.475 57.3217C115.953 57.0468 115.371 56.9083 114.781 56.9189H113.793V56.1957H114.781C115.495 56.197 116.196 56.3763 116.823 56.7175L116.475 57.3217ZM78.5826 56.9189V56.5527V56.1865H81.5213V56.9189H78.5826ZM84.4509 56.9189V56.1957H87.3805V56.9189H84.4509ZM90.3192 56.9189V56.1957H93.2488V56.9189H90.3192ZM96.1692 56.9189V56.1865H99.0988V56.9189H96.1692ZM102.038 56.9189V56.1957H104.967V56.9189H102.038ZM107.906 56.9189V56.1957H110.817V56.9189H107.906Z" fill="#075085"/>
<path d="M127.516 98.519C126.812 98.5211 126.119 98.3447 125.502 98.0064L125.85 97.3655C126.361 97.6427 126.934 97.7874 127.516 97.7866H128.523V98.519H127.516ZM131.462 98.519V97.7958H134.4V98.5282L131.462 98.519ZM137.33 98.519V97.7958H140.269V98.5282L137.33 98.519ZM143.198 98.519V97.7866H146.137V98.5099L143.198 98.519ZM149.067 98.519V97.7866H152.014V98.5099L149.067 98.519ZM154.935 98.519V97.7866H157.874V98.5099L154.935 98.519ZM160.803 98.519V97.7866H163.714V98.1437V98.5099L160.803 98.519ZM166.644 97.3381L166.131 96.8162C166.778 96.1921 167.158 95.3427 167.193 94.4451H167.926C167.879 95.5169 167.427 96.5311 166.662 97.2831L166.644 97.3381ZM123.497 95.6535C123.366 95.2356 123.298 94.8006 123.295 94.3627V92.6233H124.028V94.3627C124.027 94.7231 124.082 95.0815 124.193 95.4247L123.497 95.6535ZM167.193 91.5247V88.5951H167.917V91.5247H167.193ZM123.25 89.6937V86.7H123.982V89.6296L123.25 89.6937ZM167.148 85.6563V82.7267H167.871V85.6563H167.148ZM123.25 83.8253V80.8317H123.982V83.7613L123.25 83.8253ZM167.138 79.788V76.8584H167.862V79.788H167.138ZM123.24 77.957V75.0274H123.973V77.957H123.24ZM167.129 73.9288V70.9992H167.862V73.9288H167.129ZM123.185 72.0978V69.095H123.918V72.0246L123.185 72.0978ZM167.074 68.0697V65.0668H167.807V67.9964L167.074 68.0697ZM123.176 66.2387V63.3091H123.909V66.2387H123.176ZM167.074 62.2105V60.3703C167.074 60.0167 167.022 59.665 166.919 59.3267L167.614 59.107C167.743 59.5126 167.808 59.9357 167.807 60.3612V62.1281L167.074 62.2105ZM123.9 60.3795H123.167C123.186 59.8176 123.319 59.2653 123.556 58.7556C123.794 58.246 124.132 57.7894 124.55 57.4133L125.062 57.9351C124.408 58.5551 124.02 59.4055 123.982 60.3063L123.9 60.3795ZM165.262 57.395C164.746 57.1088 164.167 56.9577 163.577 56.9555H162.588V56.2323H163.577C164.291 56.2336 164.992 56.4129 165.619 56.7541L165.262 57.395ZM127.461 56.9189L127.415 56.5527V56.1865H130.39V56.9189H127.461ZM133.329 56.9189V56.1957H136.259V56.9189H133.329ZM139.198 56.9189V56.1957H142.127V56.9189H139.198ZM145.066 56.9189V56.1865H147.995V56.9189H145.066ZM150.934 56.9189V56.1957H153.845V56.9189H150.934ZM156.802 56.9189V56.1957H159.732V56.9189H156.802Z" fill="#075085"/>
<path d="M147.748 64.9297H143.436V86.8467H147.748V64.9297Z" fill="#AAB6C2"/>
<path d="M156.555 78.0571V73.7451H134.638V78.0571H156.555Z" fill="#AAB6C2"/>
<path d="M176.815 98.519C176.109 98.5199 175.413 98.3436 174.792 98.0064L175.14 97.3655C175.655 97.6416 176.231 97.7863 176.815 97.7866H177.822V98.519H176.815ZM180.761 98.519V97.7958H183.691V98.5282L180.761 98.519ZM186.629 98.519V97.7958H189.55V98.5282L186.629 98.519ZM192.498 98.519V97.7866H195.427V98.5099L192.498 98.519ZM198.366 98.519V97.7866H201.296V98.5099L198.366 98.519ZM204.234 98.519V97.7866H207.164V98.5099L204.234 98.519ZM210.103 98.519V97.7866H213.014V98.1437V98.5099L210.103 98.519ZM215.934 97.3381L215.431 96.8162C216.077 96.1921 216.457 95.3427 216.493 94.4451H217.216C217.173 95.5214 216.713 96.5389 215.934 97.2831V97.3381ZM172.796 95.6535C172.661 95.2366 172.593 94.8009 172.595 94.3627V92.6233H173.318V94.3627C173.317 94.7231 173.373 95.0815 173.483 95.4247L172.796 95.6535ZM216.493 91.5247V88.5951H217.225V91.5247H216.493ZM172.549 89.6937V86.7H173.272V89.6296L172.549 89.6937ZM216.447 85.6563V82.7267H217.179V85.6563H216.447ZM172.503 83.8253V80.8317H173.227V83.7613L172.503 83.8253ZM216.401 79.788V76.8584H217.134V79.788H216.401ZM172.457 77.957V75.0274H173.19V77.957H172.457ZM216.401 73.9288V70.9992H217.125V73.9288H216.401ZM172.457 72.0978V69.095H173.19V72.0246L172.457 72.0978ZM216.356 68.0697V65.0668H217.079V67.9964L216.356 68.0697ZM172.412 66.2387V63.3091H173.144V66.2387H172.412ZM216.31 62.2105V60.3703C216.311 60.0159 216.255 59.6635 216.145 59.3267L216.841 59.107C216.969 59.5126 217.034 59.9357 217.033 60.3612V62.1281L216.31 62.2105ZM173.135 60.3795H172.412C172.446 59.2968 172.899 58.2696 173.675 57.514L174.188 58.0358C173.621 58.6589 173.296 59.4644 173.272 60.3063L173.135 60.3795ZM214.506 57.395C213.988 57.1077 213.405 56.9565 212.813 56.9555H211.833V56.2323H212.822C213.535 56.2336 214.237 56.4129 214.863 56.7541L214.506 57.395ZM176.733 56.9189V56.5527V56.1865H179.708V56.9189H176.733ZM182.601 56.9189V56.1957H185.54V56.9189H182.601ZM188.47 56.9189V56.1957H191.408V56.9189H188.47ZM194.338 56.9189V56.1865H197.277V56.9189H194.338ZM200.206 56.9189V56.1957H203.145V56.9189H200.206ZM206.074 56.9189V56.1957H209.013V56.9189H206.074Z" fill="#075085"/>
<path d="M197.038 64.9297H192.727V86.8467H197.038V64.9297Z" fill="#AAB6C2"/>
<path d="M205.846 78.0483V73.7363H183.929V78.0483H205.846Z" fill="#AAB6C2"/>
<path d="M99.0713 64.9297H94.7593V86.8467H99.0713V64.9297Z" fill="#AAB6C2"/>
<path d="M107.878 78.0483V73.7363H85.9614V78.0483H107.878Z" fill="#AAB6C2"/>
<path d="M78.6466 143.396C77.9403 143.394 77.2452 143.218 76.6234 142.883L76.9713 142.242C77.4866 142.518 78.062 142.663 78.6466 142.663H79.6903V143.387L78.6466 143.396ZM82.5833 143.396V142.663H85.522V143.387L82.5833 143.396ZM88.4608 143.396V142.663H91.3995V143.396H88.4608ZM94.3291 143.396V142.663H97.2678V143.396H94.3291ZM100.197 143.396V142.663H103.127V143.396H100.197ZM106.066 143.396V142.673H108.986V143.405L106.066 143.396ZM111.934 143.396V142.673H114.845V143.039V143.405L111.934 143.396ZM117.766 142.206L117.262 141.684C117.909 141.061 118.287 140.21 118.315 139.313H119.047C119.004 140.389 118.545 141.407 117.766 142.151V142.206ZM74.6185 140.521C74.49 140.106 74.4252 139.674 74.4262 139.239V137.482H75.1128V139.23C75.1131 139.591 75.1687 139.949 75.2776 140.292L74.6185 140.521ZM118.315 136.401V133.463H119.057V136.401H118.315ZM74.4171 134.57V131.632H75.1128V134.57H74.4171ZM118.306 130.542V127.603H119.057V130.542H118.306ZM74.3621 128.711V125.782H75.1128V128.72L74.3621 128.711ZM118.306 124.683V121.744H119.057V124.683H118.306ZM74.3621 122.852V119.913H75.1128V122.852H74.3621ZM118.306 118.824V115.885H119.057V118.824H118.306ZM74.3621 116.993V114.054H75.1128V116.993H74.3621ZM118.26 112.965V110.026H119.057V112.965H118.26ZM74.3163 111.134V108.094H75.1128V111.033L74.3163 111.134ZM118.26 107.106V105.339C118.259 104.985 118.206 104.633 118.105 104.295L118.8 104.075C118.928 104.484 118.993 104.91 118.993 105.339V107.106H118.26ZM75.0854 105.275H74.353C74.3962 104.192 74.8514 103.167 75.6255 102.409L76.129 102.931C75.5275 103.529 75.1659 104.327 75.1128 105.174L75.0854 105.275ZM116.447 102.29C115.931 102.007 115.352 101.859 114.763 101.86H113.793V101.127H114.781C115.495 101.129 116.196 101.308 116.823 101.649L116.447 102.29ZM78.5826 101.777V101.411V101.045H81.5213V101.777H78.5826ZM84.4509 101.777V101.045H87.3805V101.777H84.4509ZM90.3192 101.777V101.045H93.2488V101.777H90.3192ZM96.1692 101.777V101.045H99.0988V101.777H96.1692ZM102.038 101.777V101.045H104.967V101.777H102.038ZM107.906 101.777V101.045H110.817V101.777H107.906Z" fill="#075085"/>
<path d="M127.516 143.396C126.812 143.393 126.121 143.217 125.502 142.883L125.85 142.242C126.361 142.519 126.934 142.664 127.516 142.663H128.523V143.387L127.516 143.396ZM131.462 143.396V142.663H134.4V143.387L131.462 143.396ZM137.33 143.396V142.663H140.269V143.396H137.33ZM143.198 143.396V142.663H146.137V143.396H143.198ZM149.067 143.396V142.663H152.014V143.396H149.067ZM154.935 143.396V142.673H157.874V143.405L154.935 143.396ZM160.803 143.396V142.673H163.714V143.039V143.405L160.803 143.396ZM166.644 142.206L166.131 141.684C166.779 141.064 167.159 140.217 167.193 139.322H167.926C167.88 140.391 167.428 141.403 166.662 142.151L166.644 142.206ZM123.497 140.521C123.365 140.106 123.297 139.674 123.295 139.239V137.482H124.028V139.23C124.028 139.591 124.084 139.949 124.193 140.292L123.497 140.521ZM167.193 136.401V133.463H167.917V136.401H167.193ZM123.25 134.57V131.632H123.982V134.57H123.25ZM167.148 130.542V127.603H167.871V130.542H167.148ZM123.25 128.711V125.782H123.982V128.72L123.25 128.711ZM167.138 124.683V121.744H167.862V124.683H167.138ZM123.24 122.852V119.913H123.973V122.852H123.24ZM167.129 118.824V115.885H167.862V118.824H167.129ZM123.185 116.993V114.054H123.918V116.993H123.185ZM167.074 112.965V110.026H167.807V112.965H167.074ZM123.176 111.134V108.094H123.909V111.033L123.176 111.134ZM167.074 107.106V105.339C167.073 104.985 167.021 104.633 166.919 104.295L167.614 104.075C167.742 104.484 167.807 104.91 167.807 105.339V107.106H167.074ZM123.9 105.275H123.167C123.203 104.192 123.656 103.166 124.431 102.409L124.943 102.931C124.362 103.537 124.02 104.334 123.982 105.174L123.9 105.275ZM165.262 102.29C164.745 102.007 164.166 101.859 163.577 101.86H162.588V101.127H163.577C164.291 101.129 164.992 101.308 165.619 101.649L165.262 102.29ZM127.461 101.777L127.415 101.411V101.045H130.39V101.777H127.461ZM133.329 101.777V101.045H136.259V101.777H133.329ZM139.198 101.777V101.045H142.127V101.777H139.198ZM145.066 101.777V101.045H147.995V101.777H145.066ZM150.934 101.777V101.045H153.845V101.777H150.934ZM156.802 101.777V101.045H159.732V101.777H156.802Z" fill="#075085"/>
<path d="M147.748 109.807H143.436V131.724H147.748V109.807Z" fill="#AAB6C2"/>
<path d="M156.546 122.925V118.613H134.629V122.925H156.546Z" fill="#AAB6C2"/>
<path d="M176.815 143.396C176.109 143.392 175.415 143.216 174.792 142.883L175.14 142.242C175.655 142.518 176.231 142.663 176.815 142.663H177.822V143.387L176.815 143.396ZM180.761 143.396V142.663H183.691V143.387L180.761 143.396ZM186.629 143.396V142.663H189.55V143.396H186.629ZM192.498 143.396V142.663H195.427V143.396H192.498ZM198.366 143.396V142.663H201.296V143.396H198.366ZM204.234 143.396V142.673H207.164V143.405L204.234 143.396ZM210.103 143.396V142.673H213.014V143.039V143.405L210.103 143.396ZM215.934 142.206L215.431 141.684C216.078 141.064 216.459 140.217 216.493 139.322H217.216C217.174 140.396 216.714 141.411 215.934 142.151V142.206ZM172.796 140.521C172.66 140.108 172.592 139.675 172.595 139.239V137.482H173.318V139.23C173.318 139.591 173.374 139.949 173.483 140.292L172.796 140.521ZM216.493 136.401V133.463H217.225V136.401H216.493ZM172.549 134.57V131.632H173.272V134.57H172.549ZM216.447 130.542V127.603H217.179V130.542H216.447ZM172.503 128.711V125.782H173.227V128.72L172.503 128.711ZM216.401 124.683V121.744H217.134V124.683H216.401ZM172.457 122.852V119.913H173.19V122.852H172.457ZM216.401 118.824V115.885H217.125V118.824H216.401ZM172.457 116.993V114.054H173.19V116.993H172.457ZM216.356 112.965V110.026H217.079V112.965H216.356ZM172.412 111.134V108.094H173.144V111.033L172.412 111.134ZM216.31 107.106V105.339C216.31 104.984 216.255 104.632 216.145 104.295L216.841 104.075C216.968 104.484 217.033 104.91 217.033 105.339V107.106H216.31ZM173.135 105.275H172.412C172.448 104.192 172.9 103.166 173.675 102.409L174.188 102.931C173.627 103.547 173.303 104.341 173.272 105.174L173.135 105.275ZM214.506 102.29C213.987 102.006 213.404 101.858 212.813 101.86H211.833V101.127H212.822C213.535 101.129 214.237 101.308 214.863 101.649L214.506 102.29ZM176.733 101.777V101.411V101.045H179.708V101.777H176.733ZM182.601 101.777V101.045H185.54V101.777H182.601ZM188.47 101.777V101.045H191.408V101.777H188.47ZM194.338 101.777V101.045H197.277V101.777H194.338ZM200.206 101.777V101.045H203.145V101.777H200.206ZM206.074 101.777V101.045H209.013V101.777H206.074Z" fill="#075085"/>
<path d="M197.038 109.807H192.727V131.724H197.038V109.807Z" fill="#AAB6C2"/>
<path d="M205.846 122.916V118.604H183.929V122.916H205.846Z" fill="#AAB6C2"/>
<path d="M99.0713 109.807H94.7593V131.724H99.0713V109.807Z" fill="#AAB6C2"/>
<path d="M107.878 122.916V118.604H85.9614V122.916H107.878Z" fill="#AAB6C2"/>
<path d="M107.155 99.7995C113.985 101.566 121.3 90.5897 121.007 85.2249L118.91 82.4051C118.91 82.4051 117.226 84.6847 114.983 87.2023C112.465 90.0312 109.691 92.4573 107.247 92.3474C105.663 92.2833 106.002 91.6883 105.315 89.0791C104.015 84.1171 102.916 65.8438 95.5924 65.5051C80.0473 64.7818 97.0114 97.1995 107.155 99.7995Z" fill="#075085"/>
<path d="M118.709 81.8936L117.839 83.1386L121.647 87.2858L122.334 85.5189L118.709 81.8936Z" fill="#FFF9F0"/>
<path d="M92.617 184.896L91.5551 179.714L95.4917 180.19L94.6677 184.896H92.617Z" fill="white"/>
<path d="M91.8481 179.98L95.2262 180.383L94.4755 184.668H92.8002L91.8847 179.98H91.8481ZM91.2713 179.449L92.434 185.125H94.86L95.7755 179.989L91.2896 179.449H91.2713Z" fill="black"/>
<path d="M105.324 104.012C106.371 117.83 105.803 131.724 103.63 145.41C100.976 161.889 96.0593 181.261 96.0593 181.261L91.2438 181.682C91.2438 181.682 89.4128 158.136 88.4973 144.193C87.5818 130.918 83.81 105.55 83.81 105.55L105.324 104.012Z" fill="black"/>
<path d="M98.8424 101.494C98.8424 101.494 98.4396 112.48 96.6361 131.22C94.7593 150.693 90.5572 173.498 90.5572 173.498C90.5572 173.498 89.0283 149.622 88.0854 139.313C87.3072 130.717 83.8008 105.559 83.8008 105.559L98.8424 101.494Z" fill="black"/>
<path d="M95.1529 183.467C95.1529 183.467 105.718 183.467 107.787 188.859H94.9698L93.4776 187.55L92.3607 188.859H90.5297C90.5297 188.859 89.1198 185.069 92.1135 183.622C92.5655 183.938 93.1095 184.094 93.6599 184.065C94.2102 184.037 94.7355 183.827 95.1529 183.467Z" fill="black"/>
<path d="M68.9882 185.052L68.9332 180.145L72.7234 180.602L70.9656 185.052H68.9882Z" fill="white"/>
<path d="M69.1621 180.399L72.4029 180.793L70.81 184.821H69.217L69.1621 180.399ZM68.7043 179.887L68.7684 185.279H71.1213L73.0438 180.409L68.7043 179.887Z" fill="black"/>
<path d="M93.1023 105.349C93.1023 105.349 94.384 122.807 89.4403 147.544C86.5565 161.981 72.9614 180.41 72.9614 180.41H68.7501C72.4976 168.871 74.268 156.781 73.9867 144.651C73.6022 127.714 66.5987 115.062 69.1712 107.674C70.4346 104.049 93.1023 105.349 93.1023 105.349Z" fill="black"/>
<path d="M73.9776 181.874C74.1085 181.825 74.2276 181.748 74.3276 181.65C74.4276 181.552 74.5063 181.435 74.5587 181.305C74.6112 181.175 74.6362 181.036 74.6323 180.896C74.6284 180.756 74.5956 180.619 74.5361 180.492C74.6339 180.166 74.6681 179.824 74.6368 179.485C74.5361 179.164 67.9079 178.569 67.5508 179.485C67.1938 180.4 67.8346 180.657 67.8346 180.657C67.8346 180.657 67.029 181.288 67.8346 181.499C68.6403 181.71 71.7621 182.515 73.9776 181.874Z" fill="#075085"/>
<path d="M96.746 182.34C96.8768 182.29 96.996 182.214 97.0962 182.116C97.1965 182.018 97.2756 181.901 97.3288 181.772C97.382 181.642 97.4081 181.503 97.4054 181.363C97.4028 181.223 97.3716 181.085 97.3136 180.958C97.4117 180.632 97.4428 180.289 97.4052 179.951C97.3136 179.63 90.6854 179.035 90.3284 179.951C89.9714 180.866 90.603 181.123 90.603 181.123C90.603 181.123 89.8066 181.754 90.603 181.974C91.3995 182.194 94.5397 182.954 96.746 182.34Z" fill="#075085"/>
<path d="M107.787 106.154C107.787 106.154 94.4756 112.855 67.7248 108.113C67.7248 108.113 67.6699 61.1481 92.4432 64.508C110.488 66.989 99.2178 89.1897 107.787 106.154Z" fill="#075085"/>
<path d="M93.7706 68.7459C92.3312 66.9611 90.5706 65.4614 88.5797 64.324C89.0462 62.677 89.0903 60.939 88.7079 59.2705L93.3678 60.3966C93.231 61.2188 93.2697 62.0606 93.4811 62.8668C93.6925 63.673 94.0719 64.4255 94.5945 65.0748C94.636 66.3486 94.3524 67.612 93.7706 68.7459Z" fill="white"/>
<path d="M89.01 59.5727L93.1115 60.5798C92.8979 62.2079 93.3391 63.8542 94.3382 65.1573C94.365 66.2478 94.146 67.3305 93.6974 68.3249C92.3263 66.6955 90.6849 65.3143 88.8453 64.2418C89.2447 62.7261 89.301 61.1404 89.01 59.6002V59.5727ZM88.3875 58.9502C88.88 60.7521 88.8514 62.6568 88.3051 64.4432C90.4375 65.6369 92.306 67.2501 93.7981 69.1854C94.5309 67.9204 94.8837 66.4711 94.8143 65.0108C94.2689 64.3593 93.8804 63.5912 93.6788 62.7658C93.4772 61.9404 93.4679 61.0798 93.6516 60.2502L88.3875 58.9685V58.9502Z" fill="black"/>
<path d="M91.8297 61.8623C89.6416 61.8623 87.3712 60.0314 86.1811 57.2849C85.4652 55.7417 85.2446 54.0148 85.5494 52.3412C85.6471 51.676 85.9047 51.0444 86.3002 50.5007C86.6956 49.957 87.2171 49.5173 87.8198 49.2194C88.26 49.0325 88.7332 48.936 89.2114 48.9355C91.3994 48.9355 93.679 50.7665 94.8691 53.513C96.3614 56.9187 95.629 60.544 93.2304 61.5969C92.786 61.7784 92.3097 61.8687 91.8297 61.8623Z" fill="white"/>
<path d="M89.2114 49.1649C91.2804 49.1649 93.5234 50.9959 94.6586 53.5867C96.1051 56.8734 95.4185 60.3614 93.1389 61.3685C92.7254 61.5459 92.2797 61.6363 91.8297 61.634C89.7699 61.634 87.5269 59.803 86.3368 57.2121C84.8994 53.9255 85.586 50.4374 87.8656 49.4304C88.2763 49.2539 88.7187 49.1636 89.1656 49.1649H89.2114ZM89.2114 48.7072C88.7005 48.7042 88.1949 48.8103 87.7283 49.0184C85.2107 50.117 84.4234 53.8705 85.9706 57.3952C87.2248 60.2607 89.6325 62.0917 91.8297 62.0917C92.3435 62.0938 92.8519 61.9877 93.322 61.7804C95.8396 60.6818 96.6269 56.9283 95.0797 53.4036C93.8255 50.5107 91.4178 48.6797 89.2114 48.6797V48.7072Z" fill="black"/>
<path d="M93.1115 50.5744C93.5954 51.0429 94.0282 51.5615 94.4023 52.1216C93.8292 52.3852 93.207 52.5255 92.5762 52.5334C91.9454 52.5413 91.3199 52.4166 90.7404 52.1673C87.7558 50.968 85.4579 53.4307 85.4579 53.4307L85.3481 51.1328L92.022 48.1758L93.1115 50.5744Z" fill="#FD3D53"/>
<path d="M68.2466 63.8757C68.7135 64.0954 69.2903 64.0679 69.7297 64.2877C71.5607 65.2032 71.5607 66.2834 72.4762 67.5102C73.0835 68.2972 73.903 68.8943 74.8382 69.2313C77.0445 70.0278 79.2142 69.3229 79.5072 66.8694C79.5918 65.6192 79.3882 64.3664 78.9121 63.2074C78.6466 62.5208 77.9966 61.8524 77.8227 61.1841C77.3833 59.8109 78.3171 59.1243 79.2692 58.2362C80.1803 57.4205 81.0338 56.5426 81.8234 55.6088C81.9939 56.7893 82.4358 57.9143 83.1143 58.8954C83.8192 59.6278 84.3685 61.12 86.2453 60.7264C89.2389 60.0581 85.76 56.2679 86.2453 54.5651C86.6174 54.4757 86.9502 54.2673 87.1931 53.9715C87.436 53.6757 87.5757 53.3088 87.591 52.9264C87.7467 51.489 89.5319 51.2327 90.9417 51.6538C92.3516 52.0749 93.6882 52.2489 94.9699 51.1411C95.9404 50.2989 91.4178 46.4355 89.8798 46.5637C85.7875 46.8658 83.7093 48.5869 82.6474 49.9968C80.9903 48.3947 78.7565 47.2503 76.4586 48.3763C75.6204 48.7419 74.9368 49.3898 74.5269 50.2073C73.9135 51.5256 74.6368 52.0383 72.6959 53.0637C71.9557 53.3032 71.2002 53.4929 70.4346 53.6313C66.3882 55.0045 63.1107 61.4313 68.2466 63.8757Z" fill="black"/>
<path d="M87.0142 55.7831C87.0142 55.7831 85.7966 54.8676 85.1832 55.9204C84.5699 56.9733 86.3185 59.4726 87.4445 58.2916C88.5706 57.1106 87.0142 55.7831 87.0142 55.7831Z" fill="white"/>
<path d="M76.5959 91.341C89.0649 78.8903 84.5973 69.2959 84.5973 69.2959L72.9614 78.9727C67.7247 89.9586 67.7522 108.122 67.7522 108.122C67.7522 108.122 81.5853 110.869 91.7657 109.605C91.7657 109.605 73.1628 94.7741 76.5959 91.341Z" fill="black"/>
<path d="M88.9002 46.6195C90.515 46.3155 92.1847 46.6547 93.5531 47.5646C94.9214 48.4745 95.8799 49.8831 96.2241 51.4899C96.2241 51.4899 87.8107 55.2801 85.2382 54.6301L83.7734 50.9681L88.9002 46.6195Z" fill="black"/>
<path d="M81.3199 55.5631C81.3802 53.6279 81.6722 51.7069 82.1896 49.8412C82.391 49.1455 83.4896 49.4201 83.2882 50.125C82.7858 51.8904 82.4999 53.7104 82.4368 55.5448C82.4368 56.2772 81.3016 56.2955 81.3199 55.5631Z" fill="#075085"/>
<path d="M95.2537 65.157L94.86 64.9922C94.86 64.9922 94.7044 68.114 93.8438 69.1668L95.9403 71.6295C95.9403 71.6295 96.3065 67.3633 95.2537 65.157Z" fill="black"/>
<path d="M88.4699 64.4243C88.3203 64.3644 88.1581 64.3431 87.9981 64.3623C87.8381 64.3815 87.6855 64.4406 87.5544 64.5342C89.66 66.0997 91.8847 71.6384 91.8847 71.6384L93.7157 69.1666C92.5072 66.6032 88.4699 64.4243 88.4699 64.4243Z" fill="black"/>
<path d="M93.5417 75.2274C93.5417 75.1156 93.5638 75.0049 93.6066 74.9016C93.6493 74.7983 93.7121 74.7044 93.7911 74.6254C93.8702 74.5463 93.964 74.4836 94.0673 74.4408C94.1706 74.398 94.2814 74.376 94.3932 74.376C94.5616 74.376 94.7262 74.4259 94.8662 74.5195C95.0062 74.613 95.1153 74.746 95.1798 74.9016C95.2442 75.0571 95.2611 75.2283 95.2282 75.3935C95.1954 75.5586 95.1143 75.7104 94.9952 75.8294C94.8761 75.9485 94.7244 76.0296 94.5593 76.0624C94.3941 76.0953 94.2229 76.0784 94.0673 76.014C93.9118 75.9495 93.7788 75.8404 93.6852 75.7004C93.5917 75.5604 93.5417 75.3958 93.5417 75.2274Z" fill="black"/>
<path d="M93.9994 81.0692C93.9982 80.9571 94.0194 80.8458 94.0618 80.742C94.1041 80.6381 94.1668 80.5438 94.2461 80.4645C94.3254 80.3852 94.4197 80.3225 94.5236 80.2801C94.6274 80.2378 94.7387 80.2166 94.8509 80.2178C95.0192 80.2178 95.1839 80.2678 95.3239 80.3613C95.4639 80.4549 95.573 80.5878 95.6375 80.7434C95.7019 80.899 95.7188 81.0702 95.6859 81.2353C95.6531 81.4005 95.572 81.5522 95.4529 81.6713C95.3338 81.7904 95.1821 81.8714 95.017 81.9043C94.8518 81.9371 94.6806 81.9203 94.525 81.8558C94.3695 81.7914 94.2365 81.6823 94.1429 81.5423C94.0494 81.4022 93.9994 81.2376 93.9994 81.0692Z" fill="black"/>
<path d="M94.0087 91.3133C94.0087 91.1449 94.0586 90.9803 94.1522 90.8403C94.2457 90.7003 94.3787 90.5912 94.5343 90.5267C94.6898 90.4623 94.861 90.4454 95.0262 90.4783C95.1913 90.5111 95.343 90.5922 95.4621 90.7113C95.5812 90.8304 95.6623 90.9821 95.6951 91.1472C95.728 91.3124 95.7111 91.4836 95.6467 91.6391C95.5822 91.7947 95.4731 91.9277 95.3331 92.0213C95.1931 92.1148 95.0285 92.1647 94.8601 92.1647C94.7483 92.1647 94.6376 92.1427 94.5343 92.0999C94.431 92.0571 94.3371 91.9944 94.258 91.9154C94.179 91.8363 94.1163 91.7424 94.0735 91.6391C94.0307 91.5358 94.0087 91.4251 94.0087 91.3133Z" fill="black"/>
<path d="M94.0086 85.8485C94.0086 85.6801 94.0585 85.5155 94.1521 85.3755C94.2456 85.2355 94.3786 85.1263 94.5342 85.0619C94.6898 84.9974 94.861 84.9806 95.0261 85.0134C95.1913 85.0463 95.343 85.1274 95.462 85.2464C95.5811 85.3655 95.6622 85.5172 95.6951 85.6824C95.7279 85.8475 95.711 86.0187 95.6466 86.1743C95.5822 86.3299 95.473 86.4629 95.333 86.5564C95.193 86.65 95.0284 86.6999 94.86 86.6999C94.7479 86.7011 94.6366 86.6799 94.5327 86.6376C94.4289 86.5952 94.3345 86.5326 94.2552 86.4533C94.1759 86.3739 94.1133 86.2796 94.0709 86.1757C94.0286 86.0719 94.0074 85.9606 94.0086 85.8485Z" fill="black"/>
<path d="M94.0178 96.9813C94.0178 96.8129 94.0678 96.6483 94.1613 96.5083C94.2549 96.3683 94.3878 96.2591 94.5434 96.1947C94.699 96.1303 94.8702 96.1134 95.0353 96.1462C95.2005 96.1791 95.3522 96.2602 95.4713 96.3793C95.5903 96.4983 95.6714 96.65 95.7043 96.8152C95.7371 96.9804 95.7203 97.1515 95.6558 97.3071C95.5914 97.4627 95.4823 97.5957 95.3422 97.6892C95.2022 97.7828 95.0376 97.8327 94.8692 97.8327C94.6434 97.8327 94.4269 97.743 94.2672 97.5833C94.1075 97.4237 94.0178 97.2071 94.0178 96.9813Z" fill="black"/>
<path d="M71.8445 183.467C71.8445 183.467 82.4093 183.467 84.4783 188.859H71.6614L70.1691 187.55L69.0522 188.859H67.2212C67.2212 188.859 65.8114 185.069 68.805 183.622C69.257 183.938 69.8011 184.094 70.3514 184.065C70.9018 184.037 71.4271 183.827 71.8445 183.467Z" fill="black"/>
<path d="M165.765 31.7438L33.3303 129.669L44.3524 144.575L176.787 46.6502L165.765 31.7438Z" fill="white"/>
<path d="M165.747 32.0715L176.458 46.6096L44.3888 144.256L33.6408 129.718L99.6756 80.8949L165.747 32.0715ZM165.838 31.4307L99.4009 80.5287L33 129.627L44.2881 144.897L177.099 46.7103L165.802 31.4307H165.838Z" fill="black"/>
<path d="M46.5332 119.616L45.0463 120.716L49.134 126.244L50.6209 125.145L46.5332 119.616Z" fill="black"/>
<path d="M41.3643 123.444L39.8774 124.544L45.7504 132.487L47.2373 131.387L41.3643 123.444Z" fill="black"/>
<path d="M56.8835 111.964L55.3965 113.063L59.4842 118.592L60.9712 117.492L56.8835 111.964Z" fill="black"/>
<path d="M51.1025 115.414L49.6231 116.505L55.4512 124.407L56.9307 123.316L51.1025 115.414Z" fill="black"/>
<path d="M67.2209 104.329L65.7338 105.428L69.8205 110.957L71.3076 109.857L67.2209 104.329Z" fill="black"/>
<path d="M62.052 108.155L60.565 109.255L66.438 117.198L67.925 116.098L62.052 108.155Z" fill="black"/>
<path d="M77.5549 96.685L76.0677 97.7842L80.1545 103.313L81.6416 102.214L77.5549 96.685Z" fill="black"/>
<path d="M72.4021 100.483L70.9152 101.582L76.7882 109.525L78.2751 108.425L72.4021 100.483Z" fill="black"/>
<path d="M87.9036 89.0297L86.4164 90.1289L90.5032 95.6579L91.9903 94.5586L87.9036 89.0297Z" fill="black"/>
<path d="M82.7486 92.8458L81.2617 93.9453L87.1347 101.888L88.6216 100.789L82.7486 92.8458Z" fill="black"/>
<path d="M98.2522 81.3842L96.7651 82.4834L100.852 88.0124L102.339 86.9131L98.2522 81.3842Z" fill="black"/>
<path d="M93.0896 85.1818L91.6027 86.2812L97.4757 94.224L98.9626 93.1245L93.0896 85.1818Z" fill="black"/>
<path d="M108.598 73.7306L107.111 74.8301L111.198 80.3583L112.685 79.2588L108.598 73.7306Z" fill="black"/>
<path d="M103.427 77.5538L101.94 78.6533L107.813 86.596L109.3 85.4965L103.427 77.5538Z" fill="black"/>
<path d="M118.944 66.0941L117.457 67.1934L121.544 72.7223L123.031 71.6231L118.944 66.0941Z" fill="black"/>
<path d="M113.783 69.9083L112.296 71.0078L118.169 78.9505L119.656 77.851L113.783 69.9083Z" fill="black"/>
<path d="M129.285 58.4308L127.798 59.5303L131.886 65.0585L133.373 63.959L129.285 58.4308Z" fill="black"/>
<path d="M124.116 62.2501L122.629 63.3496L128.502 71.2923L129.989 70.1928L124.116 62.2501Z" fill="black"/>
<path d="M139.627 50.7865L138.14 51.8857L142.226 57.4147L143.713 56.3155L139.627 50.7865Z" fill="black"/>
<path d="M134.463 54.6036L132.976 55.7031L138.849 63.6458L140.336 62.5463L134.463 54.6036Z" fill="black"/>
<path d="M149.973 43.13L148.486 44.2295L152.573 49.7577L154.06 48.6582L149.973 43.13Z" fill="black"/>
<path d="M144.804 46.9581L143.317 48.0576L149.19 56.0003L150.677 54.9008L144.804 46.9581Z" fill="black"/>
<path d="M160.319 35.4835L158.832 36.583L162.92 42.1113L164.407 41.0118L160.319 35.4835Z" fill="black"/>
<path d="M155.15 39.3126L153.663 40.4121L159.536 48.3548L161.023 47.2553L155.15 39.3126Z" fill="black"/>
<path d="M89.6784 112.333C88.7629 112.333 87.8474 110.86 87.3988 109.99C87.0734 109.475 86.9425 108.861 87.0298 108.259C87.1171 107.656 87.4168 107.104 87.8749 106.703C88.5989 106.112 89.4951 105.771 90.4291 105.733C90.6949 105.728 90.9591 105.775 91.2073 105.87L91.3446 105.943L91.4361 106.017H91.5918C91.6402 106.008 91.6898 106.008 91.7383 106.017C91.7929 106.021 91.8462 106.036 91.8949 106.061C91.9437 106.086 91.9869 106.121 92.0221 106.163C92.1228 106.282 92.2784 106.438 92.4523 106.612C93.0749 107.234 94.1185 108.269 94.0636 109.01C94.0539 109.118 94.019 109.223 93.9618 109.315C93.9046 109.407 93.8266 109.485 93.734 109.541C93.6587 109.602 93.5713 109.645 93.4777 109.669L93.2946 109.724V109.917C93.3279 110.078 93.3228 110.245 93.2799 110.404C93.237 110.563 93.1573 110.709 93.0474 110.832C92.9874 110.896 92.9151 110.946 92.8348 110.981C92.7545 111.016 92.668 111.034 92.5805 111.033C92.4377 111.028 92.2975 110.994 92.1685 110.933L91.9763 110.86L91.8664 111.043V111.125C91.7776 111.27 91.652 111.388 91.5024 111.469C91.3529 111.549 91.1847 111.588 91.015 111.583C90.9053 111.592 90.7951 111.592 90.6854 111.583L90.4291 111.528V111.793C90.4318 111.942 90.3771 112.085 90.2765 112.195C90.1759 112.304 90.0371 112.37 89.889 112.379C89.8252 112.388 89.7605 112.388 89.6967 112.379L89.6784 112.333Z" fill="white"/>
<path d="M90.429 105.962C90.6636 105.955 90.8971 105.995 91.1156 106.081C91.151 106.095 91.1848 106.114 91.2163 106.136H91.2713L91.4635 106.264L91.6832 106.181H91.7473C91.7473 106.181 91.7473 106.181 91.8572 106.255L92.3058 106.712C92.8551 107.271 93.8896 108.296 93.8438 108.928C93.8378 109.004 93.8128 109.077 93.7713 109.141C93.7297 109.205 93.6728 109.258 93.6058 109.294C93.5519 109.342 93.4851 109.374 93.4135 109.386L93.0565 109.505V109.88C93.0916 110.006 93.0932 110.139 93.0611 110.266C93.029 110.393 92.9643 110.509 92.8734 110.603C92.8349 110.645 92.7883 110.679 92.7364 110.703C92.6845 110.726 92.6283 110.739 92.5713 110.741C92.4569 110.736 92.3446 110.708 92.2417 110.658L91.8663 110.502L91.6649 110.86C91.6434 110.901 91.625 110.944 91.61 110.988C91.5369 111.088 91.4399 111.167 91.328 111.22C91.216 111.273 91.0927 111.297 90.9691 111.29H90.6853L90.1727 111.189V111.72C90.1727 111.912 90.0994 112.031 89.8156 112.095H89.6691C89.0649 112.095 88.2867 111.262 87.591 109.88C87.305 109.405 87.1917 108.846 87.2701 108.297C87.3485 107.749 87.6138 107.244 88.0212 106.868C88.6995 106.309 89.5419 105.988 90.4198 105.952L90.429 105.962ZM90.429 105.504C89.4406 105.54 88.4915 105.9 87.7283 106.529C87.2354 106.966 86.912 107.562 86.8149 108.213C86.7178 108.865 86.8532 109.529 87.1973 110.091C87.6093 110.914 88.5522 112.562 89.6783 112.562C89.7604 112.571 89.8433 112.571 89.9255 112.562C90.1229 112.54 90.305 112.445 90.4368 112.296C90.5686 112.148 90.6408 111.955 90.6396 111.757C90.7613 111.77 90.8841 111.77 91.0058 111.757C91.2004 111.764 91.3938 111.723 91.5693 111.639C91.7447 111.554 91.897 111.428 92.0128 111.272C92.0488 111.213 92.0794 111.152 92.1044 111.088C92.2625 111.161 92.4338 111.202 92.6079 111.207C92.8417 111.202 93.0644 111.107 93.2304 110.942C93.3685 110.796 93.4697 110.62 93.5255 110.427C93.5812 110.234 93.5899 110.031 93.5508 109.834C93.6707 109.802 93.7829 109.746 93.8804 109.669C95.272 108.644 92.8184 106.667 92.1959 106.007C92.1424 105.939 92.0745 105.883 91.997 105.843C91.9195 105.804 91.8343 105.782 91.7473 105.779C91.6716 105.765 91.5941 105.765 91.5184 105.779C91.4487 105.725 91.3716 105.682 91.2896 105.65C91.0162 105.541 90.7234 105.488 90.429 105.495V105.504Z" fill="black"/>
<path d="M95.1347 108.287C95.0575 108.291 94.9807 108.273 94.9139 108.234C94.8471 108.195 94.7934 108.137 94.7593 108.067C94.5482 107.476 94.1411 106.976 93.6058 106.648C93.4615 106.584 93.3058 106.55 93.1481 106.548C92.9677 106.553 92.789 106.584 92.6171 106.639C92.4986 106.68 92.3757 106.708 92.2509 106.721H92.0495C91.0149 106.721 89.4311 106.071 89.303 105.458C89.249 105.146 89.1662 104.839 89.0558 104.543C89.0519 104.497 89.0519 104.451 89.0558 104.405C90.2185 104.405 93.7706 104.9 94.4938 105.403C94.8638 105.686 95.1631 106.05 95.368 106.468C95.573 106.886 95.678 107.346 95.6748 107.811C95.6784 107.861 95.6712 107.912 95.6539 107.959C95.6365 108.006 95.6093 108.049 95.5741 108.086C95.5201 108.143 95.4547 108.187 95.3821 108.217C95.3095 108.247 95.2315 108.262 95.153 108.26L95.1347 108.287Z" fill="white"/>
<path d="M89.358 104.679C90.7861 104.78 93.7432 105.201 94.3474 105.595C94.6869 105.859 94.961 106.198 95.1484 106.585C95.3357 106.973 95.4313 107.398 95.4277 107.828C95.4358 107.846 95.4401 107.864 95.4401 107.883C95.4401 107.902 95.4358 107.921 95.4277 107.938C95.3576 108.002 95.2663 108.038 95.1714 108.039C95.1365 108.043 95.1013 108.037 95.0702 108.02C95.0392 108.004 95.0138 107.979 94.9974 107.947C94.7696 107.305 94.3221 106.763 93.734 106.419C93.5619 106.339 93.3743 106.298 93.1847 106.3C92.9828 106.307 92.7827 106.341 92.5897 106.4C92.4865 106.439 92.3788 106.463 92.2692 106.474H92.0861C91.0699 106.474 89.6601 105.805 89.596 105.393C89.5483 105.141 89.481 104.893 89.3946 104.652L89.358 104.679ZM88.7629 104.13C88.6164 104.13 89.0009 104.881 89.1108 105.503C89.2389 106.29 91.0059 106.959 92.0495 106.959H92.2784C92.5802 106.884 92.8858 106.826 93.1939 106.785C93.3178 106.783 93.4402 106.812 93.5509 106.867C94.0254 107.181 94.3802 107.645 94.558 108.186C94.6106 108.293 94.693 108.383 94.7952 108.444C94.8975 108.506 95.0154 108.537 95.1347 108.533C95.2314 108.541 95.3286 108.528 95.4201 108.496C95.5116 108.464 95.5954 108.413 95.666 108.347C95.7367 108.281 95.7928 108.2 95.8305 108.111C95.8683 108.022 95.887 107.925 95.8854 107.828C95.8834 107.33 95.7667 106.839 95.5444 106.393C95.3222 105.947 95.0003 105.558 94.6037 105.256C93.7798 104.688 89.8798 104.231 88.9002 104.221C88.8635 104.183 88.8154 104.157 88.7629 104.148V104.13Z" fill="black"/>
<path d="M90.1361 104.77C90.5071 104.659 90.8932 104.607 91.2805 104.615C91.714 104.727 92.0967 104.982 92.3661 105.34C92.6355 105.697 92.7757 106.136 92.7636 106.583C92.6629 106.986 93.1572 107.132 93.4868 107.654C93.8164 108.176 91.5276 108.396 91.5276 108.396L87.0142 108.185C87.0425 107.737 86.9542 107.289 86.7579 106.885C86.4283 106.061 89.0741 103.892 89.0741 103.892L90.1361 104.77Z" fill="white"/>
<path d="M60.7396 96.2844C63.4311 102.51 80.3953 106.501 87.0143 108.186L87.8199 104.24C87.8199 104.24 83.5079 100.798 80.496 98.8387C77.0903 96.6323 72.7142 94.3802 72.3114 91.4506C72.0917 89.9126 73.2269 88.2006 75.1495 86.1865C78.8114 82.3597 87.5727 73.7632 85.2932 69.1308C78.5093 55.4259 56.8029 87.0379 60.7396 96.2844Z" fill="#075085"/>
<path d="M87.6459 103.141L85.7234 108.121L87.4537 109.714L89.4037 103.818L87.6459 103.141Z" fill="#075085"/>
<path d="M123.634 87.1293C123.561 87.1388 123.487 87.1388 123.414 87.1293C122.874 86.937 122.435 86.1131 122.288 85.8384C122.251 85.7713 122.231 85.6957 122.231 85.6187C122.231 85.5417 122.251 85.4661 122.288 85.399C122.313 85.3499 122.351 85.3086 122.398 85.2796C122.445 85.2505 122.499 85.2349 122.554 85.2342L122.947 85.3349V84.9504C122.883 84.7581 122.874 84.5567 123.213 84.3279C123.327 84.2503 123.46 84.2059 123.597 84.1997C123.658 84.1908 123.72 84.1908 123.781 84.1997L124.092 84.3004V83.9708C124.073 83.8634 124.093 83.7527 124.148 83.6587C124.204 83.5647 124.291 83.4936 124.394 83.4581C124.473 83.4155 124.561 83.3935 124.65 83.394C124.766 83.3978 124.879 83.4292 124.98 83.4856L125.575 83.7786L125.282 83.1835C125.218 83.0462 125.172 82.9271 125.135 82.8264C125.111 82.7626 125.108 82.6927 125.126 82.6268C125.144 82.5609 125.183 82.5026 125.236 82.4602C125.27 82.4032 125.317 82.3546 125.372 82.3182C125.428 82.2817 125.491 82.2583 125.557 82.2497C125.617 82.2371 125.679 82.2371 125.74 82.2497C126.28 82.5426 127.571 83.2476 127.708 83.9433C127.712 84.1557 127.636 84.3617 127.495 84.521C127.354 84.6802 127.159 84.7811 126.948 84.8039H126.838L126.673 84.8772C126.591 84.9595 126.591 85.0694 126.573 85.3166V85.4539C126.518 85.9391 126.307 85.9391 126.225 85.9391C126.14 85.9499 126.054 85.9499 125.969 85.9391H125.877L125.785 85.9941L125.639 86.0948V86.168C125.578 86.3482 125.459 86.5029 125.3 86.6074C125.171 86.7044 125.013 86.7559 124.852 86.7539H124.604L124.522 86.8638C124.475 86.9404 124.413 87.0061 124.339 87.0566C124.264 87.1072 124.18 87.1413 124.092 87.1567H123.991C123.871 87.1668 123.751 87.1576 123.634 87.1293Z" fill="white"/>
<path d="M125.538 82.4802H125.612C126.033 82.7091 127.324 83.3957 127.443 83.9816C127.443 84.0366 127.443 84.1739 127.269 84.3936C127.227 84.4487 127.173 84.4938 127.111 84.5255C127.049 84.5571 126.981 84.5746 126.912 84.5767H126.857H126.628L126.472 84.7415C126.335 84.8788 126.326 85.0436 126.307 85.3091C126.313 85.3547 126.313 85.4008 126.307 85.4464C126.307 85.6753 126.225 85.7211 126.188 85.7302C126.128 85.7385 126.066 85.7385 126.005 85.7302L125.813 85.6661L125.639 85.7668L125.557 85.8218L125.41 85.9133L125.355 86.069C125.312 86.2033 125.225 86.3194 125.108 86.3985C125.014 86.4631 124.902 86.4982 124.788 86.4992H124.696H124.421L124.275 86.7373C124.215 86.8257 124.123 86.8879 124.019 86.9112H123.854H123.79C123.735 86.9216 123.679 86.9216 123.625 86.9112C123.58 86.9206 123.533 86.9206 123.488 86.9112C123.031 86.644 122.676 86.2315 122.481 85.7394C122.465 85.7049 122.457 85.6674 122.457 85.6295C122.457 85.5916 122.465 85.5542 122.481 85.5197C122.488 85.5021 122.501 85.4873 122.518 85.4775C122.534 85.4676 122.553 85.4632 122.572 85.4647L123.369 85.6661L123.121 84.8788C123.121 84.7781 123.057 84.6866 123.295 84.5218C123.339 84.4759 123.391 84.4399 123.45 84.4162C123.508 84.3925 123.571 84.3817 123.634 84.3844H123.753L124.367 84.5859V83.9267C124.367 83.7253 124.431 83.6704 124.531 83.6246C124.586 83.616 124.642 83.616 124.696 83.6246C124.773 83.6313 124.848 83.6531 124.916 83.6887L126.106 84.2837L125.465 83.0844C125.407 82.977 125.361 82.8634 125.328 82.7457C125.328 82.7457 125.328 82.6816 125.328 82.6267C125.338 82.6078 125.353 82.5915 125.37 82.5788C125.387 82.5662 125.407 82.5575 125.429 82.5535L125.538 82.4802ZM125.538 82.0225C125.444 82.027 125.352 82.0534 125.269 82.0994C125.187 82.1455 125.116 82.21 125.062 82.288C124.978 82.3628 124.917 82.4609 124.888 82.5699C124.859 82.679 124.862 82.7942 124.898 82.9013C124.943 83.0332 124.999 83.1617 125.062 83.2858C124.931 83.2113 124.783 83.1704 124.632 83.1668C124.512 83.1691 124.393 83.1972 124.284 83.2492C124.138 83.3055 124.015 83.4092 123.936 83.5438C123.856 83.6783 123.824 83.8358 123.845 83.9908C123.76 83.9777 123.673 83.9777 123.588 83.9908C123.407 83.9976 123.232 84.0581 123.085 84.1647C122.916 84.2392 122.784 84.3767 122.715 84.5478C122.647 84.7189 122.648 84.91 122.719 85.0802C122.673 85.0713 122.627 85.0713 122.581 85.0802C122.481 85.0932 122.384 85.1301 122.3 85.1876C122.217 85.2452 122.148 85.3219 122.1 85.4113C122.051 85.5007 122.025 85.6004 122.023 85.702C122.021 85.8036 122.043 85.9043 122.087 85.9957C122.34 86.5877 122.781 87.08 123.341 87.3964C123.436 87.4257 123.535 87.4411 123.634 87.4422C123.74 87.4435 123.846 87.4248 123.945 87.3873H124.083C124.318 87.3396 124.525 87.2016 124.66 87.0028H124.797C125.003 87.0035 125.205 86.9395 125.374 86.8197C125.574 86.6858 125.726 86.4896 125.804 86.2612L125.868 86.2063C125.973 86.2478 126.085 86.2695 126.198 86.2704C126.49 86.2704 126.71 86.0873 126.774 85.5837C126.76 85.4345 126.76 85.2844 126.774 85.1351H126.884C127.015 85.1338 127.144 85.1046 127.262 85.0493C127.381 84.994 127.486 84.9141 127.571 84.8147C128.669 83.6612 126.509 82.5443 125.74 82.1506C125.652 82.1049 125.555 82.0799 125.456 82.0774L125.538 82.0225Z" fill="black"/>
<path d="M221.336 116.609C213.343 106.969 204.454 111.94 202.193 114.678C181.585 139.607 150.678 144.596 147.629 160.15C145.972 168.555 153.122 189.629 195.702 189.931C240.186 190.243 250.577 164.499 240.415 148.057C230.253 131.614 229.337 126.259 221.336 116.609Z" fill="#075085"/>
<path d="M164.483 183.366L164.657 182.973C157.782 180.94 154.798 173.525 154.944 167.501C155.063 162.301 157.443 156.149 163.779 154.492C167.326 153.595 170.978 153.179 174.636 153.256C180.212 153.182 185.036 153.128 194.21 146.463C208.317 136.237 208.436 113.743 208.436 113.505H207.915C207.915 113.734 207.796 136.035 193.871 146.142C184.835 152.697 180.138 152.752 174.645 152.816C170.943 152.756 167.25 153.184 163.66 154.089C157.059 155.81 154.578 162.136 154.459 167.483C154.276 173.662 157.361 181.261 164.483 183.366Z" fill="black"/>
<path d="M208.308 152.45C208.363 152.972 202.815 156.854 202.394 156.863C194.869 158.374 175.012 154.364 169.564 157.879C169.174 158.133 168.835 158.459 168.567 158.84C164.236 164.855 158.267 180.08 157.8 181.298L155.054 180.29C155.054 180.29 150.257 164.571 151.621 150.024C152.912 136.219 178.28 137.876 178.28 137.876C181.088 137.915 183.82 138.791 186.126 140.393C186.767 139.569 191.463 146.6 191.463 146.6L200.884 144.119C202.872 144.482 204.683 145.499 206.028 147.008C207.373 148.518 208.176 150.433 208.308 152.45Z" fill="black"/>
<path d="M169.564 157.879C169.135 158.081 168.785 158.418 168.567 158.84C163.302 168.782 158.267 180.244 157.8 181.297C157.654 181.205 153.726 167.564 159.631 147.359C164.932 129.187 190.017 147.359 191.005 148.797L209.48 152.376C209.535 152.898 206.999 153.64 206.907 154.207L169.564 157.879Z" fill="black"/>
<path d="M154.212 184.823L154.733 179.778L158.917 180.428L156.326 185.427L154.212 184.823Z" fill="white"/>
<path d="M154.935 180.034L158.597 180.61L156.235 185.188L154.486 184.693L154.962 180.07L154.935 180.034ZM154.532 179.512L153.964 185.005L156.445 185.71L159.265 180.272L154.532 179.53V179.512Z" fill="black"/>
<path d="M154.697 184.173C154.697 184.173 143.198 184.42 141.12 190.169L159.43 189.776C159.43 189.776 160.84 185.747 157.599 184.283C157.608 184.255 156.647 185.372 154.697 184.173Z" fill="#AAB6C2"/>
<path d="M159.494 189.125L146.915 189.4C146.901 188.142 146.587 186.905 146 185.793C145.945 185.683 145.78 185.793 145.835 185.894C146.418 186.971 146.732 188.174 146.75 189.4L141.257 189.51C141.129 189.51 141.138 189.711 141.257 189.702L146.75 189.592C146.75 189.729 146.75 189.876 146.75 190.013C146.75 190.151 146.933 190.132 146.943 190.013C146.952 189.894 146.943 189.729 146.943 189.583L159.521 189.317C159.542 189.309 159.558 189.293 159.569 189.274C159.58 189.255 159.584 189.233 159.581 189.211C159.578 189.189 159.568 189.169 159.552 189.153C159.536 189.138 159.516 189.128 159.494 189.125Z" fill="white"/>
<path d="M151.786 184.347C151.801 184.347 151.816 184.341 151.828 184.331C151.84 184.321 151.847 184.307 151.85 184.292C152.115 183.166 150.449 179.65 148.911 180.822C148.691 181.067 148.549 181.372 148.504 181.698C148.458 182.024 148.511 182.357 148.655 182.653C148.592 182.939 148.618 183.236 148.727 183.507C148.837 183.778 149.025 184.01 149.268 184.173C149.59 184.406 149.979 184.528 150.376 184.521C150.367 184.533 150.363 184.547 150.363 184.562C150.363 184.576 150.367 184.591 150.376 184.603C150.675 184.84 150.913 185.145 151.072 185.491C151.231 185.838 151.306 186.217 151.291 186.599C151.291 186.718 151.474 186.718 151.474 186.599C151.49 186.207 151.415 185.817 151.256 185.458C151.098 185.1 150.859 184.782 150.559 184.53C150.867 184.505 151.173 184.459 151.474 184.392C151.823 184.635 152.104 184.962 152.291 185.344C152.478 185.725 152.566 186.147 152.545 186.571C152.545 186.69 152.729 186.69 152.738 186.571C152.764 186.152 152.691 185.732 152.526 185.346C152.36 184.96 152.107 184.617 151.786 184.347ZM148.755 181.481C149.213 180.016 150.586 181.289 150.98 182.003C151.408 182.591 151.656 183.291 151.694 184.017C151.507 183.4 151.108 182.868 150.568 182.516C150.101 182.177 149.204 181.985 148.737 182.516C148.62 182.179 148.627 181.813 148.755 181.481ZM151.502 184.228C150.641 183.944 149.332 183.541 148.847 182.726C148.935 182.612 149.052 182.524 149.185 182.469C149.319 182.414 149.464 182.396 149.607 182.415C150.024 182.443 150.416 182.626 150.705 182.928C151.112 183.238 151.403 183.677 151.529 184.173L151.502 184.228ZM149.945 184.347C149.636 184.282 149.355 184.121 149.141 183.888C148.928 183.655 148.793 183.361 148.755 183.047C148.755 183.047 148.755 183.047 148.755 182.982C149.376 183.678 150.21 184.148 151.126 184.319C150.745 184.392 150.353 184.389 149.973 184.31L149.945 184.347Z" fill="white"/>
<path d="M152.875 181.123C152.752 181.031 152.65 180.914 152.575 180.78C152.499 180.646 152.452 180.498 152.437 180.345C152.421 180.192 152.438 180.037 152.485 179.891C152.532 179.744 152.609 179.609 152.71 179.494C152.707 179.12 152.779 178.75 152.921 178.404C153.122 178.102 160.245 179.53 160.364 180.592C160.483 181.654 159.705 181.737 159.705 181.737C159.705 181.737 160.355 182.652 159.402 182.652C158.45 182.652 154.999 182.469 152.875 181.123Z" fill="black"/>
<path d="M162.186 151.398C163.953 165.899 171.478 180.401 171.478 180.401L174.371 180.849C174.372 180.834 174.372 180.819 174.371 180.804C174.591 179.522 177.456 163.409 180.523 156.671C180.775 156.107 181.165 155.616 181.658 155.243C185.833 152.075 197.304 156.964 205.04 157.074C216.438 152.405 210.835 141.932 210.835 141.932C208.528 140.22 204.17 139.496 204.17 139.496L186.721 137.876C177.96 138.398 160.254 135.368 162.186 151.398Z" fill="black"/>
<path d="M172.256 178.679C172.728 179.591 173.465 180.338 174.371 180.821C174.372 180.806 174.372 180.791 174.371 180.775L174.6 179.86C175.68 175.392 180.093 157.494 180.624 157.201C185.622 153.411 196.352 159.866 203.337 157.201C203.337 157.201 204.317 158.419 209.224 154.574C207.457 155.05 203.777 157.32 196.791 155.929C187.636 154.098 176.65 145.52 174.069 152.496C171.487 159.472 172.238 178.359 172.256 178.679Z" fill="black"/>
<path d="M171.56 184.933L171.084 179.879L175.314 179.705L173.757 185.107L171.56 184.933Z" fill="white"/>
<path d="M175.003 179.943L173.584 184.859L171.753 184.722L171.313 180.145L174.975 179.989L175.003 179.943ZM175.625 179.458L170.828 179.659L171.35 185.152L173.922 185.354L175.625 179.467V179.458Z" fill="black"/>
<path d="M171.24 183.944C171.24 183.944 159.741 184.365 157.755 190.142L176.065 189.474C176.065 189.474 177.419 185.427 174.188 183.981C174.16 184.018 173.217 185.144 171.24 183.944Z" fill="#AAB6C2"/>
<path d="M176.11 188.85L163.541 189.307C163.515 188.051 163.185 186.819 162.579 185.719C162.524 185.609 162.36 185.719 162.424 185.819C163.005 186.895 163.319 188.094 163.339 189.316L157.846 189.509C157.727 189.509 157.736 189.71 157.846 189.701L163.339 189.509C163.339 189.646 163.339 189.783 163.339 189.93C163.339 190.076 163.522 190.049 163.522 189.93C163.522 189.811 163.522 189.646 163.522 189.509L176.101 189.051C176.248 189.042 176.238 188.85 176.11 188.85Z" fill="white"/>
<path d="M168.338 184.172C168.353 184.168 168.367 184.16 168.378 184.148C168.389 184.137 168.398 184.123 168.402 184.108C168.649 182.982 166.928 179.53 165.417 180.693C165.197 180.939 165.058 181.246 165.017 181.573C164.976 181.9 165.036 182.232 165.188 182.524C165.129 182.809 165.157 183.106 165.268 183.375C165.379 183.644 165.568 183.874 165.811 184.035C166.135 184.261 166.524 184.377 166.919 184.364C166.911 184.377 166.908 184.391 166.908 184.405C166.908 184.42 166.911 184.434 166.919 184.447C167.217 184.681 167.455 184.982 167.614 185.325C167.773 185.669 167.849 186.046 167.834 186.424C167.841 186.445 167.853 186.463 167.871 186.475C167.888 186.488 167.909 186.495 167.93 186.495C167.952 186.495 167.973 186.488 167.99 186.475C168.007 186.463 168.02 186.445 168.026 186.424C168.034 186.03 167.951 185.64 167.785 185.283C167.618 184.926 167.372 184.611 167.065 184.364C167.388 184.332 167.709 184.28 168.026 184.209H168.072C168.425 184.446 168.711 184.768 168.905 185.146C169.099 185.524 169.193 185.945 169.18 186.369C169.18 186.488 169.363 186.479 169.372 186.369C169.385 185.947 169.298 185.529 169.118 185.147C168.938 184.765 168.671 184.431 168.338 184.172ZM165.271 181.352C165.71 179.869 167.102 181.133 167.495 181.837C167.932 182.421 168.192 183.116 168.246 183.842C168.05 183.224 167.641 182.696 167.093 182.35C166.617 182.03 165.729 181.847 165.262 182.35C165.15 182.033 165.153 181.686 165.271 181.371V181.352ZM168.081 184.016C167.166 183.742 165.903 183.357 165.399 182.552C165.488 182.438 165.605 182.349 165.738 182.293C165.87 182.237 166.015 182.216 166.159 182.231C166.578 182.253 166.974 182.433 167.267 182.735C167.684 183.058 167.973 183.518 168.081 184.035V184.016ZM166.525 184.163C166.215 184.102 165.931 183.946 165.715 183.716C165.498 183.486 165.359 183.194 165.317 182.881C165.317 182.881 165.317 182.835 165.317 182.817C165.947 183.502 166.788 183.957 167.706 184.108C167.321 184.209 166.919 184.23 166.525 184.172V184.163Z" fill="white"/>
<path d="M169.519 181.564C169.381 181.497 169.258 181.403 169.159 181.287C169.059 181.171 168.985 181.036 168.94 180.89C168.895 180.743 168.881 180.589 168.899 180.438C168.917 180.286 168.966 180.139 169.043 180.007C168.969 179.639 168.969 179.259 169.043 178.89C169.18 178.552 176.467 178.561 176.769 179.577C177.072 180.593 176.357 180.822 176.357 180.822C176.357 180.822 177.163 181.6 176.229 181.737C175.295 181.875 171.872 182.47 169.519 181.564Z" fill="black"/>
<path d="M162.817 124.16C161.115 124.258 159.422 123.864 157.938 123.025C156.894 122.329 156.281 120.965 156.107 118.97C155.548 112.479 159.906 101.484 162.781 98.6822L165.573 98.1055C165.399 98.9477 164.95 101.218 164.657 103.809C164.529 104.825 164.319 105.869 164.117 106.876C163.559 109.622 163.083 112.021 164.245 113.284C164.408 113.46 164.607 113.6 164.828 113.693C165.049 113.786 165.287 113.831 165.527 113.825C166.644 113.825 168.045 112.991 169.4 112.094C169.976 111.71 170.581 111.289 171.231 110.858C173.977 108.917 177.163 106.711 179.882 106.711C180.8 106.698 181.695 106.991 182.427 107.544C184.624 109.165 185.393 111.023 184.725 113.037C182.802 118.668 170.59 124.16 162.817 124.16Z" fill="white"/>
<path d="M165.28 98.3991C165.079 99.4245 164.694 101.475 164.364 103.773C164.227 104.771 164.026 105.806 163.824 106.794C163.257 109.614 162.771 112.058 164.017 113.386C164.2 113.585 164.424 113.743 164.674 113.849C164.923 113.954 165.192 114.006 165.463 113.999C166.635 113.999 168.081 113.148 169.464 112.232C170.04 111.848 170.645 111.427 171.295 110.996C174.041 109.065 177.163 106.886 179.809 106.886C180.677 106.872 181.524 107.149 182.217 107.673C184.331 109.229 185.073 111.006 184.432 112.946C182.601 118.439 170.517 123.932 162.817 123.932C161.161 124.028 159.512 123.647 158.066 122.834C157.077 122.175 156.5 120.875 156.336 118.952C155.786 112.544 160.043 101.732 162.9 98.8935L165.28 98.3991ZM165.875 97.8132L162.671 98.4724C158.789 102.134 152.6 119.767 157.809 123.191C159.332 124.055 161.069 124.465 162.817 124.372C173.51 124.372 191.976 114.301 182.491 107.316C181.715 106.743 180.774 106.438 179.809 106.446C176.403 106.446 172.412 109.76 169.244 111.866C167.77 112.837 166.498 113.56 165.49 113.56C165.283 113.567 165.077 113.528 164.885 113.448C164.694 113.367 164.523 113.246 164.383 113.093C162.872 111.491 164.383 107.517 164.85 103.819C165.271 100.532 165.875 97.7949 165.875 97.7949V97.8132Z" fill="black"/>
<path d="M183.05 113.011C182.808 114.046 182.452 115.05 181.988 116.005C180.81 118.585 178.9 120.763 176.495 122.267C173.593 124.025 169.848 109.945 172.879 107.619C177.456 104.085 183.562 99.627 187.16 99.1326C190.758 98.6382 183.05 113.011 183.05 113.011Z" fill="#AAB6C2"/>
<path d="M187.362 100.139C187.362 100.139 183.489 104.048 182.006 107.142C180.523 110.237 177.941 114.466 177.749 118.128C177.644 119.26 177.601 120.397 177.621 121.534L180.367 119.309C180.367 119.309 183.343 116.819 183.26 115.986C183.178 115.153 187.362 100.139 187.362 100.139Z" fill="black"/>
<path d="M208.51 143.672C204.692 143.672 195.583 141.978 189.998 139.882C186.519 138.582 180.395 135.085 179.781 134.389C180.168 132.741 180.698 131.129 181.365 129.573C182.311 127.353 183.032 125.044 183.517 122.68C183.614 122.15 183.681 121.615 183.718 121.077C183.74 119.053 183.636 117.029 183.407 115.017L183.324 114.101C182.894 109.258 182.18 101.147 185.476 99.8196L186.162 99.5633C187.097 99.213 188.054 98.9285 189.028 98.7119H189.211C190.754 98.3736 192.328 98.2017 193.907 98.1992C195.761 98.2032 197.607 98.4432 199.4 98.9133C201.208 99.3742 202.954 100.05 204.6 100.927C205.474 101.377 206.318 101.881 207.127 102.438C207.686 102.804 208.098 103.106 208.436 103.353C209.8 104.406 210.56 110.073 210.515 118.917C210.515 120.336 210.515 121.792 210.441 123.229C210.44 127.665 210.694 132.097 211.201 136.504C211.485 139.525 211.76 142.372 211.549 142.839C211.494 142.939 211.219 143.297 209.718 143.58C209.321 143.643 208.92 143.67 208.519 143.663L208.51 143.672Z" fill="white"/>
<path d="M193.907 98.4363C195.761 98.4369 197.607 98.6738 199.4 99.1412C201.191 99.6016 202.921 100.272 204.555 101.137C205.416 101.589 206.251 102.09 207.054 102.638C207.603 103.005 207.969 103.298 208.354 103.554C209.645 104.543 210.386 110.283 210.341 118.916C210.341 120.161 210.341 121.525 210.267 123.219C210.266 127.664 210.52 132.105 211.027 136.521C211.302 139.359 211.577 142.289 211.393 142.737C211.393 142.737 211.192 143.076 209.7 143.35C209.319 143.413 208.932 143.441 208.546 143.433C204.747 143.433 195.684 141.748 190.108 139.661C186.588 138.216 183.216 136.435 180.038 134.342C180.427 132.753 180.944 131.197 181.585 129.691C182.542 127.465 183.266 125.146 183.745 122.77C183.846 122.225 183.916 121.675 183.956 121.122C183.979 119.082 183.872 117.042 183.636 115.016L183.562 114.1C183.141 109.322 182.427 101.283 185.558 100.057L185.76 99.9835L186.263 99.7912C187.16 99.4544 188.077 99.1761 189.01 98.9581H189.422V98.8665C190.888 98.5569 192.382 98.4005 193.88 98.3996L193.907 98.4363ZM193.907 97.9785C192.253 97.9778 190.604 98.1651 188.991 98.537C188.006 98.7709 187.039 99.0768 186.098 99.4525C185.869 99.5257 185.641 99.6173 185.393 99.7088C182.098 101.036 182.574 108.205 183.105 114.219C183.373 116.517 183.504 118.828 183.498 121.141C183.463 121.672 183.396 122.201 183.297 122.724C182.555 127.155 180.102 131.303 179.552 134.525C179.699 135.001 186.263 138.755 189.925 140.128C195.546 142.243 204.573 143.936 208.519 143.936C208.935 143.943 209.352 143.915 209.764 143.854C210.89 143.643 211.595 143.341 211.778 142.939C212.309 141.794 210.478 130.653 210.698 123.246C210.698 121.809 210.771 120.353 210.771 118.925C210.771 111.473 210.286 104.497 208.601 103.197C208.217 102.895 207.777 102.583 207.283 102.281C206.466 101.722 205.616 101.211 204.738 100.752C203.07 99.878 201.307 99.1991 199.483 98.7292C197.666 98.2497 195.795 98.0066 193.917 98.006L193.907 97.9785Z" fill="black"/>
<path d="M178.134 134.652C178.289 135.128 186.922 139.175 191.82 141.18C198.091 143.761 206.999 144.338 209.755 143.816C210.881 143.606 211.586 143.304 211.769 142.901C212.3 141.757 210.469 130.615 210.689 123.209C210.689 121.771 210.762 120.316 210.762 118.887C210.762 111.435 210.277 104.459 208.592 103.159C208.208 102.857 207.768 102.546 207.274 102.244C206.457 101.684 205.607 101.173 204.729 100.715C203.061 99.8404 201.297 99.1615 199.474 98.6916C196.045 97.7858 192.447 97.7293 188.991 98.5268C188.006 98.7607 187.039 99.0667 186.098 99.4423C185.87 99.5156 185.641 99.6071 185.393 99.6987C182.098 101.026 182.574 108.194 183.105 114.209C183.334 116.974 177.41 134.323 178.134 134.652Z" fill="#AAB6C2"/>
<path d="M192.296 99.4344C192.171 99.4484 192.046 99.4484 191.921 99.4344C191.894 99.432 191.869 99.4232 191.847 99.4089C191.824 99.3945 191.806 99.375 191.793 99.352C191.683 99.1231 191.903 98.5463 192.076 98.2168V95.0034L195.738 93.502V97.9604C194.74 98.7443 193.553 99.2525 192.296 99.4344Z" fill="white"/>
<path d="M195.519 93.8409V97.8416C194.585 98.5685 193.477 99.0387 192.305 99.2057C192.205 99.2148 192.104 99.2148 192.003 99.2057C192.025 98.8826 192.122 98.569 192.287 98.2902L192.342 98.1895V95.1592L195.519 93.8409ZM195.977 93.1543L191.884 94.848V98.1163C191.884 98.1163 191.124 99.517 191.884 99.6726C192.025 99.6821 192.165 99.6821 192.305 99.6726C193.935 99.6726 195.967 98.0888 195.967 98.0888V93.1634L195.977 93.1543Z" fill="black"/>
<path d="M193.12 95.4419C192.48 95.4386 191.849 95.2941 191.271 95.0187C190.694 94.7434 190.184 94.344 189.779 93.8489C189.523 93.5738 189.331 93.246 189.215 92.8885C189.1 92.5311 189.064 92.1527 189.11 91.7799C189.685 89.4831 190.569 87.2748 191.738 85.2158L199.263 86.3877C199.327 87.3031 199.41 91.6243 196.151 94.2792C195.307 95.0091 194.235 95.4205 193.12 95.4419Z" fill="white"/>
<path d="M191.857 85.4723L199.043 86.5892C199.043 87.761 199.043 91.661 196.004 94.0962C195.204 94.7965 194.183 95.1921 193.12 95.2131C192.514 95.2089 191.916 95.0713 191.368 94.8103C190.821 94.5493 190.338 94.1711 189.953 93.7026C189.719 93.4539 189.543 93.1569 189.437 92.8325C189.331 92.5082 189.297 92.1645 189.339 91.8258C189.89 89.6047 190.737 87.4677 191.857 85.4723ZM191.619 84.9688C190.391 87.0843 189.467 89.3617 188.872 91.7343C188.515 93.4188 190.538 95.6709 193.102 95.6709C194.271 95.6497 195.395 95.2188 196.279 94.4533C200.06 91.3772 199.465 86.2138 199.465 86.2138L191.6 84.9871L191.619 84.9688Z" fill="black"/>
<path d="M207.036 129.811C207.439 132.887 208.757 140.797 209.782 143.818C210.908 143.608 211.613 143.306 211.796 142.903C212.327 141.758 210.496 130.617 210.716 123.21C210.716 121.773 210.789 120.317 210.789 118.889C210.192 117.551 209.485 116.265 208.674 115.044C206.303 111.382 206.367 101.66 204.811 102.923C199.318 107.409 198.101 116.463 201.47 121.324C203.74 124.666 206.477 125.527 207.036 129.811Z" fill="black"/>
<path d="M188.817 83.6877C190.218 86.3152 194.31 86.8553 197.396 87.13C197.313 87.4413 197.277 87.7708 197.222 88.0455C196.956 89.1715 196.224 90.5082 196.553 91.7075C196.597 91.8958 196.678 92.0734 196.792 92.2298C196.906 92.3863 197.05 92.5183 197.215 92.6182C197.381 92.718 197.565 92.7837 197.756 92.8112C197.947 92.8388 198.142 92.8277 198.329 92.7786C198.545 92.7301 198.744 92.6247 198.905 92.4733C199.066 92.322 199.183 92.1302 199.245 91.918C200.746 90.087 201.186 86.4891 200.032 84.5941C199.261 83.5436 198.106 82.8397 196.819 82.6349C195.838 82.4148 194.907 82.0143 194.072 81.4539C193.613 81.0431 193.091 80.7092 192.525 80.4652C190.081 79.6412 187.371 80.987 188.817 83.6877Z" fill="black"/>
<path d="M185.21 135.705L200.49 136.621L185.86 140.722L185.21 135.705Z" fill="black"/>
<path d="M186.089 140.896L200.279 136.923L200.334 137.912L186.089 142.26V140.896Z" fill="white"/>
<path d="M200.069 137.216V137.747L186.291 141.949V141.033L200.023 137.179L200.069 137.216ZM200.49 136.63L185.842 140.722V142.553L200.536 138.076L200.453 136.63H200.49Z" fill="black"/>
<path d="M154.23 138.818L185.86 140.723V142.572L154.239 140.457L154.23 138.818Z" fill="black"/>
<path d="M154.431 138.599L152.088 122.12C152.068 121.976 152.079 121.829 152.122 121.69C152.165 121.551 152.237 121.423 152.335 121.315C152.429 121.206 152.546 121.118 152.677 121.058C152.808 120.998 152.951 120.967 153.095 120.967L182.226 122.688C182.461 122.71 182.681 122.814 182.848 122.981C183.015 123.148 183.119 123.368 183.141 123.603L185.54 140.513L154.431 138.599Z" fill="white"/>
<path d="M153.095 121.16H153.15L182.226 122.918C182.411 122.931 182.585 123.007 182.72 123.134C182.855 123.26 182.943 123.43 182.967 123.613L185.329 140.23L154.633 138.399L152.317 122.075C152.3 121.963 152.307 121.849 152.339 121.74C152.371 121.63 152.425 121.53 152.5 121.444C152.576 121.362 152.668 121.296 152.77 121.25C152.872 121.205 152.983 121.18 153.095 121.178V121.16ZM153.095 120.702C152.918 120.703 152.743 120.742 152.582 120.816C152.421 120.889 152.277 120.996 152.16 121.13C152.043 121.263 151.956 121.419 151.904 121.589C151.852 121.758 151.837 121.936 151.859 122.112L154.23 138.82L185.888 140.724L183.453 123.549C183.415 123.261 183.279 122.995 183.066 122.796C182.854 122.598 182.58 122.479 182.29 122.46L153.205 120.702H153.095Z" fill="black"/>
<path d="M212.016 138.975C205.882 138.975 198.613 136.988 197.368 136.64L197.597 133.738C198.027 133.738 199.034 133.821 200.289 133.821C204.326 133.821 209.444 133.299 210.945 130.818C211.412 130.03 210.213 122.249 208.061 120.18C207.027 119.191 205.992 118.275 205.315 117.68C203.291 115.941 201.927 113.559 201.451 110.933C201.058 108.818 201.242 106.636 201.982 104.616C202.223 103.958 202.663 103.392 203.24 102.995C203.818 102.598 204.504 102.39 205.205 102.401C206.01 102.395 206.792 102.674 207.411 103.188C210.817 105.935 216.218 112.819 217.271 114.174C222.984 121.644 224.165 130.717 220.191 136.292C218.919 138.078 216.172 138.975 212.016 138.975Z" fill="white"/>
<path d="M205.186 102.693C205.937 102.691 206.665 102.95 207.246 103.425C210.643 106.172 216.026 113.029 217.07 114.411C222.682 121.735 223.863 130.716 219.953 136.209C218.736 137.903 216.053 138.773 211.979 138.773C206.129 138.773 199.227 136.942 197.597 136.493L197.798 134.003C198.302 134.003 199.19 134.076 200.279 134.076C204.381 134.076 209.59 133.536 211.128 130.954C211.751 129.92 210.304 122.056 208.208 120.042C207.182 119.062 206.148 118.137 205.461 117.542C203.466 115.849 202.112 113.522 201.625 110.951C201.245 108.872 201.425 106.73 202.147 104.744C202.373 104.13 202.785 103.602 203.324 103.233C203.864 102.864 204.505 102.672 205.159 102.684L205.186 102.693ZM205.186 102.235C204.44 102.231 203.711 102.456 203.096 102.878C202.481 103.3 202.009 103.9 201.744 104.597C200.999 106.648 200.813 108.859 201.204 111.006C201.709 113.679 203.114 116.099 205.186 117.863C206.029 118.595 207.017 119.474 207.933 120.353C210.002 122.349 211.174 130.03 210.771 130.707C209.288 133.188 203.777 133.6 200.316 133.6C198.622 133.6 197.414 133.499 197.414 133.499L197.148 136.813C197.148 136.813 205.223 139.212 212.016 139.212C215.623 139.212 218.882 138.535 220.356 136.466C224.641 130.451 222.828 121.122 217.472 114.127C217.326 113.935 211.284 106.108 207.539 103.05C206.877 102.505 206.044 102.211 205.186 102.217V102.235Z" fill="black"/>
<path d="M207.915 121.993C207.063 121.178 200.939 115.428 200.591 109.835C200.435 107.427 201.268 102.575 204.253 101.888C208.995 100.79 215.33 107.674 219.706 112.874C217.646 117.397 213.243 120.564 207.915 121.993Z" fill="#AAB6C2"/>
<path d="M190.941 137.271C190.72 137.271 190.5 137.253 190.282 137.216C190.239 137.211 190.197 137.196 190.159 137.174C190.122 137.152 190.089 137.123 190.062 137.088C190.021 136.985 190.021 136.871 190.062 136.768L190.145 136.539L189.916 136.475C189.785 136.442 189.666 136.375 189.568 136.283C189.474 136.184 189.422 136.053 189.422 135.916V135.779L189.303 135.724C189.169 135.649 189.046 135.557 188.936 135.45C188.767 135.287 188.648 135.078 188.594 134.849C188.541 134.62 188.555 134.38 188.634 134.159L188.827 133.628L188.314 133.866C187.5 134.298 186.773 134.879 186.172 135.578C186.14 135.613 186.102 135.641 186.06 135.662C186.017 135.682 185.971 135.694 185.924 135.697C185.849 135.691 185.777 135.665 185.716 135.622C185.655 135.578 185.606 135.519 185.577 135.45C185.52 135.323 185.491 135.186 185.491 135.047C185.491 134.908 185.52 134.771 185.577 134.644C186.062 133.828 186.821 133.212 187.719 132.904C188.327 132.706 188.965 132.61 189.605 132.621H190.163H190.401H190.529L190.859 132.566L190.685 132.282L190.621 132.172C190.584 132.124 190.553 132.072 190.529 132.016C190.341 131.621 190.312 131.169 190.447 130.753C190.48 130.658 190.533 130.572 190.603 130.499C190.672 130.426 190.756 130.369 190.85 130.332C190.92 130.304 190.994 130.288 191.069 130.286C191.463 130.286 191.811 130.771 192.086 131.147L192.333 131.485C192.839 132.12 193.46 132.654 194.164 133.06C194.712 133.267 195.284 133.402 195.867 133.463L196.407 133.545L196.7 133.591C197.167 133.655 197.753 133.738 197.972 134.085C198.171 134.583 198.213 135.129 198.091 135.651C197.972 136.136 197.524 136.374 197.048 136.566C196.623 136.75 196.177 136.879 195.72 136.951C195.196 137.12 194.65 137.212 194.1 137.226C193.809 137.228 193.52 137.191 193.239 137.116C193.067 137.068 192.901 137 192.745 136.914H192.653H192.553C192.045 137.14 191.497 137.262 190.941 137.271Z" fill="white"/>
<path d="M191.106 130.514C191.381 130.514 191.701 130.963 191.939 131.283C192.031 131.412 192.113 131.531 192.196 131.631C192.718 132.298 193.365 132.858 194.1 133.279C194.663 133.49 195.25 133.628 195.848 133.691L196.379 133.774L196.681 133.819C197.075 133.874 197.597 133.948 197.78 134.204C197.952 134.648 197.984 135.133 197.872 135.595C197.789 135.952 197.487 136.145 196.956 136.383C196.556 136.562 196.135 136.688 195.702 136.758H195.638C195.143 136.917 194.628 137.007 194.109 137.024C193.839 137.026 193.571 136.989 193.312 136.914C193.154 136.869 193.001 136.807 192.855 136.731L192.672 136.639L192.479 136.721C191.995 136.923 191.475 137.028 190.95 137.033C190.736 137.033 190.521 137.014 190.31 136.978H190.264C190.255 136.959 190.25 136.939 190.25 136.918C190.25 136.898 190.255 136.877 190.264 136.859L190.419 136.401L189.962 136.264C189.866 136.241 189.777 136.194 189.705 136.126C189.657 136.064 189.631 135.986 189.632 135.907V135.65L189.403 135.531C189.292 135.466 189.187 135.39 189.092 135.302C188.954 135.168 188.856 134.996 188.811 134.808C188.765 134.621 188.774 134.424 188.836 134.24L189.229 133.188L188.213 133.673C187.364 134.104 186.61 134.702 185.998 135.431C185.952 135.476 185.924 135.476 185.915 135.476C185.906 135.476 185.815 135.476 185.778 135.357C185.733 135.261 185.71 135.157 185.71 135.051C185.71 134.945 185.733 134.84 185.778 134.744C186.26 133.997 186.984 133.438 187.829 133.16C188.421 132.975 189.039 132.885 189.66 132.895H190.2H190.282H190.355H190.474H190.63L191.271 132.776L190.941 132.208L190.859 132.089C190.859 132.089 190.859 132.016 190.795 131.97C190.63 131.631 190.6 131.241 190.712 130.881C190.736 130.817 190.773 130.759 190.82 130.71C190.867 130.661 190.924 130.623 190.987 130.597C191.032 130.587 191.079 130.587 191.124 130.597L191.106 130.514ZM191.106 130.057C191.002 130.056 190.899 130.078 190.804 130.121C190.026 130.432 190.072 131.485 190.355 132.117C190.401 132.208 190.474 132.3 190.529 132.4C190.419 132.4 190.319 132.4 190.209 132.446H189.641C188.977 132.435 188.315 132.534 187.682 132.739C186.693 133.069 184.78 134.295 185.357 135.559C185.401 135.669 185.477 135.764 185.574 135.833C185.672 135.901 185.787 135.939 185.906 135.943C185.985 135.942 186.063 135.923 186.135 135.888C186.206 135.854 186.268 135.804 186.318 135.742C186.905 135.071 187.609 134.512 188.396 134.094C188.302 134.356 188.286 134.64 188.349 134.911C188.413 135.182 188.553 135.429 188.753 135.623C188.876 135.751 189.018 135.859 189.174 135.943C189.177 136.135 189.252 136.318 189.385 136.456C189.509 136.579 189.664 136.668 189.834 136.712C189.8 136.788 189.785 136.871 189.789 136.953C189.792 137.036 189.815 137.117 189.855 137.189C189.895 137.262 189.95 137.324 190.018 137.372C190.086 137.419 190.164 137.45 190.246 137.463C190.479 137.499 190.714 137.518 190.95 137.518C191.536 137.517 192.115 137.398 192.653 137.17C192.824 137.255 193.002 137.326 193.184 137.381C193.482 137.468 193.79 137.511 194.1 137.509C194.663 137.492 195.22 137.396 195.757 137.225C196.233 137.15 196.697 137.014 197.139 136.822C197.652 136.584 198.165 136.31 198.311 135.724C198.447 135.143 198.396 134.534 198.165 133.984C197.844 133.462 196.974 133.435 196.453 133.343C195.709 133.267 194.975 133.111 194.265 132.876C193.599 132.484 193.015 131.968 192.543 131.357C192.177 130.917 191.738 130.075 191.097 130.075L191.106 130.057Z" fill="black"/>
<path d="M163.385 99.2878C162.564 99.2933 161.768 99.0115 161.133 98.4913L160.895 98.2624C160.6 97.948 160.384 97.5688 160.263 97.1553C160.142 96.7418 160.12 96.3056 160.199 95.8821C160.24 95.6614 160.351 95.4599 160.516 95.308C160.681 95.1561 160.891 95.062 161.115 95.0399H161.298V94.8476C161.303 94.7097 161.35 94.5766 161.434 94.4668C161.517 94.357 161.633 94.2757 161.765 94.2342C161.853 94.2213 161.942 94.2213 162.03 94.2342C162.272 94.2472 162.499 94.3559 162.662 94.5363L162.918 94.7927L163.037 94.4539C163.193 94.0328 163.394 94.0328 163.458 94.0328C163.561 94.0377 163.661 94.0659 163.751 94.1152C163.909 94.1899 164.04 94.3114 164.126 94.4631L164.529 95.0765V94.3441C164.562 93.8317 164.467 93.3192 164.255 92.8518C163.991 92.3851 163.684 91.9438 163.339 91.5335C163.119 91.2406 162.9 90.9567 162.717 90.618C162.683 90.563 162.665 90.4996 162.665 90.4349C162.665 90.3702 162.683 90.3068 162.717 90.2518C162.75 90.1834 162.799 90.1237 162.859 90.0776C162.919 90.0315 162.99 90.0002 163.065 89.9863C163.962 90.5555 164.745 91.2884 165.372 92.1469C166.287 94.2342 166.809 96.999 165.372 98.4913C165.094 98.7631 164.765 98.9755 164.403 99.1156C164.041 99.2556 163.654 99.3205 163.266 99.3061L163.385 99.2878Z" fill="white"/>
<path d="M163.129 90.216C163.944 90.7605 164.662 91.4383 165.252 92.221C166.168 94.2442 166.644 96.9083 165.326 98.3182C165.069 98.5664 164.765 98.76 164.431 98.8874C164.098 99.0149 163.742 99.0735 163.385 99.0597C162.616 99.0696 161.869 98.8032 161.279 98.309C161.203 98.249 161.132 98.1815 161.069 98.1076C160.815 97.8216 160.63 97.4819 160.527 97.114C160.424 96.7461 160.406 96.3596 160.474 95.9837C160.504 95.8124 160.589 95.6557 160.716 95.5369C160.844 95.418 161.006 95.3435 161.179 95.3245H161.554L161.609 94.9492C161.609 94.6654 161.764 94.5647 161.92 94.5189C161.987 94.5065 162.055 94.5065 162.121 94.5189C162.209 94.5241 162.295 94.547 162.374 94.5864C162.453 94.6257 162.522 94.6806 162.579 94.7477L163.083 95.2604L163.339 94.5921C163.339 94.5097 163.449 94.3175 163.54 94.3175C163.609 94.3232 163.675 94.3452 163.733 94.3815C163.85 94.4384 163.948 94.5273 164.017 94.6379L164.813 95.8555L164.859 94.3999C164.89 93.8522 164.786 93.3051 164.557 92.8069C164.298 92.3256 163.991 91.8717 163.641 91.452C163.421 91.159 163.211 90.8752 163.037 90.5914C163.027 90.5733 163.021 90.5528 163.021 90.5319C163.021 90.511 163.027 90.4905 163.037 90.4724C163.063 90.408 163.112 90.3556 163.174 90.3259L163.129 90.216ZM163.129 89.74C163.019 89.7512 162.914 89.7886 162.822 89.849C162.73 89.9095 162.653 89.9912 162.6 90.0872C162.546 90.1833 162.516 90.2908 162.512 90.4009C162.509 90.511 162.532 90.6203 162.579 90.7196C163.037 91.4611 163.687 92.1203 164.071 92.8985C164.269 93.3312 164.357 93.806 164.328 94.2808C164.217 94.098 164.054 93.9516 163.861 93.8597C163.74 93.7939 163.605 93.7563 163.467 93.7499C163.147 93.7499 162.955 93.997 162.836 94.3175C162.736 94.2061 162.615 94.1162 162.48 94.0533C162.344 93.9903 162.197 93.9556 162.048 93.9513C161.93 93.9524 161.813 93.9709 161.7 94.0062C161.528 94.0638 161.378 94.1711 161.267 94.3145C161.156 94.4579 161.09 94.631 161.078 94.8118C160.805 94.8385 160.547 94.9527 160.344 95.1375C160.142 95.3223 160.004 95.5677 159.952 95.8372C159.871 96.2828 159.893 96.7409 160.015 97.177C160.137 97.6131 160.356 98.0158 160.657 98.3548C160.657 98.3548 160.657 98.3548 160.702 98.3548C160.783 98.4388 160.869 98.5183 160.959 98.5928C161.627 99.1627 162.48 99.4688 163.357 99.4534C163.778 99.4638 164.197 99.3879 164.587 99.2305C164.978 99.073 165.332 98.8373 165.628 98.5379C167.239 96.8259 166.461 93.7865 165.628 91.9372C164.993 91.0557 164.202 90.2985 163.293 89.7034C163.239 89.6674 163.175 89.6483 163.11 89.6484L163.129 89.74Z" fill="black"/>
<path d="M198.943 133.819L196.791 133.646L196.965 136.676C197.322 136.666 197.677 136.728 198.009 136.859C198.595 137.069 199.776 136.328 199.629 135.586C199.464 134.975 199.234 134.382 198.943 133.819Z" fill="white"/>
<path d="M165.481 98.4732L165.307 99.4527L162.259 100.698L162.085 99.5809C162.083 99.4591 162.057 99.3389 162.008 99.2273C161.96 99.1157 161.889 99.0149 161.801 98.9309C161.481 98.6013 160.986 97.814 162.259 97.8689C163.349 97.975 164.427 98.1772 165.481 98.4732Z" fill="white"/>
<path d="M103.237 34.9461L100.271 19.2728L136.433 14.2559L137.504 39.7433L107.476 41.7024L98.934 48.2391L103.237 34.9461Z" fill="white"/>
<path d="M136.213 14.5218L137.266 39.524L107.531 41.474H107.393L107.283 41.5564L99.3734 47.617L103.438 35.0747L103.493 34.9465V34.8275L100.582 19.4472L136.286 14.5035L136.213 14.5218ZM136.652 14L100.033 19.081L103.008 34.9465L98.4854 48.8712L107.558 41.9318L137.769 39.9543L136.68 14H136.652Z" fill="black"/>
<path d="M116.548 21.5347L115.276 22.0016C115.222 21.9529 115.156 21.9196 115.086 21.9051C115.015 21.8906 114.941 21.8955 114.873 21.9192C114.681 21.9741 113.747 22.4318 113.692 22.0565C113.686 21.9866 113.663 21.9193 113.624 21.861C113.585 21.8026 113.532 21.7552 113.47 21.7231C113.407 21.691 113.338 21.6754 113.268 21.6776C113.198 21.6799 113.129 21.7 113.069 21.7361C113.069 21.7361 110.9 23.1642 110.9 22.4502C110.9 22.0107 110.341 21.9741 110.131 22.2762L109.05 22.7156C109.027 22.6493 108.987 22.5901 108.934 22.5436C108.881 22.4972 108.817 22.4651 108.748 22.4504C108.679 22.4357 108.608 22.4389 108.54 22.4597C108.473 22.4805 108.412 22.5182 108.364 22.5692C108.176 22.8668 107.881 23.0805 107.54 23.1658C107.199 23.2511 106.838 23.2013 106.533 23.0269C106.295 22.56 105.617 23.0269 105.855 23.4664C106.533 24.803 107.787 24.2628 108.602 23.4664C109.096 23.979 109.773 23.7593 110.314 23.2649C110.845 23.9058 112.2 23.1917 113.06 22.6973C113.153 22.921 113.331 23.0988 113.554 23.1917C114.296 23.5213 114.177 23.0086 114.809 22.9262C115.935 22.7797 116.402 23.3016 117.308 21.8917C117.555 21.4706 116.832 21.0952 116.548 21.5347Z" fill="black"/>
<path d="M132.295 19.382C131.507 19.8397 129.997 21.0573 129.026 20.2975C128.972 20.2497 128.907 20.2162 128.837 20.2002C128.766 20.1842 128.693 20.1862 128.624 20.2059C128.413 20.3066 127.708 20.7369 127.516 20.5172C127.456 20.4291 127.365 20.3674 127.261 20.3453C127.156 20.3231 127.048 20.342 126.957 20.3982C126.731 20.6478 126.425 20.8121 126.092 20.8638C125.759 20.9154 125.418 20.8513 125.126 20.682C125.049 20.6065 124.946 20.5642 124.838 20.5642C124.73 20.5642 124.627 20.6065 124.55 20.682H123.14C122.947 20.1968 122.169 20.444 122.371 20.9292C122.437 21.1851 122.572 21.4179 122.762 21.6023C122.951 21.7868 123.188 21.9157 123.446 21.9752C123.703 22.0346 123.972 22.0223 124.223 21.9396C124.474 21.8569 124.698 21.7069 124.87 21.5059C125.593 22.0644 126.417 21.7623 127.15 21.2221C127.726 21.6799 128.065 21.1489 128.816 21.1031C129.237 21.1031 129.521 21.4419 130.052 21.3595C131.016 21.0543 131.923 20.5901 132.734 19.9862C133.192 19.7848 132.789 19.1073 132.295 19.382Z" fill="black"/>
<path d="M119.835 24.9481C118.987 25.1924 118.108 25.3157 117.226 25.3143C117.164 25.2255 117.071 25.1637 116.966 25.1415C116.86 25.1194 116.75 25.1386 116.658 25.1953C116.167 25.5517 115.58 25.7497 114.974 25.7629C114.745 25.7629 114.9 25.534 114.461 25.6347C114.232 25.6896 113.326 25.8911 113.307 26.1108C113.309 26.0336 113.289 25.9574 113.249 25.8915C113.208 25.8255 113.15 25.7725 113.081 25.7387C113.011 25.7049 112.934 25.6918 112.857 25.701C112.78 25.7102 112.708 25.7412 112.648 25.7903C112.511 25.8911 112.364 25.9734 112.218 26.065V26.0101C112.16 25.9204 112.069 25.8569 111.965 25.833C111.86 25.8091 111.751 25.8266 111.659 25.8819C111.224 26.1632 110.806 26.4688 110.405 26.7974C110.231 26.3122 109.49 26.5594 109.636 27.0537C110.021 28.0791 111.064 27.3375 111.742 26.834C111.771 26.8786 111.808 26.917 111.852 26.9472C111.895 26.9773 111.944 26.9985 111.996 27.0096C112.048 27.0206 112.102 27.0213 112.154 27.0116C112.206 27.0019 112.256 26.982 112.3 26.953C112.425 26.8854 112.544 26.8089 112.657 26.7242C112.923 26.9622 113.417 26.8615 113.829 26.7882C114.109 26.7082 114.393 26.644 114.681 26.596C114.763 26.596 115.138 26.7425 115.202 26.7425C115.771 26.6443 116.306 26.4051 116.759 26.0467C117.116 26.3946 117.555 26.2939 118.123 26.184C119.038 25.9918 120.027 26.184 120.531 25.2685C120.824 24.8749 120.1 24.4995 119.835 24.9481Z" fill="black"/>
<path d="M129.127 24.2987C128.971 24.5459 128.212 24.2163 127.937 24.2163C127.763 24.2111 127.59 24.2488 127.433 24.3262C127.25 24.4086 127.131 24.4452 127.223 24.6283C126.985 24.1614 126.307 24.6283 126.536 25.0677C126.592 25.1753 126.678 25.2639 126.784 25.3226C126.89 25.3812 127.011 25.4072 127.131 25.3973C127.286 25.38 127.434 25.3232 127.562 25.2325C127.827 25.0677 127.9 25.0037 128.212 25.0677C128.843 25.1959 129.457 25.2966 129.841 24.6741C130.143 24.2346 129.429 23.8593 129.127 24.2987Z" fill="black"/>
<path d="M118.361 30.0662C118.095 30.1394 116.219 30.7619 116.063 30.5422C116.029 30.4909 115.983 30.4479 115.93 30.4166C115.877 30.3852 115.817 30.3661 115.756 30.3608C115.694 30.3556 115.632 30.3642 115.575 30.3861C115.517 30.408 115.465 30.4426 115.422 30.4873L114.919 30.5697C114.874 30.496 114.808 30.4374 114.73 30.4015C114.651 30.3655 114.564 30.354 114.479 30.3683C114.122 30.469 111.312 31.1922 111.165 31.0091C111.13 30.9592 111.084 30.9175 111.031 30.8871C110.978 30.8567 110.918 30.8382 110.857 30.833C110.796 30.8277 110.735 30.8359 110.677 30.8568C110.62 30.8778 110.568 30.911 110.524 30.9542C110.353 31.2179 110.099 31.4169 109.802 31.5198C109.506 31.6226 109.183 31.6233 108.885 31.5218C108.492 31.1922 107.97 31.7873 108.345 32.126C109.261 32.8859 110.103 32.5197 110.835 31.8056C110.971 31.9219 111.128 32.0101 111.298 32.0651C111.467 32.1201 111.646 32.1408 111.824 32.126C112.438 32.126 112.557 31.6317 113.069 31.5401C113.344 31.5401 113.646 31.6591 113.93 31.6134C114.214 31.5676 114.324 31.3296 114.47 31.3021C114.563 31.3581 114.666 31.3984 114.772 31.4211C115.086 31.4276 115.398 31.3683 115.688 31.2472C116.475 31.7324 117.857 31.0091 118.608 30.7986C119.112 30.6979 118.864 29.9288 118.361 30.0662Z" fill="black"/>
<path d="M132.075 28.3369C130.762 28.2418 129.445 28.2173 128.129 28.2636C128.051 28.1903 127.948 28.1494 127.841 28.1494C127.734 28.1494 127.63 28.1903 127.552 28.2636C127.282 28.6227 126.908 28.8905 126.481 29.0312C126.054 29.172 125.594 29.1788 125.163 29.051C125.116 29.0257 125.064 29.0101 125.01 29.0052C124.957 29.0003 124.903 29.0061 124.852 29.0223C124.801 29.0385 124.753 29.0648 124.712 29.0996C124.671 29.1344 124.638 29.177 124.614 29.2249L123.295 29.4538C123.229 29.3934 123.145 29.3563 123.056 29.3481C122.967 29.3398 122.877 29.3609 122.801 29.408L120.888 29.5636C120.448 29.289 120.073 30.0122 120.512 30.2869C121.547 30.9369 122.343 30.47 123.359 30.5432C124.211 30.5982 124.778 30.6806 125.19 29.9482C125.584 30.0932 126.014 30.1092 126.417 29.9939C126.948 29.8566 127.333 29.2432 127.845 29.1517C128.028 29.1517 128.669 29.3165 128.944 29.3165C129.632 29.2007 130.326 29.1242 131.022 29.0876C131.388 29.1463 131.759 29.1678 132.13 29.1517C132.633 29.0876 132.597 28.2728 132.075 28.3369Z" fill="black"/>
<path d="M121.803 34.0305C121.474 34.177 121.208 33.9664 120.888 34.0305C120.567 34.0946 120.265 34.2685 119.972 34.3418C119.487 34.4333 117.281 34.6439 117.226 34.6073C117.173 34.5361 117.101 34.4823 117.018 34.4529C116.934 34.4235 116.844 34.4198 116.759 34.4425C115.694 34.829 114.601 35.135 113.49 35.358C113.17 34.9552 112.483 35.358 112.813 35.7974C113.353 36.484 113.728 36.3192 114.452 36.0721C114.937 35.9073 115.367 35.9622 115.825 35.8249C116.063 35.7608 116.273 35.5228 116.502 35.477C116.731 35.4312 116.667 35.4221 116.658 35.4038H116.823C117.052 35.4495 117.281 35.7425 117.601 35.77C118.269 35.77 118.892 35.3397 119.542 35.2481C119.789 35.2481 120.082 35.2481 120.347 35.1566C120.922 35.0907 121.489 34.9711 122.041 34.7995C122.481 34.5615 122.233 33.7925 121.803 34.0305Z" fill="black"/>
<path d="M132.789 33.0244C132.514 32.9237 132.478 32.5758 132.121 32.5301C131.764 32.4843 131.416 32.8779 131.068 32.997C130.72 33.116 130.152 32.997 129.631 33.116C128.935 33.3082 128.505 33.9124 127.726 33.3906C127.287 33.1068 126.912 33.8301 127.351 34.1139C128.431 34.8371 129.255 33.9308 130.345 33.8758C130.807 33.887 131.267 33.7964 131.69 33.6103C132.231 33.354 132.075 33.6103 132.606 33.8117C133.137 34.0132 133.293 33.1984 132.789 33.0244Z" fill="black"/>
</svg>
