<svg width="117" height="116" viewBox="0 0 117 116" fill="none" xmlns="http://www.w3.org/2000/svg">
<rect x="29.5" width="58" height="47.125" rx="2" fill="#1D1D2C"/>
<rect x="33.125" width="50.75" height="43.5" fill="#F3F3F3"/>
<path d="M60.3125 19.9375C60.3125 18.9365 59.501 18.125 58.5 18.125C57.499 18.125 56.6875 18.9365 56.6875 19.9375C56.6875 20.9385 57.499 21.75 58.5 21.75C59.501 21.75 60.3125 20.9385 60.3125 19.9375Z" fill="#1D1D2C"/>
<path d="M49.4375 19.9375C49.4375 18.9365 48.626 18.125 47.625 18.125C46.624 18.125 45.8125 18.9365 45.8125 19.9375C45.8125 20.9385 46.624 21.75 47.625 21.75C48.626 21.75 49.4375 20.9385 49.4375 19.9375Z" fill="#1D1D2C"/>
<path d="M71.1875 19.9375C71.1875 18.9365 70.376 18.125 69.375 18.125C68.374 18.125 67.5625 18.9365 67.5625 19.9375C67.5625 20.9385 68.374 21.75 69.375 21.75C70.376 21.75 71.1875 20.9385 71.1875 19.9375Z" fill="#1D1D2C"/>
<path d="M40.375 10.875C38.373 10.875 36.75 9.25203 36.75 7.25V0H44V7.25C44 9.25203 42.377 10.875 40.375 10.875Z" fill="#50D9D7"/>
<path d="M33.125 10.875C31.123 10.875 29.5 9.25203 29.5 7.25V3.625C29.5 1.62297 31.123 0 33.125 0H36.75V7.25C36.75 9.25203 35.127 10.875 33.125 10.875Z" fill="#00BEBD"/>
<path d="M47.625 10.875C45.623 10.875 44 9.25203 44 7.25V0H51.25V7.25C51.25 9.25203 49.627 10.875 47.625 10.875Z" fill="#00BEBD"/>
<path d="M54.875 10.875C52.873 10.875 51.25 9.25203 51.25 7.25V0H58.5V7.25C58.5 9.25203 56.877 10.875 54.875 10.875Z" fill="#50D9D7"/>
<path d="M62.125 10.875C60.123 10.875 58.5 9.25203 58.5 7.25V0H65.75V7.25C65.75 9.25203 64.127 10.875 62.125 10.875Z" fill="#00BEBD"/>
<path d="M69.375 10.875C67.373 10.875 65.75 9.25203 65.75 7.25V0H73V7.25C73 9.25203 71.377 10.875 69.375 10.875Z" fill="#50D9D7"/>
<path d="M76.625 10.875C74.623 10.875 73 9.25203 73 7.25V0H80.25V7.25C80.25 9.25203 78.627 10.875 76.625 10.875Z" fill="#00BEBD"/>
<path d="M83.875 10.875C81.873 10.875 80.25 9.25203 80.25 7.25V0H83.875C85.877 0 87.5 1.62297 87.5 3.625V7.25C87.5 9.25203 85.877 10.875 83.875 10.875Z" fill="#50D9D7"/>
<rect x="0.5" y="79.75" width="29" height="36.25" rx="2" fill="#93E6E5"/>
<rect x="4.125" y="79.75" width="21.75" height="32.625" fill="#F3F3F3"/>
<path d="M4.125 90.625C2.12297 90.625 0.5 89.002 0.5 87V83.375C0.5 81.373 2.12297 79.75 4.125 79.75H7.75V87C7.75 89.002 6.12703 90.625 4.125 90.625Z" fill="#50D9D7"/>
<path d="M11.375 90.625C9.37297 90.625 7.75 89.002 7.75 87V79.75H15V87C15 89.002 13.377 90.625 11.375 90.625Z" fill="#50D9D7"/>
<path d="M25.875 90.625C23.873 90.625 22.25 89.002 22.25 87V79.75H25.875C27.877 79.75 29.5 81.373 29.5 83.375V87C29.5 89.002 27.877 90.625 25.875 90.625Z" fill="#50D9D7"/>
<path d="M18.625 90.625C16.623 90.625 15 89.002 15 87V79.75H22.25V87C22.25 89.002 20.627 90.625 18.625 90.625Z" fill="#50D9D7"/>
<rect x="44" y="79.75" width="29" height="36.25" rx="2" fill="#93E6E5"/>
<rect x="47.625" y="79.75" width="21.75" height="32.625" fill="#F3F3F3"/>
<path d="M47.625 90.625C45.623 90.625 44 89.002 44 87V83.375C44 81.373 45.623 79.75 47.625 79.75H51.25V87C51.25 89.002 49.627 90.625 47.625 90.625Z" fill="#50D9D7"/>
<path d="M54.875 90.625C52.873 90.625 51.25 89.002 51.25 87V79.75H58.5V87C58.5 89.002 56.877 90.625 54.875 90.625Z" fill="#50D9D7"/>
<path d="M69.375 90.625C67.373 90.625 65.75 89.002 65.75 87V79.75H69.375C71.377 79.75 73 81.373 73 83.375V87C73 89.002 71.377 90.625 69.375 90.625Z" fill="#50D9D7"/>
<path d="M62.125 90.625C60.123 90.625 58.5 89.002 58.5 87V79.75H65.75V87C65.75 89.002 64.127 90.625 62.125 90.625Z" fill="#50D9D7"/>
<rect x="87.5" y="79.75" width="29" height="36.25" rx="2" fill="#93E6E5"/>
<rect x="91.125" y="79.75" width="21.75" height="32.625" fill="#F3F3F3"/>
<path d="M91.125 90.625C89.123 90.625 87.5 89.002 87.5 87V83.375C87.5 81.373 89.123 79.75 91.125 79.75H94.75V87C94.75 89.002 93.127 90.625 91.125 90.625Z" fill="#50D9D7"/>
<path d="M98.375 90.625C96.373 90.625 94.75 89.002 94.75 87V79.75H102V87C102 89.002 100.377 90.625 98.375 90.625Z" fill="#50D9D7"/>
<path d="M112.875 90.625C110.873 90.625 109.25 89.002 109.25 87V79.75H112.875C114.877 79.75 116.5 81.373 116.5 83.375V87C116.5 89.002 114.877 90.625 112.875 90.625Z" fill="#50D9D7"/>
<path d="M105.625 90.625C103.623 90.625 102 89.002 102 87V79.75H109.25V87C109.25 89.002 107.627 90.625 105.625 90.625Z" fill="#50D9D7"/>
<path d="M102 63.4375H60.3125V52.5625C60.3125 51.5615 59.501 50.75 58.5 50.75C57.499 50.75 56.6875 51.5615 56.6875 52.5625V63.4375H13.1875C12.1865 63.4375 11.375 64.249 11.375 65.25V74.3125C11.375 75.3135 12.1865 76.125 13.1875 76.125C14.1885 76.125 15 75.3135 15 74.3125V67.0625H56.6875V74.3125C56.6875 75.3135 57.499 76.125 58.5 76.125C59.501 76.125 60.3125 75.3135 60.3125 74.3125V67.0625H100.188V74.3125C100.188 75.3135 100.999 76.125 102 76.125C103.001 76.125 103.812 75.3135 103.812 74.3125V65.25C103.812 64.249 103.001 63.4375 102 63.4375Z" fill="#50D9D7"/>
<path d="M47.625 21.75L49.4375 36.25H67.5625L69.375 21.75L63.9375 27.1875L58.5 21.75L53.0625 27.1875L47.625 21.75Z" fill="#1D1D2C"/>
<path d="M13.1874 106.937V99.6867C12.451 99.691 11.7852 99.2493 11.5029 98.5693C11.2205 97.8892 11.3776 97.1059 11.9005 96.5873C13.713 94.7748 14.3655 93.8323 15.6886 94.3942C16.3654 94.6723 16.8087 95.33 16.8124 96.0617V106.937C16.8124 107.938 16.0009 108.749 14.9999 108.749C13.9988 108.749 13.1874 107.938 13.1874 106.937Z" fill="#D9D9D9"/>
<path d="M62.1249 108.75H54.8749C54.1385 108.754 53.4727 108.313 53.1904 107.633C52.908 106.952 53.0651 106.169 53.588 105.651L60.0949 99.1619C60.3024 98.9448 60.3629 98.626 60.2493 98.348C60.1358 98.07 59.8694 97.8847 59.5692 97.875H56.6874C56.6874 98.876 55.8759 99.6875 54.8749 99.6875C51.8117 99.6875 52.8086 94.25 56.6874 94.25H59.5692C61.9817 94.25 63.9374 96.2057 63.9374 98.6181C63.9374 101.011 62.3967 101.989 59.243 105.125H62.1249C63.1259 105.125 63.9374 105.936 63.9374 106.938C63.9374 107.939 63.1259 108.75 62.1249 108.75Z" fill="#D9D9D9"/>
<path d="M102.906 108.75H98.375C97.374 108.75 96.5625 107.939 96.5625 106.938C96.5625 105.936 97.374 105.125 98.375 105.125H102.906C103.407 105.125 103.812 104.719 103.812 104.219C103.812 103.718 103.407 103.312 102.906 103.312H98.375C97.374 103.312 96.5625 102.501 96.5625 101.5C96.5625 100.499 97.374 99.6875 98.375 99.6875H102.906C103.407 99.6875 103.812 99.2818 103.812 98.7812C103.812 98.2807 103.407 97.875 102.906 97.875H98.375C97.374 97.875 96.5625 97.0635 96.5625 96.0625C96.5625 95.0615 97.374 94.25 98.375 94.25H102.906C104.623 94.25 106.192 95.2197 106.959 96.7548C107.727 98.2899 107.561 100.127 106.531 101.5C107.561 102.873 107.727 104.71 106.959 106.245C106.192 107.78 104.623 108.75 102.906 108.75Z" fill="#D9D9D9"/>
</svg>
