<svg width="44" height="34" viewBox="0 0 44 34" fill="none" xmlns="http://www.w3.org/2000/svg">
<path d="M21.125 0V10.25C21.125 13.0417 20.5625 15.8958 19.4375 18.8125C18.3542 21.7292 16.9375 24.4792 15.1875 27.0625C13.4792 29.6042 11.6458 31.75 9.6875 33.5L0.4375 28.5C1.77083 26.125 2.97917 23.5 4.0625 20.625C5.1875 17.7083 5.75 14.2292 5.75 10.1875V0H21.125ZM43.75 0V10.25C43.75 13.0417 43.1875 15.8958 42.0625 18.8125C40.9792 21.7292 39.5625 24.4792 37.8125 27.0625C36.1042 29.6042 34.2708 31.75 32.3125 33.5L23.0625 28.5C24.3958 26.125 25.6042 23.5 26.6875 20.625C27.8125 17.7083 28.375 14.2292 28.375 10.1875V0H43.75Z" fill="#F4F6FA"/>
</svg>
