<svg width="43" height="34" viewBox="0 0 43 34" fill="none" xmlns="http://www.w3.org/2000/svg">
<path d="M0.220501 33.375V23.25C0.220501 20.4583 0.762168 17.6042 1.8455 14.6875C2.9705 11.7708 4.408 9.04167 6.158 6.5C7.94967 3.91667 9.80383 1.75 11.7205 0L20.908 5C19.6163 7.375 18.408 10 17.283 12.875C16.1997 15.75 15.658 19.2292 15.658 23.3125V33.375H0.220501ZM22.158 33.375V23.25C22.158 20.4583 22.6997 17.6042 23.783 14.6875C24.908 11.7708 26.3455 9.04167 28.0955 6.5C29.8872 3.91667 31.7413 1.75 33.658 0L42.8455 5C41.5538 7.375 40.3455 10 39.2205 12.875C38.1372 15.75 37.5955 19.2292 37.5955 23.3125V33.375H22.158Z" fill="#F4F6FA"/>
</svg>
