<svg width="116" height="116" viewBox="0 0 116 116" fill="none" xmlns="http://www.w3.org/2000/svg">
<path d="M114.59 79.0396C109.705 74.1889 102.625 72.2699 95.9589 73.9892L72.7589 80.0569C74.133 77.6476 73.4906 76.7375 73.4906 76.4876C73.2709 75.6616 72.7729 74.9367 72.0807 74.4353L58.3927 64.4236C55.0365 61.9858 50.9944 60.6739 46.8462 60.6759H36.3527C32.6496 60.6614 29.0179 61.6946 25.877 63.6562L16.0081 69.8667C15.4852 70.1935 15.1681 70.767 15.1693 71.3836V107.076C15.1693 108.062 15.9683 108.861 16.9539 108.861C30.2672 108.861 33.4438 108.593 39.0118 109.878C55.6266 113.715 56.8579 114.214 60.8019 114.214C66.3195 114.227 71.6991 112.49 76.1675 109.253L114.358 81.7522C114.786 81.4485 115.058 80.9721 115.103 80.4497C115.147 79.9272 114.96 79.4116 114.59 79.0396Z" fill="#E9E9E9"/>
<rect x="0.892334" y="62.4609" width="17.8462" height="53.5384" rx="3" fill="#3CBCC3"/>
<circle cx="11.6" cy="108.86" r="3.56923" fill="#F0FBFA"/>
<path d="M77.6307 78.7734C76.2807 82.2027 73.4854 84.8609 69.9926 86.0368C66.6144 87.1696 62.9133 86.806 59.8203 85.0374L57.7323 83.8774C56.8748 83.3846 56.5791 82.29 57.0719 81.4325C57.5648 80.575 58.6594 80.2794 59.5169 80.7722L61.587 81.9501C65.2562 84.0837 69.9206 83.3374 72.7409 80.1654L77.6307 78.7734Z" fill="#E2E2E2"/>
<path d="M47.7564 16.5609C44.9136 18.1401 42.8954 20.8744 42.224 24.0563L41.9742 25.252C41.9742 26.2376 41.1752 27.0366 40.1896 27.0366C39.204 27.0366 38.405 26.2376 38.405 25.252L38.1551 24.0563C37.4838 20.8744 35.4656 18.1401 32.6228 16.5609C31.8086 16.0883 31.3075 15.218 31.3075 14.2766C31.3075 13.3352 31.8086 12.4649 32.6228 11.9923C35.4656 10.4131 37.4838 7.67877 38.1551 4.49691L38.3693 3.30122C38.3693 2.3156 39.1683 1.5166 40.1539 1.5166C41.1395 1.5166 41.9385 2.3156 41.9385 3.30122L42.1884 4.49691C42.8597 7.67877 44.8779 10.4131 47.7207 11.9923C48.5386 12.4585 49.0466 13.3249 49.0539 14.2663C49.0613 15.2078 48.5669 16.082 47.7564 16.5609Z" fill="#EBA63F"/>
<path d="M113.323 34.1036V30.1417C113.323 28.2789 111.813 26.7688 109.95 26.7688C108.5 26.7726 107.211 25.8439 106.756 24.4666C106.348 23.189 105.834 21.9474 105.221 20.7546C104.558 19.4575 104.803 17.8814 105.828 16.8463C107.144 15.5236 107.144 13.3863 105.828 12.0636L103.044 9.27957C101.721 7.9637 99.5836 7.9637 98.2609 9.27957C97.2312 10.3152 95.6478 10.561 94.3526 9.88633C93.1599 9.27291 91.9183 8.75956 90.6406 8.35157C89.2668 7.89165 88.3401 6.60583 88.3384 5.1571C88.3384 3.29429 86.8283 1.78418 84.9655 1.78418H81.0037C80.1091 1.78418 79.2512 2.13954 78.6186 2.77209C77.9861 3.40463 77.6307 4.26255 77.6307 5.1571C77.6346 6.60762 76.7058 7.89635 75.3286 8.35157C74.0509 8.75956 72.8093 9.27291 71.6166 9.88633C70.3195 10.5493 68.7433 10.3046 67.7083 9.27957C66.3855 7.9637 64.2482 7.9637 62.9255 9.27957L60.1415 12.0636C58.8256 13.3863 58.8256 15.5236 60.1415 16.8463C61.1771 17.876 61.423 19.4594 60.7483 20.7546C60.1348 21.9474 59.6215 23.189 59.2135 24.4666C58.7536 25.8404 57.4678 26.7671 56.019 26.7688C54.1562 26.7688 52.6461 28.2789 52.6461 30.1417V34.1036C52.6461 35.9664 54.1562 37.4765 56.019 37.4765C57.4696 37.4727 58.7583 38.4014 59.2135 39.7786C59.6215 41.0563 60.1348 42.2979 60.7483 43.4906C61.4112 44.7878 61.1665 46.3639 60.1415 47.399C58.8256 48.7217 58.8256 50.859 60.1415 52.1817L62.9255 54.9657C64.2482 56.2816 66.3855 56.2816 67.7083 54.9657C68.7379 53.9301 70.3214 53.6843 71.6166 54.359C72.8093 54.9724 74.0509 55.4857 75.3286 55.8937C76.7024 56.3536 77.629 57.6395 77.6307 59.0882C77.6307 59.9827 77.9861 60.8407 78.6186 61.4732C79.2512 62.1057 80.1091 62.4611 81.0037 62.4611H84.9655C86.8283 62.4611 88.3384 60.951 88.3384 59.0882C88.3346 57.6377 89.2633 56.3489 90.6406 55.8937C91.9183 55.4857 93.1599 54.9724 94.3526 54.359C95.6497 53.696 97.2258 53.9407 98.2609 54.9657C99.5836 56.2816 101.721 56.2816 103.044 54.9657L105.828 52.1817C107.144 50.859 107.144 48.7217 105.828 47.399C104.792 46.3693 104.546 44.7858 105.221 43.4906C105.834 42.2979 106.348 41.0563 106.756 39.7786C107.216 38.4049 108.501 37.4782 109.95 37.4765C110.845 37.4765 111.703 37.1211 112.335 36.4886C112.968 35.856 113.323 34.9981 113.323 34.1036Z" fill="#075085"/>
<circle cx="82.9846" cy="32.1225" r="17.8462" fill="#EEBA5B"/>
<path d="M75.8462 39.2608C75.3718 39.2635 74.9159 39.0773 74.5791 38.7432L69.2253 33.3894C68.8874 33.0543 68.6974 32.5982 68.6974 32.1223C68.6974 31.6465 68.8874 31.1903 69.2253 30.8552L74.5791 25.5014C75.2789 24.8016 76.4135 24.8016 77.1133 25.5014C77.8131 26.2012 77.8131 27.3358 77.1133 28.0356L73.0087 32.1223L77.1133 36.2091C77.6281 36.7197 77.7828 37.4909 77.5048 38.1605C77.2267 38.8301 76.5712 39.265 75.8462 39.2608Z" fill="#F0FBFA"/>
<path d="M90.1232 39.2608C89.3981 39.265 88.7426 38.8301 88.4646 38.1605C88.1866 37.4909 88.3413 36.7197 88.8561 36.2091L92.9607 32.1223L88.8561 28.0356C88.1563 27.3358 88.1563 26.2012 88.8561 25.5014C89.5559 24.8016 90.6905 24.8016 91.3902 25.5014L96.7441 30.8552C97.0819 31.1903 97.272 31.6465 97.272 32.1223C97.272 32.5982 97.0819 33.0543 96.7441 33.3894L91.3902 38.7432C91.0535 39.0773 90.5975 39.2635 90.1232 39.2608Z" fill="#F0FBFA"/>
<path d="M81.2 41.046C80.6422 41.0624 80.1088 40.8169 79.7585 40.3825C79.4082 39.9481 79.2812 39.3748 79.4154 38.8331L82.9846 24.5562C83.2508 23.6351 84.1971 23.0889 85.1277 23.3192C86.0584 23.5495 86.6408 24.4739 86.4468 25.4128L82.8776 39.6897C82.6858 40.4669 82.0001 41.0213 81.2 41.046Z" fill="#F0FBFA"/>
</svg>
