<svg width="117" height="116" viewBox="0 0 117 116" fill="none" xmlns="http://www.w3.org/2000/svg">
<path d="M109.25 0V76.2156C108.869 75.9619 108.471 75.7262 108.072 75.5088C107.274 76.3969 106.477 77.3213 105.625 78.1187V101.5C105.625 103.502 104.002 105.125 102 105.125H74.8125C75.3052 106.386 75.9118 107.599 76.625 108.75H15C10.9959 108.75 7.75 105.504 7.75 101.5V0H109.25Z" fill="#075085"/>
<path d="M105.625 3.625V101.5C105.625 103.502 104.002 105.125 102 105.125H15C12.998 105.125 11.375 103.502 11.375 101.5V3.625H105.625Z" fill="white"/>
<path d="M14.0938 21.75C10.5902 21.75 7.75 18.9098 7.75 15.4062V0H20.4375V15.4062C20.4375 18.9098 17.5973 21.75 14.0938 21.75Z" fill="#1D1D2C"/>
<path d="M26.7812 21.75C23.2777 21.75 20.4375 18.9098 20.4375 15.4062V0H33.125V15.4062C33.125 18.9098 30.2848 21.75 26.7812 21.75Z" fill="#075085"/>
<path d="M39.4688 21.75C35.9652 21.75 33.125 18.9098 33.125 15.4062V0H45.8125V15.4062C45.8125 18.9098 42.9723 21.75 39.4688 21.75Z" fill="#1D1D2C"/>
<path d="M52.1562 21.75C48.6527 21.75 45.8125 18.9098 45.8125 15.4062V0H58.5V15.4062C58.5 18.9098 55.6598 21.75 52.1562 21.75Z" fill="#075085"/>
<path d="M64.8438 21.75C61.3402 21.75 58.5 18.9098 58.5 15.4062V0H71.1875V15.4062C71.1875 18.9098 68.3473 21.75 64.8438 21.75Z" fill="#1D1D2C"/>
<path d="M77.5312 21.75C74.0277 21.75 71.1875 18.9098 71.1875 15.4062V0H83.875V15.4062C83.875 18.9098 81.0348 21.75 77.5312 21.75Z" fill="#075085"/>
<path d="M90.2188 21.75C86.7152 21.75 83.875 18.9098 83.875 15.4062V0H96.5625V15.4062C96.5625 18.9098 93.7223 21.75 90.2188 21.75Z" fill="#1D1D2C"/>
<path d="M102.906 21.75C99.4027 21.75 96.5625 18.9098 96.5625 15.4062V0H109.25V15.4062C109.25 18.9098 106.41 21.75 102.906 21.75Z" fill="#075085"/>
<path d="M116.5 63.4373C91.9225 109.149 25.1319 109.33 0.5 63.4373C25.0594 17.6717 91.8862 17.5629 116.5 63.4373Z" fill="#075085"/>
<path d="M58.5 86.9995C49.6606 86.9784 41.5766 82.0117 37.5629 74.1361C33.5493 66.2604 34.2811 56.8009 39.4585 49.6363C44.6358 42.4718 53.3876 38.8077 62.125 40.1464C55.1106 52.8339 69.23 66.772 81.8087 59.8302C82.8624 66.6323 80.889 73.555 76.4072 78.7792C71.9253 84.0034 65.3832 87.0065 58.5 86.9995Z" fill="#F3F3F3"/>
<path d="M109.25 76.2147V101.499C109.25 105.503 106.004 108.749 102 108.749H76.625C75.9118 107.598 75.3052 106.385 74.8125 105.124H102C104.002 105.124 105.625 103.501 105.625 101.499V78.1178C106.477 77.2841 107.274 76.3053 108.072 75.5078C108.471 75.7253 108.869 75.9609 109.25 76.2147Z" fill="#075085"/>
<path d="M105.625 78.1191V101.5C105.625 103.502 104.002 105.125 102 105.125H74.8125C73.6442 102.315 73.0288 99.3057 73 96.2623C85.3956 93.4835 96.7247 87.1832 105.625 78.1191V78.1191Z" fill="#F3F3F3"/>
<path d="M108.072 75.5085C98.8618 85.951 86.5863 93.2148 73 96.2616C72.9311 87.865 77.3359 80.0662 84.5624 75.7901C91.7889 71.5139 100.745 71.4067 108.072 75.5085Z" fill="#1D1D2C"/>
<circle cx="96.5625" cy="96.0625" r="19.9375" fill="#CFD4D8"/>
</svg>
