<svg width="40" height="57" viewBox="0 0 40 57" fill="none" xmlns="http://www.w3.org/2000/svg">
<path d="M39.6337 0H0.205078V8.61217H39.6337V0Z" fill="#222E65"/>
<path d="M7.44141 1.42676V2.59274H8.9697V7.18809H10.3286V2.59274H11.7105L12.1717 1.42676H7.44141Z" fill="white"/>
<path d="M13.8667 3.41181V1.42676H12.6084V7.18809H13.8667V4.49827C14.0799 4.30742 14.4973 4.01518 14.9008 4.01518C15.2266 4.01518 15.4069 4.17224 15.4966 4.37502C15.5634 4.53207 15.5863 4.70006 15.5863 4.95652V7.18809H16.8446V4.72292C16.8446 4.28555 16.7987 4.03804 16.721 3.82532C16.5078 3.24283 16.0017 2.90685 15.2714 2.90685C14.6647 2.90685 14.2493 3.12056 13.8667 3.41181Z" fill="white"/>
<path d="M24.427 3.87005V2.59274H27.125L27.5623 1.42676H23.0801V7.18809H24.427V5.08176H26.1785L26.6428 3.87005H24.427Z" fill="white"/>
<path d="M18.6631 4.67759C18.7079 4.1607 19.0785 3.80285 19.6066 3.80285C20.1685 3.80285 20.4833 4.18356 20.551 4.67759H18.6631ZM19.6524 2.90625C18.3493 2.90625 17.5283 3.77999 17.5283 5.10402C17.5283 6.42806 18.3483 7.31075 19.753 7.31075C20.3597 7.31075 20.7752 7.21035 21.0671 7.08709L21.4038 6.1219C21.089 6.24416 20.5271 6.39227 19.8985 6.39227C19.1244 6.39227 18.7298 6.04437 18.6621 5.49467H21.6948C21.8412 4.01458 21.0332 2.90625 19.6514 2.90625H19.6524Z" fill="white"/>
<path d="M28.6735 4.91278L29.4486 2.73886H29.4925L30.2467 4.91278H28.6725M30.2925 1.42676H28.7184L26.5166 7.18809H27.8755L28.28 6.04596H30.6631L31.0447 7.18809H32.4474L30.2925 1.42676Z" fill="white"/>
<path d="M19.9194 10.1484H0.205099V35.3756C0.198125 40.6221 1.91073 45.2005 5.22435 48.8356C8.529 52.4688 13.3699 55.1616 19.5927 56.8862L19.9184 57.0035L20.2462 56.8852C26.468 55.1606 31.3089 52.4668 34.6135 48.8346C37.9272 45.1995 39.6407 40.6211 39.6338 35.3746V10.1484H19.9194Z" fill="#222E65"/>
<path d="M19.919 11.1553H1.21387V35.3755C1.21387 45.441 7.67473 52.5482 19.8971 55.9249L19.919 55.9328L19.9409 55.9249C32.1632 52.5482 38.6241 45.441 38.6241 35.3755V11.1553H19.919Z" fill="white"/>
<path d="M15.8792 39.6596C15.9838 39.6218 16.2289 39.6168 16.3993 39.6814C16.5627 39.7411 16.9721 39.913 16.8765 40.5701C16.8297 40.8951 16.5228 41.2768 16.5228 41.2768C16.6752 41.2957 17.0797 41.412 17.281 41.1237C17.4673 40.8564 17.267 40.6585 17.267 40.6585C17.4344 40.6854 17.8738 40.8852 17.8728 41.418C17.8708 42.2867 17.4583 42.581 17.4583 42.581C17.4892 42.574 17.7154 42.5591 17.9027 42.6128C18.0471 42.6545 18.1746 42.7311 18.2035 42.8086C18.0222 43.3136 17.0897 43.574 16.9562 44.0412C16.8884 44.2768 16.9751 44.4408 17.1664 44.4607C17.5978 44.5034 17.8349 43.9935 17.8538 43.7927C17.9883 43.7927 18.2952 44.0044 18.1587 44.402C18.0282 44.7867 17.6297 45.1356 17.1375 45.1515C16.7649 45.1634 16.5806 44.9776 16.5806 44.9776C16.4431 45.077 16.2488 45.4308 16.4531 45.6913C16.6284 45.9149 16.9841 45.903 16.9841 45.903C16.9741 46.0461 16.7021 46.4706 16.1671 46.4219C15.6431 46.3742 15.4189 45.8732 15.4189 45.5968C15.2545 45.8533 15.2167 46.3304 15.0324 46.6634C14.7943 47.0918 14.5273 47.3125 14.331 47.3652C14.3878 47.2131 14.5044 46.9954 14.4675 46.7091C14.4107 46.2847 14.1836 46.2231 14.1836 46.2231C14.1646 46.394 14.1307 46.8364 13.8867 47.2181C13.6844 47.5352 13.3885 47.6723 13.0956 47.6564C12.7619 47.6366 12.5118 47.4387 12.446 47.1535C12.4152 47.0173 12.4082 46.8374 12.4391 46.732C12.5238 46.8264 12.736 46.899 12.8685 46.8145C12.9721 46.7489 13.0269 46.6843 13.0119 46.4577C13.002 46.3115 12.9003 46.0292 12.8615 45.8205C12.8296 45.6485 12.8575 45.4249 12.8575 45.4249C12.7997 45.4139 12.6343 45.568 12.5068 45.7151C12.3086 45.9457 12.2737 46.1803 12.2737 46.1803C12.1093 45.9169 12.0416 45.5899 12.0834 45.2151C12.1252 44.8294 12.452 44.3523 12.452 44.3523C12.452 44.3523 12.1093 44.5193 11.7845 44.4448C11.5404 44.3881 11.2665 44.1545 11.2545 43.8016C11.2336 43.2331 11.7755 43.078 11.7755 43.078C11.7217 43.2172 11.7138 43.5352 12.0196 43.5352C12.2747 43.5352 12.3653 43.3245 12.4022 43.1128C12.4769 42.6675 12.2846 42.3991 12.2568 41.9905C12.2438 41.7997 12.2438 41.5253 12.3733 41.3047C12.46 41.3047 12.5586 41.3226 12.6782 41.3852C12.7838 41.4389 12.9113 41.5989 12.9113 41.5989C12.9641 41.3554 12.7668 41.0581 12.99 40.6347C13.1066 40.3812 13.3935 40.245 13.3935 40.245C13.3935 40.245 13.3148 40.5184 13.4214 40.7182C13.5081 40.9359 13.7203 41.081 13.7193 41.078C13.6934 40.9448 13.8279 40.5025 13.9245 40.3593C14.4824 39.5333 15.2167 39.7977 15.2466 39.8087C15.0085 39.9796 14.9696 40.5244 15.3323 40.6764C15.7557 40.8564 15.9579 40.5094 16.0107 40.3027C16.1263 39.8554 15.8842 39.6606 15.8842 39.6606" fill="#222E65"/>
<path d="M16.186 42.7611C16.0694 42.8664 15.908 42.9907 15.8323 42.9559C15.7556 42.9211 15.7735 42.7412 15.7994 42.602C15.657 42.5265 15.5623 42.4648 15.5623 42.4648C15.5623 42.4648 15.4707 42.8287 15.4229 42.9907C15.9011 43.2809 16.3584 43.268 16.5676 42.8157C16.5676 42.8157 16.3623 42.8008 16.185 42.7621" fill="white"/>
<path d="M14.4261 41.9256C14.4151 42.0807 14.4161 42.2825 14.4908 42.3232C14.5655 42.361 14.6961 42.2367 14.7907 42.1324C14.9382 42.197 15.0428 42.2348 15.0428 42.2348C15.0428 42.2348 14.8126 42.529 14.714 42.6671C14.189 42.4683 13.919 42.1025 14.1491 41.6572C14.1491 41.6572 14.2876 41.8103 14.4261 41.9266" fill="white"/>
<path d="M13.8227 45.3123C13.6195 45.2099 13.5538 44.9594 13.5448 44.8173C13.5259 44.4923 13.6066 44.374 13.6843 44.1702C13.492 43.9346 13.5189 43.535 13.6803 43.3243C13.764 43.6096 13.9533 44.0121 14.2262 43.9942C14.4026 43.9823 14.4753 43.7616 14.559 43.6553C14.4524 43.5996 14.4305 43.5927 14.3 43.4913C14.1665 43.3889 14.1416 43.2448 14.2183 43.0937C14.293 42.9446 14.548 42.7776 14.6606 42.7646C14.5441 42.8581 14.3558 43.1016 14.4554 43.212C14.5939 43.3561 14.9346 43.5161 15.103 43.536C15.3132 43.5569 15.3829 43.1106 15.3829 43.1106C15.3999 43.1851 15.4825 43.4416 15.348 43.6702C15.2604 43.8064 15.1578 43.8531 15.0133 43.8332C14.9266 43.8203 14.8609 43.8034 14.7373 43.7467C14.6895 43.9088 14.5839 44.0708 14.6517 44.1931C14.8031 44.4038 15.2185 44.3094 15.4975 44.202C15.4277 44.4555 15.1338 44.7249 14.831 44.7149C14.7363 44.874 14.6487 45.0658 14.4086 45.2258C14.289 45.3054 14.0628 45.4326 13.8227 45.3123Z" fill="white"/>
<path d="M5.69434 13.7011C5.78999 13.6683 5.8936 13.6613 6.06097 13.7011C6.33196 13.7647 6.76036 14.1295 6.74442 15.0033C6.72947 15.876 6.50133 16.4267 6.71254 16.9704C7.01541 17.7487 8.08242 18.4127 9.39751 18.9545C9.85878 19.1443 10.1138 19.2298 10.1138 19.2298C10.0501 19.3253 9.8279 19.5589 9.73226 20.1463C9.6127 20.8849 9.9883 21.3203 9.9883 21.3203C9.87672 21.4485 9.59377 21.7149 9.50809 22.2745C9.42839 22.7964 9.65156 23.3848 9.65156 23.3848C9.52403 23.3848 8.87745 23.2059 8.51779 22.7964C8.05951 22.2745 8.09139 21.4952 8.09139 21.4952C8.20297 21.5747 8.25079 21.5906 8.39426 21.5906C8.53772 21.5906 8.76089 21.5419 8.78978 21.3034C8.82066 21.0409 8.76088 20.8282 7.9808 20.6861C7.56635 20.6095 7.48764 20.2248 7.48764 20.2248C7.72575 20.3044 8.08242 20.1781 8.09736 19.9078C8.11331 19.6384 7.94792 19.5012 7.47071 19.4634C6.93869 19.4207 6.26421 19.4406 5.82486 19.0976C5.66147 18.9704 5.54889 18.703 5.54889 18.703C5.71128 18.7378 5.96433 18.7239 6.13769 18.6056C6.44055 18.3988 6.37779 18.1444 6.37779 18.1444C6.07492 18.0807 5.61663 17.9684 5.48712 17.6672C5.27989 17.1921 5.519 16.7309 5.519 16.7309C5.40742 16.6842 5.29583 16.7001 5.18525 16.7796C5.07466 16.8591 4.81961 17.1921 4.53268 17.1871C4.16705 17.1831 4.16705 16.7478 4.16705 16.7478C4.07141 16.7796 3.96979 16.8641 3.8333 17.0012C3.65795 17.1762 3.56231 17.4148 3.56231 17.4148C3.45172 17.2398 3.48261 16.716 3.81736 16.4297C4.16107 16.1355 4.57652 16.1812 4.78773 16.2239C4.94714 16.2557 5.10554 16.2378 5.12149 16.1116C5.13344 16.0201 5.05872 15.9247 4.9043 15.8591C4.60143 15.7359 4.17203 15.5838 4.17203 15.2508C4.17203 14.9178 4.42608 14.8532 4.42608 14.8532C4.3952 14.8055 4.37926 14.6792 4.15609 14.5351C3.93392 14.3929 3.61511 14.4088 3.61511 14.4088C3.75758 14.2816 4.08536 14.2528 4.3155 14.2816C4.59844 14.3174 5.13942 14.4605 5.45723 15.3184C5.53793 15.54 5.60069 15.72 5.7591 15.6822C5.91552 15.6444 5.93046 15.4595 5.88364 15.3184C5.83681 15.1752 5.6804 15.0331 5.71228 14.7627C5.75412 14.4098 6.14466 14.4297 6.14466 14.4297C6.14466 14.3025 6.08887 14.1444 6.02511 14.0232C5.96234 13.9029 5.69534 13.7001 5.69534 13.7001" fill="#222E65"/>
<path d="M7.56068 25.0419C7.9552 24.8172 7.83665 24.5548 7.83665 24.5548C7.44411 24.6224 6.79056 24.5051 6.59728 24.2417C6.29042 23.8242 6.47274 23.361 6.47274 23.361C6.35419 23.3391 6.24958 23.3789 6.15692 23.4813C6.06626 23.5836 5.89092 23.9653 5.61196 24.025C5.2533 24.1005 5.15666 23.6761 5.15666 23.6761C5.07198 23.7278 4.99128 23.8331 4.88866 23.9981C4.75715 24.2069 4.7173 24.4594 4.7173 24.4594C4.56985 24.3142 4.48318 23.7964 4.74619 23.4435C5.01419 23.0817 5.43063 23.0329 5.64583 23.027C5.80822 23.023 5.95966 22.9713 5.94671 22.8431C5.93774 22.7526 5.84608 22.6751 5.67871 22.6473C5.35592 22.5926 4.9046 22.5399 4.82889 22.2149C4.75516 21.8898 4.98929 21.7715 4.98929 21.7715C4.94744 21.7318 4.9046 21.6115 4.65553 21.522C4.40646 21.4316 4.09961 21.5181 4.09961 21.5181C4.2102 21.362 4.52303 21.2596 4.75416 21.2387C5.03611 21.2109 5.55915 21.2308 6.06028 21.9952C6.1898 22.193 6.32629 22.355 6.47274 22.2835C6.64709 22.198 6.59927 22.0449 6.51359 21.9008C6.43588 21.7725 6.25157 21.6672 6.22168 21.3968C6.18382 21.0439 6.57038 20.9753 6.57038 20.9753C6.54248 20.8521 6.45182 20.7099 6.36315 20.6056C6.27349 20.5012 5.96962 20.362 5.96962 20.362C6.0553 20.3113 6.15393 20.2795 6.32629 20.2825C6.60525 20.2845 7.10538 20.5449 7.28371 21.3998C7.46304 22.2546 7.48895 22.5817 7.89244 23.0061C8.29593 23.4306 8.95248 23.8908 9.88599 23.9604C11.0536 24.0439 11.9871 23.7258 12.3906 23.1761C12.5062 23.2914 12.6566 23.3431 12.9426 23.3252C13.7794 23.2725 14.173 22.4783 14.2786 21.9902C14.3842 22.1602 14.5984 22.3023 14.9361 22.3431C16.0171 22.4703 16.6547 21.3411 16.3797 20.7487C16.5172 20.7815 16.8898 20.7716 17.2694 20.6155C17.7367 20.4256 18.1401 19.9813 18.1551 19.5201C18.3882 19.4515 19.506 19.1762 21.5653 19.1762C23.9205 19.1762 28.7784 19.9793 30.4123 20.0012C31.7234 20.0201 33.1461 19.7984 34.1882 18.9793C34.5439 18.7 34.6206 18.4555 34.5996 18.2875C34.5668 18.031 34.2948 17.8929 33.7638 17.8859C32.3839 17.8641 30.1363 18.9356 26.8058 18.873C24.6409 18.8312 22.0954 18.3084 22.1372 16.7846C22.1771 15.3204 24.0471 15.3035 24.4924 15.3035C25.2127 15.3035 25.5943 15.4287 26.1672 15.4297C26.7848 15.4297 27.1495 15.2041 27.1594 14.9297C27.1674 14.723 26.9811 14.5629 26.5517 14.5629C26.1223 14.5629 25.3781 14.8383 24.6409 14.8581C23.9753 14.877 23.545 14.6703 23.4752 14.2657C23.3646 13.6345 24.1686 13.4844 24.1746 13.4824C24.1328 13.5888 24.1417 13.8949 24.6329 14.059C25.3622 14.3025 26.1572 13.8572 26.9353 13.8572C27.4653 13.8572 28.3111 13.9705 28.2693 14.7309C28.2275 15.5092 27.3218 15.7011 27.0608 15.7687C27.2411 15.8114 27.4274 15.877 27.5849 16.0182C27.9246 16.3194 28.1159 16.2339 28.1159 16.2339C28.0949 16.4247 27.8618 16.8283 27.2939 16.8054C26.8267 16.7865 26.2748 16.2985 25.8503 16.1494C25.4269 16.0033 25.0453 15.9068 24.4815 15.9317C23.9086 15.9565 23.3278 16.218 23.2012 16.6792C22.9432 17.6056 24.4306 17.8859 24.8122 17.9495C24.7106 17.7806 24.6688 17.3273 24.9387 17.0808C25.2665 16.7796 25.5863 16.8432 25.8075 16.8909C25.5963 17.039 25.5963 17.2498 25.681 17.4416C25.7657 17.6315 26.0645 18.3153 28.5453 18.1821C30.7102 18.0658 31.8708 17.6334 32.7874 17.4704C33.3583 17.369 33.5037 17.3422 33.5037 17.3422C33.3344 17.2875 33.1321 16.8114 33.4549 16.4247C33.6582 16.1812 33.8664 16.1663 34.0397 16.1494C34.5 16.1046 34.8467 16.4844 34.8886 16.6593C34.7023 16.6543 34.4004 16.6732 34.3157 16.9108C34.1772 17.2995 34.5618 17.3889 34.8378 17.5668C35.0201 17.6851 35.32 17.9913 35.2353 18.5002C35.1167 19.21 34.1942 20.0976 32.2156 20.5658C31.6018 20.7129 31.012 20.7974 30.7301 20.7576C30.9632 21.0668 31.3229 21.3928 32.2574 21.371C33.5595 21.3411 35.1317 20.7646 35.6507 19.6851C35.7842 19.7974 35.9426 20.2248 35.7364 20.7328C35.3777 21.6135 35.4515 21.8153 35.4515 21.8153C35.5461 21.7805 35.837 21.7894 36.0293 21.9067C36.5334 22.2139 36.2754 22.9236 36.2266 22.9664C36.1558 22.8769 35.9705 22.6642 35.6557 22.7497C35.296 22.8461 35.3349 23.2685 35.3339 23.2646C35.6099 23.3222 35.849 23.5041 35.843 23.855C35.832 24.4802 35.1705 24.7665 35.1705 24.7665C35.1705 24.7665 35.6726 24.9872 35.7015 25.358C35.7424 25.8957 35.3339 25.9723 35.3339 25.9723C35.3349 26.0697 35.4256 26.1989 35.5092 26.2744C35.6856 26.4365 35.9755 26.4375 35.9755 26.4375C35.9446 26.5031 35.8699 26.6542 35.5033 26.6054C35.1536 26.5597 34.6076 26.3371 34.507 25.2725C34.4651 24.8291 34.3695 24.7973 34.2529 24.8291C34.1503 24.858 34.1045 24.9355 34.1045 25.0836C34.1045 25.2317 34.2201 25.4931 34.0417 25.8033C33.9082 26.0359 33.5267 26.0528 33.426 25.9305C33.3603 26.0607 33.3413 26.1393 33.3413 26.2903C33.3413 26.4802 33.4768 26.7357 33.4768 26.7357C33.2248 26.7357 32.8332 26.4047 33.0016 25.6552C33.0664 25.3689 33.3423 25.019 33.447 24.8619C33.5735 24.6711 33.5695 24.5439 33.5107 24.4842C33.445 24.4186 33.3224 24.4256 33.2347 24.512C33.1291 24.6164 32.888 24.9882 32.5603 25.0051C32.2046 25.025 32.1996 24.6105 32.1996 24.6105C32.0601 24.6075 31.9495 24.6403 31.7613 24.7884C31.5251 24.9753 31.4305 25.2118 31.4305 25.2118C31.3299 25.1959 31.2402 24.4633 32.088 24.1174C32.904 23.7824 33.7807 23.7357 33.8275 22.9892C33.8534 22.5896 33.5725 22.3232 33.1291 22.355C32.3122 22.4127 31.9167 23.2437 31.3876 23.5618C30.9154 23.8441 30.6026 23.6463 30.6026 23.6463C30.7411 23.5926 30.9961 23.4037 31.0479 23.1592C31.1107 22.866 30.9622 22.6721 30.9622 22.6721C30.7291 22.7357 30.0566 22.9415 29.0733 22.9047C27.8389 22.858 26.5716 22.2109 26.3365 21.4028C26.22 21.5459 26.0606 21.8471 26.0606 22.2069C26.0606 22.864 26.6703 23.6135 28.4158 23.8361C29.0623 23.9186 29.6003 23.7954 29.7109 23.7298C29.688 23.9266 29.4349 24.2765 28.9458 24.4365C28.4626 24.5926 28.0571 24.5478 28.0133 24.5349C28.1139 24.6254 28.2145 24.9822 28.1617 25.192C28.0023 25.8172 27.3029 25.9593 27.1425 25.9544C27.2541 25.85 27.4055 25.7009 27.4055 25.4673C27.4055 25.1383 27.1425 25.0558 26.9532 25.0369C26.6195 25.0061 26.486 25.1075 26.486 25.1075C26.5547 25.2924 26.5228 25.7039 26.1233 25.8053C25.5584 25.9484 25.3113 25.6253 24.9905 25.5279C24.9686 25.6562 25.1021 25.9305 25.0204 26.1224C24.9138 26.3709 24.7226 26.4504 24.4904 26.3967C24.4844 26.5617 24.5323 26.6571 24.602 26.7784C24.7166 26.9762 24.9557 27.0746 24.9557 27.0746C24.7076 27.1164 24.0879 27.1293 23.9385 26.4822C23.8807 26.2277 23.9604 25.8888 24.0232 25.7208C24.0869 25.5518 24.1088 25.4146 24.0022 25.3709C23.8956 25.3281 23.8 25.4186 23.7263 25.5289C23.6217 25.688 23.4523 26.186 23.0468 26.186C22.6413 26.186 22.6553 25.849 22.6553 25.849C22.5596 25.8649 22.4321 25.9752 22.3524 26.1333C22.2588 26.3202 22.2408 26.5468 22.2408 26.5468C22.1352 26.4196 22.0007 26.2675 22.0655 25.9325C22.1502 25.4981 22.6563 25.2963 23.004 25.1969C23.271 25.1214 23.3557 25.021 23.3447 24.9156C23.3367 24.8311 23.2371 24.8053 23.0677 24.8242C22.8336 24.85 22.5387 24.9763 22.3514 24.8311C22.2358 24.7417 22.2239 24.5608 22.2827 24.3659C22.1362 24.3659 22.0824 24.357 21.8802 24.4077C21.5883 24.4812 21.4338 24.6403 21.4338 24.6403C21.4338 24.4912 21.5833 23.8789 22.3664 23.8351C23.1534 23.7934 23.6914 24.4723 24.34 24.5339C25.132 24.6105 25.3582 24.2109 25.3582 24.2109C25.1201 24.1641 23.6725 23.8779 23.5768 22.8779C23.4981 22.0509 24.1497 21.6761 24.1497 21.6761C23.7193 21.6861 23.1644 21.9346 22.4461 22.3689C20.9028 23.3063 19.8219 24.6552 17.9329 24.6602C16.7115 24.6631 16.1715 23.9196 16.1715 23.9196C16.1297 24.027 15.9762 24.195 16.0011 24.4912C16.049 25.0369 16.7015 24.9782 16.7015 24.9782C16.6806 25.1065 16.4146 25.4653 15.8318 25.4305C14.8724 25.3699 14.697 24.8619 14.0923 24.7466C14.0923 25.0538 13.9966 25.6552 13.4985 26.009C12.8838 26.4444 12.3677 26.2615 12.1824 26.1641C12.4365 26.0577 12.6387 25.8878 12.6706 25.6552C12.6915 25.4971 12.5909 25.3142 12.3568 25.3261C11.752 25.357 11.1323 26.1154 10.4638 26.185C9.93879 26.2387 9.70068 25.8878 9.70068 25.8878C9.85909 25.8937 10.422 25.7993 10.422 25.4146C10.422 25.179 10.1958 25.0846 10.0185 25.0846C9.50541 25.0846 8.91163 25.6144 7.98111 25.6144C6.87723 25.6144 6.85631 25.1691 6.85631 25.1691C7.00476 25.191 7.40825 25.1283 7.5557 25.0429" fill="#222E65"/>
<path d="M14.7507 27.203C14.8663 27.1613 15.0825 27.1494 15.2798 27.1812C15.4711 27.214 16.1017 27.4635 16.0021 28.1772C15.9433 28.5917 15.498 28.9098 15.498 28.9098C15.8486 29.1334 16.3886 28.9416 16.5739 28.5996C16.7463 28.2816 16.6168 28.0847 16.6168 28.0847C16.8021 28.1146 17.5692 28.4028 17.5015 29.2567C17.4387 30.038 17.0093 30.4326 17.0093 30.4326C17.0432 30.4256 17.2644 30.3869 17.4865 30.4525C17.6479 30.5002 17.7884 30.6016 17.8223 30.6851C17.5981 31.3073 16.4902 31.5409 16.3418 32.0608C16.2661 32.3232 16.3627 32.5061 16.5739 32.528C17.0551 32.5757 17.3162 32.0091 17.3381 31.7865C17.4865 31.7865 17.7456 32.0012 17.6778 32.4644C17.5931 33.0459 17.087 33.4842 16.4265 33.5071C16.012 33.522 15.8118 33.3381 15.8118 33.3381C15.7271 33.4226 15.4999 33.6393 15.4661 33.9673C15.4192 34.4097 15.8745 34.4942 15.8745 34.4942C15.8646 34.6562 15.5358 35.0677 15.0905 35.0677C14.3293 35.0677 14.2197 34.4842 14.2197 34.1791C13.9119 34.4524 13.9149 34.8262 13.7525 35.2148C13.3809 36.1164 12.9584 36.1263 12.804 36.1263C12.8688 35.9564 12.9465 35.7665 12.9056 35.4484C12.8439 34.9763 12.544 34.8401 12.544 34.8401C12.5231 35.0319 12.4693 35.523 12.1266 36.02C11.744 36.5756 11.3126 36.7546 10.8254 36.7068C10.2456 36.6512 10.0294 36.2307 10.0264 35.8927C10.0234 35.4763 10.2535 35.178 10.2595 35.1741C10.2844 35.3222 10.3362 35.4703 10.5494 35.4912C10.7616 35.512 10.9948 35.354 11.0904 35.0041C11.1801 34.6751 11.1343 34.517 11.1522 34.2148C11.1691 33.9445 11.2707 33.69 11.2707 33.69C11.207 33.6801 11.0376 33.6274 10.7607 33.8182C10.4827 34.0111 10.401 34.3461 10.401 34.3461C10.2476 34.1184 10.2486 33.6194 10.3861 33.2248C10.5265 32.8232 10.7925 32.5996 10.8981 32.5161C10.6122 32.4634 10.2087 32.2268 10.2117 31.8004C10.2147 31.2566 10.7557 31.2417 10.7557 31.2417C10.7079 31.4902 10.7816 31.7199 11.1213 31.7238C11.4401 31.7298 11.6135 31.4316 11.6573 30.9893C11.6882 30.6642 11.5148 30.3064 11.3395 30.1135C11.3395 30.1135 11.483 29.9823 11.6314 29.9406C11.7898 29.8948 11.9283 29.9028 12.0459 29.9296C12.0459 29.9296 11.8117 29.5479 11.8028 29.2428C11.7968 29.0032 11.8526 28.703 11.9333 28.5599C12.0289 28.5599 12.1694 28.6116 12.2511 28.6543C12.4264 28.7458 12.546 28.9078 12.537 28.8929C12.4872 28.6354 12.5699 28.2935 12.6904 28.0917C13.2942 27.0857 14.2496 27.4128 14.2815 27.4247C13.9746 27.6653 13.8113 28.1941 14.2556 28.3372C14.6631 28.4674 14.955 28.0967 15.0197 27.8452C15.1473 27.3472 14.7497 27.2011 14.7497 27.2011" fill="#222E65"/>
<path d="M15.6437 30.5947C15.5142 30.71 15.3369 30.8452 15.2512 30.8084C15.1665 30.7696 15.1854 30.5718 15.2143 30.4167C15.0579 30.3312 14.9513 30.2646 14.9513 30.2646C14.9513 30.2646 14.8487 30.6672 14.7959 30.8452C15.3279 31.1692 15.835 31.1563 16.0681 30.6523C16.0681 30.6523 15.839 30.6354 15.6437 30.5937" fill="white"/>
<path d="M13.6903 29.6644C13.6773 29.8384 13.6783 30.062 13.761 30.1048C13.8417 30.1475 13.9882 30.0093 14.0928 29.893C14.2562 29.9646 14.3737 30.0074 14.3737 30.0074C14.3737 30.0074 14.1177 30.3354 14.0091 30.4875C13.4263 30.2668 13.1244 29.8602 13.3814 29.3662C13.3814 29.3662 13.5339 29.5362 13.6893 29.6654" fill="white"/>
<path d="M13.0189 33.4276C12.7938 33.3143 12.72 33.036 12.7101 32.8759C12.6892 32.5171 12.7798 32.3849 12.8655 32.1583C12.6513 31.8958 12.6802 31.4525 12.8595 31.2179C12.9532 31.536 13.1624 31.9833 13.4653 31.9614C13.6625 31.9485 13.7422 31.704 13.8339 31.5847C13.7163 31.5231 13.6924 31.5171 13.545 31.4028C13.3985 31.2885 13.3696 31.1295 13.4543 30.9625C13.539 30.7955 13.8219 30.6126 13.9465 30.5977C13.8169 30.7 13.6077 30.9704 13.7183 31.0927C13.8717 31.2527 14.2513 31.4316 14.4376 31.4525C14.6708 31.4784 14.7485 30.9813 14.7485 30.9813C14.7674 31.0629 14.859 31.3481 14.7096 31.6026C14.613 31.7537 14.4994 31.8074 14.339 31.7825C14.2453 31.7686 14.1696 31.7507 14.0331 31.6881C13.9793 31.867 13.8618 32.0469 13.9375 32.1841C14.1059 32.4167 14.5681 32.3113 14.878 32.1931C14.8003 32.4754 14.4745 32.7746 14.1367 32.7626C14.0321 32.9396 13.9335 33.1523 13.6685 33.3302C13.535 33.4187 13.2829 33.5588 13.0169 33.4266" fill="white"/>
<path d="M5.75734 26.9656C5.85299 26.9338 5.9566 26.9278 6.12298 26.9656C6.39496 27.0292 6.82336 27.396 6.80742 28.2688C6.79048 29.1425 6.56333 29.6922 6.77554 30.2379C7.07841 31.0132 8.08664 31.6802 9.40172 32.222C9.864 32.4138 10.118 32.4953 10.118 32.4953C10.0553 32.5907 9.83212 32.8253 9.73747 33.4118C9.61692 34.1484 9.99351 34.5867 9.99351 34.5867C9.88193 34.714 9.59899 34.9814 9.5143 35.539C9.42862 36.1046 9.65777 36.6503 9.65777 36.6503C9.53025 36.6503 8.88266 36.4714 8.524 36.0628C8.06572 35.539 8.0976 34.7607 8.0976 34.7607C8.20818 34.8402 8.257 34.8561 8.39947 34.8561C8.54194 34.8561 8.7661 34.8084 8.79499 34.5708C8.82787 34.3074 8.74518 34.1046 8.0448 33.9774C7.63034 33.9028 7.49385 33.4913 7.49385 33.4913C7.73196 33.5689 8.08764 33.4436 8.10358 33.1732C8.11952 32.9029 7.95413 32.7687 7.47692 32.7279C6.9449 32.6852 6.32921 32.706 5.88786 32.3631C5.72447 32.2359 5.61388 31.9695 5.61388 31.9695C5.77428 32.0033 6.02733 31.9904 6.20268 31.8711C6.50455 31.6653 6.44079 31.4108 6.44079 31.4108C6.13792 31.3472 5.68063 31.2339 5.54912 30.9347C5.34189 30.4576 5.582 29.9983 5.582 29.9983C5.47041 29.9506 5.35883 29.9655 5.24725 30.0451C5.13666 30.1246 4.88261 30.4576 4.59568 30.4536C4.22905 30.4496 4.22905 30.0142 4.22905 30.0142C4.13341 30.0451 4.03279 30.1305 3.8943 30.2677C3.71896 30.4427 3.62431 30.6812 3.62431 30.6812C3.51273 30.5063 3.54461 29.9814 3.87836 29.6962C4.22208 29.4029 4.63852 29.4487 4.84874 29.4904C5.01013 29.5212 5.16755 29.5043 5.18349 29.3781C5.19445 29.2876 5.12172 29.1912 4.9653 29.1276C4.66343 29.0033 4.23304 28.8522 4.23304 28.5182C4.23304 28.1843 4.48809 28.1206 4.48809 28.1206C4.45521 28.0729 4.44026 27.9457 4.2171 27.8036C3.99393 27.6614 3.67512 27.6773 3.67512 27.6773C3.81958 27.5501 4.14636 27.5203 4.37551 27.5501C4.65745 27.5859 5.19843 27.73 5.51624 28.5868C5.59794 28.8085 5.65971 28.9884 5.81811 28.9516C5.97453 28.9139 5.99047 28.73 5.94265 28.5868C5.89483 28.4437 5.73841 28.3006 5.77029 28.0322C5.81214 27.6783 6.20467 27.6982 6.20467 27.6982C6.20467 27.5719 6.14788 27.4139 6.08412 27.2916C6.02036 27.1684 5.75435 26.9666 5.75435 26.9666" fill="#222E65"/>
<path d="M7.45198 38.0201C7.84551 37.7945 7.72696 37.534 7.72696 37.534C7.2348 37.6454 6.8044 37.6454 6.60316 37.4575C6.22258 37.1036 6.47862 36.6265 6.47862 36.6265C6.35907 36.6046 6.25446 36.6464 6.1628 36.7478C6.07214 36.8501 5.89779 37.2318 5.61784 37.2905C5.25918 37.366 5.16354 36.9416 5.16354 36.9416C5.07786 36.9923 4.99815 37.0996 4.89354 37.2627C4.76303 37.4724 4.72218 37.7249 4.72218 37.7249C4.57573 37.5798 4.48906 37.0619 4.75207 36.709C5.02206 36.3472 5.43751 36.2985 5.65171 36.2935C5.81411 36.2895 5.96554 36.2378 5.95259 36.1096C5.94462 36.0191 5.85097 35.9406 5.68459 35.9128C5.3608 35.8581 4.90948 35.8064 4.83576 35.4814C4.76104 35.1573 4.99516 35.038 4.99516 35.038C4.95332 34.9993 4.90948 34.878 4.66042 34.7885C4.41135 34.6991 4.10449 34.7856 4.10449 34.7856C4.21707 34.6295 4.52791 34.5271 4.75905 34.5062C5.04099 34.4784 5.56504 34.4973 6.06517 35.2627C6.19468 35.4615 6.33117 35.6215 6.47762 35.55C6.65197 35.4655 6.60515 35.3124 6.51747 35.1683C6.43976 35.04 6.25546 34.9357 6.22656 34.6653C6.18671 34.3114 6.57426 34.2438 6.57426 34.2438C6.54736 34.1206 6.45571 33.9784 6.36704 33.8741C6.27737 33.7687 5.97351 33.6305 5.97351 33.6305C6.05919 33.5788 6.15782 33.549 6.32918 33.55C6.60714 33.552 7.10827 33.8134 7.28561 34.6683C7.46494 35.5231 7.49084 35.8512 7.89533 36.2746C8.29782 36.6981 8.96234 37.0887 9.88888 37.2289C11.0824 37.4068 11.9223 37.1146 12.3925 36.4734C12.5071 36.5887 12.7442 36.6474 13.0311 36.6295C13.869 36.5788 14.1759 35.7468 14.2815 35.2597C14.3881 35.4297 14.6023 35.5718 14.939 35.6126C16.021 35.7398 16.6586 34.6116 16.3816 34.0182C16.5211 34.051 16.8927 34.0401 17.2743 33.885C17.7395 33.6931 18.143 33.2478 18.159 32.7896C18.4987 32.7081 19.6125 32.6126 21.627 32.6236C23.9822 32.6375 28.8401 33.4506 30.474 33.4506C31.7402 33.4506 32.9696 33.3343 34.0137 32.5142C34.3166 32.2757 34.4401 31.9725 34.4232 31.8433C34.3913 31.5888 34.1193 31.394 33.5893 31.3989C32.4854 31.4079 30.3116 32.4059 26.8694 32.3214C24.7025 32.2687 22.157 31.7568 22.1989 30.233C22.2387 28.7688 24.1107 28.7519 24.5551 28.7519C25.2774 28.7519 25.658 28.8781 26.2308 28.8781C26.8475 28.8791 26.9541 28.5471 26.985 28.3573C27.0179 28.1565 26.9551 27.8891 26.4928 27.7171C26.3633 27.6694 26.1561 27.6286 26.1561 27.6286C26.1561 27.6286 26.5078 27.4855 26.8585 27.4815C27.4483 27.4766 28.0351 27.7151 28.0351 28.2469C28.0351 28.9775 27.1773 29.1515 26.9003 29.2469C27.1125 29.2628 27.3237 29.3831 27.4831 29.5232C27.8219 29.8254 28.1785 29.7389 28.1785 29.7389C28.1576 29.9288 27.8926 30.2787 27.3576 30.2678C26.8913 30.2588 26.3384 29.7469 25.913 29.5978C25.4896 29.4517 25.108 29.3552 24.5441 29.3801C23.9723 29.4059 23.3904 29.6674 23.2629 30.1276C23.0059 31.054 24.5192 31.3592 24.8759 31.398C24.7743 31.227 24.7324 30.7767 25.0004 30.5302C25.2963 30.2588 25.6819 30.2986 25.8702 30.3393C25.658 30.4884 25.642 30.7707 25.7267 30.9616C25.8114 31.1524 26.1561 31.8393 28.6079 31.7399C30.5337 31.6604 31.5589 31.3065 32.612 31.0908C33.0952 30.9944 33.3283 30.9785 33.3283 30.9785C33.1589 30.9258 32.8929 30.3532 33.2356 29.9825C33.4289 29.7707 33.669 29.7151 33.8653 29.7081C34.2399 29.6922 34.6533 29.9775 34.7131 30.2161C34.479 30.1852 34.212 30.2827 34.1393 30.5252C34.0337 30.884 34.466 30.9964 34.6623 31.1236C34.8297 31.232 35.1316 31.4705 35.0598 31.9486C34.9542 32.6594 34.0187 33.5629 32.0401 34.0311C31.4284 34.1762 30.9472 34.2498 30.741 34.2498C30.8456 34.387 31.277 34.8402 32.083 34.8204C33.3861 34.7905 34.9572 34.215 35.4773 33.1355C35.6088 33.2458 35.7682 33.6743 35.561 34.1832C35.2023 35.0639 35.275 35.0132 35.275 35.0132C35.3697 34.9794 35.6616 34.9893 35.8529 35.1046C36.358 35.4108 36.0979 36.1215 36.0501 36.1633C35.9784 36.0738 35.7931 35.8621 35.4783 35.9456C35.1186 36.043 35.1585 36.3651 35.1575 36.3611C35.4344 36.4187 35.6715 36.6006 35.6666 36.9515C35.6556 37.5768 34.9941 37.8193 34.9941 37.8193C34.9941 37.8193 35.3816 38.042 35.4095 38.4127C35.4504 38.9485 34.9702 39.027 34.9702 39.027C34.9662 39.1573 34.9991 39.2487 35.0618 39.3481C35.1864 39.5429 35.4524 39.6016 35.4653 39.6026C35.4504 39.6314 35.3617 39.8163 35.014 39.7487C34.6643 39.6811 34.4003 39.4038 34.3306 38.4714C34.2987 38.0619 34.1931 37.9962 34.0755 38.0271C33.9729 38.0559 33.9281 38.1334 33.9281 38.2825C33.9281 38.4316 34.0426 38.6911 33.8653 39.0022C33.7308 39.2348 33.3502 39.2497 33.2496 39.1304C33.1925 39.2424 33.1639 39.362 33.1639 39.4893C33.1639 39.6801 33.2994 39.9336 33.2994 39.9336C33.0464 39.9336 32.6568 39.6026 32.8232 38.8551C32.8869 38.5688 33.1649 38.2189 33.2705 38.0609C33.397 37.871 33.3931 37.7428 33.3343 37.6851C33.2685 37.6195 33.146 37.6255 33.0583 37.713C32.9497 37.8183 32.7116 38.1891 32.3828 38.206C32.0282 38.2249 32.0232 37.8104 32.0232 37.8104C31.8847 37.8084 31.7731 37.8392 31.5838 37.9873C31.3477 38.1742 31.2521 38.4108 31.2521 38.4108C31.1524 38.3948 31.0628 37.6613 31.9106 37.3163C32.7265 36.9823 33.6033 36.9346 33.6521 36.1881C33.677 35.7885 33.396 35.5221 32.9507 35.5539C32.1348 35.6106 31.9793 36.4426 31.4493 36.7597C30.9761 37.042 30.6643 36.8442 30.6643 36.8442C30.8017 36.7915 31.0558 36.5996 31.1086 36.3571C31.1723 36.0659 31.0239 35.871 31.0239 35.871C30.7908 35.9327 30.1183 36.1394 29.135 36.1036C27.8996 36.0569 26.6313 35.4098 26.3992 34.6007C26.2806 34.7438 26.1222 35.044 26.1222 35.4048C26.1222 36.0609 26.728 36.7289 28.4774 36.9197C28.9935 36.9764 29.6451 36.8233 29.7726 36.7488C29.7507 36.9446 29.4956 37.2587 29.0064 37.4187C28.5242 37.5748 28.1178 37.5301 28.0739 37.5171C28.1746 37.6066 28.2762 37.9634 28.2234 38.1722C28.064 38.7974 27.3636 38.9406 27.2052 38.9346C27.3168 38.8292 27.4672 38.6811 27.4672 38.4485C27.4672 38.1195 27.2042 38.036 27.0149 38.0181C26.6801 37.9863 26.5486 38.0877 26.5486 38.0877C26.6174 38.2736 26.5855 38.6861 26.186 38.7865C25.6201 38.9296 25.375 38.6066 25.0522 38.5092C25.0323 38.6374 25.1648 38.9127 25.0831 39.1046C24.9765 39.3531 24.7852 39.4316 24.5521 39.3789C24.5471 39.5429 24.5939 39.6394 24.6637 39.7606C24.7782 39.9574 25.0183 40.0568 25.0183 40.0568C24.8121 40.1423 24.1496 40.1115 24.0002 39.4644C23.9414 39.2099 24.0211 38.872 24.0848 38.703C24.1486 38.533 24.1695 38.3958 24.0629 38.3531C23.9563 38.3113 23.8617 38.4008 23.7889 38.5111C23.6833 38.6702 23.513 39.1672 23.1095 39.1672C22.706 39.1672 22.716 38.8292 22.716 38.8292C22.6203 38.8451 22.4928 38.9575 22.4131 39.1155C22.3204 39.3004 22.3025 39.528 22.3025 39.528C22.1949 39.4018 22.0614 39.2497 22.1271 38.9147C22.2108 38.4813 22.7179 38.2785 23.0656 38.1791C23.3326 38.1016 23.4173 38.0042 23.4074 37.8988C23.3984 37.8124 23.2988 37.7875 23.1314 37.8044C22.8943 37.8312 22.6014 37.9575 22.4131 37.8124C22.2975 37.7219 22.2397 37.4963 22.2985 37.3004C22.1501 37.3004 22.1291 37.2796 21.9269 37.3322C21.635 37.4058 21.4965 37.6215 21.4965 37.6215C21.4965 37.4734 21.6449 36.8591 22.43 36.8173C23.2171 36.7746 23.7889 37.5161 24.4405 37.538C25.2385 37.5638 25.4228 37.1931 25.4228 37.1931C25.099 37.1414 23.765 36.8014 23.6415 36.046C23.514 35.2677 24.2134 34.874 24.2134 34.874C23.8318 34.884 23.227 35.1315 22.5097 35.5669C20.9665 36.5032 19.8855 37.6722 17.9966 37.6772C16.7751 37.6811 16.2362 36.9018 16.2362 36.9018C16.1933 37.0082 16.0399 37.1782 16.0658 37.4724C16.1136 38.0181 16.7652 37.9605 16.7652 37.9605C16.7443 38.0867 16.4783 38.4475 15.8964 38.4108C14.935 38.3511 14.7607 37.8432 14.1569 37.7269C14.1569 38.034 14.0613 38.6801 13.5622 39.034C12.9484 39.4694 12.4174 39.1563 12.2471 39.0082C12.5021 38.9028 12.7034 38.7328 12.7342 38.5002C12.7562 38.3412 12.6545 38.1593 12.4224 38.1702C11.8167 38.202 11.198 39.0976 10.5285 39.1672C10.0044 39.2189 9.76534 38.871 9.76534 38.871C9.92474 38.874 10.4876 38.7815 10.4876 38.3958C10.4876 38.1613 10.2605 38.0658 10.0841 38.0658C9.57206 38.0658 8.97629 38.5956 8.04676 38.5956C6.94289 38.5956 6.74961 38.1503 6.74961 38.1503C6.89805 38.1702 7.30155 38.1086 7.44899 38.0231" fill="#222E65"/>
<path d="M11.6503 45.946C11.4371 45.5543 11.5348 45.0265 11.6782 44.771C11.6782 44.771 11.195 44.775 10.7866 44.7084C9.62489 44.5166 8.70134 43.9868 8.3118 43.4162C8.03981 43.0176 8.11952 42.5305 7.96908 41.8238C7.81864 41.118 7.40319 40.9043 7.17405 40.9033C7.03158 40.9033 6.94989 40.9282 6.87915 40.9709C6.87915 40.9709 7.10232 41.0335 7.20593 41.1697C7.27667 41.2602 7.35537 41.3725 7.37829 41.4759C7.37829 41.4759 7.05948 41.5325 7.09236 41.8238C7.11627 42.0494 7.2687 42.1339 7.33445 42.2413C7.39921 42.3466 7.42212 42.4967 7.30257 42.5554C7.18102 42.616 7.10232 42.4788 6.99073 42.3198C6.59322 41.7423 6.13991 41.7045 5.90579 41.6975C5.67067 41.6896 5.42758 41.8009 5.33691 41.9301C5.33691 41.9301 5.58997 41.8576 5.7962 41.9311C6.00143 42.0057 6.03929 42.1041 6.07316 42.1359C6.07316 42.1359 5.87989 42.2343 5.94265 42.5027C6.00542 42.7721 6.38101 42.8138 6.64702 42.8576C6.78451 42.8794 6.86221 42.945 6.87018 43.0196C6.88114 43.1249 6.75561 43.1667 6.62211 43.1727C6.44378 43.1776 6.10006 43.2184 5.87889 43.5206C5.66469 43.8138 5.73742 44.2392 5.85797 44.3605C5.85797 44.3605 5.88985 44.1518 5.99844 43.9768C6.08313 43.8416 6.14888 43.7542 6.21962 43.7104C6.21962 43.7104 6.3033 44.0603 6.59721 43.9957C6.82934 43.947 6.97081 43.6299 7.04653 43.5454C7.12224 43.4609 7.20892 43.4281 7.30755 43.446C7.30755 43.446 7.20194 43.8605 7.45799 44.2054C7.61938 44.4241 7.94617 44.5315 8.257 44.4589C8.257 44.4589 8.33172 44.7889 8.04779 44.946C7.86347 45.0484 7.67318 45.0424 7.5357 45.0434C7.5357 45.0434 7.66721 45.2591 7.8296 45.3098C8.22911 45.436 8.60371 45.3565 8.9803 45.3307C9.29712 45.3078 9.45851 45.439 9.42663 45.6478C9.3828 45.9281 8.81093 45.9867 8.81093 45.9867C8.8737 46.0494 8.96038 46.1497 9.27719 46.1766C9.70161 46.2144 10.0991 45.944 10.656 45.9867C11.2279 46.0295 11.6443 46.6597 11.7878 46.939C11.8974 47.1557 11.9761 47.4479 11.9761 47.4479C12.0887 47.1537 12.0249 46.6309 11.6513 45.945" fill="#222E65"/>
<path d="M12.8559 48.1273C11.6544 48.0358 11.5996 47.3966 11.2738 46.9344C10.8284 46.3012 10.3562 46.3957 10.1261 46.5229C10.0025 46.5915 9.94275 46.6551 9.90389 46.7277C9.90389 46.7277 10.134 46.6362 10.2855 46.6839C10.3781 46.7118 10.4608 46.7346 10.5873 46.8718C10.5873 46.8718 10.3363 47.0786 10.5096 47.3161C10.6003 47.4404 10.7916 47.4931 10.9271 47.5577C11.1383 47.6601 11.1203 47.7684 11.0556 47.8489C10.9789 47.9404 10.8344 47.8817 10.668 47.7962C9.99356 47.4513 9.5801 47.5776 9.33502 47.7416C9.17561 47.8469 9.05207 48.0408 9.03613 48.1978C9.03613 48.1978 9.22045 48.0109 9.43664 47.9742C9.65283 47.9364 9.73353 47.9324 9.77936 47.9434C9.77936 47.9434 9.70065 48.1223 9.82419 48.2803C9.96865 48.4662 10.3811 48.3827 10.6352 48.2883C10.7647 48.2416 10.8643 48.2595 10.9081 48.3201C10.9699 48.4056 10.8822 48.506 10.7687 48.5756C10.6152 48.666 10.3363 48.7863 10.2924 49.1561C10.2486 49.5159 10.5953 49.7634 10.7607 49.8081C10.7607 49.8081 10.6172 49.6749 10.6272 49.4702C10.6332 49.3101 10.6362 49.3101 10.676 49.2376C10.676 49.2376 10.9271 49.4185 11.1532 49.2187C11.2588 49.1243 11.3116 48.8539 11.3216 48.8082C11.3455 48.6968 11.4033 48.6253 11.4989 48.5915C11.4989 48.5915 11.5986 49.1213 11.9921 49.2972C12.2392 49.4066 12.4215 49.4135 12.6686 49.4006C12.9784 49.3837 13.2454 49.2575 13.4696 49.2634C13.8163 49.2704 13.8701 49.5 13.8531 49.6759C13.8282 49.9264 13.4885 50.0875 13.1866 50.0407C13.1866 50.0407 13.361 50.5159 14.0614 50.4701C15.0317 50.4055 15.3665 49.4841 15.9224 49.5C16.0977 49.507 16.2581 49.5815 16.2581 49.8509C16.2581 50.1203 15.9712 50.4542 15.7959 50.5964C15.9015 50.662 16.5072 50.7316 17.0372 50.1193C17.4348 49.659 17.4507 49.2634 17.4676 49.1133C17.4676 49.1133 17.7207 49.5169 18.2786 49.499C18.8036 49.4831 18.8794 49.1282 18.9272 49.0487C18.9272 49.0487 18.4191 49.0646 18.2906 48.6511C18.2089 48.3857 18.3234 48.1432 18.3862 48.0477C18.5705 48.1521 18.9521 48.5388 19.7441 48.5119C20.7105 48.4811 21.653 46.9344 22.2577 46.8221C22.2577 46.8221 22.0565 47.502 22.3205 47.9096C22.7708 48.6034 23.6216 48.5974 24.0381 48.4593C24.0381 48.4593 24.0201 48.7783 23.4712 49.0567C23.0189 49.2843 22.3892 48.999 21.8742 49.3191C21.3591 49.6411 21.4886 50.1113 21.5434 50.2117C21.5434 50.2117 21.5892 50.0467 21.7576 49.8877C21.8762 49.7773 21.917 49.7634 22.0166 49.7087C22.0495 49.8618 22.1252 49.9801 22.2348 49.998C22.4171 50.0268 22.5686 49.83 22.717 49.7266C22.8226 49.6511 22.9003 49.6312 22.9382 49.6859C22.985 49.7535 22.9641 49.8519 22.8137 50.002C22.6154 50.1988 22.3484 50.5238 22.453 50.8489C22.5347 51.1014 22.6841 51.152 22.8027 51.1998C22.8027 51.1998 22.731 51.0407 22.724 50.8787C22.718 50.7425 22.7628 50.6202 22.8216 50.5725C22.8216 50.5725 22.9402 50.8061 23.2152 50.655C23.4871 50.504 23.4164 50.1034 23.4284 49.9582C23.4373 49.8559 23.4682 49.7604 23.5559 49.7485C23.6445 49.7386 23.6804 49.838 23.7013 49.9771C23.7213 50.1133 23.794 50.3727 23.9285 50.5238C24.2702 50.9065 24.7365 50.6859 24.8381 50.5447C24.8381 50.5447 24.6388 50.5666 24.4874 50.4761C24.3957 50.4195 24.328 50.3737 24.2692 50.2614C24.4475 50.2097 24.5472 50.0845 24.5263 49.8777C24.5093 49.7177 24.317 49.5815 24.2842 49.4871C24.5372 49.4324 24.9337 49.6223 25.125 49.3201C25.3263 49.002 24.9816 48.828 25.141 48.4632C25.2675 48.2098 25.4438 48.162 25.7138 47.9871C25.9838 47.8131 26.0157 47.7018 26.0157 47.7018C25.8254 47.7972 25.13 47.8589 24.4406 47.4623C23.6934 47.0348 23.6296 46.6531 23.5987 46.4464C23.7731 46.3827 24.0281 46.2883 24.6478 46.5259C25.2675 46.7635 26.0007 47.1332 26.7808 47.3082C27.53 47.4762 28.4516 47.3718 28.4516 47.3718C28.3739 47.5607 28.2224 47.6978 27.9534 47.8072C27.4344 48.0189 26.8296 47.9434 26.1641 48.4205C25.6082 48.8231 25.7577 49.3221 25.8334 49.3191C25.8334 49.3191 25.8702 49.1312 26.0197 48.9612C26.1372 48.8251 26.2139 48.7863 26.3166 48.7684C26.3166 48.7684 26.3793 49.0736 26.6394 49.0099C26.8795 48.9503 27.003 48.6441 27.0658 48.5527C27.1186 48.4762 27.2082 48.4533 27.266 48.493C27.3168 48.5278 27.3387 48.6223 27.272 48.7793C27.2182 48.9095 27.0628 49.2068 27.0568 49.4264C27.0379 50.002 27.3716 50.1898 27.5559 50.1541C27.5559 50.1541 27.4214 49.9881 27.3945 49.8469C27.3773 49.7535 27.3813 49.6614 27.4065 49.5706C27.4981 49.6461 27.7771 49.5815 27.8439 49.3906C27.9305 49.1362 27.809 48.9602 27.7891 48.8519C27.7671 48.7425 27.7911 48.6789 27.8638 48.6431C27.9445 48.6034 28.0162 48.6133 28.1119 48.9354C28.3101 49.5934 28.8571 49.6819 29.1131 49.6143C29.3751 49.5457 29.4319 49.3489 29.4389 49.3191C29.4389 49.3191 29.2805 49.4155 29.0713 49.3618C28.9437 49.33 28.885 49.2644 28.8511 49.174C28.8511 49.174 29.142 49.0596 29.0354 48.671C28.9627 48.4006 28.5612 48.3082 28.5612 48.3082C28.9617 48.1958 29.5106 48.3628 29.9331 47.9414C30.1712 47.7038 30.1403 47.3539 30.0486 47.179C30.0506 47.1819 30.6285 47.0855 30.9353 46.8937C31.3866 46.6104 31.4763 46.1313 31.4763 46.1313C31.3318 46.2426 30.7918 46.6273 29.5335 46.6074C27.546 46.5746 27.275 45.7018 27.275 45.7018C27.4822 45.7496 29.0384 45.9265 29.949 45.9096C30.9353 45.8897 32.6619 45.6671 32.7635 44.7178C32.8242 44.1482 32.5742 44.0061 32.6549 43.6393C32.6848 43.508 32.8382 43.4136 32.9856 43.4255C33.162 43.4395 33.2377 43.519 33.2377 43.519C33.2686 43.3917 33.2088 43.0458 32.7794 43.0369C32.1328 43.023 31.9844 43.6253 32.0163 43.8142C31.0618 43.4474 29.5814 43.5428 28.4665 43.5409C27.4653 43.5369 25.4907 43.4772 25.2047 42.9415C25.0463 42.6413 25.1898 42.4007 25.1898 42.4007C25.0463 42.354 24.7126 42.4007 24.584 42.6244C24.4107 42.9285 24.5362 43.2526 24.6488 43.3381C24.4735 43.3381 22.8186 43.2426 22.8495 42.3063C22.8764 41.5439 23.7452 41.4902 23.9843 41.4902C24.2234 41.4902 24.9028 41.5598 25.7616 42.1115C26.0426 42.2914 26.4909 42.4584 26.7808 42.4584C27.5131 42.4584 27.7034 42.0051 27.7034 41.8629C27.5599 41.9902 27.4324 42.0021 27.2102 41.9743C26.9562 41.9425 26.7021 41.6731 26.7021 41.6731C26.9402 41.6562 27.6566 41.356 27.6874 40.7993C27.7193 40.2288 27.263 40.0469 26.9602 40.0469C26.5347 40.0469 26.3614 40.2139 26.2379 40.3371C26.4461 40.3053 26.8446 40.2894 26.8287 40.7029C26.8117 41.1154 26.2837 41.2248 25.935 41.2596C25.2994 41.3222 24.6169 41.017 23.789 41.0359C23.1205 41.0518 22.1581 41.3699 22.0774 42.2596C21.9957 43.176 22.9741 43.8301 25.6959 43.9762C28.3091 44.1164 29.8992 43.9285 30.9801 44.018C31.7752 44.0836 32.2195 44.3062 32.1996 44.672C32.1717 45.17 31.2711 45.4036 30.47 45.4086C27.4483 45.4295 25.4578 44.4335 22.4341 44.339C20.2871 44.2705 18.445 44.9573 17.5384 45.4653C17.5543 45.6879 17.5702 46.335 16.9496 46.7157C16.2522 47.1442 15.6395 46.8171 15.5329 46.672C15.2141 47.498 14.2596 48.2276 12.8598 48.1223" fill="#222E65"/>
<path d="M13.7314 45.4816L14.5643 44.5184C14.5643 44.5184 14.4498 44.4309 14.3173 44.3633C14.1718 44.2917 14.0343 44.252 14.0343 44.252L13.7324 45.4816" fill="#222E65"/>
<path d="M12.916 33.6168L13.8435 32.5452C13.8435 32.5452 13.716 32.4498 13.5666 32.3752C13.4052 32.2947 13.2528 32.251 13.2528 32.251L12.916 33.6168Z" fill="#222E65"/>
<path d="M20.2664 15.5435C20.2664 15.7443 20.102 15.9083 19.9008 15.9083C19.6995 15.9083 19.5352 15.7443 19.5352 15.5435C19.5352 15.3427 19.6995 15.1777 19.9008 15.1777C20.102 15.1777 20.2664 15.3417 20.2664 15.5435Z" fill="#EF373F"/>
<path d="M20.9719 15.7022C20.8832 15.8085 20.675 15.73 20.6212 15.7161L20.6042 15.7807L20.5793 15.8433C20.6301 15.8632 20.8364 15.903 20.8443 16.0401C20.8563 16.2538 20.5544 16.4626 20.5654 16.4536C20.5753 16.4447 20.2844 16.6664 20.0832 16.5888C19.9547 16.5391 19.9726 16.3294 19.9676 16.2747L19.9009 16.2787L19.8271 16.2747C19.8242 16.3294 19.8421 16.5322 19.7126 16.5809C19.5123 16.6594 19.2274 16.4377 19.2403 16.4457C19.2503 16.4536 18.9474 16.2608 18.9584 16.0471C18.9664 15.9089 19.1636 15.8552 19.2164 15.8344L19.1955 15.7757L19.1756 15.7061C19.1228 15.7211 18.9106 15.8095 18.8229 15.7022C18.6874 15.5352 18.805 15.1843 18.801 15.1982C18.797 15.2121 18.9155 14.8503 19.1228 14.7946C19.2573 14.7588 19.3619 14.9328 19.3968 14.9765L19.4496 14.9328L19.5103 14.892C19.4824 14.8453 19.3479 14.6903 19.4236 14.575C19.5402 14.395 19.9118 14.397 19.8969 14.399C19.8829 14.399 20.2565 14.395 20.3711 14.575C20.4468 14.6903 20.3133 14.8453 20.2834 14.892L20.3482 14.9318L20.403 14.9835C20.4389 14.9427 20.5455 14.7668 20.678 14.8026C20.8852 14.8573 20.9978 15.2111 20.9928 15.1992C20.9878 15.1863 21.1064 15.5362 20.9709 15.7042M21.9402 14.9905C21.9402 14.9905 21.8835 14.8185 21.8835 14.8155C21.8127 14.8384 21.6414 14.897 21.5228 14.8622C21.3694 14.8185 21.2628 14.4865 21.0536 14.3851C20.9001 14.3125 20.677 14.4765 20.663 14.4994C20.6839 14.4517 20.7607 14.2121 20.6252 14.062C20.4767 13.898 20.143 13.9109 20.0603 13.7748C19.9965 13.6684 20.0005 13.4935 19.9995 13.4209H19.8152C19.8152 13.4935 19.8162 13.6744 19.7484 13.7768C19.6588 13.908 19.3031 13.898 19.1427 14.065C19.0271 14.1873 19.1148 14.4825 19.1327 14.5024C19.0939 14.4686 18.8996 14.3185 18.7143 14.401C18.5121 14.4915 18.4214 14.8115 18.266 14.8483C18.1454 14.8761 17.98 14.8185 17.9093 14.7956C17.9093 14.7956 17.8535 14.9686 17.8535 14.9716C17.9243 14.9944 18.0956 15.0481 18.1713 15.1445C18.271 15.2708 18.1494 15.6038 18.26 15.8075C18.3397 15.9556 18.6466 15.9527 18.6715 15.9427C18.6276 15.9686 18.4343 16.1008 18.4563 16.3026C18.4792 16.5222 18.7571 16.7071 18.7442 16.8652C18.7322 16.9884 18.6276 17.1276 18.5848 17.1872C18.5848 17.1872 18.7322 17.2946 18.7332 17.2946C18.7781 17.2359 18.8817 17.0888 18.9972 17.0471C19.1477 16.9924 19.4276 17.2031 19.6568 17.1614C19.8012 17.1346 19.9029 16.891 19.8989 16.8393C19.9098 16.89 19.9766 17.1375 20.1619 17.1693C20.3811 17.2041 20.656 16.9815 20.8035 17.0431C20.9171 17.0918 21.0177 17.2349 21.0635 17.2926C21.0635 17.2926 21.21 17.1862 21.213 17.1852C21.1691 17.1256 21.0615 16.9805 21.0566 16.8572C21.0516 16.6982 21.3445 16.4984 21.3764 16.2698C21.3993 16.1028 21.1731 15.9596 21.1462 15.9527C21.1661 15.9596 21.4242 15.9556 21.5248 15.7797C21.6354 15.5889 21.5188 15.2757 21.6234 15.1555C21.7051 15.062 21.8725 15.0123 21.9432 14.9875L21.9402 14.9905Z" fill="#EF373F"/>
<path d="M31.1258 15.5435C31.1258 15.7443 30.9614 15.9083 30.7592 15.9083C30.5569 15.9083 30.3936 15.7443 30.3936 15.5435C30.3936 15.3427 30.5569 15.1777 30.7592 15.1777C30.9614 15.1777 31.1258 15.3417 31.1258 15.5435Z" fill="#EF373F"/>
<path d="M31.8313 15.7022C31.7426 15.8085 31.5344 15.73 31.4806 15.7161L31.4637 15.7807L31.4388 15.8433C31.4906 15.8632 31.6958 15.903 31.7038 16.0401C31.7157 16.2538 31.4129 16.4626 31.4238 16.4536C31.4348 16.4447 31.1439 16.6664 30.9436 16.5888C30.8141 16.5391 30.832 16.3294 30.828 16.2747L30.7613 16.2787L30.6886 16.2747C30.6846 16.3294 30.7015 16.5322 30.574 16.5809C30.3728 16.6594 30.0878 16.4377 30.0998 16.4457C30.1127 16.4536 29.8089 16.2608 29.8208 16.0471C29.8288 15.9089 30.026 15.8552 30.0788 15.8344L30.0579 15.7757L30.038 15.7061C29.9852 15.7211 29.772 15.8095 29.6833 15.7022C29.5468 15.5352 29.6644 15.1843 29.6614 15.1982C29.6574 15.2121 29.778 14.8503 29.9852 14.7946C30.1187 14.7588 30.2243 14.9328 30.2592 14.9765L30.311 14.9328L30.3727 14.892C30.3439 14.8453 30.2104 14.6903 30.2851 14.575C30.4016 14.395 30.7723 14.397 30.7583 14.399C30.7454 14.399 31.117 14.395 31.2325 14.575C31.3083 14.6903 31.1738 14.8453 31.1459 14.892L31.2086 14.9318L31.2644 14.9835C31.3003 14.9427 31.4049 14.7668 31.5384 14.8026C31.7466 14.8573 31.8582 15.2111 31.8532 15.1992C31.8472 15.1863 31.9678 15.5362 31.8323 15.7042M32.7977 14.9905C32.7977 14.9905 32.7409 14.8185 32.7409 14.8155C32.6702 14.8384 32.4998 14.897 32.3802 14.8622C32.2258 14.8185 32.1202 14.4865 31.91 14.3851C31.7586 14.3125 31.5354 14.4765 31.5205 14.4994C31.5414 14.4517 31.6171 14.2121 31.4816 14.062C31.3342 13.898 31.0004 13.9109 30.9187 13.7748C30.8559 13.6684 30.8579 13.4935 30.8579 13.4209H30.6736C30.6736 13.4935 30.6756 13.6744 30.6069 13.7768C30.5172 13.908 30.1635 13.898 30.0031 14.065C29.8856 14.1873 29.9752 14.4825 29.9922 14.5024C29.9523 14.4686 29.757 14.3185 29.5707 14.401C29.3685 14.4915 29.2788 14.8115 29.1224 14.8483C29.0029 14.8761 28.8365 14.8185 28.7667 14.7956C28.7667 14.7956 28.71 14.9686 28.71 14.9716C28.7807 14.9944 28.9521 15.0481 29.0288 15.1445C29.1284 15.2708 29.0069 15.6038 29.1184 15.8075C29.1981 15.9556 29.503 15.9527 29.5299 15.9427C29.4841 15.9686 29.2918 16.1008 29.3137 16.3026C29.3356 16.5222 29.6136 16.7071 29.6006 16.8652C29.5887 16.9884 29.4841 17.1276 29.4422 17.1872C29.4422 17.1872 29.5887 17.2946 29.5907 17.2946C29.6345 17.2359 29.7411 17.0888 29.8577 17.0471C30.0081 16.9924 30.2871 17.2031 30.5162 17.1614C30.6617 17.1346 30.7643 16.891 30.7593 16.8393C30.7703 16.89 30.838 17.1375 31.0213 17.1693C31.2405 17.2041 31.5165 16.9815 31.6629 17.0431C31.7765 17.0918 31.8761 17.2349 31.921 17.2926C31.921 17.2926 32.0684 17.1862 32.0704 17.1852C32.0276 17.1256 31.92 16.9805 31.915 16.8572C31.908 16.6982 32.2019 16.4984 32.2338 16.2698C32.2557 16.1028 32.0296 15.9596 32.0027 15.9527C32.0236 15.9596 32.2796 15.9556 32.3812 15.7797C32.4918 15.5889 32.3773 15.2757 32.4809 15.1555C32.5626 15.062 32.7299 15.0123 32.8007 14.9875L32.7977 14.9905Z" fill="#EF373F"/>
<path d="M9.64535 15.5562C9.64535 15.757 9.48096 15.922 9.27972 15.922C9.07847 15.922 8.91309 15.758 8.91309 15.5562C8.91309 15.3544 9.07747 15.1904 9.27972 15.1904C9.48196 15.1904 9.64535 15.3544 9.64535 15.5562Z" fill="#EF373F"/>
<path d="M10.3508 15.7139C10.2621 15.8202 10.0529 15.7417 9.9991 15.7288L9.98217 15.7924L9.95726 15.856C10.0081 15.8769 10.2143 15.9157 10.2223 16.0528C10.2342 16.2676 9.93235 16.4753 9.94232 16.4664C9.95327 16.4574 9.66236 16.6791 9.46111 16.6025C9.3316 16.5518 9.34953 16.3431 9.34555 16.2884L9.27879 16.2924L9.20507 16.2884C9.20109 16.3431 9.21802 16.5449 9.0895 16.5956C8.88925 16.6731 8.60432 16.4524 8.61528 16.4594C8.62723 16.4674 8.32336 16.2745 8.33532 16.0608C8.34329 15.9236 8.54056 15.869 8.59336 15.8481L8.57144 15.7894L8.55251 15.7199C8.49871 15.7338 8.2875 15.8222 8.19883 15.7159C8.06334 15.5489 8.18189 15.197 8.17791 15.2109C8.17492 15.2238 8.29149 14.863 8.49971 14.8083C8.63321 14.7706 8.73881 14.9475 8.77468 14.9893L8.82649 14.9455L8.88726 14.9048C8.85837 14.859 8.72387 14.704 8.79958 14.5887C8.91515 14.4087 9.28776 14.4117 9.27282 14.4117C9.25987 14.4117 9.63148 14.4087 9.74904 14.5887C9.82376 14.704 9.69026 14.859 9.66137 14.9048L9.72513 14.9445L9.78092 14.9962C9.81579 14.9545 9.92239 14.7795 10.0549 14.8153C10.2621 14.87 10.3747 15.2238 10.3697 15.2109C10.3647 15.197 10.4843 15.5489 10.3488 15.7159M11.3182 15.0032C11.3182 15.0032 11.2624 14.8302 11.2614 14.8282C11.1907 14.8501 11.0193 14.9077 10.9007 14.8739C10.7473 14.8302 10.6417 14.4982 10.4325 14.3968C10.2791 14.3243 10.0559 14.4883 10.0409 14.5121C10.0629 14.4644 10.1386 14.2249 10.0031 14.0748C9.85464 13.9097 9.52189 13.9227 9.4392 13.7875C9.37543 13.6811 9.37942 13.5072 9.37743 13.4326H9.19312C9.19312 13.5072 9.19511 13.6861 9.12636 13.7895C9.0367 13.9217 8.68202 13.9107 8.52262 14.0787C8.40606 14.199 8.49373 14.4942 8.51166 14.5151C8.47281 14.4793 8.27754 14.3312 8.09322 14.4137C7.89098 14.5042 7.80032 14.8242 7.6449 14.86C7.52435 14.8879 7.35897 14.8302 7.28823 14.8093C7.28823 14.8093 7.23244 14.9823 7.23145 14.9843C7.30218 15.0061 7.47354 15.0608 7.55026 15.1582C7.64889 15.2845 7.52933 15.6165 7.63892 15.8212C7.71862 15.9694 8.02548 15.9674 8.05138 15.9564C8.00555 15.9823 7.81327 16.1145 7.83419 16.3153C7.8581 16.5349 8.13607 16.7208 8.12212 16.8789C8.11116 17.0021 8.00555 17.1413 7.96271 17.2019C7.96271 17.2019 8.10916 17.3083 8.11116 17.3093C8.15499 17.2487 8.2596 17.1025 8.37617 17.0608C8.52661 17.0061 8.80756 17.2168 9.03471 17.1741C9.18016 17.1473 9.28278 16.9037 9.2768 16.853C9.28876 16.9037 9.35551 17.1522 9.54181 17.184C9.76 17.2188 10.035 16.9952 10.1814 17.0568C10.296 17.1045 10.3956 17.2487 10.4415 17.3073C10.4415 17.3073 10.5879 17.2009 10.5899 17.1999C10.5471 17.1383 10.4395 16.9952 10.4355 16.8709C10.4295 16.7119 10.7214 16.5111 10.7533 16.2825C10.7762 16.1155 10.55 15.9723 10.5241 15.9664C10.5431 15.9723 10.8011 15.9694 10.9017 15.7934C11.0123 15.6016 10.8977 15.2884 11.0014 15.1692C11.0821 15.0767 11.2504 15.025 11.3202 15.0012L11.3182 15.0032Z" fill="#EF373F"/>
<path d="M9.62385 29.2203C9.62385 29.423 9.45946 29.5841 9.25821 29.5841C9.05696 29.5841 8.89258 29.422 8.89258 29.2203C8.89258 29.0185 9.05597 28.8564 9.25821 28.8564C9.46045 28.8564 9.62385 29.0185 9.62385 29.2203Z" fill="#EF373F"/>
<path d="M10.3293 29.3789C10.2417 29.4863 10.0314 29.4067 9.97864 29.3938L9.96071 29.4594L9.93679 29.522C9.9886 29.5429 10.1938 29.5827 10.2018 29.7199C10.2128 29.9336 9.91089 30.1413 9.92185 30.1324C9.93281 30.1244 9.6419 30.3451 9.44065 30.2696C9.31113 30.2189 9.33006 30.0081 9.32607 29.9544L9.25733 29.9574L9.1846 29.9544C9.18062 30.0091 9.19756 30.2109 9.07003 30.2606C8.86878 30.3381 8.58385 30.1165 8.5958 30.1244C8.60776 30.1324 8.30389 29.9395 8.31585 29.7258C8.32382 29.5867 8.52208 29.534 8.57289 29.5131L8.55197 29.4545L8.53204 29.3829C8.47924 29.3968 8.26604 29.4873 8.17936 29.3799C8.04387 29.2139 8.16143 28.862 8.15744 28.8759C8.15445 28.8889 8.27201 28.527 8.47924 28.4734C8.61374 28.4376 8.71934 28.6105 8.75421 28.6523L8.80602 28.6095L8.86679 28.5688C8.8379 28.5221 8.7044 28.368 8.78012 28.2517C8.89568 28.0728 9.2673 28.0758 9.25335 28.0767C9.2384 28.0777 9.61101 28.0728 9.72757 28.2517C9.80229 28.368 9.6688 28.5221 9.6399 28.5688L9.70366 28.6076L9.75946 28.6592C9.79432 28.6175 9.90093 28.4435 10.0344 28.4773C10.2427 28.534 10.3542 28.8869 10.3493 28.8749C10.3453 28.861 10.4638 29.2119 10.3273 29.3779M11.2967 28.6692C11.2967 28.6692 11.2409 28.4952 11.2399 28.4942C11.1702 28.5181 10.9988 28.5747 10.8793 28.541C10.7248 28.4982 10.6202 28.1652 10.41 28.0658C10.2576 27.9923 10.0344 28.1563 10.0205 28.1791C10.0414 28.1324 10.1181 27.8909 9.98163 27.7408C9.83418 27.5768 9.49943 27.5897 9.41674 27.4545C9.35397 27.3481 9.35696 27.1722 9.35596 27.0986H9.17165C9.17165 27.1722 9.17364 27.3541 9.1049 27.4565C9.01424 27.5887 8.66056 27.5768 8.50016 27.7457C8.3836 27.866 8.47127 28.1612 8.4892 28.1831C8.45035 28.1473 8.25607 27.9992 8.07077 28.0817C7.86952 28.1712 7.77786 28.4932 7.62244 28.528C7.50189 28.5549 7.33551 28.4972 7.26478 28.4773C7.26478 28.4773 7.20898 28.6503 7.20898 28.6523C7.27972 28.6742 7.45208 28.7288 7.52779 28.8262C7.62543 28.9515 7.50687 29.2855 7.61547 29.4892C7.69617 29.6374 8.00202 29.6334 8.02792 29.6224C7.9821 29.6493 7.78982 29.7815 7.81173 29.9823C7.83465 30.2029 8.11261 30.3868 8.09966 30.5469C8.0877 30.6682 7.98309 30.8083 7.94025 30.8689C7.94025 30.8689 8.08671 30.9763 8.0887 30.9773C8.13254 30.9176 8.23814 30.7705 8.35271 30.7278C8.50415 30.6731 8.7841 30.8839 9.01225 30.8411C9.1577 30.8143 9.25932 30.5717 9.25534 30.52C9.2653 30.5707 9.33205 30.8192 9.51836 30.8491C9.73654 30.8848 10.0125 30.6612 10.16 30.7238C10.2725 30.7725 10.3742 30.9147 10.418 30.9743C10.418 30.9743 10.5654 30.867 10.5674 30.866C10.5236 30.8063 10.417 30.6622 10.411 30.5379C10.406 30.3779 10.6989 30.1801 10.7308 29.9505C10.7537 29.7825 10.5276 29.6393 10.4997 29.6334C10.5196 29.6403 10.7776 29.6364 10.8793 29.4614C10.9889 29.2696 10.8753 28.9565 10.9779 28.8372C11.0596 28.7437 11.227 28.693 11.2977 28.6692H11.2967Z" fill="#EF373F"/>
<path d="M20.2791 29.2134C20.2791 29.4142 20.1147 29.5792 19.9135 29.5792C19.7122 29.5792 19.5479 29.4142 19.5479 29.2134C19.5479 29.0126 19.7102 28.8496 19.9135 28.8496C20.1167 28.8496 20.2791 29.0106 20.2791 29.2134Z" fill="#EF373F"/>
<path d="M20.9836 29.3711C20.8969 29.4804 20.6867 29.3989 20.6339 29.387L20.6159 29.4516L20.59 29.5142C20.6418 29.5341 20.8481 29.5739 20.856 29.711C20.867 29.9257 20.5651 30.1335 20.5751 30.1255C20.587 30.1166 20.2971 30.3393 20.0959 30.2617C19.9654 30.212 19.9833 30.0013 19.9793 29.9466L19.9126 29.9516L19.8378 29.9466C19.8349 30.0013 19.8528 30.2041 19.7233 30.2548C19.523 30.3303 19.2381 30.1106 19.249 30.1166C19.261 30.1255 18.9571 29.9337 18.9691 29.72C18.9781 29.5818 19.1763 29.5281 19.2271 29.5073L19.2062 29.4476L19.1863 29.378C19.1335 29.391 18.9203 29.4804 18.8326 29.3731C18.6981 29.2081 18.8157 28.8572 18.8117 28.8691C18.8077 28.883 18.9263 28.5222 19.1325 28.4665C19.267 28.4307 19.3716 28.6047 19.4084 28.6464L19.4603 28.6017L19.522 28.562C19.4911 28.5142 19.3586 28.3622 19.4334 28.2449C19.5499 28.0659 19.9205 28.0679 19.9076 28.0689C19.8936 28.0689 20.2652 28.0669 20.3828 28.2449C20.4565 28.3622 20.323 28.5142 20.2951 28.562L20.3579 28.5997L20.4137 28.6514C20.4496 28.6087 20.5542 28.4357 20.6877 28.4705C20.8959 28.5252 21.0075 28.879 21.0025 28.8681C20.9975 28.8542 21.1181 29.2041 20.9816 29.3711M21.9519 28.6623C21.9519 28.6623 21.8962 28.4894 21.8962 28.4874C21.8244 28.5103 21.6541 28.5689 21.5355 28.5351C21.3811 28.4914 21.2755 28.1574 21.0663 28.058C20.9128 27.9854 20.6897 28.1494 20.6747 28.1723C20.6956 28.1256 20.7724 27.885 20.6369 27.7349C20.4884 27.5709 20.1537 27.5838 20.074 27.4477C20.0092 27.3423 20.0132 27.1663 20.0112 27.0918H19.8279C19.8279 27.1663 19.8299 27.3473 19.7611 27.4506C19.6715 27.5828 19.3168 27.5729 19.1564 27.7389C19.0398 27.8602 19.1285 28.1554 19.1464 28.1763C19.1076 28.1425 18.9133 27.9934 18.728 28.0749C18.5248 28.1653 18.4341 28.4854 18.2797 28.5212C18.1591 28.549 17.9937 28.4914 17.924 28.4705C17.924 28.4705 17.8662 28.6425 17.8662 28.6445C17.9369 28.6683 18.1093 28.722 18.186 28.8194C18.2846 28.9456 18.1651 29.2776 18.2747 29.4824C18.3544 29.6305 18.6602 29.6275 18.6861 29.6176C18.6413 29.6444 18.448 29.7756 18.47 29.9774C18.4929 30.1981 18.7718 30.382 18.7579 30.54C18.7459 30.6633 18.6413 30.8015 18.5975 30.8641C18.5975 30.8641 18.7459 30.9715 18.7479 30.9724C18.7908 30.9128 18.8954 30.7657 19.0119 30.7229C19.1624 30.6683 19.4433 30.878 19.6715 30.8363C19.8169 30.8094 19.9185 30.5659 19.9146 30.5142C19.9255 30.5659 19.9913 30.8144 20.1766 30.8442C20.3958 30.881 20.6707 30.6563 20.8182 30.718C20.9328 30.7667 21.0324 30.9108 21.0772 30.9695C21.0772 30.9695 21.2247 30.8631 21.2267 30.8611C21.1828 30.8005 21.0762 30.6573 21.0712 30.5351C21.0653 30.374 21.3582 30.1752 21.389 29.9466C21.411 29.7786 21.1858 29.6355 21.1599 29.6285C21.1788 29.6365 21.4369 29.6315 21.5375 29.4576C21.6481 29.2657 21.5325 28.9536 21.6371 28.8323C21.7178 28.7399 21.8862 28.6882 21.9559 28.6653L21.9519 28.6623Z" fill="#EF373F"/>
<path d="M31.119 29.2203C31.119 29.423 30.9546 29.5841 30.7533 29.5841C30.5521 29.5841 30.3877 29.422 30.3877 29.2203C30.3877 29.0185 30.5511 28.8564 30.7533 28.8564C30.9556 28.8564 31.119 29.0185 31.119 29.2203Z" fill="#EF373F"/>
<path d="M31.8215 29.3789C31.7348 29.4863 31.5256 29.4067 31.4718 29.3938L31.4539 29.4594L31.429 29.522C31.4798 29.5429 31.686 29.5827 31.694 29.7199C31.7059 29.9336 31.4031 30.1413 31.413 30.1324C31.424 30.1244 31.1331 30.3451 30.9338 30.2696C30.8033 30.2189 30.8212 30.0081 30.8173 29.9544L30.7505 29.9574L30.6768 29.9544C30.6728 30.0091 30.6907 30.2109 30.5622 30.2606C30.362 30.3381 30.078 30.1165 30.089 30.1244C30.1009 30.1324 29.7971 29.9395 29.808 29.7258C29.816 29.5867 30.0153 29.534 30.0661 29.5131L30.0451 29.4545L30.0262 29.3829C29.9714 29.3968 29.7602 29.4873 29.6706 29.3799C29.5341 29.2139 29.6526 28.862 29.6496 28.8759C29.6446 28.8889 29.7652 28.527 29.9724 28.4734C30.1069 28.4376 30.2125 28.6105 30.2474 28.6523L30.2992 28.6095L30.36 28.5688C30.3321 28.5221 30.1976 28.368 30.2733 28.2517C30.3889 28.0728 30.7615 28.0758 30.7465 28.0767C30.7336 28.0777 31.1032 28.0728 31.2198 28.2517C31.2955 28.368 31.162 28.5221 31.1331 28.5688L31.1968 28.6076L31.2526 28.6592C31.2885 28.6175 31.3941 28.4435 31.5276 28.4773C31.7358 28.534 31.8474 28.8869 31.8424 28.8749C31.8375 28.861 31.956 29.2119 31.8205 29.3779M32.7899 28.6692C32.7899 28.6692 32.7341 28.4952 32.7341 28.4942C32.6624 28.5181 32.492 28.5747 32.3734 28.541C32.219 28.4982 32.1144 28.1652 31.9032 28.0658C31.7518 27.9923 31.5276 28.1563 31.5137 28.1791C31.5346 28.1324 31.6103 27.8909 31.4748 27.7408C31.3264 27.5768 30.9926 27.5897 30.9109 27.4545C30.8472 27.3481 30.8511 27.1722 30.8501 27.0986H30.6648C30.6648 27.1722 30.6668 27.3541 30.5981 27.4565C30.5094 27.5887 30.1547 27.5768 29.9943 27.7457C29.8768 27.866 29.9654 28.1612 29.9824 28.1831C29.9445 28.1473 29.7493 27.9992 29.562 28.0817C29.3597 28.1712 29.271 28.4932 29.1146 28.528C28.9941 28.5549 28.8287 28.4972 28.758 28.4773C28.758 28.4773 28.7012 28.6503 28.7012 28.6523C28.7709 28.6742 28.9433 28.7288 29.019 28.8262C29.1186 28.9515 28.9971 29.2855 29.1086 29.4892C29.1874 29.6374 29.4932 29.6334 29.5191 29.6224C29.4743 29.6493 29.282 29.7815 29.3039 29.9823C29.3268 30.2029 29.6058 30.3868 29.5918 30.5469C29.5799 30.6682 29.4753 30.8083 29.4324 30.8689C29.4324 30.8689 29.5799 30.9763 29.5809 30.9773C29.6257 30.9176 29.7313 30.7705 29.8479 30.7278C29.9983 30.6731 30.2783 30.8839 30.5064 30.8411C30.6519 30.8143 30.7525 30.5717 30.7495 30.52C30.7605 30.5707 30.8262 30.8192 31.0115 30.8491C31.2307 30.8848 31.5067 30.6612 31.6521 30.7238C31.7657 30.7725 31.8654 30.9147 31.9102 30.9743C31.9102 30.9743 32.0576 30.867 32.0596 30.866C32.0168 30.8063 31.9092 30.6622 31.9042 30.5379C31.8982 30.3779 32.1911 30.1801 32.222 29.9505C32.2449 29.7825 32.0198 29.6393 31.9929 29.6334C32.0138 29.6403 32.2698 29.6364 32.3715 29.4614C32.4811 29.2696 32.3655 28.9565 32.4701 28.8372C32.5508 28.7437 32.7192 28.693 32.7889 28.6692H32.7899Z" fill="#EF373F"/>
<path d="M10.4463 41.5843C10.4463 41.7473 10.3118 41.8795 10.1494 41.8795C9.98702 41.8795 9.85352 41.7473 9.85352 41.5843C9.85352 41.4213 9.98502 41.2881 10.1494 41.2881C10.3138 41.2881 10.4463 41.4203 10.4463 41.5843Z" fill="#EF373F"/>
<path d="M11.0188 41.7121C10.9471 41.7986 10.7777 41.735 10.7349 41.725L10.7209 41.7767L10.701 41.8274C10.7418 41.8443 10.9092 41.8761 10.9152 41.9874C10.9242 42.1604 10.6791 42.3304 10.687 42.3224C10.698 42.3155 10.4619 42.4934 10.2995 42.4318C10.1939 42.391 10.2088 42.222 10.2058 42.1763L10.151 42.1803L10.0913 42.1753C10.0893 42.221 10.1022 42.3841 9.99762 42.4248C9.83623 42.4874 9.60609 42.3095 9.61406 42.3155C9.62402 42.3224 9.37893 42.1664 9.3869 41.9924C9.39288 41.8811 9.55528 41.8373 9.59612 41.8195L9.57919 41.7717L9.56324 41.7151C9.5204 41.725 9.34805 41.7986 9.27632 41.7121C9.16673 41.5779 9.26237 41.2946 9.25938 41.3036C9.25639 41.3155 9.35203 41.0213 9.52041 40.9775C9.628 40.9487 9.71368 41.0889 9.74158 41.1246L9.78442 41.0879L9.83423 41.0551C9.81032 41.0173 9.70372 40.893 9.7625 40.7996C9.85715 40.6535 10.158 40.6555 10.1461 40.6555C10.1351 40.6555 10.438 40.6535 10.5316 40.7996C10.5924 40.893 10.4838 41.0173 10.4609 41.0551L10.5127 41.0869L10.5585 41.1286C10.5864 41.0938 10.6711 40.9547 10.7807 40.9815C10.9491 41.0272 11.0387 41.3145 11.0357 41.3036C11.0318 41.2936 11.1284 41.5769 11.0188 41.7111M11.8019 41.1376C11.8019 41.1376 11.7561 40.9974 11.7561 40.9964C11.6993 41.0143 11.5608 41.062 11.4641 41.0332C11.3396 40.9984 11.2539 40.729 11.0836 40.6485C10.96 40.5889 10.7807 40.7221 10.7687 40.74C10.7857 40.7012 10.8464 40.5093 10.7369 40.3861C10.6173 40.2519 10.3473 40.2628 10.2796 40.1535C10.2288 40.068 10.2308 39.9259 10.2298 39.8662H10.0793C10.0793 39.9259 10.0813 40.072 10.0255 40.1545C9.95279 40.2608 9.66686 40.2529 9.53734 40.3891C9.4407 40.4875 9.51243 40.725 9.52837 40.7429C9.49649 40.7141 9.33908 40.5938 9.18865 40.6604C9.02526 40.733 8.95153 40.9934 8.825 41.0223C8.72737 41.0451 8.59387 40.9984 8.53509 40.9805C8.53509 40.9805 8.48926 41.1207 8.48926 41.1217C8.54704 41.1405 8.68552 41.1853 8.74729 41.2638C8.82799 41.3662 8.72936 41.6346 8.81903 41.8006C8.88478 41.9208 9.13186 41.9179 9.15178 41.9099C9.11492 41.9308 8.9595 42.0381 8.97743 42.2012C8.99636 42.3791 9.22052 42.5292 9.21056 42.6574C9.2006 42.7568 9.11492 42.8701 9.08105 42.9198C9.08105 42.9198 9.2006 43.0063 9.2016 43.0073C9.23746 42.9586 9.32115 42.8393 9.4148 42.8055C9.53834 42.7618 9.76449 42.9328 9.9488 42.897C10.0674 42.8761 10.1491 42.6793 10.1461 42.6365C10.155 42.6773 10.2098 42.8791 10.3593 42.9039C10.5376 42.9328 10.7598 42.7518 10.8783 42.8015C10.971 42.8403 11.0527 42.9566 11.0885 43.0053C11.0885 43.0053 11.2091 42.9188 11.2091 42.9178C11.1742 42.8691 11.0866 42.7518 11.0826 42.6514C11.0776 42.5232 11.3157 42.3612 11.3406 42.1743C11.3585 42.0401 11.1772 41.9258 11.1543 41.9189C11.1702 41.9258 11.3795 41.9218 11.4612 41.7787C11.5508 41.6246 11.4582 41.3721 11.5409 41.2737C11.6066 41.1992 11.7431 41.1584 11.7989 41.1376H11.8019Z" fill="#EF373F"/>
<path d="M20.2071 41.5843C20.2071 41.7473 20.0736 41.8795 19.9102 41.8795C19.7468 41.8795 19.6133 41.7473 19.6133 41.5843C19.6133 41.4213 19.7468 41.2881 19.9102 41.2881C20.0736 41.2881 20.2071 41.4203 20.2071 41.5843Z" fill="#EF373F"/>
<path d="M20.7776 41.7121C20.7069 41.7986 20.5365 41.735 20.4947 41.725L20.4807 41.7767L20.4608 41.8274C20.5016 41.8443 20.669 41.8761 20.675 41.9874C20.6849 42.1604 20.4399 42.3304 20.4478 42.3224C20.4568 42.3155 20.2207 42.4934 20.0583 42.4318C19.9537 42.391 19.9666 42.222 19.9646 42.1763L19.9098 42.1803L19.8491 42.1753C19.8471 42.221 19.86 42.3841 19.7574 42.4248C19.595 42.4874 19.3639 42.3095 19.3738 42.3155C19.3828 42.3224 19.1367 42.1664 19.1467 41.9924C19.1537 41.8811 19.3141 41.8373 19.3549 41.8195L19.338 41.7717L19.322 41.7151C19.2782 41.725 19.1068 41.7986 19.0361 41.7121C18.9265 41.5779 19.0222 41.2946 19.0192 41.3036C19.0162 41.3155 19.1108 41.0213 19.2802 40.9775C19.3888 40.9487 19.4745 41.0889 19.5034 41.1246L19.5452 41.0879L19.595 41.0551C19.5711 41.0173 19.4635 40.893 19.5243 40.7996C19.6179 40.6535 19.9188 40.6555 19.9078 40.6555C19.8959 40.6555 20.1978 40.6535 20.2924 40.7996C20.3532 40.893 20.2446 41.0173 20.2207 41.0551L20.2735 41.0869L20.3173 41.1286C20.3462 41.0938 20.4319 40.9547 20.5405 40.9815C20.7088 41.0272 20.7985 41.3145 20.7945 41.3036C20.7915 41.2936 20.8882 41.5769 20.7776 41.7111M21.5617 41.1376C21.5617 41.1376 21.5158 40.9974 21.5148 40.9964C21.4581 41.0143 21.3186 41.062 21.2229 41.0332C21.0984 40.9984 21.0127 40.729 20.8424 40.6485C20.7188 40.5889 20.5375 40.7221 20.5255 40.74C20.5435 40.7012 20.6052 40.5093 20.4947 40.3861C20.3751 40.2519 20.1041 40.2628 20.0384 40.1535C19.9866 40.068 19.9885 39.9259 19.9875 39.8662H19.8381C19.8381 39.9259 19.8401 40.072 19.7843 40.1545C19.7116 40.2608 19.4247 40.2529 19.2941 40.3891C19.1995 40.4875 19.2712 40.725 19.2852 40.7429C19.2543 40.7141 19.0959 40.5938 18.9454 40.6604C18.783 40.733 18.7083 40.9934 18.5838 41.0223C18.4862 41.0451 18.3517 40.9984 18.2939 40.9805C18.2939 40.9805 18.249 41.1207 18.248 41.1217C18.3048 41.1405 18.4443 41.1853 18.5051 41.2638C18.5868 41.3662 18.4881 41.6346 18.5768 41.8006C18.6416 41.9208 18.8906 41.9179 18.9106 41.9099C18.8747 41.9308 18.7183 42.0381 18.7362 42.2012C18.7552 42.3791 18.9803 42.5292 18.9684 42.6574C18.9604 42.7568 18.8747 42.8701 18.8398 42.9198C18.8398 42.9198 18.9594 43.0063 18.9604 43.0073C18.9953 42.9586 19.0809 42.8393 19.1746 42.8055C19.2951 42.7618 19.5243 42.9328 19.7086 42.897C19.8252 42.8761 19.9078 42.6793 19.9049 42.6365C19.9128 42.6773 19.9666 42.8791 20.1181 42.9039C20.2964 42.9328 20.5186 42.7518 20.6381 42.8015C20.7308 42.8403 20.8105 42.9566 20.8473 43.0053C20.8473 43.0053 20.9659 42.9188 20.9669 42.9178C20.932 42.8691 20.8453 42.7518 20.8414 42.6514C20.8364 42.5232 21.0745 42.3612 21.0994 42.1743C21.1183 42.0401 20.934 41.9258 20.9131 41.9189C20.928 41.9258 21.1373 41.9218 21.2189 41.7787C21.3086 41.6246 21.215 41.3721 21.2996 41.2737C21.3654 41.1992 21.5009 41.1584 21.5577 41.1376H21.5617Z" fill="#EF373F"/>
<path d="M30.2119 41.5765C30.2119 41.7395 30.0794 41.8717 29.9151 41.8717C29.7507 41.8717 29.6182 41.7395 29.6182 41.5765C29.6182 41.4134 29.7527 41.2822 29.9151 41.2822C30.0774 41.2822 30.2119 41.4134 30.2119 41.5765Z" fill="#EF373F"/>
<path d="M30.7824 41.7043C30.7117 41.7928 30.5413 41.7272 30.4985 41.7182L30.4845 41.7699L30.4636 41.8206C30.5055 41.8375 30.6718 41.8693 30.6798 41.9806C30.6888 42.1546 30.4437 42.3236 30.4517 42.3166C30.4606 42.3096 30.2265 42.4886 30.0631 42.4269C29.9595 42.3862 29.9734 42.2162 29.9695 42.1715L29.9137 42.1745L29.8559 42.1715C29.8509 42.2152 29.8658 42.3792 29.7612 42.42C29.5978 42.4816 29.3677 42.3037 29.3767 42.3096C29.3866 42.3166 29.1406 42.1595 29.1495 41.9856C29.1565 41.8733 29.3179 41.8305 29.3577 41.8136L29.3418 41.7659L29.3259 41.7103C29.283 41.7202 29.1107 41.7928 29.0389 41.7053C28.9293 41.5731 29.024 41.2868 29.022 41.2977C29.018 41.3077 29.1137 41.0154 29.283 40.9717C29.3916 40.9429 29.4763 41.084 29.5052 41.1178L29.547 41.082L29.5968 41.0492C29.5719 41.0105 29.4643 40.8862 29.5261 40.7928C29.6198 40.6476 29.9226 40.6496 29.9127 40.6496C29.9007 40.6496 30.2006 40.6476 30.2952 40.7928C30.357 40.8872 30.2484 41.0115 30.2245 41.0492L30.2763 41.08L30.3201 41.1218C30.35 41.088 30.4347 40.9468 30.5433 40.9747C30.7117 41.0204 30.8013 41.3067 30.7984 41.2977C30.7954 41.2858 30.891 41.5711 30.7814 41.7033M31.5655 41.1307C31.5655 41.1307 31.5207 40.9906 31.5207 40.9886C31.4619 41.0065 31.3234 41.0532 31.2278 41.0264C31.1042 40.9916 31.0165 40.7222 30.8472 40.6397C30.7246 40.5811 30.5443 40.7142 30.5314 40.7331C30.5493 40.6954 30.6101 40.5005 30.4995 40.3793C30.3789 40.2451 30.1089 40.257 30.0432 40.1457C29.9924 40.0602 29.9954 39.919 29.9944 39.8584H29.8449C29.8449 39.919 29.8459 40.0652 29.7911 40.1467C29.7194 40.254 29.4285 40.2451 29.3 40.3822C29.2053 40.4807 29.277 40.7172 29.291 40.7351C29.2591 40.7073 29.1017 40.587 28.9523 40.6546C28.7889 40.7262 28.7151 40.9866 28.5896 41.0164C28.493 41.0383 28.3585 40.9926 28.3017 40.9747C28.3017 40.9747 28.2559 41.1138 28.2559 41.1158C28.3126 41.1357 28.4521 41.1785 28.5129 41.258C28.5936 41.3604 28.496 41.6297 28.5856 41.7938C28.6494 41.915 28.8975 41.912 28.9184 41.9031C28.8825 41.924 28.7261 42.0323 28.744 42.1943C28.762 42.3723 28.9871 42.5224 28.9762 42.6506C28.9672 42.751 28.8825 42.8633 28.8476 42.912C28.8476 42.912 28.9662 42.9995 28.9672 43.0015C29.0031 42.9518 29.0868 42.8335 29.1814 42.7987C29.3029 42.754 29.5301 42.9249 29.7164 42.8921C29.834 42.8693 29.9157 42.6725 29.9147 42.6307C29.9216 42.6715 29.9754 42.8733 30.1259 42.8961C30.3032 42.9259 30.5274 42.744 30.6449 42.7947C30.7386 42.8345 30.8183 42.9498 30.8541 42.9985C30.8541 42.9985 30.9747 42.911 30.9757 42.91C30.9398 42.8623 30.8522 42.745 30.8492 42.6446C30.8432 42.5154 31.0813 42.3544 31.1072 42.1695C31.1261 42.0343 30.9428 41.918 30.9219 41.912C30.9368 41.918 31.1461 41.915 31.2268 41.7719C31.3164 41.6178 31.2228 41.3643 31.3085 41.2679C31.3742 41.1914 31.5097 41.1496 31.5655 41.1307Z" fill="#EF373F"/>
<path d="M20.1856 51.8343C20.1856 51.9973 20.0521 52.1305 19.8887 52.1305C19.7253 52.1305 19.5928 51.9973 19.5928 51.8343C19.5928 51.6713 19.7253 51.5391 19.8887 51.5391C20.0521 51.5391 20.1856 51.6703 20.1856 51.8343Z" fill="#EF373F"/>
<path d="M20.7561 51.9641C20.6853 52.0506 20.5159 51.9859 20.4731 51.975L20.4592 52.0277L20.4392 52.0794C20.4811 52.0953 20.6475 52.1261 20.6534 52.2374C20.6634 52.4114 20.4183 52.5784 20.4273 52.5724C20.4362 52.5645 20.2001 52.7444 20.0387 52.6827C19.9331 52.641 19.9471 52.473 19.9441 52.4263L19.8893 52.4293L19.8305 52.4263C19.8265 52.471 19.8405 52.634 19.7369 52.6758C19.5745 52.7384 19.3433 52.5595 19.3523 52.5655C19.3633 52.5734 19.1162 52.4164 19.1261 52.2434C19.1321 52.1321 19.2935 52.0883 19.3354 52.0704L19.3174 52.0227L19.3015 51.9671C19.2586 51.979 19.0863 52.0515 19.0156 51.9651C18.905 51.8299 19.0006 51.5456 18.9986 51.5555C18.9946 51.5655 19.0903 51.2732 19.2586 51.2295C19.3672 51.2007 19.4529 51.3428 19.4818 51.3756L19.5237 51.3408L19.5735 51.308C19.5496 51.2703 19.442 51.145 19.5017 51.0516C19.5964 50.9054 19.8973 50.9074 19.8863 50.9084C19.8743 50.9084 20.1762 50.9054 20.2709 51.0516C20.3306 51.145 20.222 51.2703 20.1991 51.308L20.2519 51.3388L20.2958 51.3816C20.3247 51.3468 20.4103 51.2046 20.5189 51.2335C20.6873 51.2772 20.777 51.5645 20.773 51.5545C20.769 51.5436 20.8656 51.8289 20.7561 51.9641ZM21.5401 51.3875C21.5401 51.3875 21.4953 51.2464 21.4943 51.2464C21.4375 51.2643 21.299 51.312 21.2024 51.2832C21.0778 51.2474 20.9912 50.979 20.8228 50.8975C20.6983 50.8388 20.5179 50.972 20.506 50.9909C20.5229 50.9532 20.5837 50.7573 20.4741 50.6371C20.3546 50.5039 20.0826 50.5148 20.0168 50.4045C19.965 50.32 19.968 50.1768 19.966 50.1172H19.8176C19.8176 50.1768 19.8195 50.3239 19.7628 50.4065C19.691 50.5128 19.4041 50.5059 19.2746 50.641C19.1789 50.7394 19.2507 50.977 19.2656 50.9959C19.2337 50.9661 19.0763 50.8458 18.9269 50.9124C18.7625 50.985 18.6898 51.2454 18.5632 51.2742C18.4666 51.2961 18.3321 51.2494 18.2753 51.2325C18.2753 51.2325 18.2295 51.3726 18.2295 51.3736C18.2863 51.3935 18.4258 51.4363 18.4875 51.5158C18.5672 51.6162 18.4696 51.8865 18.5593 52.0515C18.625 52.1718 18.8731 52.1698 18.893 52.1619C18.8561 52.1828 18.7007 52.2891 18.7187 52.4521C18.7366 52.6301 18.9618 52.7802 18.9508 52.9084C18.9418 53.0078 18.8561 53.1211 18.8223 53.1698C18.8223 53.1698 18.9418 53.2563 18.9428 53.2573C18.9787 53.2086 19.0634 53.0903 19.157 53.0555C19.2786 53.0108 19.5067 53.1817 19.691 53.147C19.8086 53.1251 19.8903 52.9293 19.8883 52.8875C19.8963 52.9303 19.9511 53.1301 20.1005 53.1539C20.2788 53.1837 20.502 53.0028 20.6206 53.0525C20.7142 53.0913 20.7939 53.2076 20.8298 53.2553C20.8298 53.2553 20.9503 53.1688 20.9503 53.1678C20.9145 53.1191 20.8288 53.0018 20.8248 52.9024C20.8198 52.7732 21.0579 52.6122 21.0828 52.4243C21.1018 52.2901 20.9184 52.1748 20.8975 52.1688C20.9125 52.1748 21.1217 52.1708 21.2044 52.0287C21.292 51.8746 21.2004 51.6201 21.2841 51.5237C21.3498 51.4482 21.4853 51.4064 21.5421 51.3875H21.5401Z" fill="#EF373F"/>
<path d="M14.7448 13.7604C14.8614 13.7176 15.0766 13.7057 15.2749 13.7385C15.4662 13.7693 16.0809 14.0049 15.9962 14.7325C15.9533 15.0954 15.784 15.326 15.784 15.326C15.9533 15.3468 16.4027 15.4761 16.6258 15.156C16.833 14.8588 16.6119 14.6401 16.6119 14.6401C16.7972 14.6689 17.5245 14.9552 17.5245 15.812C17.5265 16.7355 17.0363 17.1033 17.0363 17.1033C17.0702 17.0953 17.3651 17.1033 17.5284 17.1391C17.6928 17.1768 17.8313 17.2723 17.8632 17.3587C17.6619 17.9194 16.4843 18.2792 16.3359 18.7961C16.2622 19.0585 16.3578 19.2424 16.57 19.2633C17.0502 19.31 17.3123 18.7444 17.3332 18.5217C17.4816 18.5217 17.7397 18.7354 17.6719 19.1987C17.5882 19.7802 17.0801 20.2185 16.4206 20.2424C16.0061 20.2563 15.8049 20.0734 15.8049 20.0734C15.7222 20.1579 15.4931 20.3746 15.4592 20.7026C15.4133 21.1469 15.8686 21.2304 15.8686 21.2304C15.8587 21.3905 15.5299 21.804 15.0836 21.804C14.3234 21.804 14.2138 21.2215 14.2138 20.9143C13.906 21.1897 13.908 21.5624 13.7466 21.9521C13.376 22.8527 12.9515 22.8636 12.7981 22.8636C12.8629 22.6936 12.9416 22.5028 12.8997 22.1857C12.838 21.7135 12.5371 21.5783 12.5371 21.5783C12.5162 21.7682 12.4634 22.2592 12.1226 22.7572C11.7391 23.3129 11.3077 23.4908 10.8195 23.4441C10.2397 23.3894 10.0225 22.968 10.0215 22.629C10.0195 22.1509 10.2486 21.9153 10.2546 21.9103C10.2795 22.0575 10.3313 22.2066 10.5435 22.2274C10.7558 22.2493 11.0287 22.0992 11.0845 21.7414C11.1583 21.2752 11.0626 21.2543 11.1094 20.8736C11.1323 20.6798 11.2639 20.4283 11.2639 20.4283C11.2011 20.4183 11.0307 20.3646 10.7558 20.5555C10.4778 20.7493 10.3951 21.0853 10.3951 21.0853C10.2427 20.8567 10.2437 20.3587 10.3821 19.9641C10.5226 19.5615 10.7876 19.3388 10.8942 19.2543C10.6083 19.2016 10.162 18.8517 10.1411 18.4591C10.1042 17.7414 10.7209 17.654 10.7209 17.654C10.7129 17.8975 10.7936 18.14 11.1314 18.1848C11.4561 18.2275 11.7311 17.9919 11.7739 17.5516C11.8268 16.9999 11.6066 16.7136 11.5767 16.2584C11.5627 16.0466 11.6265 15.6759 11.6883 15.4959C11.7839 15.4959 11.8845 15.5019 12.029 15.5456C12.1735 15.5884 12.3199 15.7782 12.3119 15.7643C12.2621 15.5059 12.4813 14.9105 12.6855 14.649C13.3271 13.829 14.1959 14.0646 14.2278 14.0785C13.9628 14.2683 13.7097 15.0049 14.1491 15.1152C14.6671 15.2474 14.9401 14.7305 14.9979 14.5019C15.1254 14.0039 14.7439 13.7614 14.7439 13.7614" fill="#222E65"/>
<path d="M15.6212 17.2587C15.4917 17.377 15.3144 17.5132 15.2287 17.4744C15.144 17.4356 15.163 17.2368 15.1919 17.0837C15.0344 16.9993 14.9298 16.9307 14.9298 16.9307C14.9298 16.9307 14.8272 17.3342 14.7744 17.5132C15.3064 17.8362 15.8135 17.8233 16.0467 17.3183C16.0467 17.3183 15.8175 17.3024 15.6222 17.2587" fill="white"/>
<path d="M13.6673 16.3304C13.6553 16.5024 13.6553 16.728 13.737 16.7708C13.8197 16.8135 13.9651 16.6763 14.0698 16.5591C14.2331 16.6316 14.3507 16.6744 14.3507 16.6744C14.3507 16.6744 14.0957 17.0014 13.9861 17.1525C13.4042 16.9318 13.1024 16.5253 13.3584 16.0322C13.3584 16.0322 13.5118 16.2022 13.6673 16.3304Z" fill="white"/>
<path d="M12.9977 20.0927C12.7725 19.9804 12.6988 19.7011 12.6898 19.542C12.6679 19.1822 12.7596 19.052 12.8442 18.8233C12.63 18.5629 12.6589 18.1176 12.8393 17.883C12.9329 18.2011 13.1421 18.6494 13.445 18.6275C13.6423 18.6146 13.722 18.3691 13.8146 18.2518C13.6961 18.1892 13.6731 18.1832 13.5257 18.0689C13.3802 17.9536 13.3513 17.7955 13.435 17.6275C13.5207 17.4615 13.8037 17.2766 13.9282 17.2607C13.7987 17.3651 13.5895 17.6345 13.701 17.7587C13.8545 17.9188 14.234 18.0967 14.4194 18.1176C14.6525 18.1434 14.7302 17.6454 14.7302 17.6454C14.7481 17.7299 14.8408 18.0132 14.6923 18.2697C14.5957 18.4198 14.4811 18.4734 14.3217 18.4496C14.2261 18.4347 14.1523 18.4168 14.0139 18.3542C13.9621 18.5341 13.8445 18.714 13.9192 18.8512C14.0876 19.0848 14.5499 18.9794 14.8597 18.8611C14.782 19.1444 14.4562 19.4426 14.1195 19.4307C14.0139 19.6086 13.9172 19.8203 13.6502 19.9993C13.5177 20.0877 13.2667 20.2279 12.9997 20.0947" fill="white"/>
<path d="M12.8945 20.2828L13.8201 19.2112C13.8201 19.2112 13.6945 19.1148 13.5451 19.0403C13.3837 18.9598 13.2313 18.916 13.2313 18.916L12.8945 20.2818" fill="#222E65"/>
</svg>
