<svg width="116" height="116" viewBox="0 0 116 116" fill="none" xmlns="http://www.w3.org/2000/svg">
<rect x="67.0625" y="14.5" width="25.375" height="18.125" rx="2" fill="#D3D8EA"/>
<path d="M92.4375 23.5625V29C92.4375 31.002 90.8145 32.625 88.8125 32.625H70.6875C68.6855 32.625 67.0625 31.002 67.0625 29V27.1875L74.3125 19.9375L79.75 25.375L87 18.125L92.4375 23.5625Z" fill="#414267"/>
<path d="M92.4375 25.375V29C92.4375 31.002 90.8145 32.625 88.8125 32.625H70.6875C68.6855 32.625 67.0625 31.002 67.0625 29V27.1875L68.875 25.375H92.4375Z" fill="#414267"/>
<path d="M96.0625 36.25H19.9375C17.9355 36.25 16.3125 34.627 16.3125 32.625C16.3125 30.623 17.9355 29 19.9375 29H96.0625C98.0645 29 99.6875 30.623 99.6875 32.625C99.6875 34.627 98.0645 36.25 96.0625 36.25Z" fill="#414267"/>
<path d="M92.4375 36.25L68.875 68.875V81.5625L47.125 85.1875V68.875L23.5625 36.25H92.4375Z" fill="#D3D8EA"/>
<circle cx="58" cy="101.5" r="14.5" fill="#BAE1FD"/>
<path d="M58 99.688C56.999 99.688 56.1875 98.8765 56.1875 97.8755C56.1875 96.8744 56.999 96.063 58 96.063H61.625C62.626 96.063 63.4375 95.2515 63.4375 94.2505C63.4375 93.2494 62.626 92.438 61.625 92.438H59.8125C59.7542 91.7904 59.3549 91.2232 58.765 90.9499C58.1751 90.6765 57.4841 90.7387 56.9525 91.113C56.4208 91.4872 56.1292 92.1167 56.1875 92.7642C53.7135 93.6619 52.2375 96.2026 52.6832 98.7964C53.1289 101.39 55.3682 103.293 58 103.313C59.001 103.313 59.8125 104.124 59.8125 105.125C59.8125 106.126 59.001 106.938 58 106.938H54.375C53.374 106.938 52.5625 107.749 52.5625 108.75C52.5625 109.751 53.374 110.563 54.375 110.563H56.1875C56.2458 111.211 56.6451 111.778 57.235 112.051C57.8249 112.324 58.5159 112.262 59.0475 111.888C59.5792 111.514 59.8708 110.884 59.8125 110.237C62.2865 109.339 63.7625 106.798 63.3168 104.205C62.8711 101.611 60.6318 99.7084 58 99.688Z" fill="#FDFDFD"/>
<rect x="23.5625" y="7.25" width="25.375" height="18.125" rx="2" fill="#D3D8EA"/>
<path d="M32.625 10.875V21.75L39.875 16.3125L32.625 10.875Z" fill="#414267"/>
<path d="M68.875 1.8125V7.25" stroke="#D3D8EA" stroke-width="2" stroke-linecap="round" stroke-linejoin="round"/>
<path d="M30.8125 3.625V9.0625" stroke="#D3D8EA" stroke-width="2" stroke-linecap="round" stroke-linejoin="round"/>
<path d="M38.0625 1.8125V3.625" stroke="#D3D8EA" stroke-width="2" stroke-linecap="round" stroke-linejoin="round"/>
<path d="M79.75 9.0625V14.5" stroke="#D3D8EA" stroke-width="2" stroke-linecap="round" stroke-linejoin="round"/>
<path d="M90.625 3.625V9.0625" stroke="#D3D8EA" stroke-width="2" stroke-linecap="round" stroke-linejoin="round"/>
<path d="M29 94.25V105.125L25.375 101.5" stroke="#414267" stroke-width="2" stroke-linecap="round" stroke-linejoin="round"/>
<path d="M29 105.125L32.625 101.5" stroke="#414267" stroke-width="2" stroke-linecap="round" stroke-linejoin="round"/>
<path d="M21.75 63.4375V74.3125L18.125 70.6875" stroke="#414267" stroke-width="2" stroke-linecap="round" stroke-linejoin="round"/>
<path d="M21.75 74.3125L25.375 70.6875" stroke="#414267" stroke-width="2" stroke-linecap="round" stroke-linejoin="round"/>
<path d="M94.25 52.5625V63.4375L90.625 59.8125" stroke="#414267" stroke-width="2" stroke-linecap="round" stroke-linejoin="round"/>
<path d="M94.25 63.4375L97.875 59.8125" stroke="#414267" stroke-width="2" stroke-linecap="round" stroke-linejoin="round"/>
<path d="M87 83.375V94.25L83.375 90.625" stroke="#414267" stroke-width="2" stroke-linecap="round" stroke-linejoin="round"/>
<path d="M87 94.25L90.625 90.625" stroke="#414267" stroke-width="2" stroke-linecap="round" stroke-linejoin="round"/>
</svg>
