<svg width="116" height="116" viewBox="0 0 116 116" fill="none" xmlns="http://www.w3.org/2000/svg">
<rect x="58" y="5.4375" width="7.25" height="14.5" fill="#1D1D2C"/>
<path d="M68.875 7.25H54.375C52.373 7.25 50.75 5.62703 50.75 3.625C50.75 1.62297 52.373 0 54.375 0H68.875C70.877 0 72.5 1.62297 72.5 3.625C72.5 5.62703 70.877 7.25 68.875 7.25Z" fill="#414267"/>
<path d="M93.6619 20.085L97.7246 24.1477L89.2787 32.5937L85.2159 28.5309L93.6619 20.085Z" fill="#1D1D2C"/>
<path d="M99.5425 28.5286L89.2838 18.2698C87.8673 16.8534 87.8673 14.5569 89.2838 13.1405C90.7002 11.724 92.9967 11.724 94.4131 13.1405L104.672 23.3992C106.088 24.8156 106.088 27.1121 104.672 28.5286C103.255 29.945 100.959 29.945 99.5425 28.5286Z" fill="#414267"/>
<path d="M108.75 63.4375C108.75 89.4639 87.6514 110.562 61.625 110.562C35.5986 110.562 14.5 89.4639 14.5 63.4375C14.5 37.4111 35.5986 16.3125 61.625 16.3125C74.1233 16.3125 86.1098 21.2774 94.9474 30.1151C103.785 38.9527 108.75 50.9392 108.75 63.4375Z" fill="#414267"/>
<path d="M103.312 63.4375C103.312 86.4609 84.6484 105.125 61.625 105.125C38.6016 105.125 19.9375 86.4609 19.9375 63.4375C19.9375 40.4141 38.6016 21.75 61.625 21.75C84.6484 21.75 103.312 40.4141 103.312 63.4375Z" fill="white"/>
<circle cx="61.625" cy="63.4375" r="30.8125" fill="#F3F3F3"/>
<path d="M94.25 63.4374C94.2333 75.4549 87.6113 86.4903 77.0148 92.1592C66.4184 97.828 53.5634 97.2125 43.557 90.5571C33.5507 83.9016 28.0134 72.284 29.145 60.3199C29.2351 59.3189 30.1196 58.5804 31.1207 58.6705C32.1217 58.7606 32.8601 59.6451 32.77 60.6462C31.7001 71.3117 36.6008 81.6977 45.5133 87.6531C54.4258 93.6084 65.8966 94.1618 75.3411 89.0921C84.7855 84.0224 90.6632 74.1565 90.625 63.4374C90.625 33.4768 50.0613 23.1999 36.0507 49.8074L39.1863 48.9374C40.1573 48.6871 41.1473 49.2714 41.3975 50.2424C41.6478 51.2134 41.0635 52.2034 40.0925 52.4536C37.6455 53.248 35.1516 53.8896 32.625 54.3749C31.7772 54.4017 31.0242 53.837 30.8125 53.0155L29 46.0012C28.7498 45.0302 29.334 44.0402 30.305 43.7899C31.276 43.5396 32.266 44.1239 32.5163 45.0949L33.1325 47.4693C49.8257 18.1249 94.25 30.2868 94.25 63.4374Z" fill="#1D1D2C"/>
<path d="M69.4006 73.7869L60.3381 64.7244C59.595 63.9631 59.8125 65.0144 59.8125 43.5C59.8125 42.499 60.624 41.6875 61.625 41.6875C62.626 41.6875 63.4375 42.499 63.4375 43.5V62.6944L71.9744 71.2131C72.6851 71.9238 72.6851 73.0762 71.9744 73.7869C71.2636 74.4976 70.1113 74.4976 69.4006 73.7869Z" fill="#BAE1FD"/>
<path d="M49.59 103.312C49.0278 105.061 48.2548 106.735 47.2881 108.297C31.895 103.391 20.0882 90.9407 16.0044 75.3093C17.6298 74.4362 19.3511 73.755 21.1338 73.2793C24.6317 87.6231 35.4556 99.0468 49.59 103.312Z" fill="#1D1D2C"/>
<path d="M49.9524 89.9727C42.8157 86.8344 37.2432 80.9548 34.4918 73.6602C42.0737 76.1311 47.8913 82.2693 49.9524 89.9727Z" fill="#D9D9D9"/>
</svg>
