<svg width="36" height="36" viewBox="0 0 36 36" fill="none" xmlns="http://www.w3.org/2000/svg">
<path d="M18 0.999998C8.61116 0.999998 0.999998 8.61116 0.999999 18C0.999999 27.3888 8.61116 35 18 35C27.3888 35 35 27.3888 35 18C35 8.61116 27.3888 0.999997 18 0.999998Z" stroke="#3CBCC3" stroke-width="2"/>
<path d="M25.7071 18.7071C26.0976 18.3166 26.0976 17.6834 25.7071 17.2929L19.3431 10.9289C18.9526 10.5384 18.3195 10.5384 17.9289 10.9289C17.5384 11.3195 17.5384 11.9526 17.9289 12.3431L23.5858 18L17.9289 23.6569C17.5384 24.0474 17.5384 24.6805 17.9289 25.0711C18.3195 25.4616 18.9526 25.4616 19.3431 25.0711L25.7071 18.7071ZM11 17C10.4477 17 10 17.4477 10 18C10 18.5523 10.4477 19 11 19L11 17ZM25 17L11 17L11 19L25 19L25 17Z" fill="#3CBCC3"/>
</svg>
