<svg width="242" height="220" viewBox="0 0 242 220" fill="none" xmlns="http://www.w3.org/2000/svg">
<path d="M174.218 60.9702C173.987 60.9702 173.766 60.8786 173.603 60.7154C173.44 60.5523 173.348 60.3311 173.348 60.1004V59.2306C173.348 58.9999 173.44 58.7786 173.603 58.6155C173.766 58.4524 173.987 58.3607 174.218 58.3607C174.448 58.3607 174.67 58.4524 174.833 58.6155C174.996 58.7786 175.088 58.9999 175.088 59.2306V60.1004C175.088 60.3311 174.996 60.5523 174.833 60.7154C174.67 60.8786 174.448 60.9702 174.218 60.9702ZM174.218 55.7513C173.987 55.7513 173.766 55.6596 173.603 55.4965C173.44 55.3334 173.348 55.1122 173.348 54.8815V50.5324C173.348 50.3017 173.44 50.0804 173.603 49.9173C173.766 49.7542 173.987 49.6626 174.218 49.6626C174.448 49.6626 174.67 49.7542 174.833 49.9173C174.996 50.0804 175.088 50.3017 175.088 50.5324V54.8815C175.088 55.1122 174.996 55.3334 174.833 55.4965C174.67 55.6596 174.448 55.7513 174.218 55.7513ZM134.05 52.8722C133.819 52.8722 133.598 52.7805 133.434 52.6174C133.271 52.4543 133.18 52.2331 133.18 52.0024V47.6533C133.18 47.4226 133.271 47.2013 133.434 47.0382C133.598 46.8751 133.819 46.7835 134.05 46.7835C134.28 46.7835 134.501 46.8751 134.665 47.0382C134.828 47.2013 134.919 47.4226 134.919 47.6533V52.0024C134.908 52.2254 134.812 52.4357 134.65 52.5895C134.488 52.7433 134.273 52.829 134.05 52.8287V52.8722ZM174.218 47.0531C173.987 47.0531 173.766 46.9615 173.603 46.7983C173.44 46.6352 173.348 46.414 173.348 46.1833V41.8342C173.348 41.6035 173.44 41.3823 173.603 41.2191C173.766 41.056 173.987 40.9644 174.218 40.9644C174.448 40.9644 174.67 41.056 174.833 41.2191C174.996 41.3823 175.088 41.6035 175.088 41.8342V46.1833C175.088 46.414 174.996 46.6352 174.833 46.7983C174.67 46.9615 174.448 47.0531 174.218 47.0531ZM134.05 44.174C133.819 44.174 133.598 44.0824 133.434 43.9192C133.271 43.7561 133.18 43.5349 133.18 43.3042V38.9551C133.18 38.7244 133.271 38.5032 133.434 38.34C133.598 38.1769 133.819 38.0853 134.05 38.0853C134.28 38.0853 134.501 38.1769 134.665 38.34C134.828 38.5032 134.919 38.7244 134.919 38.9551V43.3042C134.908 43.5273 134.812 43.7375 134.65 43.8913C134.488 44.0451 134.273 44.1308 134.05 44.1305V44.174ZM174.218 38.3549C173.987 38.3549 173.766 38.2633 173.603 38.1002C173.44 37.937 173.348 37.7158 173.348 37.4851V34.9365C173.348 34.3538 173.348 33.7623 173.27 33.1969C173.249 32.9662 173.321 32.7367 173.469 32.5589C173.617 32.3811 173.83 32.2696 174.061 32.2488C174.292 32.228 174.521 32.2998 174.699 32.4482C174.877 32.5966 174.988 32.8096 175.009 33.0403C175.07 33.684 175.096 34.3277 175.096 34.9626V37.4851C175.096 37.6001 175.073 37.7139 175.029 37.82C174.985 37.9261 174.92 38.0224 174.838 38.1032C174.757 38.1841 174.66 38.248 174.553 38.2912C174.447 38.3344 174.333 38.3561 174.218 38.3549ZM134.058 35.4758C133.828 35.4758 133.606 35.3842 133.443 35.2211C133.28 35.0579 133.188 34.8367 133.188 34.606C133.215 33.091 133.404 31.5833 133.754 30.109C133.781 29.9948 133.83 29.887 133.898 29.7917C133.967 29.6965 134.053 29.6156 134.153 29.5539C134.253 29.4921 134.364 29.4505 134.48 29.4316C134.595 29.4127 134.714 29.4168 134.828 29.4436C134.942 29.4705 135.05 29.5195 135.145 29.5881C135.241 29.6566 135.321 29.7432 135.383 29.8429C135.445 29.9427 135.487 30.0536 135.505 30.1694C135.524 30.2852 135.52 30.4036 135.493 30.5179C135.172 31.8665 134.997 33.2459 134.972 34.6321C134.954 34.8582 134.848 35.0685 134.678 35.218C134.507 35.3674 134.285 35.4444 134.058 35.4323V35.4758ZM173.278 29.7524C173.088 29.7617 172.899 29.708 172.742 29.5996C172.585 29.4911 172.467 29.3339 172.409 29.1522C172.004 27.8141 171.452 26.5248 170.765 25.3076C170.661 25.1089 170.637 24.8776 170.7 24.6621C170.762 24.4466 170.906 24.2637 171.1 24.1514C171.294 24.0391 171.524 24.0062 171.742 24.0596C171.96 24.113 172.149 24.2485 172.269 24.4378C173.026 25.7493 173.641 27.1371 174.105 28.5782C174.14 28.6872 174.153 28.8022 174.144 28.9164C174.134 29.0306 174.102 29.1418 174.05 29.2437C173.997 29.3455 173.925 29.436 173.837 29.5098C173.75 29.5837 173.649 29.6395 173.539 29.6741C173.455 29.6989 173.367 29.7106 173.278 29.7089V29.7524ZM136.067 27.0473C135.935 27.0478 135.804 27.0181 135.685 26.9603C135.582 26.9102 135.49 26.8403 135.414 26.7545C135.338 26.6688 135.28 26.5689 135.243 26.4606C135.206 26.3523 135.19 26.2377 135.197 26.1235C135.204 26.0092 135.234 25.8975 135.285 25.7947C135.948 24.4337 136.756 23.1477 137.694 21.9588C137.837 21.7777 138.046 21.6609 138.275 21.634C138.505 21.6071 138.735 21.6723 138.916 21.8153C139.097 21.9583 139.214 22.1675 139.241 22.3966C139.268 22.6258 139.203 22.8563 139.06 23.0374C138.197 24.1123 137.456 25.2791 136.85 26.5167C136.785 26.6712 136.676 26.8035 136.537 26.8977C136.398 26.9918 136.235 27.0438 136.067 27.0473ZM168.947 22.2546C168.827 22.2542 168.709 22.2293 168.6 22.1814C168.491 22.1335 168.393 22.0637 168.312 21.9762C167.383 20.9472 166.344 20.0227 165.215 19.2189C165.121 19.153 165.041 19.0691 164.979 18.9721C164.918 18.875 164.876 18.7668 164.857 18.6535C164.838 18.5403 164.841 18.4244 164.866 18.3124C164.892 18.2004 164.94 18.0947 165.006 18.0012C165.139 17.8136 165.341 17.6864 165.568 17.6473C165.794 17.6082 166.027 17.6604 166.215 17.7924C167.436 18.6701 168.558 19.6761 169.564 20.7933C169.726 20.9563 169.817 21.1767 169.817 21.4065C169.817 21.6363 169.726 21.8568 169.564 22.0197C169.396 22.173 169.174 22.2542 168.947 22.2459V22.2546ZM141.417 20.2714C141.288 20.2705 141.162 20.2412 141.046 20.1856C140.93 20.1299 140.828 20.0493 140.747 19.9496C140.674 19.8617 140.619 19.7602 140.585 19.6509C140.551 19.5417 140.539 19.4268 140.549 19.3129C140.56 19.1989 140.593 19.0882 140.646 18.987C140.699 18.8858 140.772 18.7961 140.86 18.7231C142.028 17.7647 143.297 16.9364 144.644 16.2528C144.746 16.1968 144.858 16.1618 144.974 16.15C145.09 16.1381 145.207 16.1496 145.318 16.1838C145.429 16.218 145.533 16.2741 145.622 16.3489C145.711 16.4237 145.784 16.5157 145.837 16.6193C145.89 16.7229 145.922 16.8362 145.93 16.9522C145.939 17.0683 145.924 17.1849 145.886 17.2951C145.849 17.4053 145.789 17.5069 145.712 17.5938C145.635 17.6807 145.541 17.7512 145.435 17.8011C144.198 18.4314 143.031 19.1925 141.956 20.0713C141.804 20.1972 141.614 20.2678 141.417 20.2714ZM161.892 17.2792C161.776 17.2813 161.66 17.2576 161.553 17.2096C160.275 16.6754 158.942 16.2817 157.578 16.0354C157.347 15.995 157.142 15.8646 157.008 15.673C156.873 15.4813 156.82 15.244 156.861 15.0133C156.901 14.7826 157.031 14.5774 157.223 14.4429C157.415 14.3083 157.652 14.2554 157.883 14.2957C159.374 14.5678 160.832 14.9994 162.232 15.5831C162.416 15.6616 162.568 15.8013 162.661 15.9787C162.754 16.156 162.783 16.3601 162.743 16.5565C162.703 16.7528 162.597 16.9293 162.442 17.0563C162.287 17.1832 162.093 17.2527 161.892 17.2531V17.2792ZM149.106 16.3572C148.875 16.386 148.643 16.3221 148.459 16.1793C148.276 16.0366 148.156 15.8268 148.128 15.5961C148.099 15.3654 148.163 15.1327 148.305 14.9492C148.448 14.7657 148.658 14.6464 148.889 14.6176C150.354 14.247 151.857 14.0398 153.368 14C153.599 14 153.82 14.0916 153.983 14.2548C154.146 14.4179 154.238 14.6391 154.238 14.8698C154.238 15.1005 154.146 15.3218 153.983 15.4849C153.82 15.648 153.599 15.7396 153.368 15.7396C151.98 15.7919 150.601 15.9902 149.254 16.3311C149.205 16.3441 149.156 16.3528 149.106 16.3572Z" fill="#414267"/>
<path d="M167.285 58.0469L174.218 70.0591L181.159 58.0469H167.285Z" fill="#414267"/>
<path d="M162.779 41.5123V128.372C162.779 128.781 162.698 129.185 162.542 129.563C162.385 129.94 162.155 130.283 161.866 130.571C161.577 130.86 161.234 131.088 160.856 131.244C160.478 131.399 160.073 131.479 159.665 131.478H38.7166C37.893 131.478 37.1032 131.15 36.5208 130.568C35.9385 129.986 35.6113 129.196 35.6113 128.372V41.521C35.6113 40.4682 36.0289 39.4585 36.7725 38.7132C37.5161 37.968 38.525 37.5482 39.5777 37.5459H158.804C159.325 37.5448 159.842 37.6465 160.324 37.8453C160.806 38.0441 161.245 38.3361 161.614 38.7046C161.983 39.073 162.276 39.5106 162.476 39.9924C162.676 40.4742 162.779 40.9907 162.779 41.5123Z" fill="white"/>
<path d="M162.779 51.2194H35.6113V41.5123C35.6113 40.4603 36.0292 39.4515 36.7731 38.7076C37.5169 37.9638 38.5258 37.5459 39.5777 37.5459H158.804C159.856 37.5459 160.866 37.9635 161.611 38.7071C162.357 39.4507 162.776 40.4595 162.779 41.5123V51.2194Z" fill="#1D1D2C"/>
<path d="M57.4873 44.3824C57.4873 43.9678 57.6102 43.5625 57.8406 43.2178C58.0709 42.873 58.3983 42.6044 58.7814 42.4457C59.1644 42.287 59.5859 42.2455 59.9925 42.3264C60.3992 42.4073 60.7727 42.6069 61.0658 42.9001C61.359 43.1933 61.5587 43.5668 61.6395 43.9734C61.7204 44.3801 61.6789 44.8016 61.5203 45.1846C61.3616 45.5676 61.0929 45.895 60.7482 46.1254C60.4035 46.3557 59.9982 46.4787 59.5836 46.4787C59.0283 46.4764 58.4964 46.2548 58.1038 45.8621C57.7112 45.4695 57.4896 44.9377 57.4873 44.3824Z" fill="#D3D8EA"/>
<path d="M49.4072 44.3832C49.4055 43.9661 49.5277 43.5579 49.7584 43.2105C49.989 42.863 50.3177 42.5918 50.7026 42.4314C51.0876 42.271 51.5116 42.2286 51.9207 42.3096C52.3298 42.3905 52.7057 42.5912 53.0006 42.8861C53.2955 43.181 53.4962 43.5568 53.5771 43.966C53.6581 44.3751 53.6156 44.7991 53.4553 45.184C53.2949 45.569 53.0237 45.8977 52.6762 46.1283C52.3287 46.3589 51.9206 46.4812 51.5035 46.4794C50.9482 46.4771 50.4164 46.2556 50.0238 45.8629C49.6311 45.4703 49.4095 44.9384 49.4072 44.3832Z" fill="#BAE1FD"/>
<path d="M41.3262 44.3832C41.3245 43.9669 41.4462 43.5594 41.6761 43.2123C41.906 42.8652 42.2336 42.594 42.6176 42.4331C43.0015 42.2722 43.4246 42.2288 43.8333 42.3083C44.2419 42.3878 44.6178 42.5868 44.9134 42.8799C45.209 43.1731 45.411 43.5473 45.4939 43.9553C45.5768 44.3633 45.5369 44.7867 45.3792 45.172C45.2215 45.5573 44.953 45.8871 44.6078 46.1199C44.2626 46.3526 43.8562 46.4777 43.4398 46.4794C43.1634 46.4806 42.8895 46.4273 42.6337 46.3225C42.3778 46.2178 42.1451 46.0637 41.9489 45.8691C41.7526 45.6744 41.5966 45.443 41.4897 45.188C41.3829 44.9331 41.3273 44.6596 41.3262 44.3832Z" fill="white"/>
<path d="M152.776 42.8427L153.811 41.8076L155.299 43.2863L156.786 41.8076L157.821 42.8427L156.334 44.3301L157.821 45.8175L156.786 46.8526L155.299 45.3652L153.811 46.8526L152.776 45.8175L154.255 44.3301L152.776 42.8427Z" fill="white"/>
<path d="M78.4502 56.1777L78.5546 57.8652H106.667L106.563 56.1777H78.4502Z" fill="#D3D8EA"/>
<path d="M92.2373 61.2393L92.3504 62.9267H138.068L137.964 61.2393H92.2373Z" fill="#D3D8EA"/>
<path d="M78.5195 61.2393L78.6239 62.9267H90.2621L90.149 61.2393H78.5195Z" fill="#414267"/>
<path d="M78.3896 66.3018L78.494 67.9892H101.77L101.605 66.3018H78.3896Z" fill="#D3D8EA"/>
<path d="M103.223 66.3018L103.388 67.9892H126.186L126.09 66.3018H103.223Z" fill="#414267"/>
<path d="M58.036 66.3018L58.0273 67.9892H69.4655L69.4742 66.3018H58.036Z" fill="#D3D8EA"/>
<path d="M44.1357 61.2393L44.127 62.9267H62.7324V61.2393H44.1357Z" fill="#D3D8EA"/>
<path d="M64.8632 61.2393L64.8545 62.9267H69.5863L69.595 61.2393H64.8632Z" fill="#D3D8EA"/>
<path d="M60.3408 56.1777L60.3582 57.8652H69.7957L69.8131 56.1777H60.3408Z" fill="#BAE1FD"/>
<path d="M49.1552 56.1777L49.1465 57.8652H58.4448L58.4274 56.1777H49.1552Z" fill="#BAE1FD"/>
<path d="M57.8964 85.2471L57.8877 86.9345H69.3171L69.3345 85.2471H57.8964Z" fill="#D3D8EA"/>
<path d="M43.9969 80.1924L43.9795 81.8711H62.5849L62.5936 80.1924H43.9969Z" fill="#D3D8EA"/>
<path d="M64.7245 80.1924L64.7158 81.8711H69.4476L69.4563 80.1924H64.7245Z" fill="#D3D8EA"/>
<path d="M57.7138 95.9111L57.7051 97.5899H69.1345L69.1519 95.9111H57.7138Z" fill="#D3D8EA"/>
<path d="M43.8144 90.8477L43.8057 92.5264H62.4024L62.4111 90.8477H43.8144Z" fill="#BAE1FD"/>
<path d="M64.5419 90.8477L64.5332 92.5264H69.265L69.2737 90.8477H64.5419Z" fill="#BAE1FD"/>
<path d="M60.2012 75.1309L60.2186 76.8096H69.6561L69.6648 75.1309H60.2012Z" fill="#BAE1FD"/>
<path d="M49.0155 75.1309L49.0068 76.8096H58.3052L58.2878 75.1309H49.0155Z" fill="#414267"/>
<path d="M109.45 56.1777L109.555 57.8652H118.087L117.983 56.1777H109.45Z" fill="#414267"/>
<path d="M140.912 61.2393L141.008 62.9267H154.664L154.56 61.2393H140.912Z" fill="#D3D8EA"/>
<path d="M128.7 66.3018L128.796 67.9892H142.643L142.539 66.3018H128.7Z" fill="#D3D8EA"/>
<path d="M121.811 56.1777L122.011 57.8652H146.122L145.922 56.1777H121.811Z" fill="#D3D8EA"/>
<path d="M78.3115 75.1309L78.4072 76.8096H106.52L106.424 75.1309H78.3115Z" fill="#D3D8EA"/>
<path d="M92.0977 80.1924L92.202 81.8711H137.928L137.824 80.1924H92.0977Z" fill="#D3D8EA"/>
<path d="M78.3809 80.1924L78.4852 81.8711H90.1234L90.0103 80.1924H78.3809Z" fill="#D3D8EA"/>
<path d="M78.25 85.2471L78.3544 86.9345H101.631L101.457 85.2471H78.25Z" fill="#D3D8EA"/>
<path d="M103.083 85.2471L103.248 86.9345H126.046L125.951 85.2471H103.083Z" fill="#D3D8EA"/>
<path d="M109.312 75.1309L109.416 76.8096H117.949L117.844 75.1309H109.312Z" fill="#D3D8EA"/>
<path d="M140.772 80.1924L140.868 81.8711H154.524L154.42 80.1924H140.772Z" fill="#D3D8EA"/>
<path d="M128.561 85.2471L128.656 86.9345H142.504L142.399 85.2471H128.561Z" fill="#414267"/>
<path d="M92.4805 90.8477L92.5848 92.5264H138.303L138.207 90.8477H92.4805Z" fill="#D3D8EA"/>
<path d="M78.7637 90.8477L78.8681 92.5264H90.4975L90.3931 90.8477H78.7637Z" fill="#D3D8EA"/>
<path d="M78.6328 95.9111L78.7372 97.5899H102.005L101.84 95.9111H78.6328Z" fill="#D3D8EA"/>
<path d="M103.467 95.9111L103.632 97.5899H126.43L126.326 95.9111H103.467Z" fill="#414267"/>
<path d="M141.146 90.8477L141.251 92.5264H154.907L154.803 90.8477H141.146Z" fill="#414267"/>
<path d="M128.935 95.9111L129.039 97.5899H142.886L142.782 95.9111H128.935Z" fill="#D3D8EA"/>
<path d="M121.663 75.1309L121.863 76.8096H145.975L145.774 75.1309H121.663Z" fill="#414267"/>
<path d="M57.5223 113.342L57.5049 115.021H68.943L68.9604 113.342H57.5223Z" fill="#D3D8EA"/>
<path d="M43.6142 108.279L43.6055 109.958H62.2109L62.2196 108.279H43.6142Z" fill="#D3D8EA"/>
<path d="M64.3505 108.279L64.3418 109.958H69.0736L69.0823 108.279H64.3505Z" fill="#D3D8EA"/>
<path d="M57.3397 123.997L57.3223 125.676H68.7604L68.7778 123.997H57.3397Z" fill="#D3D8EA"/>
<path d="M43.4402 118.935L43.4229 120.622H62.0283L62.037 118.935H43.4402Z" fill="#BAE1FD"/>
<path d="M64.1679 118.935L64.1592 120.622H68.891L68.8997 118.935H64.1679Z" fill="#414267"/>
<path d="M59.8271 103.218L59.8445 104.897H69.2821L69.2908 103.218H59.8271Z" fill="#BAE1FD"/>
<path d="M48.6414 103.218L48.624 104.897H57.9311L57.9137 103.218H48.6414Z" fill="#414267"/>
<path d="M77.9287 103.218L78.0331 104.897H106.146L106.05 103.218H77.9287Z" fill="#D3D8EA"/>
<path d="M91.7236 108.279L91.828 109.958H137.546L137.45 108.279H91.7236Z" fill="#D3D8EA"/>
<path d="M78.0068 108.279L78.1112 109.958H89.7407L89.6363 108.279H78.0068Z" fill="#D3D8EA"/>
<path d="M77.876 113.342L77.9804 115.021H101.248L101.083 113.342H77.876Z" fill="#D3D8EA"/>
<path d="M102.71 113.342L102.875 115.021H125.673L125.569 113.342H102.71Z" fill="#D3D8EA"/>
<path d="M108.938 103.218L109.042 104.897H117.575L117.47 103.218H108.938Z" fill="#D3D8EA"/>
<path d="M140.39 108.279L140.494 109.958H154.15L154.046 108.279H140.39Z" fill="#D3D8EA"/>
<path d="M128.178 113.342L128.282 115.021H142.13L142.025 113.342H128.178Z" fill="#414267"/>
<path d="M92.0977 118.935L92.2107 120.622H137.928L137.833 118.935H92.0977Z" fill="#D3D8EA"/>
<path d="M78.3896 118.935L78.4853 120.622H90.1235L90.0191 118.935H78.3896Z" fill="#D3D8EA"/>
<path d="M78.2588 123.997L78.3632 125.676H101.631L101.466 123.997H78.2588Z" fill="#D3D8EA"/>
<path d="M103.092 123.997L103.257 125.676H126.055L125.951 123.997H103.092Z" fill="#414267"/>
<path d="M140.772 118.935L140.877 120.622H154.533L154.429 118.935H140.772Z" fill="#414267"/>
<path d="M128.561 123.997L128.665 125.676H142.504L142.408 123.997H128.561Z" fill="#D3D8EA"/>
<path d="M121.289 103.218L121.489 104.897H145.6L145.4 103.218H121.289Z" fill="#414267"/>
<path d="M204.431 79.8816L138.203 80.0088L138.43 198.33L204.658 198.203L204.431 79.8816Z" fill="#BAE1FD"/>
<path d="M204.252 80.054L204.479 198.019L138.598 198.158L138.372 80.1845L204.252 80.054ZM204.6 79.7061L138.024 79.8365L138.251 198.506L204.826 198.375L204.6 79.7061Z" fill="#1D1D2C"/>
<path d="M140.32 75.296L178.81 75.5221V80.5149H159.317L145.4 80.5932C143.152 80.5978 140.998 81.4945 139.411 83.0863C137.824 84.6782 136.934 86.8349 136.937 89.0826L137.119 185.754C137.121 186.868 137.343 187.969 137.772 188.997C138.2 190.025 138.827 190.958 139.616 191.743C140.405 192.528 141.341 193.15 142.371 193.573C143.401 193.996 144.504 194.212 145.617 194.209L179.001 194.278V204.777L140.503 205.134C139.39 205.137 138.287 204.921 137.258 204.498C136.229 204.075 135.293 203.453 134.504 202.667C133.716 201.882 133.09 200.949 132.663 199.921C132.235 198.894 132.014 197.792 132.013 196.679L131.796 83.7506C131.8 82.6358 132.025 81.5327 132.455 80.5045C132.886 79.4762 133.515 78.5429 134.307 77.7578C135.099 76.9728 136.037 76.3513 137.069 75.9289C138.1 75.5064 139.205 75.2914 140.32 75.296Z" fill="#1D1D2C"/>
<path d="M135.319 83.7247V196.653C135.319 198.803 136.136 200.872 137.604 202.441C139.072 204.011 141.082 204.964 143.226 205.108H143.8H202.948C203.669 205.109 204.383 204.968 205.05 204.692C205.716 204.417 206.321 204.013 206.831 203.503C207.341 202.993 207.745 202.387 208.021 201.721C208.296 201.055 208.437 200.34 208.436 199.619V80.7238C208.436 79.2659 207.857 77.8676 206.826 76.8367C205.795 75.8057 204.397 75.2266 202.939 75.2266H143.791H143.2C141.054 75.3809 139.047 76.3441 137.584 77.9216C136.121 79.4992 135.312 81.5733 135.319 83.7247ZM140.417 86.0906C140.417 84.6326 140.996 83.2344 142.027 82.2035C143.058 81.1725 144.456 80.5933 145.914 80.5933H197.885C198.606 80.5933 199.32 80.7353 199.986 81.0111C200.652 81.287 201.257 81.6912 201.766 82.2009C202.276 82.7106 202.68 83.3156 202.956 83.9815C203.232 84.6474 203.374 85.3611 203.374 86.0819V188.72C203.374 189.441 203.232 190.155 202.956 190.821C202.68 191.487 202.276 192.092 201.766 192.601C201.257 193.111 200.652 193.515 199.986 193.791C199.32 194.067 198.606 194.209 197.885 194.209H145.931C144.475 194.209 143.078 193.631 142.047 192.602C141.016 191.573 140.436 190.177 140.434 188.72L140.417 86.0906Z" fill="#1D1D2C"/>
<path d="M164.971 202.22H179.089C179.77 202.204 180.418 201.922 180.895 201.434C181.371 200.946 181.637 200.292 181.637 199.61C181.637 199.274 181.571 198.941 181.442 198.631C181.312 198.32 181.123 198.039 180.885 197.802C180.646 197.565 180.363 197.378 180.052 197.251C179.741 197.124 179.407 197.059 179.071 197.062H164.963C164.626 197.062 164.293 197.128 163.982 197.257C163.671 197.386 163.389 197.575 163.151 197.814C162.914 198.052 162.726 198.335 162.598 198.646C162.47 198.958 162.404 199.291 162.406 199.628C162.401 199.967 162.464 200.304 162.591 200.619C162.718 200.934 162.906 201.22 163.145 201.461C163.384 201.703 163.669 201.894 163.982 202.024C164.296 202.154 164.632 202.221 164.971 202.22Z" fill="#1D1D2C"/>
<path d="M140.416 87.9956H203.399V82.6549C203.399 82.3675 203.343 82.0829 203.232 81.8174C203.122 81.552 202.961 81.3109 202.757 81.1081C202.553 80.9052 202.312 80.7446 202.046 80.6354C201.78 80.5262 201.495 80.4706 201.208 80.4717H142.599C142.312 80.4706 142.027 80.5262 141.761 80.6354C141.495 80.7446 141.253 80.9052 141.05 81.1081C140.846 81.3109 140.685 81.552 140.574 81.8174C140.464 82.0829 140.407 82.3675 140.407 82.6549L140.416 87.9956Z" fill="#1D1D2C"/>
<path d="M199.86 83.3857L199.286 82.8203L198.468 83.6379L197.65 82.8203L197.076 83.3857L197.894 84.2033L197.076 85.021L197.65 85.595L198.468 84.7774L199.286 85.595L199.86 85.021L199.042 84.2033L199.86 83.3857Z" fill="white"/>
<path d="M152.611 84.2291C152.611 84.0003 152.679 83.7767 152.806 83.5864C152.933 83.3962 153.114 83.2479 153.325 83.1603C153.537 83.0728 153.769 83.0499 153.994 83.0945C154.218 83.1391 154.424 83.2493 154.586 83.4111C154.748 83.5729 154.858 83.779 154.903 84.0034C154.947 84.2278 154.925 84.4604 154.837 84.6718C154.749 84.8832 154.601 85.0639 154.411 85.191C154.221 85.3181 153.997 85.386 153.768 85.386C153.461 85.386 153.167 85.2641 152.95 85.0471C152.733 84.8302 152.611 84.5359 152.611 84.2291Z" fill="white"/>
<path d="M148.166 84.2291C148.166 84.0003 148.234 83.7767 148.361 83.5864C148.488 83.3962 148.669 83.2479 148.88 83.1603C149.092 83.0728 149.324 83.0499 149.549 83.0945C149.773 83.1391 149.979 83.2493 150.141 83.4111C150.303 83.5729 150.413 83.779 150.458 84.0034C150.502 84.2278 150.479 84.4604 150.392 84.6718C150.304 84.8832 150.156 85.0639 149.966 85.191C149.775 85.3181 149.552 85.386 149.323 85.386C149.171 85.3871 149.02 85.358 148.879 85.3003C148.738 85.2426 148.61 85.1574 148.502 85.0497C148.395 84.9421 148.309 84.8141 148.252 84.6732C148.194 84.5323 148.165 84.3814 148.166 84.2291Z" fill="#D3D8EA"/>
<path d="M143.722 84.2291C143.722 84.0003 143.79 83.7767 143.917 83.5864C144.044 83.3962 144.224 83.2479 144.436 83.1603C144.647 83.0728 144.88 83.0499 145.104 83.0945C145.329 83.1391 145.535 83.2493 145.697 83.4111C145.858 83.5729 145.969 83.779 146.013 84.0034C146.058 84.2278 146.035 84.4604 145.947 84.6718C145.86 84.8832 145.712 85.0639 145.521 85.191C145.331 85.3181 145.107 85.386 144.879 85.386C144.726 85.3871 144.575 85.358 144.434 85.3003C144.294 85.2426 144.166 85.1574 144.058 85.0497C143.95 84.9421 143.865 84.8141 143.807 84.6732C143.75 84.5323 143.721 84.3814 143.722 84.2291Z" fill="#414267"/>
<path d="M203.4 188.711C203.4 190.168 202.822 191.564 201.793 192.595C200.764 193.626 199.368 194.206 197.912 194.208H158.117C156.659 194.208 155.261 193.629 154.23 192.598C153.199 191.567 152.62 190.169 152.62 188.711V86.0725C152.619 85.3515 152.76 84.6372 153.036 83.9708C153.311 83.3044 153.715 82.6989 154.225 82.189C154.735 81.6791 155.341 81.2749 156.007 80.9994C156.673 80.724 157.388 80.5828 158.109 80.584H197.912C199.368 80.5863 200.764 81.1665 201.793 82.1972C202.822 83.2279 203.4 84.6248 203.4 86.0812V188.711Z" fill="url(#paint0_linear_2117_16280)"/>
<path d="M174.461 86.9688L174.504 88.3605H186.125L186.082 86.9688H174.461Z" fill="#D3D8EA"/>
<path d="M180.158 91.1699L180.202 92.5616H199.103L199.059 91.1699H180.158Z" fill="#D3D8EA"/>
<path d="M174.487 91.1699L174.531 92.5616H179.341L179.297 91.1699H174.487Z" fill="#414267"/>
<path d="M174.435 95.3633L174.478 96.7637H184.098L184.029 95.3633H174.435Z" fill="#D3D8EA"/>
<path d="M184.698 95.3633L184.768 96.7637H194.197L194.153 95.3633H184.698Z" fill="#414267"/>
<path d="M164.145 95.3633V96.7637H169.946L169.955 95.3633H164.145Z" fill="#D3D8EA"/>
<path d="M157.091 91.1699L157.082 92.5616H166.528L166.537 91.1699H157.091Z" fill="#D3D8EA"/>
<path d="M167.615 91.1699L167.606 92.5616H170.016V91.1699H167.615Z" fill="#D3D8EA"/>
<path d="M165.319 86.9688L165.328 88.3605H170.121L170.129 86.9688H165.319Z" fill="#BAE1FD"/>
<path d="M159.639 86.9688L159.63 88.3605H164.353L164.344 86.9688H159.639Z" fill="#414267"/>
<path d="M164.075 111.081L164.066 112.481H169.877L169.885 111.081H164.075Z" fill="#D3D8EA"/>
<path d="M157.02 106.888L157.012 108.279H166.458V106.888H157.02Z" fill="#D3D8EA"/>
<path d="M167.546 106.888L167.537 108.279H169.938L169.947 106.888H167.546Z" fill="#D3D8EA"/>
<path d="M163.979 119.927V121.318H169.781L169.79 119.927H163.979Z" fill="#D3D8EA"/>
<path d="M156.926 115.726L156.917 117.126H166.363L166.372 115.726H156.926Z" fill="#BAE1FD"/>
<path d="M167.45 115.726V117.126H169.851V115.726H167.45Z" fill="#BAE1FD"/>
<path d="M165.249 102.687L165.258 104.078H170.05V102.687H165.249Z" fill="#414267"/>
<path d="M159.569 102.687L159.561 104.078H164.284L164.275 102.687H159.569Z" fill="#414267"/>
<path d="M187.273 86.9688L187.317 88.3605H190.848L190.805 86.9688H187.273Z" fill="#414267"/>
<path d="M195.232 95.3633L195.276 96.7637H200.999L200.956 95.3633H195.232Z" fill="#D3D8EA"/>
<path d="M192.388 86.9688L192.466 88.3605H202.434L202.347 86.9688H192.388Z" fill="#D3D8EA"/>
<path d="M174.399 102.687L174.443 104.078H186.064L186.02 102.687H174.399Z" fill="#D3D8EA"/>
<path d="M180.098 106.888L180.141 108.279H199.051L199.008 106.888H180.098Z" fill="#D3D8EA"/>
<path d="M174.426 106.888L174.469 108.279H179.279L179.236 106.888H174.426Z" fill="#D3D8EA"/>
<path d="M174.374 111.081L174.418 112.481H184.038L183.968 111.081H174.374Z" fill="#D3D8EA"/>
<path d="M184.638 111.081L184.707 112.481H194.136L194.093 111.081H184.638Z" fill="#D3D8EA"/>
<path d="M187.221 102.687L187.256 104.078H190.787L190.743 102.687H187.221Z" fill="#D3D8EA"/>
<path d="M195.171 111.081L195.214 112.481H200.938L200.894 111.081H195.171Z" fill="#414267"/>
<path d="M180.254 115.726L180.297 117.126H199.207L199.164 115.726H180.254Z" fill="#D3D8EA"/>
<path d="M174.592 115.726L174.627 117.126H179.445L179.393 115.726H174.592Z" fill="#D3D8EA"/>
<path d="M174.53 119.927L174.574 121.318H184.194L184.133 119.927H174.53Z" fill="#D3D8EA"/>
<path d="M184.803 119.927L184.864 121.318H194.292L194.249 119.927H184.803Z" fill="#414267"/>
<path d="M195.328 119.927L195.372 121.318H201.095L201.052 119.927H195.328Z" fill="#D3D8EA"/>
<path d="M192.327 102.687L192.405 104.078H202.374L202.295 102.687H192.327Z" fill="#414267"/>
<path d="M163.884 134.392L163.875 135.783H169.685L169.694 134.392H163.884Z" fill="#D3D8EA"/>
<path d="M156.83 130.19L156.821 131.582H166.268V130.19H156.83Z" fill="#D3D8EA"/>
<path d="M167.354 130.19L167.346 131.582H169.746L169.755 130.19H167.354Z" fill="#D3D8EA"/>
<path d="M163.797 143.229L163.788 144.63H169.59L169.598 143.229H163.797Z" fill="#D3D8EA"/>
<path d="M156.734 139.028V140.429H166.172L166.181 139.028H156.734Z" fill="#BAE1FD"/>
<path d="M167.259 139.028V140.429H169.659L169.668 139.028H167.259Z" fill="#BAE1FD"/>
<path d="M165.058 125.989L165.066 127.381H169.859V125.989H165.058Z" fill="#414267"/>
<path d="M159.378 125.989L159.369 127.381H164.092L164.084 125.989H159.378Z" fill="#414267"/>
<path d="M174.243 125.989L174.287 127.381H185.907L185.864 125.989H174.243Z" fill="#D3D8EA"/>
<path d="M179.94 130.19L179.993 131.582H198.894L198.85 130.19H179.94Z" fill="#D3D8EA"/>
<path d="M174.278 130.19L174.313 131.582H179.132L179.08 130.19H174.278Z" fill="#D3D8EA"/>
<path d="M174.217 134.392L174.26 135.783H183.88L183.811 134.392H174.217Z" fill="#D3D8EA"/>
<path d="M184.49 134.392L184.56 135.783H193.98L193.936 134.392H184.49Z" fill="#D3D8EA"/>
<path d="M187.064 125.989L187.108 127.381H190.631L190.587 125.989H187.064Z" fill="#D3D8EA"/>
<path d="M195.015 134.392L195.058 135.783H200.782L200.738 134.392H195.015Z" fill="#414267"/>
<path d="M180.105 139.028L180.149 140.429H199.05L199.007 139.028H180.105Z" fill="#D3D8EA"/>
<path d="M174.435 139.028L174.478 140.429H179.288L179.236 139.028H174.435Z" fill="#D3D8EA"/>
<path d="M174.383 143.229L174.418 144.63H184.046L183.977 143.229H174.383Z" fill="#D3D8EA"/>
<path d="M184.646 143.229L184.716 144.63H194.136L194.101 143.229H184.646Z" fill="#414267"/>
<path d="M195.171 143.229L195.214 144.63H200.938L200.894 143.229H195.171Z" fill="#D3D8EA"/>
<path d="M192.17 125.989L192.257 127.381H202.225L202.138 125.989H192.17Z" fill="#414267"/>
<path d="M164.075 160.06L164.066 161.46H169.877L169.885 160.06H164.075Z" fill="#D3D8EA"/>
<path d="M157.02 155.858L157.012 157.259H166.458V155.858H157.02Z" fill="#D3D8EA"/>
<path d="M167.546 155.858L167.537 157.259H169.938L169.947 155.858H167.546Z" fill="#D3D8EA"/>
<path d="M163.979 168.906V170.298H169.781L169.79 168.906H163.979Z" fill="#D3D8EA"/>
<path d="M156.926 164.704L156.917 166.096H166.363L166.372 164.704H156.926Z" fill="#414267"/>
<path d="M167.45 164.704V166.096H169.851V164.704H167.45Z" fill="#414267"/>
<path d="M165.249 151.666L165.258 153.058H170.05V151.666H165.249Z" fill="#414267"/>
<path d="M159.569 151.666L159.561 153.058H164.284L164.275 151.666H159.569Z" fill="#414267"/>
<path d="M174.399 151.666L174.443 153.058H186.064L186.02 151.666H174.399Z" fill="#D3D8EA"/>
<path d="M180.098 155.858L180.141 157.259H199.051L199.008 155.858H180.098Z" fill="#D3D8EA"/>
<path d="M174.426 155.858L174.469 157.259H179.279L179.236 155.858H174.426Z" fill="#D3D8EA"/>
<path d="M174.374 160.06L174.418 161.46H184.038L183.968 160.06H174.374Z" fill="#D3D8EA"/>
<path d="M184.638 160.06L184.707 161.46H194.136L194.093 160.06H184.638Z" fill="#D3D8EA"/>
<path d="M187.221 151.666L187.256 153.058H190.787L190.743 151.666H187.221Z" fill="#D3D8EA"/>
<path d="M195.171 160.06L195.214 161.46H200.938L200.894 160.06H195.171Z" fill="#414267"/>
<path d="M180.254 164.704L180.297 166.096H199.207L199.164 164.704H180.254Z" fill="#D3D8EA"/>
<path d="M174.592 164.704L174.627 166.096H179.445L179.393 164.704H174.592Z" fill="#D3D8EA"/>
<path d="M174.53 168.906L174.574 170.298H184.194L184.133 168.906H174.53Z" fill="#D3D8EA"/>
<path d="M184.803 168.906L184.864 170.298H194.292L194.249 168.906H184.803Z" fill="#414267"/>
<path d="M195.328 168.906L195.372 170.298H201.095L201.052 168.906H195.328Z" fill="#D3D8EA"/>
<path d="M192.327 151.666L192.405 153.058H202.374L202.295 151.666H192.327Z" fill="#414267"/>
<path d="M163.884 183.363L163.875 184.764H169.685L169.694 183.363H163.884Z" fill="#D3D8EA"/>
<path d="M156.83 179.162L156.821 180.563H166.268V179.162H156.83Z" fill="#D3D8EA"/>
<path d="M167.354 179.162L167.346 180.563H169.746L169.755 179.162H167.354Z" fill="#D3D8EA"/>
<path d="M156.734 188.008V189.4H166.172L166.181 188.008H156.734Z" fill="#414267"/>
<path d="M167.259 188.008V189.4H169.659L169.668 188.008H167.259Z" fill="#BAE1FD"/>
<path d="M165.058 174.969L165.066 176.36H169.859V174.969H165.058Z" fill="#414267"/>
<path d="M159.378 174.969L159.369 176.36H164.092L164.084 174.969H159.378Z" fill="#414267"/>
<path d="M174.243 174.969L174.287 176.36H185.907L185.864 174.969H174.243Z" fill="#D3D8EA"/>
<path d="M179.94 179.162L179.993 180.563H198.894L198.85 179.162H179.94Z" fill="#D3D8EA"/>
<path d="M174.278 179.162L174.313 180.563H179.132L179.08 179.162H174.278Z" fill="#D3D8EA"/>
<path d="M174.217 183.363L174.26 184.764H183.88L183.811 183.363H174.217Z" fill="#D3D8EA"/>
<path d="M184.49 183.363L184.56 184.764H193.98L193.936 183.363H184.49Z" fill="#D3D8EA"/>
<path d="M187.064 174.969L187.108 176.36H190.631L190.587 174.969H187.064Z" fill="#D3D8EA"/>
<path d="M195.015 183.363L195.058 184.764H200.782L200.738 183.363H195.015Z" fill="#414267"/>
<path d="M180.105 188.008L180.149 189.4H199.05L199.007 188.008H180.105Z" fill="#D3D8EA"/>
<path d="M174.435 188.008L174.478 189.4H179.288L179.236 188.008H174.435Z" fill="#D3D8EA"/>
<defs>
<linearGradient id="paint0_linear_2117_16280" x1="154.516" y1="149.578" x2="258.729" y2="95.5449" gradientUnits="userSpaceOnUse">
<stop stop-color="white"/>
<stop offset="1" stop-color="#D3DBEB"/>
</linearGradient>
</defs>
</svg>
