<svg width="242" height="220" viewBox="0 0 242 220" fill="none" xmlns="http://www.w3.org/2000/svg">
<path d="M174.218 61.73C173.987 61.73 173.766 61.6383 173.603 61.4752C173.44 61.3121 173.348 61.0908 173.348 60.8601V59.9903C173.348 59.7596 173.44 59.5384 173.603 59.3753C173.766 59.2121 173.987 59.1205 174.218 59.1205C174.448 59.1205 174.67 59.2121 174.833 59.3753C174.996 59.5384 175.088 59.7596 175.088 59.9903V60.8601C175.088 61.0908 174.996 61.3121 174.833 61.4752C174.67 61.6383 174.448 61.73 174.218 61.73ZM174.218 56.5111C173.987 56.5111 173.766 56.4194 173.603 56.2563C173.44 56.0932 173.348 55.8719 173.348 55.6412V51.2921C173.348 51.0615 173.44 50.8402 173.603 50.6771C173.766 50.514 173.987 50.4223 174.218 50.4223C174.448 50.4223 174.67 50.514 174.833 50.6771C174.996 50.8402 175.088 51.0615 175.088 51.2921V55.6412C175.088 55.8719 174.996 56.0932 174.833 56.2563C174.67 56.4194 174.448 56.5111 174.218 56.5111ZM134.05 53.632C133.819 53.632 133.598 53.5403 133.434 53.3772C133.271 53.2141 133.18 52.9928 133.18 52.7621V48.413C133.18 48.1824 133.271 47.9611 133.434 47.798C133.598 47.6349 133.819 47.5432 134.05 47.5432C134.28 47.5432 134.501 47.6349 134.665 47.798C134.828 47.9611 134.919 48.1824 134.919 48.413V52.7621C134.908 52.9852 134.812 53.1954 134.65 53.3493C134.488 53.5031 134.273 53.5887 134.05 53.5885V53.632ZM174.218 47.8129C173.987 47.8129 173.766 47.7212 173.603 47.5581C173.44 47.395 173.348 47.1737 173.348 46.943V42.594C173.348 42.3633 173.44 42.142 173.603 41.9789C173.766 41.8158 173.987 41.7241 174.218 41.7241C174.448 41.7241 174.67 41.8158 174.833 41.9789C174.996 42.142 175.088 42.3633 175.088 42.594V46.943C175.088 47.1737 174.996 47.395 174.833 47.5581C174.67 47.7212 174.448 47.8129 174.218 47.8129ZM134.05 44.9338C133.819 44.9338 133.598 44.8421 133.434 44.679C133.271 44.5159 133.18 44.2946 133.18 44.0639V39.7149C133.18 39.4842 133.271 39.2629 133.434 39.0998C133.598 38.9367 133.819 38.845 134.05 38.845C134.28 38.845 134.501 38.9367 134.665 39.0998C134.828 39.2629 134.919 39.4842 134.919 39.7149V44.0639C134.908 44.287 134.812 44.4972 134.65 44.6511C134.488 44.8049 134.273 44.8906 134.05 44.8903V44.9338ZM174.218 39.1147C173.987 39.1147 173.766 39.023 173.603 38.8599C173.44 38.6968 173.348 38.4756 173.348 38.2449V35.6963C173.348 35.1135 173.348 34.522 173.27 33.9567C173.249 33.726 173.321 33.4965 173.469 33.3187C173.617 33.1409 173.83 33.0293 174.061 33.0086C174.292 32.9878 174.521 33.0595 174.699 33.208C174.877 33.3564 174.988 33.5694 175.009 33.8001C175.07 34.4438 175.096 35.0874 175.096 35.7224V38.2449C175.096 38.3598 175.073 38.4736 175.029 38.5798C174.985 38.6859 174.92 38.7821 174.838 38.863C174.757 38.9439 174.66 39.0078 174.553 39.051C174.447 39.0942 174.333 39.1158 174.218 39.1147ZM134.058 36.2356C133.828 36.2356 133.606 36.1439 133.443 35.9808C133.28 35.8177 133.188 35.5965 133.188 35.3658C133.215 33.8508 133.404 32.3431 133.754 30.8688C133.781 30.7546 133.83 30.6468 133.898 30.5515C133.967 30.4562 134.053 30.3754 134.153 30.3136C134.253 30.2518 134.364 30.2103 134.48 30.1914C134.595 30.1725 134.714 30.1765 134.828 30.2034C134.942 30.2302 135.05 30.2793 135.145 30.3478C135.241 30.4163 135.321 30.5029 135.383 30.6027C135.445 30.7024 135.487 30.8134 135.505 30.9292C135.524 31.045 135.52 31.1634 135.493 31.2776C135.172 32.6262 134.997 34.0056 134.972 35.3919C134.954 35.618 134.848 35.8282 134.678 35.9777C134.507 36.1272 134.285 36.2041 134.058 36.1921V36.2356ZM173.278 30.5122C173.088 30.5215 172.899 30.4678 172.742 30.3593C172.585 30.2509 172.467 30.0937 172.409 29.912C172.004 28.5739 171.452 27.2846 170.765 26.0674C170.661 25.8686 170.637 25.6373 170.7 25.4219C170.762 25.2064 170.906 25.0234 171.1 24.9112C171.294 24.7989 171.524 24.766 171.742 24.8194C171.96 24.8728 172.149 25.0083 172.269 25.1976C173.026 26.509 173.641 27.8969 174.105 29.3379C174.14 29.447 174.153 29.5619 174.144 29.6761C174.134 29.7904 174.102 29.9016 174.05 30.0034C173.997 30.1053 173.925 30.1957 173.837 30.2696C173.75 30.3435 173.649 30.3993 173.539 30.4339C173.455 30.4587 173.367 30.4704 173.278 30.4687V30.5122ZM136.067 27.807C135.935 27.8076 135.804 27.7778 135.685 27.7201C135.582 27.67 135.49 27.6 135.414 27.5143C135.338 27.4285 135.28 27.3286 135.243 27.2204C135.206 27.1121 135.19 26.9975 135.197 26.8833C135.204 26.769 135.234 26.6573 135.285 26.5545C135.948 25.1935 136.756 23.9075 137.694 22.7186C137.837 22.5375 138.046 22.4207 138.275 22.3937C138.505 22.3668 138.735 22.4321 138.916 22.5751C139.097 22.7181 139.214 22.9272 139.241 23.1564C139.268 23.3856 139.203 23.6161 139.06 23.7972C138.197 24.8721 137.456 26.0389 136.85 27.2765C136.785 27.431 136.676 27.5633 136.537 27.6574C136.398 27.7516 136.235 27.8035 136.067 27.807ZM168.947 23.0143C168.827 23.014 168.709 22.9891 168.6 22.9412C168.491 22.8933 168.393 22.8235 168.312 22.736C167.383 21.707 166.344 20.7824 165.215 19.9787C165.121 19.9128 165.041 19.8289 164.979 19.7318C164.918 19.6348 164.876 19.5265 164.857 19.4133C164.838 19.3001 164.841 19.1841 164.866 19.0722C164.892 18.9602 164.94 18.8544 165.006 18.7609C165.139 18.5734 165.341 18.4462 165.568 18.4071C165.794 18.3679 166.027 18.4201 166.215 18.5522C167.436 19.4298 168.558 20.4359 169.564 21.553C169.726 21.716 169.817 21.9365 169.817 22.1663C169.817 22.3961 169.726 22.6165 169.564 22.7795C169.396 22.9328 169.174 23.014 168.947 23.0056V23.0143ZM141.417 21.0312C141.288 21.0303 141.162 21.001 141.046 20.9454C140.93 20.8897 140.828 20.8091 140.747 20.7093C140.674 20.6214 140.619 20.52 140.585 20.4107C140.551 20.3014 140.539 20.1866 140.549 20.0726C140.56 19.9587 140.593 19.848 140.646 19.7468C140.699 19.6456 140.772 19.5559 140.86 19.4829C142.028 18.5245 143.297 17.6962 144.644 17.0126C144.746 16.9566 144.858 16.9216 144.974 16.9097C145.09 16.8979 145.207 16.9094 145.318 16.9435C145.429 16.9777 145.533 17.0339 145.622 17.1087C145.711 17.1835 145.784 17.2754 145.837 17.3791C145.89 17.4827 145.922 17.5959 145.93 17.712C145.939 17.8281 145.924 17.9447 145.886 18.0549C145.849 18.1651 145.789 18.2667 145.712 18.3536C145.635 18.4405 145.541 18.511 145.435 18.5609C144.198 19.1912 143.031 19.9523 141.956 20.8311C141.804 20.957 141.614 21.0276 141.417 21.0312ZM161.892 18.039C161.776 18.0411 161.66 18.0173 161.553 17.9694C160.275 17.4352 158.942 17.0415 157.578 16.7951C157.347 16.7548 157.142 16.6244 157.008 16.4327C156.873 16.2411 156.82 16.0038 156.861 15.7731C156.901 15.5424 157.031 15.3372 157.223 15.2026C157.415 15.0681 157.652 15.0151 157.883 15.0555C159.374 15.3276 160.832 15.7592 162.232 16.3428C162.416 16.4214 162.568 16.5611 162.661 16.7384C162.754 16.9158 162.783 17.1199 162.743 17.3162C162.703 17.5126 162.597 17.6891 162.442 17.816C162.287 17.943 162.093 18.0125 161.892 18.0129V18.039ZM149.106 17.117C148.875 17.1458 148.643 17.0818 148.459 16.9391C148.276 16.7964 148.156 16.5866 148.128 16.3559C148.099 16.1252 148.163 15.8925 148.305 15.709C148.448 15.5255 148.658 15.4062 148.889 15.3773C150.354 15.0067 151.857 14.7996 153.368 14.7598C153.599 14.7598 153.82 14.8514 153.983 15.0145C154.146 15.1777 154.238 15.3989 154.238 15.6296C154.238 15.8603 154.146 16.0815 153.983 16.2446C153.82 16.4078 153.599 16.4994 153.368 16.4994C151.98 16.5517 150.601 16.75 149.254 17.0909C149.205 17.1038 149.156 17.1126 149.106 17.117Z" fill="#3CBCC3"/>
<path d="M167.285 58.8066L174.218 70.8188L181.159 58.8066H167.285Z" fill="#3CBCC3"/>
<path d="M162.779 42.272V129.132C162.779 129.541 162.698 129.945 162.542 130.322C162.385 130.7 162.155 131.042 161.866 131.331C161.577 131.619 161.234 131.848 160.856 132.003C160.478 132.159 160.073 132.239 159.665 132.237H38.7166C37.893 132.237 37.1032 131.91 36.5208 131.328C35.9385 130.746 35.6113 129.956 35.6113 129.132V42.2807C35.6113 41.228 36.0289 40.2182 36.7725 39.473C37.5161 38.7278 38.525 38.308 39.5777 38.3057H158.804C159.325 38.3045 159.842 38.4063 160.324 38.6051C160.806 38.8039 161.245 39.0959 161.614 39.4643C161.983 39.8327 162.276 40.2704 162.476 40.7522C162.676 41.234 162.779 41.7504 162.779 42.272Z" fill="white"/>
<path d="M162.779 51.9792H35.6113V42.272C35.6113 41.2201 36.0292 40.2112 36.7731 39.4674C37.5169 38.7235 38.5258 38.3057 39.5777 38.3057H158.804C159.856 38.3057 160.866 38.7233 161.611 39.4669C162.357 40.2104 162.776 41.2193 162.779 42.272V51.9792Z" fill="#075085"/>
<path d="M57.4873 45.1422C57.4873 44.7276 57.6102 44.3223 57.8406 43.9775C58.0709 43.6328 58.3983 43.3641 58.7814 43.2055C59.1644 43.0468 59.5859 43.0053 59.9925 43.0862C60.3992 43.1671 60.7727 43.3667 61.0658 43.6599C61.359 43.953 61.5587 44.3266 61.6395 44.7332C61.7204 45.1398 61.6789 45.5613 61.5203 45.9444C61.3616 46.3274 61.0929 46.6548 60.7482 46.8851C60.4035 47.1155 59.9982 47.2384 59.5836 47.2384C59.0283 47.2361 58.4964 47.0145 58.1038 46.6219C57.7112 46.2293 57.4896 45.6974 57.4873 45.1422Z" fill="#D3D8EA"/>
<path d="M49.4072 45.1429C49.4055 44.7259 49.5277 44.3177 49.7584 43.9702C49.989 43.6227 50.3177 43.3516 50.7026 43.1912C51.0876 43.0308 51.5116 42.9884 51.9207 43.0693C52.3298 43.1503 52.7057 43.3509 53.0006 43.6458C53.2955 43.9407 53.4962 44.3166 53.5771 44.7257C53.6581 45.1349 53.6156 45.5588 53.4553 45.9438C53.2949 46.3288 53.0237 46.6574 52.6762 46.8881C52.3287 47.1187 51.9206 47.2409 51.5035 47.2392C50.9482 47.2369 50.4164 47.0153 50.0238 46.6227C49.6311 46.2301 49.4095 45.6982 49.4072 45.1429Z" fill="#F4D593"/>
<path d="M41.3262 45.1429C41.3245 44.7266 41.4462 44.3191 41.6761 43.972C41.906 43.6249 42.2336 43.3538 42.6176 43.1929C43.0015 43.032 43.4246 42.9885 43.8333 43.0681C44.2419 43.1476 44.6178 43.3465 44.9134 43.6397C45.209 43.9329 45.411 44.3071 45.4939 44.7151C45.5768 45.1231 45.5369 45.5465 45.3792 45.9317C45.2215 46.317 44.953 46.6469 44.6078 46.8796C44.2626 47.1123 43.8562 47.2375 43.4398 47.2392C43.1634 47.2403 42.8895 47.187 42.6337 47.0823C42.3778 46.9776 42.1451 46.8235 41.9489 46.6288C41.7526 46.4342 41.5966 46.2028 41.4897 45.9478C41.3829 45.6929 41.3273 45.4194 41.3262 45.1429Z" fill="white"/>
<path d="M152.776 43.6025L153.811 42.5674L155.299 44.0461L156.786 42.5674L157.821 43.6025L156.334 45.0899L157.821 46.5772L156.786 47.6123L155.299 46.1249L153.811 47.6123L152.776 46.5772L154.255 45.0899L152.776 43.6025Z" fill="white"/>
<path d="M78.4502 56.9375L78.5546 58.6249H106.667L106.563 56.9375H78.4502Z" fill="#D3D8EA"/>
<path d="M92.2373 61.999L92.3504 63.6865H138.068L137.964 61.999H92.2373Z" fill="#D3D8EA"/>
<path d="M78.5195 61.999L78.6239 63.6865H90.2621L90.149 61.999H78.5195Z" fill="#3CBCC3"/>
<path d="M78.3896 67.0615L78.494 68.749H101.77L101.605 67.0615H78.3896Z" fill="#D3D8EA"/>
<path d="M103.223 67.0615L103.388 68.749H126.186L126.09 67.0615H103.223Z" fill="#3CBCC3"/>
<path d="M58.036 67.0615L58.0273 68.749H69.4655L69.4742 67.0615H58.036Z" fill="#D3D8EA"/>
<path d="M44.1357 61.999L44.127 63.6865H62.7324V61.999H44.1357Z" fill="#D3D8EA"/>
<path d="M64.8632 61.999L64.8545 63.6865H69.5863L69.595 61.999H64.8632Z" fill="#D3D8EA"/>
<path d="M60.3408 56.9375L60.3582 58.6249H69.7957L69.8131 56.9375H60.3408Z" fill="#F4D593"/>
<path d="M49.1552 56.9375L49.1465 58.6249H58.4448L58.4274 56.9375H49.1552Z" fill="#F4D593"/>
<path d="M57.8964 86.0068L57.8877 87.6943H69.3171L69.3345 86.0068H57.8964Z" fill="#D3D8EA"/>
<path d="M43.9969 80.9521L43.9795 82.6309H62.5849L62.5936 80.9521H43.9969Z" fill="#D3D8EA"/>
<path d="M64.7245 80.9521L64.7158 82.6309H69.4476L69.4563 80.9521H64.7245Z" fill="#D3D8EA"/>
<path d="M57.7138 96.6709L57.7051 98.3496H69.1345L69.1519 96.6709H57.7138Z" fill="#D3D8EA"/>
<path d="M43.8144 91.6074L43.8057 93.2862H62.4024L62.4111 91.6074H43.8144Z" fill="#EEBA5B"/>
<path d="M64.5419 91.6074L64.5332 93.2862H69.265L69.2737 91.6074H64.5419Z" fill="#EEBA5B"/>
<path d="M60.2012 75.8906L60.2186 77.5694H69.6561L69.6648 75.8906H60.2012Z" fill="#EEBA5B"/>
<path d="M49.0155 75.8906L49.0068 77.5694H58.3052L58.2878 75.8906H49.0155Z" fill="#3CBCC3"/>
<path d="M109.45 56.9375L109.555 58.6249H118.087L117.983 56.9375H109.45Z" fill="#3CBCC3"/>
<path d="M140.912 61.999L141.008 63.6865H154.664L154.56 61.999H140.912Z" fill="#D3D8EA"/>
<path d="M128.7 67.0615L128.796 68.749H142.643L142.539 67.0615H128.7Z" fill="#D3D8EA"/>
<path d="M121.811 56.9375L122.011 58.6249H146.122L145.922 56.9375H121.811Z" fill="#D3D8EA"/>
<path d="M78.3115 75.8906L78.4072 77.5694H106.52L106.424 75.8906H78.3115Z" fill="#D3D8EA"/>
<path d="M92.0977 80.9521L92.202 82.6309H137.928L137.824 80.9521H92.0977Z" fill="#D3D8EA"/>
<path d="M78.3809 80.9521L78.4852 82.6309H90.1234L90.0103 80.9521H78.3809Z" fill="#D3D8EA"/>
<path d="M78.25 86.0068L78.3544 87.6943H101.631L101.457 86.0068H78.25Z" fill="#D3D8EA"/>
<path d="M103.083 86.0068L103.248 87.6943H126.046L125.951 86.0068H103.083Z" fill="#D3D8EA"/>
<path d="M109.312 75.8906L109.416 77.5694H117.949L117.844 75.8906H109.312Z" fill="#D3D8EA"/>
<path d="M140.772 80.9521L140.868 82.6309H154.524L154.42 80.9521H140.772Z" fill="#D3D8EA"/>
<path d="M128.561 86.0068L128.656 87.6943H142.504L142.399 86.0068H128.561Z" fill="#3CBCC3"/>
<path d="M92.4805 91.6074L92.5848 93.2862H138.303L138.207 91.6074H92.4805Z" fill="#D3D8EA"/>
<path d="M78.7637 91.6074L78.8681 93.2862H90.4975L90.3931 91.6074H78.7637Z" fill="#D3D8EA"/>
<path d="M78.6328 96.6709L78.7372 98.3496H102.005L101.84 96.6709H78.6328Z" fill="#D3D8EA"/>
<path d="M103.467 96.6709L103.632 98.3496H126.43L126.326 96.6709H103.467Z" fill="#3CBCC3"/>
<path d="M141.146 91.6074L141.251 93.2862H154.907L154.803 91.6074H141.146Z" fill="#3CBCC3"/>
<path d="M128.935 96.6709L129.039 98.3496H142.886L142.782 96.6709H128.935Z" fill="#D3D8EA"/>
<path d="M121.663 75.8906L121.863 77.5694H145.975L145.774 75.8906H121.663Z" fill="#3CBCC3"/>
<path d="M57.5223 114.102L57.5049 115.78H68.943L68.9604 114.102H57.5223Z" fill="#D3D8EA"/>
<path d="M43.6142 109.039L43.6055 110.718H62.2109L62.2196 109.039H43.6142Z" fill="#D3D8EA"/>
<path d="M64.3505 109.039L64.3418 110.718H69.0736L69.0823 109.039H64.3505Z" fill="#D3D8EA"/>
<path d="M57.3397 124.757L57.3223 126.436H68.7604L68.7778 124.757H57.3397Z" fill="#D3D8EA"/>
<path d="M43.4402 119.694L43.4229 121.382H62.0283L62.037 119.694H43.4402Z" fill="#EEBA5B"/>
<path d="M64.1679 119.694L64.1592 121.382H68.891L68.8997 119.694H64.1679Z" fill="#3CBCC3"/>
<path d="M59.8271 103.978L59.8445 105.656H69.2821L69.2908 103.978H59.8271Z" fill="#EEBA5B"/>
<path d="M48.6414 103.978L48.624 105.656H57.9311L57.9137 103.978H48.6414Z" fill="#3CBCC3"/>
<path d="M77.9287 103.978L78.0331 105.656H106.146L106.05 103.978H77.9287Z" fill="#D3D8EA"/>
<path d="M91.7236 109.039L91.828 110.718H137.546L137.45 109.039H91.7236Z" fill="#D3D8EA"/>
<path d="M78.0068 109.039L78.1112 110.718H89.7407L89.6363 109.039H78.0068Z" fill="#D3D8EA"/>
<path d="M77.876 114.102L77.9804 115.78H101.248L101.083 114.102H77.876Z" fill="#D3D8EA"/>
<path d="M102.71 114.102L102.875 115.78H125.673L125.569 114.102H102.71Z" fill="#D3D8EA"/>
<path d="M108.938 103.978L109.042 105.656H117.575L117.47 103.978H108.938Z" fill="#D3D8EA"/>
<path d="M140.39 109.039L140.494 110.718H154.15L154.046 109.039H140.39Z" fill="#D3D8EA"/>
<path d="M128.178 114.102L128.282 115.78H142.13L142.025 114.102H128.178Z" fill="#3CBCC3"/>
<path d="M92.0977 119.694L92.2107 121.382H137.928L137.833 119.694H92.0977Z" fill="#D3D8EA"/>
<path d="M78.3896 119.694L78.4853 121.382H90.1235L90.0191 119.694H78.3896Z" fill="#D3D8EA"/>
<path d="M78.2588 124.757L78.3632 126.436H101.631L101.466 124.757H78.2588Z" fill="#D3D8EA"/>
<path d="M103.092 124.757L103.257 126.436H126.055L125.951 124.757H103.092Z" fill="#3CBCC3"/>
<path d="M140.772 119.694L140.877 121.382H154.533L154.429 119.694H140.772Z" fill="#3CBCC3"/>
<path d="M128.561 124.757L128.665 126.436H142.504L142.408 124.757H128.561Z" fill="#D3D8EA"/>
<path d="M121.289 103.978L121.489 105.656H145.6L145.4 103.978H121.289Z" fill="#3CBCC3"/>
<path d="M204.431 80.6414L138.203 80.7686L138.43 199.09L204.658 198.963L204.431 80.6414Z" fill="#D3D8EA"/>
<path d="M204.252 80.8137L204.479 198.779L138.598 198.918L138.372 80.9442L204.252 80.8137ZM204.6 80.4658L138.024 80.5963L138.251 199.266L204.826 199.135L204.6 80.4658Z" fill="#3CBCC3"/>
<path d="M140.32 76.0557L178.81 76.2819V81.2746H159.317L145.4 81.3529C143.152 81.3575 140.998 82.2543 139.411 83.8461C137.824 85.4379 136.934 87.5946 136.937 89.8424L137.119 186.514C137.121 187.627 137.343 188.729 137.772 189.757C138.2 190.784 138.827 191.717 139.616 192.503C140.405 193.288 141.341 193.91 142.371 194.333C143.401 194.756 144.504 194.972 145.617 194.969L179.001 195.038V205.537L140.503 205.894C139.39 205.897 138.287 205.681 137.258 205.258C136.229 204.834 135.293 204.212 134.504 203.427C133.716 202.642 133.09 201.709 132.663 200.681C132.235 199.654 132.014 198.552 132.013 197.439L131.796 84.5104C131.8 83.3955 132.025 82.2925 132.455 81.2642C132.886 80.236 133.515 79.3027 134.307 78.5176C135.099 77.7325 136.037 77.111 137.069 76.6886C138.1 76.2662 139.205 76.0512 140.32 76.0557Z" fill="#3CBCC3"/>
<path d="M135.319 84.4845V197.413C135.319 199.562 136.136 201.631 137.604 203.201C139.072 204.771 141.082 205.724 143.226 205.868H143.8H202.948C203.669 205.869 204.383 205.728 205.05 205.452C205.716 205.177 206.321 204.772 206.831 204.263C207.341 203.753 207.745 203.147 208.021 202.481C208.296 201.814 208.437 201.1 208.436 200.379V81.4836C208.436 80.0256 207.857 78.6274 206.826 77.5964C205.795 76.5655 204.397 75.9863 202.939 75.9863H143.791H143.2C141.054 76.1406 139.047 77.1039 137.584 78.6814C136.121 80.2589 135.312 82.333 135.319 84.4845ZM140.417 86.8504C140.417 85.3924 140.996 83.9942 142.027 82.9632C143.058 81.9323 144.456 81.3531 145.914 81.3531H197.885C198.606 81.3531 199.32 81.4951 199.986 81.7709C200.652 82.0467 201.257 82.451 201.766 82.9607C202.276 83.4703 202.68 84.0754 202.956 84.7413C203.232 85.4072 203.374 86.1209 203.374 86.8417V189.48C203.374 190.201 203.232 190.915 202.956 191.581C202.68 192.247 202.276 192.852 201.766 193.361C201.257 193.871 200.652 194.275 199.986 194.551C199.32 194.827 198.606 194.969 197.885 194.969H145.931C144.475 194.969 143.078 194.391 142.047 193.362C141.016 192.333 140.436 190.937 140.434 189.48L140.417 86.8504Z" fill="#83DADD"/>
<path d="M164.971 202.979H179.089C179.77 202.963 180.418 202.682 180.895 202.194C181.371 201.706 181.637 201.052 181.637 200.37C181.637 200.034 181.571 199.701 181.442 199.391C181.312 199.08 181.123 198.799 180.885 198.562C180.646 198.325 180.363 198.137 180.052 198.01C179.741 197.883 179.407 197.819 179.071 197.821H164.963C164.626 197.821 164.293 197.888 163.982 198.017C163.671 198.146 163.389 198.335 163.151 198.573C162.914 198.812 162.726 199.095 162.598 199.406C162.47 199.717 162.404 200.051 162.406 200.387C162.401 200.727 162.464 201.064 162.591 201.379C162.718 201.693 162.906 201.98 163.145 202.221C163.384 202.462 163.669 202.654 163.982 202.784C164.296 202.914 164.632 202.981 164.971 202.979Z" fill="#3CBCC3"/>
<path d="M140.416 88.7554H203.399V83.4147C203.399 83.1273 203.343 82.8427 203.232 82.5772C203.122 82.3118 202.961 82.0707 202.757 81.8678C202.553 81.665 202.312 81.5044 202.046 81.3952C201.78 81.2859 201.495 81.2303 201.208 81.2315H142.599C142.312 81.2303 142.027 81.2859 141.761 81.3952C141.495 81.5044 141.253 81.665 141.05 81.8678C140.846 82.0707 140.685 82.3118 140.574 82.5772C140.464 82.8427 140.407 83.1273 140.407 83.4147L140.416 88.7554Z" fill="#3CBCC3"/>
<path d="M199.86 84.1455L199.286 83.5801L198.468 84.3977L197.65 83.5801L197.076 84.1455L197.894 84.9631L197.076 85.7807L197.65 86.3548L198.468 85.5372L199.286 86.3548L199.86 85.7807L199.042 84.9631L199.86 84.1455Z" fill="white"/>
<path d="M152.611 84.9889C152.611 84.7601 152.679 84.5364 152.806 84.3462C152.933 84.1559 153.114 84.0077 153.325 83.9201C153.537 83.8325 153.769 83.8096 153.994 83.8543C154.218 83.8989 154.424 84.0091 154.586 84.1709C154.748 84.3327 154.858 84.5388 154.903 84.7632C154.947 84.9876 154.925 85.2202 154.837 85.4316C154.749 85.643 154.601 85.8237 154.411 85.9508C154.221 86.0779 153.997 86.1457 153.768 86.1457C153.461 86.1457 153.167 86.0239 152.95 85.8069C152.733 85.59 152.611 85.2957 152.611 84.9889Z" fill="white"/>
<path d="M148.166 84.9889C148.166 84.7601 148.234 84.5364 148.361 84.3462C148.488 84.1559 148.669 84.0077 148.88 83.9201C149.092 83.8325 149.324 83.8096 149.549 83.8543C149.773 83.8989 149.979 84.0091 150.141 84.1709C150.303 84.3327 150.413 84.5388 150.458 84.7632C150.502 84.9876 150.479 85.2202 150.392 85.4316C150.304 85.643 150.156 85.8237 149.966 85.9508C149.775 86.0779 149.552 86.1457 149.323 86.1457C149.171 86.1469 149.02 86.1178 148.879 86.0601C148.738 86.0023 148.61 85.9171 148.502 85.8095C148.395 85.7018 148.309 85.5738 148.252 85.433C148.194 85.2921 148.165 85.1411 148.166 84.9889Z" fill="#D3D8EA"/>
<path d="M143.722 84.9889C143.722 84.7601 143.79 84.5364 143.917 84.3462C144.044 84.1559 144.224 84.0077 144.436 83.9201C144.647 83.8325 144.88 83.8096 145.104 83.8543C145.329 83.8989 145.535 84.0091 145.697 84.1709C145.858 84.3327 145.969 84.5388 146.013 84.7632C146.058 84.9876 146.035 85.2202 145.947 85.4316C145.86 85.643 145.712 85.8237 145.521 85.9508C145.331 86.0779 145.107 86.1457 144.879 86.1457C144.726 86.1469 144.575 86.1178 144.434 86.0601C144.294 86.0023 144.166 85.9171 144.058 85.8095C143.95 85.7018 143.865 85.5738 143.807 85.433C143.75 85.2921 143.721 85.1411 143.722 84.9889Z" fill="#3CBCC3"/>
<path d="M203.4 189.471C203.4 190.927 202.822 192.324 201.793 193.355C200.764 194.386 199.368 194.966 197.912 194.968H158.117C156.659 194.968 155.261 194.389 154.23 193.358C153.199 192.327 152.62 190.929 152.62 189.471V86.8323C152.619 86.1112 152.76 85.397 153.036 84.7306C153.311 84.0642 153.715 83.4586 154.225 82.9488C154.735 82.4389 155.341 82.0346 156.007 81.7592C156.673 81.4838 157.388 81.3426 158.109 81.3438H197.912C199.368 81.3461 200.764 81.9262 201.793 82.9569C202.822 83.9876 203.4 85.3846 203.4 86.841V189.471Z" fill="url(#paint0_linear_2117_13140)"/>
<path d="M174.461 87.7285L174.504 89.1202H186.125L186.082 87.7285H174.461Z" fill="#D3D8EA"/>
<path d="M180.158 91.9297L180.202 93.3214H199.103L199.059 91.9297H180.158Z" fill="#D3D8EA"/>
<path d="M174.487 91.9297L174.531 93.3214H179.341L179.297 91.9297H174.487Z" fill="#3CBCC3"/>
<path d="M174.435 96.123L174.478 97.5235H184.098L184.029 96.123H174.435Z" fill="#D3D8EA"/>
<path d="M184.698 96.123L184.768 97.5235H194.197L194.153 96.123H184.698Z" fill="#3CBCC3"/>
<path d="M164.145 96.123V97.5235H169.946L169.955 96.123H164.145Z" fill="#D3D8EA"/>
<path d="M157.091 91.9297L157.082 93.3214H166.528L166.537 91.9297H157.091Z" fill="#D3D8EA"/>
<path d="M167.615 91.9297L167.606 93.3214H170.016V91.9297H167.615Z" fill="#D3D8EA"/>
<path d="M165.319 87.7285L165.328 89.1202H170.121L170.129 87.7285H165.319Z" fill="#EEBA5B"/>
<path d="M159.639 87.7285L159.63 89.1202H164.353L164.344 87.7285H159.639Z" fill="#3CBCC3"/>
<path d="M164.075 111.841L164.066 113.241H169.877L169.885 111.841H164.075Z" fill="#D3D8EA"/>
<path d="M157.02 107.647L157.012 109.039H166.458V107.647H157.02Z" fill="#D3D8EA"/>
<path d="M167.546 107.647L167.537 109.039H169.938L169.947 107.647H167.546Z" fill="#D3D8EA"/>
<path d="M163.979 120.687V122.078H169.781L169.79 120.687H163.979Z" fill="#D3D8EA"/>
<path d="M156.926 116.485L156.917 117.886H166.363L166.372 116.485H156.926Z" fill="#EEBA5B"/>
<path d="M167.45 116.485V117.886H169.851V116.485H167.45Z" fill="#EEBA5B"/>
<path d="M165.249 103.446L165.258 104.838H170.05V103.446H165.249Z" fill="#3CBCC3"/>
<path d="M159.569 103.446L159.561 104.838H164.284L164.275 103.446H159.569Z" fill="#3CBCC3"/>
<path d="M187.273 87.7285L187.317 89.1202H190.848L190.805 87.7285H187.273Z" fill="#3CBCC3"/>
<path d="M195.232 96.123L195.276 97.5235H200.999L200.956 96.123H195.232Z" fill="#D3D8EA"/>
<path d="M192.388 87.7285L192.466 89.1202H202.434L202.347 87.7285H192.388Z" fill="#D3D8EA"/>
<path d="M174.399 103.446L174.443 104.838H186.064L186.02 103.446H174.399Z" fill="#D3D8EA"/>
<path d="M180.098 107.647L180.141 109.039H199.051L199.008 107.647H180.098Z" fill="#D3D8EA"/>
<path d="M174.426 107.647L174.469 109.039H179.279L179.236 107.647H174.426Z" fill="#D3D8EA"/>
<path d="M174.374 111.841L174.418 113.241H184.038L183.968 111.841H174.374Z" fill="#D3D8EA"/>
<path d="M184.638 111.841L184.707 113.241H194.136L194.093 111.841H184.638Z" fill="#D3D8EA"/>
<path d="M187.221 103.446L187.256 104.838H190.787L190.743 103.446H187.221Z" fill="#D3D8EA"/>
<path d="M195.171 111.841L195.214 113.241H200.938L200.894 111.841H195.171Z" fill="#3CBCC3"/>
<path d="M180.254 116.485L180.297 117.886H199.207L199.164 116.485H180.254Z" fill="#D3D8EA"/>
<path d="M174.592 116.485L174.627 117.886H179.445L179.393 116.485H174.592Z" fill="#D3D8EA"/>
<path d="M174.53 120.687L174.574 122.078H184.194L184.133 120.687H174.53Z" fill="#D3D8EA"/>
<path d="M184.803 120.687L184.864 122.078H194.292L194.249 120.687H184.803Z" fill="#3CBCC3"/>
<path d="M195.328 120.687L195.372 122.078H201.095L201.052 120.687H195.328Z" fill="#D3D8EA"/>
<path d="M192.327 103.446L192.405 104.838H202.374L202.295 103.446H192.327Z" fill="#3CBCC3"/>
<path d="M163.884 135.151L163.875 136.543H169.685L169.694 135.151H163.884Z" fill="#D3D8EA"/>
<path d="M156.83 130.95L156.821 132.342H166.268V130.95H156.83Z" fill="#D3D8EA"/>
<path d="M167.354 130.95L167.346 132.342H169.746L169.755 130.95H167.354Z" fill="#D3D8EA"/>
<path d="M163.797 143.989L163.788 145.39H169.59L169.598 143.989H163.797Z" fill="#D3D8EA"/>
<path d="M156.734 139.788V141.188H166.172L166.181 139.788H156.734Z" fill="#EEBA5B"/>
<path d="M167.259 139.788V141.188H169.659L169.668 139.788H167.259Z" fill="#EEBA5B"/>
<path d="M165.058 126.749L165.066 128.141H169.859V126.749H165.058Z" fill="#3CBCC3"/>
<path d="M159.378 126.749L159.369 128.141H164.092L164.084 126.749H159.378Z" fill="#3CBCC3"/>
<path d="M174.243 126.749L174.287 128.141H185.907L185.864 126.749H174.243Z" fill="#D3D8EA"/>
<path d="M179.94 130.95L179.993 132.342H198.894L198.85 130.95H179.94Z" fill="#D3D8EA"/>
<path d="M174.278 130.95L174.313 132.342H179.132L179.08 130.95H174.278Z" fill="#D3D8EA"/>
<path d="M174.217 135.151L174.26 136.543H183.88L183.811 135.151H174.217Z" fill="#D3D8EA"/>
<path d="M184.49 135.151L184.56 136.543H193.98L193.936 135.151H184.49Z" fill="#D3D8EA"/>
<path d="M187.064 126.749L187.108 128.141H190.631L190.587 126.749H187.064Z" fill="#D3D8EA"/>
<path d="M195.015 135.151L195.058 136.543H200.782L200.738 135.151H195.015Z" fill="#3CBCC3"/>
<path d="M180.105 139.788L180.149 141.188H199.05L199.007 139.788H180.105Z" fill="#D3D8EA"/>
<path d="M174.435 139.788L174.478 141.188H179.288L179.236 139.788H174.435Z" fill="#D3D8EA"/>
<path d="M174.383 143.989L174.418 145.39H184.046L183.977 143.989H174.383Z" fill="#D3D8EA"/>
<path d="M184.646 143.989L184.716 145.39H194.136L194.101 143.989H184.646Z" fill="#3CBCC3"/>
<path d="M195.171 143.989L195.214 145.39H200.938L200.894 143.989H195.171Z" fill="#D3D8EA"/>
<path d="M192.17 126.749L192.257 128.141H202.225L202.138 126.749H192.17Z" fill="#3CBCC3"/>
<path d="M164.075 160.819L164.066 162.22H169.877L169.885 160.819H164.075Z" fill="#D3D8EA"/>
<path d="M157.02 156.618L157.012 158.019H166.458V156.618H157.02Z" fill="#D3D8EA"/>
<path d="M167.546 156.618L167.537 158.019H169.938L169.947 156.618H167.546Z" fill="#D3D8EA"/>
<path d="M163.979 169.666V171.058H169.781L169.79 169.666H163.979Z" fill="#D3D8EA"/>
<path d="M156.926 165.464L156.917 166.856H166.363L166.372 165.464H156.926Z" fill="#3CBCC3"/>
<path d="M167.45 165.464V166.856H169.851V165.464H167.45Z" fill="#3CBCC3"/>
<path d="M165.249 152.426L165.258 153.817H170.05V152.426H165.249Z" fill="#3CBCC3"/>
<path d="M159.569 152.426L159.561 153.817H164.284L164.275 152.426H159.569Z" fill="#3CBCC3"/>
<path d="M174.399 152.426L174.443 153.817H186.064L186.02 152.426H174.399Z" fill="#D3D8EA"/>
<path d="M180.098 156.618L180.141 158.019H199.051L199.008 156.618H180.098Z" fill="#D3D8EA"/>
<path d="M174.426 156.618L174.469 158.019H179.279L179.236 156.618H174.426Z" fill="#D3D8EA"/>
<path d="M174.374 160.819L174.418 162.22H184.038L183.968 160.819H174.374Z" fill="#D3D8EA"/>
<path d="M184.638 160.819L184.707 162.22H194.136L194.093 160.819H184.638Z" fill="#D3D8EA"/>
<path d="M187.221 152.426L187.256 153.817H190.787L190.743 152.426H187.221Z" fill="#D3D8EA"/>
<path d="M195.171 160.819L195.214 162.22H200.938L200.894 160.819H195.171Z" fill="#3CBCC3"/>
<path d="M180.254 165.464L180.297 166.856H199.207L199.164 165.464H180.254Z" fill="#D3D8EA"/>
<path d="M174.592 165.464L174.627 166.856H179.445L179.393 165.464H174.592Z" fill="#D3D8EA"/>
<path d="M174.53 169.666L174.574 171.058H184.194L184.133 169.666H174.53Z" fill="#D3D8EA"/>
<path d="M184.803 169.666L184.864 171.058H194.292L194.249 169.666H184.803Z" fill="#3CBCC3"/>
<path d="M195.328 169.666L195.372 171.058H201.095L201.052 169.666H195.328Z" fill="#D3D8EA"/>
<path d="M192.327 152.426L192.405 153.817H202.374L202.295 152.426H192.327Z" fill="#3CBCC3"/>
<path d="M163.884 184.123L163.875 185.523H169.685L169.694 184.123H163.884Z" fill="#D3D8EA"/>
<path d="M156.83 179.922L156.821 181.322H166.268V179.922H156.83Z" fill="#D3D8EA"/>
<path d="M167.354 179.922L167.346 181.322H169.746L169.755 179.922H167.354Z" fill="#D3D8EA"/>
<path d="M156.734 188.768V190.159H166.172L166.181 188.768H156.734Z" fill="#3CBCC3"/>
<path d="M167.259 188.768V190.159H169.659L169.668 188.768H167.259Z" fill="#EEBA5B"/>
<path d="M165.058 175.729L165.066 177.12H169.859V175.729H165.058Z" fill="#3CBCC3"/>
<path d="M159.378 175.729L159.369 177.12H164.092L164.084 175.729H159.378Z" fill="#3CBCC3"/>
<path d="M174.243 175.729L174.287 177.12H185.907L185.864 175.729H174.243Z" fill="#D3D8EA"/>
<path d="M179.94 179.922L179.993 181.322H198.894L198.85 179.922H179.94Z" fill="#D3D8EA"/>
<path d="M174.278 179.922L174.313 181.322H179.132L179.08 179.922H174.278Z" fill="#D3D8EA"/>
<path d="M174.217 184.123L174.26 185.523H183.88L183.811 184.123H174.217Z" fill="#D3D8EA"/>
<path d="M184.49 184.123L184.56 185.523H193.98L193.936 184.123H184.49Z" fill="#D3D8EA"/>
<path d="M187.064 175.729L187.108 177.12H190.631L190.587 175.729H187.064Z" fill="#D3D8EA"/>
<path d="M195.015 184.123L195.058 185.523H200.782L200.738 184.123H195.015Z" fill="#3CBCC3"/>
<path d="M180.105 188.768L180.149 190.159H199.05L199.007 188.768H180.105Z" fill="#D3D8EA"/>
<path d="M174.435 188.768L174.478 190.159H179.288L179.236 188.768H174.435Z" fill="#D3D8EA"/>
<defs>
<linearGradient id="paint0_linear_2117_13140" x1="154.516" y1="150.338" x2="258.729" y2="96.3046" gradientUnits="userSpaceOnUse">
<stop stop-color="white"/>
<stop offset="1" stop-color="#D3DBEB"/>
</linearGradient>
</defs>
</svg>
