<svg width="272" height="270" viewBox="0 0 272 270" fill="none" xmlns="http://www.w3.org/2000/svg">
<path d="M85.5499 118.438H84.4058V106.998C84.4058 105.784 83.9237 104.62 83.0655 103.762C82.2073 102.904 81.0434 102.422 79.8297 102.422H55.519C54.0019 102.422 52.547 101.819 51.4742 100.746C50.4015 99.6736 49.7988 98.2186 49.7988 96.7015V73.6836H50.9429V96.7015C50.9429 97.9152 51.425 99.0792 52.2832 99.9373C53.1414 100.796 54.3053 101.278 55.519 101.278H79.8411C81.3582 101.278 82.8132 101.88 83.8859 102.953C84.9586 104.026 85.5613 105.481 85.5613 106.998L85.5499 118.438Z" fill="black"/>
<path d="M134.046 121.447H132.902V96.1982C132.902 94.9845 132.419 93.8205 131.561 92.9623C130.703 92.1042 129.539 91.622 128.325 91.622H87.6665C86.1494 91.622 84.6944 91.0194 83.6217 89.9466C82.549 88.8739 81.9463 87.4189 81.9463 85.9019V73.6836H83.0903V85.8675C83.0903 87.0812 83.5725 88.2452 84.4306 89.1034C85.2888 89.9615 86.4528 90.4437 87.6665 90.4437H128.325C129.842 90.4437 131.297 91.0463 132.37 92.1191C133.443 93.1918 134.046 94.6468 134.046 96.1638V121.447Z" fill="black"/>
<path d="M39.1478 214.102C38.2668 214.099 37.423 213.747 36.8011 213.123C36.1792 212.499 35.8301 211.654 35.8301 210.773V111.837C35.8331 110.697 36.2873 109.604 37.0933 108.798C37.8994 107.992 38.9917 107.538 40.1316 107.535H175.94C177.08 107.538 178.172 107.992 178.978 108.798C179.784 109.604 180.238 110.697 180.241 111.837V210.773C180.241 211.654 179.892 212.499 179.27 213.123C178.648 213.747 177.805 214.099 176.924 214.102H39.1478Z" fill="white"/>
<path d="M175.94 107.752C177.024 107.752 178.062 108.182 178.828 108.948C179.594 109.714 180.025 110.753 180.025 111.836V210.772C180.025 211.595 179.698 212.385 179.117 212.968C178.536 213.551 177.748 213.881 176.924 213.884H39.1483C38.325 213.881 37.5365 213.551 36.9554 212.968C36.3743 212.385 36.048 211.595 36.048 210.772V111.836C36.048 110.753 36.4783 109.714 37.2442 108.948C38.0102 108.182 39.049 107.752 40.1322 107.752H175.94ZM175.94 107.317H40.1322C38.9285 107.332 37.7792 107.821 36.9333 108.677C36.0875 109.534 35.6132 110.689 35.6133 111.893V210.829C35.6133 211.768 35.9854 212.668 36.648 213.333C37.3106 213.998 38.2097 214.373 39.1483 214.376H176.924C177.863 214.373 178.762 213.998 179.425 213.333C180.087 212.668 180.459 211.768 180.459 210.829V111.836C180.459 110.632 179.985 109.477 179.139 108.62C178.293 107.764 177.144 107.275 175.94 107.26V107.317Z" fill="black"/>
<path d="M180.459 122.887H35.6592V111.836C35.6591 110.632 36.1334 109.477 36.9792 108.62C37.8251 107.764 38.9744 107.275 40.1781 107.26H175.94C177.144 107.275 178.294 107.764 179.139 108.62C179.985 109.477 180.46 110.632 180.459 111.836V122.887Z" fill="black"/>
<path d="M60.5293 115.108C60.5293 114.635 60.6696 114.173 60.9323 113.779C61.195 113.386 61.5684 113.08 62.0053 112.899C62.4422 112.718 62.923 112.67 63.3868 112.763C63.8506 112.855 64.2767 113.083 64.6111 113.417C64.9455 113.752 65.1732 114.178 65.2654 114.641C65.3577 115.105 65.3103 115.586 65.1294 116.023C64.9484 116.46 64.6419 116.833 64.2487 117.096C63.8555 117.359 63.3933 117.499 62.9204 117.499C62.6059 117.5 62.2943 117.44 62.0036 117.32C61.7128 117.2 61.4486 117.024 61.2263 116.802C61.0039 116.58 60.8279 116.315 60.7082 116.025C60.5886 115.734 60.5278 115.422 60.5293 115.108Z" fill="#AAB6C2"/>
<path d="M53.7113 117.499C55.0319 117.499 56.1024 116.428 56.1024 115.108C56.1024 113.787 55.0319 112.717 53.7113 112.717C52.3908 112.717 51.3203 113.787 51.3203 115.108C51.3203 116.428 52.3908 117.499 53.7113 117.499Z" fill="#3CBCC3"/>
<path d="M44.5261 117.284C45.7265 117.279 46.6958 116.302 46.691 115.101C46.6862 113.901 45.7091 112.932 44.5086 112.937C43.3081 112.941 42.3389 113.918 42.3437 115.119C42.3485 116.319 43.3256 117.289 44.5261 117.284Z" fill="white"/>
<path d="M44.5131 113.152C44.8985 113.158 45.2733 113.279 45.5904 113.498C45.9076 113.717 46.153 114.025 46.2958 114.383C46.4386 114.741 46.4725 115.133 46.3932 115.51C46.3139 115.887 46.1249 116.233 45.85 116.503C45.5751 116.773 45.2265 116.956 44.848 117.029C44.4695 117.101 44.0779 117.061 43.7224 116.912C43.367 116.763 43.0634 116.512 42.8499 116.191C42.6365 115.87 42.5225 115.493 42.5225 115.108C42.5225 114.589 42.7286 114.091 43.0955 113.725C43.4623 113.358 43.9599 113.152 44.4788 113.152H44.5131ZM44.5131 112.717C44.0402 112.717 43.5779 112.857 43.1847 113.12C42.7915 113.383 42.4851 113.756 42.3041 114.193C42.1231 114.63 42.0758 115.111 42.168 115.574C42.2603 116.038 42.488 116.464 42.8224 116.799C43.1568 117.133 43.5828 117.361 44.0466 117.453C44.5104 117.545 44.9912 117.498 45.4281 117.317C45.865 117.136 46.2384 116.829 46.5012 116.436C46.7639 116.043 46.9041 115.581 46.9041 115.108C46.9056 114.793 46.8448 114.482 46.7252 114.191C46.6056 113.9 46.4295 113.636 46.2072 113.414C45.9849 113.191 45.7207 113.015 45.4299 112.896C45.1391 112.776 44.8275 112.715 44.5131 112.717Z" fill="black"/>
<path d="M169.373 116.742L171.066 115.049L169.373 113.356L170.243 112.475L171.936 114.168L173.629 112.475L174.51 113.356L172.817 115.049L174.51 116.742L173.629 117.611L171.936 115.918L170.243 117.611L169.373 116.742Z" fill="white"/>
<path d="M170.243 112.786L171.627 114.17L171.936 114.479L172.245 114.17L173.629 112.786L174.201 113.358L172.817 114.742L172.508 115.051L172.817 115.36L174.201 116.733L173.629 117.305L172.245 115.92L171.936 115.612L171.627 115.92L170.243 117.293L169.682 116.721L171.067 115.348L171.375 115.039L171.067 114.731L169.682 113.346L170.243 112.774V112.786ZM173.675 112.168L171.936 113.861L170.243 112.168L169.099 113.312L170.758 115.005L169.064 116.687L170.208 117.831L171.902 116.138L173.595 117.831L174.739 116.687L173.126 115.005L174.819 113.312L173.675 112.168Z" fill="black"/>
<path d="M70.9978 169.462C71.0001 171.888 70.2824 174.261 68.9357 176.279C67.589 178.298 65.6737 179.872 63.4323 180.801C61.1909 181.731 58.724 181.975 56.344 181.502C53.9639 181.029 51.7776 179.861 50.0618 178.145C48.3459 176.429 47.1777 174.243 46.7048 171.863C46.232 169.483 46.4758 167.016 47.4055 164.774C48.3351 162.533 49.9088 160.618 51.9274 159.271C53.9459 157.924 56.3186 157.207 58.7452 157.209C61.9948 157.209 65.1113 158.5 67.4091 160.798C69.7069 163.095 70.9978 166.212 70.9978 169.462Z" fill="#AAB6C2"/>
<path d="M64.4772 162.231L61.9718 160.767L60.9307 162.3C60.1045 162.05 59.2414 161.946 58.3795 161.991L57.7274 160.264L54.9131 161.053L55.2563 162.872C54.4982 163.282 53.8169 163.82 53.2428 164.462L51.5496 163.696L50.1196 166.247L51.6526 167.288C51.4024 168.114 51.2978 168.977 51.3437 169.839L49.6162 170.491L50.4056 173.306L52.2246 172.962C52.6342 173.721 53.1723 174.402 53.8148 174.976L53.0483 176.658L55.5995 178.099L56.6406 176.566C57.4662 176.817 58.3304 176.918 59.1918 176.864L59.8439 178.603L62.6582 177.813L62.315 175.994C63.0417 175.606 63.6989 175.099 64.2598 174.495L65.953 175.262L67.383 172.711L65.85 171.67C66.0989 170.843 66.2034 169.98 66.1589 169.118L67.8864 168.466L67.097 165.652L65.278 165.995C64.8684 165.237 64.3304 164.556 63.6878 163.982L64.4772 162.231ZM63.3332 172.047C62.8232 172.96 62.0537 173.702 61.1221 174.177C60.1906 174.653 59.1388 174.842 58.1 174.719C57.0612 174.597 56.0821 174.169 55.2866 173.49C54.4911 172.811 53.915 171.911 53.6313 170.904C53.3475 169.897 53.3689 168.829 53.6926 167.834C54.0164 166.84 54.6279 165.964 55.4499 165.317C56.2719 164.67 57.2673 164.281 58.3102 164.201C59.353 164.12 60.3964 164.35 61.3082 164.863C61.9143 165.2 62.4478 165.654 62.8783 166.198C63.3088 166.742 63.6278 167.365 63.8169 168.032C64.0061 168.7 64.0617 169.398 63.9807 170.087C63.8996 170.776 63.6835 171.442 63.3446 172.047H63.3332Z" fill="white"/>
<path d="M127.654 153.806C130.106 143.335 123.605 132.859 113.135 130.407C102.664 127.955 92.1886 134.456 89.7366 144.926C87.2846 155.397 93.7849 165.872 104.255 168.324C114.726 170.776 125.202 164.276 127.654 153.806Z" fill="#AAB6C2"/>
<path d="M117.069 135.539H99.8623V142.186H117.069V135.539Z" fill="white"/>
<path d="M106.612 136.146H100.949C100.81 136.146 100.697 136.259 100.697 136.398V141.34C100.697 141.479 100.81 141.592 100.949 141.592H106.612C106.751 141.592 106.864 141.479 106.864 141.34V136.398C106.864 136.259 106.751 136.146 106.612 136.146Z" fill="#AAB6C2"/>
<path d="M116.096 136.146H115.524C115.474 136.146 115.433 136.187 115.433 136.238V141.501C115.433 141.551 115.474 141.592 115.524 141.592H116.096C116.147 141.592 116.188 141.551 116.188 141.501V136.238C116.188 136.187 116.147 136.146 116.096 136.146Z" fill="#AAB6C2"/>
<path d="M105.926 136.697H101.716C101.469 136.697 101.27 136.897 101.27 137.143V137.269C101.27 137.516 101.469 137.715 101.716 137.715H105.926C106.172 137.715 106.372 137.516 106.372 137.269V137.143C106.372 136.897 106.172 136.697 105.926 136.697Z" fill="white"/>
<path d="M105.926 136.697H101.716C101.469 136.697 101.27 136.897 101.27 137.143V137.269C101.27 137.516 101.469 137.715 101.716 137.715H105.926C106.172 137.715 106.372 137.516 106.372 137.269V137.143C106.372 136.897 106.172 136.697 105.926 136.697Z" fill="white"/>
<path d="M105.296 137.027H102.345V137.382H105.296V137.027Z" fill="#AAB6C2"/>
<path d="M109.837 136.592H107.572V137.759H109.837V136.592Z" fill="#AAB6C2"/>
<path d="M113.11 136.592H110.845V137.759H113.11V136.592Z" fill="#AAB6C2"/>
<path d="M114.7 138.502H111.371V139.669H114.7V138.502Z" fill="#AAB6C2"/>
<path d="M114.448 138.869H111.622V139.304H114.448V138.869Z" fill="white"/>
<path d="M114.7 140.287H111.371V141.454H114.7V140.287Z" fill="#AAB6C2"/>
<path d="M114.448 140.654H111.622V141.089H114.448V140.654Z" fill="white"/>
<path d="M105.926 138.365H101.716C101.469 138.365 101.27 138.565 101.27 138.811V138.937C101.27 139.184 101.469 139.383 101.716 139.383H105.926C106.172 139.383 106.372 139.184 106.372 138.937V138.811C106.372 138.565 106.172 138.365 105.926 138.365Z" fill="white"/>
<path d="M105.926 140.023H101.716C101.469 140.023 101.27 140.223 101.27 140.47V140.595C101.27 140.842 101.469 141.042 101.716 141.042H105.926C106.172 141.042 106.372 140.842 106.372 140.595V140.47C106.372 140.223 106.172 140.023 105.926 140.023Z" fill="white"/>
<path d="M105.296 138.686H102.345V139.04H105.296V138.686Z" fill="#AAB6C2"/>
<path d="M105.296 140.357H102.345V140.712H105.296V140.357Z" fill="#AAB6C2"/>
<path d="M107.653 139.177C107.657 139.108 107.682 139.042 107.723 138.987C107.765 138.932 107.822 138.89 107.887 138.867C107.952 138.843 108.022 138.839 108.089 138.856C108.157 138.872 108.218 138.907 108.265 138.958C108.312 139.008 108.344 139.071 108.356 139.139C108.368 139.207 108.359 139.277 108.332 139.341C108.305 139.404 108.259 139.458 108.202 139.496C108.144 139.535 108.076 139.555 108.007 139.555C107.959 139.554 107.912 139.543 107.868 139.523C107.824 139.503 107.785 139.475 107.752 139.44C107.719 139.405 107.693 139.363 107.676 139.318C107.659 139.273 107.651 139.226 107.653 139.177Z" fill="#AAB6C2"/>
<path d="M108.877 139.179C108.879 139.107 108.903 139.037 108.944 138.979C108.986 138.92 109.044 138.875 109.111 138.849C109.178 138.823 109.251 138.817 109.321 138.833C109.392 138.848 109.456 138.884 109.506 138.935C109.556 138.987 109.59 139.052 109.603 139.123C109.616 139.194 109.608 139.267 109.58 139.333C109.552 139.399 109.505 139.456 109.445 139.495C109.385 139.535 109.315 139.556 109.243 139.556C109.194 139.556 109.146 139.547 109.1 139.527C109.055 139.508 109.014 139.48 108.98 139.445C108.946 139.41 108.919 139.368 108.902 139.322C108.884 139.277 108.876 139.228 108.877 139.179Z" fill="#AAB6C2"/>
<path d="M110.021 139.179C110.023 139.106 110.047 139.036 110.089 138.977C110.131 138.919 110.19 138.873 110.257 138.848C110.325 138.822 110.399 138.817 110.469 138.834C110.54 138.85 110.604 138.887 110.653 138.94C110.703 138.992 110.736 139.059 110.748 139.13C110.76 139.201 110.75 139.275 110.72 139.341C110.691 139.407 110.642 139.462 110.58 139.501C110.519 139.539 110.448 139.558 110.375 139.556C110.327 139.555 110.28 139.544 110.236 139.524C110.192 139.504 110.153 139.476 110.12 139.441C110.087 139.406 110.061 139.365 110.044 139.32C110.027 139.275 110.019 139.227 110.021 139.179Z" fill="#AAB6C2"/>
<path d="M113.842 137.178C113.842 137.05 113.892 136.928 113.983 136.838C114.073 136.748 114.195 136.697 114.322 136.697C114.45 136.697 114.572 136.748 114.662 136.838C114.752 136.928 114.803 137.05 114.803 137.178C114.803 137.305 114.752 137.427 114.662 137.518C114.572 137.608 114.45 137.658 114.322 137.658C114.195 137.658 114.073 137.608 113.983 137.518C113.892 137.427 113.842 137.305 113.842 137.178Z" fill="#AAB6C2"/>
<path d="M107.653 140.619C107.657 140.55 107.682 140.484 107.723 140.428C107.765 140.373 107.822 140.331 107.887 140.308C107.952 140.285 108.022 140.281 108.089 140.297C108.157 140.313 108.218 140.349 108.265 140.399C108.312 140.449 108.344 140.512 108.356 140.581C108.368 140.649 108.359 140.719 108.332 140.782C108.305 140.846 108.259 140.9 108.202 140.938C108.144 140.976 108.076 140.996 108.007 140.996C107.959 140.995 107.912 140.984 107.868 140.964C107.824 140.944 107.785 140.916 107.752 140.881C107.719 140.846 107.693 140.805 107.676 140.76C107.659 140.715 107.651 140.667 107.653 140.619Z" fill="#AAB6C2"/>
<path d="M108.877 140.62C108.879 140.548 108.903 140.479 108.944 140.42C108.986 140.361 109.044 140.316 109.111 140.29C109.178 140.264 109.251 140.259 109.321 140.274C109.392 140.29 109.456 140.325 109.506 140.377C109.556 140.428 109.59 140.494 109.603 140.564C109.616 140.635 109.608 140.708 109.58 140.774C109.552 140.841 109.505 140.897 109.445 140.937C109.385 140.977 109.315 140.998 109.243 140.998C109.194 140.998 109.146 140.988 109.1 140.969C109.055 140.95 109.014 140.922 108.98 140.887C108.946 140.851 108.919 140.81 108.902 140.764C108.884 140.718 108.876 140.669 108.877 140.62Z" fill="#AAB6C2"/>
<path d="M110.021 140.62C110.023 140.548 110.047 140.478 110.089 140.419C110.131 140.36 110.19 140.315 110.257 140.289C110.325 140.264 110.399 140.259 110.469 140.275C110.54 140.291 110.604 140.328 110.653 140.381C110.703 140.434 110.736 140.5 110.748 140.572C110.76 140.643 110.75 140.716 110.72 140.782C110.691 140.848 110.642 140.904 110.58 140.942C110.519 140.981 110.448 141 110.375 140.998C110.327 140.996 110.28 140.985 110.236 140.965C110.192 140.946 110.153 140.917 110.12 140.882C110.087 140.847 110.061 140.806 110.044 140.761C110.027 140.716 110.019 140.668 110.021 140.62Z" fill="#AAB6C2"/>
<path d="M117.069 142.77H99.8623V149.416H117.069V142.77Z" fill="white"/>
<path d="M106.612 143.377H100.949C100.81 143.377 100.697 143.49 100.697 143.629V148.571C100.697 148.71 100.81 148.823 100.949 148.823H106.612C106.751 148.823 106.864 148.71 106.864 148.571V143.629C106.864 143.49 106.751 143.377 106.612 143.377Z" fill="#AAB6C2"/>
<path d="M116.096 143.377H115.524C115.474 143.377 115.433 143.418 115.433 143.468V148.731C115.433 148.782 115.474 148.823 115.524 148.823H116.096C116.147 148.823 116.188 148.782 116.188 148.731V143.468C116.188 143.418 116.147 143.377 116.096 143.377Z" fill="#AAB6C2"/>
<path d="M105.926 143.914H101.716C101.469 143.914 101.27 144.114 101.27 144.36V144.486C101.27 144.732 101.469 144.932 101.716 144.932H105.926C106.172 144.932 106.372 144.732 106.372 144.486V144.36C106.372 144.114 106.172 143.914 105.926 143.914Z" fill="white"/>
<path d="M105.926 143.914H101.716C101.469 143.914 101.27 144.114 101.27 144.36V144.486C101.27 144.732 101.469 144.932 101.716 144.932H105.926C106.172 144.932 106.372 144.732 106.372 144.486V144.36C106.372 144.114 106.172 143.914 105.926 143.914Z" fill="white"/>
<path d="M105.296 144.246H102.345V144.601H105.296V144.246Z" fill="#AAB6C2"/>
<path d="M109.837 143.811H107.572V144.977H109.837V143.811Z" fill="#AAB6C2"/>
<path d="M113.11 143.811H110.845V144.977H113.11V143.811Z" fill="#AAB6C2"/>
<path d="M114.7 145.723H111.371V146.89H114.7V145.723Z" fill="#AAB6C2"/>
<path d="M114.448 146.088H111.622V146.523H114.448V146.088Z" fill="white"/>
<path d="M114.7 147.508H111.371V148.675H114.7V147.508Z" fill="#AAB6C2"/>
<path d="M114.448 147.885H111.622V148.32H114.448V147.885Z" fill="white"/>
<path d="M105.926 145.586H101.716C101.469 145.586 101.27 145.786 101.27 146.032V146.158C101.27 146.404 101.469 146.604 101.716 146.604H105.926C106.172 146.604 106.372 146.404 106.372 146.158V146.032C106.372 145.786 106.172 145.586 105.926 145.586Z" fill="white"/>
<path d="M105.926 147.244H101.716C101.469 147.244 101.27 147.444 101.27 147.69V147.816C101.27 148.063 101.469 148.262 101.716 148.262H105.926C106.172 148.262 106.372 148.063 106.372 147.816V147.69C106.372 147.444 106.172 147.244 105.926 147.244Z" fill="white"/>
<path d="M105.296 145.916H102.345V146.271H105.296V145.916Z" fill="#AAB6C2"/>
<path d="M105.296 147.576H102.345V147.931H105.296V147.576Z" fill="#AAB6C2"/>
<path d="M107.653 146.398C107.657 146.329 107.682 146.263 107.723 146.208C107.765 146.153 107.822 146.111 107.887 146.087C107.952 146.064 108.022 146.06 108.089 146.076C108.157 146.092 108.218 146.128 108.265 146.178C108.312 146.229 108.344 146.292 108.356 146.36C108.368 146.428 108.359 146.498 108.332 146.562C108.305 146.625 108.259 146.679 108.202 146.717C108.144 146.755 108.076 146.776 108.007 146.776C107.959 146.774 107.912 146.763 107.868 146.744C107.824 146.724 107.785 146.696 107.752 146.66C107.719 146.625 107.693 146.584 107.676 146.539C107.659 146.494 107.651 146.446 107.653 146.398Z" fill="#AAB6C2"/>
<path d="M108.877 146.398C108.879 146.326 108.903 146.256 108.944 146.197C108.986 146.139 109.044 146.094 109.111 146.068C109.178 146.042 109.251 146.036 109.321 146.051C109.392 146.067 109.456 146.103 109.506 146.154C109.556 146.206 109.59 146.271 109.603 146.342C109.616 146.412 109.608 146.485 109.58 146.552C109.552 146.618 109.505 146.674 109.445 146.714C109.385 146.754 109.315 146.775 109.243 146.775C109.194 146.775 109.146 146.765 109.1 146.746C109.055 146.727 109.014 146.699 108.98 146.664C108.946 146.629 108.919 146.587 108.902 146.541C108.884 146.495 108.876 146.447 108.877 146.398Z" fill="#AAB6C2"/>
<path d="M110.021 146.397C110.023 146.325 110.047 146.255 110.089 146.196C110.131 146.137 110.19 146.092 110.257 146.067C110.325 146.041 110.399 146.036 110.469 146.052C110.54 146.069 110.604 146.106 110.653 146.158C110.703 146.211 110.736 146.277 110.748 146.349C110.76 146.42 110.75 146.494 110.72 146.56C110.691 146.626 110.642 146.681 110.58 146.72C110.519 146.758 110.448 146.777 110.375 146.775C110.327 146.773 110.28 146.763 110.236 146.743C110.192 146.723 110.153 146.695 110.12 146.66C110.087 146.625 110.061 146.583 110.044 146.538C110.027 146.493 110.019 146.446 110.021 146.397Z" fill="#AAB6C2"/>
<path d="M113.841 144.393C113.846 144.299 113.878 144.209 113.933 144.133C113.989 144.057 114.065 143.999 114.153 143.966C114.241 143.933 114.337 143.927 114.429 143.948C114.52 143.969 114.604 144.016 114.669 144.084C114.734 144.152 114.777 144.238 114.794 144.33C114.811 144.423 114.8 144.518 114.763 144.605C114.726 144.691 114.665 144.765 114.586 144.817C114.508 144.869 114.416 144.896 114.322 144.897C114.257 144.897 114.192 144.883 114.133 144.858C114.073 144.832 114.019 144.795 113.974 144.748C113.929 144.701 113.894 144.645 113.871 144.584C113.848 144.523 113.838 144.458 113.841 144.393Z" fill="#AAB6C2"/>
<path d="M107.653 147.84C107.657 147.771 107.682 147.704 107.723 147.649C107.765 147.594 107.822 147.552 107.887 147.529C107.952 147.505 108.022 147.501 108.089 147.518C108.157 147.534 108.218 147.569 108.265 147.62C108.312 147.67 108.344 147.733 108.356 147.801C108.368 147.869 108.359 147.939 108.332 148.003C108.305 148.066 108.259 148.121 108.202 148.159C108.144 148.197 108.076 148.217 108.007 148.217C107.959 148.216 107.912 148.205 107.868 148.185C107.824 148.165 107.785 148.137 107.752 148.102C107.719 148.067 107.693 148.026 107.676 147.981C107.659 147.936 107.651 147.888 107.653 147.84Z" fill="#AAB6C2"/>
<path d="M108.877 147.839C108.879 147.767 108.903 147.698 108.944 147.639C108.986 147.58 109.044 147.535 109.111 147.509C109.178 147.483 109.251 147.477 109.321 147.493C109.392 147.508 109.456 147.544 109.506 147.596C109.556 147.647 109.59 147.712 109.603 147.783C109.616 147.854 109.608 147.927 109.58 147.993C109.552 148.059 109.505 148.116 109.445 148.156C109.385 148.195 109.315 148.217 109.243 148.217C109.194 148.217 109.146 148.207 109.1 148.188C109.055 148.169 109.014 148.141 108.98 148.105C108.946 148.07 108.919 148.028 108.902 147.983C108.884 147.937 108.876 147.888 108.877 147.839Z" fill="#AAB6C2"/>
<path d="M110.021 147.839C110.023 147.766 110.047 147.696 110.089 147.638C110.131 147.579 110.19 147.534 110.257 147.508C110.325 147.482 110.399 147.477 110.469 147.494C110.54 147.51 110.604 147.547 110.653 147.6C110.703 147.653 110.736 147.719 110.748 147.79C110.76 147.862 110.75 147.935 110.72 148.001C110.691 148.067 110.642 148.123 110.58 148.161C110.519 148.199 110.448 148.219 110.375 148.216C110.327 148.215 110.28 148.204 110.236 148.184C110.192 148.164 110.153 148.136 110.12 148.101C110.087 148.066 110.061 148.025 110.044 147.98C110.027 147.935 110.019 147.887 110.021 147.839Z" fill="#AAB6C2"/>
<path d="M117.069 149.99H99.8623V156.637H117.069V149.99Z" fill="white"/>
<path d="M106.612 150.596H100.949C100.81 150.596 100.697 150.708 100.697 150.847V155.79C100.697 155.929 100.81 156.041 100.949 156.041H106.612C106.751 156.041 106.864 155.929 106.864 155.79V150.847C106.864 150.708 106.751 150.596 106.612 150.596Z" fill="#AAB6C2"/>
<path d="M116.096 150.596H115.524C115.474 150.596 115.433 150.637 115.433 150.687V155.95C115.433 156 115.474 156.041 115.524 156.041H116.096C116.147 156.041 116.188 156 116.188 155.95V150.687C116.188 150.637 116.147 150.596 116.096 150.596Z" fill="#AAB6C2"/>
<path d="M105.926 151.145H101.716C101.469 151.145 101.27 151.344 101.27 151.591V151.717C101.27 151.963 101.469 152.163 101.716 152.163H105.926C106.172 152.163 106.372 151.963 106.372 151.717V151.591C106.372 151.344 106.172 151.145 105.926 151.145Z" fill="white"/>
<path d="M105.926 151.145H101.716C101.469 151.145 101.27 151.344 101.27 151.591V151.717C101.27 151.963 101.469 152.163 101.716 152.163H105.926C106.172 152.163 106.372 151.963 106.372 151.717V151.591C106.372 151.344 106.172 151.145 105.926 151.145Z" fill="white"/>
<path d="M105.296 151.465H102.345V151.819H105.296V151.465Z" fill="#AAB6C2"/>
<path d="M109.837 151.043H107.572V152.21H109.837V151.043Z" fill="#AAB6C2"/>
<path d="M113.11 151.043H110.845V152.21H113.11V151.043Z" fill="#AAB6C2"/>
<path d="M114.7 152.941H111.371V154.108H114.7V152.941Z" fill="#AAB6C2"/>
<path d="M114.448 153.318H111.622V153.753H114.448V153.318Z" fill="white"/>
<path d="M114.7 154.738H111.371V155.905H114.7V154.738Z" fill="#AAB6C2"/>
<path d="M114.448 155.104H111.622V155.538H114.448V155.104Z" fill="white"/>
<path d="M105.926 152.803H101.716C101.469 152.803 101.27 153.002 101.27 153.249V153.375C101.27 153.621 101.469 153.821 101.716 153.821H105.926C106.172 153.821 106.372 153.621 106.372 153.375V153.249C106.372 153.002 106.172 152.803 105.926 152.803Z" fill="white"/>
<path d="M105.926 154.475H101.716C101.469 154.475 101.27 154.674 101.27 154.921V155.047C101.27 155.293 101.469 155.493 101.716 155.493H105.926C106.172 155.493 106.372 155.293 106.372 155.047V154.921C106.372 154.674 106.172 154.475 105.926 154.475Z" fill="white"/>
<path d="M105.296 153.135H102.345V153.489H105.296V153.135Z" fill="#AAB6C2"/>
<path d="M105.296 154.805H102.345V155.159H105.296V154.805Z" fill="#AAB6C2"/>
<path d="M107.653 153.628C107.656 153.559 107.678 153.491 107.719 153.435C107.759 153.378 107.815 153.334 107.88 153.309C107.945 153.284 108.016 153.278 108.084 153.293C108.152 153.308 108.214 153.343 108.263 153.393C108.311 153.443 108.344 153.506 108.356 153.575C108.369 153.643 108.362 153.714 108.334 153.778C108.307 153.842 108.262 153.897 108.204 153.935C108.146 153.974 108.078 153.994 108.008 153.994C107.913 153.991 107.823 153.952 107.756 153.883C107.69 153.815 107.653 153.724 107.653 153.628Z" fill="#AAB6C2"/>
<path d="M108.877 153.626C108.867 153.573 108.87 153.519 108.883 153.467C108.897 153.416 108.922 153.367 108.956 153.326C108.991 153.285 109.034 153.252 109.082 153.23C109.131 153.207 109.184 153.195 109.237 153.195C109.291 153.195 109.344 153.207 109.392 153.23C109.441 153.252 109.484 153.285 109.518 153.326C109.552 153.367 109.577 153.416 109.591 153.467C109.605 153.519 109.607 153.573 109.598 153.626C109.607 153.679 109.605 153.733 109.591 153.784C109.577 153.836 109.552 153.884 109.518 153.925C109.484 153.966 109.441 153.999 109.392 154.022C109.344 154.045 109.291 154.056 109.237 154.056C109.184 154.056 109.131 154.045 109.082 154.022C109.034 153.999 108.991 153.966 108.956 153.925C108.922 153.884 108.897 153.836 108.883 153.784C108.87 153.733 108.867 153.679 108.877 153.626Z" fill="#AAB6C2"/>
<path d="M110.021 153.628C110.021 153.555 110.042 153.484 110.083 153.423C110.124 153.363 110.182 153.316 110.249 153.288C110.317 153.261 110.391 153.255 110.462 153.27C110.534 153.285 110.599 153.321 110.65 153.373C110.7 153.425 110.734 153.492 110.747 153.563C110.76 153.635 110.751 153.709 110.721 153.776C110.692 153.843 110.643 153.899 110.582 153.938C110.52 153.976 110.448 153.996 110.375 153.994C110.28 153.991 110.19 153.951 110.124 153.883C110.057 153.814 110.02 153.723 110.021 153.628Z" fill="#AAB6C2"/>
<path d="M113.842 151.613C113.842 151.486 113.892 151.364 113.983 151.274C114.073 151.183 114.195 151.133 114.322 151.133C114.45 151.133 114.572 151.183 114.662 151.274C114.752 151.364 114.803 151.486 114.803 151.613C114.803 151.741 114.752 151.863 114.662 151.953C114.572 152.043 114.45 152.094 114.322 152.094C114.195 152.094 114.073 152.043 113.983 151.953C113.892 151.863 113.842 151.741 113.842 151.613Z" fill="#AAB6C2"/>
<path d="M107.653 155.044C107.656 154.975 107.678 154.907 107.719 154.851C107.759 154.794 107.815 154.75 107.88 154.725C107.945 154.7 108.016 154.694 108.084 154.709C108.152 154.724 108.214 154.759 108.263 154.809C108.311 154.859 108.344 154.922 108.356 154.991C108.369 155.059 108.362 155.13 108.334 155.194C108.307 155.258 108.262 155.313 108.204 155.351C108.146 155.39 108.078 155.41 108.008 155.41C107.913 155.408 107.823 155.368 107.756 155.299C107.69 155.231 107.653 155.14 107.653 155.044Z" fill="#AAB6C2"/>
<path d="M108.877 155.046C108.867 154.993 108.87 154.939 108.883 154.887C108.897 154.835 108.922 154.787 108.956 154.746C108.991 154.705 109.034 154.672 109.082 154.65C109.131 154.627 109.184 154.615 109.237 154.615C109.291 154.615 109.344 154.627 109.392 154.65C109.441 154.672 109.484 154.705 109.518 154.746C109.552 154.787 109.577 154.835 109.591 154.887C109.605 154.939 109.607 154.993 109.598 155.046C109.607 155.098 109.605 155.153 109.591 155.204C109.577 155.256 109.552 155.304 109.518 155.345C109.484 155.386 109.441 155.419 109.392 155.442C109.344 155.465 109.291 155.476 109.237 155.476C109.184 155.476 109.131 155.465 109.082 155.442C109.034 155.419 108.991 155.386 108.956 155.345C108.922 155.304 108.897 155.256 108.883 155.204C108.87 155.153 108.867 155.098 108.877 155.046Z" fill="#AAB6C2"/>
<path d="M110.021 155.046C110.021 154.973 110.042 154.901 110.083 154.841C110.124 154.781 110.182 154.734 110.249 154.706C110.317 154.679 110.391 154.673 110.462 154.688C110.534 154.703 110.599 154.739 110.65 154.791C110.7 154.843 110.734 154.91 110.747 154.981C110.76 155.053 110.751 155.127 110.721 155.194C110.692 155.26 110.643 155.317 110.582 155.356C110.52 155.394 110.448 155.414 110.375 155.412C110.28 155.409 110.19 155.369 110.124 155.3C110.057 155.232 110.02 155.141 110.021 155.046Z" fill="#AAB6C2"/>
<path d="M117.069 157.209H99.8623V163.856H117.069V157.209Z" fill="white"/>
<path d="M106.612 157.814H100.949C100.81 157.814 100.697 157.927 100.697 158.066V163.008C100.697 163.147 100.81 163.26 100.949 163.26H106.612C106.751 163.26 106.864 163.147 106.864 163.008V158.066C106.864 157.927 106.751 157.814 106.612 157.814Z" fill="#AAB6C2"/>
<path d="M116.096 157.814H115.524C115.474 157.814 115.433 157.855 115.433 157.906V163.169C115.433 163.219 115.474 163.26 115.524 163.26H116.096C116.147 163.26 116.188 163.219 116.188 163.169V157.906C116.188 157.855 116.147 157.814 116.096 157.814Z" fill="#AAB6C2"/>
<path d="M105.926 158.363H101.716C101.469 158.363 101.27 158.563 101.27 158.809V158.935C101.27 159.182 101.469 159.381 101.716 159.381H105.926C106.172 159.381 106.372 159.182 106.372 158.935V158.809C106.372 158.563 106.172 158.363 105.926 158.363Z" fill="white"/>
<path d="M105.926 158.363H101.716C101.469 158.363 101.27 158.563 101.27 158.809V158.935C101.27 159.182 101.469 159.381 101.716 159.381H105.926C106.172 159.381 106.372 159.182 106.372 158.935V158.809C106.372 158.563 106.172 158.363 105.926 158.363Z" fill="white"/>
<path d="M105.296 158.695H102.345V159.05H105.296V158.695Z" fill="#AAB6C2"/>
<path d="M109.837 158.262H107.572V159.429H109.837V158.262Z" fill="#AAB6C2"/>
<path d="M113.11 158.262H110.845V159.429H113.11V158.262Z" fill="#AAB6C2"/>
<path d="M114.7 160.172H111.371V161.339H114.7V160.172Z" fill="#AAB6C2"/>
<path d="M114.448 160.539H111.622V160.974H114.448V160.539Z" fill="white"/>
<path d="M114.7 161.955H111.371V163.122H114.7V161.955Z" fill="#AAB6C2"/>
<path d="M114.448 162.322H111.622V162.757H114.448V162.322Z" fill="white"/>
<path d="M105.926 160.021H101.716C101.469 160.021 101.27 160.221 101.27 160.468V160.594C101.27 160.84 101.469 161.04 101.716 161.04H105.926C106.172 161.04 106.372 160.84 106.372 160.594V160.468C106.372 160.221 106.172 160.021 105.926 160.021Z" fill="white"/>
<path d="M105.926 161.693H101.716C101.469 161.693 101.27 161.893 101.27 162.14V162.265C101.27 162.512 101.469 162.712 101.716 162.712H105.926C106.172 162.712 106.372 162.512 106.372 162.265V162.14C106.372 161.893 106.172 161.693 105.926 161.693Z" fill="white"/>
<path d="M105.296 160.355H102.345V160.71H105.296V160.355Z" fill="#AAB6C2"/>
<path d="M105.296 162.023H102.345V162.378H105.296V162.023Z" fill="#AAB6C2"/>
<path d="M107.653 160.845C107.657 160.776 107.682 160.71 107.723 160.655C107.765 160.6 107.822 160.558 107.887 160.535C107.952 160.511 108.022 160.507 108.089 160.523C108.157 160.54 108.218 160.575 108.265 160.626C108.312 160.676 108.344 160.739 108.356 160.807C108.368 160.875 108.359 160.945 108.332 161.009C108.305 161.072 108.259 161.126 108.202 161.164C108.144 161.202 108.076 161.223 108.007 161.223C107.959 161.221 107.912 161.211 107.868 161.191C107.824 161.171 107.785 161.143 107.752 161.108C107.719 161.073 107.693 161.031 107.676 160.986C107.659 160.941 107.651 160.894 107.653 160.845Z" fill="#AAB6C2"/>
<path d="M108.877 160.847C108.879 160.775 108.903 160.705 108.944 160.647C108.986 160.588 109.044 160.543 109.111 160.517C109.178 160.491 109.251 160.485 109.321 160.501C109.392 160.516 109.456 160.552 109.506 160.603C109.556 160.655 109.59 160.72 109.603 160.791C109.616 160.862 109.608 160.935 109.58 161.001C109.552 161.067 109.505 161.124 109.445 161.163C109.385 161.203 109.315 161.224 109.243 161.224C109.194 161.224 109.146 161.215 109.1 161.195C109.055 161.176 109.014 161.148 108.98 161.113C108.946 161.078 108.919 161.036 108.902 160.99C108.884 160.945 108.876 160.896 108.877 160.847Z" fill="#AAB6C2"/>
<path d="M110.021 160.847C110.023 160.774 110.047 160.704 110.089 160.645C110.131 160.586 110.19 160.541 110.257 160.516C110.325 160.49 110.399 160.485 110.469 160.502C110.54 160.518 110.604 160.555 110.653 160.608C110.703 160.66 110.736 160.727 110.748 160.798C110.76 160.869 110.75 160.943 110.72 161.009C110.691 161.075 110.642 161.13 110.58 161.169C110.519 161.207 110.448 161.226 110.375 161.224C110.327 161.223 110.28 161.212 110.236 161.192C110.192 161.172 110.153 161.144 110.12 161.109C110.087 161.074 110.061 161.033 110.044 160.988C110.027 160.943 110.019 160.895 110.021 160.847Z" fill="#AAB6C2"/>
<path d="M113.842 158.844C113.846 158.75 113.878 158.66 113.934 158.584C113.989 158.508 114.066 158.45 114.154 158.417C114.242 158.384 114.338 158.378 114.429 158.399C114.521 158.42 114.605 158.467 114.669 158.535C114.734 158.603 114.778 158.689 114.795 158.782C114.811 158.874 114.801 158.97 114.764 159.056C114.727 159.142 114.665 159.216 114.587 159.268C114.508 159.32 114.416 159.348 114.322 159.348C114.258 159.346 114.194 159.332 114.135 159.306C114.076 159.28 114.023 159.242 113.978 159.196C113.933 159.149 113.898 159.094 113.875 159.033C113.852 158.973 113.84 158.909 113.842 158.844Z" fill="#AAB6C2"/>
<path d="M107.653 162.287C107.657 162.218 107.682 162.152 107.723 162.096C107.765 162.041 107.822 161.999 107.887 161.976C107.952 161.953 108.022 161.949 108.089 161.965C108.157 161.981 108.218 162.017 108.265 162.067C108.312 162.117 108.344 162.18 108.356 162.249C108.368 162.317 108.359 162.387 108.332 162.45C108.305 162.514 108.259 162.568 108.202 162.606C108.144 162.644 108.076 162.664 108.007 162.664C107.959 162.663 107.912 162.652 107.868 162.632C107.824 162.612 107.785 162.584 107.752 162.549C107.719 162.514 107.693 162.473 107.676 162.428C107.659 162.383 107.651 162.335 107.653 162.287Z" fill="#AAB6C2"/>
<path d="M108.877 162.288C108.879 162.216 108.903 162.147 108.944 162.088C108.986 162.029 109.044 161.984 109.111 161.958C109.178 161.932 109.251 161.927 109.321 161.942C109.392 161.957 109.456 161.993 109.506 162.045C109.556 162.096 109.59 162.162 109.603 162.232C109.616 162.303 109.608 162.376 109.58 162.442C109.552 162.509 109.505 162.565 109.445 162.605C109.385 162.645 109.315 162.666 109.243 162.666C109.194 162.666 109.146 162.656 109.1 162.637C109.055 162.618 109.014 162.59 108.98 162.555C108.946 162.519 108.919 162.478 108.902 162.432C108.884 162.386 108.876 162.337 108.877 162.288Z" fill="#AAB6C2"/>
<path d="M110.021 162.288C110.023 162.216 110.047 162.146 110.089 162.087C110.131 162.028 110.19 161.983 110.257 161.957C110.325 161.932 110.399 161.927 110.469 161.943C110.54 161.959 110.604 161.996 110.653 162.049C110.703 162.102 110.736 162.168 110.748 162.239C110.76 162.311 110.75 162.384 110.72 162.45C110.691 162.516 110.642 162.572 110.58 162.61C110.519 162.649 110.448 162.668 110.375 162.666C110.327 162.664 110.28 162.653 110.236 162.633C110.192 162.614 110.153 162.585 110.12 162.55C110.087 162.515 110.061 162.474 110.044 162.429C110.027 162.384 110.019 162.336 110.021 162.288Z" fill="#AAB6C2"/>
<path d="M168.675 169.462C168.675 171.885 167.957 174.254 166.61 176.269C165.264 178.284 163.35 179.854 161.111 180.781C158.873 181.709 156.409 181.952 154.032 181.479C151.655 181.006 149.472 179.839 147.759 178.125C146.045 176.412 144.878 174.229 144.405 171.852C143.933 169.475 144.175 167.012 145.103 164.773C146.03 162.534 147.6 160.62 149.615 159.274C151.63 157.928 153.999 157.209 156.423 157.209C159.672 157.209 162.789 158.5 165.086 160.798C167.384 163.095 168.675 166.212 168.675 169.462Z" fill="#AAB6C2"/>
<path d="M153.861 173.351L147.408 170.548V168.993L153.861 166.201V168.032L149.365 169.748L153.861 171.532V173.351Z" fill="white"/>
<path d="M154.455 174.552L156.743 164.828H158.093L155.736 174.552H154.455Z" fill="white"/>
<path d="M158.734 173.351V171.521L163.242 169.747L158.734 167.997V166.189L165.187 168.981V170.525L158.734 173.351Z" fill="white"/>
<path d="M60.4272 155.756C60.3804 155.76 60.3336 155.75 60.292 155.728C60.2504 155.706 60.2158 155.673 60.192 155.633C60.1682 155.593 60.1562 155.546 60.1573 155.499C60.1584 155.452 60.1727 155.407 60.1984 155.367C60.5398 154.719 60.9219 154.092 61.3424 153.491C61.3934 153.443 61.461 153.416 61.5312 153.416C61.6014 153.416 61.669 153.443 61.72 153.491C61.7762 153.534 61.8143 153.597 61.827 153.667C61.8397 153.736 61.826 153.808 61.7886 153.869C61.3772 154.452 60.9954 155.055 60.6446 155.676C60.6174 155.706 60.5835 155.729 60.5457 155.743C60.5078 155.757 60.4672 155.761 60.4272 155.756ZM62.9098 152.187C62.8547 152.209 62.7932 152.209 62.7382 152.187C62.7129 152.162 62.6928 152.133 62.6791 152.101C62.6654 152.068 62.6583 152.033 62.6583 151.998C62.6583 151.963 62.6654 151.928 62.6791 151.896C62.6928 151.863 62.7129 151.834 62.7382 151.809C63.1958 151.249 63.6763 150.665 64.1796 150.151C64.2306 150.102 64.2982 150.075 64.3684 150.075C64.4386 150.075 64.5062 150.102 64.5572 150.151C64.5828 150.176 64.6031 150.206 64.6169 150.24C64.6308 150.273 64.6379 150.309 64.6379 150.345C64.6379 150.381 64.6308 150.417 64.6169 150.45C64.6031 150.484 64.5828 150.514 64.5572 150.54C64.0767 151.066 63.5962 151.604 63.15 152.164C63.1135 152.184 63.0735 152.196 63.0322 152.2C62.9909 152.204 62.9493 152.2 62.9098 152.187ZM65.8499 149.018C65.7757 149.014 65.7059 148.981 65.6554 148.927C65.6072 148.876 65.5803 148.808 65.5803 148.738C65.5803 148.668 65.6072 148.6 65.6554 148.549C66.1817 148.046 66.7308 147.565 67.2914 147.096C67.3443 147.047 67.4138 147.02 67.4859 147.02C67.558 147.02 67.6275 147.047 67.6804 147.096C67.706 147.122 67.7263 147.152 67.7401 147.185C67.754 147.219 67.7611 147.254 67.7611 147.291C67.7611 147.327 67.754 147.362 67.7401 147.396C67.7263 147.429 67.706 147.46 67.6804 147.485C67.1312 147.931 66.5935 148.412 66.0787 148.904C66.0535 148.941 66.0192 148.97 65.9792 148.991C65.9391 149.011 65.8946 149.02 65.8499 149.018ZM69.1905 146.249C69.1477 146.25 69.1055 146.239 69.0676 146.219C69.0298 146.199 68.9973 146.17 68.9731 146.135C68.9249 146.084 68.898 146.017 68.898 145.946C68.898 145.876 68.9249 145.809 68.9731 145.758C69.568 145.334 70.1172 144.922 70.7921 144.545C70.8225 144.524 70.8567 144.511 70.8927 144.504C70.9286 144.498 70.9656 144.499 71.0011 144.507C71.0366 144.516 71.0699 144.532 71.099 144.554C71.128 144.576 71.1521 144.604 71.1697 144.636C71.1882 144.666 71.2005 144.7 71.206 144.734C71.2114 144.769 71.2098 144.805 71.2013 144.839C71.1927 144.873 71.1774 144.905 71.1563 144.933C71.1351 144.961 71.1086 144.985 71.0782 145.002C70.468 145.384 69.8731 145.765 69.2935 146.147C69.2695 146.19 69.2338 146.226 69.1905 146.249ZM72.8743 143.961C72.8252 143.964 72.7763 143.953 72.7336 143.929C72.6909 143.904 72.6563 143.868 72.634 143.824C72.6164 143.793 72.6053 143.758 72.6015 143.723C72.5978 143.687 72.6013 143.651 72.6121 143.616C72.6228 143.582 72.6404 143.55 72.6639 143.523C72.6873 143.496 72.7161 143.474 72.7484 143.458C73.3777 143.115 74.0412 142.794 74.7047 142.497C74.7718 142.469 74.8469 142.468 74.9149 142.493C74.9829 142.519 75.0386 142.569 75.0708 142.634C75.0859 142.667 75.0943 142.701 75.0955 142.737C75.0968 142.772 75.0908 142.808 75.078 142.841C75.0651 142.874 75.0457 142.904 75.0209 142.93C74.9961 142.955 74.9664 142.975 74.9335 142.989C74.27 143.286 73.6293 143.595 73.0001 143.939L72.8743 143.961ZM76.8441 142.211C76.787 142.21 76.7314 142.192 76.6845 142.16C76.6376 142.127 76.6015 142.081 76.5809 142.028C76.5685 141.994 76.5631 141.958 76.5651 141.922C76.5671 141.887 76.5764 141.851 76.5925 141.819C76.6085 141.787 76.6311 141.759 76.6586 141.735C76.6861 141.712 76.7181 141.695 76.7526 141.685C77.4275 141.433 78.1254 141.204 78.8233 141.01C78.8906 140.997 78.9602 141.01 79.0184 141.046C79.0766 141.083 79.1192 141.139 79.1378 141.205C79.1565 141.271 79.1498 141.341 79.1191 141.403C79.0884 141.464 79.0359 141.512 78.972 141.536C78.2856 141.731 77.5991 141.948 76.9356 142.188L76.8441 142.211ZM80.9969 141.067C80.935 141.066 80.8753 141.044 80.8275 141.004C80.7797 140.965 80.7467 140.91 80.7338 140.85C80.72 140.78 80.7338 140.708 80.7722 140.648C80.8106 140.588 80.8706 140.546 80.9397 140.529C81.649 140.381 82.3698 140.243 83.0905 140.14C83.1282 140.129 83.1679 140.126 83.2068 140.132C83.2458 140.137 83.2831 140.151 83.3163 140.172C83.3495 140.193 83.3778 140.221 83.3992 140.254C83.4206 140.287 83.4347 140.324 83.4405 140.363C83.4463 140.402 83.4436 140.442 83.4328 140.479C83.4219 140.517 83.403 140.552 83.3774 140.582C83.3518 140.612 83.3201 140.636 83.2844 140.653C83.2487 140.669 83.2099 140.678 83.1706 140.678C82.4613 140.781 81.752 140.907 81.0541 141.056L80.9969 141.067ZM85.287 140.438C85.2252 140.425 85.1697 140.391 85.1298 140.342C85.09 140.293 85.0682 140.232 85.0682 140.169C85.0682 140.106 85.09 140.045 85.1298 139.996C85.1697 139.947 85.2252 139.913 85.287 139.9C85.9963 139.9 86.7285 139.809 87.4607 139.797C87.4962 139.796 87.5317 139.801 87.5649 139.814C87.5982 139.826 87.6285 139.845 87.6542 139.87C87.6799 139.895 87.7003 139.924 87.7142 139.957C87.7281 139.99 87.7353 140.025 87.7353 140.06C87.7368 140.096 87.7312 140.131 87.7186 140.164C87.7061 140.198 87.687 140.228 87.6624 140.254C87.6378 140.279 87.6082 140.3 87.5755 140.314C87.5429 140.328 87.5077 140.335 87.4721 140.335C86.7514 140.335 86.0307 140.335 85.3214 140.438H85.287Z" fill="#AAB6C2"/>
<path d="M155.119 155.754C155.07 155.757 155.021 155.746 154.978 155.721C154.935 155.697 154.901 155.661 154.879 155.617C154.537 154.99 154.154 154.386 153.735 153.809C153.713 153.78 153.698 153.747 153.69 153.712C153.682 153.677 153.681 153.641 153.687 153.606C153.694 153.57 153.707 153.537 153.727 153.507C153.747 153.477 153.773 153.451 153.803 153.432C153.854 153.383 153.922 153.356 153.992 153.356C154.062 153.356 154.13 153.383 154.181 153.432C154.959 154.576 155.325 155.274 155.325 155.308C155.357 155.372 155.363 155.446 155.342 155.514C155.321 155.583 155.273 155.64 155.21 155.674C155.187 155.708 155.155 155.735 155.119 155.754ZM152.648 152.185C152.566 152.184 152.488 152.151 152.43 152.093C151.984 151.544 151.515 150.949 151.023 150.469C150.973 150.416 150.946 150.345 150.948 150.272C150.951 150.199 150.982 150.13 151.035 150.08C151.088 150.03 151.159 150.003 151.231 150.005C151.304 150.007 151.374 150.038 151.424 150.091C151.916 150.629 152.396 151.235 152.854 151.75C152.902 151.801 152.929 151.868 152.929 151.939C152.929 152.009 152.902 152.076 152.854 152.127C152.825 152.151 152.792 152.168 152.757 152.178C152.721 152.188 152.684 152.19 152.648 152.185ZM149.696 149.016C149.662 149.017 149.627 149.011 149.595 148.997C149.564 148.983 149.536 148.962 149.513 148.936C148.987 148.444 148.449 147.975 147.9 147.517C147.874 147.491 147.854 147.461 147.84 147.428C147.826 147.394 147.819 147.359 147.819 147.323C147.819 147.286 147.826 147.251 147.84 147.217C147.854 147.184 147.874 147.154 147.9 147.128C147.951 147.08 148.019 147.053 148.089 147.053C148.159 147.053 148.227 147.08 148.278 147.128C148.838 147.597 149.422 148.078 149.913 148.581C149.939 148.605 149.959 148.635 149.973 148.667C149.986 148.7 149.993 148.735 149.993 148.77C149.993 148.805 149.986 148.84 149.973 148.872C149.959 148.905 149.939 148.934 149.913 148.958C149.883 148.982 149.848 149 149.811 149.009C149.773 149.019 149.734 149.021 149.696 149.016ZM146.356 146.247C146.303 146.264 146.247 146.264 146.195 146.247C145.623 145.824 145.051 145.423 144.411 145.103C144.381 145.084 144.356 145.06 144.336 145.032C144.316 145.003 144.302 144.971 144.294 144.937C144.287 144.903 144.286 144.868 144.292 144.833C144.299 144.799 144.312 144.766 144.331 144.737C144.347 144.705 144.37 144.677 144.398 144.655C144.426 144.633 144.458 144.617 144.493 144.609C144.528 144.6 144.564 144.599 144.599 144.605C144.634 144.612 144.667 144.625 144.697 144.645C145.314 145.023 145.921 145.435 146.516 145.858C146.564 145.909 146.591 145.977 146.591 146.047C146.591 146.117 146.564 146.185 146.516 146.236C146.465 146.257 146.409 146.261 146.356 146.247ZM142.683 143.959H142.557C141.928 143.616 141.276 143.307 140.624 143.01C140.591 142.996 140.561 142.976 140.537 142.95C140.512 142.925 140.492 142.895 140.48 142.862C140.467 142.828 140.461 142.793 140.462 142.757C140.463 142.722 140.472 142.687 140.487 142.655C140.5 142.622 140.52 142.592 140.546 142.568C140.571 142.543 140.602 142.523 140.635 142.51C140.668 142.498 140.703 142.492 140.739 142.493C140.774 142.494 140.809 142.503 140.841 142.518C141.505 142.815 142.168 143.135 142.809 143.479C142.84 143.495 142.868 143.518 142.89 143.546C142.913 143.573 142.929 143.605 142.939 143.64C142.948 143.674 142.951 143.71 142.946 143.745C142.942 143.78 142.93 143.814 142.912 143.845C142.888 143.882 142.853 143.913 142.813 143.933C142.773 143.953 142.728 143.962 142.683 143.959ZM138.725 142.209H138.633C137.958 141.968 137.272 141.751 136.586 141.557C136.551 141.546 136.519 141.529 136.491 141.506C136.463 141.483 136.44 141.455 136.423 141.423C136.406 141.391 136.395 141.356 136.392 141.32C136.388 141.284 136.392 141.248 136.402 141.213C136.412 141.179 136.428 141.147 136.449 141.119C136.471 141.092 136.498 141.068 136.529 141.051C136.56 141.034 136.595 141.024 136.63 141.02C136.665 141.016 136.7 141.02 136.734 141.03C137.432 141.236 138.13 141.454 138.816 141.705C138.882 141.731 138.935 141.781 138.965 141.845C138.995 141.909 138.999 141.982 138.977 142.049C138.956 142.098 138.921 142.139 138.876 142.168C138.831 142.196 138.778 142.211 138.725 142.209ZM134.561 141.065C133.874 140.916 133.153 140.79 132.444 140.687C132.405 140.687 132.366 140.678 132.33 140.662C132.295 140.645 132.263 140.621 132.237 140.591C132.212 140.561 132.193 140.526 132.182 140.489C132.171 140.451 132.168 140.411 132.174 140.372C132.18 140.333 132.194 140.296 132.216 140.263C132.237 140.23 132.265 140.202 132.298 140.181C132.332 140.16 132.369 140.146 132.408 140.141C132.447 140.135 132.486 140.138 132.524 140.149C133.245 140.252 133.966 140.39 134.675 140.538C134.71 140.545 134.743 140.559 134.773 140.579C134.802 140.599 134.827 140.625 134.846 140.654C134.866 140.684 134.879 140.718 134.885 140.753C134.891 140.788 134.889 140.824 134.881 140.859C134.856 140.919 134.809 140.969 134.75 140.998C134.692 141.028 134.624 141.035 134.561 141.019V141.065ZM130.282 140.435C129.573 140.435 128.852 140.344 128.131 140.332C128.091 140.341 128.05 140.34 128.01 140.33C127.971 140.321 127.934 140.302 127.902 140.277C127.87 140.251 127.845 140.218 127.827 140.182C127.81 140.145 127.801 140.104 127.801 140.064C127.801 140.023 127.81 139.983 127.827 139.946C127.845 139.909 127.87 139.876 127.902 139.851C127.934 139.825 127.971 139.807 128.01 139.797C128.05 139.787 128.091 139.786 128.131 139.795C128.863 139.795 129.595 139.795 130.316 139.898C130.378 139.911 130.434 139.944 130.473 139.993C130.513 140.042 130.535 140.103 130.535 140.167C130.535 140.23 130.513 140.291 130.473 140.34C130.434 140.389 130.378 140.423 130.316 140.435H130.282Z" fill="#AAB6C2"/>
<path d="M51.1494 194.574V196.244H116.153L116.233 194.574H51.1494Z" fill="black"/>
<path d="M51.1494 199.605V201.276H168.596L168.676 199.605H51.1494Z" fill="black"/>
<path d="M51.1494 204.639V206.309H160.199L160.267 204.639H51.1494Z" fill="black"/>
<path d="M122.96 196.244H143.026L143.095 194.574H123.029L122.96 196.244Z" fill="black"/>
<path d="M106.715 43.4571C106.875 28.9737 98.0432 14.3301 84.658 14.3301C76.1349 14.3301 63.9968 23.3222 62.2235 33.2638C62.0275 33.2085 61.8497 33.1019 61.7087 32.9549C58.559 30.3656 54.5699 29.0197 50.4954 29.1714C46.4208 29.3232 42.5429 30.9622 39.5945 33.7786C36.8643 36.3879 34.7634 39.5841 33.4511 43.1254C29.4615 43.6753 25.8014 45.6378 23.1355 48.6564C20.4695 51.675 18.9745 55.5496 18.9219 59.5766C18.9641 64.1 20.7907 68.4238 24.0043 71.6075C27.218 74.7911 31.5587 76.5771 36.0824 76.5769H108.625C113.688 76.5863 118.55 74.5964 122.154 71.0401C125.757 67.4837 127.811 62.6485 127.868 57.586C127.788 47.4269 118.865 37.0734 106.715 43.4571Z" fill="black"/>
<path d="M44.3991 29.248H50.657L51.2405 37.691H41.5391L44.3991 29.248Z" fill="black"/>
<path d="M77.7701 14.3301H84.6343V27.0632C84.6343 27.0632 71.7754 28.2072 71.7754 27.8869C71.7754 27.5665 77.7701 14.3301 77.7701 14.3301Z" fill="black"/>
<path d="M105.456 41.5117H113.453L112.927 53.4669L93.9932 56.2697L105.456 41.5117Z" fill="black"/>
<path d="M99.7816 43.4571C99.9418 28.9737 91.1099 14.3301 77.7247 14.3301C69.2016 14.3301 57.0634 23.3222 55.2902 33.2638C55.0942 33.2085 54.9164 33.1019 54.7754 32.9549C51.6257 30.3656 47.6366 29.0197 43.562 29.1714C39.4875 29.3232 35.6096 30.9622 32.6612 33.7786C29.9247 36.4029 27.8202 39.6146 26.5063 43.1711C22.5199 43.7239 18.8639 45.6878 16.2022 48.7064C13.5405 51.7251 12.0495 55.5981 12 59.6223C12.0422 64.1458 13.8688 68.4696 17.0825 71.6532C20.2961 74.8369 24.6369 76.6229 29.1605 76.6227H101.692C106.763 76.6319 111.632 74.6358 115.236 71.0696C118.841 67.5034 120.89 62.6565 120.935 57.586C120.866 47.4269 111.931 37.0734 99.7816 43.4571Z" fill="#3CBCC3"/>
<path d="M73.0575 80.6498V67.6651H78.423L66.5136 53.6621L54.5928 67.6651H59.9583V80.6498H73.0575Z" fill="black"/>
<path d="M62.2811 53.6621H66.5141L67.3034 61.0182L61.915 62.8601L62.2811 53.6621Z" fill="black"/>
<path d="M55.954 80.4199V67.4351H50.8516L62.2805 54.0156L73.6979 67.4351H68.5955V80.4199H55.954Z" fill="white"/>
<path d="M62.2688 54.3714L73.2057 67.2075H68.3664V80.1922H56.1825V67.2075H51.3432L62.2688 54.3714ZM62.2688 53.6621L50.3594 67.6651H55.7249V80.6842H68.8355V67.6651H74.201L62.2688 53.6621Z" fill="black"/>
<path d="M78.9379 76.6211H73.0576V80.6481H78.9379V76.6211Z" fill="black"/>
<path d="M208.031 255.205H208.237C208.632 255.149 208.989 254.937 209.23 254.618C209.47 254.298 209.573 253.896 209.518 253.501L201.933 190.51C201.858 190.131 201.641 189.795 201.326 189.572C201.011 189.348 200.622 189.254 200.24 189.308C199.857 189.362 199.51 189.561 199.27 189.863C199.029 190.166 198.914 190.549 198.947 190.933L206.543 253.97C206.603 254.319 206.786 254.636 207.059 254.862C207.332 255.089 207.676 255.21 208.031 255.205Z" fill="black"/>
<path d="M232.078 255.205H232.295C232.691 255.149 233.048 254.937 233.288 254.618C233.528 254.298 233.632 253.896 233.576 253.501L225.98 190.51C225.905 190.131 225.688 189.795 225.373 189.572C225.058 189.348 224.669 189.254 224.286 189.308C223.904 189.362 223.557 189.561 223.316 189.863C223.076 190.166 222.961 190.549 222.994 190.933L230.59 253.97C230.652 254.318 230.836 254.633 231.108 254.859C231.38 255.085 231.724 255.208 232.078 255.205Z" fill="black"/>
<path d="M206.646 235.392H227.788C228.188 235.392 228.572 235.233 228.855 234.949C229.139 234.666 229.298 234.282 229.298 233.882C229.298 233.684 229.259 233.488 229.183 233.305C229.107 233.123 228.995 232.957 228.855 232.818C228.714 232.678 228.548 232.568 228.365 232.494C228.181 232.419 227.985 232.381 227.788 232.383H206.646C206.448 232.381 206.252 232.419 206.069 232.494C205.886 232.568 205.719 232.678 205.579 232.818C205.438 232.957 205.327 233.123 205.251 233.305C205.175 233.488 205.136 233.684 205.136 233.882C205.136 234.282 205.295 234.666 205.578 234.949C205.861 235.233 206.245 235.392 206.646 235.392Z" fill="black"/>
<path d="M212.846 255.207C213.209 255.21 213.561 255.08 213.835 254.842C214.109 254.604 214.286 254.274 214.333 253.914L221.93 192.594C221.97 192.393 221.968 192.185 221.925 191.985C221.882 191.784 221.799 191.594 221.68 191.427C221.561 191.26 221.409 191.118 221.234 191.011C221.059 190.905 220.864 190.835 220.66 190.806C220.457 190.777 220.25 190.79 220.052 190.844C219.854 190.898 219.669 190.991 219.508 191.119C219.348 191.247 219.215 191.406 219.118 191.587C219.021 191.768 218.962 191.966 218.944 192.171L211.359 253.491C211.33 253.687 211.34 253.887 211.389 254.079C211.438 254.272 211.524 254.452 211.643 254.611C211.763 254.769 211.912 254.903 212.083 255.003C212.254 255.104 212.444 255.169 212.64 255.196L212.846 255.207Z" fill="black"/>
<path d="M188.798 255.206C189.16 255.204 189.509 255.073 189.782 254.835C190.055 254.598 190.234 254.271 190.286 253.913L197.871 192.593C197.898 192.397 197.888 192.199 197.838 192.008C197.789 191.816 197.703 191.637 197.585 191.479C197.466 191.321 197.318 191.188 197.148 191.088C196.978 190.988 196.79 190.922 196.595 190.894C196.4 190.866 196.201 190.877 196.01 190.926C195.819 190.975 195.639 191.061 195.481 191.18C195.324 191.298 195.191 191.447 195.09 191.616C194.99 191.786 194.924 191.974 194.896 192.169L187.3 253.49C187.244 253.886 187.348 254.287 187.588 254.607C187.828 254.926 188.185 255.138 188.581 255.194L188.798 255.206Z" fill="black"/>
<path d="M193.089 235.392H214.231C214.631 235.392 215.016 235.233 215.299 234.949C215.582 234.666 215.741 234.282 215.741 233.882C215.741 233.684 215.702 233.488 215.626 233.305C215.55 233.123 215.438 232.957 215.298 232.818C215.158 232.678 214.991 232.568 214.808 232.494C214.625 232.419 214.429 232.381 214.231 232.383H193.089C192.891 232.381 192.695 232.419 192.512 232.494C192.329 232.568 192.162 232.678 192.022 232.818C191.882 232.957 191.77 233.123 191.694 233.305C191.618 233.488 191.579 233.684 191.579 233.882C191.579 234.282 191.738 234.666 192.021 234.949C192.305 235.233 192.689 235.392 193.089 235.392Z" fill="black"/>
<path d="M230.51 182.502H192.002C191.31 182.502 190.647 182.777 190.158 183.266C189.668 183.755 189.394 184.419 189.394 185.11V190.67C189.397 191.36 189.673 192.021 190.162 192.507C190.65 192.994 191.312 193.267 192.002 193.267H230.51C231.2 193.267 231.862 192.994 232.35 192.507C232.839 192.021 233.115 191.36 233.118 190.67V185.11C233.118 184.419 232.844 183.755 232.354 183.266C231.865 182.777 231.202 182.502 230.51 182.502Z" fill="#AAB6C2"/>
<path d="M189.794 222.623C189.657 221.811 193.798 218.047 194.073 218.219C194.954 218.779 198.043 221.216 198.077 221.96C198.111 222.703 194.359 226.787 193.501 226.204C192.643 225.62 189.92 223.401 189.794 222.623Z" fill="white"/>
<path d="M193.752 226.549C193.621 226.555 193.491 226.515 193.386 226.435C193.386 226.435 189.68 223.712 189.508 222.671C189.336 221.63 192.871 218.598 193.592 218.095C193.81 217.958 194.027 217.82 194.233 217.946C194.439 218.072 198.317 220.886 198.363 221.927C198.363 222.751 195.697 225.634 194.416 226.32C194.215 226.446 193.988 226.524 193.752 226.549ZM193.752 225.977C193.752 225.977 193.878 225.977 194.279 225.783C195.729 224.787 196.94 223.482 197.825 221.962C197.825 221.47 195.24 219.307 194.05 218.53C193.26 218.907 190.103 221.962 190.114 222.591C190.126 223.22 192.517 225.096 193.752 226.023V225.977Z" fill="black"/>
<path d="M197.448 220.861C197.448 220.861 201.91 221.422 202.825 224.717C202.825 224.717 194.302 235.105 191.121 237.69C191.121 237.69 187.381 234.452 189.394 231.592C190.746 229.709 192.226 227.92 193.821 226.238C193.821 226.238 197.791 224.568 197.448 220.861Z" fill="#AAB6C2"/>
<path d="M210.891 174.221C208.042 181.085 196.282 184.723 187.576 187.743C182.359 189.562 181.924 191.679 181.512 193.658C179.876 201.403 193.033 211.894 196.533 218.301C196.625 219.445 195.527 220.589 194.154 221.55C192.542 222.614 190.82 223.5 189.017 224.192C178.252 212.912 161.938 197.616 163.608 186.657C166.4 168.226 193.17 157.861 193.17 157.861C197.574 152.221 215.867 162.174 210.891 174.221Z" fill="black"/>
<path d="M204.644 222.602C204.644 221.778 209.3 218.69 209.563 218.918C210.341 219.605 212.995 222.488 212.926 223.231C212.858 223.975 208.499 227.43 207.79 226.732C207.08 226.034 204.644 223.391 204.644 222.602Z" fill="white"/>
<path d="M208.076 227.119C207.987 227.123 207.899 227.109 207.816 227.077C207.734 227.046 207.659 226.998 207.595 226.936C207.595 226.936 204.357 223.664 204.357 222.612C204.357 221.616 208.304 219.111 209.094 218.745C209.323 218.642 209.563 218.55 209.746 218.745C209.929 218.939 213.327 222.28 213.178 223.321C213.075 224.145 209.963 226.57 208.602 227.051C208.431 227.1 208.253 227.123 208.076 227.119ZM207.995 226.536C207.995 226.536 208.11 226.593 208.545 226.421C210.133 225.665 211.533 224.563 212.64 223.195C212.64 222.715 210.501 220.175 209.448 219.214C208.613 219.466 205.01 222.028 204.929 222.646C204.849 223.264 206.92 225.495 207.995 226.57V226.536Z" fill="black"/>
<path d="M197.38 161.534C197.3 161.516 197.218 161.517 197.139 161.537C197.06 161.556 196.986 161.593 196.923 161.644C196.86 161.696 196.81 161.761 196.776 161.835C196.742 161.909 196.726 161.99 196.728 162.072L196.579 162.152C191.465 166.293 184.304 168.375 180.62 174.141C178.982 176.54 177.738 179.186 176.936 181.978C176.024 185.533 175.803 189.23 176.284 192.869C176.844 200.076 180.219 204.973 184.292 210.956C186.295 213.98 188.658 216.749 191.328 219.205C192.216 220.036 193.164 220.801 194.165 221.493C195.538 220.532 196.636 219.399 196.545 218.244C193.044 211.837 179.888 201.346 181.524 193.601C181.935 191.622 182.37 189.505 187.587 187.686C189.372 185.098 191.301 182.611 193.364 180.239C196.053 177.138 199.245 174.519 201.853 171.327C205.64 166.751 202.757 162.609 197.38 161.534Z" fill="black"/>
<path d="M212.481 222.053C212.481 222.053 216.794 223.288 217.183 226.698C217.183 226.698 207.15 235.632 203.604 237.692C203.604 237.692 200.412 233.905 202.848 231.399C204.48 229.755 206.223 228.226 208.065 226.823C208.065 226.823 212.241 225.759 212.481 222.053Z" fill="#AAB6C2"/>
<path d="M226.712 175.891C221.347 186.519 200.399 183.499 198.878 188.67C196.59 196.266 206.955 216.722 211.394 219.559C211.274 219.956 211.113 220.339 210.913 220.703C209.6 222.665 207.959 224.388 206.062 225.794C197.276 218.152 181.008 200.419 180.276 188.441C179.132 169.851 210.295 158.273 210.295 158.273C214.242 153.971 226.609 160.721 227.81 169.713C228.079 171.836 227.696 173.991 226.712 175.891Z" fill="black"/>
<path d="M227.753 169.621C226.872 164.199 224.63 162.757 223.44 162.837C222.788 162.894 223.795 169.896 224.218 170.17C221.369 178.304 212.171 180.398 204.609 181.874C199.244 182.926 194.919 184.505 193.752 190.374C193.054 193.806 194.141 193.646 195.354 196.941C196.567 200.236 197.642 203.485 199.118 206.642C201.633 212.322 205.702 217.176 210.856 220.645C211.055 220.281 211.216 219.898 211.336 219.501C206.897 216.664 196.59 196.209 198.82 188.612C200.331 183.441 221.289 186.461 226.655 175.833C227.646 173.923 228.029 171.755 227.753 169.621Z" fill="black"/>
<path d="M229.527 106.721C228.165 107.304 225.191 109.1 223.052 106.801C222.243 105.644 221.625 104.366 221.221 103.014C220.663 101.333 220.006 99.6864 219.253 98.0832C218.326 96.0022 216.664 94.3362 214.586 93.4041C211.154 92.18 206.303 95.2346 205.685 98.7124C205.657 98.8546 205.678 99.0022 205.744 99.131C205.811 99.2599 205.919 99.3624 206.051 99.4217C206.088 99.4756 206.135 99.5222 206.189 99.559C208.477 101.081 210.479 100.566 212.08 103.632C212.893 105.211 212.961 107.064 213.487 108.78C214.448 111.869 216.622 114.958 219.803 116.022C224.905 117.738 231.071 112.189 230.751 107.11C230.717 106.446 229.939 106.355 229.527 106.721Z" fill="black"/>
<path d="M179.807 154.783C180.528 155.675 184.051 157.277 185.024 157.071C191.499 156.122 195 150.539 197.551 147.919C197.958 147.479 198.34 147.017 198.695 146.535C200.19 144.52 201.147 142.157 201.475 139.67C201.661 138.498 201.715 137.308 201.635 136.124C201.635 136.124 204.987 119.032 201.258 120.748C197.528 122.464 193.101 129.374 189.691 135.277L189.394 135.769L188.776 136.833C188.25 137.748 187.758 138.618 187.312 139.361C186.339 140.997 183.88 144.75 183.88 144.75C183.88 144.75 176.81 151.134 179.807 154.783Z" fill="white"/>
<path d="M184.886 157.415C182.93 157.087 181.097 156.242 179.578 154.967C176.523 151.237 183.124 145.162 183.685 144.67C183.925 144.304 186.179 140.849 187.117 139.316C187.563 138.596 188.032 137.749 188.547 136.857C188.696 136.616 188.833 136.376 188.97 136.136L189.176 135.781L189.348 135.484L189.462 135.289C192.597 129.878 197.219 122.476 201.166 120.646C201.359 120.537 201.58 120.486 201.801 120.5C202.022 120.515 202.235 120.593 202.413 120.726C204.575 122.419 202.252 134.706 201.944 136.296C202.017 137.492 201.963 138.692 201.783 139.877C201.439 142.397 200.463 144.79 198.946 146.833C198.574 147.329 198.169 147.799 197.734 148.24C197.276 148.72 196.773 149.315 196.235 149.933C193.787 152.793 190.435 156.706 185.046 157.483L184.886 157.415ZM201.772 120.989C201.645 120.992 201.52 121.023 201.406 121.08C197.608 122.842 193.054 130.153 189.966 135.495L189.851 135.69C189.797 135.797 189.736 135.9 189.668 135.999L189.474 136.342L189.062 137.063C188.547 137.966 188.055 138.801 187.62 139.534C186.659 141.158 184.188 144.899 184.188 144.933V144.991C184.12 144.991 177.324 151.157 180.104 154.543C181.528 155.707 183.232 156.476 185.046 156.774C190.229 156.019 193.489 152.198 195.88 149.418C196.418 148.777 196.933 148.183 197.413 147.691C197.823 147.265 198.205 146.814 198.557 146.341C200.015 144.375 200.951 142.073 201.28 139.648C201.456 138.513 201.51 137.362 201.44 136.216V136.124C202.504 130.702 203.568 122.202 202.127 121.069C202.076 121.031 202.019 121.005 201.958 120.991C201.897 120.977 201.833 120.977 201.772 120.989Z" fill="black"/>
<path d="M201.658 136.204C201.73 137.389 201.677 138.578 201.497 139.751C201.091 142.884 199.779 145.83 197.722 148.228C195.205 151.065 186.591 137.245 189.062 133.768C192.826 128.471 197.756 121.961 201.44 120.257C205.124 118.552 201.658 136.204 201.658 136.204Z" fill="#3CBCC3"/>
<path d="M195.011 135.151C195.011 135.151 196.155 138.892 195.4 141.329C194.903 142.834 193.947 144.146 192.666 145.081C193.507 146.25 194.512 147.29 195.652 148.17C196.796 148.708 201.223 137.988 198.569 136.123C195.915 134.259 195.011 135.151 195.011 135.151Z" fill="black"/>
<path d="M186.133 162.414C186.133 162.414 214.425 172.894 229.995 164.165C229.995 164.165 220.133 154.292 220.534 143.87C220.534 143.412 220.591 142.954 220.648 142.485C220.763 141.582 220.934 140.643 221.129 139.671C223.257 129.089 228.531 116.012 206.256 117.34C206.256 117.34 193.729 123.574 194.015 130.553C194.301 137.532 199.461 138.561 195.502 146.432C192.651 151.914 189.523 157.248 186.133 162.414Z" fill="#3CBCC3"/>
<path d="M215.421 137.291C216.496 139.236 219.07 146.958 220.958 148.388C220.958 147.931 220.592 142.954 220.649 142.485C220.763 141.581 220.935 140.643 221.129 139.671C220.319 138.211 219.276 136.893 218.04 135.77C213.979 131.937 214.334 122.533 214.334 122.533C213.407 127.235 213.853 134.454 215.421 137.291Z" fill="black"/>
<path d="M203.912 114.318V118.265C203.912 118.265 202.86 120.209 203.912 120.427C206.2 120.884 209.632 117.258 209.632 117.258V111.961L203.912 114.318Z" fill="white"/>
<path d="M204.346 120.725C204.187 120.743 204.026 120.743 203.866 120.725C203.735 120.704 203.611 120.652 203.505 120.572C203.399 120.492 203.315 120.387 203.26 120.267C202.951 119.626 203.477 118.517 203.626 118.219V114.135L209.895 111.572V117.395L209.826 117.487C209.689 117.59 206.737 120.725 204.346 120.725ZM204.198 114.49V118.379C203.898 118.857 203.761 119.419 203.809 119.981C203.825 120.019 203.852 120.053 203.887 120.077C203.921 120.101 203.961 120.115 204.003 120.118C205.959 120.519 208.854 117.636 209.357 117.121V112.385L204.198 114.49Z" fill="black"/>
<path d="M201.052 103.566C200.566 106.416 200.482 109.319 200.8 112.192C201.223 114.995 207.207 117.134 210.135 112.192C213.064 107.25 210.273 101.713 210.273 101.713L201.052 103.566Z" fill="white"/>
<path d="M205.307 115.439C204.923 115.44 204.54 115.405 204.163 115.336C203.315 115.241 202.515 114.895 201.865 114.343C201.215 113.79 200.744 113.057 200.513 112.236C200.192 109.337 200.272 106.407 200.754 103.53V103.335L210.386 101.379L210.478 101.573C210.478 101.573 213.315 107.294 210.341 112.316C209.854 113.236 209.131 114.01 208.247 114.559C207.362 115.108 206.347 115.412 205.307 115.439ZM201.303 103.816C200.847 106.572 200.774 109.379 201.085 112.156C201.308 112.854 201.728 113.472 202.294 113.937C202.86 114.402 203.549 114.693 204.277 114.776C205.384 114.98 206.528 114.824 207.539 114.33C208.55 113.835 209.376 113.029 209.894 112.03C212.4 107.774 210.558 103.038 210.112 102.031L201.303 103.816Z" fill="black"/>
<path d="M199.06 103.989C199.289 103.749 199.644 103.635 199.861 103.383C200.525 102.616 200.113 102.468 200.433 101.804C200.693 101.264 201.087 100.799 201.577 100.454C202.967 99.5689 204.586 99.1114 206.233 99.1385C206.331 99.1309 206.428 99.1477 206.517 99.1874C206.606 99.2271 206.683 99.2884 206.742 99.3658C206.802 99.4431 206.84 99.534 206.855 99.6302C206.87 99.7263 206.861 99.8248 206.828 99.9164C208.447 99.9166 210.017 100.47 211.279 101.484C212.219 102.348 212.914 103.445 213.292 104.665C213.67 105.885 213.717 107.184 213.429 108.428C212.88 110.224 211.37 112.009 209.791 110.281C208.741 109.023 208.084 107.483 207.904 105.854C207.8 105.319 207.646 104.794 207.446 104.287C206.959 103.854 206.377 103.542 205.747 103.375C205.117 103.208 204.457 103.191 203.82 103.326C203.602 103.726 203.476 104.252 203.282 104.641C202.987 105.227 202.569 105.742 202.058 106.151C201.685 106.527 201.196 106.765 200.67 106.827C200.145 106.89 199.614 106.772 199.163 106.495C198.982 106.343 198.835 106.156 198.73 105.944C198.626 105.732 198.567 105.501 198.557 105.265C198.547 105.029 198.587 104.793 198.674 104.574C198.761 104.354 198.892 104.155 199.06 103.989Z" fill="black"/>
<path d="M207.63 106.368C207.63 106.368 209.037 105.144 209.735 106.368C209.884 106.569 209.979 106.806 210.009 107.055C210.039 107.303 210.004 107.555 209.907 107.786C209.81 108.017 209.655 108.219 209.456 108.372C209.257 108.524 209.022 108.622 208.774 108.656C208.076 108.553 207.413 106.997 207.63 106.368Z" fill="white"/>
<path d="M208.831 108.898H208.75C208.55 108.861 208.36 108.779 208.196 108.658C208.031 108.537 207.896 108.38 207.801 108.2C207.404 107.643 207.244 106.952 207.355 106.278V106.198H207.412C207.865 105.787 208.46 105.57 209.071 105.591C209.26 105.624 209.438 105.702 209.591 105.817C209.744 105.933 209.868 106.083 209.952 106.255C210.136 106.55 210.234 106.891 210.234 107.239C210.234 107.587 210.136 107.928 209.952 108.223C209.831 108.415 209.666 108.576 209.471 108.693C209.277 108.811 209.057 108.881 208.831 108.898ZM207.881 106.529C207.869 107.01 208.009 107.483 208.281 107.879C208.453 108.143 208.648 108.314 208.796 108.326C208.942 108.315 209.082 108.267 209.205 108.187C209.327 108.107 209.426 107.997 209.494 107.868C209.624 107.663 209.693 107.425 209.693 107.182C209.693 106.938 209.624 106.7 209.494 106.495C209.45 106.397 209.384 106.311 209.3 106.243C209.217 106.176 209.119 106.129 209.014 106.106C208.597 106.106 208.195 106.257 207.881 106.529Z" fill="black"/>
<path d="M210.055 100.19C209.486 99.5437 208.779 99.0329 207.988 98.6945C207.196 98.3561 206.339 98.1985 205.479 98.2332C204.586 98.2332 204.335 99.5603 205.273 99.6175C205.939 99.5732 206.607 99.6752 207.229 99.9163C207.852 100.157 208.414 100.532 208.876 101.013C208.986 101.169 209.153 101.276 209.34 101.309C209.528 101.342 209.721 101.3 209.878 101.191C210.034 101.081 210.14 100.914 210.173 100.727C210.207 100.539 210.164 100.346 210.055 100.19Z" fill="#3CBCC3"/>
<path d="M235.785 158.248C230.911 165.112 209.289 158.66 209.289 158.66L209.598 154.873C209.598 154.873 222.308 155.903 224.848 151.681C225.306 150.915 223.956 142.14 221.599 139.875C220.546 138.857 219.425 137.861 218.464 137.026C216.086 135.02 214.47 132.257 213.888 129.201C213.432 126.741 213.65 124.203 214.517 121.856C214.755 121.232 215.138 120.673 215.635 120.225C216.132 119.778 216.728 119.456 217.374 119.285C218.021 119.114 218.698 119.099 219.351 119.242C220.004 119.385 220.614 119.681 221.13 120.106C225.397 123.595 232.296 132.53 232.467 132.748C238.599 140.744 240.67 151.384 235.785 158.248Z" fill="white"/>
<path d="M226.209 161.693C218.635 161.693 209.78 159.096 209.208 158.936L208.979 158.867L209.334 154.566H209.62C209.735 154.566 222.205 155.538 224.596 151.511C224.939 150.802 223.715 142.279 221.392 140.071C220.477 139.19 219.402 138.206 218.28 137.234C215.858 135.177 214.218 132.349 213.636 129.225C213.174 126.716 213.392 124.129 214.265 121.732C214.505 121.072 214.9 120.48 215.418 120.006C215.936 119.532 216.561 119.19 217.239 119.009C217.939 118.818 218.675 118.796 219.385 118.945C220.095 119.095 220.76 119.411 221.324 119.867C225.316 123.116 231.483 130.976 232.684 132.52C239.331 141.203 240.692 151.831 236.013 158.387C234.251 160.892 230.43 161.693 226.209 161.693ZM209.552 158.478C211.84 159.13 231.059 164.336 235.51 158.112C240.086 151.763 238.679 141.409 232.215 132.943C230.991 131.376 224.859 123.562 220.923 120.359C220.43 119.957 219.847 119.678 219.224 119.547C218.601 119.416 217.956 119.435 217.342 119.604C216.752 119.761 216.209 120.058 215.759 120.471C215.309 120.883 214.965 121.398 214.757 121.972C213.919 124.274 213.71 126.758 214.151 129.168C214.709 132.161 216.286 134.869 218.612 136.833C219.756 137.817 220.82 138.801 221.747 139.693C224.195 142.05 225.579 150.962 225.042 151.854C222.639 155.87 211.771 155.286 209.815 155.206L209.552 158.478Z" fill="black"/>
<path d="M221.576 141.752C220.603 140.826 214.105 134.888 213.167 128.893C212.744 126.182 213.488 119.455 216.862 118.677C222.274 117.419 229.984 125.404 234.972 131.342C232.684 136.501 227.662 140.174 221.576 141.752Z" fill="#3CBCC3"/>
<path d="M194.416 159.967L208.488 160.813L195.022 164.589L194.416 159.967Z" fill="#AAB6C2"/>
<path d="M195.308 164.805L208.213 161.189L208.259 161.945L195.297 165.903L195.308 164.805Z" fill="white"/>
<path d="M207.95 161.554V161.737L195.572 165.513V165.021L207.939 161.588L207.95 161.554ZM208.488 160.811L195.022 164.586V166.29L208.568 162.149L208.499 160.811H208.488Z" fill="black"/>
<path d="M165.907 162.838L195.023 164.588L195.011 166.293L165.907 164.348V162.838Z" fill="#AAB6C2"/>
<path d="M166.159 162.563L163.996 147.416C163.983 147.294 163.996 147.172 164.033 147.055C164.071 146.939 164.132 146.832 164.214 146.741C164.293 146.646 164.393 146.57 164.506 146.519C164.619 146.467 164.742 146.442 164.866 146.443L191.682 148.068C191.883 148.077 192.075 148.156 192.223 148.292C192.372 148.428 192.468 148.612 192.494 148.812L194.679 164.29L166.159 162.563Z" fill="white"/>
<path d="M164.866 146.73L191.637 148.355C191.772 148.36 191.901 148.413 192 148.506C192.099 148.598 192.161 148.723 192.174 148.858L194.314 163.982L166.376 162.289L164.248 147.417C164.239 147.334 164.247 147.251 164.272 147.171C164.298 147.092 164.341 147.02 164.397 146.959C164.451 146.897 164.518 146.847 164.593 146.813C164.668 146.78 164.75 146.763 164.832 146.765L164.866 146.73ZM164.866 146.158C164.702 146.157 164.538 146.191 164.388 146.258C164.238 146.325 164.104 146.424 163.995 146.548C163.886 146.672 163.806 146.817 163.759 146.975C163.712 147.133 163.699 147.299 163.722 147.462L165.907 162.838L195.023 164.589L192.735 148.778C192.7 148.513 192.574 148.268 192.377 148.086C192.181 147.904 191.927 147.797 191.659 147.783L164.935 146.158H164.866Z" fill="black"/>
<path d="M198.477 153.992C199.413 153.705 200.396 153.6 201.372 153.683C201.498 153.683 201.612 153.683 201.726 153.683L201.532 153.363C201.212 152.642 201.154 151.441 202.035 151.075C202.916 150.709 203.557 151.887 204.037 152.459C204.577 153.159 205.245 153.749 206.005 154.198C206.814 154.465 207.651 154.642 208.499 154.725C209.094 154.839 210.089 154.862 210.455 155.457C210.724 156.085 210.784 156.783 210.627 157.447C210.455 158.122 209.872 158.431 209.289 158.706C208.785 158.927 208.254 159.081 207.71 159.163C206.763 159.505 205.738 159.565 204.758 159.335C204.547 159.279 204.344 159.198 204.152 159.095C203.286 159.461 202.334 159.576 201.406 159.426C201.313 159.413 201.225 159.378 201.147 159.325C201.07 159.272 201.006 159.202 200.959 159.12C200.913 159.039 200.886 158.948 200.88 158.854C200.874 158.76 200.89 158.667 200.926 158.58C200.737 158.526 200.565 158.428 200.422 158.294C200.27 158.133 200.184 157.92 200.182 157.699C200.004 157.602 199.842 157.479 199.702 157.333C199.472 157.114 199.312 156.832 199.241 156.523C199.17 156.214 199.191 155.891 199.301 155.594C198.399 156.062 197.595 156.699 196.933 157.47C196.858 157.562 196.76 157.633 196.649 157.674C196.537 157.716 196.417 157.726 196.3 157.705C196.183 157.684 196.074 157.632 195.984 157.555C195.894 157.477 195.827 157.377 195.789 157.264C195.16 155.777 197.356 154.37 198.477 153.992Z" fill="white"/>
<path d="M202.207 159.738C201.923 159.738 201.64 159.715 201.36 159.669C201.231 159.652 201.108 159.606 200.999 159.535C200.89 159.464 200.798 159.369 200.731 159.257C200.637 159.094 200.593 158.907 200.605 158.72C200.46 158.652 200.328 158.559 200.216 158.445C200.056 158.274 199.952 158.059 199.919 157.827C199.766 157.732 199.625 157.621 199.495 157.496C199.31 157.311 199.163 157.092 199.063 156.85C198.963 156.609 198.911 156.35 198.912 156.088C198.256 156.519 197.66 157.035 197.139 157.621C197.038 157.737 196.91 157.826 196.766 157.88C196.622 157.934 196.467 157.951 196.315 157.93C196.15 157.901 195.994 157.831 195.863 157.728C195.731 157.624 195.627 157.489 195.56 157.335C195.461 157.122 195.409 156.89 195.409 156.655C195.409 156.42 195.461 156.187 195.56 155.974C196.185 154.892 197.187 154.077 198.374 153.686C199.301 153.389 200.275 153.272 201.246 153.343C200.983 152.762 200.951 152.104 201.154 151.501C201.222 151.326 201.326 151.167 201.457 151.033C201.589 150.899 201.747 150.794 201.921 150.723C202.882 150.334 203.545 151.238 203.98 151.867C204.071 152.004 204.163 152.119 204.243 152.222C204.758 152.895 205.394 153.465 206.119 153.903C206.696 154.107 207.295 154.242 207.904 154.304L208.522 154.407H208.842C209.188 154.403 209.53 154.474 209.845 154.614C210.161 154.754 210.443 154.96 210.673 155.219C210.984 155.912 211.056 156.688 210.878 157.427C210.76 157.769 210.563 158.077 210.302 158.328C210.042 158.578 209.726 158.764 209.38 158.868C208.854 159.102 208.3 159.267 207.732 159.36C206.743 159.707 205.675 159.763 204.655 159.521C204.475 159.468 204.299 159.403 204.129 159.326C203.518 159.578 202.867 159.718 202.207 159.738ZM199.816 154.979L199.564 155.642C199.475 155.892 199.46 156.162 199.521 156.419C199.582 156.677 199.716 156.912 199.907 157.095C200.033 157.218 200.175 157.322 200.33 157.404L200.468 157.484V157.644C200.468 157.793 200.525 157.937 200.628 158.045C200.739 158.147 200.872 158.221 201.017 158.262L201.303 158.354L201.2 158.628C201.174 158.682 201.161 158.74 201.161 158.8C201.161 158.859 201.174 158.918 201.2 158.971C201.224 159.008 201.256 159.038 201.294 159.059C201.332 159.081 201.374 159.094 201.417 159.097C202.298 159.248 203.204 159.141 204.026 158.788H204.14H204.254C204.434 158.878 204.622 158.951 204.815 159.006C205.743 159.213 206.711 159.153 207.607 158.834C208.134 158.751 208.65 158.601 209.14 158.388C209.689 158.136 210.192 157.873 210.284 157.324C210.425 156.734 210.381 156.115 210.158 155.551C209.917 155.173 209.254 155.082 208.728 155.002H208.396L207.778 154.91C207.118 154.835 206.469 154.682 205.845 154.452C205.039 153.987 204.332 153.369 203.763 152.633C203.671 152.53 203.58 152.393 203.477 152.256C202.985 151.581 202.596 151.112 202.092 151.329C201.987 151.371 201.892 151.434 201.813 151.515C201.734 151.596 201.674 151.692 201.635 151.798C201.495 152.268 201.532 152.772 201.738 153.217C201.763 153.279 201.798 153.337 201.841 153.389L201.921 153.514L202.127 153.869L201.726 153.949H201.566H201.394H201.291C200.354 153.87 199.411 153.971 198.511 154.247C197.486 154.58 196.61 155.264 196.04 156.18C195.973 156.319 195.937 156.472 195.937 156.626C195.937 156.781 195.973 156.933 196.04 157.072C196.065 157.139 196.106 157.198 196.16 157.245C196.214 157.291 196.279 157.322 196.349 157.335C196.409 157.346 196.47 157.339 196.527 157.317C196.583 157.295 196.633 157.258 196.67 157.21C197.358 156.411 198.193 155.751 199.129 155.265L199.816 154.979Z" fill="black"/>
<path d="M174.43 165.228C174.404 165.215 174.383 165.195 174.367 165.171C174.351 165.147 174.341 165.119 174.338 165.091C174.262 165.196 174.165 165.284 174.052 165.349C173.94 165.414 173.815 165.454 173.686 165.468C173.366 165.468 173.171 165.194 173.034 164.988C172.91 165.223 172.718 165.417 172.485 165.546C172.251 165.674 171.984 165.73 171.718 165.708C171.215 165.617 171.101 165.205 171.146 164.747C171.013 164.896 170.868 165.034 170.712 165.159C170.094 165.628 169.465 165.091 169.27 164.576C169.25 164.543 169.239 164.506 169.239 164.467C169.239 164.429 169.25 164.391 169.27 164.358C169.405 163.86 169.609 163.382 169.877 162.94C170.042 162.535 170.31 162.18 170.655 161.91C171.295 161.556 171.581 162.265 171.696 162.757C171.867 162.265 172.188 161.853 172.84 162.093C173.03 162.157 173.199 162.271 173.332 162.421C173.465 162.572 173.555 162.755 173.595 162.951C173.723 162.725 173.904 162.533 174.121 162.391C174.682 162.059 175.071 162.654 175.173 163.054C175.213 163.243 175.213 163.438 175.173 163.626H175.311C175.711 163.546 175.974 164.027 176.031 164.301C176.03 164.488 175.979 164.671 175.885 164.832C175.791 164.993 175.656 165.127 175.495 165.221C175.333 165.314 175.15 165.364 174.963 165.365C174.776 165.367 174.593 165.319 174.43 165.228Z" fill="white"/>
<path d="M171.89 165.983H171.65C171.48 165.957 171.32 165.885 171.189 165.774C171.057 165.663 170.96 165.517 170.906 165.353C170.774 165.458 170.62 165.53 170.455 165.564C170.29 165.598 170.119 165.592 169.957 165.548C169.744 165.474 169.551 165.355 169.389 165.199C169.227 165.043 169.1 164.854 169.019 164.644C168.988 164.576 168.972 164.502 168.972 164.427C168.972 164.352 168.988 164.278 169.019 164.209C169.17 163.695 169.381 163.199 169.648 162.734L169.717 162.619C169.909 162.23 170.196 161.896 170.552 161.647C170.665 161.575 170.794 161.532 170.928 161.522C171.061 161.512 171.196 161.535 171.318 161.59C171.522 161.69 171.687 161.855 171.787 162.059C171.881 161.955 171.994 161.87 172.119 161.807C172.394 161.696 172.702 161.696 172.977 161.807C173.275 161.909 173.532 162.106 173.709 162.368C173.8 162.278 173.9 162.197 174.007 162.127C174.121 162.053 174.251 162.007 174.386 161.993C174.521 161.98 174.658 161.998 174.785 162.047C174.961 162.139 175.115 162.268 175.236 162.427C175.357 162.585 175.441 162.768 175.482 162.962C175.488 163.065 175.488 163.168 175.482 163.271C175.605 163.285 175.723 163.329 175.826 163.397C176.074 163.59 176.245 163.866 176.306 164.175C176.349 164.408 176.325 164.648 176.236 164.867C176.146 165.086 175.996 165.274 175.803 165.411C175.581 165.567 175.321 165.659 175.051 165.677C174.78 165.696 174.51 165.639 174.27 165.514C174.095 165.668 173.873 165.757 173.641 165.765C173.511 165.763 173.383 165.732 173.266 165.675C173.149 165.618 173.047 165.535 172.966 165.434C172.832 165.592 172.668 165.722 172.483 165.817C172.299 165.911 172.097 165.967 171.89 165.983ZM171.513 163.843L171.421 164.736C171.421 165.319 171.627 165.376 171.764 165.399C172.108 165.468 172.451 165.262 172.794 164.793L173.114 164.347L173.286 164.862C173.412 165.033 173.526 165.182 173.686 165.182C173.865 165.145 174.024 165.043 174.132 164.896L174.521 164.484L174.613 164.999C174.756 165.07 174.915 165.102 175.074 165.09C175.234 165.078 175.386 165.022 175.517 164.93C175.623 164.861 175.706 164.762 175.757 164.647C175.807 164.531 175.823 164.403 175.803 164.278C175.772 164.114 175.687 163.965 175.563 163.855C175.515 163.835 175.461 163.835 175.414 163.855L174.899 164.152V163.58C174.922 163.425 174.922 163.267 174.899 163.111C174.876 163.003 174.832 162.901 174.769 162.811C174.706 162.721 174.626 162.644 174.533 162.585C174.493 162.563 174.447 162.551 174.401 162.551C174.355 162.551 174.31 162.563 174.27 162.585C174.089 162.695 173.942 162.854 173.846 163.043L173.469 163.637L173.32 162.951C173.29 162.803 173.221 162.666 173.12 162.554C173.02 162.441 172.891 162.357 172.748 162.31C172.681 162.282 172.609 162.268 172.537 162.268C172.464 162.268 172.392 162.282 172.325 162.31C172.233 162.368 172.153 162.443 172.091 162.531C172.028 162.62 171.983 162.719 171.959 162.825L171.627 163.729L171.41 162.779C171.383 162.51 171.257 162.261 171.055 162.082C171.055 162.082 170.952 162.082 170.792 162.082C170.531 162.28 170.323 162.539 170.186 162.837L170.106 162.962C169.856 163.385 169.663 163.839 169.533 164.312V164.45C169.586 164.565 169.66 164.669 169.752 164.755C169.844 164.841 169.953 164.909 170.071 164.953C170.148 164.974 170.229 164.976 170.307 164.958C170.385 164.94 170.457 164.903 170.517 164.85C170.664 164.743 170.794 164.616 170.906 164.473L171.513 163.843Z" fill="black"/>
<path d="M207.882 105.716C208.138 106.954 208.521 108.161 209.026 109.32C209.518 110.029 206.738 110.784 206.738 110.784L206.12 107.524L206.566 105.533L207.882 105.716Z" fill="white"/>
<path d="M211.36 155.263L209.003 155.08V158.512C209.584 158.49 210.163 158.583 210.708 158.787C211.657 159.141 212.996 157.036 212.607 156.567C212.226 156.1 211.809 155.664 211.36 155.263Z" fill="white"/>
<path d="M219.448 212.557L214.334 253.913C214.284 254.272 214.106 254.601 213.833 254.839C213.559 255.076 213.209 255.207 212.847 255.206H212.641C212.245 255.149 211.888 254.938 211.648 254.619C211.408 254.299 211.304 253.897 211.359 253.502L216.416 212.557H219.448Z" fill="black"/>
</svg>
