<svg width="344" height="202" viewBox="0 0 344 202" fill="none" xmlns="http://www.w3.org/2000/svg">
<path d="M139.949 35.125H58.5029V180.717H139.949V35.125Z" fill="white"/>
<path d="M139.785 35.1436L140.059 180.306L59.0424 180.47L58.7683 35.3081L139.785 35.1436ZM140.205 34.7139L58.3389 34.8784L58.613 180.9L140.488 180.735L140.205 34.7139Z" fill="black"/>
<path d="M61.1618 29.292L108.491 29.5663V35.7191L84.5156 35.7648L67.4296 35.8562C64.6678 35.8707 62.0242 36.9793 60.0772 38.9394C58.1303 40.8995 57.0386 43.5515 57.041 46.315L57.2786 165.257C57.281 166.627 57.553 167.983 58.0792 169.247C58.6053 170.512 59.3752 171.661 60.345 172.628C61.3147 173.595 62.4653 174.361 63.7311 174.883C64.9969 175.405 66.353 175.672 67.722 175.67L108.783 175.752V188.67L61.4633 189.128C60.0931 189.131 58.7357 188.864 57.4688 188.342C56.2019 187.82 55.0504 187.053 54.0803 186.085C53.1102 185.116 52.3405 183.966 51.8153 182.7C51.2902 181.434 51.0199 180.076 51.0199 178.705L50.7549 39.7417C50.7525 36.9758 51.8469 34.322 53.7981 32.3629C55.7492 30.4037 58.3976 29.2993 61.1618 29.292Z" fill="#075085"/>
<path d="M55.0039 39.669V178.633C55.0025 181.278 56.0059 183.826 57.8108 185.759C59.6158 187.692 62.0875 188.867 64.7255 189.046C64.9539 189.046 65.2006 189.046 65.4291 189.046H138.222C140.013 189.046 141.731 188.334 142.997 187.067C144.263 185.8 144.975 184.081 144.975 182.29V36.0121C144.975 35.124 144.8 34.2448 144.46 33.4245C144.12 32.6042 143.622 31.859 142.994 31.2315C142.366 30.604 141.62 30.1065 140.8 29.7675C139.98 29.4285 139.101 29.2547 138.213 29.2559H65.4291C65.1915 29.2559 64.9448 29.2559 64.7072 29.2559C62.0732 29.441 59.6073 30.6184 57.8066 32.5508C56.0059 34.4832 55.0044 37.0269 55.0039 39.669ZM61.2809 42.5671C61.2809 40.7753 61.9923 39.0568 63.2586 37.7898C64.5249 36.5227 66.2423 35.8109 68.0331 35.8109H131.991C133.781 35.8133 135.497 36.5259 136.763 37.7924C138.029 39.0589 138.741 40.776 138.743 42.5671V168.859C138.743 170.651 138.032 172.37 136.766 173.637C135.499 174.904 133.782 175.616 131.991 175.616H68.0605C66.2689 175.616 64.5505 174.904 63.2828 173.637C62.015 172.371 61.3016 170.652 61.2992 168.859L61.2809 42.5671Z" fill="#0B3E66"/>
<path d="M91.4779 185.471H108.838C109.673 185.466 110.473 185.131 111.062 184.538C111.651 183.946 111.981 183.144 111.981 182.308C111.976 181.472 111.641 180.672 111.049 180.083C110.456 179.494 109.655 179.163 108.82 179.163H91.4597C90.6284 179.173 89.8346 179.511 89.2511 180.103C88.6676 180.695 88.3415 181.495 88.344 182.326C88.3464 183.158 88.6771 183.955 89.264 184.544C89.851 185.133 90.6467 185.466 91.4779 185.471Z" fill="#075085"/>
<path d="M138.724 44.9165H61.2803V38.3431C61.2803 37.6303 61.5633 36.9466 62.0671 36.4425C62.5708 35.9385 63.2541 35.6553 63.9665 35.6553H136.038C136.75 35.6553 137.434 35.9385 137.937 36.4425C138.441 36.9466 138.724 37.6303 138.724 38.3431V44.9165Z" fill="#075085"/>
<path d="M76.0823 40.2908C76.0805 40.0079 76.1628 39.7309 76.3187 39.495C76.4746 39.2591 76.6971 39.0749 76.958 38.9658C77.2188 38.8567 77.5061 38.8277 77.7835 38.8824C78.0608 38.9372 78.3156 39.0732 78.5155 39.2732C78.7154 39.4732 78.8513 39.7282 78.906 40.0057C78.9607 40.2832 78.9317 40.5707 78.8227 40.8317C78.7137 41.0926 78.5296 41.3153 78.2938 41.4713C78.058 41.6273 77.7812 41.7097 77.4985 41.7079C77.1237 41.7055 76.7648 41.5554 76.4997 41.2902C76.2347 41.0249 76.0847 40.6659 76.0823 40.2908Z" fill="white"/>
<path d="M70.6093 40.2903C70.5936 40.094 70.6186 39.8966 70.6829 39.7105C70.7471 39.5244 70.8492 39.3536 70.9827 39.2089C71.1161 39.0642 71.2781 38.9487 71.4584 38.8698C71.6386 38.7908 71.8333 38.75 72.0301 38.75C72.2269 38.75 72.4215 38.7908 72.6018 38.8698C72.7821 38.9487 72.944 39.0642 73.0775 39.2089C73.211 39.3536 73.313 39.5244 73.3773 39.7105C73.4416 39.8966 73.4666 40.094 73.4509 40.2903C73.4222 40.6477 73.2601 40.9811 72.9968 41.2242C72.7335 41.4674 72.3884 41.6024 72.0301 41.6024C71.6718 41.6024 71.3267 41.4674 71.0634 41.2242C70.8001 40.9811 70.638 40.6477 70.6093 40.2903Z" fill="#F0F8FF"/>
<path d="M65.1455 40.2908C65.1437 40.0079 65.226 39.7309 65.3819 39.495C65.5379 39.2591 65.7604 39.0749 66.0212 38.9658C66.282 38.8567 66.5694 38.8277 66.8467 38.8824C67.124 38.9372 67.3788 39.0732 67.5787 39.2732C67.7786 39.4732 67.9146 39.7282 67.9693 40.0057C68.024 40.2832 67.995 40.5707 67.886 40.8317C67.7769 41.0926 67.5928 41.3153 67.357 41.4713C67.1213 41.6273 66.8444 41.7097 66.5617 41.7079C66.1869 41.7055 65.8281 41.5554 65.563 41.2902C65.2979 41.0249 65.1479 40.6659 65.1455 40.2908Z" fill="#EEBA5B"/>
<path d="M131.954 39.2479L132.658 38.5439L133.663 39.5496L134.668 38.5439L135.371 39.2479L134.366 40.2536L135.371 41.2592L134.668 41.9632L133.663 40.9575L132.658 41.9632L131.954 41.2592L132.959 40.2536L131.954 39.2479Z" fill="white"/>
<path d="M87.8779 104.424C84.3539 104.433 80.8888 103.519 77.8274 101.772L79.7735 98.3441C81.7074 99.4264 83.8415 100.103 86.0455 100.332C88.2495 100.561 90.477 100.338 92.5919 99.677C94.7069 99.0157 96.665 97.93 98.3464 96.486C100.028 95.042 101.397 93.2701 102.371 91.2786C103.345 89.2871 103.903 87.1179 104.011 84.9033C104.119 82.6888 103.775 80.4755 102.999 78.3987C102.223 76.3219 101.032 74.4252 99.4989 72.8244C97.9658 71.2237 96.1225 69.9525 94.0819 69.0886L95.5894 65.4316C99.919 67.2224 103.494 70.4607 105.703 74.5942C107.913 78.7276 108.621 83.5001 107.707 88.0977C106.793 92.6953 104.313 96.8331 100.69 99.8053C97.0674 102.778 92.5263 104.4 87.8414 104.396L87.8779 104.424Z" fill="#075085"/>
<path d="M88.0423 108.035C84.539 108.039 81.0776 107.273 77.9027 105.791C74.7277 104.309 71.9167 102.148 69.6681 99.4598C69.1286 98.8188 68.6224 98.1506 68.1514 97.4577L71.4224 95.2452C71.8109 95.8291 72.2319 96.3907 72.6832 96.9274C74.6498 99.273 77.1268 101.137 79.9246 102.377C82.7224 103.616 85.7667 104.199 88.8242 104.079C91.8817 103.96 94.8713 103.141 97.5639 101.687C100.256 100.233 102.581 98.1807 104.358 95.6886C106.136 93.1966 107.319 90.3304 107.819 87.3098C108.318 84.2891 108.12 81.1942 107.239 78.2621C106.358 75.3301 104.818 72.6386 102.737 70.3941C100.656 68.1496 98.0892 66.4116 95.233 65.3132C94.479 65.02 93.7068 64.7757 92.9214 64.5818L94.0178 60.7969C94.9117 61.0219 95.7905 61.3028 96.6492 61.638C101.877 63.65 106.236 67.4293 108.97 72.3205C111.705 77.2116 112.642 82.9061 111.62 88.4164C110.598 93.9267 107.681 98.9053 103.374 102.489C99.0675 106.072 93.6434 108.034 88.0423 108.035Z" fill="#3CBCC3"/>
<path d="M88.0424 111.976C82.9262 111.985 77.9062 110.584 73.5334 107.926C69.1607 105.268 65.6041 101.456 63.2542 96.9091L66.7444 95.0806C68.703 98.8615 71.6319 102.053 75.2303 104.327C78.8287 106.601 82.9671 107.876 87.2207 108.021C91.4743 108.166 95.6899 107.176 99.4348 105.153C103.18 103.129 106.319 100.145 108.53 96.5063C110.742 92.8677 111.946 88.7058 112.019 84.4478C112.092 80.1898 111.031 75.989 108.945 72.2767C106.86 68.5645 103.825 65.4743 100.151 63.3235C96.4777 61.1727 92.2985 60.0388 88.0424 60.038V56.0977C91.7092 56.0977 95.3401 56.8203 98.7278 58.2244C102.115 59.6285 105.194 61.6864 107.786 64.2808C110.379 66.8752 112.436 69.9551 113.839 73.3449C115.242 76.7346 115.965 80.3676 115.965 84.0366C115.965 87.7057 115.242 91.3387 113.839 94.7284C112.436 98.1181 110.379 101.198 107.786 103.792C105.194 106.387 102.115 108.445 98.7278 109.849C95.3401 111.253 91.7092 111.976 88.0424 111.976Z" fill="#EEBA5B"/>
<path d="M131.936 60.4492H100.697V60.8058H131.936V60.4492Z" fill="#075085"/>
<path d="M131.926 80.124H110.181V80.4806H131.926V80.124Z" fill="#075085"/>
<path d="M131.927 104.149H105.056V104.506H131.927V104.149Z" fill="#075085"/>
<path d="M66.9729 76.5859V77.9207H83.136L83.1543 76.5859H66.9729Z" fill="#3CBCC3"/>
<path d="M66.9729 80.5898V81.9155H96.1834L96.2017 80.5898H66.9729Z" fill="#3CBCC3"/>
<path d="M66.9729 84.585V85.9197H94.0911L94.1094 84.585H66.9729Z" fill="#3CBCC3"/>
<path d="M84.8262 77.9207H89.824L89.8423 76.5859H84.8444L84.8262 77.9207Z" fill="#3CBCC3"/>
<path d="M117.052 57.5326C116.896 57.4612 116.763 57.3471 116.668 57.2035C116.581 57.0708 116.536 56.9144 116.54 56.7555C116.535 56.6241 116.559 56.4931 116.61 56.3716C116.66 56.2501 116.736 56.141 116.833 56.0516C117.075 55.874 117.368 55.7783 117.669 55.7783C117.969 55.7783 118.262 55.874 118.505 56.0516C118.603 56.1401 118.681 56.2489 118.733 56.3704C118.785 56.492 118.81 56.6234 118.806 56.7555C118.808 56.9212 118.761 57.0837 118.669 57.2218C118.572 57.3587 118.439 57.4662 118.285 57.5326C118.477 57.6043 118.642 57.7317 118.76 57.8983C118.87 58.0632 118.928 58.2577 118.925 58.456C118.933 58.6137 118.907 58.7713 118.849 58.9181C118.79 59.0648 118.701 59.1972 118.587 59.3062C118.466 59.4219 118.322 59.511 118.165 59.5677C118.007 59.6244 117.84 59.6474 117.673 59.6354C117.365 59.6447 117.063 59.5514 116.814 59.3702C116.679 59.2611 116.572 59.1211 116.502 58.962C116.432 58.803 116.401 58.6294 116.412 58.456C116.412 58.2565 116.465 58.0605 116.568 57.8892C116.688 57.7224 116.857 57.5976 117.052 57.5326ZM117.134 58.4469C117.125 58.6164 117.18 58.7831 117.289 58.9131C117.337 58.967 117.397 59.0096 117.463 59.038C117.529 59.0665 117.601 59.08 117.673 59.0777C117.742 59.081 117.81 59.0687 117.874 59.0418C117.937 59.0149 117.993 58.974 118.039 58.9223C118.145 58.7909 118.197 58.6243 118.185 58.456C118.193 58.2993 118.141 58.1455 118.039 58.0263C117.99 57.9767 117.931 57.9373 117.867 57.9106C117.803 57.8839 117.734 57.8704 117.664 57.8709C117.588 57.8628 117.511 57.8755 117.442 57.9078C117.373 57.94 117.314 57.9904 117.271 58.0537C117.194 58.1508 117.146 58.2683 117.134 58.392V58.4469ZM117.207 56.8287C117.203 56.8902 117.211 56.952 117.231 57.0102C117.252 57.0684 117.284 57.1218 117.326 57.1669C117.418 57.2443 117.535 57.2867 117.655 57.2867C117.775 57.2867 117.892 57.2443 117.984 57.1669C118.026 57.1218 118.058 57.0684 118.078 57.0102C118.099 56.952 118.107 56.8902 118.103 56.8287C118.103 56.7074 118.054 56.5912 117.969 56.5054C117.883 56.4197 117.767 56.3716 117.646 56.3716C117.525 56.3716 117.408 56.4197 117.323 56.5054C117.237 56.5912 117.189 56.7074 117.189 56.8287H117.207Z" fill="#075085"/>
<path d="M120.587 55.7775C120.752 55.7699 120.915 55.8016 121.064 55.87C121.214 55.9384 121.345 56.0414 121.446 56.1706C121.731 56.6295 121.859 57.1684 121.812 57.7065C121.858 58.2474 121.73 58.7888 121.446 59.2515C121.343 59.3779 121.211 59.4784 121.062 59.5451C120.913 59.6117 120.751 59.6427 120.587 59.6355C120.413 59.6427 120.239 59.6083 120.08 59.5352C119.921 59.4621 119.782 59.3524 119.674 59.215C119.427 58.7499 119.334 58.2185 119.409 57.6974C119.361 57.158 119.492 56.6179 119.783 56.1614C119.879 56.0404 120.002 55.9429 120.141 55.8764C120.28 55.8098 120.433 55.776 120.587 55.7775ZM120.587 56.3809C120.501 56.3815 120.418 56.4104 120.35 56.4631C120.269 56.5458 120.215 56.6509 120.195 56.7648C120.138 57.0662 120.114 57.3726 120.121 57.6791C120.108 57.9853 120.13 58.2919 120.185 58.5933C120.208 58.7184 120.268 58.8334 120.359 58.9224C120.423 58.9765 120.504 59.0057 120.587 59.0047C120.674 59.0055 120.758 58.9764 120.825 58.9224C120.906 58.8398 120.96 58.7346 120.98 58.6207C121.041 58.3201 121.066 58.0131 121.053 57.7065C121.066 57.4003 121.045 57.0937 120.989 56.7923C120.966 56.6695 120.909 56.5555 120.825 56.4631C120.758 56.4091 120.674 56.3801 120.587 56.3809Z" fill="#075085"/>
<path d="M122.305 56.7281C122.284 56.4569 122.362 56.1873 122.524 55.9692C122.603 55.8899 122.697 55.8278 122.801 55.7869C122.905 55.746 123.016 55.7271 123.128 55.7315C123.242 55.7257 123.356 55.7438 123.463 55.7847C123.57 55.8257 123.668 55.8885 123.749 55.9692C123.911 56.1873 123.989 56.4569 123.968 56.7281C123.989 56.9964 123.911 57.2632 123.749 57.4777C123.673 57.5606 123.579 57.6257 123.475 57.6684C123.371 57.711 123.258 57.7302 123.146 57.7246C123.031 57.731 122.915 57.7123 122.808 57.6697C122.701 57.6271 122.604 57.5616 122.524 57.4777C122.362 57.2632 122.284 56.9964 122.305 56.7281ZM122.872 56.7281C122.856 56.897 122.885 57.067 122.954 57.2217C122.973 57.2506 122.998 57.2741 123.029 57.2901C123.059 57.3061 123.093 57.314 123.128 57.3132C123.163 57.3157 123.199 57.3085 123.231 57.2924C123.264 57.2763 123.291 57.2519 123.31 57.2217C123.42 56.9018 123.42 56.5543 123.31 56.2344C123.291 56.2042 123.264 56.1798 123.231 56.1637C123.199 56.1476 123.163 56.1405 123.128 56.143C123.093 56.1421 123.059 56.15 123.029 56.166C122.998 56.182 122.973 56.2056 122.954 56.2344C122.886 56.3864 122.858 56.553 122.872 56.7189V56.7281ZM123.685 59.7267H123.146L125.156 55.7407H125.677L123.685 59.7267ZM124.891 58.7211C124.87 58.4527 124.948 58.1859 125.11 57.9714C125.188 57.8878 125.283 57.8224 125.389 57.7797C125.495 57.737 125.608 57.7182 125.722 57.7246C125.836 57.7194 125.95 57.7388 126.055 57.7814C126.161 57.824 126.256 57.8888 126.335 57.9714C126.497 58.1859 126.575 58.4527 126.554 58.7211C126.575 58.9922 126.497 59.2618 126.335 59.4799C126.256 59.5625 126.161 59.6273 126.055 59.6699C125.95 59.7125 125.836 59.7319 125.722 59.7267C125.609 59.7325 125.495 59.7134 125.389 59.6708C125.283 59.6281 125.188 59.563 125.11 59.4799C124.948 59.2618 124.87 58.9922 124.891 58.7211ZM125.448 58.7211C125.432 58.891 125.464 59.062 125.54 59.2148C125.559 59.2431 125.585 59.2662 125.615 59.2822C125.645 59.2982 125.679 59.3066 125.713 59.3066C125.747 59.3066 125.781 59.2982 125.811 59.2822C125.842 59.2662 125.868 59.2431 125.887 59.2148C125.963 59.062 125.994 58.891 125.978 58.7211C125.994 58.5522 125.965 58.3822 125.896 58.2274C125.876 58.1979 125.848 58.174 125.816 58.158C125.784 58.142 125.749 58.1344 125.713 58.136C125.679 58.1342 125.644 58.1417 125.614 58.1578C125.583 58.1739 125.558 58.1979 125.54 58.2274C125.451 58.3765 125.407 58.5477 125.412 58.7211H125.448Z" fill="#075085"/>
<path d="M119.885 78.5056L120.607 78.4324C120.617 78.5788 120.682 78.7159 120.789 78.8164C120.883 78.9068 121.007 78.959 121.137 78.9627C121.21 78.9634 121.283 78.9473 121.35 78.9156C121.416 78.8839 121.474 78.8375 121.52 78.7798C121.631 78.6157 121.686 78.42 121.676 78.2222C121.694 78.0348 121.638 77.8479 121.52 77.701C121.471 77.6436 121.409 77.5981 121.339 77.5681C121.27 77.538 121.194 77.5241 121.118 77.5273C121.011 77.5293 120.905 77.5549 120.809 77.6023C120.713 77.6497 120.628 77.7177 120.561 77.8016L119.967 77.7193L120.323 75.708H122.233V76.3845H120.89L120.78 77.0245C120.932 76.9444 121.102 76.9036 121.274 76.9057C121.426 76.9016 121.578 76.9305 121.718 76.9905C121.858 77.0504 121.984 77.14 122.087 77.2531C122.315 77.5018 122.436 77.83 122.425 78.1673C122.43 78.4676 122.333 78.7607 122.151 78.9992C122.036 79.1622 121.882 79.2937 121.703 79.3815C121.524 79.4694 121.326 79.5109 121.127 79.5021C120.819 79.5166 120.516 79.4155 120.278 79.2187C120.065 79.0362 119.925 78.7829 119.885 78.5056Z" fill="#075085"/>
<path d="M122.817 78.5058L123.539 78.4326C123.55 78.579 123.615 78.7161 123.722 78.8166C123.815 78.907 123.939 78.9592 124.069 78.9629C124.143 78.9636 124.216 78.9475 124.282 78.9158C124.349 78.8841 124.407 78.8377 124.453 78.78C124.564 78.6159 124.618 78.4202 124.608 78.2223C124.626 78.035 124.571 77.8481 124.453 77.7012C124.403 77.6438 124.341 77.5983 124.272 77.5683C124.202 77.5382 124.127 77.5242 124.051 77.5275C123.944 77.5295 123.838 77.5551 123.742 77.6025C123.645 77.6499 123.561 77.7179 123.494 77.8018L122.9 77.7195L123.274 75.7539H125.184V76.4304H123.822L123.713 77.0704C123.865 76.9903 124.034 76.9495 124.206 76.9516C124.359 76.9475 124.51 76.9764 124.651 77.0364C124.791 77.0963 124.917 77.1859 125.019 77.299C125.247 77.5477 125.369 77.8759 125.357 78.2132C125.362 78.5135 125.266 78.8066 125.083 79.0451C124.969 79.2081 124.815 79.3396 124.636 79.4274C124.457 79.5153 124.259 79.5568 124.06 79.548C123.751 79.5625 123.448 79.4614 123.21 79.2646C122.988 79.0708 122.847 78.7995 122.817 78.5058Z" fill="#075085"/>
<path d="M125.741 76.5854C125.718 76.3154 125.799 76.0468 125.969 75.8357C126.045 75.7528 126.139 75.6878 126.243 75.6451C126.347 75.6024 126.46 75.5833 126.572 75.5889C126.686 75.5831 126.8 75.6023 126.905 75.6449C127.011 75.6875 127.106 75.7526 127.184 75.8357C127.352 76.0481 127.433 76.3157 127.413 76.5854C127.432 76.8549 127.35 77.1219 127.184 77.3351C127.017 77.4842 126.801 77.5665 126.577 77.5665C126.353 77.5665 126.137 77.4842 125.969 77.3351C125.798 77.1249 125.716 76.8556 125.741 76.5854ZM126.307 76.5854C126.293 76.7572 126.322 76.9298 126.39 77.0882C126.411 77.1166 126.438 77.1397 126.47 77.1555C126.502 77.1714 126.537 77.1797 126.572 77.1797C126.606 77.1797 126.64 77.1714 126.67 77.1555C126.701 77.1395 126.727 77.1164 126.746 77.0882C126.814 76.9298 126.842 76.7572 126.828 76.5854C126.843 76.4195 126.814 76.2526 126.746 76.1009C126.729 76.0697 126.704 76.0438 126.673 76.0261C126.643 76.0083 126.608 75.9994 126.572 76.0003C126.537 76.0003 126.502 76.0086 126.47 76.0244C126.438 76.0403 126.411 76.0633 126.39 76.0917C126.324 76.2444 126.296 76.4105 126.307 76.5763V76.5854ZM127.12 79.5841H126.581L128.592 75.598H129.112L127.12 79.5841ZM128.29 78.5876C128.269 78.3192 128.347 78.0524 128.509 77.8379C128.588 77.7553 128.683 77.6905 128.789 77.6479C128.894 77.6053 129.008 77.5859 129.121 77.5911C129.235 77.5853 129.349 77.6044 129.455 77.6471C129.56 77.6897 129.656 77.7548 129.734 77.8379C129.877 78.0634 129.953 78.325 129.953 78.5921C129.953 78.8593 129.877 79.1208 129.734 79.3464C129.657 79.4293 129.564 79.4944 129.46 79.537C129.355 79.5797 129.243 79.5989 129.131 79.5932C129.015 79.5991 128.9 79.5801 128.793 79.5375C128.686 79.4949 128.589 79.4297 128.509 79.3464C128.343 79.1267 128.265 78.8528 128.29 78.5784V78.5876ZM128.856 78.5876C128.841 78.7565 128.869 78.9265 128.939 79.0813C128.957 79.1101 128.983 79.1336 129.014 79.1496C129.044 79.1656 129.078 79.1736 129.112 79.1727C129.148 79.1752 129.184 79.168 129.216 79.1519C129.248 79.1359 129.276 79.1115 129.295 79.0813C129.405 78.7613 129.405 78.4138 129.295 78.0939C129.276 78.063 129.249 78.038 129.217 78.0218C129.185 78.0056 129.148 77.9989 129.112 78.0025C129.078 78.0016 129.044 78.0095 129.014 78.0256C128.983 78.0416 128.957 78.0651 128.939 78.0939C128.871 78.2459 128.843 78.4126 128.856 78.5784V78.5876Z" fill="#075085"/>
<path d="M117.728 103.573V102.815H116.184V102.175L117.828 99.7793H118.431V102.175H118.897V102.815H118.431V103.573H117.728ZM117.728 102.175V100.886L116.814 102.175H117.728Z" fill="#075085"/>
<path d="M120.47 99.7803C120.634 99.7727 120.797 99.8044 120.947 99.8728C121.096 99.9412 121.227 100.044 121.328 100.173C121.571 100.65 121.698 101.178 121.698 101.714C121.698 102.249 121.571 102.777 121.328 103.254C121.228 103.382 121.098 103.483 120.95 103.55C120.802 103.617 120.641 103.647 120.479 103.638C120.303 103.647 120.128 103.612 119.968 103.537C119.809 103.462 119.671 103.349 119.565 103.209C119.293 102.755 119.175 102.226 119.227 101.7C119.179 101.162 119.308 100.623 119.592 100.164C119.698 100.035 119.832 99.9332 119.985 99.8665C120.137 99.7997 120.303 99.7702 120.47 99.7803ZM120.47 100.384C120.383 100.383 120.299 100.412 120.232 100.466C120.151 100.549 120.097 100.654 120.077 100.768C120.016 101.068 119.991 101.375 120.004 101.682C119.991 101.988 120.012 102.295 120.068 102.596C120.091 102.719 120.148 102.833 120.232 102.925C120.3 102.979 120.383 103.008 120.47 103.008C120.556 103.008 120.639 102.979 120.707 102.925C120.788 102.843 120.842 102.737 120.862 102.624C120.919 102.322 120.943 102.016 120.936 101.709C120.948 101.403 120.927 101.096 120.872 100.795C120.849 100.67 120.789 100.555 120.698 100.466C120.635 100.411 120.553 100.382 120.47 100.384Z" fill="#075085"/>
<path d="M122.15 100.731C122.129 100.46 122.207 100.19 122.369 99.972C122.447 99.8922 122.542 99.8298 122.645 99.7888C122.749 99.7479 122.861 99.7293 122.972 99.7343C123.087 99.729 123.201 99.7474 123.308 99.7883C123.415 99.8292 123.512 99.8917 123.594 99.972C123.737 100.198 123.812 100.459 123.812 100.726C123.812 100.993 123.737 101.255 123.594 101.48C123.426 101.632 123.208 101.716 122.981 101.716C122.755 101.716 122.537 101.632 122.369 101.48C122.207 101.266 122.129 100.999 122.15 100.731ZM122.707 100.731C122.691 100.901 122.723 101.072 122.799 101.224C122.817 101.254 122.842 101.278 122.873 101.294C122.903 101.31 122.938 101.318 122.972 101.316C123.008 101.318 123.044 101.311 123.076 101.295C123.108 101.279 123.135 101.255 123.155 101.224C123.265 100.905 123.265 100.557 123.155 100.237C123.135 100.207 123.108 100.183 123.076 100.166C123.044 100.15 123.008 100.143 122.972 100.146C122.938 100.144 122.903 100.151 122.873 100.168C122.842 100.184 122.817 100.208 122.799 100.237C122.737 100.391 122.718 100.558 122.744 100.722L122.707 100.731ZM123.52 103.729H123.064L125.074 99.7434H125.595L123.52 103.729ZM124.69 102.733C124.667 102.463 124.749 102.194 124.918 101.983C125.086 101.834 125.302 101.752 125.526 101.752C125.75 101.752 125.966 101.834 126.134 101.983C126.303 102.194 126.385 102.463 126.362 102.733C126.385 103.006 126.303 103.277 126.134 103.492C125.966 103.641 125.75 103.723 125.526 103.723C125.302 103.723 125.086 103.641 124.918 103.492C124.759 103.269 124.691 102.995 124.727 102.724L124.69 102.733ZM125.256 102.733C125.241 102.902 125.269 103.072 125.339 103.227C125.359 103.256 125.386 103.28 125.418 103.296C125.45 103.312 125.486 103.32 125.521 103.318C125.556 103.32 125.59 103.312 125.621 103.296C125.651 103.28 125.677 103.256 125.695 103.227C125.771 103.074 125.803 102.903 125.786 102.733C125.802 102.564 125.773 102.394 125.704 102.239C125.684 102.21 125.657 102.186 125.625 102.17C125.593 102.154 125.557 102.146 125.521 102.148C125.486 102.145 125.45 102.153 125.418 102.169C125.385 102.185 125.358 102.209 125.339 102.239C125.283 102.394 125.268 102.561 125.293 102.724L125.256 102.733Z" fill="#075085"/>
<path d="M159.219 84.073C155.564 86.3311 146.802 96.4791 144.234 97.046C141.667 97.6128 158.342 92.4748 161.594 89.7321C164.847 86.9894 161.686 82.5462 159.219 84.073Z" fill="#FFD2A7"/>
<path d="M180.197 75.525C178.552 77.2054 176.774 78.7495 174.879 80.1419C173.801 80.983 172.641 81.8698 171.48 82.7292C167.57 85.6365 163.686 88.9277 162.526 88.7449C161.116 88.6573 159.745 88.251 158.515 87.5564C157.886 87.08 157.423 86.418 157.19 85.6639C156.514 83.68 170.895 72.0235 172.842 70.9813H172.933L173.244 70.8624H173.308C173.603 70.7681 173.911 70.7158 174.221 70.707H174.486C175.231 70.7473 175.957 70.9501 176.615 71.3013C178.927 72.4075 180.626 74.9582 180.197 75.525Z" fill="#EBA63F"/>
<path d="M176.889 71.0364L176.633 71.2375C166.583 78.8897 158.835 85.0973 158.515 87.5566C157.886 87.0802 157.423 86.4183 157.19 85.6641C156.514 83.6803 170.895 72.0238 172.842 70.9815H172.933L173.244 70.8627H173.307C173.607 70.7846 173.913 70.7326 174.221 70.7073H174.486C175.302 70.6279 176.125 70.7407 176.889 71.0364Z" fill="#3CBCC3"/>
<path d="M215.063 184.785C211.463 183.57 210.101 177.664 209.471 174.491L205.515 175.981C205.515 175.981 207.013 181.75 206.538 185.444C206.063 189.137 207.132 188.781 207.132 188.781H219.668C219.229 187.825 218.591 186.974 217.797 186.285C217.003 185.596 216.07 185.084 215.063 184.785Z" fill="#FFD2A7"/>
<path d="M215.063 184.786C213.96 184.365 213.019 183.602 212.377 182.61C211.911 181.887 209.362 182.683 208.85 184.072C208.187 184.508 207.405 184.726 206.612 184.694C206.612 184.95 206.566 185.197 206.539 185.444C206.064 189.101 207.133 188.781 207.133 188.781H219.668C219.23 187.825 218.592 186.974 217.798 186.285C217.004 185.596 216.071 185.085 215.063 184.786Z" fill="#075085"/>
<path d="M162.764 185.077C169.342 185.077 170.219 181.293 169.634 177.261H174.029C173.933 179.648 174.089 182.038 174.495 184.392C175.235 188.131 173.371 188.78 173.371 188.78H157.354C157.354 188.78 159.675 185.077 162.764 185.077Z" fill="#FFD2A7"/>
<path d="M169.114 185.334C168.492 184.419 170.356 182.591 168.967 182.591C168.054 184.118 166.153 185.123 162.764 185.123C159.675 185.123 157.354 188.826 157.354 188.826H173.371C173.371 188.826 175.117 188.223 174.559 184.776C172.878 184.73 170.036 186.751 169.114 185.334Z" fill="#075085"/>
<path d="M169.991 136.907C170.439 130.169 178.872 139.54 178.817 141.341C178.735 143.599 178.68 144.65 178.881 152.559C179.141 157.861 178.276 163.158 176.341 168.101C175.044 171.758 175.126 179.986 175.126 179.986C170.557 180.424 168.538 179.209 168.538 179.209C168.538 179.209 169.315 167.259 169.013 160.439C168.712 153.619 169.89 138.489 169.991 136.907Z" fill="#3CBCC3"/>
<path d="M173.618 180.086C173.618 177.444 173.856 171.775 174.833 168.832C176.131 164.919 175.656 157.056 175.455 148.618C175.254 140.179 177.227 142.694 177.282 140.28C177.282 139.521 175.994 137.537 174.377 135.764C176.597 137.473 178.826 140.417 178.799 141.34C178.717 143.599 178.662 144.65 178.863 152.558C179.123 157.86 178.257 163.157 176.323 168.1C175.025 171.757 175.107 179.985 175.107 179.985C174.587 180.049 174.084 180.077 173.618 180.086Z" fill="#075085"/>
<path d="M169.041 116.181C169.315 125.122 170.384 136.879 169.954 142.474C169.561 147.521 172.86 149.322 175.436 148.618C176.241 148.412 176.96 147.958 177.492 147.319C178.023 146.681 178.34 145.891 178.397 145.062C178.403 144.897 178.403 144.732 178.397 144.568C178.397 144.385 178.397 144.193 178.397 143.992C178.698 139.421 182.198 129.136 184.308 120.999C184.4 120.633 184.491 120.277 184.573 119.929C184.655 119.582 184.747 119.225 184.829 118.887C184.948 118.375 185.067 117.872 185.167 117.388C185.24 117.068 185.304 116.748 185.368 116.473C185.594 115.381 185.755 114.276 185.852 113.164C186.428 105.53 185.67 102.961 183.605 98.7282C181.54 94.4953 176.514 94.3033 174.687 95.8758L174.568 95.9764C173.381 97.0826 170.566 101.05 169.397 106.463C168.949 108.483 168.913 112.03 169.041 116.181Z" fill="#3CBCC3"/>
<path d="M181.759 122.517C181.631 123.678 175.893 147.649 175.455 148.618C175.372 148.81 178.196 148.216 178.415 145.062C178.421 144.897 178.421 144.732 178.415 144.568C178.415 144.385 178.415 144.193 178.415 143.992C178.707 139.421 182.207 129.136 184.326 120.999C184.418 120.633 184.509 120.277 184.591 119.929C184.674 119.582 184.765 119.225 184.847 118.887C184.966 118.375 185.085 117.872 185.185 117.388C185.258 117.068 185.322 116.748 185.386 116.473C185.612 115.381 185.774 114.276 185.871 113.164C186.446 105.53 185.688 102.961 183.623 98.7282C181.558 94.4953 176.514 94.3033 174.687 95.8758L174.568 95.9764C173.381 97.0826 170.566 101.05 169.397 106.463C168.949 108.501 168.913 112.049 169.041 116.199C174.002 120.021 182.051 119.884 181.759 122.517Z" fill="#075085"/>
<path d="M203.176 143.717C202.646 142.182 202.354 141.048 201.952 139.457C200.206 132.719 193.427 139.539 193.838 141.34C194.341 143.599 195.172 144.65 196.497 152.558C197.315 158.042 199.176 163.318 201.979 168.1C203.989 171.757 205.478 178.778 205.478 178.778C209.334 179.007 210.897 177.096 210.897 177.096C210.897 177.096 208.841 167.25 207.836 160.43C206.831 153.609 204.428 147.31 203.176 143.717Z" fill="#3CBCC3"/>
<path d="M205.195 162.204C204.511 157.291 203.32 152.462 201.641 147.795C201.102 146.25 199.667 142.804 199.256 141.222C198.543 138.479 196.99 137.976 195.428 138.479C197.447 136.459 200.782 135.014 201.933 139.448C202.335 141.039 202.628 142.191 203.158 143.709C204.409 147.302 206.812 153.619 207.854 160.439C208.895 167.259 210.915 177.106 210.915 177.106C210.168 177.857 209.213 178.367 208.174 178.568C207.854 176.914 206.1 168.338 205.195 162.204Z" fill="#075085"/>
<path d="M197.402 106.115C195.75 102.13 193.142 98.613 189.809 95.8757C187.68 94.3215 182.618 94.4769 181.367 98.7189C180.115 102.961 179.85 105.521 181.887 113.155C183.925 120.789 193.71 138.863 194.825 144.586C195.94 150.309 204.739 150.373 202.537 142.172C200.335 133.972 200.042 112.57 197.402 106.115Z" fill="#3CBCC3"/>
<path d="M197.264 121.173C197.209 120.135 196.824 119.141 196.168 118.336C195.511 117.531 194.615 116.955 193.609 116.693C192.641 116.419 188.502 117.196 185.852 117.68C185.23 117.793 184.589 117.681 184.041 117.365C183.494 117.049 183.077 116.548 182.864 115.953C182.444 114.773 181.951 113.502 181.887 113.137C179.849 105.503 180.123 102.934 181.366 98.701C182.609 94.4681 187.679 94.3035 189.808 95.8577C193.144 98.6002 195.752 102.123 197.401 106.115C200.042 112.57 200.325 133.954 202.536 142.155C203.294 144.98 202.746 146.817 201.622 147.795C201.641 147.686 197.328 123.678 197.264 121.173Z" fill="#075085"/>
<path d="M186.281 69.574C186.281 69.574 180.918 68.3946 177.145 69.574V70.7716L186.044 71.0093L186.281 69.574Z" fill="#3CBCC3"/>
<path d="M169.945 83.8907C171.215 82.9125 173.189 82.4005 174.368 81.4406L172.824 73.3496C172.181 74.8832 171.395 76.3525 170.475 77.7379C169.315 79.1459 167.954 80.2338 169.945 83.8907Z" fill="#3CBCC3"/>
<path d="M187.863 47.7871C187.054 47.7853 186.263 48.0237 185.59 48.472C184.917 48.9204 184.392 49.5585 184.082 50.3056C183.772 51.0527 183.69 51.8752 183.848 52.6688C184.005 53.4623 184.394 54.1913 184.966 54.7634C185.537 55.3355 186.266 55.7249 187.059 55.8823C187.852 56.0397 188.674 55.958 189.421 55.6475C190.168 55.3371 190.805 54.8119 191.253 54.1384C191.701 53.465 191.94 52.6736 191.938 51.8646C191.935 50.7839 191.505 49.7482 190.742 48.9841C189.978 48.2199 188.943 47.7895 187.863 47.7871Z" fill="#075085"/>
<path d="M188.31 63.6494C189.123 59.7456 192.714 60.1296 190.54 55.2659C188.365 50.4021 186.126 51.3438 183.778 50.5941C177.83 48.6834 173.079 56.6281 175.272 61.9398C177.309 66.8583 187.442 67.8366 188.31 63.6494Z" fill="#075085"/>
<path d="M188.237 86.734C188.429 85.0152 189.05 83.4244 190.622 77.4911C191.234 75.1689 192.166 73.8341 191.59 72.8102C190.859 71.5028 188.338 70.808 186.684 70.808C183.714 70.808 185.149 63.6313 185.149 63.6313C184.692 62.1319 179.74 62.3971 179.968 67.1876C180.197 71.9782 175.482 69.8206 174.358 70.7074C172.814 71.9234 172.933 74.5289 172.622 75.946C172.312 77.3631 170.21 79.0361 170.502 81.6325C170.547 82.3244 170.857 82.9724 171.368 83.4409C171.879 83.9094 172.551 84.1623 173.243 84.1467C174.211 85.3332 174.826 86.7685 175.016 88.2882C175.053 90.3725 174.609 92.4372 173.719 94.3221C178.833 96.6073 184.644 96.775 189.882 94.7884C189.882 94.7884 187.643 91.9085 188.237 86.734Z" fill="#FFD2A7"/>
<path d="M186.684 70.8172C183.715 70.8172 185.149 63.6405 185.149 63.6405C184.893 62.8085 183.258 62.516 181.887 63.2474C182.801 63.4851 185.012 67.5534 183.715 73.4959C183.34 75.1873 181.522 76.1838 179.841 76.5129C179.841 76.5129 190.421 78.3414 190.65 77.5003C191.234 75.1781 188.338 70.8172 186.684 70.8172Z" fill="#FFBC8E"/>
<path d="M174.522 115.669C174.998 115.712 175.482 115.748 175.975 115.779H176.834H177.638L180.114 112.058L183.12 115.715C188.817 115.812 194.501 115.151 200.023 113.749C199.704 111.289 199.153 108.865 198.379 106.508C195.492 97.741 191.069 94.0475 195.272 78.9443C195.912 76.6313 193.445 73.5686 191.928 72.0327C191.014 71.0636 188.273 70.8168 186.684 70.7711C184.806 72.9524 182.595 74.8223 180.133 76.3113C180.133 76.3113 177.391 71.8224 177.017 70.3871C176.124 70.3087 175.224 70.386 174.358 70.6157C172.805 71.8316 172.64 74.2726 172.339 75.7171C172.037 77.1616 170.018 79.1272 170.31 81.7236C170.426 82.5206 170.714 83.2827 171.155 83.9569C171.595 84.6311 172.177 85.2012 172.86 85.6274C175.601 100.721 168.967 97.2747 168.236 114.234C170.245 115.014 172.362 115.48 174.513 115.614L174.522 115.669Z" fill="#EBA63F"/>
<path d="M172.823 85.6462C172.823 85.8747 187.598 89.6871 189.178 91.8447C190.357 93.472 195.784 108.42 193.939 110.239C192.093 112.058 184.856 106.984 184.098 107.57C183.559 107.981 174.961 114.691 174.477 115.633C174.961 115.633 175.446 115.715 175.939 115.743H176.798H177.602L180.078 112.022L183.084 115.679C188.78 115.776 194.465 115.115 199.987 113.713C199.607 111.264 199.057 108.845 198.342 106.472C195.455 97.7049 191.033 94.0114 195.236 78.9083C194.231 78.7437 191.325 76.4764 189.215 77.3632C189.151 77.3632 185.743 78.2775 187.671 79.402C189.599 80.5265 186.309 80.947 185.67 83.196C184.884 85.9387 185.67 86.7341 184.756 87.1547C183.896 87.3519 183.003 87.3519 182.143 87.1547L177.182 86.533C175.703 86.3806 174.244 86.0836 172.823 85.6462Z" fill="#3CBCC3"/>
<path d="M185.368 59.6627C185.368 59.6627 183.495 53.5465 181.503 53.2631C179.511 52.9797 177.922 53.1077 176.843 55.2561C176.082 56.5281 175.76 58.0159 175.93 59.489C175.93 59.489 173.189 61.7381 175.875 65.3127C178.561 68.8874 183.431 66.7389 185.14 63.6214C185.14 63.6214 187.771 64.5996 188.228 62.122C188.685 59.6445 187.068 59.4708 185.368 59.6627Z" fill="#FFD2A7"/>
<path d="M185.368 59.6633C185.368 59.6633 183.495 53.5471 181.503 53.2637C179.913 53.0626 178.57 53.0809 177.556 54.1779C178.899 53.8945 183.404 59.4074 183.294 62.5706C183.27 63.3006 183.06 64.0124 182.683 64.6379C182.306 65.2633 181.775 65.7815 181.141 66.1429C180.506 66.5043 179.79 66.6968 179.06 66.702C178.33 66.7072 177.611 66.525 176.971 66.1727C176.648 65.9868 176.343 65.7726 176.058 65.5327C178.799 68.824 183.486 66.6938 185.194 63.6403C185.194 63.6403 187.826 64.6185 188.283 62.1409C188.74 59.6633 187.068 59.4714 185.368 59.6633Z" fill="#FFBC8E"/>
<path d="M174.669 56.29C176.502 56.0684 178.243 55.3615 179.712 54.2421C181.54 52.5508 182.454 52.8982 182.454 52.8982C177.182 50.2926 174.669 56.29 174.669 56.29Z" fill="#075085"/>
<path d="M181.366 52.9071C180.452 53.5653 180.197 55.6498 182.28 58.1456C184.363 60.6415 183.522 63.4847 185.341 61.9854C187.159 60.4861 187.168 60.2209 187.451 58.0725C187.735 55.924 183.367 51.4991 181.366 52.9071Z" fill="#075085"/>
<path d="M188.968 70.7891C188.105 72.7583 186.748 74.4713 185.03 75.7625C182.453 77.4904 181.375 79.7669 181.256 80.8822L179.429 82.1164L180.525 83.4604C179.568 84.3414 178.984 85.5545 178.89 86.8522C178.89 86.8522 177.51 83.9449 177.921 81.6959C178.661 79.0178 179.956 76.5257 181.722 74.382C182.937 73.0655 185.962 70.8714 186.291 69.6006C187.243 69.8445 188.148 70.2462 188.968 70.7891Z" fill="#3CBCC3"/>
<path d="M177.428 69.5732C177.621 71.0217 178.086 72.4206 178.798 73.6964C179.858 75.4152 180.26 75.598 180.004 76.8323C179.749 78.0665 177.154 80.1326 178.542 85.9106C178.542 85.9106 176.779 84.457 176.487 83.1679L177.135 81.8788L176.432 81.056C176.635 79.7292 177.003 78.4331 177.528 77.198C178.25 75.8175 175.271 72.3525 175.271 70.1035C175.963 69.83 176.688 69.6516 177.428 69.5732Z" fill="#3CBCC3"/>
<path d="M180.754 76.833C180.752 76.9555 180.714 77.0748 180.645 77.1758C180.576 77.2768 180.478 77.3551 180.364 77.4008C180.251 77.4464 180.126 77.4574 180.006 77.4324C179.886 77.4074 179.776 77.3475 179.69 77.2602C179.604 77.1729 179.546 77.0621 179.523 76.9418C179.5 76.8214 179.512 76.6969 179.56 76.5839C179.607 76.4708 179.687 76.3742 179.789 76.3063C179.89 76.2384 180.01 76.2022 180.133 76.2021C180.215 76.2021 180.297 76.2185 180.373 76.2503C180.449 76.2821 180.517 76.3288 180.575 76.3875C180.633 76.4462 180.679 76.5158 180.709 76.5922C180.74 76.6687 180.755 76.7506 180.754 76.833Z" fill="#075085"/>
<path d="M178.533 81.0469C178.533 81.1721 178.496 81.2944 178.426 81.3983C178.357 81.5022 178.258 81.5831 178.142 81.6305C178.026 81.678 177.899 81.6899 177.777 81.6649C177.654 81.6398 177.542 81.5788 177.454 81.4896C177.366 81.4005 177.307 81.2872 177.283 81.1643C177.26 81.0413 177.274 80.9142 177.323 80.7991C177.372 80.684 177.454 80.5861 177.559 80.5179C177.664 80.4497 177.787 80.4143 177.912 80.4161C178.078 80.4185 178.236 80.486 178.352 80.6041C178.468 80.7221 178.533 80.8812 178.533 81.0469Z" fill="#075085"/>
<path d="M179.393 86.0659C179.399 86.149 179.388 86.2325 179.361 86.3115C179.335 86.3905 179.292 86.4633 179.237 86.5255C179.182 86.5878 179.114 86.6383 179.039 86.674C178.964 86.7096 178.882 86.7298 178.799 86.7333C178.673 86.7351 178.55 86.6994 178.445 86.6308C178.34 86.5621 178.258 86.4637 178.209 86.3481C178.16 86.2325 178.147 86.1049 178.171 85.9817C178.195 85.8584 178.255 85.7452 178.344 85.6564C178.433 85.5677 178.546 85.5074 178.669 85.4834C178.792 85.4593 178.919 85.4726 179.035 85.5214C179.151 85.5703 179.249 85.6526 179.318 85.7577C179.386 85.8628 179.422 85.9861 179.42 86.1116L179.393 86.0659Z" fill="#075085"/>
<path d="M179.63 92.1094C179.63 92.2345 179.593 92.3569 179.523 92.4608C179.454 92.5647 179.355 92.6456 179.239 92.693C179.123 92.7405 178.996 92.7524 178.873 92.7273C178.751 92.7023 178.639 92.6413 178.551 92.5521C178.463 92.463 178.404 92.3497 178.38 92.2268C178.357 92.1038 178.371 91.9767 178.42 91.8616C178.469 91.7465 178.551 91.6486 178.656 91.5804C178.761 91.5122 178.884 91.4768 179.009 91.4786C179.175 91.481 179.333 91.5485 179.449 91.6665C179.565 91.7846 179.63 91.9437 179.63 92.1094Z" fill="#075085"/>
<path d="M180.023 98.2802C180.023 98.4475 179.956 98.608 179.838 98.7263C179.72 98.8446 179.559 98.9111 179.392 98.9111C179.267 98.9111 179.146 98.8741 179.042 98.8047C178.938 98.7354 178.857 98.6369 178.81 98.5216C178.762 98.4064 178.75 98.2795 178.774 98.1572C178.798 98.0348 178.858 97.9224 178.946 97.8342C179.035 97.746 179.147 97.6859 179.269 97.6615C179.391 97.6372 179.518 97.6497 179.633 97.6974C179.749 97.7452 179.847 97.826 179.916 97.9298C179.986 98.0335 180.023 98.1555 180.023 98.2802Z" fill="#075085"/>
<path d="M180.407 104.461C180.409 104.586 180.373 104.709 180.305 104.814C180.236 104.92 180.138 105.002 180.022 105.051C179.907 105.1 179.779 105.113 179.656 105.089C179.533 105.065 179.42 105.005 179.331 104.916C179.242 104.827 179.182 104.714 179.158 104.591C179.134 104.467 179.147 104.34 179.196 104.224C179.245 104.108 179.327 104.01 179.432 103.941C179.537 103.873 179.661 103.837 179.786 103.839C179.951 103.839 180.109 103.904 180.225 104.021C180.342 104.138 180.407 104.296 180.407 104.461Z" fill="#075085"/>
<path d="M194.816 111.655L194.112 113.347C193.957 113.723 193.729 114.065 193.441 114.353C193.154 114.641 192.812 114.87 192.436 115.025C192.06 115.181 191.657 115.26 191.25 115.259C190.843 115.258 190.44 115.177 190.064 115.02L134.412 91.9171L138.98 80.9463L191.06 102.568C192.76 103.277 194.11 104.632 194.814 106.336C195.518 108.039 195.518 109.952 194.816 111.655Z" fill="#075085"/>
<path d="M120.899 59.4807C116.94 57.8356 112.583 57.4022 108.378 58.2351C104.173 59.0681 100.309 61.1301 97.2754 64.1603C94.2416 67.1905 92.1741 71.0529 91.3342 75.2589C90.4943 79.4649 90.9197 83.8257 92.5568 87.7897C94.1939 91.7538 96.969 95.1431 100.531 97.5289C104.093 99.9148 108.283 101.19 112.569 101.194C116.856 101.197 121.047 99.9284 124.613 97.5483C128.179 95.1681 130.96 91.7833 132.603 87.8219C134.804 82.5103 134.808 76.5417 132.613 71.2275C130.418 65.9133 126.205 61.6883 120.899 59.4807Z" fill="#F0F8FF"/>
<mask id="mask0_2009_8740" style="mask-type:luminance" maskUnits="userSpaceOnUse" x="90" y="57" width="45" height="45">
<path d="M120.899 59.4807C116.94 57.8356 112.583 57.4022 108.378 58.2351C104.173 59.0681 100.309 61.1301 97.2754 64.1603C94.2416 67.1905 92.1741 71.0529 91.3342 75.2589C90.4943 79.4649 90.9197 83.8257 92.5568 87.7897C94.1939 91.7538 96.969 95.1431 100.531 97.5289C104.093 99.9148 108.283 101.19 112.569 101.194C116.856 101.197 121.047 99.9284 124.613 97.5483C128.179 95.1681 130.96 91.7833 132.603 87.8219C134.804 82.5103 134.808 76.5417 132.613 71.2275C130.418 65.9133 126.205 61.6883 120.899 59.4807Z" fill="white"/>
</mask>
<g mask="url(#mask0_2009_8740)">
<path d="M77.9377 116.584C72.3445 116.575 66.8497 115.11 61.9939 112.333L65.1096 106.847C68.1888 108.607 71.5959 109.716 75.1203 110.106C78.6448 110.496 82.2118 110.159 85.601 109.116C88.9901 108.073 92.1295 106.345 94.8252 104.04C97.5209 101.735 99.7156 98.9011 101.274 95.714C102.832 92.5268 103.721 89.0538 103.885 85.5095C104.049 81.9652 103.485 78.4249 102.228 75.1073C100.971 71.7896 99.0473 68.7651 96.5761 66.2205C94.1049 63.6759 91.1386 61.6653 87.8603 60.3128L90.2633 54.5166C97.1436 57.3723 102.822 62.5259 106.332 69.0999C109.841 75.674 110.965 83.262 109.512 90.572C108.058 97.8819 104.118 104.462 98.3607 109.191C92.6037 113.921 85.3864 116.507 77.9377 116.511V116.584Z" fill="#075085"/>
<path d="M78.1932 122.325C72.6197 122.329 67.1133 121.109 62.0628 118.751C57.0123 116.392 52.5409 112.953 48.9644 108.676C48.1033 107.653 47.2981 106.585 46.5522 105.476L51.7968 101.983C52.4181 102.898 53.0942 103.812 53.8069 104.662C56.9332 108.4 60.8736 111.372 65.326 113.35C69.7783 115.328 74.6243 116.259 79.4922 116.073C84.3601 115.886 89.1205 114.585 93.4082 112.272C97.696 109.958 101.397 106.693 104.228 102.726C107.059 98.7589 108.944 94.1959 109.738 89.3868C110.533 84.5777 110.216 79.6504 108.813 74.9828C107.409 70.3152 104.955 66.0314 101.64 62.4599C98.3247 58.8884 94.236 56.1242 89.6873 54.3792C88.4926 53.9218 87.2723 53.5341 86.0326 53.2182L87.7777 47.1934C89.2012 47.5537 90.6016 47.9995 91.9715 48.5281C100.288 51.7322 107.221 57.7471 111.569 65.5299C115.918 73.3127 117.408 82.3728 115.78 91.1393C114.153 99.9059 109.511 107.826 102.659 113.527C95.807 119.228 87.1775 122.35 78.2663 122.353L78.1932 122.325Z" fill="#3CBCC3"/>
<path d="M78.1932 128.597C70.0548 128.612 62.0697 126.383 55.1135 122.157C48.1574 117.93 42.4988 111.868 38.7585 104.635L44.3138 101.737C47.4295 107.76 52.0916 112.845 57.821 116.469C63.5504 120.093 70.1407 122.126 76.9149 122.358C83.6891 122.591 90.4031 121.014 96.3671 117.792C102.331 114.569 107.33 109.816 110.851 104.02C114.372 98.2246 116.287 91.5957 116.401 84.8144C116.514 78.0331 114.822 71.3438 111.497 65.4336C108.172 59.5233 103.335 54.6053 97.4817 51.1845C91.6288 47.7637 84.9714 45.9636 78.1932 45.969V39.6973C84.0293 39.6889 89.8098 40.8329 95.2033 43.0637C100.597 45.2946 105.497 48.5684 109.624 52.6976C113.751 56.8269 117.023 61.7304 119.252 67.1271C121.482 72.5238 122.625 78.3077 122.617 84.1474C122.617 95.9363 117.936 107.242 109.605 115.578C101.274 123.914 89.975 128.597 78.1932 128.597Z" fill="#EBA63F"/>
<path d="M44.6609 78.6621V80.774H91.1492L91.1766 78.6621H44.6609Z" fill="#3CBCC3"/>
</g>
<path d="M87.0461 65.8155C84.8518 71.0839 84.2684 76.8851 85.3696 82.4853C86.4709 88.0854 89.2073 93.233 93.2328 97.2768C97.2582 101.321 102.392 104.079 107.984 105.203C113.577 106.327 119.377 105.766 124.65 103.591C129.924 101.417 134.435 97.7257 137.612 92.9855C140.789 88.2452 142.49 82.6685 142.499 76.961C142.508 71.2534 140.825 65.6714 137.663 60.921C134.501 56.1706 130.002 52.4652 124.736 50.2736C117.677 47.3391 109.744 47.3277 102.677 50.2418C95.6105 53.1558 89.9886 58.7571 87.0461 65.8155ZM133.699 85.1882C132.056 89.1496 129.276 92.5348 125.711 94.9155C122.146 97.2962 117.955 98.5655 113.668 98.563C109.382 98.5605 105.193 97.2862 101.63 94.9014C98.0673 92.5165 95.2915 89.1281 93.6534 85.1647C92.0153 81.2013 91.5886 76.8409 92.4272 72.6348C93.2658 68.4287 95.332 64.5659 98.3646 61.5349C101.397 58.5038 105.26 56.4406 109.464 55.6061C113.669 54.7717 118.026 55.2035 121.985 56.8469C127.293 59.0528 131.509 63.2771 133.705 68.5915C135.902 73.9059 135.899 79.8754 133.699 85.1882Z" fill="#075085"/>
<path d="M85.9596 68.4489C83.7645 73.7174 83.1804 79.5191 84.2814 85.1199C85.3823 90.7206 88.1188 95.8688 92.1445 99.9131C96.1702 103.957 101.304 106.716 106.897 107.84C112.49 108.964 118.291 108.403 123.565 106.227C128.839 104.052 133.35 100.36 136.526 95.6188C139.703 90.8776 141.403 85.3002 141.411 79.5921C141.419 73.8841 139.735 68.3019 136.572 63.5518C133.408 58.8017 128.908 55.0972 123.64 52.9069C116.583 49.9728 108.651 49.9616 101.586 52.8758C94.5203 55.79 88.9001 61.3912 85.9596 68.4489ZM132.603 87.8215C130.96 91.7829 128.179 95.1677 124.613 97.5479C121.047 99.928 116.856 101.197 112.569 101.193C108.283 101.19 104.093 99.9144 100.531 97.5285C96.969 95.1426 94.1939 91.7534 92.5568 87.7893C90.9197 83.8253 90.4942 79.4645 91.3341 75.2585C92.174 71.0525 94.2416 67.1901 97.2754 64.1599C100.309 61.1297 104.173 59.0677 108.378 58.2347C112.583 57.4018 116.94 57.8352 120.899 59.4803C123.528 60.5714 125.916 62.1702 127.927 64.1853C129.938 66.2004 131.533 68.5922 132.62 71.2242C133.707 73.8562 134.265 76.6767 134.262 79.5245C134.259 82.3724 133.695 85.1917 132.603 87.8215Z" fill="#075085"/>
<path d="M194.112 113.357C193.507 114.813 192.35 115.97 190.894 116.574C189.438 117.177 187.802 117.177 186.345 116.575L133.352 94.5509L137.92 83.5801L190.914 105.595C192.364 106.203 193.514 107.361 194.113 108.815C194.713 110.27 194.712 111.903 194.112 113.357Z" fill="#075085"/>
<path opacity="0.5" d="M110.026 62.8447C113.726 62.7311 117.389 63.6159 120.63 65.4062C123.871 67.1965 126.57 69.8264 128.446 73.0201C128.446 73.0201 118.496 67.8821 110.273 68.4489C109.874 68.4787 109.474 68.4211 109.101 68.28C108.727 68.139 108.389 67.9179 108.109 67.6322C107.83 67.3466 107.616 67.0033 107.483 66.6264C107.35 66.2495 107.301 65.8481 107.34 65.4502C107.385 64.7599 107.685 64.1109 108.181 63.6294C108.677 63.1478 109.335 62.8682 110.026 62.8447Z" fill="white"/>
<path d="M188.237 93.9285C184.281 95.5375 173.911 104.104 171.279 104.177C168.648 104.25 164.564 105.887 163.915 107.834C163.266 109.781 164.829 110.284 166.802 110.22C168.063 110.22 169.434 109.955 171.736 108.136C174.039 106.316 185.953 102.093 189.663 99.9076C193.372 97.7225 190.923 92.8405 188.237 93.9285Z" fill="#FFD2A7"/>
<path d="M139.51 95.6568C139.674 97.5767 139.218 98.0612 141.191 99.5057C143.165 100.95 143.594 100.073 144.764 98.5367C145.933 97.0007 139.318 93.7461 139.51 95.6568Z" fill="#FFD2A7"/>
<path d="M195.647 76.2204C195.647 76.5861 195.602 76.9883 195.565 77.418C195.565 77.674 195.565 77.9483 195.501 78.2226C195.453 78.7833 195.398 79.3928 195.337 80.051C195.337 80.371 195.273 80.691 195.245 81.0201C195.191 81.5047 195.136 82.0166 195.081 82.5377C195.026 83.0589 194.971 83.58 194.907 84.1194C194.679 86.085 194.414 88.142 194.14 90.0893C193.482 94.6605 192.852 97.7506 192.313 98.5643C192.143 98.8143 191.929 99.0311 191.682 99.2042L191.563 99.2774C191.016 99.5837 190.374 99.6749 189.763 99.5334C188.164 99.2499 186.209 98.0249 185.889 96.6718C185.277 94.1394 186.246 78.2134 187.342 74.7302C187.589 73.9531 190.851 70.8264 193.272 71.7589C193.775 71.9072 194.24 72.1619 194.635 72.5057C195.031 72.8496 195.348 73.2746 195.565 73.752C195.569 73.7854 195.569 73.8191 195.565 73.8525V73.9622C195.569 74.0231 195.569 74.0842 195.565 74.1451C195.655 74.8329 195.683 75.5276 195.647 76.2204Z" fill="#EBA63F"/>
<path d="M78.7958 152.44L79.2618 152.532C82.6241 153.117 86.0854 152.538 89.0751 150.891C92.0648 149.244 94.4043 146.627 95.7082 143.471C95.9709 142.832 96.1907 142.175 96.366 141.506C96.366 141.414 96.366 141.323 96.43 141.232C97.0941 138.441 96.9446 135.518 95.9992 132.81C95.0538 130.101 93.3521 127.721 91.0959 125.951C88.8396 124.18 86.1235 123.095 83.2693 122.822C80.4152 122.549 77.5427 123.101 74.9925 124.412C72.4422 125.723 70.3211 127.738 68.8805 130.219C67.44 132.699 66.7404 135.541 66.8647 138.407C66.989 141.273 67.932 144.044 69.5819 146.39C71.2318 148.736 73.5194 150.56 76.1736 151.645C77.0209 151.991 77.8988 152.257 78.7958 152.44ZM73.4142 134.274C74.2602 132.103 75.9029 130.337 78.0065 129.337C80.1101 128.338 82.5159 128.179 84.7323 128.895C86.9487 129.61 88.8084 131.146 89.9314 133.187C91.0544 135.229 91.3559 137.622 90.7743 139.879C90.7572 139.956 90.7358 140.032 90.7103 140.107C90.6072 140.499 90.479 140.884 90.3265 141.259C89.5265 143.182 88.0941 144.775 86.2663 145.772C84.4386 146.77 82.3252 147.113 80.276 146.744L80.0019 146.699C79.4513 146.586 78.9128 146.421 78.3938 146.205C77.2839 145.749 76.2747 145.078 75.4238 144.232C74.5729 143.385 73.8969 142.379 73.4345 141.272C72.9721 140.164 72.7323 138.976 72.7289 137.775C72.7254 136.574 72.9583 135.385 73.4142 134.274Z" fill="#075085"/>
<path d="M85.6032 129.41C84.5034 128.918 83.3172 128.649 82.1129 128.617C80.9087 128.586 79.7101 128.793 78.5861 129.227L76.5029 123.742C79.0895 122.74 81.9033 122.476 84.6309 122.979C87.3585 123.483 89.893 124.734 91.9521 126.593C94.0111 128.453 95.5141 130.847 96.2934 133.511C97.0728 136.174 97.0981 139.002 96.3664 141.679L90.7381 140.161C91.3083 138.051 91.1038 135.806 90.1617 133.834C89.2197 131.861 87.6024 130.292 85.6032 129.41Z" fill="#3CBCC3"/>
<path d="M79.262 152.559L80.2762 146.808C82.3253 147.176 84.4387 146.833 86.2665 145.836C88.0942 144.838 89.5267 143.246 90.3267 141.323C90.4791 140.947 90.6073 140.563 90.7104 140.171L96.3753 141.57C96.2 142.239 95.9802 142.895 95.7174 143.535C94.407 146.686 92.0634 149.297 89.0723 150.937C86.0813 152.577 82.6213 153.149 79.262 152.559Z" fill="#EBA63F"/>
<path d="M68.627 169.819V168.393H83.3007L83.319 169.819H68.627Z" fill="#3CBCC3"/>
<path d="M68.627 165.513V164.078H95.1421L95.1512 165.513H68.627Z" fill="#3CBCC3"/>
<path d="M68.627 161.207V159.771H93.2416L93.2599 161.207H68.627Z" fill="#3CBCC3"/>
<path d="M84.835 168.393H89.3668L89.3851 169.819H84.8532L84.835 168.393Z" fill="#3CBCC3"/>
<path d="M104.589 133.524L104.461 133.981C103.602 137.294 103.899 140.8 105.303 143.921C106.707 147.042 109.134 149.589 112.182 151.141C112.801 151.449 113.439 151.718 114.091 151.946L114.356 152.037C117.084 152.922 120.008 153.006 122.782 152.279C125.555 151.552 128.063 150.044 130.006 147.934C131.949 145.824 133.247 143.201 133.746 140.376C134.245 137.55 133.923 134.641 132.82 131.993C131.716 129.344 129.877 127.068 127.52 125.434C125.163 123.8 122.387 122.877 119.522 122.773C116.656 122.67 113.821 123.391 111.352 124.851C108.884 126.311 106.885 128.448 105.594 131.01C105.18 131.814 104.844 132.656 104.589 133.524ZM123.109 129.584C125.322 130.527 127.073 132.304 127.984 134.531C128.895 136.757 128.892 139.254 127.976 141.478C127.06 143.703 125.304 145.476 123.09 146.414C120.875 147.352 118.381 147.378 116.147 146.488L115.928 146.406C115.547 146.274 115.174 146.118 114.813 145.939C112.946 144.994 111.46 143.435 110.604 141.525C109.747 139.615 109.572 137.468 110.108 135.444C110.123 135.354 110.145 135.266 110.172 135.179C110.334 134.638 110.542 134.112 110.793 133.606C111.335 132.531 112.084 131.573 112.998 130.788C113.911 130.003 114.971 129.407 116.115 129.033C117.26 128.659 118.467 128.515 119.667 128.61C120.867 128.704 122.037 129.035 123.109 129.584Z" fill="#EBA63F"/>
<path d="M126.992 142.155C127.569 141.098 127.931 139.938 128.058 138.741C128.185 137.544 128.074 136.333 127.733 135.179L133.315 133.524C134.102 136.177 134.139 138.996 133.423 141.669C132.707 144.341 131.265 146.763 129.257 148.666C127.249 150.569 124.754 151.879 122.048 152.449C119.342 153.02 116.531 152.83 113.927 151.901L115.882 146.415C117.938 147.138 120.184 147.107 122.219 146.326C124.254 145.546 125.946 144.068 126.992 142.155Z" fill="#075085"/>
<path d="M104.462 133.981L110.108 135.444C109.575 137.471 109.754 139.62 110.616 141.531C111.478 143.442 112.969 144.998 114.841 145.94C115.203 146.118 115.575 146.274 115.956 146.406L114.128 151.946C113.476 151.718 112.838 151.449 112.219 151.142C109.164 149.595 106.729 147.05 105.318 143.929C103.908 140.808 103.605 137.298 104.462 133.981Z" fill="#3CBCC3"/>
<path d="M105.704 169.819V168.393H120.378L120.396 169.819H105.704Z" fill="#3CBCC3"/>
<path d="M105.704 165.513V164.087H132.219L132.237 165.513H105.704Z" fill="#3CBCC3"/>
<path d="M105.704 161.207V159.781H130.319L130.337 161.207H105.704Z" fill="#3CBCC3"/>
<path d="M121.913 168.393H126.445L126.463 169.819H121.931L121.913 168.393Z" fill="#3CBCC3"/>
<path d="M179.713 30.6637C179.732 33.5154 178.907 36.3089 177.341 38.6914C175.775 41.074 173.538 42.9386 170.913 44.0499C168.288 45.1611 165.393 45.469 162.594 44.9348C159.794 44.4006 157.216 43.0482 155.184 41.0484C153.152 39.0485 151.758 36.4911 151.179 33.699C150.599 30.907 150.859 28.0056 151.926 25.3613C152.993 22.7171 154.82 20.4487 157.175 18.8426C159.53 17.2365 162.308 16.3648 165.158 16.3377C167.054 16.3184 168.936 16.674 170.695 17.3842C172.454 18.0944 174.056 19.1451 175.408 20.4762C176.761 21.8072 177.837 23.3923 178.576 25.1405C179.314 26.8888 179.701 28.7657 179.713 30.6637Z" fill="#EBA63F"/>
<path d="M163.567 39.4769C162.772 39.4769 161.027 38.7546 156.313 32.163C156.108 31.8398 156.034 31.4503 156.106 31.0743C156.179 30.6984 156.393 30.3645 156.704 30.1412C157.014 29.9178 157.399 29.822 157.778 29.8732C158.157 29.9245 158.503 30.119 158.743 30.4168C160.119 32.3889 161.646 34.2504 163.312 35.9845C165.386 32.5744 171.37 23.1852 171.653 22.6824C171.76 22.5131 171.899 22.3665 172.063 22.251C172.226 22.1355 172.411 22.0534 172.606 22.0092C172.801 21.9651 173.003 21.9598 173.2 21.9937C173.397 22.0277 173.586 22.1001 173.755 22.207C173.924 22.3138 174.071 22.453 174.186 22.6165C174.302 22.78 174.384 22.9647 174.428 23.1599C174.472 23.3552 174.477 23.5572 174.443 23.7545C174.409 23.9518 174.337 24.1405 174.23 24.3097C171.973 27.8661 166.007 37.3559 165.349 38.5169C165.197 38.7816 164.981 39.004 164.721 39.1637C164.461 39.3234 164.165 39.4153 163.86 39.4312C163.763 39.4517 163.666 39.4669 163.567 39.4769Z" fill="white"/>
</svg>
