<svg width="116" height="116" viewBox="0 0 116 116" fill="none" xmlns="http://www.w3.org/2000/svg">
<path d="M68.7664 43.4997C66.4295 45.1543 65.1026 47.8902 65.2501 50.7497H50.7501C50.9505 47.959 49.6705 45.2681 47.3789 43.6628C32.3714 32.7878 41.5426 8.91719 60.0664 11.0378C67.3982 11.9393 73.4494 17.2001 75.3617 24.3353C77.274 31.4706 74.6648 39.0525 68.7664 43.4997Z" fill="#1D1D2C"/>
<path d="M81.5625 65.25V116H52.5625V110.562C52.5625 109.561 51.751 108.75 50.75 108.75H43.5C42.499 108.75 41.6875 107.939 41.6875 106.938V96.0625L30.8125 92.4375L38.0625 65.25H81.5625Z" fill="#50D9D7"/>
<path d="M59.8125 61.625H56.1875C54.1855 61.625 52.5625 60.002 52.5625 58H63.4375C63.4375 60.002 61.8145 61.625 59.8125 61.625Z" fill="#D9D9D9"/>
<path d="M56.1875 5.4375V1.8125C56.1875 0.811484 56.999 0 58 0C59.001 0 59.8125 0.811484 59.8125 1.8125V5.4375C59.8125 6.43852 59.001 7.25 58 7.25C56.999 7.25 56.1875 6.43852 56.1875 5.4375Z" fill="#1D1D2C"/>
<path d="M74.657 14.1553C73.924 14.1522 73.2649 13.7079 72.9872 13.0295C72.7095 12.351 72.8678 11.5721 73.3883 11.0559L75.9439 8.50029C76.663 7.88444 77.735 7.92585 78.4045 8.59533C79.0739 9.26481 79.1154 10.3368 78.4995 11.0559C75.7264 13.8472 75.6176 14.1553 74.657 14.1553Z" fill="#1D1D2C"/>
<path d="M85.1875 30.8125H81.5625C80.5615 30.8125 79.75 30.001 79.75 29C79.75 27.999 80.5615 27.1875 81.5625 27.1875H85.1875C86.1885 27.1875 87 27.999 87 29C87 30.001 86.1885 30.8125 85.1875 30.8125Z" fill="#1D1D2C"/>
<path d="M77.2307 50.0435C76.1432 50.0435 75.7264 49.2823 73.3882 46.9441C72.6775 46.2384 72.6735 45.0902 73.3792 44.3795C74.0849 43.6687 75.2331 43.6647 75.9439 44.3704L78.4995 46.9441C79.02 47.4604 79.1783 48.2393 78.9005 48.9177C78.6228 49.5961 77.9638 50.0404 77.2307 50.0435Z" fill="#1D1D2C"/>
<path d="M38.7693 50.0435C38.0363 50.0404 37.3772 49.5961 37.0995 48.9177C36.8218 48.2393 36.9801 47.4604 37.5006 46.9441L40.0562 44.3704C40.7669 43.6647 41.9152 43.6687 42.6209 44.3795C43.3266 45.0902 43.3225 46.2384 42.6118 46.9441C39.8749 49.7354 39.7299 50.0435 38.7693 50.0435Z" fill="#1D1D2C"/>
<path d="M34.4375 30.8125H30.8125C29.8115 30.8125 29 30.001 29 29C29 27.999 29.8115 27.1875 30.8125 27.1875H34.4375C35.4385 27.1875 36.25 27.999 36.25 29C36.25 30.001 35.4385 30.8125 34.4375 30.8125Z" fill="#1D1D2C"/>
<path d="M41.3433 14.1553C40.2558 14.1553 39.8389 13.394 37.5008 11.0559C36.8849 10.3368 36.9263 9.26481 37.5958 8.59533C38.2653 7.92585 39.3373 7.88444 40.0564 8.50029L42.612 11.0559C43.1325 11.5721 43.2908 12.351 43.0131 13.0295C42.7354 13.7079 42.0763 14.1522 41.3433 14.1553Z" fill="#1D1D2C"/>
<path d="M53.8494 99.1615C49.7713 103.312 45.5481 103.312 41.6875 103.312V99.6871C44.9863 99.6871 48.0675 99.7959 51.2756 96.5877C51.9863 95.877 53.1387 95.877 53.8494 96.5877C54.5601 97.2984 54.5601 98.4508 53.8494 99.1615Z" fill="#00AAA8"/>
<path fill-rule="evenodd" clip-rule="evenodd" d="M49.0647 33.2956L56.3147 51.4206C56.5881 52.1123 57.2564 52.5669 58.0003 52.5669C58.7442 52.5669 59.4125 52.1123 59.6859 51.4206C66.5394 34.2787 67.3808 32.8141 66.9675 31.9482C66.9141 31.8363 66.8397 31.7344 66.7547 31.6099C66.6468 31.452 66.5698 31.3231 66.4681 31.2182C65.8697 30.6005 64.4151 30.8124 50.7503 30.8124C50.149 30.8118 49.5866 31.1095 49.2489 31.6069C48.9112 32.1044 48.8422 32.737 49.0647 33.2956ZM58.0003 45.8743L53.4328 34.4374H62.5678L58.0003 45.8743Z" fill="#F3F3F3"/>
<rect x="48.9375" y="50.75" width="18.125" height="7.25" rx="1" fill="#D9D9D9"/>
<path d="M67.0625 77.9375H70.6875C71.6885 77.9375 72.5 78.749 72.5 79.75C72.5 90.0812 73.4787 88.16 67.0625 92.4375" stroke="#00AAA8" stroke-width="2" stroke-linecap="round" stroke-linejoin="round"/>
<path d="M89.3382 47.6503L83.9007 53.0878C83.19 53.7985 83.19 54.9508 83.9007 55.6615C84.6114 56.3722 85.7637 56.3722 86.4745 55.6615L91.912 50.224C92.3717 49.7643 92.5513 49.0942 92.383 48.4661C92.2147 47.8381 91.7242 47.3475 91.0961 47.1792C90.4681 47.011 89.798 47.1905 89.3382 47.6503Z" fill="#93E6E5"/>
<path d="M23.037 36.7753L19.412 33.1503C18.9523 32.6905 18.2821 32.511 17.6541 32.6792C17.0261 32.8475 16.5355 33.3381 16.3672 33.9661C16.1989 34.5942 16.3785 35.2643 16.8383 35.724C20.7895 39.6753 20.7714 39.8746 21.7501 39.8746C22.4865 39.8789 23.1522 39.4373 23.4346 38.7572C23.717 38.0771 23.5598 37.2938 23.037 36.7753Z" fill="#93E6E5"/>
<path d="M30.8125 54.375H29V52.5625C29 51.5615 28.1885 50.75 27.1875 50.75C26.1865 50.75 25.375 51.5615 25.375 52.5625V54.375H23.5625C22.5615 54.375 21.75 55.1865 21.75 56.1875C21.75 57.1885 22.5615 58 23.5625 58H25.375V59.8125C25.375 60.8135 26.1865 61.625 27.1875 61.625C28.1885 61.625 29 60.8135 29 59.8125V58H30.8125C31.8135 58 32.625 57.1885 32.625 56.1875C32.625 55.1865 31.8135 54.375 30.8125 54.375Z" fill="#93E6E5"/>
<path d="M101.5 30.8125H99.6875V29C99.6875 27.999 98.876 27.1875 97.875 27.1875C96.874 27.1875 96.0625 27.999 96.0625 29V30.8125H94.25C93.249 30.8125 92.4375 31.624 92.4375 32.625C92.4375 33.626 93.249 34.4375 94.25 34.4375H96.0625V36.25C96.0625 37.251 96.874 38.0625 97.875 38.0625C98.876 38.0625 99.6875 37.251 99.6875 36.25V34.4375H101.5C102.501 34.4375 103.312 33.626 103.312 32.625C103.312 31.624 102.501 30.8125 101.5 30.8125Z" fill="#93E6E5"/>
</svg>
