<svg width="20" height="20" viewBox="0 0 20 20" fill="none" xmlns="http://www.w3.org/2000/svg">
<path fill-rule="evenodd" clip-rule="evenodd" d="M10 2.8998C6.51068 2.8998 3.56723 5.43476 3.80698 8.59174C3.84136 9.04452 3.89276 9.43866 3.9628 9.75143C4.31613 11.3294 5.42522 12.8968 6.67445 14.2275C7.91304 15.5468 9.2318 16.5732 9.91325 17.071C9.96771 17.1108 10.0323 17.1108 10.0868 17.071C10.7682 16.5732 12.087 15.5468 13.3256 14.2275C14.5748 12.8968 15.6839 11.3294 16.0372 9.75143C16.1072 9.43866 16.1586 9.04452 16.193 8.59174C16.4328 5.43476 13.4893 2.8998 10 2.8998ZM2.51762 8.68079C2.21174 4.65291 5.9355 1.66699 10 1.66699C14.0645 1.66699 17.7883 4.65291 17.4824 8.68079C17.4457 9.16324 17.3887 9.61928 17.3014 10.0089C16.8778 11.9006 15.5907 13.6629 14.2887 15.0498C12.976 16.448 11.5885 17.5269 10.8728 18.0497C10.3545 18.4283 9.64546 18.4283 9.12715 18.0497C8.41151 17.5269 7.02397 16.448 5.71131 15.0498C4.40928 13.6629 3.12216 11.9006 2.69857 10.0089C2.61133 9.61928 2.55426 9.16324 2.51762 8.68079Z" fill="white"/>
<path fill-rule="evenodd" clip-rule="evenodd" d="M10 7.83103C9.40504 7.83103 8.92272 8.29099 8.92272 8.85837C8.92272 9.42575 9.40504 9.88571 10 9.88571C10.595 9.88571 11.0773 9.42575 11.0773 8.85837C11.0773 8.29099 10.595 7.83103 10 7.83103ZM7.62999 8.85837C7.62999 7.61013 8.69108 6.59822 10 6.59822C11.3089 6.59822 12.37 7.61013 12.37 8.85837C12.37 10.1066 11.3089 11.1185 10 11.1185C8.69108 11.1185 7.62999 10.1066 7.62999 8.85837Z" fill="white"/>
</svg>
