<svg width="107" height="18" viewBox="0 0 107 18" fill="none" xmlns="http://www.w3.org/2000/svg">
<path d="M18.4591 7.25154C17.7644 2.89831 14.0293 -0.158449 9.53865 0.0804699C4.55378 0.347497 0.5 3.95586 0.5 8.73424C0.5 13.5126 4.55378 17.648 9.53865 17.3915C12.1887 17.2545 14.1475 16.5659 15.5513 15.5188L13.7321 12.6202C12.6614 13.4178 11.852 13.864 9.75352 14.0361C7.8448 14.1907 6.29419 13.2561 5.37385 11.8226L17.0625 7.71884L18.4591 7.25154ZM4.48574 9.36316C4.45351 9.09965 4.43561 8.83262 4.43561 8.56208C4.43561 5.54046 6.595 3.09858 9.75352 3.08804C11.6157 3.08804 13.1591 4.21235 13.9864 5.91289L4.48574 9.36316Z" fill="#0B3E66"/>
<path d="M43.6592 0.983995L43.4694 3.324C42.105 1.45481 39.9886 0.351562 37.1201 0.351562C32.5972 0.351562 28.7618 4.25156 28.9301 9.05102C29.1486 15.0978 32.5972 17.754 37.1201 17.754C39.8561 17.754 42.0477 16.6894 43.4694 14.9889V17.4237H47.5232V0.983995H43.6592ZM43.4694 10.7797C42.6851 12.8737 40.7155 14.3564 38.4093 14.3564C35.4155 14.3564 32.9839 11.8513 32.9839 8.7594C32.9839 5.66751 35.4155 3.15886 38.4093 3.15886C40.7155 3.15886 42.6851 4.64156 43.4694 6.73913V10.7797Z" fill="#0B3E66"/>
<path d="M67.2013 17.2794H61.955L57.9335 12.1181L53.9262 17.3743L49.4499 17.4024L55.7311 9.2897L49.21 0.916992H54.5708L58.3883 5.86051L62.2164 0.916992L66.3956 1.01537L60.5584 8.67484L67.2013 17.2794Z" fill="#0B3E66"/>
<path d="M87.266 8.69933C87.266 14.0715 83.266 17.4023 78.1379 17.4023C74.3849 17.4023 71.2407 15.7123 69.8262 12.6239L73.5648 11.3204C74.3598 13.042 75.9892 14.1839 78.1558 14.1839C81.4289 14.1839 83.2875 11.8053 83.2875 8.74852C83.2875 8.47447 83.2731 8.20393 83.2409 7.94393L87.0512 6.6123C87.1944 7.26582 87.266 7.96149 87.266 8.69933Z" fill="#0B3E66"/>
<path d="M86.0381 4.01595L82.2708 5.33351C81.3935 4.08973 79.9718 3.30622 78.1562 3.30622C75.0048 3.30622 73.1068 5.59 73.0281 8.5554L69.096 9.92567C69.0459 9.53216 69.0244 9.12108 69.0244 8.69946C69.0244 3.39757 73.0137 0 78.1383 0C81.5546 0 84.4732 1.44054 86.0381 4.01595Z" fill="#0B3E66"/>
<path d="M106.02 5.00643L106.196 17.4056H102.113V9.59508C102.113 8.24238 102.053 7.92616 102.053 7.36751C102.053 4.44076 100.459 3.89265 98.7401 3.80481C98.5682 3.79778 98.3963 3.80481 98.2208 3.83292C96.2119 4.15967 94.185 6.85454 94.185 9.66887V17.4056H90.1025V0.983454H93.7803L93.9522 4.03319C95.2271 1.80913 97.5333 0.45643 100.033 0.403728C100.774 0.38616 101.469 0.466971 102.113 0.635619C103.736 1.06427 104.613 1.6194 105.655 3.594C105.888 4.02967 106.013 4.51805 106.02 5.00995V5.00643Z" fill="#0B3E66"/>
<path d="M26.4589 8.60449H20.9727V11.2466H26.4589V8.60449Z" fill="#0B3E66"/>
</svg>
