<svg width="242" height="220" viewBox="0 0 242 220" fill="none" xmlns="http://www.w3.org/2000/svg">
<path d="M174.218 61.7485C173.987 61.7485 173.766 61.6569 173.603 61.4938C173.44 61.3306 173.348 61.1094 173.348 60.8787V60.0089C173.348 59.7782 173.44 59.5569 173.603 59.3938C173.766 59.2307 173.987 59.1391 174.218 59.1391C174.448 59.1391 174.67 59.2307 174.833 59.3938C174.996 59.5569 175.088 59.7782 175.088 60.0089V60.8787C175.088 61.1094 174.996 61.3306 174.833 61.4938C174.67 61.6569 174.448 61.7485 174.218 61.7485ZM174.218 56.5296C173.987 56.5296 173.766 56.438 173.603 56.2748C173.44 56.1117 173.348 55.8905 173.348 55.6598V51.3107C173.348 51.08 173.44 50.8588 173.603 50.6956C173.766 50.5325 173.987 50.4409 174.218 50.4409C174.448 50.4409 174.67 50.5325 174.833 50.6956C174.996 50.8588 175.088 51.08 175.088 51.3107V55.6598C175.088 55.8905 174.996 56.1117 174.833 56.2748C174.67 56.438 174.448 56.5296 174.218 56.5296ZM134.05 53.6505C133.819 53.6505 133.598 53.5589 133.434 53.3957C133.271 53.2326 133.18 53.0114 133.18 52.7807V48.4316C133.18 48.2009 133.271 47.9797 133.434 47.8165C133.598 47.6534 133.819 47.5618 134.05 47.5618C134.28 47.5618 134.501 47.6534 134.665 47.8165C134.828 47.9797 134.919 48.2009 134.919 48.4316V52.7807C134.908 53.0038 134.812 53.214 134.65 53.3678C134.488 53.5216 134.273 53.6073 134.05 53.607V53.6505ZM174.218 47.8314C173.987 47.8314 173.766 47.7398 173.603 47.5767C173.44 47.4135 173.348 47.1923 173.348 46.9616V42.6125C173.348 42.3818 173.44 42.1606 173.603 41.9975C173.766 41.8343 173.987 41.7427 174.218 41.7427C174.448 41.7427 174.67 41.8343 174.833 41.9975C174.996 42.1606 175.088 42.3818 175.088 42.6125V46.9616C175.088 47.1923 174.996 47.4135 174.833 47.5767C174.67 47.7398 174.448 47.8314 174.218 47.8314ZM134.05 44.9523C133.819 44.9523 133.598 44.8607 133.434 44.6976C133.271 44.5344 133.18 44.3132 133.18 44.0825V39.7334C133.18 39.5027 133.271 39.2815 133.434 39.1184C133.598 38.9552 133.819 38.8636 134.05 38.8636C134.28 38.8636 134.501 38.9552 134.665 39.1184C134.828 39.2815 134.919 39.5027 134.919 39.7334V44.0825C134.908 44.3056 134.812 44.5158 134.65 44.6696C134.488 44.8235 134.273 44.9091 134.05 44.9088V44.9523ZM174.218 39.1332C173.987 39.1332 173.766 39.0416 173.603 38.8785C173.44 38.7154 173.348 38.4941 173.348 38.2634V35.7148C173.348 35.1321 173.348 34.5406 173.27 33.9752C173.249 33.7445 173.321 33.515 173.469 33.3372C173.617 33.1594 173.83 33.0479 174.061 33.0271C174.292 33.0063 174.521 33.0781 174.699 33.2265C174.877 33.375 174.988 33.588 175.009 33.8186C175.07 34.4623 175.096 35.106 175.096 35.7409V38.2634C175.096 38.3784 175.073 38.4922 175.029 38.5983C174.985 38.7044 174.92 38.8007 174.838 38.8816C174.757 38.9625 174.66 39.0263 174.553 39.0695C174.447 39.1127 174.333 39.1344 174.218 39.1332ZM134.058 36.2541C133.828 36.2541 133.606 36.1625 133.443 35.9994C133.28 35.8363 133.188 35.615 133.188 35.3843C133.215 33.8694 133.404 32.3617 133.754 30.8874C133.781 30.7731 133.83 30.6653 133.898 30.5701C133.967 30.4748 134.053 30.394 134.153 30.3322C134.253 30.2704 134.364 30.2288 134.48 30.2099C134.595 30.191 134.714 30.1951 134.828 30.2219C134.942 30.2488 135.05 30.2979 135.145 30.3664C135.241 30.4349 135.321 30.5215 135.383 30.6212C135.445 30.721 135.487 30.8319 135.505 30.9477C135.524 31.0636 135.52 31.1819 135.493 31.2962C135.172 32.6448 134.997 34.0242 134.972 35.4104C134.954 35.6366 134.848 35.8468 134.678 35.9963C134.507 36.1458 134.285 36.2227 134.058 36.2106V36.2541ZM173.278 30.5307C173.088 30.5401 172.899 30.4864 172.742 30.3779C172.585 30.2694 172.467 30.1122 172.409 29.9306C172.004 28.5925 171.452 27.3031 170.765 26.086C170.661 25.8872 170.637 25.6559 170.7 25.4404C170.762 25.225 170.906 25.042 171.1 24.9297C171.294 24.8174 171.524 24.7846 171.742 24.8379C171.96 24.8913 172.149 25.0268 172.269 25.2161C173.026 26.5276 173.641 27.9154 174.105 29.3565C174.14 29.4656 174.153 29.5805 174.144 29.6947C174.134 29.8089 174.102 29.9201 174.05 30.022C173.997 30.1238 173.925 30.2143 173.837 30.2882C173.75 30.362 173.649 30.4179 173.539 30.4524C173.455 30.4772 173.367 30.4889 173.278 30.4872V30.5307ZM136.067 27.8256C135.935 27.8261 135.804 27.7964 135.685 27.7386C135.582 27.6885 135.49 27.6186 135.414 27.5328C135.338 27.4471 135.28 27.3472 135.243 27.2389C135.206 27.1306 135.19 27.0161 135.197 26.9018C135.204 26.7875 135.234 26.6758 135.285 26.5731C135.948 25.212 136.756 23.9261 137.694 22.7372C137.837 22.5561 138.046 22.4392 138.275 22.4123C138.505 22.3854 138.735 22.4506 138.916 22.5936C139.097 22.7367 139.214 22.9458 139.241 23.175C139.268 23.4041 139.203 23.6346 139.06 23.8157C138.197 24.8906 137.456 26.0575 136.85 27.295C136.785 27.4495 136.676 27.5818 136.537 27.676C136.398 27.7701 136.235 27.8221 136.067 27.8256ZM168.947 23.0329C168.827 23.0325 168.709 23.0076 168.6 22.9597C168.491 22.9118 168.393 22.842 168.312 22.7546C167.383 21.7256 166.344 20.801 165.215 19.9972C165.121 19.9313 165.041 19.8474 164.979 19.7504C164.918 19.6533 164.876 19.5451 164.857 19.4319C164.838 19.3186 164.841 19.2027 164.866 19.0907C164.892 18.9788 164.94 18.873 165.006 18.7795C165.139 18.592 165.341 18.4647 165.568 18.4256C165.794 18.3865 166.027 18.4387 166.215 18.5707C167.436 19.4484 168.558 20.4544 169.564 21.5716C169.726 21.7346 169.817 21.955 169.817 22.1848C169.817 22.4146 169.726 22.6351 169.564 22.798C169.396 22.9514 169.174 23.0325 168.947 23.0242V23.0329ZM141.417 21.0497C141.288 21.0489 141.162 21.0196 141.046 20.9639C140.93 20.9083 140.828 20.8277 140.747 20.7279C140.674 20.64 140.619 20.5385 140.585 20.4293C140.551 20.32 140.539 20.2051 140.549 20.0912C140.56 19.9773 140.593 19.8665 140.646 19.7653C140.699 19.6641 140.772 19.5745 140.86 19.5014C142.028 18.543 143.297 17.7147 144.644 17.0312C144.746 16.9751 144.858 16.9401 144.974 16.9283C145.09 16.9164 145.207 16.9279 145.318 16.9621C145.429 16.9963 145.533 17.0524 145.622 17.1272C145.711 17.2021 145.784 17.294 145.837 17.3976C145.89 17.5013 145.922 17.6145 145.93 17.7306C145.939 17.8467 145.924 17.9633 145.886 18.0735C145.849 18.1837 145.789 18.2852 145.712 18.3721C145.635 18.459 145.541 18.5295 145.435 18.5794C144.198 19.2097 143.031 19.9708 141.956 20.8497C141.804 20.9756 141.614 21.0461 141.417 21.0497ZM161.892 18.0575C161.776 18.0597 161.66 18.0359 161.553 17.988C160.275 17.4538 158.942 17.06 157.578 16.8137C157.347 16.7733 157.142 16.643 157.008 16.4513C156.873 16.2596 156.82 16.0223 156.861 15.7917C156.901 15.561 157.031 15.3558 157.223 15.2212C157.415 15.0866 157.652 15.0337 157.883 15.0741C159.374 15.3461 160.832 15.7777 162.232 16.3614C162.416 16.4399 162.568 16.5796 162.661 16.757C162.754 16.9343 162.783 17.1384 162.743 17.3348C162.703 17.5311 162.597 17.7077 162.442 17.8346C162.287 17.9615 162.093 18.0311 161.892 18.0314V18.0575ZM149.106 17.1355C148.875 17.1644 148.643 17.1004 148.459 16.9576C148.276 16.8149 148.156 16.6051 148.128 16.3744C148.099 16.1437 148.163 15.9111 148.305 15.7275C148.448 15.544 148.658 15.4247 148.889 15.3959C150.354 15.0253 151.857 14.8182 153.368 14.7783C153.599 14.7783 153.82 14.87 153.983 15.0331C154.146 15.1962 154.238 15.4174 154.238 15.6481C154.238 15.8788 154.146 16.1001 153.983 16.2632C153.82 16.4263 153.599 16.518 153.368 16.518C151.98 16.5703 150.601 16.7685 149.254 17.1094C149.205 17.1224 149.156 17.1311 149.106 17.1355Z" fill="#075085"/>
<path d="M167.285 58.8252L174.218 70.8374L181.159 58.8252H167.285Z" fill="#075085"/>
<path d="M162.779 42.2906V129.151C162.779 129.559 162.698 129.964 162.542 130.341C162.385 130.718 162.155 131.061 161.866 131.349C161.577 131.638 161.234 131.867 160.856 132.022C160.478 132.178 160.073 132.257 159.665 132.256H38.7166C37.893 132.256 37.1032 131.929 36.5208 131.346C35.9385 130.764 35.6113 129.974 35.6113 129.151V42.2993C35.6113 41.2465 36.0289 40.2368 36.7725 39.4916C37.5161 38.7463 38.525 38.3265 39.5777 38.3242H158.804C159.325 38.3231 159.842 38.4248 160.324 38.6236C160.806 38.8225 161.245 39.1144 161.614 39.4829C161.983 39.8513 162.276 40.2889 162.476 40.7707C162.676 41.2525 162.779 41.769 162.779 42.2906Z" fill="white"/>
<path d="M162.779 51.9978H35.6113V42.2906C35.6113 41.2386 36.0292 40.2298 36.7731 39.4859C37.5169 38.7421 38.5258 38.3242 39.5777 38.3242H158.804C159.856 38.3242 160.866 38.7418 161.611 39.4854C162.357 40.229 162.776 41.2378 162.779 42.2906V51.9978Z" fill="#0B3E66"/>
<path d="M57.4873 45.1607C57.4873 44.7461 57.6102 44.3408 57.8406 43.9961C58.0709 43.6514 58.3983 43.3827 58.7814 43.224C59.1644 43.0654 59.5859 43.0238 59.9925 43.1047C60.3992 43.1856 60.7727 43.3853 61.0658 43.6784C61.359 43.9716 61.5587 44.3451 61.6395 44.7518C61.7204 45.1584 61.6789 45.5799 61.5203 45.9629C61.3616 46.346 61.0929 46.6734 60.7482 46.9037C60.4035 47.134 59.9982 47.257 59.5836 47.257C59.0283 47.2547 58.4964 47.0331 58.1038 46.6405C57.7112 46.2478 57.4896 45.716 57.4873 45.1607Z" fill="#D3D8EA"/>
<path d="M49.4072 45.1615C49.4055 44.7444 49.5277 44.3363 49.7584 43.9888C49.989 43.6413 50.3177 43.3701 50.7026 43.2097C51.0876 43.0494 51.5116 43.0069 51.9207 43.0879C52.3298 43.1688 52.7057 43.3695 53.0006 43.6644C53.2955 43.9593 53.4962 44.3352 53.5771 44.7443C53.6581 45.1534 53.6156 45.5774 53.4553 45.9624C53.2949 46.3473 53.0237 46.676 52.6762 46.9066C52.3287 47.1373 51.9206 47.2595 51.5035 47.2578C50.9482 47.2555 50.4164 47.0339 50.0238 46.6412C49.6311 46.2486 49.4095 45.7168 49.4072 45.1615Z" fill="#F0F8FF"/>
<path d="M41.3262 45.1615C41.3245 44.7452 41.4462 44.3377 41.6761 43.9906C41.906 43.6435 42.2336 43.3723 42.6176 43.2114C43.0015 43.0505 43.4246 43.0071 43.8333 43.0866C44.2419 43.1662 44.6178 43.3651 44.9134 43.6582C45.209 43.9514 45.411 44.3256 45.4939 44.7336C45.5768 45.1416 45.5369 45.565 45.3792 45.9503C45.2215 46.3356 44.953 46.6654 44.6078 46.8982C44.2626 47.1309 43.8562 47.256 43.4398 47.2578C43.1634 47.2589 42.8895 47.2056 42.6337 47.1009C42.3778 46.9961 42.1451 46.842 41.9489 46.6474C41.7526 46.4527 41.5966 46.2213 41.4897 45.9664C41.3829 45.7114 41.3273 45.4379 41.3262 45.1615Z" fill="white"/>
<path d="M152.776 43.621L153.811 42.5859L155.299 44.0646L156.786 42.5859L157.821 43.621L156.334 45.1084L157.821 46.5958L156.786 47.6309L155.299 46.1435L153.811 47.6309L152.776 46.5958L154.255 45.1084L152.776 43.621Z" fill="white"/>
<path d="M78.4502 56.9561L78.5546 58.6435H106.667L106.563 56.9561H78.4502Z" fill="#D3D8EA"/>
<path d="M92.2373 62.0176L92.3504 63.705H138.068L137.964 62.0176H92.2373Z" fill="#D3D8EA"/>
<path d="M78.5195 62.0176L78.6239 63.705H90.2621L90.149 62.0176H78.5195Z" fill="#075085"/>
<path d="M78.3896 67.0801L78.494 68.7675H101.77L101.605 67.0801H78.3896Z" fill="#D3D8EA"/>
<path d="M103.223 67.0801L103.388 68.7675H126.186L126.09 67.0801H103.223Z" fill="#075085"/>
<path d="M58.036 67.0801L58.0273 68.7675H69.4655L69.4742 67.0801H58.036Z" fill="#D3D8EA"/>
<path d="M44.1357 62.0176L44.127 63.705H62.7324V62.0176H44.1357Z" fill="#D3D8EA"/>
<path d="M64.8632 62.0176L64.8545 63.705H69.5863L69.595 62.0176H64.8632Z" fill="#D3D8EA"/>
<path d="M60.3408 56.9561L60.3582 58.6435H69.7957L69.8131 56.9561H60.3408Z" fill="#F0F8FF"/>
<path d="M49.1552 56.9561L49.1465 58.6435H58.4448L58.4274 56.9561H49.1552Z" fill="#F0F8FF"/>
<path d="M57.8964 86.0254L57.8877 87.7128H69.3171L69.3345 86.0254H57.8964Z" fill="#D3D8EA"/>
<path d="M43.9969 80.9707L43.9795 82.6495H62.5849L62.5936 80.9707H43.9969Z" fill="#D3D8EA"/>
<path d="M64.7245 80.9707L64.7158 82.6495H69.4476L69.4563 80.9707H64.7245Z" fill="#D3D8EA"/>
<path d="M57.7138 96.6895L57.7051 98.3682H69.1345L69.1519 96.6895H57.7138Z" fill="#D3D8EA"/>
<path d="M43.8144 91.626L43.8057 93.3047H62.4024L62.4111 91.626H43.8144Z" fill="#F0F8FF"/>
<path d="M64.5419 91.626L64.5332 93.3047H69.265L69.2737 91.626H64.5419Z" fill="#F0F8FF"/>
<path d="M60.2012 75.9092L60.2186 77.5879H69.6561L69.6648 75.9092H60.2012Z" fill="#F0F8FF"/>
<path d="M49.0155 75.9092L49.0068 77.5879H58.3052L58.2878 75.9092H49.0155Z" fill="#075085"/>
<path d="M109.45 56.9561L109.555 58.6435H118.087L117.983 56.9561H109.45Z" fill="#075085"/>
<path d="M140.912 62.0176L141.008 63.705H154.664L154.56 62.0176H140.912Z" fill="#D3D8EA"/>
<path d="M128.7 67.0801L128.796 68.7675H142.643L142.539 67.0801H128.7Z" fill="#D3D8EA"/>
<path d="M121.811 56.9561L122.011 58.6435H146.122L145.922 56.9561H121.811Z" fill="#D3D8EA"/>
<path d="M78.3115 75.9092L78.4072 77.5879H106.52L106.424 75.9092H78.3115Z" fill="#D3D8EA"/>
<path d="M92.0977 80.9707L92.202 82.6495H137.928L137.824 80.9707H92.0977Z" fill="#D3D8EA"/>
<path d="M78.3809 80.9707L78.4852 82.6495H90.1234L90.0103 80.9707H78.3809Z" fill="#D3D8EA"/>
<path d="M78.25 86.0254L78.3544 87.7128H101.631L101.457 86.0254H78.25Z" fill="#D3D8EA"/>
<path d="M103.083 86.0254L103.248 87.7128H126.046L125.951 86.0254H103.083Z" fill="#D3D8EA"/>
<path d="M109.312 75.9092L109.416 77.5879H117.949L117.844 75.9092H109.312Z" fill="#D3D8EA"/>
<path d="M140.772 80.9707L140.868 82.6495H154.524L154.42 80.9707H140.772Z" fill="#D3D8EA"/>
<path d="M128.561 86.0254L128.656 87.7128H142.504L142.399 86.0254H128.561Z" fill="#075085"/>
<path d="M92.4805 91.626L92.5848 93.3047H138.303L138.207 91.626H92.4805Z" fill="#D3D8EA"/>
<path d="M78.7637 91.626L78.8681 93.3047H90.4975L90.3931 91.626H78.7637Z" fill="#D3D8EA"/>
<path d="M78.6328 96.6895L78.7372 98.3682H102.005L101.84 96.6895H78.6328Z" fill="#D3D8EA"/>
<path d="M103.467 96.6895L103.632 98.3682H126.43L126.326 96.6895H103.467Z" fill="#075085"/>
<path d="M141.146 91.626L141.251 93.3047H154.907L154.803 91.626H141.146Z" fill="#075085"/>
<path d="M128.935 96.6895L129.039 98.3682H142.886L142.782 96.6895H128.935Z" fill="#D3D8EA"/>
<path d="M121.663 75.9092L121.863 77.5879H145.975L145.774 75.9092H121.663Z" fill="#075085"/>
<path d="M57.5223 114.12L57.5049 115.799H68.943L68.9604 114.12H57.5223Z" fill="#D3D8EA"/>
<path d="M43.6142 109.058L43.6055 110.736H62.2109L62.2196 109.058H43.6142Z" fill="#D3D8EA"/>
<path d="M64.3505 109.058L64.3418 110.736H69.0736L69.0823 109.058H64.3505Z" fill="#D3D8EA"/>
<path d="M57.3397 124.775L57.3223 126.454H68.7604L68.7778 124.775H57.3397Z" fill="#D3D8EA"/>
<path d="M43.4402 119.713L43.4229 121.4H62.0283L62.037 119.713H43.4402Z" fill="#F0F8FF"/>
<path d="M64.1679 119.713L64.1592 121.4H68.891L68.8997 119.713H64.1679Z" fill="#075085"/>
<path d="M59.8271 103.996L59.8445 105.675H69.2821L69.2908 103.996H59.8271Z" fill="#F0F8FF"/>
<path d="M48.6414 103.996L48.624 105.675H57.9311L57.9137 103.996H48.6414Z" fill="#075085"/>
<path d="M77.9287 103.996L78.0331 105.675H106.146L106.05 103.996H77.9287Z" fill="#D3D8EA"/>
<path d="M91.7236 109.058L91.828 110.736H137.546L137.45 109.058H91.7236Z" fill="#D3D8EA"/>
<path d="M78.0068 109.058L78.1112 110.736H89.7407L89.6363 109.058H78.0068Z" fill="#D3D8EA"/>
<path d="M77.876 114.12L77.9804 115.799H101.248L101.083 114.12H77.876Z" fill="#D3D8EA"/>
<path d="M102.71 114.12L102.875 115.799H125.673L125.569 114.12H102.71Z" fill="#D3D8EA"/>
<path d="M108.938 103.996L109.042 105.675H117.575L117.47 103.996H108.938Z" fill="#D3D8EA"/>
<path d="M140.39 109.058L140.494 110.736H154.15L154.046 109.058H140.39Z" fill="#D3D8EA"/>
<path d="M128.178 114.12L128.282 115.799H142.13L142.025 114.12H128.178Z" fill="#075085"/>
<path d="M92.0977 119.713L92.2107 121.4H137.928L137.833 119.713H92.0977Z" fill="#D3D8EA"/>
<path d="M78.3896 119.713L78.4853 121.4H90.1235L90.0191 119.713H78.3896Z" fill="#D3D8EA"/>
<path d="M78.2588 124.775L78.3632 126.454H101.631L101.466 124.775H78.2588Z" fill="#D3D8EA"/>
<path d="M103.092 124.775L103.257 126.454H126.055L125.951 124.775H103.092Z" fill="#075085"/>
<path d="M140.772 119.713L140.877 121.4H154.533L154.429 119.713H140.772Z" fill="#075085"/>
<path d="M128.561 124.775L128.665 126.454H142.504L142.408 124.775H128.561Z" fill="#D3D8EA"/>
<path d="M121.289 103.996L121.489 105.675H145.6L145.4 103.996H121.289Z" fill="#075085"/>
<path d="M204.431 80.66L138.203 80.7871L138.43 199.108L204.658 198.981L204.431 80.66Z" fill="#D3D8EA"/>
<path d="M204.252 80.8323L204.479 198.797L138.598 198.936L138.372 80.9628L204.252 80.8323ZM204.6 80.4844L138.024 80.6148L138.251 199.284L204.826 199.154L204.6 80.4844Z" fill="#1D1D2C"/>
<path d="M140.32 76.0743L178.81 76.3004V81.2932H159.317L145.4 81.3715C143.152 81.3761 140.998 82.2728 139.411 83.8647C137.824 85.4565 136.934 87.6132 136.937 89.8609L137.119 186.533C137.121 187.646 137.343 188.748 137.772 189.775C138.2 190.803 138.827 191.736 139.616 192.521C140.405 193.306 141.341 193.928 142.371 194.351C143.401 194.775 144.504 194.991 145.617 194.987L179.001 195.057V205.555L140.503 205.912C139.39 205.916 138.287 205.699 137.258 205.276C136.229 204.853 135.293 204.231 134.504 203.446C133.716 202.66 133.09 201.727 132.663 200.7C132.235 199.672 132.014 198.57 132.013 197.457L131.796 84.5289C131.8 83.4141 132.025 82.311 132.455 81.2828C132.886 80.2546 133.515 79.3213 134.307 78.5362C135.099 77.7511 136.037 77.1296 137.069 76.7072C138.1 76.2848 139.205 76.0697 140.32 76.0743Z" fill="#1D1D2C"/>
<path d="M135.319 84.503V197.432C135.319 199.581 136.136 201.65 137.604 203.22C139.072 204.79 141.082 205.743 143.226 205.886H143.8H202.948C203.669 205.887 204.383 205.746 205.05 205.471C205.716 205.195 206.321 204.791 206.831 204.281C207.341 203.771 207.745 203.166 208.021 202.499C208.296 201.833 208.437 201.119 208.436 200.398V81.5021C208.436 80.0442 207.857 78.6459 206.826 77.615C205.795 76.5841 204.397 76.0049 202.939 76.0049H143.791H143.2C141.054 76.1592 139.047 77.1224 137.584 78.7C136.121 80.2775 135.312 82.3516 135.319 84.503ZM140.417 86.8689C140.417 85.411 140.996 84.0127 142.027 82.9818C143.058 81.9508 144.456 81.3717 145.914 81.3717H197.885C198.606 81.3717 199.32 81.5136 199.986 81.7895C200.652 82.0653 201.257 82.4696 201.766 82.9792C202.276 83.4889 202.68 84.0939 202.956 84.7598C203.232 85.4257 203.374 86.1395 203.374 86.8602V189.499C203.374 190.22 203.232 190.933 202.956 191.599C202.68 192.265 202.276 192.87 201.766 193.38C201.257 193.889 200.652 194.294 199.986 194.57C199.32 194.845 198.606 194.987 197.885 194.987H145.931C144.475 194.987 143.078 194.409 142.047 193.38C141.016 192.351 140.436 190.955 140.434 189.499L140.417 86.8689Z" fill="#0B3E66"/>
<path d="M164.971 202.998H179.089C179.77 202.982 180.418 202.7 180.895 202.212C181.371 201.725 181.637 201.07 181.637 200.388C181.637 200.052 181.571 199.719 181.442 199.409C181.312 199.099 181.123 198.817 180.885 198.58C180.646 198.343 180.363 198.156 180.052 198.029C179.741 197.902 179.407 197.838 179.071 197.84H164.963C164.626 197.84 164.293 197.906 163.982 198.035C163.671 198.164 163.389 198.354 163.151 198.592C162.914 198.83 162.726 199.113 162.598 199.425C162.47 199.736 162.404 200.069 162.406 200.406C162.401 200.745 162.464 201.082 162.591 201.397C162.718 201.712 162.906 201.998 163.145 202.24C163.384 202.481 163.669 202.672 163.982 202.803C164.296 202.933 164.632 202.999 164.971 202.998Z" fill="#1D1D2C"/>
<path d="M140.416 88.7739H203.399V83.4333C203.399 83.1458 203.343 82.8612 203.232 82.5958C203.122 82.3303 202.961 82.0892 202.757 81.8864C202.553 81.6835 202.312 81.5229 202.046 81.4137C201.78 81.3045 201.495 81.2489 201.208 81.25H142.599C142.312 81.2489 142.027 81.3045 141.761 81.4137C141.495 81.5229 141.253 81.6835 141.05 81.8864C140.846 82.0892 140.685 82.3303 140.574 82.5958C140.464 82.8612 140.407 83.1458 140.407 83.4333L140.416 88.7739Z" fill="#1D1D2C"/>
<path d="M199.86 84.164L199.286 83.5986L198.468 84.4163L197.65 83.5986L197.076 84.164L197.894 84.9816L197.076 85.7993L197.65 86.3733L198.468 85.5557L199.286 86.3733L199.86 85.7993L199.042 84.9816L199.86 84.164Z" fill="white"/>
<path d="M152.611 85.0074C152.611 84.7786 152.679 84.555 152.806 84.3647C152.933 84.1745 153.114 84.0262 153.325 83.9386C153.537 83.8511 153.769 83.8282 153.994 83.8728C154.218 83.9175 154.424 84.0276 154.586 84.1894C154.748 84.3512 154.858 84.5573 154.903 84.7818C154.947 85.0062 154.925 85.2388 154.837 85.4502C154.749 85.6615 154.601 85.8422 154.411 85.9693C154.221 86.0965 153.997 86.1643 153.768 86.1643C153.461 86.1643 153.167 86.0424 152.95 85.8255C152.733 85.6085 152.611 85.3143 152.611 85.0074Z" fill="white"/>
<path d="M148.166 85.0074C148.166 84.7786 148.234 84.555 148.361 84.3647C148.488 84.1745 148.669 84.0262 148.88 83.9386C149.092 83.8511 149.324 83.8282 149.549 83.8728C149.773 83.9175 149.979 84.0276 150.141 84.1894C150.303 84.3512 150.413 84.5573 150.458 84.7818C150.502 85.0062 150.479 85.2388 150.392 85.4502C150.304 85.6615 150.156 85.8422 149.966 85.9693C149.775 86.0965 149.552 86.1643 149.323 86.1643C149.171 86.1655 149.02 86.1363 148.879 86.0786C148.738 86.0209 148.61 85.9357 148.502 85.828C148.395 85.7204 148.309 85.5924 148.252 85.4515C148.194 85.3106 148.165 85.1597 148.166 85.0074Z" fill="#D3D8EA"/>
<path d="M143.722 85.0074C143.722 84.7786 143.79 84.555 143.917 84.3647C144.044 84.1745 144.224 84.0262 144.436 83.9386C144.647 83.8511 144.88 83.8282 145.104 83.8728C145.329 83.9175 145.535 84.0276 145.697 84.1894C145.858 84.3512 145.969 84.5573 146.013 84.7818C146.058 85.0062 146.035 85.2388 145.947 85.4502C145.86 85.6615 145.712 85.8422 145.521 85.9693C145.331 86.0965 145.107 86.1643 144.879 86.1643C144.726 86.1655 144.575 86.1363 144.434 86.0786C144.294 86.0209 144.166 85.9357 144.058 85.828C143.95 85.7204 143.865 85.5924 143.807 85.4515C143.75 85.3106 143.721 85.1597 143.722 85.0074Z" fill="#075085"/>
<path d="M203.4 189.489C203.4 190.946 202.822 192.343 201.793 193.374C200.764 194.404 199.368 194.984 197.912 194.987H158.117C156.659 194.987 155.261 194.408 154.23 193.377C153.199 192.346 152.62 190.947 152.62 189.489V86.8509C152.619 86.1298 152.76 85.4155 153.036 84.7491C153.311 84.0827 153.715 83.4772 154.225 82.9673C154.735 82.4574 155.341 82.0532 156.007 81.7778C156.673 81.5024 157.388 81.3612 158.109 81.3623H197.912C199.368 81.3646 200.764 81.9448 201.793 82.9755C202.822 84.0062 203.4 85.4031 203.4 86.8596V189.489Z" fill="url(#paint0_linear_2117_14765)"/>
<path d="M174.461 87.7471L174.504 89.1388H186.125L186.082 87.7471H174.461Z" fill="#D3D8EA"/>
<path d="M180.158 91.9482L180.202 93.34H199.103L199.059 91.9482H180.158Z" fill="#D3D8EA"/>
<path d="M174.487 91.9482L174.531 93.34H179.341L179.297 91.9482H174.487Z" fill="#075085"/>
<path d="M174.435 96.1416L174.478 97.542H184.098L184.029 96.1416H174.435Z" fill="#D3D8EA"/>
<path d="M184.698 96.1416L184.768 97.542H194.197L194.153 96.1416H184.698Z" fill="#075085"/>
<path d="M164.145 96.1416V97.542H169.946L169.955 96.1416H164.145Z" fill="#D3D8EA"/>
<path d="M157.091 91.9482L157.082 93.34H166.528L166.537 91.9482H157.091Z" fill="#D3D8EA"/>
<path d="M167.615 91.9482L167.606 93.34H170.016V91.9482H167.615Z" fill="#D3D8EA"/>
<path d="M165.319 87.7471L165.328 89.1388H170.121L170.129 87.7471H165.319Z" fill="#F0F8FF"/>
<path d="M159.639 87.7471L159.63 89.1388H164.353L164.344 87.7471H159.639Z" fill="#075085"/>
<path d="M164.075 111.859L164.066 113.26H169.877L169.885 111.859H164.075Z" fill="#D3D8EA"/>
<path d="M157.02 107.666L157.012 109.058H166.458V107.666H157.02Z" fill="#D3D8EA"/>
<path d="M167.546 107.666L167.537 109.058H169.938L169.947 107.666H167.546Z" fill="#D3D8EA"/>
<path d="M163.979 120.705V122.097H169.781L169.79 120.705H163.979Z" fill="#D3D8EA"/>
<path d="M156.926 116.504L156.917 117.904H166.363L166.372 116.504H156.926Z" fill="#F0F8FF"/>
<path d="M167.45 116.504V117.904H169.851V116.504H167.45Z" fill="#F0F8FF"/>
<path d="M165.249 103.465L165.258 104.857H170.05V103.465H165.249Z" fill="#075085"/>
<path d="M159.569 103.465L159.561 104.857H164.284L164.275 103.465H159.569Z" fill="#075085"/>
<path d="M187.273 87.7471L187.317 89.1388H190.848L190.805 87.7471H187.273Z" fill="#075085"/>
<path d="M195.232 96.1416L195.276 97.542H200.999L200.956 96.1416H195.232Z" fill="#D3D8EA"/>
<path d="M192.388 87.7471L192.466 89.1388H202.434L202.347 87.7471H192.388Z" fill="#D3D8EA"/>
<path d="M174.399 103.465L174.443 104.857H186.064L186.02 103.465H174.399Z" fill="#D3D8EA"/>
<path d="M180.098 107.666L180.141 109.058H199.051L199.008 107.666H180.098Z" fill="#D3D8EA"/>
<path d="M174.426 107.666L174.469 109.058H179.279L179.236 107.666H174.426Z" fill="#D3D8EA"/>
<path d="M174.374 111.859L174.418 113.26H184.038L183.968 111.859H174.374Z" fill="#D3D8EA"/>
<path d="M184.638 111.859L184.707 113.26H194.136L194.093 111.859H184.638Z" fill="#D3D8EA"/>
<path d="M187.221 103.465L187.256 104.857H190.787L190.743 103.465H187.221Z" fill="#D3D8EA"/>
<path d="M195.171 111.859L195.214 113.26H200.938L200.894 111.859H195.171Z" fill="#075085"/>
<path d="M180.254 116.504L180.297 117.904H199.207L199.164 116.504H180.254Z" fill="#D3D8EA"/>
<path d="M174.592 116.504L174.627 117.904H179.445L179.393 116.504H174.592Z" fill="#D3D8EA"/>
<path d="M174.53 120.705L174.574 122.097H184.194L184.133 120.705H174.53Z" fill="#D3D8EA"/>
<path d="M184.803 120.705L184.864 122.097H194.292L194.249 120.705H184.803Z" fill="#075085"/>
<path d="M195.328 120.705L195.372 122.097H201.095L201.052 120.705H195.328Z" fill="#D3D8EA"/>
<path d="M192.327 103.465L192.405 104.857H202.374L202.295 103.465H192.327Z" fill="#075085"/>
<path d="M163.884 135.17L163.875 136.562H169.685L169.694 135.17H163.884Z" fill="#D3D8EA"/>
<path d="M156.83 130.969L156.821 132.36H166.268V130.969H156.83Z" fill="#D3D8EA"/>
<path d="M167.354 130.969L167.346 132.36H169.746L169.755 130.969H167.354Z" fill="#D3D8EA"/>
<path d="M163.797 144.008L163.788 145.408H169.59L169.598 144.008H163.797Z" fill="#D3D8EA"/>
<path d="M156.734 139.807V141.207H166.172L166.181 139.807H156.734Z" fill="#F0F8FF"/>
<path d="M167.259 139.807V141.207H169.659L169.668 139.807H167.259Z" fill="#F0F8FF"/>
<path d="M165.058 126.768L165.066 128.159H169.859V126.768H165.058Z" fill="#075085"/>
<path d="M159.378 126.768L159.369 128.159H164.092L164.084 126.768H159.378Z" fill="#075085"/>
<path d="M174.243 126.768L174.287 128.159H185.907L185.864 126.768H174.243Z" fill="#D3D8EA"/>
<path d="M179.94 130.969L179.993 132.36H198.894L198.85 130.969H179.94Z" fill="#D3D8EA"/>
<path d="M174.278 130.969L174.313 132.36H179.132L179.08 130.969H174.278Z" fill="#D3D8EA"/>
<path d="M174.217 135.17L174.26 136.562H183.88L183.811 135.17H174.217Z" fill="#D3D8EA"/>
<path d="M184.49 135.17L184.56 136.562H193.98L193.936 135.17H184.49Z" fill="#D3D8EA"/>
<path d="M187.064 126.768L187.108 128.159H190.631L190.587 126.768H187.064Z" fill="#D3D8EA"/>
<path d="M195.015 135.17L195.058 136.562H200.782L200.738 135.17H195.015Z" fill="#075085"/>
<path d="M180.105 139.807L180.149 141.207H199.05L199.007 139.807H180.105Z" fill="#D3D8EA"/>
<path d="M174.435 139.807L174.478 141.207H179.288L179.236 139.807H174.435Z" fill="#D3D8EA"/>
<path d="M174.383 144.008L174.418 145.408H184.046L183.977 144.008H174.383Z" fill="#D3D8EA"/>
<path d="M184.646 144.008L184.716 145.408H194.136L194.101 144.008H184.646Z" fill="#075085"/>
<path d="M195.171 144.008L195.214 145.408H200.938L200.894 144.008H195.171Z" fill="#D3D8EA"/>
<path d="M192.17 126.768L192.257 128.159H202.225L202.138 126.768H192.17Z" fill="#075085"/>
<path d="M164.075 160.838L164.066 162.238H169.877L169.885 160.838H164.075Z" fill="#D3D8EA"/>
<path d="M157.02 156.637L157.012 158.037H166.458V156.637H157.02Z" fill="#D3D8EA"/>
<path d="M167.546 156.637L167.537 158.037H169.938L169.947 156.637H167.546Z" fill="#D3D8EA"/>
<path d="M163.979 169.685V171.076H169.781L169.79 169.685H163.979Z" fill="#D3D8EA"/>
<path d="M156.926 165.482L156.917 166.874H166.363L166.372 165.482H156.926Z" fill="#075085"/>
<path d="M167.45 165.482V166.874H169.851V165.482H167.45Z" fill="#075085"/>
<path d="M165.249 152.444L165.258 153.836H170.05V152.444H165.249Z" fill="#075085"/>
<path d="M159.569 152.444L159.561 153.836H164.284L164.275 152.444H159.569Z" fill="#075085"/>
<path d="M174.399 152.444L174.443 153.836H186.064L186.02 152.444H174.399Z" fill="#D3D8EA"/>
<path d="M180.098 156.637L180.141 158.037H199.051L199.008 156.637H180.098Z" fill="#D3D8EA"/>
<path d="M174.426 156.637L174.469 158.037H179.279L179.236 156.637H174.426Z" fill="#D3D8EA"/>
<path d="M174.374 160.838L174.418 162.238H184.038L183.968 160.838H174.374Z" fill="#D3D8EA"/>
<path d="M184.638 160.838L184.707 162.238H194.136L194.093 160.838H184.638Z" fill="#D3D8EA"/>
<path d="M187.221 152.444L187.256 153.836H190.787L190.743 152.444H187.221Z" fill="#D3D8EA"/>
<path d="M195.171 160.838L195.214 162.238H200.938L200.894 160.838H195.171Z" fill="#075085"/>
<path d="M180.254 165.482L180.297 166.874H199.207L199.164 165.482H180.254Z" fill="#D3D8EA"/>
<path d="M174.592 165.482L174.627 166.874H179.445L179.393 165.482H174.592Z" fill="#D3D8EA"/>
<path d="M174.53 169.685L174.574 171.076H184.194L184.133 169.685H174.53Z" fill="#D3D8EA"/>
<path d="M184.803 169.685L184.864 171.076H194.292L194.249 169.685H184.803Z" fill="#075085"/>
<path d="M195.328 169.685L195.372 171.076H201.095L201.052 169.685H195.328Z" fill="#D3D8EA"/>
<path d="M192.327 152.444L192.405 153.836H202.374L202.295 152.444H192.327Z" fill="#075085"/>
<path d="M163.884 184.142L163.875 185.542H169.685L169.694 184.142H163.884Z" fill="#D3D8EA"/>
<path d="M156.83 179.94L156.821 181.341H166.268V179.94H156.83Z" fill="#D3D8EA"/>
<path d="M167.354 179.94L167.346 181.341H169.746L169.755 179.94H167.354Z" fill="#D3D8EA"/>
<path d="M156.734 188.786V190.178H166.172L166.181 188.786H156.734Z" fill="#075085"/>
<path d="M167.259 188.786V190.178H169.659L169.668 188.786H167.259Z" fill="#F0F8FF"/>
<path d="M165.058 175.747L165.066 177.139H169.859V175.747H165.058Z" fill="#075085"/>
<path d="M159.378 175.747L159.369 177.139H164.092L164.084 175.747H159.378Z" fill="#075085"/>
<path d="M174.243 175.747L174.287 177.139H185.907L185.864 175.747H174.243Z" fill="#D3D8EA"/>
<path d="M179.94 179.94L179.993 181.341H198.894L198.85 179.94H179.94Z" fill="#D3D8EA"/>
<path d="M174.278 179.94L174.313 181.341H179.132L179.08 179.94H174.278Z" fill="#D3D8EA"/>
<path d="M174.217 184.142L174.26 185.542H183.88L183.811 184.142H174.217Z" fill="#D3D8EA"/>
<path d="M184.49 184.142L184.56 185.542H193.98L193.936 184.142H184.49Z" fill="#D3D8EA"/>
<path d="M187.064 175.747L187.108 177.139H190.631L190.587 175.747H187.064Z" fill="#D3D8EA"/>
<path d="M195.015 184.142L195.058 185.542H200.782L200.738 184.142H195.015Z" fill="#075085"/>
<path d="M180.105 188.786L180.149 190.178H199.05L199.007 188.786H180.105Z" fill="#D3D8EA"/>
<path d="M174.435 188.786L174.478 190.178H179.288L179.236 188.786H174.435Z" fill="#D3D8EA"/>
<defs>
<linearGradient id="paint0_linear_2117_14765" x1="154.516" y1="150.356" x2="258.729" y2="96.3232" gradientUnits="userSpaceOnUse">
<stop stop-color="white"/>
<stop offset="1" stop-color="#D3DBEB"/>
</linearGradient>
</defs>
</svg>
