<svg width="327" height="205" viewBox="0 0 327 205" fill="none" xmlns="http://www.w3.org/2000/svg">
<path d="M189.374 64.1119C169.921 50.5901 170.186 39.9614 173.122 31.4232C176.447 21.7207 213.151 38.8236 220.791 69.7923C228.43 100.761 199.675 71.2829 189.374 64.1119Z" fill="url(#paint0_linear_2117_12458)"/>
<path d="M213.151 183.639H53.7168V184.847H213.151V183.639Z" fill="#D3D8EA"/>
<path d="M173.635 62.8327V150.914C173.635 151.328 173.553 151.738 173.394 152.121C173.235 152.504 173.001 152.851 172.707 153.144C172.413 153.436 172.064 153.668 171.68 153.826C171.296 153.983 170.885 154.064 170.47 154.063H47.518C46.6808 154.063 45.8779 153.731 45.2859 153.141C44.6939 152.55 44.3613 151.749 44.3613 150.914V62.8327C44.3613 61.766 44.7861 60.7429 45.5423 59.9886C46.2985 59.2343 47.324 58.8106 48.3934 58.8106H169.594C170.124 58.8094 170.65 58.9126 171.14 59.1142C171.63 59.3158 172.076 59.6119 172.451 59.9855C172.826 60.3591 173.124 60.8029 173.327 61.2914C173.53 61.78 173.635 62.3038 173.635 62.8327Z" fill="#D3D8EA"/>
<path d="M173.635 72.6763H44.3613V62.8327C44.3613 62.3038 44.4659 61.78 44.6691 61.2914C44.8723 60.8029 45.1701 60.3591 45.5454 59.9855C45.9208 59.6119 46.3663 59.3158 46.8565 59.1142C47.3467 58.9126 47.872 58.8094 48.4022 58.8106H169.594C170.124 58.8094 170.65 58.9126 171.14 59.1142C171.63 59.3158 172.076 59.6119 172.451 59.9855C172.826 60.3591 173.124 60.8029 173.327 61.2914C173.53 61.78 173.635 62.3038 173.635 62.8327V72.6763Z" fill="#0B3E66"/>
<path d="M66.5996 65.743C66.5979 65.32 66.7221 64.9061 66.9566 64.5538C67.191 64.2014 67.5251 63.9264 67.9165 63.7638C68.3078 63.6011 68.7388 63.5581 69.1547 63.6402C69.5706 63.7223 69.9527 63.9258 70.2525 64.2248C70.5523 64.5239 70.7563 64.905 70.8386 65.3199C70.9209 65.7348 70.8777 66.1647 70.7147 66.5551C70.5516 66.9455 70.276 67.2788 69.9227 67.5126C69.5695 67.7465 69.1546 67.8704 68.7306 67.8687C68.1654 67.8687 67.6234 67.6447 67.2238 67.2461C66.8241 66.8474 66.5996 66.3067 66.5996 65.743Z" fill="#D3D8EA"/>
<path d="M58.3848 65.743C58.383 65.32 58.5073 64.9061 58.7417 64.5538C58.9762 64.2014 59.3103 63.9264 59.7016 63.7638C60.093 63.6011 60.524 63.5581 60.9399 63.6402C61.3558 63.7223 61.7379 63.9258 62.0377 64.2248C62.3375 64.5239 62.5414 64.905 62.6237 65.3199C62.706 65.7348 62.6629 66.1647 62.4998 66.5551C62.3368 66.9455 62.0611 67.2788 61.7079 67.5126C61.3547 67.7465 60.9397 67.8704 60.5158 67.8687C59.9506 67.8687 59.4086 67.6447 59.0089 67.2461C58.6093 66.8474 58.3848 66.3067 58.3848 65.743Z" fill="#414267"/>
<path d="M50.1709 65.743C50.1692 65.3208 50.293 64.9076 50.5266 64.5556C50.7603 64.2036 51.0934 63.9287 51.4837 63.7655C51.874 63.6023 52.3041 63.5583 52.7195 63.6389C53.1349 63.7196 53.517 63.9213 53.8175 64.2186C54.118 64.5159 54.3234 64.8954 54.4077 65.3091C54.492 65.7228 54.4514 66.1522 54.291 66.5429C54.1307 66.9336 53.8578 67.2681 53.5069 67.5041C53.156 67.7401 52.7428 67.867 52.3196 67.8687C52.0383 67.871 51.7592 67.8178 51.4987 67.712C51.2381 67.6062 51.0011 67.45 50.8013 67.2524C50.6015 67.0547 50.443 66.8196 50.3348 66.5606C50.2266 66.3015 50.1709 66.0236 50.1709 65.743Z" fill="white"/>
<path d="M163.467 64.1825L164.519 63.1328L166.031 64.6323L167.534 63.1328L168.595 64.1825L167.083 65.6908L168.595 67.1991L167.534 68.2487L166.031 66.7404L164.519 68.2487L163.467 67.1991L164.97 65.6908L163.467 64.1825Z" fill="white"/>
<path d="M238.891 21.1025V81.9638C238.891 82.5416 238.661 83.0958 238.251 83.5044C237.841 83.913 237.286 84.1425 236.707 84.1425H151.768C151.189 84.1402 150.635 83.9099 150.226 83.5018C149.817 83.0937 149.586 82.5409 149.584 81.9638V21.1025C149.596 20.371 149.895 19.6733 150.418 19.1601C150.941 18.6469 151.645 18.3593 152.378 18.3594H236.123C236.853 18.3639 237.551 18.6539 238.069 19.1668C238.586 19.6798 238.881 20.3748 238.891 21.1025Z" fill="#BAE1FD"/>
<path d="M238.891 27.9031H149.584V21.1025C149.596 20.371 149.895 19.6733 150.418 19.1601C150.941 18.6469 151.645 18.3593 152.378 18.3594H236.123C236.853 18.3639 237.551 18.6539 238.069 19.1668C238.586 19.6798 238.881 20.3748 238.891 21.1025V27.9031Z" fill="#1D1D2C"/>
<path d="M164.952 23.1136C164.952 22.8223 165.039 22.5375 165.201 22.2953C165.363 22.053 165.594 21.8642 165.864 21.7528C166.134 21.6413 166.43 21.6121 166.717 21.6689C167.003 21.7258 167.266 21.8661 167.473 22.0721C167.679 22.2781 167.82 22.5405 167.877 22.8263C167.934 23.112 167.905 23.4082 167.793 23.6773C167.681 23.9465 167.492 24.1766 167.249 24.3384C167.006 24.5003 166.721 24.5867 166.429 24.5867C166.037 24.5867 165.662 24.4315 165.385 24.1552C165.108 23.879 164.952 23.5043 164.952 23.1136Z" fill="#D3D8EA"/>
<path d="M159.311 23.1136C159.311 22.8223 159.397 22.5375 159.559 22.2953C159.722 22.053 159.952 21.8642 160.222 21.7528C160.492 21.6413 160.789 21.6121 161.075 21.6689C161.362 21.7258 161.625 21.8661 161.831 22.0721C162.038 22.2781 162.179 22.5405 162.235 22.8263C162.292 23.112 162.263 23.4082 162.151 23.6773C162.04 23.9465 161.85 24.1766 161.608 24.3384C161.365 24.5003 161.079 24.5867 160.787 24.5867C160.396 24.5867 160.02 24.4315 159.743 24.1552C159.466 23.879 159.311 23.5043 159.311 23.1136Z" fill="#414267"/>
<path d="M153.599 23.1136C153.599 22.8223 153.685 22.5375 153.847 22.2953C154.01 22.053 154.24 21.8642 154.51 21.7528C154.78 21.6413 155.077 21.6121 155.363 21.6689C155.65 21.7258 155.913 21.8661 156.119 22.0721C156.326 22.2781 156.467 22.5405 156.524 22.8263C156.581 23.112 156.551 23.4082 156.44 23.6773C156.328 23.9465 156.139 24.1766 155.896 24.3384C155.653 24.5003 155.367 24.5867 155.075 24.5867C154.684 24.5867 154.308 24.4315 154.031 24.1552C153.754 23.879 153.599 23.5043 153.599 23.1136Z" fill="white"/>
<path d="M231.888 22.0368L232.613 21.3047L233.656 22.3455L234.7 21.3047L235.433 22.0368L234.39 23.0776L235.433 24.1184L234.7 24.8417L233.656 23.8009L232.613 24.8417L231.888 24.1184L232.931 23.0776L231.888 22.0368Z" fill="white"/>
<path d="M179.674 31.3789L179.745 32.5609H199.498L199.419 31.3789H179.674Z" fill="#D3D8EA"/>
<path d="M189.356 34.9238L189.436 36.1058H221.551L221.48 34.9238H189.356Z" fill="#D3D8EA"/>
<path d="M179.728 34.9238L179.798 36.1058H187.977L187.898 34.9238H179.728Z" fill="white"/>
<path d="M179.639 38.4707L179.709 39.6526H196.059L195.935 38.4707H179.639Z" fill="#D3D8EA"/>
<path d="M197.076 38.4707L197.191 39.6526H213.213L213.143 38.4707H197.076Z" fill="white"/>
<path d="M165.332 38.4707V39.6526H173.361L173.37 38.4707H165.332Z" fill="#D3D8EA"/>
<path d="M155.57 34.9238L155.562 36.1058H168.63L168.639 34.9238H155.57Z" fill="#D3D8EA"/>
<path d="M170.134 34.9238V36.1058H173.45L173.458 34.9238H170.134Z" fill="#D3D8EA"/>
<path d="M166.959 31.3789L166.968 32.5609H173.6L173.608 31.3789H166.959Z" fill="#414267"/>
<path d="M159.099 31.3789L159.09 32.5609H165.624L165.615 31.3789H159.099Z" fill="#414267"/>
<path d="M165.235 51.7461L165.227 52.928H173.264L173.273 51.7461H165.235Z" fill="#D3D8EA"/>
<path d="M155.473 48.1992L155.464 49.3812H168.533V48.1992H155.473Z" fill="#D3D8EA"/>
<path d="M170.036 48.1992L170.027 49.3812H173.352L173.361 48.1992H170.036Z" fill="#D3D8EA"/>
<path d="M165.111 59.2168L165.103 60.3987H173.14V59.2168H165.111Z" fill="#D3D8EA"/>
<path d="M155.349 55.6699L155.34 56.8519H168.409V55.6699H155.349Z" fill="#414267"/>
<path d="M169.903 55.6699V56.8519H173.228V55.6699H169.903Z" fill="#BAE1FD"/>
<path d="M166.861 44.6543L166.87 45.8362H173.502L173.511 44.6543H166.861Z" fill="#414267"/>
<path d="M159.001 44.6543L158.992 45.8362H165.527L165.518 44.6543H159.001Z" fill="#414267"/>
<path d="M201.453 31.3789L201.524 32.5609H207.519L207.448 31.3789H201.453Z" fill="white"/>
<path d="M223.55 34.9238L223.621 36.1058H233.214L233.144 34.9238H223.55Z" fill="#D3D8EA"/>
<path d="M214.973 38.4707L215.043 39.6526H224.77L224.699 38.4707H214.973Z" fill="#D3D8EA"/>
<path d="M210.136 31.3789L210.277 32.5609H227.21L227.069 31.3789H210.136Z" fill="#D3D8EA"/>
<path d="M179.577 44.6543L179.648 45.8362H199.393L199.322 44.6543H179.577Z" fill="#D3D8EA"/>
<path d="M189.26 48.1992L189.339 49.3812H221.454L221.384 48.1992H189.26Z" fill="#D3D8EA"/>
<path d="M179.63 48.1992L179.701 49.3812H187.871L187.791 48.1992H179.63Z" fill="#D3D8EA"/>
<path d="M179.533 51.7461L179.613 52.928H195.953L195.838 51.7461H179.533Z" fill="#D3D8EA"/>
<path d="M196.979 51.7461L197.093 52.928H213.107L213.036 51.7461H196.979Z" fill="#D3D8EA"/>
<path d="M201.355 44.6543L201.426 45.8362H207.421L207.351 44.6543H201.355Z" fill="#D3D8EA"/>
<path d="M223.452 48.1992L223.523 49.3812H233.117L233.046 48.1992H223.452Z" fill="#D3D8EA"/>
<path d="M214.875 51.7461L214.946 52.928H224.663L224.593 51.7461H214.875Z" fill="white"/>
<path d="M189.533 55.6699L189.604 56.8519H221.719L221.648 55.6699H189.533Z" fill="#D3D8EA"/>
<path d="M179.896 55.6699L179.966 56.8519H188.145L188.066 55.6699H179.896Z" fill="#D3D8EA"/>
<path d="M179.807 59.2168L179.877 60.3987H196.227L196.103 59.2168H179.807Z" fill="#D3D8EA"/>
<path d="M197.244 59.2168L197.368 60.3987H213.381L213.311 59.2168H197.244Z" fill="white"/>
<path d="M223.718 55.6699L223.789 56.8519H233.382L233.312 55.6699H223.718Z" fill="white"/>
<path d="M215.141 59.2168L215.211 60.3987H224.938L224.867 59.2168H215.141Z" fill="#D3D8EA"/>
<path d="M210.029 44.6543L210.171 45.8362H227.113L226.971 44.6543H210.029Z" fill="white"/>
<path d="M164.97 71.4316V72.6048H172.998L173.007 71.4316H164.97Z" fill="#D3D8EA"/>
<path d="M155.208 67.8867L155.199 69.0598H168.268L168.277 67.8867H155.208Z" fill="#D3D8EA"/>
<path d="M169.771 67.8867V69.0598H173.086L173.095 67.8867H169.771Z" fill="#D3D8EA"/>
<path d="M164.846 78.8945L164.837 80.0765H172.875L172.883 78.8945H164.846Z" fill="#D3D8EA"/>
<path d="M155.084 75.3496L155.075 76.5316H168.144V75.3496H155.084Z" fill="#414267"/>
<path d="M169.639 75.3496V76.5316H172.963L172.972 75.3496H169.639Z" fill="#D3D8EA"/>
<path d="M166.597 64.3398L166.606 65.513H173.237L173.246 64.3398H166.597Z" fill="#BAE1FD"/>
<path d="M158.735 64.3398L158.727 65.513H165.261L165.252 64.3398H158.735Z" fill="#D3D8EA"/>
<path d="M179.312 64.3398L179.382 65.513H199.136L199.065 64.3398H179.312Z" fill="#D3D8EA"/>
<path d="M188.994 67.8867L189.074 69.0598H221.189L221.118 67.8867H188.994Z" fill="#D3D8EA"/>
<path d="M179.365 67.8867L179.436 69.0598H187.606L187.535 67.8867H179.365Z" fill="#D3D8EA"/>
<path d="M179.276 71.4316L179.347 72.6048H195.688L195.573 71.4316H179.276Z" fill="#D3D8EA"/>
<path d="M196.713 71.4316L196.828 72.6048H212.85L212.779 71.4316H196.713Z" fill="#D3D8EA"/>
<path d="M201.09 64.3398L201.161 65.513H207.156L207.085 64.3398H201.09Z" fill="#D3D8EA"/>
<path d="M223.188 67.8867L223.258 69.0598H232.852L232.781 67.8867H223.188Z" fill="#D3D8EA"/>
<path d="M214.61 71.4316L214.681 72.6048H224.408L224.337 71.4316H214.61Z" fill="white"/>
<path d="M189.268 75.3496L189.338 76.5316H221.453L221.383 75.3496H189.268Z" fill="#D3D8EA"/>
<path d="M179.63 75.3496L179.701 76.5316H187.88L187.8 75.3496H179.63Z" fill="#D3D8EA"/>
<path d="M179.542 78.8945L179.613 80.0765H195.962L195.847 78.8945H179.542Z" fill="#D3D8EA"/>
<path d="M196.979 78.8945L197.102 80.0765H213.116L213.045 78.8945H196.979Z" fill="white"/>
<path d="M223.452 75.3496L223.523 76.5316H233.117L233.046 75.3496H223.452Z" fill="white"/>
<path d="M214.875 78.8945L214.946 80.0765H224.672L224.601 78.8945H214.875Z" fill="#D3D8EA"/>
<path d="M209.773 64.3398L209.915 65.513H226.848L226.706 64.3398H209.773Z" fill="white"/>
<mask id="mask0_2117_12458" style="mask-type:luminance" maskUnits="userSpaceOnUse" x="44" y="32" width="130" height="147">
<path d="M159.868 72.6673L163.458 42.8099L157.418 32.5605L134.703 42.7394L115.984 37.8881L104.833 45.8265L100.598 66.7399L96.2919 72.6673H44.3613V150.905C44.3613 151.741 44.6936 152.543 45.2854 153.135C45.8771 153.727 46.68 154.06 47.518 154.063H89.9608L87.7326 158.146L76.9539 174.976L86.4681 178.01L120.873 167.426L155.075 159.981L155.738 154.107H170.47C170.885 154.107 171.297 154.025 171.681 153.866C172.065 153.708 172.414 153.475 172.708 153.182C173.002 152.889 173.235 152.541 173.394 152.157C173.553 151.774 173.635 151.364 173.635 150.949V72.6673H159.868Z" fill="white"/>
</mask>
<g mask="url(#mask0_2117_12458)">
<path d="M90.8534 167.744C92.1178 166.615 101.217 164.877 103.507 164.215L101.835 159.938C98.3286 161.104 94.6563 161.7 90.9595 161.702C89.0938 161.631 85.6541 167.056 87.7851 169.64C87.9089 169.719 88.9788 169.42 90.8534 167.744Z" fill="#FAEACB"/>
<path d="M90.3412 166.076C90.854 167.196 93.604 166.508 92.8612 167.84C90.8806 167.84 88.8468 168.969 86.8485 172.118C85.08 174.994 80.2168 174.967 80.2168 174.967L89.6426 160.087C89.6426 160.087 91.2431 158.817 94.1168 161.357C93.153 162.927 89.6073 164.383 90.3412 166.076Z" fill="#1D1D2C"/>
<path d="M121.89 100.31C130.732 111.777 151.219 147.817 151.502 149.546C151.847 151.584 147.612 158.146 140.803 152.378C134.658 147.182 100.129 111.186 107.247 100.593C111.305 94.5859 119.193 96.8087 121.89 100.31Z" fill="#414267"/>
<path d="M111.934 98.8105C118.354 131.446 147.064 151.381 148.851 152.695C147.144 152.466 144.429 155.165 142.228 153.427C136.577 148.911 98.9006 115.816 110.652 99.9131C111.448 98.8458 110.97 99.3927 111.934 98.8105Z" fill="#1D1D2C"/>
<path d="M96.6809 107.719C100.007 103.387 104.268 99.8564 109.148 97.3905C112.261 96.0939 117.416 96.9054 117.46 102.286C117.504 107.666 117.584 111.662 112.473 120.227C107.362 128.791 91.2252 146.838 85.2744 153.409C80.3581 158.86 71.2417 157.714 76.7593 148.523C82.2769 139.332 91.2252 114.723 96.6809 107.719Z" fill="#414267"/>
<path d="M75.4418 150.225C76.6178 148.531 77.3518 147.252 78.3951 145.471C82.8163 137.903 88.7052 147.791 87.5911 149.828C86.194 152.386 84.8235 153.418 80.5173 162.494C77.5704 168.88 73.4768 174.673 68.4388 179.588C65.4619 182.926 62.7173 186.462 60.2243 190.173C55.4672 189.441 54.5918 187.245 54.5918 187.245C54.5918 187.245 60.41 176.81 63.9911 168.951C67.5722 161.092 72.6565 154.194 75.4418 150.225Z" fill="#414267"/>
<path d="M149.628 153.189C148.125 155.932 102.667 165.229 102.667 165.229C99.9173 161.604 100.722 158.632 100.722 158.632C100.722 158.632 113.791 154.945 120.935 150.94C152.785 133.079 150.698 151.266 149.628 153.189Z" fill="#414267"/>
<path d="M112.676 43.4889C113.683 43.2713 114.732 43.3564 115.69 43.7336C116.648 44.1107 117.473 44.7629 118.06 45.6076C118.646 46.4523 118.969 47.4517 118.986 48.4792C119.003 49.5067 118.715 50.5163 118.157 51.3801C117.599 52.244 116.797 52.9234 115.851 53.3324C114.906 53.7414 113.861 53.8616 112.847 53.6779C111.834 53.4941 110.898 53.0145 110.157 52.2999C109.417 51.5853 108.906 50.6677 108.688 49.6632C108.399 48.3172 108.656 46.9117 109.404 45.7545C110.151 44.5973 111.328 43.7827 112.676 43.4889Z" fill="#1D1D2C"/>
<path d="M110.166 67.2419C111.43 61.9496 108.654 63.2727 110.051 56.6573C111.448 50.0419 114.366 48.666 117.124 47.0959C124.03 43.1179 134.031 50.4742 132.722 57.6805C131.511 64.3488 131.979 72.0755 133.934 77.4384C135.888 82.8012 135.18 99.0309 121.015 98.9162C106.85 98.8015 104.259 92.4508 103.799 83.8156C103.242 73.4427 108.91 72.543 110.166 67.2419Z" fill="#1D1D2C"/>
<path d="M89.7306 85.5879C89.4049 85.5469 89.0865 85.4608 88.7845 85.3321C88.113 85.0728 87.534 84.6199 87.1216 84.0312C86.7091 83.4424 86.4817 82.7444 86.4684 82.0262C86.4551 81.308 86.6565 80.6022 87.047 79.9986C87.4374 79.3951 87.9992 78.9212 88.6607 78.6374C91.5787 77.2261 107.3 72.5248 111.226 70.7871C115.47 68.8996 120.493 74.9504 116.284 78.117C115.4 78.7961 110.094 80.5955 104.453 82.2626C98.1131 84.1237 91.3222 85.8261 89.7306 85.5879Z" fill="#FAEACB"/>
<path d="M89.7313 85.5895C89.4055 85.5485 89.0871 85.4624 88.7852 85.3337C89.6229 84.9155 90.5161 84.6185 91.4378 84.4517C97.4152 83.2521 100.51 77.7305 100.51 77.7305L104.489 82.2642C98.1137 84.1253 91.3229 85.8277 89.7313 85.5895Z" fill="#FAEACB"/>
<path d="M92.4538 81.056C89.0496 76.4164 78.0586 69.3335 77.0064 66.0611C75.9542 62.7887 76.3167 57.6905 73.6375 57.3642C70.9583 57.0378 70.2156 58.2462 70.189 61.3245C70.189 62.9211 69.0749 65.1791 72.1609 67.64C75.2468 70.1009 81.348 80.2621 85.3623 84.3989C89.3767 88.5357 94.7617 84.196 92.4538 81.056Z" fill="#FAEACB"/>
<path d="M101.836 83.6307C108.68 81.8666 115.179 78.656 116.24 77.8621C120.449 74.6956 115.462 68.9005 111.218 70.8057C109.016 71.776 103.18 73.3813 97.8926 75.1189C99.0067 79.9614 100.881 82.7487 101.836 83.6307Z" fill="#414267"/>
<path d="M125.772 93.9508C126.461 91.8515 127.646 90.0345 131.148 83.0311C132.51 80.2967 133.88 78.2239 133.429 76.7862C132.846 74.9603 130.007 74.14 127.947 73.6813C124.224 72.914 127.867 64.314 127.867 64.314C127.691 62.3294 121.943 58.2543 120.475 67.4188C119.52 73.452 114.215 69.5181 112.544 70.3031C110.298 71.4233 109.767 74.7751 109.007 76.4774C108.246 78.1798 105.196 79.7057 104.878 83.0222C104.751 83.8984 104.971 84.7892 105.491 85.5067C106.011 86.2242 106.789 86.7123 107.663 86.868C108.565 88.5844 108.97 90.5181 108.83 92.4513C108.333 95.0585 107.244 97.5176 105.647 99.64C111.456 103.813 118.685 105.523 125.754 104.394C125.754 104.394 123.694 100.24 125.772 93.9508Z" fill="#FAEACB"/>
<path d="M127.947 73.6804C124.224 72.913 127.867 64.313 127.867 64.313C127.77 63.2105 125.79 62.4607 123.941 62.9899C125.029 63.528 126.744 69.1643 123.544 76.2207C122.659 78.2317 120.104 79.0079 117.92 78.9903C117.92 78.9903 130.679 84.0356 131.183 83.0124C132.51 80.2957 130.007 74.1037 127.947 73.6804Z" fill="#FAEACB"/>
<path d="M125.763 93.9502C126.461 91.8509 127.646 90.0339 131.148 83.0304C132.51 80.2961 133.88 78.2233 133.42 76.7855C132.907 75.1449 130.555 74.2805 128.592 73.813C125.17 78.3379 119.909 80.102 116.753 77.7822C114.71 76.3004 114.029 73.4779 114.666 70.426C113.99 70.1757 113.255 70.1297 112.553 70.2937C110.298 71.4227 109.758 74.7745 109.016 76.468C108.273 78.1615 105.205 79.6963 104.886 83.0128C104.76 83.889 104.98 84.7798 105.5 85.4973C106.019 86.2148 106.798 86.7028 107.672 86.8585C108.573 88.5784 108.974 90.5154 108.83 92.4507C108.332 95.0591 107.24 97.5186 105.638 99.6394C111.45 103.813 118.682 105.522 125.754 104.394C125.754 104.394 123.685 100.248 125.763 93.9502Z" fill="#414267"/>
<path d="M125.763 93.9514C126.462 91.8521 127.647 90.0351 131.148 83.0317C132.51 80.2973 133.88 78.2245 133.421 76.7868C132.925 75.1991 130.715 74.3435 128.796 73.8672C128.681 74.1759 128.557 74.4934 128.416 74.8022C127.546 76.7341 126.196 78.4125 124.494 79.6783C122.792 80.944 120.794 81.7552 118.689 82.035L120.75 82.917C121.874 83.4852 122.73 84.47 123.135 85.6604C123.54 86.8508 123.461 88.1521 122.916 89.2854C122.533 90.0715 121.938 90.7355 121.198 91.203C120.457 91.6704 119.601 91.9227 118.725 91.9315L116.523 96.8622C116.138 97.716 115.972 98.6523 116.041 99.5862C116.109 100.52 116.411 101.422 116.918 102.211C117.424 102.999 118.12 103.649 118.942 104.101C119.764 104.553 120.686 104.794 121.625 104.801C123.01 104.825 124.394 104.707 125.754 104.448C125.754 104.448 123.685 100.249 125.763 93.9514Z" fill="#414267"/>
<path d="M117.548 58.8093C117.548 58.8093 118.238 50.6856 120.652 49.8212C123.066 48.9568 125.073 48.6569 127.009 51.0384C128.3 52.4207 129.101 54.1866 129.291 56.0661C129.291 56.0661 133.323 58.1213 130.935 63.3077C128.548 68.4942 121.872 67.1182 118.901 63.6958C118.901 63.6958 115.877 65.6187 114.639 62.6638C113.401 59.709 115.382 59.021 117.548 58.8093Z" fill="#FAEACB"/>
<path d="M117.548 58.81C117.548 58.81 118.238 50.6863 120.652 49.8219C122.588 49.1339 124.268 48.7987 125.842 49.9189C124.074 49.9189 119.953 58.0073 120.935 61.9324C121.172 62.8251 121.633 63.6429 122.274 64.3085C122.916 64.9741 123.717 65.4656 124.602 65.7366C125.487 66.0076 126.426 66.0492 127.332 65.8574C128.237 65.6655 129.079 65.2467 129.777 64.6403C130.14 64.3285 130.469 63.9797 130.759 63.5995C128.274 68.4331 121.819 67.0483 118.901 63.6965C118.901 63.6965 115.877 65.6194 114.639 62.6645C113.401 59.7097 115.382 59.0217 117.548 58.81Z" fill="#FAEACB"/>
<path d="M129.185 51.603C129.185 51.603 125.135 52.0264 122.35 50.4211C119.565 48.8157 118.521 49.4861 118.521 49.4861C124.428 44.8201 129.185 51.603 129.185 51.603Z" fill="#1D1D2C"/>
<path d="M120.732 49.3552C122.014 49.9285 122.934 52.4688 121.006 56.1117C119.079 59.7545 120.9 63.0975 118.221 61.7215C115.542 60.3455 115.427 60.0368 114.525 57.4259C113.623 54.8151 117.903 48.085 120.732 49.3552Z" fill="#1D1D2C"/>
<path d="M133.668 147.315C139.787 144.668 147.63 144.668 147.63 144.668C144.296 142.128 136.86 142.022 120.961 150.975C120.281 151.354 119.538 151.734 118.769 152.113C123.836 150.846 128.814 149.243 133.668 147.315Z" fill="#1D1D2C"/>
<path d="M130.706 73.6462C134.8 72.3496 147.559 66.2811 150.681 65.3991C151.442 65.1597 152.26 65.1756 153.011 65.4442C153.762 65.7128 154.405 66.2194 154.84 66.8866C155.275 67.5537 155.479 68.3447 155.421 69.1385C155.363 69.9323 155.046 70.6853 154.518 71.2824C152.555 73.6198 133.898 82.846 131.528 83.0401C126.249 83.4811 126.285 75.0575 130.706 73.6462Z" fill="#FAEACB"/>
<path d="M150.203 66.8724C149.044 67.2958 147.939 67.8338 146.807 68.2925C144.561 69.1746 142.209 69.8096 139.937 70.6564C135.516 72.297 131.537 74.3875 130.113 79.2387C129.734 80.4755 129.692 81.7905 129.989 83.0492C127.92 80.747 128.628 74.2816 130.688 73.5848C134.755 72.2088 145.958 67.0135 149.08 66.1315C150.083 65.8387 151.156 65.8852 152.13 66.2638C151.485 66.4843 150.831 66.6784 150.203 66.8724Z" fill="#FAEACB"/>
<path d="M144.155 77.8709C137.903 81.1256 132.73 83.2514 131.404 83.3572C126.099 83.7806 126.355 74.9072 130.776 73.5047C133.075 72.7726 136.312 71.0879 141.387 68.8828C143.836 73.2489 144.278 76.5743 144.155 77.8709Z" fill="#414267"/>
<path d="M152.148 72.6132C152.148 72.6132 154.872 70.9725 155.393 69.526C155.915 68.0794 149.761 66.0684 149.761 66.0684L148.7 67.5326L147.983 69.72L149.938 72.6484L152.148 72.6132Z" fill="#FAEACB"/>
<path d="M152.784 47.1403C153.059 44.5559 152.669 43.7268 152.669 43.7268C152.227 41.7245 151.653 41.7334 151.918 40.1016C152.104 38.8932 153.624 42.5272 153.837 42.0421C154.843 39.7793 156.425 37.8181 158.426 36.3529C159.434 35.6649 159.593 36.3529 158.983 36.9085C156.33 39.5547 159.407 40.5867 159.08 42.1038C158.629 44.2295 157.568 44.3707 156.914 45.6849C156.861 45.7996 156.808 45.9231 156.755 46.0642C155.932 49.6982 156.755 63.7669 156.171 68.5917C155.587 73.4165 149.203 73.1078 149.15 69.7736C149.088 65.6016 152.387 51.8328 152.784 47.1403Z" fill="#FAEACB"/>
</g>
<path d="M69.6941 59.516C69.9063 59.9305 70.5253 60.6009 71.0647 60.3275C71.1294 60.2956 71.1866 60.2506 71.2327 60.1952C71.2884 60.5036 71.3929 60.8014 71.5422 61.0772C71.887 61.6858 72.7536 62.4885 73.3814 61.7387C73.6214 61.4357 73.7824 61.0781 73.85 60.6979C73.9953 60.9864 74.2089 61.2353 74.4724 61.4228C74.7359 61.6103 75.0412 61.7309 75.362 61.774C76.4319 61.924 76.6707 61.1389 76.6795 60.2922C77.0774 61.0331 77.8555 62.0563 78.5983 61.2536C78.961 60.6918 79.1796 60.0496 79.2349 59.3837C79.3853 58.5636 79.4387 57.7288 79.3941 56.8963C79.3981 56.8641 79.3981 56.8315 79.3941 56.7993C79.4189 56.7434 79.4278 56.6818 79.42 56.6211C79.4123 56.5605 79.388 56.5031 79.3499 56.4553C78.8017 55.7055 77.6345 55.0705 76.989 56.0495C76.814 56.3061 76.6742 56.585 76.5734 56.8787C76.3966 56.1201 76.0429 55.5115 75.2648 55.5379C74.4866 55.5644 73.9915 56.3406 73.7439 57.1874C73.7476 57.1729 73.7476 57.1577 73.7439 57.1433C73.4344 56.861 73.0277 56.4906 72.559 56.614C72.3776 56.6973 72.217 56.8195 72.0886 56.972C71.9601 57.1245 71.8672 57.3035 71.8163 57.4961C71.7813 57.4123 71.7145 57.3458 71.6306 57.3109C71.3319 57.2011 71.0068 57.1843 70.6984 57.2626C70.3899 57.341 70.1125 57.5107 69.9027 57.7496C69.693 57.9884 69.5607 58.2851 69.5235 58.6005C69.4863 58.9158 69.5458 59.235 69.6941 59.516Z" fill="#FAEACB"/>
<path d="M109.193 5.12891H78.9344C77.8197 5.13124 76.7514 5.57462 75.964 6.36175C75.1766 7.14887 74.7344 8.21546 74.7344 9.32745V25.3366C74.7344 26.4486 75.1766 27.5152 75.964 28.3023C76.7514 29.0895 77.8197 29.5328 78.9344 29.5352H98.2194L104.577 37.1561C104.681 37.2925 104.825 37.3929 104.99 37.4433C105.154 37.4937 105.33 37.4915 105.493 37.437C105.656 37.3825 105.797 37.2784 105.898 37.1394C105.999 37.0005 106.053 36.8335 106.054 36.6621L104.135 29.5352H109.193C110.309 29.5352 111.379 29.0928 112.169 28.3054C112.958 27.5181 113.402 26.4501 113.402 25.3366V9.32745C113.402 8.21393 112.958 7.14601 112.169 6.35863C111.379 5.57125 110.309 5.12891 109.193 5.12891Z" fill="#D3D8EA"/>
<path d="M91.0488 21.3059L83.0908 17.8482V15.9342L91.0488 12.4766V14.7346L85.4782 16.8603L91.0488 19.0566V21.3059Z" fill="white"/>
<path d="M91.791 22.8221L94.6559 10.8086H96.3359L93.4357 22.8221H91.791Z" fill="white"/>
<path d="M97.0879 21.3049V19.0645L102.667 16.8682L97.0879 14.7071V12.4844L105.046 15.9244V17.8208L97.0879 21.3049Z" fill="white"/>
<defs>
<linearGradient id="paint0_linear_2117_12458" x1="43.2204" y1="95.8215" x2="273.933" y2="36.4592" gradientUnits="userSpaceOnUse">
<stop stop-color="white"/>
<stop offset="1" stop-color="#D3DBEB"/>
</linearGradient>
</defs>
</svg>
