<svg width="87" height="86" viewBox="0 0 87 86" fill="none" xmlns="http://www.w3.org/2000/svg">
<rect width="86" height="86" transform="translate(0.636719)" fill="white"/>
<path d="M83.9492 25.5293V77.9355H3.32422V25.5293C3.32901 23.8251 4.40496 22.308 6.01172 21.7399C6.92547 21.3905 6.01172 21.498 22.9698 21.498L27.5117 22.8418L32.0402 21.498H79.918C82.1444 21.498 83.9492 23.3029 83.9492 25.5293Z" fill="#50D9D7"/>
<path d="M1.98047 77.9375H85.293C86.0351 77.9375 86.6367 78.5391 86.6367 79.2812V81.9688C86.6367 84.1951 84.8319 86 82.6055 86H4.66797C2.44157 86 0.636719 84.1951 0.636719 81.9688V79.2812C0.636719 78.5391 1.23834 77.9375 1.98047 77.9375Z" fill="#00BEBD"/>
<path d="M81.2617 25.5312V30.9062H27.5117L22.1367 24.1875H79.918C80.6601 24.1875 81.2617 24.7891 81.2617 25.5312Z" fill="#93E6E5"/>
<path d="M81.2617 30.9063V75.25H6.01168C6.01168 22.1047 5.89074 25.2759 6.26699 24.7384C6.52074 24.3912 6.92536 24.1864 7.35543 24.1875H26.2754C27.9064 24.1885 29.4486 24.93 30.4679 26.2031L32.6179 28.8906C33.6373 30.1638 35.1795 30.9052 36.8104 30.9063H81.2617Z" fill="white"/>
<path d="M53.043 80.625H34.2305C32.7462 80.625 31.543 79.4218 31.543 77.9375H55.7305C55.7305 79.4218 54.5272 80.625 53.043 80.625Z" fill="#F3F3F3"/>
<path d="M45.2626 28.2188C43.4495 30.8942 41.0565 33.1264 38.2617 34.7494V72.5625H16.7617V34.7494C11.817 31.882 8.21186 27.1702 6.7373 21.6478C7.15387 21.5 6.01168 21.5 22.1367 21.5L27.5117 28.2188H45.2626Z" fill="#F3F3F3"/>
<path d="M47.4261 24.1875C46.4122 26.6756 44.945 28.9538 43.0992 30.9062H27.5117L22.1367 24.1875H47.4261Z" fill="#50D9D7"/>
<path d="M48.3134 21.5007C48.0848 22.4172 47.7883 23.3155 47.4266 24.1882H7.58437C7.23712 23.3116 6.9454 22.414 6.71094 21.5007C7.11406 21.4201 6.03906 21.5007 22.9837 21.5007L27.5122 22.8444L32.0406 21.5007H48.3134Z" fill="#00BEBD"/>
<path d="M37.6433 0.281153C37.228 0.0147217 36.7002 -0.00274066 36.2683 0.235664C35.8363 0.474069 35.5698 0.929998 35.5739 1.42334V15.1162L27.5114 17.4677L19.4489 15.1699V1.42334C19.453 0.929998 19.1865 0.474069 18.7545 0.235664C18.3226 -0.00274066 17.7948 0.0147217 17.3795 0.281153C11.6194 3.96623 8.31242 10.4867 8.74244 17.3112C9.17246 24.1357 13.2717 30.1895 19.4489 33.1224V75.249H35.5739V33.1224C41.7511 30.1895 45.8503 24.1357 46.2804 17.3112C46.7104 10.4867 43.4034 3.96623 37.6433 0.281153Z" fill="#F4D593"/>
<path d="M73.1992 49.3022V47.4478C73.1992 46.9809 73.0138 46.5332 72.6836 46.2031C72.3535 45.873 71.9058 45.6875 71.4389 45.6875C70.7255 45.6907 70.0819 45.2598 69.813 44.5991C69.7323 44.3706 69.6383 44.1556 69.5442 43.9406C69.2572 43.2843 69.4071 42.5187 69.9205 42.0191C70.6056 41.332 70.6056 40.2202 69.9205 39.5331L68.5767 38.1894C67.8897 37.5043 66.7778 37.5043 66.0908 38.1894C65.5892 38.6992 64.826 38.8486 64.1692 38.5656L63.5108 38.2969C62.8696 38.0234 62.4523 37.3949 62.4492 36.6978C62.4492 35.7256 61.6611 34.9375 60.6889 34.9375H58.8345C57.8623 34.9375 57.0742 35.7256 57.0742 36.6978C57.0774 37.4112 56.6466 38.0549 55.9858 38.3238L55.3273 38.5925C54.671 38.8795 53.9054 38.7296 53.4058 38.2163C52.7187 37.5311 51.6069 37.5311 50.9198 38.2163L49.5761 39.56C48.891 40.247 48.891 41.3589 49.5761 42.0459C50.0859 42.5475 50.2353 43.3107 49.9523 43.9675C49.8583 44.1825 49.7642 44.3975 49.6836 44.6259C49.4147 45.2867 48.771 45.7176 48.0577 45.7144C47.1063 45.7288 46.3386 46.4965 46.3242 47.4478V49.3022C46.3242 50.2744 47.1123 51.0625 48.0845 51.0625C48.7979 51.0593 49.4416 51.4902 49.7105 52.1509C49.7911 52.3794 49.8852 52.5944 49.9792 52.8094C50.2662 53.4657 50.1163 54.2313 49.603 54.7309C48.9179 55.418 48.9179 56.5298 49.603 57.2169L50.9467 58.5606C51.6338 59.2457 52.7456 59.2457 53.4327 58.5606C53.9342 58.0508 54.6974 57.9014 55.3542 58.1844L56.0127 58.4531C56.6539 58.7266 57.0711 59.3551 57.0742 60.0522C57.0742 61.0244 57.8623 61.8125 58.8345 61.8125H60.6889C61.6611 61.8125 62.4492 61.0244 62.4492 60.0522C62.446 59.3388 62.8769 58.6951 63.5377 58.4262L64.1961 58.1575C64.8525 57.8705 65.618 58.0204 66.1177 58.5337C66.8047 59.2189 67.9166 59.2189 68.6036 58.5337L69.9473 57.19C70.6324 56.503 70.6324 55.3911 69.9473 54.7041C69.4375 54.2025 69.2881 53.4393 69.5711 52.7825C69.6652 52.5675 69.7592 52.3525 69.8398 52.1241C70.1133 51.4829 70.7418 51.0656 71.4389 51.0625C71.9058 51.0625 72.3535 50.877 72.6836 50.5469C73.0138 50.2168 73.1992 49.7691 73.1992 49.3022Z" fill="#50D9D7"/>
<circle cx="59.7617" cy="48.375" r="6.71875" fill="#00BEBD"/>
<rect x="44.9805" y="64.5" width="8.0625" height="2.6875" fill="#D9D9D9"/>
<rect x="58.418" y="64.5" width="17.4688" height="2.6875" fill="#D9D9D9"/>
<rect x="44.9805" y="69.875" width="8.0625" height="2.6875" fill="#D9D9D9"/>
<rect x="58.418" y="69.875" width="17.4688" height="2.6875" fill="#D9D9D9"/>
<path d="M27.5117 69.875C26.0275 69.875 24.8242 68.6718 24.8242 67.1875V53.75C24.8242 52.2657 26.0275 51.0625 27.5117 51.0625C28.996 51.0625 30.1992 52.2657 30.1992 53.75V67.1875C30.1992 68.6718 28.996 69.875 27.5117 69.875Z" fill="#EEBA5B"/>
</svg>
