<svg width="117" height="116" viewBox="0 0 117 116" fill="none" xmlns="http://www.w3.org/2000/svg">
<path d="M112.875 34.4375V105.125H4.125V34.4375C4.125 31.4345 6.55945 29 9.5625 29H107.438C110.441 29 112.875 31.4345 112.875 34.4375Z" fill="#075085"/>
<path d="M2.3125 105.125H114.688C115.689 105.125 116.5 105.936 116.5 106.938V110.562C116.5 113.566 114.066 116 111.062 116H5.9375C2.93445 116 0.5 113.566 0.5 110.562V106.938C0.5 105.936 1.31148 105.125 2.3125 105.125Z" fill="#075085"/>
<path d="M109.25 34.4375V41.6875H36.75L29.5 32.625H107.438C108.439 32.625 109.25 33.4365 109.25 34.4375Z" fill="#B6EAEB"/>
<path d="M109.25 41.6875V101.5H7.75V34.4375C7.75 33.4365 8.56148 32.625 9.5625 32.625H35.0825C37.2824 32.6264 39.3626 33.6265 40.7375 35.3438C43.5469 38.86 43.71 39.0775 43.9094 39.2769C45.2937 40.8211 47.273 41.6987 49.3469 41.6875H109.25Z" fill="#F0FBFA"/>
<path d="M71.1875 108.75H45.8125C43.8105 108.75 42.1875 107.127 42.1875 105.125H74.8125C74.8125 107.127 73.1895 108.75 71.1875 108.75Z" fill="#F0FBFA"/>
<path d="M60.3125 25.375H102V21.75C102 19.748 100.377 18.125 98.375 18.125H60.3125V25.375Z" fill="#075085"/>
<path d="M40.375 25.375H74.8125L69.375 18.125H40.375V25.375Z" fill="#B6EAEB"/>
<rect x="11.375" y="29" width="94.25" height="3.625" fill="#075085"/>
<path d="M105.625 32.625V41.6875H49.2925C47.0927 41.6861 45.0124 40.686 43.6375 38.9688L40.7375 35.3438C39.3626 33.6265 37.2824 32.6264 35.0825 32.625H105.625Z" fill="#075085"/>
<path d="M105.625 41.6875V101.5H11.375V32.625H35.0825C37.2824 32.6264 39.3626 33.6265 40.7375 35.3438L43.6375 38.9688C45.0124 40.686 47.0926 41.6861 49.2925 41.6875H105.625Z" fill="#E9E9E9"/>
<path d="M102 25.375V101.5H15V21.75C15 19.748 16.623 18.125 18.625 18.125H44C45.141 18.125 46.2154 18.6622 46.9 19.575L50.1625 23.925C50.8471 24.8378 51.9215 25.375 53.0625 25.375H102Z" fill="#F0FBFA"/>
<circle cx="20.4375" cy="12.6875" r="1.8125" fill="#0B3E66"/>
<circle cx="27.6875" cy="12.6875" r="1.8125" fill="#0B3E66"/>
<circle cx="34.9375" cy="12.6875" r="1.8125" fill="#0B3E66"/>
<rect x="56.6875" y="43.5" width="3.625" height="47.125" fill="#075085"/>
<rect x="45.8125" y="59.8125" width="25.375" height="14.5" rx="2" fill="#0B3E66"/>
<circle cx="58.5" cy="41.6875" r="10.875" fill="#075085"/>
<ellipse cx="58.5" cy="88.8125" rx="12.6875" ry="7.25" fill="#075085"/>
<rect x="22.25" y="34.4375" width="21.75" height="3.625" fill="#E9E9E9"/>
<rect x="22.25" y="41.6875" width="14.5" height="3.625" fill="#E9E9E9"/>
<rect x="76.625" y="79.75" width="18.125" height="3.625" fill="#E9E9E9"/>
<rect x="76.625" y="87" width="10.875" height="3.625" fill="#E9E9E9"/>
<path d="M80.25 68.875H78.4375C77.4365 68.875 76.625 68.0635 76.625 67.0625C76.625 66.0615 77.4365 65.25 78.4375 65.25H80.25C81.251 65.25 82.0625 64.4385 82.0625 63.4375V45.3125C82.0625 44.3115 81.251 43.5 80.25 43.5H78.4375C77.4365 43.5 76.625 42.6885 76.625 41.6875C76.625 40.6865 77.4365 39.875 78.4375 39.875H80.25C83.253 39.875 85.6875 42.3095 85.6875 45.3125V63.4375C85.6875 66.4405 83.253 68.875 80.25 68.875Z" fill="#0B3E66"/>
<path d="M38.5625 90.625H36.75C33.747 90.625 31.3125 88.1905 31.3125 85.1875V70.6875C31.3125 67.6845 33.747 65.25 36.75 65.25H38.5625C39.5635 65.25 40.375 66.0615 40.375 67.0625C40.375 68.0635 39.5635 68.875 38.5625 68.875H36.75C35.749 68.875 34.9375 69.6865 34.9375 70.6875V85.1875C34.9375 86.1885 35.749 87 36.75 87H38.5625C39.5635 87 40.375 87.8115 40.375 88.8125C40.375 89.8135 39.5635 90.625 38.5625 90.625Z" fill="#0B3E66"/>
</svg>
