<svg width="117" height="116" viewBox="0 0 117 116" fill="none" xmlns="http://www.w3.org/2000/svg">
<path fill-rule="evenodd" clip-rule="evenodd" d="M27.2525 41.3608L41.8612 26.7521C42.3372 26.2956 43.0205 26.1276 43.6538 26.3116C44.2872 26.4955 44.7743 27.0033 44.9317 27.6437C45.089 28.2842 44.8928 28.9599 44.4168 29.4165L29.8262 43.9165C29.1205 44.6272 27.9723 44.6312 27.2615 43.9255C26.5508 43.2198 26.5468 42.0716 27.2525 41.3608ZM87.0831 43.9165L72.5831 29.3258C72.0737 28.6167 72.1423 27.6453 72.7462 27.0147C73.3501 26.3842 74.3177 26.2738 75.0481 26.7521L89.6569 41.3608C90.3626 42.0716 90.3585 43.2198 89.6478 43.9255C88.9371 44.6312 87.7888 44.6272 87.0831 43.9165ZM72.5831 86.5827L87.0831 72.0827H87.1737C87.8828 71.5734 88.8543 71.6419 89.4848 72.2458C90.1153 72.8497 90.2258 73.8173 89.7475 74.5477L75.1387 89.1565C74.428 89.8622 73.2798 89.8581 72.574 89.1474C71.8683 88.4367 71.8724 87.2884 72.5831 86.5827ZM27.2525 74.6383L41.8612 89.2471C42.5719 89.9528 43.7202 89.9487 44.4259 89.238C45.1316 88.5273 45.1276 87.379 44.4169 86.6733L29.9169 72.1733C29.2362 71.4376 28.0879 71.393 27.3522 72.0736C26.6164 72.7543 26.5718 73.9026 27.2525 74.6383Z" fill="#075085"/>
<circle cx="58.5" cy="59.8125" r="21.75" fill="#1D1D2C"/>
<rect x="45.8125" y="50.75" width="10.875" height="14.5" rx="1" fill="#AAB6C2"/>
<path d="M56.6875 52.5625C61.6538 51.5656 65.3694 51.1306 69.375 47.125C69.52 46.9981 69.375 47.3062 69.375 68.875C65.2063 64.7062 60.965 64.2893 56.6875 63.4375" fill="#AAB6C2"/>
<path d="M67.5625 68.875V47.125C67.5625 46.124 68.374 45.3125 69.375 45.3125C70.376 45.3125 71.1875 46.124 71.1875 47.125V68.875C71.1875 69.876 70.376 70.6875 69.375 70.6875C68.374 70.6875 67.5625 69.876 67.5625 68.875Z" fill="#AAB6C2"/>
<path d="M45.8125 54.375C43.8105 54.375 42.1875 55.998 42.1875 58C42.1875 60.002 43.8105 61.625 45.8125 61.625" fill="#AAB6C2"/>
<path d="M51.6306 74.3125C50.36 74.3187 49.2643 73.4208 49.0206 72.1738L47.625 65.25H53.0625L54.2406 71.1225C54.3981 71.9052 54.1963 72.7174 53.6907 73.3353C53.1851 73.9533 52.4291 74.3119 51.6306 74.3125Z" fill="#AAB6C2"/>
<path d="M71.1875 103.312C71.1875 110.32 65.5071 116 58.5 116C51.4929 116 45.8125 110.32 45.8125 103.312C45.8125 96.3054 51.4929 90.625 58.5 90.625C65.5071 90.625 71.1875 96.3054 71.1875 103.312Z" fill="#1D1D2C"/>
<path d="M71.1875 103.312C71.1875 110.32 65.5071 116 58.5 116C51.4929 116 45.8125 110.32 45.8125 103.312C45.8125 96.3054 51.4929 90.625 58.5 90.625C65.5071 90.625 71.1875 96.3054 71.1875 103.312Z" fill="#075085"/>
<path d="M69.4837 109.656C67.2163 113.578 63.03 115.993 58.5 115.993C53.97 115.993 49.7837 113.578 47.5162 109.656C49.1535 106.808 51.8402 104.713 55.0019 103.82C53.0701 102.196 52.509 99.4573 53.6467 97.205C54.7844 94.9528 57.3221 93.7792 59.775 94.3709C62.2279 94.9625 63.9515 97.1639 63.9375 99.6871C63.9078 101.251 63.2554 102.738 62.125 103.82C65.2342 104.752 67.8677 106.841 69.4837 109.656Z" fill="#AAB6C2"/>
<path d="M71.1875 12.6875C71.1875 19.6946 65.5071 25.375 58.5 25.375C51.4929 25.375 45.8125 19.6946 45.8125 12.6875C45.8125 5.68039 51.4929 0 58.5 0C65.5071 0 71.1875 5.68039 71.1875 12.6875Z" fill="#1D1D2C"/>
<path d="M71.1875 12.6875C71.1875 19.6946 65.5071 25.375 58.5 25.375C51.4929 25.375 45.8125 19.6946 45.8125 12.6875C45.8125 5.68039 51.4929 0 58.5 0C65.5071 0 71.1875 5.68039 71.1875 12.6875Z" fill="#075085"/>
<path d="M69.4837 19.0308C67.2163 22.9525 63.03 25.3678 58.5 25.3678C53.97 25.3678 49.7837 22.9525 47.5162 19.0308C49.1535 16.1825 51.8402 14.0878 55.0019 13.1946C53.0701 11.5713 52.509 8.83226 53.6467 6.58005C54.7844 4.32784 57.3221 3.15424 59.775 3.74586C62.2279 4.33749 63.9515 6.53887 63.9375 9.06209C63.9078 10.626 63.2554 12.1135 62.125 13.1946C65.2342 14.127 67.8677 16.2157 69.4837 19.0308Z" fill="#AAB6C2"/>
<path d="M116.5 58C116.5 65.0071 110.82 70.6875 103.812 70.6875C96.8054 70.6875 91.125 65.0071 91.125 58C91.125 50.9929 96.8054 45.3125 103.812 45.3125C110.82 45.3125 116.5 50.9929 116.5 58Z" fill="#1D1D2C"/>
<path d="M116.5 58C116.5 65.0071 110.82 70.6875 103.812 70.6875C96.8054 70.6875 91.125 65.0071 91.125 58C91.125 50.9929 96.8054 45.3125 103.812 45.3125C110.82 45.3125 116.5 50.9929 116.5 58Z" fill="#075085"/>
<path d="M114.796 64.3433C112.529 68.265 108.342 70.6803 103.812 70.6803C99.2825 70.6803 95.0962 68.265 92.8287 64.3433C94.466 61.495 97.1527 59.4003 100.314 58.5071C98.3826 56.8838 97.8215 54.1448 98.9592 51.8925C100.097 49.6403 102.635 48.4667 105.087 49.0584C107.54 49.65 109.264 51.8514 109.25 54.3746C109.22 55.9385 108.568 57.426 107.437 58.5071C110.547 59.4395 113.18 61.5282 114.796 64.3433Z" fill="#AAB6C2"/>
<path d="M25.875 58C25.875 65.0071 20.1946 70.6875 13.1875 70.6875C6.18039 70.6875 0.5 65.0071 0.5 58C0.5 50.9929 6.18039 45.3125 13.1875 45.3125C16.5524 45.3125 19.7795 46.6492 22.1589 49.0286C24.5383 51.408 25.875 54.6351 25.875 58Z" fill="#1D1D2C"/>
<path d="M25.875 58C25.875 65.0071 20.1946 70.6875 13.1875 70.6875C6.18039 70.6875 0.5 65.0071 0.5 58C0.5 50.9929 6.18039 45.3125 13.1875 45.3125C16.5524 45.3125 19.7795 46.6492 22.1589 49.0286C24.5383 51.408 25.875 54.6351 25.875 58Z" fill="#075085"/>
<path d="M24.1712 64.3433C21.9038 68.265 17.7175 70.6803 13.1875 70.6803C8.6575 70.6803 4.47117 68.265 2.20374 64.3433C3.84103 61.495 6.52773 59.4003 9.68936 58.5071C7.75762 56.8838 7.19645 54.1448 8.33418 51.8925C9.47191 49.6403 12.0096 48.4667 14.4625 49.0584C16.9154 49.65 18.639 51.8514 18.625 54.3746C18.5953 55.9385 17.9429 57.426 16.8125 58.5071C19.9217 59.4395 22.5552 61.5282 24.1712 64.3433Z" fill="#AAB6C2"/>
</svg>
