<svg width="275" height="251" viewBox="0 0 275 251" fill="none" xmlns="http://www.w3.org/2000/svg">
<path d="M224.82 235.467H23.0322V236.999H224.82V235.467Z" fill="#1D1D2C"/>
<path d="M110.189 80.276H91.2754V69.8789H110.189V80.276ZM92.3279 79.2118H109.126V70.9644H92.3598L92.3279 79.2118Z" fill="#414267"/>
<path d="M143.53 195.016H124.574V184.619H143.53V195.016ZM125.659 193.952H142.435V185.726H125.659V193.952Z" fill="#414267"/>
<path d="M125.637 195.016H106.691V184.619H125.637V195.016ZM107.776 193.952H124.552V185.726H107.776V193.952Z" fill="#414267"/>
<path d="M134.642 204.318H115.644V193.932H134.642V204.318ZM116.771 203.254H133.547V195.017H116.728L116.771 203.254Z" fill="#414267"/>
<path d="M171.013 135.241H152.057V124.844H171.013V135.241ZM153.141 134.177H169.918V125.961H153.141V134.177Z" fill="#414267"/>
<path d="M183.984 144.544H165.038V134.146H183.984V144.544ZM166.123 143.479H182.899V135.264H166.123V143.479Z" fill="#414267"/>
<path d="M136.418 219.504H56.5107V226.379H136.418V219.504Z" fill="#414267"/>
<path d="M142.339 233.018C142.341 233.551 142.144 234.065 141.786 234.459C141.427 234.853 140.934 235.099 140.404 235.147H52.7787C52.2147 235.147 51.6739 234.922 51.2751 234.523C50.8764 234.124 50.6523 233.583 50.6523 233.018V225.186C50.6523 224.621 50.8764 224.08 51.2751 223.681C51.6739 223.282 52.2147 223.057 52.7787 223.057H140.17C140.315 223.046 140.461 223.046 140.606 223.057C141.1 223.15 141.544 223.415 141.861 223.805C142.179 224.194 142.348 224.683 142.339 225.186V233.018Z" fill="#1D1D2C"/>
<path d="M136.418 205.605H56.5107V212.384H136.418V205.605Z" fill="#414267"/>
<path d="M142.339 219.025C142.341 219.558 142.144 220.072 141.786 220.466C141.427 220.86 140.934 221.106 140.404 221.154H52.7787C52.2147 221.154 51.6739 220.929 51.2751 220.53C50.8764 220.131 50.6523 219.59 50.6523 219.025V211.193C50.6523 210.628 50.8764 210.087 51.2751 209.688C51.6739 209.289 52.2147 209.064 52.7787 209.064H140.17C140.317 209.065 140.463 209.083 140.606 209.118C141.1 209.211 141.544 209.475 141.861 209.865C142.179 210.254 142.348 210.744 142.339 211.246V219.025Z" fill="#1D1D2C"/>
<path d="M136.418 191.707H56.5107V198.401H136.418V191.707Z" fill="#414267"/>
<path d="M142.339 205.03C142.341 205.563 142.144 206.077 141.786 206.471C141.427 206.865 140.934 207.111 140.404 207.158H52.7787C52.2147 207.158 51.6739 206.934 51.2751 206.535C50.8764 206.136 50.6523 205.595 50.6523 205.03V197.198C50.6523 196.633 50.8764 196.092 51.2751 195.693C51.6739 195.294 52.2147 195.069 52.7787 195.069H140.17C140.315 195.052 140.461 195.052 140.606 195.069C141.1 195.162 141.544 195.427 141.861 195.816C142.179 196.206 142.348 196.695 142.339 197.198V205.03Z" fill="#1D1D2C"/>
<path d="M136.418 175.244H56.5107V184.396H136.418V175.244Z" fill="#414267"/>
<path d="M142.339 191.049C142.341 191.581 142.144 192.096 141.786 192.49C141.427 192.884 140.934 193.129 140.404 193.177H52.7787C52.2147 193.177 51.6739 192.953 51.2751 192.554C50.8764 192.154 50.6523 191.613 50.6523 191.049V183.205C50.6523 182.641 50.8764 182.1 51.2751 181.701C51.6739 181.301 52.2147 181.077 52.7787 181.077H140.17C140.315 181.06 140.461 181.06 140.606 181.077C141.1 181.17 141.544 181.435 141.861 181.824C142.179 182.214 142.348 182.703 142.339 183.205V191.049Z" fill="#1D1D2C"/>
<path d="M136.418 162.963H56.5107V170.412H136.418V162.963Z" fill="#414267"/>
<path d="M142.339 177.053C142.341 177.586 142.144 178.101 141.786 178.495C141.427 178.889 140.934 179.134 140.404 179.182H52.7787C52.2147 179.182 51.6739 178.958 51.2751 178.558C50.8764 178.159 50.6523 177.618 50.6523 177.053V169.221C50.6523 168.657 50.8764 168.115 51.2751 167.716C51.6739 167.317 52.2147 167.093 52.7787 167.093H140.17C140.315 167.076 140.461 167.076 140.606 167.093C141.1 167.186 141.544 167.45 141.861 167.84C142.179 168.229 142.348 168.719 142.339 169.221V177.053Z" fill="#1D1D2C"/>
<path d="M142.339 163.059C142.341 163.592 142.144 164.106 141.786 164.5C141.427 164.894 140.934 165.14 140.404 165.188H52.7787C52.2147 165.188 51.6739 164.963 51.2751 164.564C50.8764 164.165 50.6523 163.624 50.6523 163.059V155.227C50.6523 154.662 50.8764 154.121 51.2751 153.722C51.6739 153.323 52.2147 153.098 52.7787 153.098H140.17C140.315 153.087 140.461 153.087 140.606 153.098C141.1 153.191 141.544 153.456 141.861 153.846C142.179 154.235 142.348 154.724 142.339 155.227V163.059Z" fill="#1D1D2C"/>
<path d="M153.704 219.504H82.4727V226.379H153.704V219.504Z" fill="#1D1D2C"/>
<path d="M159.626 233.02C159.629 233.553 159.431 234.067 159.073 234.461C158.714 234.855 158.222 235.1 157.691 235.148H78.7093C78.1454 235.148 77.6046 234.924 77.2058 234.525C76.807 234.126 76.583 233.584 76.583 233.02V225.187C76.583 224.623 76.807 224.082 77.2058 223.682C77.6046 223.283 78.1454 223.059 78.7093 223.059H157.458C157.603 223.048 157.748 223.048 157.893 223.059C158.381 223.163 158.819 223.431 159.134 223.818C159.449 224.205 159.623 224.688 159.626 225.187V233.02Z" fill="#414267"/>
<path d="M153.704 205.605H82.4727V212.384H153.704V205.605Z" fill="#1D1D2C"/>
<path d="M159.626 219.025C159.629 219.558 159.431 220.072 159.073 220.466C158.714 220.86 158.222 221.106 157.691 221.154H78.7093C78.1454 221.154 77.6046 220.929 77.2058 220.53C76.807 220.131 76.583 219.59 76.583 219.025V211.193C76.583 210.628 76.807 210.087 77.2058 209.688C77.6046 209.289 78.1454 209.064 78.7093 209.064H157.458C157.604 209.066 157.751 209.084 157.893 209.118C158.387 209.211 158.831 209.475 159.149 209.865C159.466 210.254 159.635 210.744 159.626 211.246V219.025Z" fill="#414267"/>
<path d="M153.704 191.707H82.4727V198.401H153.704V191.707Z" fill="#1D1D2C"/>
<path d="M159.626 205.032C159.629 205.564 159.431 206.079 159.073 206.473C158.714 206.867 158.222 207.112 157.691 207.16H78.7093C78.1454 207.16 77.6046 206.936 77.2058 206.537C76.807 206.137 76.583 205.596 76.583 205.032V197.199C76.583 196.635 76.807 196.093 77.2058 195.694C77.6046 195.295 78.1454 195.071 78.7093 195.071H157.458C157.602 195.055 157.749 195.055 157.893 195.071C158.387 195.164 158.831 195.428 159.149 195.818C159.466 196.207 159.635 196.697 159.626 197.199V205.032Z" fill="#414267"/>
<path d="M153.704 175.244H82.4727V184.396H153.704V175.244Z" fill="#1D1D2C"/>
<path d="M159.626 191.048C159.629 191.581 159.431 192.095 159.073 192.489C158.714 192.883 158.222 193.128 157.691 193.176H78.7093C78.1454 193.176 77.6046 192.952 77.2058 192.553C76.807 192.154 76.583 191.613 76.583 191.048V183.205C76.583 182.641 76.807 182.099 77.2058 181.7C77.6046 181.301 78.1454 181.077 78.7093 181.077H157.458C157.602 181.06 157.749 181.06 157.893 181.077C158.387 181.17 158.831 181.434 159.149 181.824C159.466 182.213 159.635 182.703 159.626 183.205V191.048Z" fill="#414267"/>
<path d="M153.704 162.963H82.4727V170.412H153.704V162.963Z" fill="#1D1D2C"/>
<path d="M159.626 177.053C159.629 177.586 159.431 178.1 159.073 178.494C158.714 178.888 158.222 179.133 157.691 179.181H78.7093C78.1454 179.181 77.6046 178.957 77.2058 178.558C76.807 178.159 76.583 177.618 76.583 177.053V169.221C76.583 168.656 76.807 168.115 77.2058 167.716C77.6046 167.317 78.1454 167.092 78.7093 167.092H157.458C157.602 167.076 157.749 167.076 157.893 167.092C158.387 167.185 158.831 167.45 159.149 167.839C159.466 168.229 159.635 168.718 159.626 169.221V177.053Z" fill="#414267"/>
<path d="M159.626 163.059C159.629 163.592 159.431 164.106 159.073 164.5C158.714 164.894 158.222 165.139 157.691 165.187H78.7093C78.1454 165.187 77.6046 164.963 77.2058 164.564C76.807 164.165 76.583 163.623 76.583 163.059V155.226C76.583 154.662 76.807 154.121 77.2058 153.721C77.6046 153.322 78.1454 153.098 78.7093 153.098H157.458C157.603 153.087 157.748 153.087 157.893 153.098C158.381 153.202 158.819 153.47 159.134 153.857C159.449 154.244 159.623 154.727 159.626 155.226V163.059Z" fill="#414267"/>
<path d="M56.6069 156.6C56.7886 156.598 56.9668 156.65 57.1188 156.749C57.2708 156.849 57.3896 156.992 57.4601 157.16C57.5306 157.327 57.5496 157.512 57.5147 157.691C57.4798 157.869 57.3925 158.033 57.264 158.162C57.1355 158.291 56.9716 158.378 56.7932 158.413C56.6149 158.448 56.4302 158.429 56.2627 158.358C56.0952 158.288 55.9525 158.169 55.8528 158.017C55.7532 157.865 55.7011 157.686 55.7032 157.504C55.7032 157.264 55.7984 157.034 55.9679 156.865C56.1373 156.695 56.3672 156.6 56.6069 156.6Z" fill="#414267"/>
<path d="M56.6068 159.877C56.8465 159.877 57.0763 159.972 57.2458 160.142C57.4153 160.312 57.5105 160.542 57.5105 160.782C57.5105 161.021 57.4153 161.251 57.2458 161.421C57.0763 161.591 56.8465 161.686 56.6068 161.686C56.3671 161.686 56.1373 161.591 55.9678 161.421C55.7983 161.251 55.7031 161.021 55.7031 160.782C55.7031 160.542 55.7983 160.312 55.9678 160.142C56.1373 159.972 56.3671 159.877 56.6068 159.877Z" fill="#414267"/>
<path d="M60.7533 158.399C61.2524 158.399 61.657 157.994 61.657 157.494C61.657 156.995 61.2524 156.59 60.7533 156.59C60.2542 156.59 59.8496 156.995 59.8496 157.494C59.8496 157.994 60.2542 158.399 60.7533 158.399Z" fill="#414267"/>
<path d="M60.7533 161.686C61.2524 161.686 61.657 161.281 61.657 160.782C61.657 160.282 61.2524 159.877 60.7533 159.877C60.2542 159.877 59.8496 160.282 59.8496 160.782C59.8496 161.281 60.2542 161.686 60.7533 161.686Z" fill="#414267"/>
<path d="M64.9093 156.6C65.1489 156.6 65.3788 156.695 65.5483 156.865C65.7177 157.034 65.8129 157.264 65.8129 157.504C65.815 157.686 65.7629 157.865 65.6633 158.017C65.5636 158.169 65.421 158.288 65.2535 158.358C65.086 158.429 64.9013 158.448 64.7229 158.413C64.5446 158.378 64.3807 158.291 64.2522 158.162C64.1237 158.033 64.0364 157.869 64.0014 157.691C63.9665 157.512 63.9855 157.327 64.056 157.16C64.1265 156.992 64.2454 156.849 64.3973 156.749C64.5493 156.65 64.7275 156.598 64.9093 156.6Z" fill="#414267"/>
<path d="M64.9095 159.877C65.1492 159.877 65.3791 159.972 65.5485 160.142C65.718 160.312 65.8132 160.542 65.8132 160.782C65.8132 161.021 65.718 161.251 65.5485 161.421C65.3791 161.591 65.1492 161.686 64.9095 161.686C64.6699 161.686 64.44 161.591 64.2705 161.421C64.1011 161.251 64.0059 161.021 64.0059 160.782C64.0059 160.542 64.1011 160.312 64.2705 160.142C64.44 159.972 64.6699 159.877 64.9095 159.877Z" fill="#414267"/>
<path d="M69.056 156.6C69.2957 156.6 69.5256 156.695 69.695 156.865C69.8645 157.034 69.9597 157.264 69.9597 157.504C69.9597 157.744 69.8645 157.974 69.695 158.144C69.5256 158.313 69.2957 158.409 69.056 158.409C68.8164 158.409 68.5865 158.313 68.417 158.144C68.2476 157.974 68.1523 157.744 68.1523 157.504C68.1523 157.264 68.2476 157.034 68.417 156.865C68.5865 156.695 68.8164 156.6 69.056 156.6Z" fill="#414267"/>
<path d="M69.056 159.877C69.2348 159.877 69.4095 159.93 69.5581 160.029C69.7067 160.129 69.8225 160.27 69.8909 160.435C69.9593 160.601 69.9772 160.783 69.9424 160.958C69.9075 161.133 69.8214 161.295 69.695 161.421C69.5686 161.548 69.4076 161.634 69.2323 161.669C69.057 161.704 68.8753 161.686 68.7102 161.617C68.5451 161.549 68.4039 161.433 68.3046 161.284C68.2053 161.135 68.1523 160.96 68.1523 160.782C68.1523 160.542 68.2476 160.312 68.417 160.142C68.5865 159.972 68.8164 159.877 69.056 159.877Z" fill="#414267"/>
<path d="M56.6068 170.584C56.8465 170.584 57.0763 170.679 57.2458 170.849C57.4153 171.019 57.5105 171.249 57.5105 171.489C57.5105 171.728 57.4153 171.959 57.2458 172.128C57.0763 172.298 56.8465 172.393 56.6068 172.393C56.3671 172.393 56.1373 172.298 55.9678 172.128C55.7983 171.959 55.7031 171.728 55.7031 171.489C55.7031 171.249 55.7983 171.019 55.9678 170.849C56.1373 170.679 56.3671 170.584 56.6068 170.584Z" fill="#414267"/>
<path d="M56.6068 173.871C56.7255 173.871 56.843 173.895 56.9526 173.94C57.0623 173.985 57.1619 174.052 57.2458 174.136C57.3297 174.22 57.3963 174.32 57.4417 174.429C57.4871 174.539 57.5105 174.657 57.5105 174.776C57.5105 174.894 57.4871 175.012 57.4417 175.122C57.3963 175.232 57.3297 175.331 57.2458 175.415C57.1619 175.499 57.0623 175.566 56.9526 175.611C56.843 175.657 56.7255 175.68 56.6068 175.68C56.3671 175.68 56.1373 175.585 55.9678 175.415C55.7983 175.246 55.7031 175.016 55.7031 174.776C55.7031 174.536 55.7983 174.306 55.9678 174.136C56.1373 173.966 56.3671 173.871 56.6068 173.871Z" fill="#414267"/>
<path d="M60.7533 170.584C60.932 170.584 61.1067 170.637 61.2554 170.736C61.404 170.836 61.5198 170.977 61.5882 171.142C61.6566 171.308 61.6745 171.49 61.6396 171.665C61.6047 171.84 61.5187 172.002 61.3923 172.128C61.2659 172.255 61.1049 172.341 60.9296 172.376C60.7543 172.411 60.5726 172.393 60.4075 172.324C60.2423 172.256 60.1012 172.14 60.0019 171.991C59.9026 171.842 59.8496 171.667 59.8496 171.489C59.8496 171.249 59.9448 171.019 60.1143 170.849C60.2838 170.679 60.5136 170.584 60.7533 170.584Z" fill="#414267"/>
<path d="M60.7533 175.68C61.2524 175.68 61.657 175.275 61.657 174.776C61.657 174.276 61.2524 173.871 60.7533 173.871C60.2542 173.871 59.8496 174.276 59.8496 174.776C59.8496 175.275 60.2542 175.68 60.7533 175.68Z" fill="#414267"/>
<path d="M64.9095 170.584C65.1492 170.584 65.3791 170.679 65.5485 170.849C65.718 171.019 65.8132 171.249 65.8132 171.489C65.8132 171.728 65.718 171.959 65.5485 172.128C65.3791 172.298 65.1492 172.393 64.9095 172.393C64.6699 172.393 64.44 172.298 64.2705 172.128C64.1011 171.959 64.0059 171.728 64.0059 171.489C64.0059 171.249 64.1011 171.019 64.2705 170.849C64.44 170.679 64.6699 170.584 64.9095 170.584Z" fill="#414267"/>
<path d="M64.9095 173.871C65.1492 173.871 65.3791 173.966 65.5485 174.136C65.718 174.306 65.8132 174.536 65.8132 174.776C65.8132 175.016 65.718 175.246 65.5485 175.415C65.3791 175.585 65.1492 175.68 64.9095 175.68C64.7909 175.68 64.6734 175.657 64.5637 175.611C64.4541 175.566 64.3545 175.499 64.2705 175.415C64.1866 175.331 64.1201 175.232 64.0746 175.122C64.0292 175.012 64.0059 174.894 64.0059 174.776C64.0059 174.657 64.0292 174.539 64.0746 174.429C64.1201 174.32 64.1866 174.22 64.2705 174.136C64.3545 174.052 64.4541 173.985 64.5637 173.94C64.6734 173.895 64.7909 173.871 64.9095 173.871Z" fill="#414267"/>
<path d="M69.056 170.584C69.2348 170.584 69.4095 170.637 69.5581 170.736C69.7067 170.836 69.8225 170.977 69.8909 171.142C69.9593 171.308 69.9772 171.49 69.9424 171.665C69.9075 171.84 69.8214 172.002 69.695 172.128C69.5686 172.255 69.4076 172.341 69.2323 172.376C69.057 172.411 68.8753 172.393 68.7102 172.324C68.5451 172.256 68.4039 172.14 68.3046 171.991C68.2053 171.842 68.1523 171.667 68.1523 171.489C68.1523 171.249 68.2476 171.019 68.417 170.849C68.5865 170.679 68.8164 170.584 69.056 170.584Z" fill="#414267"/>
<path d="M69.056 173.871C69.2348 173.871 69.4095 173.924 69.5581 174.024C69.7067 174.123 69.8225 174.264 69.8909 174.429C69.9593 174.595 69.9772 174.777 69.9424 174.952C69.9075 175.128 69.8214 175.289 69.695 175.415C69.5686 175.542 69.4076 175.628 69.2323 175.663C69.057 175.698 68.8753 175.68 68.7102 175.611C68.5451 175.543 68.4039 175.427 68.3046 175.278C68.2053 175.129 68.1523 174.955 68.1523 174.776C68.1523 174.536 68.2476 174.306 68.417 174.136C68.5865 173.966 68.8164 173.871 69.056 173.871Z" fill="#414267"/>
<path d="M56.6068 184.566C56.7344 184.552 56.8635 184.565 56.9857 184.605C57.1079 184.644 57.2204 184.709 57.316 184.795C57.4115 184.88 57.4879 184.985 57.5402 185.103C57.5925 185.22 57.6196 185.347 57.6196 185.476C57.6196 185.604 57.5925 185.731 57.5402 185.849C57.4879 185.966 57.4115 186.071 57.316 186.157C57.2204 186.243 57.1079 186.307 56.9857 186.347C56.8635 186.386 56.7344 186.399 56.6068 186.386C56.3671 186.386 56.1373 186.29 55.9678 186.121C55.7983 185.951 55.7031 185.721 55.7031 185.481C55.7031 185.24 55.798 185.009 55.9672 184.838C56.1363 184.666 56.3662 184.569 56.6068 184.566Z" fill="#414267"/>
<path d="M56.6068 187.855C56.7344 187.841 56.8635 187.854 56.9857 187.894C57.1079 187.933 57.2204 187.998 57.316 188.084C57.4115 188.17 57.4879 188.275 57.5402 188.392C57.5925 188.509 57.6196 188.636 57.6196 188.765C57.6196 188.893 57.5925 189.02 57.5402 189.138C57.4879 189.255 57.4115 189.36 57.316 189.446C57.2204 189.532 57.1079 189.596 56.9857 189.636C56.8635 189.675 56.7344 189.689 56.6068 189.675C56.3671 189.675 56.1373 189.579 55.9678 189.41C55.7983 189.24 55.7031 189.01 55.7031 188.77C55.7031 188.529 55.798 188.298 55.9672 188.127C56.1363 187.955 56.3662 187.858 56.6068 187.855Z" fill="#414267"/>
<path d="M60.7533 186.387C61.2524 186.387 61.657 185.982 61.657 185.483C61.657 184.983 61.2524 184.578 60.7533 184.578C60.2542 184.578 59.8496 184.983 59.8496 185.483C59.8496 185.982 60.2542 186.387 60.7533 186.387Z" fill="#414267"/>
<path d="M60.7523 187.855C60.8799 187.841 61.0091 187.854 61.1312 187.894C61.2534 187.933 61.366 187.998 61.4615 188.084C61.557 188.17 61.6334 188.275 61.6857 188.392C61.738 188.509 61.7651 188.636 61.7651 188.765C61.7651 188.893 61.738 189.02 61.6857 189.138C61.6334 189.255 61.557 189.36 61.4615 189.446C61.366 189.532 61.2534 189.596 61.1312 189.636C61.0091 189.675 60.8799 189.689 60.7523 189.675C60.5126 189.675 60.2828 189.579 60.1133 189.41C59.9438 189.24 59.8486 189.01 59.8486 188.77C59.8486 188.529 59.9435 188.298 60.1127 188.127C60.2818 187.955 60.5117 187.858 60.7523 187.855Z" fill="#414267"/>
<path d="M64.9093 184.566C65.1499 184.569 65.3797 184.666 65.5489 184.838C65.7181 185.009 65.813 185.24 65.8129 185.481C65.8129 185.721 65.7177 185.951 65.5483 186.121C65.3788 186.29 65.1489 186.386 64.9093 186.386C64.7816 186.399 64.6525 186.386 64.5303 186.347C64.4081 186.307 64.2956 186.243 64.2001 186.157C64.1045 186.071 64.0281 185.966 63.9758 185.849C63.9235 185.731 63.8965 185.604 63.8965 185.476C63.8965 185.347 63.9235 185.22 63.9758 185.103C64.0281 184.985 64.1045 184.88 64.2001 184.795C64.2956 184.709 64.4081 184.644 64.5303 184.605C64.6525 184.565 64.7816 184.552 64.9093 184.566Z" fill="#414267"/>
<path d="M64.9093 187.855C65.1499 187.858 65.3797 187.955 65.5489 188.127C65.7181 188.298 65.813 188.529 65.8129 188.77C65.8129 189.01 65.7177 189.24 65.5483 189.41C65.3788 189.579 65.1489 189.675 64.9093 189.675C64.7816 189.689 64.6525 189.675 64.5303 189.636C64.4081 189.596 64.2956 189.532 64.2001 189.446C64.1045 189.36 64.0281 189.255 63.9758 189.138C63.9235 189.02 63.8965 188.893 63.8965 188.765C63.8965 188.636 63.9235 188.509 63.9758 188.392C64.0281 188.275 64.1045 188.17 64.2001 188.084C64.2956 187.998 64.4081 187.933 64.5303 187.894C64.6525 187.854 64.7816 187.841 64.9093 187.855Z" fill="#414267"/>
<path d="M69.056 184.566C69.2967 184.569 69.5265 184.667 69.6957 184.838C69.8649 185.01 69.9597 185.241 69.9597 185.482C69.9597 185.722 69.8645 185.952 69.695 186.121C69.5256 186.291 69.2957 186.386 69.056 186.386C68.8164 186.386 68.5865 186.291 68.417 186.121C68.2476 185.952 68.1523 185.722 68.1523 185.482C68.1523 185.241 68.2472 185.01 68.4164 184.838C68.5855 184.667 68.8154 184.569 69.056 184.566Z" fill="#414267"/>
<path d="M69.056 187.855C69.2967 187.858 69.5265 187.956 69.6957 188.127C69.8649 188.299 69.9597 188.53 69.9597 188.771C69.9597 189.011 69.8645 189.241 69.695 189.41C69.5256 189.58 69.2957 189.675 69.056 189.675C68.8164 189.675 68.5865 189.58 68.417 189.41C68.2476 189.241 68.1523 189.011 68.1523 188.771C68.1523 188.53 68.2472 188.299 68.4164 188.127C68.5855 187.956 68.8154 187.858 69.056 187.855Z" fill="#414267"/>
<path d="M56.6068 198.56C56.7344 198.546 56.8635 198.559 56.9857 198.599C57.1079 198.638 57.2204 198.703 57.316 198.789C57.4115 198.875 57.4879 198.98 57.5402 199.097C57.5925 199.214 57.6196 199.341 57.6196 199.47C57.6196 199.598 57.5925 199.725 57.5402 199.843C57.4879 199.96 57.4115 200.065 57.316 200.151C57.2204 200.237 57.1079 200.302 56.9857 200.341C56.8635 200.38 56.7344 200.394 56.6068 200.38C56.3671 200.38 56.1373 200.284 55.9678 200.115C55.7983 199.945 55.7031 199.715 55.7031 199.475C55.7031 199.234 55.798 199.003 55.9672 198.832C56.1363 198.66 56.3662 198.563 56.6068 198.56Z" fill="#414267"/>
<path d="M56.6059 201.849C56.7335 201.835 56.8626 201.848 56.9848 201.888C57.107 201.927 57.2195 201.992 57.3151 202.078C57.4106 202.164 57.487 202.269 57.5393 202.386C57.5916 202.503 57.6187 202.63 57.6187 202.759C57.6187 202.887 57.5916 203.015 57.5393 203.132C57.487 203.249 57.4106 203.354 57.3151 203.44C57.2195 203.526 57.107 203.591 56.9848 203.63C56.8626 203.669 56.7335 203.683 56.6059 203.669C56.3818 203.645 56.1745 203.538 56.0239 203.37C55.8733 203.202 55.79 202.985 55.79 202.759C55.79 202.533 55.8733 202.316 56.0239 202.148C56.1745 201.98 56.3818 201.873 56.6059 201.849Z" fill="#414267"/>
<path d="M60.7533 198.56C60.8809 198.546 61.01 198.559 61.1322 198.599C61.2544 198.638 61.3669 198.703 61.4625 198.789C61.558 198.875 61.6344 198.98 61.6867 199.097C61.739 199.214 61.7661 199.341 61.7661 199.47C61.7661 199.598 61.739 199.725 61.6867 199.843C61.6344 199.96 61.558 200.065 61.4625 200.151C61.3669 200.237 61.2544 200.302 61.1322 200.341C61.01 200.38 60.8809 200.394 60.7533 200.38C60.5136 200.38 60.2838 200.284 60.1143 200.115C59.9448 199.945 59.8496 199.715 59.8496 199.475C59.8496 199.234 59.9445 199.003 60.1136 198.832C60.2828 198.66 60.5126 198.563 60.7533 198.56Z" fill="#414267"/>
<path d="M60.7533 203.668C61.2524 203.668 61.657 203.264 61.657 202.764C61.657 202.264 61.2524 201.859 60.7533 201.859C60.2542 201.859 59.8496 202.264 59.8496 202.764C59.8496 203.264 60.2542 203.668 60.7533 203.668Z" fill="#414267"/>
<path d="M64.9093 198.56C65.1499 198.563 65.3797 198.66 65.5489 198.832C65.7181 199.003 65.813 199.234 65.8129 199.475C65.8129 199.715 65.7177 199.945 65.5483 200.115C65.3788 200.284 65.1489 200.38 64.9093 200.38C64.7816 200.394 64.6525 200.38 64.5303 200.341C64.4081 200.302 64.2956 200.237 64.2001 200.151C64.1045 200.065 64.0281 199.96 63.9758 199.843C63.9235 199.725 63.8965 199.598 63.8965 199.47C63.8965 199.341 63.9235 199.214 63.9758 199.097C64.0281 198.98 64.1045 198.875 64.2001 198.789C64.2956 198.703 64.4081 198.638 64.5303 198.599C64.6525 198.559 64.7816 198.546 64.9093 198.56Z" fill="#414267"/>
<path d="M64.9095 201.85C65.0903 201.85 65.2671 201.903 65.4175 202.004C65.5678 202.104 65.685 202.247 65.7542 202.415C65.8234 202.582 65.8415 202.766 65.8062 202.943C65.771 203.121 65.6839 203.284 65.556 203.412C65.4281 203.54 65.2652 203.627 65.0879 203.662C64.9105 203.698 64.7267 203.68 64.5596 203.61C64.3925 203.541 64.2497 203.424 64.1493 203.273C64.0488 203.123 63.9952 202.946 63.9952 202.765C63.9938 202.644 64.0164 202.525 64.0619 202.413C64.1073 202.301 64.1746 202.2 64.2598 202.115C64.345 202.029 64.4463 201.962 64.5579 201.916C64.6695 201.871 64.789 201.848 64.9095 201.85Z" fill="#414267"/>
<path d="M69.056 198.561C69.2967 198.563 69.5265 198.661 69.6957 198.832C69.8649 199.004 69.9597 199.235 69.9597 199.476C69.9597 199.716 69.8645 199.946 69.695 200.115C69.5256 200.285 69.2957 200.38 69.056 200.38C68.8164 200.38 68.5865 200.285 68.417 200.115C68.2476 199.946 68.1523 199.716 68.1523 199.476C68.1523 199.235 68.2472 199.004 68.4164 198.832C68.5855 198.661 68.8154 198.563 69.056 198.561Z" fill="#414267"/>
<path d="M69.0561 201.85C69.2374 201.848 69.4152 201.899 69.5669 201.999C69.7187 202.098 69.8375 202.24 69.9084 202.407C69.9792 202.574 69.9988 202.759 69.9647 202.937C69.9307 203.115 69.8444 203.279 69.717 203.408C69.5896 203.537 69.4267 203.625 69.249 203.662C69.0714 203.698 68.887 203.68 68.7193 203.611C68.5516 203.542 68.4082 203.425 68.3073 203.274C68.2063 203.124 68.1524 202.946 68.1524 202.765C68.151 202.645 68.1733 202.526 68.2181 202.415C68.2629 202.304 68.3292 202.203 68.4133 202.118C68.4974 202.033 68.5975 201.966 68.7078 201.92C68.8181 201.873 68.9365 201.85 69.0561 201.85Z" fill="#414267"/>
<path d="M56.6059 212.555C56.7876 212.553 56.9658 212.605 57.1178 212.705C57.2698 212.804 57.3886 212.947 57.4591 213.115C57.5297 213.282 57.5487 213.467 57.5137 213.646C57.4788 213.824 57.3915 213.988 57.263 214.117C57.1345 214.246 56.9706 214.333 56.7922 214.368C56.6139 214.403 56.4292 214.384 56.2617 214.313C56.0942 214.243 55.9515 214.124 55.8519 213.972C55.7522 213.82 55.7001 213.641 55.7022 213.459C55.7022 213.219 55.7974 212.989 55.9669 212.82C56.1364 212.65 56.3662 212.555 56.6059 212.555Z" fill="#414267"/>
<path d="M56.6069 215.844C56.7886 215.842 56.9668 215.894 57.1188 215.994C57.2708 216.093 57.3896 216.236 57.4601 216.404C57.5306 216.571 57.5496 216.756 57.5147 216.935C57.4798 217.113 57.3925 217.277 57.264 217.406C57.1355 217.535 56.9716 217.622 56.7932 217.657C56.6149 217.692 56.4302 217.673 56.2627 217.602C56.0952 217.532 55.9525 217.413 55.8528 217.261C55.7532 217.109 55.7011 216.93 55.7032 216.748C55.7032 216.508 55.7984 216.278 55.9679 216.109C56.1373 215.939 56.3672 215.844 56.6069 215.844Z" fill="#414267"/>
<path d="M60.7523 214.364C61.2514 214.364 61.656 213.959 61.656 213.459C61.656 212.96 61.2514 212.555 60.7523 212.555C60.2532 212.555 59.8486 212.96 59.8486 213.459C59.8486 213.959 60.2532 214.364 60.7523 214.364Z" fill="#414267"/>
<path d="M60.7524 215.844C60.9341 215.842 61.1123 215.894 61.2643 215.994C61.4163 216.093 61.5351 216.236 61.6056 216.404C61.6761 216.571 61.6951 216.756 61.6602 216.935C61.6253 217.113 61.538 217.277 61.4095 217.406C61.281 217.535 61.1171 217.622 60.9387 217.657C60.7604 217.692 60.5757 217.673 60.4082 217.602C60.2407 217.532 60.098 217.413 59.9983 217.261C59.8987 217.109 59.8466 216.93 59.8487 216.748C59.8487 216.508 59.9439 216.278 60.1134 216.109C60.2829 215.939 60.5127 215.844 60.7524 215.844Z" fill="#414267"/>
<path d="M64.9093 212.554C65.1334 212.578 65.3407 212.685 65.4912 212.853C65.6418 213.021 65.7251 213.238 65.7251 213.464C65.7251 213.69 65.6418 213.907 65.4912 214.075C65.3407 214.243 65.1334 214.35 64.9093 214.374C64.7816 214.388 64.6525 214.375 64.5303 214.335C64.4081 214.296 64.2956 214.231 64.2001 214.145C64.1045 214.059 64.0281 213.954 63.9758 213.837C63.9235 213.72 63.8965 213.593 63.8965 213.464C63.8965 213.336 63.9235 213.208 63.9758 213.091C64.0281 212.974 64.1045 212.869 64.2001 212.783C64.2956 212.697 64.4081 212.632 64.5303 212.593C64.6525 212.554 64.7816 212.54 64.9093 212.554Z" fill="#414267"/>
<path d="M64.9093 215.844C65.1489 215.844 65.3788 215.939 65.5483 216.109C65.7177 216.278 65.8129 216.508 65.8129 216.748C65.815 216.93 65.7629 217.109 65.6633 217.261C65.5636 217.413 65.421 217.532 65.2535 217.602C65.086 217.673 64.9013 217.692 64.7229 217.657C64.5446 217.622 64.3807 217.535 64.2522 217.406C64.1237 217.277 64.0364 217.113 64.0014 216.935C63.9665 216.756 63.9855 216.571 64.056 216.404C64.1265 216.236 64.2454 216.093 64.3973 215.994C64.5493 215.894 64.7275 215.842 64.9093 215.844Z" fill="#414267"/>
<path d="M69.0561 212.555C69.2378 212.553 69.416 212.605 69.568 212.705C69.72 212.804 69.8388 212.947 69.9093 213.115C69.9799 213.282 69.9989 213.467 69.9639 213.646C69.929 213.824 69.8417 213.988 69.7132 214.117C69.5847 214.246 69.4208 214.333 69.2424 214.368C69.0641 214.403 68.8794 214.384 68.7119 214.313C68.5444 214.243 68.4017 214.124 68.3021 213.972C68.2024 213.82 68.1503 213.641 68.1524 213.459C68.1524 213.219 68.2476 212.989 68.4171 212.82C68.5866 212.65 68.8164 212.555 69.0561 212.555Z" fill="#414267"/>
<path d="M69.056 215.844C69.2957 215.844 69.5256 215.939 69.695 216.109C69.8645 216.278 69.9597 216.508 69.9597 216.748C69.9597 216.988 69.8645 217.218 69.695 217.388C69.5256 217.558 69.2957 217.653 69.056 217.653C68.8164 217.653 68.5865 217.558 68.417 217.388C68.2476 217.218 68.1523 216.988 68.1523 216.748C68.1523 216.508 68.2476 216.278 68.417 216.109C68.5865 215.939 68.8164 215.844 69.056 215.844Z" fill="#414267"/>
<path d="M56.6059 226.549C56.7876 226.547 56.9658 226.599 57.1178 226.699C57.2698 226.798 57.3886 226.941 57.4591 227.109C57.5297 227.277 57.5487 227.461 57.5137 227.64C57.4788 227.818 57.3915 227.983 57.263 228.111C57.1345 228.24 56.9706 228.327 56.7922 228.362C56.6139 228.397 56.4292 228.378 56.2617 228.308C56.0942 228.237 55.9515 228.118 55.8519 227.966C55.7522 227.814 55.7001 227.635 55.7022 227.453C55.7022 227.214 55.7974 226.983 55.9669 226.814C56.1364 226.644 56.3662 226.549 56.6059 226.549Z" fill="#414267"/>
<path d="M56.6069 229.838C56.7886 229.836 56.9668 229.888 57.1188 229.988C57.2708 230.087 57.3896 230.23 57.4601 230.398C57.5306 230.566 57.5496 230.751 57.5147 230.929C57.4798 231.108 57.3925 231.272 57.264 231.4C57.1355 231.529 56.9716 231.616 56.7932 231.651C56.6149 231.686 56.4302 231.667 56.2627 231.597C56.0952 231.526 55.9525 231.407 55.8528 231.255C55.7532 231.103 55.7011 230.924 55.7032 230.742C55.7032 230.503 55.7984 230.273 55.9679 230.103C56.1373 229.933 56.3672 229.838 56.6069 229.838Z" fill="#414267"/>
<path d="M60.7523 228.358C61.2514 228.358 61.656 227.953 61.656 227.453C61.656 226.954 61.2514 226.549 60.7523 226.549C60.2532 226.549 59.8486 226.954 59.8486 227.453C59.8486 227.953 60.2532 228.358 60.7523 228.358Z" fill="#414267"/>
<path d="M60.7533 231.647C61.2524 231.647 61.657 231.242 61.657 230.742C61.657 230.243 61.2524 229.838 60.7533 229.838C60.2542 229.838 59.8496 230.243 59.8496 230.742C59.8496 231.242 60.2542 231.647 60.7533 231.647Z" fill="#414267"/>
<path d="M64.9093 226.549C65.1489 226.549 65.3788 226.644 65.5483 226.814C65.7177 226.983 65.8129 227.214 65.8129 227.453C65.815 227.635 65.7629 227.814 65.6633 227.966C65.5636 228.118 65.421 228.237 65.2535 228.308C65.086 228.378 64.9013 228.397 64.7229 228.362C64.5446 228.327 64.3807 228.24 64.2522 228.111C64.1237 227.983 64.0364 227.818 64.0014 227.64C63.9665 227.461 63.9855 227.277 64.056 227.109C64.1265 226.941 64.2454 226.798 64.3973 226.699C64.5493 226.599 64.7275 226.547 64.9093 226.549Z" fill="#414267"/>
<path d="M64.9093 229.838C65.1489 229.838 65.3788 229.933 65.5483 230.103C65.7177 230.273 65.8129 230.503 65.8129 230.742C65.815 230.924 65.7629 231.103 65.6633 231.255C65.5636 231.407 65.421 231.526 65.2535 231.597C65.086 231.667 64.9013 231.686 64.7229 231.651C64.5446 231.616 64.3807 231.529 64.2522 231.4C64.1237 231.272 64.0364 231.108 64.0014 230.929C63.9665 230.751 63.9855 230.566 64.056 230.398C64.1265 230.23 64.2454 230.087 64.3973 229.988C64.5493 229.888 64.7275 229.836 64.9093 229.838Z" fill="#414267"/>
<path d="M69.056 226.549C69.2957 226.549 69.5256 226.644 69.695 226.814C69.8645 226.983 69.9597 227.213 69.9597 227.453C69.9597 227.693 69.8645 227.923 69.695 228.093C69.5256 228.263 69.2957 228.358 69.056 228.358C68.8164 228.358 68.5865 228.263 68.417 228.093C68.2476 227.923 68.1523 227.693 68.1523 227.453C68.1523 227.213 68.2476 226.983 68.417 226.814C68.5865 226.644 68.8164 226.549 69.056 226.549Z" fill="#414267"/>
<path d="M69.056 229.838C69.2957 229.838 69.5256 229.933 69.695 230.103C69.8645 230.272 69.9597 230.503 69.9597 230.742C69.9597 230.982 69.8645 231.212 69.695 231.382C69.5256 231.552 69.2957 231.647 69.056 231.647C68.8164 231.647 68.5865 231.552 68.417 231.382C68.2476 231.212 68.1523 230.982 68.1523 230.742C68.1523 230.503 68.2476 230.272 68.417 230.103C68.5865 229.933 68.8164 229.838 69.056 229.838Z" fill="#414267"/>
<path d="M60.955 189.59H64.91C65.1384 189.59 65.3574 189.5 65.5189 189.338C65.6804 189.176 65.7711 188.957 65.7711 188.728C65.7711 188.499 65.6808 188.278 65.5196 188.115C65.3584 187.952 65.1393 187.859 64.91 187.856H60.955C60.893 187.856 60.8335 187.831 60.7896 187.787C60.7458 187.743 60.7211 187.684 60.7211 187.622V175.884C60.7211 175.822 60.7458 175.762 60.7896 175.718C60.8335 175.674 60.893 175.65 60.955 175.65H64.91C65.1412 175.65 65.3629 175.558 65.5264 175.394C65.6899 175.23 65.7818 175.008 65.7818 174.777C65.7818 174.546 65.6899 174.324 65.5264 174.16C65.3629 173.996 65.1412 173.904 64.91 173.904H60.955C60.4306 173.904 59.9276 174.113 59.5567 174.484C59.1859 174.855 58.9775 175.359 58.9775 175.884V187.664C58.9914 188.18 59.2058 188.67 59.5752 189.03C59.9445 189.389 60.4396 189.591 60.955 189.59Z" fill="white"/>
<path d="M56.8085 217.621H60.7528C60.9841 217.621 61.2058 217.529 61.3693 217.365C61.5328 217.201 61.6246 216.98 61.6246 216.748C61.6246 216.634 61.602 216.521 61.5581 216.416C61.5141 216.31 61.4498 216.215 61.3687 216.135C61.2876 216.055 61.1914 215.991 61.0857 215.949C60.98 215.906 60.8668 215.885 60.7528 215.886H56.8085C56.7769 215.886 56.7456 215.88 56.7165 215.867C56.6874 215.855 56.6611 215.837 56.6393 215.814C56.6174 215.791 56.6004 215.764 56.5893 215.734C56.5782 215.705 56.5732 215.673 56.5746 215.641V203.861C56.5746 203.799 56.5993 203.739 56.6431 203.695C56.687 203.651 56.7465 203.627 56.8085 203.627H60.7528C60.8747 203.64 60.998 203.628 61.1148 203.59C61.2315 203.553 61.3391 203.491 61.4304 203.41C61.5218 203.328 61.5949 203.227 61.6449 203.115C61.6949 203.003 61.7208 202.882 61.7208 202.759C61.7208 202.637 61.6949 202.515 61.6449 202.403C61.5949 202.291 61.5218 202.191 61.4304 202.109C61.3391 202.027 61.2315 201.966 61.1148 201.928C60.998 201.891 60.8747 201.879 60.7528 201.892H56.8085C56.2859 201.892 55.7845 202.099 55.414 202.468C55.0434 202.837 54.8339 203.338 54.8311 203.861V215.641C54.8311 216.166 55.0394 216.67 55.4102 217.041C55.7811 217.412 56.2841 217.621 56.8085 217.621Z" fill="white"/>
<path d="M86.5553 160.111H131.208C131.49 160.111 131.76 160.223 131.96 160.423C132.159 160.623 132.271 160.893 132.271 161.176C132.271 161.458 132.159 161.728 131.96 161.928C131.76 162.128 131.49 162.24 131.208 162.24H86.5553C86.2734 162.24 86.003 162.128 85.8036 161.928C85.6042 161.728 85.4922 161.458 85.4922 161.176C85.4922 160.893 85.6042 160.623 85.8036 160.423C86.003 160.223 86.2734 160.111 86.5553 160.111Z" fill="#1D1D2C"/>
<path d="M86.5553 160.111H126.456C126.738 160.111 127.008 160.223 127.207 160.423C127.407 160.623 127.519 160.893 127.519 161.176C127.519 161.458 127.407 161.728 127.207 161.928C127.008 162.128 126.738 162.24 126.456 162.24H86.5553C86.2734 162.24 86.003 162.128 85.8036 161.928C85.6042 161.728 85.4922 161.458 85.4922 161.176C85.4922 160.893 85.6042 160.623 85.8036 160.423C86.003 160.223 86.2734 160.111 86.5553 160.111Z" fill="white"/>
<path d="M86.5553 156.025H131.208C131.49 156.025 131.76 156.138 131.96 156.337C132.159 156.537 132.271 156.807 132.271 157.09C132.271 157.372 132.159 157.642 131.96 157.842C131.76 158.042 131.49 158.154 131.208 158.154H86.5553C86.2734 158.154 86.003 158.042 85.8036 157.842C85.6042 157.642 85.4922 157.372 85.4922 157.09C85.4922 156.807 85.6042 156.537 85.8036 156.337C86.003 156.138 86.2734 156.025 86.5553 156.025Z" fill="#1D1D2C"/>
<path d="M86.5553 156.025H120.406C120.688 156.025 120.959 156.138 121.158 156.337C121.357 156.537 121.469 156.807 121.469 157.09C121.469 157.372 121.357 157.642 121.158 157.842C120.959 158.042 120.688 158.154 120.406 158.154H86.5553C86.2734 158.154 86.003 158.042 85.8036 157.842C85.6042 157.642 85.4922 157.372 85.4922 157.09C85.4922 156.807 85.6042 156.537 85.8036 156.337C86.003 156.138 86.2734 156.025 86.5553 156.025Z" fill="white"/>
<path d="M149.526 157.578C149.884 157.576 150.235 157.68 150.533 157.878C150.832 158.075 151.065 158.357 151.204 158.688C151.342 159.018 151.379 159.382 151.311 159.734C151.242 160.085 151.071 160.409 150.819 160.663C150.566 160.917 150.244 161.09 149.893 161.161C149.543 161.231 149.179 161.196 148.848 161.06C148.517 160.923 148.234 160.691 148.035 160.393C147.836 160.096 147.729 159.746 147.729 159.387C147.729 158.909 147.918 158.451 148.255 158.112C148.592 157.773 149.049 157.581 149.526 157.578Z" fill="white"/>
<path d="M147.453 159.378C147.453 159.799 147.578 160.211 147.811 160.561C148.045 160.911 148.377 161.184 148.766 161.345C149.154 161.506 149.582 161.548 149.994 161.466C150.407 161.384 150.786 161.181 151.083 160.883C151.38 160.586 151.583 160.206 151.665 159.794C151.747 159.381 151.705 158.953 151.544 158.564C151.383 158.175 151.11 157.843 150.761 157.609C150.411 157.375 150 157.25 149.579 157.25C149.016 157.25 148.475 157.474 148.076 157.873C147.677 158.273 147.453 158.814 147.453 159.378ZM148.059 159.378C148.055 159.079 148.14 158.786 148.304 158.536C148.467 158.286 148.702 158.09 148.977 157.974C149.253 157.858 149.556 157.827 149.849 157.886C150.142 157.944 150.411 158.088 150.622 158.3C150.832 158.512 150.975 158.783 151.031 159.076C151.087 159.37 151.053 159.674 150.936 159.949C150.818 160.224 150.621 160.457 150.37 160.619C150.119 160.781 149.825 160.864 149.526 160.858C149.138 160.849 148.768 160.691 148.494 160.415C148.221 160.139 148.065 159.767 148.059 159.378Z" fill="#414267"/>
<path d="M143.084 157.578C143.442 157.576 143.792 157.68 144.091 157.878C144.389 158.075 144.623 158.357 144.761 158.688C144.9 159.018 144.937 159.382 144.868 159.734C144.8 160.085 144.629 160.409 144.376 160.663C144.124 160.917 143.802 161.09 143.451 161.161C143.1 161.231 142.736 161.196 142.405 161.06C142.074 160.923 141.792 160.691 141.592 160.393C141.393 160.096 141.287 159.746 141.287 159.387C141.287 158.909 141.476 158.451 141.813 158.112C142.149 157.773 142.606 157.581 143.084 157.578Z" fill="#1D1D2C"/>
<path d="M141.021 159.378C141.021 159.799 141.146 160.211 141.38 160.561C141.613 160.911 141.946 161.184 142.334 161.345C142.723 161.506 143.15 161.548 143.563 161.466C143.975 161.384 144.354 161.181 144.651 160.883C144.949 160.586 145.151 160.206 145.233 159.794C145.315 159.381 145.273 158.953 145.112 158.564C144.951 158.175 144.679 157.843 144.329 157.609C143.979 157.375 143.568 157.25 143.148 157.25C142.584 157.25 142.043 157.474 141.644 157.873C141.246 158.273 141.021 158.814 141.021 159.378ZM141.627 159.378C141.627 159.082 141.715 158.791 141.88 158.545C142.045 158.298 142.279 158.106 142.553 157.992C142.827 157.879 143.128 157.849 143.419 157.907C143.71 157.965 143.977 158.108 144.187 158.317C144.396 158.527 144.539 158.795 144.597 159.086C144.655 159.377 144.625 159.678 144.511 159.953C144.398 160.227 144.206 160.461 143.959 160.626C143.713 160.791 143.423 160.879 143.127 160.879C142.926 160.885 142.727 160.85 142.54 160.777C142.353 160.704 142.183 160.595 142.039 160.455C141.895 160.315 141.781 160.147 141.703 159.963C141.625 159.778 141.585 159.579 141.585 159.378H141.627Z" fill="#414267"/>
<path d="M141.288 158.771H137.492V159.985H141.288V158.771Z" fill="#414267"/>
<path d="M86.5553 174.043H131.208C131.49 174.043 131.76 174.155 131.96 174.355C132.159 174.554 132.271 174.825 132.271 175.107C132.271 175.389 132.159 175.66 131.96 175.86C131.76 176.059 131.49 176.171 131.208 176.171H86.5553C86.2734 176.171 86.003 176.059 85.8036 175.86C85.6042 175.66 85.4922 175.389 85.4922 175.107C85.4922 174.825 85.6042 174.554 85.8036 174.355C86.003 174.155 86.2734 174.043 86.5553 174.043Z" fill="#1D1D2C"/>
<path d="M86.5553 174.043H126.456C126.738 174.043 127.008 174.155 127.207 174.355C127.407 174.554 127.519 174.825 127.519 175.107C127.519 175.389 127.407 175.66 127.207 175.86C127.008 176.059 126.738 176.171 126.456 176.171H86.5553C86.2734 176.171 86.003 176.059 85.8036 175.86C85.6042 175.66 85.4922 175.389 85.4922 175.107C85.4922 174.825 85.6042 174.554 85.8036 174.355C86.003 174.155 86.2734 174.043 86.5553 174.043Z" fill="white"/>
<path d="M86.5553 169.955H131.208C131.49 169.955 131.76 170.067 131.96 170.267C132.159 170.466 132.271 170.737 132.271 171.019C132.271 171.302 132.159 171.572 131.96 171.772C131.76 171.971 131.49 172.083 131.208 172.083H86.5553C86.2734 172.083 86.003 171.971 85.8036 171.772C85.6042 171.572 85.4922 171.302 85.4922 171.019C85.4922 170.737 85.6042 170.466 85.8036 170.267C86.003 170.067 86.2734 169.955 86.5553 169.955Z" fill="#1D1D2C"/>
<path d="M86.5553 169.955H120.406C120.688 169.955 120.959 170.067 121.158 170.267C121.357 170.466 121.469 170.737 121.469 171.019C121.469 171.302 121.357 171.572 121.158 171.772C120.959 171.971 120.688 172.083 120.406 172.083H86.5553C86.2734 172.083 86.003 171.971 85.8036 171.772C85.6042 171.572 85.4922 171.302 85.4922 171.019C85.4922 170.737 85.6042 170.466 85.8036 170.267C86.003 170.067 86.2734 169.955 86.5553 169.955Z" fill="white"/>
<path d="M149.526 171.498C149.882 171.498 150.229 171.604 150.524 171.801C150.82 171.999 151.05 172.28 151.186 172.608C151.322 172.937 151.358 173.299 151.288 173.647C151.219 173.996 151.048 174.317 150.797 174.568C150.545 174.82 150.225 174.991 149.877 175.06C149.528 175.13 149.167 175.094 148.839 174.958C148.51 174.822 148.23 174.591 148.032 174.296C147.835 174 147.729 173.652 147.729 173.297C147.729 172.82 147.919 172.362 148.256 172.025C148.593 171.688 149.05 171.498 149.526 171.498Z" fill="white"/>
<path d="M147.453 173.308C147.453 173.729 147.578 174.141 147.811 174.491C148.045 174.841 148.377 175.113 148.766 175.274C149.154 175.436 149.582 175.478 149.994 175.396C150.407 175.313 150.786 175.111 151.083 174.813C151.38 174.515 151.583 174.136 151.665 173.723C151.747 173.31 151.705 172.882 151.544 172.494C151.383 172.105 151.11 171.772 150.761 171.538C150.411 171.305 150 171.18 149.579 171.18C149.016 171.18 148.475 171.404 148.076 171.803C147.677 172.202 147.453 172.744 147.453 173.308ZM148.059 173.308C148.059 173.011 148.147 172.721 148.312 172.474C148.476 172.228 148.711 172.035 148.985 171.922C149.258 171.808 149.56 171.778 149.851 171.836C150.141 171.894 150.409 172.037 150.618 172.247C150.828 172.457 150.971 172.724 151.028 173.015C151.086 173.306 151.057 173.608 150.943 173.882C150.83 174.156 150.638 174.391 150.391 174.556C150.144 174.721 149.855 174.809 149.558 174.809C149.161 174.809 148.779 174.65 148.498 174.369C148.217 174.088 148.059 173.706 148.059 173.308Z" fill="#414267"/>
<path d="M143.084 171.498C143.439 171.498 143.787 171.604 144.082 171.801C144.378 171.999 144.608 172.28 144.744 172.608C144.88 172.937 144.915 173.299 144.846 173.647C144.777 173.996 144.606 174.317 144.354 174.568C144.103 174.82 143.783 174.991 143.434 175.06C143.086 175.13 142.725 175.094 142.396 174.958C142.068 174.822 141.787 174.591 141.59 174.296C141.392 174 141.287 173.652 141.287 173.297C141.287 172.82 141.476 172.362 141.813 172.025C142.15 171.688 142.607 171.498 143.084 171.498Z" fill="#1D1D2C"/>
<path d="M141.021 173.308C141.021 173.729 141.146 174.141 141.38 174.491C141.613 174.841 141.946 175.113 142.334 175.274C142.723 175.436 143.15 175.478 143.563 175.396C143.975 175.313 144.354 175.111 144.651 174.813C144.949 174.515 145.151 174.136 145.233 173.723C145.315 173.31 145.273 172.882 145.112 172.494C144.951 172.105 144.679 171.772 144.329 171.538C143.979 171.305 143.568 171.18 143.148 171.18C142.584 171.18 142.043 171.404 141.644 171.803C141.246 172.202 141.021 172.744 141.021 173.308ZM141.627 173.308C141.627 173.011 141.715 172.721 141.88 172.474C142.045 172.228 142.279 172.035 142.553 171.922C142.827 171.808 143.128 171.778 143.419 171.836C143.71 171.894 143.977 172.037 144.187 172.247C144.396 172.457 144.539 172.724 144.597 173.015C144.655 173.306 144.625 173.608 144.511 173.882C144.398 174.156 144.206 174.391 143.959 174.556C143.713 174.721 143.423 174.809 143.127 174.809C142.926 174.814 142.727 174.78 142.54 174.707C142.353 174.634 142.183 174.524 142.039 174.384C141.895 174.245 141.781 174.077 141.703 173.892C141.625 173.707 141.585 173.509 141.585 173.308H141.627Z" fill="#414267"/>
<path d="M141.287 172.701H137.491V173.914H141.287V172.701Z" fill="#414267"/>
<path d="M86.5553 187.973H131.208C131.49 187.973 131.76 188.085 131.96 188.284C132.159 188.484 132.271 188.755 132.271 189.037C132.271 189.319 132.159 189.59 131.96 189.789C131.76 189.989 131.49 190.101 131.208 190.101H86.5553C86.2734 190.101 86.003 189.989 85.8036 189.789C85.6042 189.59 85.4922 189.319 85.4922 189.037C85.4922 188.755 85.6042 188.484 85.8036 188.284C86.003 188.085 86.2734 187.973 86.5553 187.973Z" fill="#1D1D2C"/>
<path d="M86.5553 187.973H126.456C126.738 187.973 127.008 188.085 127.207 188.284C127.407 188.484 127.519 188.755 127.519 189.037C127.519 189.319 127.407 189.59 127.207 189.789C127.008 189.989 126.738 190.101 126.456 190.101H86.5553C86.2734 190.101 86.003 189.989 85.8036 189.789C85.6042 189.59 85.4922 189.319 85.4922 189.037C85.4922 188.755 85.6042 188.484 85.8036 188.284C86.003 188.085 86.2734 187.973 86.5553 187.973Z" fill="white"/>
<path d="M86.5553 183.885H131.208C131.49 183.885 131.76 183.997 131.96 184.196C132.159 184.396 132.271 184.667 132.271 184.949C132.271 185.231 132.159 185.502 131.96 185.701C131.76 185.901 131.49 186.013 131.208 186.013H86.5553C86.2734 186.013 86.003 185.901 85.8036 185.701C85.6042 185.502 85.4922 185.231 85.4922 184.949C85.4922 184.667 85.6042 184.396 85.8036 184.196C86.003 183.997 86.2734 183.885 86.5553 183.885Z" fill="#1D1D2C"/>
<path d="M86.5553 183.885H120.406C120.688 183.885 120.959 183.997 121.158 184.196C121.357 184.396 121.469 184.667 121.469 184.949C121.469 185.231 121.357 185.502 121.158 185.701C120.959 185.901 120.688 186.013 120.406 186.013H86.5553C86.2734 186.013 86.003 185.901 85.8036 185.701C85.6042 185.502 85.4922 185.231 85.4922 184.949C85.4922 184.667 85.6042 184.396 85.8036 184.196C86.003 183.997 86.2734 183.885 86.5553 183.885Z" fill="white"/>
<path d="M149.526 185.439C149.882 185.439 150.229 185.545 150.524 185.743C150.82 185.94 151.05 186.221 151.186 186.55C151.322 186.878 151.358 187.24 151.288 187.589C151.219 187.938 151.048 188.258 150.797 188.51C150.545 188.761 150.225 188.932 149.877 189.002C149.528 189.071 149.167 189.036 148.839 188.899C148.51 188.763 148.23 188.533 148.032 188.237C147.835 187.941 147.729 187.594 147.729 187.238C147.729 186.761 147.919 186.303 148.256 185.966C148.593 185.629 149.05 185.439 149.526 185.439Z" fill="white"/>
<path d="M147.453 187.238C147.453 187.659 147.578 188.07 147.811 188.42C148.045 188.77 148.377 189.043 148.766 189.204C149.154 189.365 149.582 189.407 149.994 189.325C150.407 189.243 150.786 189.04 151.083 188.743C151.38 188.445 151.583 188.066 151.665 187.653C151.747 187.24 151.705 186.812 151.544 186.423C151.383 186.034 151.11 185.702 150.761 185.468C150.411 185.234 150 185.109 149.579 185.109C149.016 185.109 148.475 185.334 148.076 185.733C147.677 186.132 147.453 186.673 147.453 187.238ZM148.059 187.238C148.059 186.94 148.148 186.648 148.314 186.401C148.48 186.153 148.716 185.961 148.992 185.849C149.268 185.736 149.571 185.708 149.863 185.769C150.154 185.829 150.421 185.975 150.63 186.189C150.838 186.402 150.978 186.672 151.032 186.965C151.086 187.258 151.052 187.561 150.934 187.834C150.815 188.108 150.618 188.34 150.368 188.501C150.117 188.662 149.824 188.745 149.526 188.738C149.134 188.73 148.761 188.568 148.487 188.288C148.213 188.007 148.059 187.63 148.059 187.238Z" fill="#414267"/>
<path d="M143.084 185.439C143.439 185.439 143.787 185.545 144.082 185.743C144.378 185.94 144.608 186.221 144.744 186.55C144.88 186.878 144.915 187.24 144.846 187.589C144.777 187.938 144.606 188.258 144.354 188.51C144.103 188.761 143.783 188.932 143.434 189.002C143.086 189.071 142.725 189.036 142.396 188.899C142.068 188.763 141.787 188.533 141.59 188.237C141.392 187.941 141.287 187.594 141.287 187.238C141.287 186.761 141.476 186.303 141.813 185.966C142.15 185.629 142.607 185.439 143.084 185.439Z" fill="#1D1D2C"/>
<path d="M141.021 187.238C141.021 187.659 141.146 188.07 141.38 188.42C141.613 188.77 141.946 189.043 142.334 189.204C142.723 189.365 143.15 189.407 143.563 189.325C143.975 189.243 144.354 189.04 144.651 188.743C144.949 188.445 145.151 188.066 145.233 187.653C145.315 187.24 145.273 186.812 145.112 186.423C144.951 186.034 144.679 185.702 144.329 185.468C143.979 185.234 143.568 185.109 143.148 185.109C142.584 185.109 142.043 185.334 141.644 185.733C141.246 186.132 141.021 186.673 141.021 187.238ZM141.627 187.238C141.627 186.941 141.715 186.651 141.88 186.404C142.045 186.157 142.279 185.965 142.553 185.851C142.827 185.738 143.128 185.708 143.419 185.766C143.71 185.824 143.977 185.967 144.187 186.177C144.396 186.387 144.539 186.654 144.597 186.945C144.655 187.236 144.625 187.538 144.511 187.812C144.398 188.086 144.206 188.32 143.959 188.485C143.713 188.65 143.423 188.738 143.127 188.738C142.926 188.744 142.727 188.709 142.54 188.636C142.353 188.564 142.183 188.454 142.039 188.314C141.895 188.174 141.781 188.007 141.703 187.822C141.625 187.637 141.585 187.438 141.585 187.238H141.627Z" fill="#414267"/>
<path d="M141.288 186.631H137.492V187.844H141.288V186.631Z" fill="#414267"/>
<path d="M86.5553 201.893H131.208C131.49 201.893 131.76 202.005 131.96 202.204C132.159 202.404 132.271 202.675 132.271 202.957C132.271 203.239 132.159 203.51 131.96 203.709C131.76 203.909 131.49 204.021 131.208 204.021H86.5553C86.2734 204.021 86.003 203.909 85.8036 203.709C85.6042 203.51 85.4922 203.239 85.4922 202.957C85.4922 202.675 85.6042 202.404 85.8036 202.204C86.003 202.005 86.2734 201.893 86.5553 201.893Z" fill="#1D1D2C"/>
<path d="M86.5553 201.893H126.456C126.738 201.893 127.008 202.005 127.207 202.204C127.407 202.404 127.519 202.675 127.519 202.957C127.519 203.239 127.407 203.51 127.207 203.709C127.008 203.909 126.738 204.021 126.456 204.021H86.5553C86.2734 204.021 86.003 203.909 85.8036 203.709C85.6042 203.51 85.4922 203.239 85.4922 202.957C85.4922 202.675 85.6042 202.404 85.8036 202.204C86.003 202.005 86.2734 201.893 86.5553 201.893Z" fill="white"/>
<path d="M86.5553 197.805H131.208C131.49 197.805 131.76 197.917 131.96 198.116C132.159 198.316 132.271 198.587 132.271 198.869C132.271 199.151 132.159 199.422 131.96 199.621C131.76 199.821 131.49 199.933 131.208 199.933H86.5553C86.2734 199.933 86.003 199.821 85.8036 199.621C85.6042 199.422 85.4922 199.151 85.4922 198.869C85.4922 198.587 85.6042 198.316 85.8036 198.116C86.003 197.917 86.2734 197.805 86.5553 197.805Z" fill="#1D1D2C"/>
<path d="M86.5553 197.805H120.406C120.688 197.805 120.959 197.917 121.158 198.116C121.357 198.316 121.469 198.587 121.469 198.869C121.469 199.151 121.357 199.422 121.158 199.621C120.959 199.821 120.688 199.933 120.406 199.933H86.5553C86.2734 199.933 86.003 199.821 85.8036 199.621C85.6042 199.422 85.4922 199.151 85.4922 198.869C85.4922 198.587 85.6042 198.316 85.8036 198.116C86.003 197.917 86.2734 197.805 86.5553 197.805Z" fill="white"/>
<path d="M149.526 199.369C149.882 199.369 150.229 199.475 150.524 199.672C150.82 199.87 151.05 200.151 151.186 200.479C151.322 200.808 151.358 201.17 151.288 201.518C151.219 201.867 151.048 202.188 150.797 202.439C150.545 202.691 150.225 202.862 149.877 202.932C149.528 203.001 149.167 202.965 148.839 202.829C148.51 202.693 148.23 202.463 148.032 202.167C147.835 201.871 147.729 201.523 147.729 201.168C147.729 200.691 147.919 200.233 148.256 199.896C148.593 199.559 149.05 199.369 149.526 199.369Z" fill="white"/>
<path d="M147.453 201.167C147.453 201.588 147.578 202 147.811 202.35C148.045 202.7 148.377 202.973 148.766 203.134C149.154 203.295 149.582 203.337 149.994 203.255C150.407 203.173 150.786 202.97 151.083 202.672C151.38 202.375 151.583 201.996 151.665 201.583C151.747 201.17 151.705 200.742 151.544 200.353C151.383 199.964 151.11 199.632 150.761 199.398C150.411 199.164 150 199.039 149.579 199.039C149.016 199.039 148.475 199.263 148.076 199.662C147.677 200.062 147.453 200.603 147.453 201.167ZM148.059 201.167C148.057 200.87 148.143 200.579 148.307 200.331C148.47 200.083 148.703 199.889 148.977 199.774C149.251 199.658 149.553 199.627 149.844 199.684C150.136 199.741 150.404 199.883 150.614 200.092C150.825 200.301 150.969 200.569 151.028 200.86C151.086 201.151 151.057 201.454 150.944 201.729C150.831 202.003 150.639 202.238 150.392 202.404C150.145 202.569 149.855 202.657 149.558 202.657C149.162 202.657 148.783 202.501 148.502 202.222C148.221 201.942 148.062 201.564 148.059 201.167Z" fill="#414267"/>
<path d="M143.084 199.369C143.439 199.369 143.787 199.475 144.082 199.672C144.378 199.87 144.608 200.151 144.744 200.479C144.88 200.808 144.915 201.17 144.846 201.518C144.777 201.867 144.606 202.188 144.354 202.439C144.103 202.691 143.783 202.862 143.434 202.932C143.086 203.001 142.725 202.965 142.396 202.829C142.068 202.693 141.787 202.463 141.59 202.167C141.392 201.871 141.287 201.523 141.287 201.168C141.287 200.691 141.476 200.233 141.813 199.896C142.15 199.559 142.607 199.369 143.084 199.369Z" fill="#1D1D2C"/>
<path d="M141.021 201.167C141.021 201.588 141.146 202 141.38 202.35C141.613 202.7 141.946 202.973 142.334 203.134C142.723 203.295 143.15 203.337 143.563 203.255C143.975 203.173 144.354 202.97 144.651 202.672C144.949 202.375 145.151 201.996 145.233 201.583C145.315 201.17 145.273 200.742 145.112 200.353C144.951 199.964 144.679 199.632 144.329 199.398C143.979 199.164 143.568 199.039 143.148 199.039C142.584 199.039 142.043 199.263 141.644 199.662C141.246 200.062 141.021 200.603 141.021 201.167ZM141.627 201.167C141.625 200.87 141.712 200.579 141.875 200.331C142.038 200.083 142.272 199.889 142.545 199.774C142.819 199.658 143.121 199.627 143.412 199.684C143.704 199.741 143.972 199.883 144.183 200.092C144.393 200.301 144.537 200.569 144.596 200.86C144.655 201.151 144.626 201.454 144.512 201.729C144.399 202.003 144.207 202.238 143.96 202.404C143.714 202.569 143.423 202.657 143.127 202.657C142.927 202.663 142.728 202.629 142.542 202.556C142.356 202.484 142.186 202.376 142.043 202.237C141.899 202.098 141.785 201.932 141.706 201.748C141.627 201.565 141.586 201.367 141.585 201.167H141.627Z" fill="#414267"/>
<path d="M141.288 200.561H137.492V201.774H141.288V200.561Z" fill="#414267"/>
<path d="M86.5553 215.822H131.208C131.49 215.822 131.76 215.934 131.96 216.134C132.159 216.334 132.271 216.604 132.271 216.886C132.271 217.169 132.159 217.439 131.96 217.639C131.76 217.839 131.49 217.951 131.208 217.951H86.5553C86.2734 217.951 86.003 217.839 85.8036 217.639C85.6042 217.439 85.4922 217.169 85.4922 216.886C85.4922 216.604 85.6042 216.334 85.8036 216.134C86.003 215.934 86.2734 215.822 86.5553 215.822Z" fill="#1D1D2C"/>
<path d="M86.5553 215.822H126.456C126.738 215.822 127.008 215.934 127.207 216.134C127.407 216.334 127.519 216.604 127.519 216.886C127.519 217.169 127.407 217.439 127.207 217.639C127.008 217.839 126.738 217.951 126.456 217.951H86.5553C86.2734 217.951 86.003 217.839 85.8036 217.639C85.6042 217.439 85.4922 217.169 85.4922 216.886C85.4922 216.604 85.6042 216.334 85.8036 216.134C86.003 215.934 86.2734 215.822 86.5553 215.822Z" fill="white"/>
<path d="M86.5553 211.736H131.208C131.49 211.736 131.76 211.848 131.96 212.048C132.159 212.248 132.271 212.518 132.271 212.801C132.271 213.083 132.159 213.353 131.96 213.553C131.76 213.753 131.49 213.865 131.208 213.865H86.5553C86.2734 213.865 86.003 213.753 85.8036 213.553C85.6042 213.353 85.4922 213.083 85.4922 212.801C85.4922 212.518 85.6042 212.248 85.8036 212.048C86.003 211.848 86.2734 211.736 86.5553 211.736Z" fill="#1D1D2C"/>
<path d="M86.5553 211.736H120.406C120.688 211.736 120.959 211.848 121.158 212.048C121.357 212.248 121.469 212.518 121.469 212.801C121.469 213.083 121.357 213.353 121.158 213.553C120.959 213.753 120.688 213.865 120.406 213.865H86.5553C86.2734 213.865 86.003 213.753 85.8036 213.553C85.6042 213.353 85.4922 213.083 85.4922 212.801C85.4922 212.518 85.6042 212.248 85.8036 212.048C86.003 211.848 86.2734 211.736 86.5553 211.736Z" fill="white"/>
<path d="M149.526 213.289C149.882 213.289 150.229 213.395 150.524 213.592C150.82 213.79 151.05 214.071 151.186 214.399C151.322 214.728 151.358 215.09 151.288 215.438C151.219 215.787 151.048 216.108 150.797 216.359C150.545 216.611 150.225 216.782 149.877 216.851C149.528 216.921 149.167 216.885 148.839 216.749C148.51 216.613 148.23 216.382 148.032 216.087C147.835 215.791 147.729 215.443 147.729 215.088C147.729 214.611 147.919 214.153 148.256 213.816C148.593 213.479 149.05 213.289 149.526 213.289Z" fill="white"/>
<path d="M147.453 215.13C147.453 215.551 147.578 215.963 147.811 216.313C148.045 216.663 148.377 216.936 148.766 217.097C149.154 217.258 149.582 217.3 149.994 217.218C150.407 217.136 150.786 216.933 151.083 216.635C151.38 216.338 151.583 215.958 151.665 215.546C151.747 215.133 151.705 214.705 151.544 214.316C151.383 213.927 151.11 213.595 150.761 213.361C150.411 213.127 150 213.002 149.579 213.002C149.016 213.002 148.475 213.226 148.076 213.625C147.677 214.024 147.453 214.566 147.453 215.13ZM148.059 215.13C148.059 214.834 148.147 214.543 148.312 214.297C148.476 214.05 148.711 213.858 148.985 213.744C149.258 213.63 149.56 213.601 149.851 213.659C150.141 213.717 150.409 213.859 150.618 214.069C150.828 214.279 150.971 214.547 151.028 214.838C151.086 215.129 151.057 215.43 150.943 215.705C150.83 215.979 150.638 216.213 150.391 216.378C150.144 216.543 149.855 216.631 149.558 216.631C149.161 216.631 148.779 216.473 148.498 216.191C148.217 215.91 148.059 215.528 148.059 215.13Z" fill="#414267"/>
<path d="M143.084 213.289C143.439 213.289 143.787 213.395 144.082 213.592C144.378 213.79 144.608 214.071 144.744 214.399C144.88 214.728 144.915 215.09 144.846 215.438C144.777 215.787 144.606 216.108 144.354 216.359C144.103 216.611 143.783 216.782 143.434 216.851C143.086 216.921 142.725 216.885 142.396 216.749C142.068 216.613 141.787 216.382 141.59 216.087C141.392 215.791 141.287 215.443 141.287 215.088C141.287 214.611 141.476 214.153 141.813 213.816C142.15 213.479 142.607 213.289 143.084 213.289Z" fill="#1D1D2C"/>
<path d="M141.021 215.13C141.021 215.551 141.146 215.963 141.38 216.313C141.613 216.663 141.946 216.936 142.334 217.097C142.723 217.258 143.15 217.3 143.563 217.218C143.975 217.136 144.354 216.933 144.651 216.635C144.949 216.338 145.151 215.958 145.233 215.546C145.315 215.133 145.273 214.705 145.112 214.316C144.951 213.927 144.679 213.595 144.329 213.361C143.979 213.127 143.568 213.002 143.148 213.002C142.584 213.002 142.043 213.226 141.644 213.625C141.246 214.024 141.021 214.566 141.021 215.13ZM141.627 215.13C141.627 214.834 141.715 214.543 141.88 214.297C142.045 214.05 142.279 213.858 142.553 213.744C142.827 213.63 143.128 213.601 143.419 213.659C143.71 213.717 143.977 213.859 144.187 214.069C144.396 214.279 144.539 214.547 144.597 214.838C144.655 215.129 144.625 215.43 144.511 215.705C144.398 215.979 144.206 216.213 143.959 216.378C143.713 216.543 143.423 216.631 143.127 216.631C142.926 216.637 142.727 216.602 142.54 216.529C142.353 216.456 142.183 216.347 142.039 216.207C141.895 216.067 141.781 215.899 141.703 215.715C141.625 215.53 141.585 215.331 141.585 215.13H141.627Z" fill="#414267"/>
<path d="M141.288 214.48H137.492V215.694H141.288V214.48Z" fill="#414267"/>
<path d="M86.5553 229.752H131.208C131.49 229.752 131.76 229.864 131.96 230.064C132.159 230.263 132.271 230.534 132.271 230.816C132.271 231.098 132.159 231.369 131.96 231.569C131.76 231.768 131.49 231.88 131.208 231.88H86.5553C86.2734 231.88 86.003 231.768 85.8036 231.569C85.6042 231.369 85.4922 231.098 85.4922 230.816C85.4922 230.534 85.6042 230.263 85.8036 230.064C86.003 229.864 86.2734 229.752 86.5553 229.752Z" fill="#1D1D2C"/>
<path d="M86.5553 229.752H126.456C126.738 229.752 127.008 229.864 127.207 230.064C127.407 230.263 127.519 230.534 127.519 230.816C127.519 231.098 127.407 231.369 127.207 231.569C127.008 231.768 126.738 231.88 126.456 231.88H86.5553C86.2734 231.88 86.003 231.768 85.8036 231.569C85.6042 231.369 85.4922 231.098 85.4922 230.816C85.4922 230.534 85.6042 230.263 85.8036 230.064C86.003 229.864 86.2734 229.752 86.5553 229.752Z" fill="white"/>
<path d="M86.5553 225.666H131.208C131.49 225.666 131.76 225.778 131.96 225.978C132.159 226.177 132.271 226.448 132.271 226.73C132.271 227.012 132.159 227.283 131.96 227.483C131.76 227.682 131.49 227.794 131.208 227.794H86.5553C86.2734 227.794 86.003 227.682 85.8036 227.483C85.6042 227.283 85.4922 227.012 85.4922 226.73C85.4922 226.448 85.6042 226.177 85.8036 225.978C86.003 225.778 86.2734 225.666 86.5553 225.666Z" fill="#1D1D2C"/>
<path d="M86.5553 225.666H120.406C120.688 225.666 120.959 225.778 121.158 225.978C121.357 226.177 121.469 226.448 121.469 226.73C121.469 227.012 121.357 227.283 121.158 227.483C120.959 227.682 120.688 227.794 120.406 227.794H86.5553C86.2734 227.794 86.003 227.682 85.8036 227.483C85.6042 227.283 85.4922 227.012 85.4922 226.73C85.4922 226.448 85.6042 226.177 85.8036 225.978C86.003 225.778 86.2734 225.666 86.5553 225.666Z" fill="white"/>
<path d="M149.526 227.219C149.882 227.219 150.229 227.324 150.524 227.522C150.82 227.719 151.05 228 151.186 228.329C151.322 228.658 151.358 229.019 151.288 229.368C151.219 229.717 151.048 230.037 150.797 230.289C150.545 230.54 150.225 230.712 149.877 230.781C149.528 230.851 149.167 230.815 148.839 230.679C148.51 230.543 148.23 230.312 148.032 230.016C147.835 229.721 147.729 229.373 147.729 229.017C147.729 228.54 147.919 228.083 148.256 227.746C148.593 227.408 149.05 227.219 149.526 227.219Z" fill="white"/>
<path d="M147.453 229.017C147.453 229.438 147.578 229.849 147.811 230.2C148.045 230.55 148.377 230.822 148.766 230.983C149.154 231.144 149.582 231.187 149.994 231.105C150.407 231.022 150.786 230.82 151.083 230.522C151.38 230.224 151.583 229.845 151.665 229.432C151.747 229.019 151.705 228.591 151.544 228.203C151.383 227.814 151.11 227.481 150.761 227.247C150.411 227.013 150 226.889 149.579 226.889C149.016 226.889 148.475 227.113 148.076 227.512C147.677 227.911 147.453 228.453 147.453 229.017ZM148.059 229.017C148.059 228.72 148.147 228.43 148.312 228.183C148.476 227.937 148.711 227.744 148.985 227.631C149.258 227.517 149.56 227.487 149.851 227.545C150.141 227.603 150.409 227.746 150.618 227.956C150.828 228.166 150.971 228.433 151.028 228.724C151.086 229.015 151.057 229.317 150.943 229.591C150.83 229.865 150.638 230.1 150.391 230.265C150.144 230.43 149.855 230.518 149.558 230.518C149.161 230.518 148.779 230.359 148.498 230.078C148.217 229.797 148.059 229.415 148.059 229.017Z" fill="#414267"/>
<path d="M143.084 227.219C143.439 227.219 143.787 227.324 144.082 227.522C144.378 227.719 144.608 228 144.744 228.329C144.88 228.658 144.915 229.019 144.846 229.368C144.777 229.717 144.606 230.037 144.354 230.289C144.103 230.54 143.783 230.712 143.434 230.781C143.086 230.851 142.725 230.815 142.396 230.679C142.068 230.543 141.787 230.312 141.59 230.016C141.392 229.721 141.287 229.373 141.287 229.017C141.287 228.54 141.476 228.083 141.813 227.746C142.15 227.408 142.607 227.219 143.084 227.219Z" fill="#1D1D2C"/>
<path d="M141.021 229.017C141.021 229.438 141.146 229.849 141.38 230.2C141.613 230.55 141.946 230.822 142.334 230.983C142.723 231.144 143.15 231.187 143.563 231.105C143.975 231.022 144.354 230.82 144.651 230.522C144.949 230.224 145.151 229.845 145.233 229.432C145.315 229.019 145.273 228.591 145.112 228.203C144.951 227.814 144.679 227.481 144.329 227.247C143.979 227.013 143.568 226.889 143.148 226.889C142.584 226.889 142.043 227.113 141.644 227.512C141.246 227.911 141.021 228.453 141.021 229.017ZM141.627 229.017C141.627 228.72 141.715 228.43 141.88 228.183C142.045 227.937 142.279 227.744 142.553 227.631C142.827 227.517 143.128 227.487 143.419 227.545C143.71 227.603 143.977 227.746 144.187 227.956C144.396 228.166 144.539 228.433 144.597 228.724C144.655 229.015 144.625 229.317 144.511 229.591C144.398 229.865 144.206 230.1 143.959 230.265C143.713 230.43 143.423 230.518 143.127 230.518C142.926 230.523 142.727 230.489 142.54 230.416C142.353 230.343 142.183 230.233 142.039 230.093C141.895 229.953 141.781 229.786 141.703 229.601C141.625 229.416 141.585 229.218 141.585 229.017H141.627Z" fill="#414267"/>
<path d="M141.288 228.412H137.492V229.625H141.288V228.412Z" fill="#414267"/>
<path d="M9.04067 130.134C8.285 130.134 7.56028 129.833 7.02594 129.298C6.4916 128.763 6.19141 128.038 6.19141 127.282V32.5052C6.19421 31.5267 6.58379 30.5891 7.27504 29.8972C7.96628 29.2053 8.903 28.8153 9.88057 28.8125H126.413C127.391 28.8153 128.328 29.2053 129.019 29.8972C129.71 30.5891 130.1 31.5267 130.103 32.5052V127.282C130.103 128.038 129.802 128.763 129.268 129.298C128.734 129.833 128.009 130.134 127.253 130.134H9.04067Z" fill="white"/>
<path d="M126.413 29.0042C126.874 29.0028 127.33 29.0923 127.755 29.2677C128.181 29.443 128.568 29.7006 128.894 30.0259C129.219 30.3512 129.478 30.7376 129.655 31.1631C129.831 31.5885 129.922 32.0447 129.922 32.5054V127.282C129.919 127.988 129.637 128.665 129.136 129.164C128.636 129.662 127.959 129.942 127.253 129.942H9.04063C8.33473 129.942 7.65759 129.662 7.15745 129.164C6.65731 128.665 6.37492 127.988 6.37211 127.282V32.5054C6.3721 32.0447 6.46293 31.5885 6.63937 31.1631C6.81582 30.7376 7.07441 30.3512 7.40034 30.0259C7.72627 29.7006 8.11312 29.443 8.53872 29.2677C8.96432 29.0923 9.4203 29.0028 9.88053 29.0042H126.413ZM126.413 28.6211H9.88053C8.85221 28.6239 7.86681 29.034 7.13968 29.7619C6.41255 30.4897 6.00281 31.4761 6 32.5054V127.282C6.0028 128.088 6.32405 128.861 6.89368 129.431C7.4633 130.001 8.23507 130.322 9.04063 130.325H127.253C128.059 130.322 128.831 130.001 129.4 129.431C129.97 128.861 130.291 128.088 130.294 127.282V32.5054C130.291 31.4761 129.881 30.4897 129.154 29.7619C128.427 29.034 127.442 28.6239 126.413 28.6211Z" fill="#1D1D2C"/>
<path d="M130.294 41.9979H6V32.5054C6 31.4752 6.40884 30.4872 7.13658 29.7588C7.86432 29.0303 8.85135 28.6211 9.88053 28.6211H126.413C127.442 28.6239 128.427 29.034 129.154 29.7619C129.881 30.4897 130.291 31.4761 130.294 32.5054V41.9979Z" fill="#1D1D2C"/>
<path d="M27.3807 35.2837C27.3954 34.8791 27.5293 34.488 27.7654 34.1594C28.0015 33.8308 28.3293 33.5793 28.7078 33.4366C29.0862 33.2939 29.4983 33.2663 29.8924 33.3572C30.2864 33.4482 30.6448 33.6537 30.9226 33.9479C31.2003 34.2421 31.385 34.6119 31.4535 35.0108C31.522 35.4098 31.4711 35.8201 31.3074 36.1902C31.1437 36.5603 30.8743 36.8737 30.5332 37.0911C30.1921 37.3085 29.7944 37.4201 29.3901 37.412C29.1174 37.408 28.8483 37.3493 28.5986 37.2395C28.349 37.1296 28.1239 36.9708 27.9366 36.7724C27.7492 36.574 27.6036 36.34 27.5081 36.0843C27.4126 35.8286 27.3693 35.5564 27.3807 35.2837Z" fill="#414267"/>
<path d="M19.4803 35.2821C19.4949 34.8794 19.6275 34.4899 19.8617 34.1621C20.0958 33.8342 20.4212 33.5826 20.7972 33.4385C21.1731 33.2944 21.5832 33.2642 21.9762 33.3517C22.3692 33.4392 22.7278 33.6404 23.0074 33.9304C23.2869 34.2204 23.4751 34.5863 23.5484 34.9825C23.6217 35.3788 23.577 35.7879 23.4197 36.1588C23.2625 36.5298 22.9997 36.8463 22.664 37.0689C22.3284 37.2914 21.9348 37.4102 21.5322 37.4105C21.2559 37.4122 20.9822 37.3577 20.7276 37.2504C20.473 37.1431 20.2428 36.9851 20.0509 36.7861C19.8591 36.5871 19.7096 36.3512 19.6115 36.0927C19.5134 35.8342 19.4688 35.5584 19.4803 35.2821Z" fill="#BAE1FD"/>
<path d="M13.6337 37.1776C13.2646 37.1776 12.9037 37.0682 12.5964 36.8633C12.2892 36.6585 12.0494 36.3672 11.9071 36.0262C11.7649 35.6852 11.7266 35.3097 11.7971 34.947C11.8676 34.5842 12.0437 34.2505 12.3033 33.9877C12.5629 33.725 12.8943 33.5449 13.2558 33.4703C13.6174 33.3956 13.9929 33.4297 14.3352 33.5682C14.6774 33.7067 14.9711 33.9434 15.1793 34.2486C15.3874 34.5538 15.5007 34.9138 15.5049 35.2833C15.5091 35.5315 15.4638 35.7779 15.3716 36.0083C15.2793 36.2386 15.142 36.4482 14.9676 36.6247C14.7933 36.8012 14.5855 36.941 14.3565 37.0359C14.1274 37.1309 13.8817 37.179 13.6337 37.1776Z" fill="white"/>
<path d="M13.6337 33.6342C13.9673 33.6343 14.2933 33.7337 14.5702 33.9199C14.847 34.1062 15.0623 34.3707 15.1884 34.6798C15.3146 34.9889 15.3459 35.3286 15.2785 35.6556C15.211 35.9826 15.0479 36.2821 14.8097 36.5159C14.5716 36.7497 14.2693 36.9073 13.9414 36.9685C13.6135 37.0298 13.2748 36.9919 12.9684 36.8597C12.6621 36.7275 12.402 36.5071 12.2213 36.2264C12.0407 35.9457 11.9476 35.6175 11.9539 35.2837C11.9539 34.8378 12.1309 34.4101 12.4459 34.0948C12.7609 33.7794 13.1882 33.6023 13.6337 33.6023V33.6342ZM13.6337 33.2617C13.2265 33.2618 12.8286 33.3831 12.4905 33.6102C12.1524 33.8374 11.8894 34.16 11.7351 34.5372C11.5808 34.9144 11.5421 35.3289 11.6239 35.7282C11.7056 36.1275 11.9043 36.4933 12.1944 36.7793C12.4846 37.0652 12.8532 37.2582 13.2533 37.3339C13.6534 37.4095 14.0669 37.3642 14.4413 37.2038C14.8156 37.0435 15.1338 36.7753 15.3554 36.4333C15.577 36.0914 15.6919 35.6912 15.6856 35.2837C15.68 34.7436 15.461 34.2278 15.0765 33.8489C14.692 33.47 14.1732 33.2589 13.6337 33.2617Z" fill="#1D1D2C"/>
<path d="M120.778 36.7194L122.224 35.2615L120.778 33.8142L121.523 33.0586L122.979 34.5059L124.425 33.0586L125.18 33.8142L123.723 35.2615L125.18 36.7194L124.425 37.4643L122.979 36.017L121.523 37.4643L120.778 36.7194Z" fill="white"/>
<path d="M121.523 33.3257L122.714 34.507L122.979 34.773L123.245 34.507L124.425 33.3257L124.914 33.8153L123.734 34.9965L123.468 35.2626L123.734 35.5286L124.914 36.7205L124.425 37.1994L123.245 36.0181L122.979 35.7521L122.714 36.0181L121.523 37.1994L121.044 36.7205L122.224 35.5286L122.49 35.2626L122.224 34.9965L121.044 33.8153L121.523 33.3257ZM124.425 32.7936L122.947 34.2197L121.491 32.7617L120.428 33.8259L121.959 35.2838L120.513 36.7418L121.576 37.7527L122.947 36.2842L124.393 37.7315L125.456 36.7205L124.011 35.2838L125.467 33.8365L124.404 32.7724L124.425 32.7936Z" fill="#1D1D2C"/>
<path d="M88.8305 91.2796H93.402L83.2595 103.209L73.1063 91.2796H77.6779V82.1063H65.3984V74.4654H69.97L59.8168 62.5359L49.6743 74.4654H54.2459V82.1063H23.999C24.2754 73.4119 31.9408 64.7601 42.3173 70.2193C42.1471 57.63 49.8338 47.7012 61.4435 47.7012C68.8856 47.7012 79.3471 52.7561 80.8887 61.376C81.0599 61.3262 81.2143 61.2305 81.3352 61.0993C84.0778 58.8879 87.5284 57.7469 91.0473 57.8878C94.5662 58.0287 97.9147 59.4419 100.472 61.8655C103.706 64.9514 105.699 69.1154 106.075 73.5715C110.795 73.2523 117.196 75.7957 118.195 82.085H88.8305V91.2796Z" fill="#BAE1FD"/>
<path d="M41.7009 96.1328H23.8398C23.5286 96.1328 23.2764 96.3853 23.2764 96.6968V96.782C23.2764 97.0935 23.5286 97.346 23.8398 97.346H41.7009C42.0121 97.346 42.2644 97.0935 42.2644 96.782V96.6968C42.2644 96.3853 42.0121 96.1328 41.7009 96.1328Z" fill="#1D1D2C"/>
<path d="M59.9872 96.1328H44.7734C44.4622 96.1328 44.21 96.3853 44.21 96.6968V96.782C44.21 97.0935 44.4622 97.346 44.7734 97.346H59.9872C60.2984 97.346 60.5507 97.0935 60.5507 96.782V96.6968C60.5507 96.3853 60.2984 96.1328 59.9872 96.1328Z" fill="#1D1D2C"/>
<path d="M35.4708 101.412H23.8398C23.5286 101.412 23.2764 101.665 23.2764 101.976V102.061C23.2764 102.373 23.5286 102.625 23.8398 102.625H35.4708C35.782 102.625 36.0343 102.373 36.0343 102.061V101.976C36.0343 101.665 35.782 101.412 35.4708 101.412Z" fill="#1D1D2C"/>
<path d="M47.7608 101.412H37.9053C37.5941 101.412 37.3418 101.665 37.3418 101.976V102.061C37.3418 102.373 37.5941 102.625 37.9053 102.625H47.7608C48.072 102.625 48.3242 102.373 48.3242 102.061V101.976C48.3242 101.665 48.072 101.412 47.7608 101.412Z" fill="#1D1D2C"/>
<path d="M59.9982 101.412H50.3447C50.0335 101.412 49.7812 101.665 49.7812 101.976V102.061C49.7812 102.373 50.0335 102.625 50.3447 102.625H59.9982C60.3094 102.625 60.5617 102.373 60.5617 102.061V101.976C60.5617 101.665 60.3094 101.412 59.9982 101.412Z" fill="#1D1D2C"/>
<path d="M41.7009 106.68H23.8398C23.5286 106.68 23.2764 106.932 23.2764 107.244V107.329C23.2764 107.64 23.5286 107.893 23.8398 107.893H41.7009C42.0121 107.893 42.2644 107.64 42.2644 107.329V107.244C42.2644 106.932 42.0121 106.68 41.7009 106.68Z" fill="#1D1D2C"/>
<path d="M59.9872 106.68H44.7734C44.4622 106.68 44.21 106.932 44.21 107.244V107.329C44.21 107.64 44.4622 107.893 44.7734 107.893H59.9872C60.2984 107.893 60.5507 107.64 60.5507 107.329V107.244C60.5507 106.932 60.2984 106.68 59.9872 106.68Z" fill="#1D1D2C"/>
<path d="M35.4708 111.947H23.8398C23.5286 111.947 23.2764 112.2 23.2764 112.511V112.596C23.2764 112.908 23.5286 113.16 23.8398 113.16H35.4708C35.782 113.16 36.0343 112.908 36.0343 112.596V112.511C36.0343 112.2 35.782 111.947 35.4708 111.947Z" fill="#1D1D2C"/>
<path d="M47.7608 111.947H37.9053C37.5941 111.947 37.3418 112.2 37.3418 112.511V112.596C37.3418 112.908 37.5941 113.16 37.9053 113.16H47.7608C48.072 113.16 48.3242 112.908 48.3242 112.596V112.511C48.3242 112.2 48.072 111.947 47.7608 111.947Z" fill="#1D1D2C"/>
<path d="M59.9982 111.947H50.3447C50.0335 111.947 49.7812 112.2 49.7812 112.511V112.596C49.7812 112.908 50.0335 113.16 50.3447 113.16H59.9982C60.3094 113.16 60.5617 112.908 60.5617 112.596V112.511C60.5617 112.2 60.3094 111.947 59.9982 111.947Z" fill="#1D1D2C"/>
<path d="M16.1214 127.282C17.2958 127.282 18.2478 126.329 18.2478 125.154C18.2478 123.978 17.2958 123.025 16.1214 123.025C14.9471 123.025 13.9951 123.978 13.9951 125.154C13.9951 126.329 14.9471 127.282 16.1214 127.282Z" fill="#1D1D2C"/>
<path d="M28.8792 127.282C30.0536 127.282 31.0056 126.329 31.0056 125.154C31.0056 123.978 30.0536 123.025 28.8792 123.025C27.7049 123.025 26.7529 123.978 26.7529 125.154C26.7529 126.329 27.7049 127.282 28.8792 127.282Z" fill="#1D1D2C"/>
<path d="M41.6371 127.282C42.8114 127.282 43.7634 126.329 43.7634 125.154C43.7634 123.978 42.8114 123.025 41.6371 123.025C40.4627 123.025 39.5107 123.978 39.5107 125.154C39.5107 126.329 40.4627 127.282 41.6371 127.282Z" fill="#1D1D2C"/>
<path d="M118.089 127.282C119.264 127.282 120.216 126.329 120.216 125.154C120.216 123.978 119.264 123.025 118.089 123.025C116.915 123.025 115.963 123.978 115.963 125.154C115.963 126.329 116.915 127.282 118.089 127.282Z" fill="#1D1D2C"/>
<path d="M56.6063 228.05H25.6365C24.3162 228.053 23.0083 227.795 21.7876 227.292C20.5669 226.789 19.4573 226.049 18.5223 225.116C17.5872 224.183 16.8451 223.075 16.3382 221.855C15.8314 220.634 15.5698 219.326 15.5684 218.004V125.154H16.6315V218.004C16.6343 220.388 17.5821 222.672 19.2665 224.356C20.951 226.04 23.2344 226.986 25.6152 226.986H56.6063V228.05Z" fill="#1D1D2C"/>
<path d="M56.5743 214.407H35.6939C34.7277 214.409 33.7708 214.219 32.8776 213.851C31.9845 213.482 31.1727 212.941 30.4885 212.258C29.8044 211.575 29.2613 210.764 28.8903 209.871C28.5192 208.978 28.3276 208.021 28.3262 207.054V125.111H29.3893V207.054C29.3921 208.721 30.055 210.319 31.2328 211.498C32.4105 212.677 34.007 213.34 35.6726 213.343H56.5743V214.407Z" fill="#1D1D2C"/>
<path d="M56.6061 200.477H46.8569C46.0998 200.48 45.3496 200.333 44.6493 200.045C43.949 199.757 43.3125 199.334 42.7761 198.799C42.2398 198.264 41.8142 197.628 41.5238 196.928C41.2335 196.228 41.084 195.478 41.084 194.72V125.154H42.1471V194.72C42.15 195.964 42.6448 197.156 43.5235 198.035C44.4021 198.915 45.5931 199.41 46.8357 199.413H56.6061V200.477Z" fill="#1D1D2C"/>
<path d="M155.309 139.627H124.542C122.69 139.624 120.915 138.886 119.606 137.576C118.296 136.265 117.559 134.488 117.557 132.635V125.186H118.62V132.635C118.623 134.206 119.247 135.712 120.357 136.823C121.467 137.934 122.972 138.56 124.542 138.562H155.309V139.627Z" fill="#1D1D2C"/>
<path d="M179.741 230.145C178.04 230.145 175.329 229.624 174.787 229.081C174.787 227.442 175.032 224.335 175.436 223.931C175.629 223.858 175.837 223.833 176.042 223.856C177.795 223.951 179.526 224.287 181.187 224.856C181.187 226.346 180.932 229.752 180.507 230.071C180.26 230.15 179.999 230.175 179.741 230.145Z" fill="white"/>
<path d="M176.041 224.112C177.7 224.21 179.339 224.518 180.921 225.027C180.965 226.646 180.775 228.262 180.358 229.827C180.156 229.873 179.948 229.891 179.741 229.88C178.127 229.913 176.525 229.601 175.042 228.965C175.02 227.355 175.224 225.75 175.648 224.197C175.793 224.183 175.939 224.183 176.084 224.197L176.041 224.112ZM176.041 223.58C175.769 223.542 175.491 223.598 175.255 223.739C174.67 224.303 174.478 228.103 174.468 228.986C174.457 229.869 177.976 230.412 179.784 230.412C180.099 230.444 180.417 230.397 180.709 230.274C181.315 229.816 181.538 225.793 181.495 224.729C181.495 224.452 177.785 223.58 176.084 223.58H176.041Z" fill="#1D1D2C"/>
<path d="M181.219 229.103C181.219 229.103 183.346 233.168 181.145 235.871C181.145 235.871 167.473 234.807 163.443 233.743C163.443 233.743 163.954 228.709 167.526 228.709C169.896 228.738 172.262 228.927 174.607 229.273C174.607 229.273 178.328 231.572 181.219 229.103Z" fill="#1D1D2C"/>
<path d="M212.359 230.231C211.775 230.231 211.604 230.103 211.594 230.071C211.062 228.666 210.159 225.644 210.392 225.101C210.626 224.559 214.432 223.846 215.921 223.846H216.08C216.665 225.219 217.633 228.496 217.367 228.943C215.807 229.722 214.101 230.161 212.359 230.231Z" fill="white"/>
<path d="M215.899 224.112C216.532 225.603 216.951 227.176 217.143 228.784C215.639 229.482 214.014 229.883 212.358 229.965C212.172 229.972 211.986 229.951 211.806 229.901C211.208 228.411 210.811 226.847 210.626 225.251C212.323 224.582 214.119 224.197 215.941 224.112H215.899ZM215.899 223.58C214.634 223.58 210.424 224.336 210.126 224.995C209.828 225.655 211.008 229.348 211.327 230.167C211.412 230.402 211.795 230.497 212.337 230.497C214.038 230.497 217.281 229.561 217.568 229.082C217.961 228.433 216.696 224.612 216.26 223.644C216.26 223.644 216.111 223.58 215.899 223.58Z" fill="#1D1D2C"/>
<path d="M217.717 228.432C217.717 228.432 220.482 232.103 218.717 235.125C218.717 235.125 205.045 236.275 200.888 235.785C200.888 235.785 200.601 230.741 204.077 230.177C206.422 229.825 208.787 229.633 211.158 229.602C211.158 229.602 215.24 231.326 217.717 228.432Z" fill="#1D1D2C"/>
<path d="M165.166 133.241C163.11 132.849 161.183 131.958 159.552 130.644C156.363 126.686 164.156 119.641 164.241 119.566C164.326 119.492 167.122 115.171 168.217 113.309C168.717 112.479 169.28 111.521 169.854 110.499V110.393C170.025 110.127 170.184 109.84 170.354 109.552L170.896 108.605C173.799 103.603 179.827 93.1851 184.377 91.078C184.505 91.0089 184.647 90.969 184.792 90.9609C184.886 90.9626 184.979 90.9866 185.062 91.031C185.145 91.0754 185.216 91.1389 185.27 91.2163C186.929 93.2383 185.004 105.051 184.133 109.403C184.204 110.768 184.14 112.137 183.941 113.49C183.552 116.295 182.454 118.954 180.752 121.216C180.349 121.77 179.904 122.293 179.423 122.78C178.881 123.344 178.296 124.025 177.669 124.759C174.926 127.952 171.162 132.368 165.187 133.273L165.166 133.241Z" fill="white"/>
<path d="M184.844 91.2274C184.9 91.2284 184.955 91.2436 185.003 91.2715C185.052 91.2994 185.092 91.3392 185.121 91.387C186.535 93.111 185.121 103.317 183.919 109.35V109.51C184.012 110.825 183.955 112.146 183.749 113.448C183.376 116.206 182.307 118.825 180.645 121.057C180.23 121.584 179.779 122.082 179.295 122.546C178.742 123.121 178.157 123.813 177.53 124.536C174.819 127.729 171.087 132.071 165.219 132.933H165.133C163.156 132.545 161.3 131.687 159.722 130.432C156.649 126.675 164.304 119.79 164.389 119.726H164.442V119.662C164.442 119.662 167.281 115.31 168.387 113.448C168.876 112.628 169.45 111.681 169.992 110.681L170.067 110.542L170.587 109.659L170.779 109.329L170.991 108.967L171.119 108.744C174 103.753 179.996 93.3983 184.472 91.3125C184.568 91.2636 184.673 91.2346 184.781 91.2274H184.844ZM184.844 90.6953C184.659 90.6997 184.477 90.7471 184.313 90.8337C180.007 92.8343 174.649 101.699 170.726 108.478C170.609 108.669 170.502 108.861 170.385 109.042C170.141 109.468 169.918 109.883 169.684 110.266C169.078 111.33 168.504 112.32 167.993 113.171C166.93 115.055 164.06 119.375 164.06 119.375C164.06 119.375 155.916 126.612 159.339 130.804C161.017 132.191 163.024 133.122 165.165 133.507H165.325C172.767 132.443 176.786 126.005 179.709 122.972C180.198 122.477 180.649 121.947 181.06 121.386C182.766 119.083 183.863 116.385 184.249 113.543C184.461 112.196 184.521 110.829 184.43 109.468C184.43 109.468 188.215 90.706 184.834 90.706L184.844 90.6953Z" fill="#1D1D2C"/>
<path d="M199.494 152.514C199.08 153.462 198.623 154.451 198.155 155.473C194.965 162.454 191.021 170.574 190.415 174.884C182.973 183.301 183.813 200.509 183.271 210.002C182.845 217.792 182.356 226.316 182.144 227.029L174 227.784C172.15 217.515 167.982 184.642 167.982 177.491C167.982 170.105 174.542 141.362 179.624 131.965C184.461 123.026 200.483 140.787 202.333 143.16C203.045 144.086 201.621 147.821 199.494 152.514Z" fill="#1D1D2C"/>
<path d="M199.314 152.343C199.229 152.274 199.127 152.229 199.019 152.213C198.91 152.196 198.8 152.208 198.698 152.247C197.113 149.842 193.531 147.362 191.362 150.587C190.139 152.396 191.266 154.695 191.266 156.642C191.266 160.59 188.566 163.964 186.822 167.284C180.624 179.213 184.228 193.016 181.953 205.733C180.773 212.405 176.637 220.631 176.765 227.506C180.145 227.804 181.453 227.4 182.155 226.995C184.281 217.716 185.94 189.749 190.426 174.85C192.64 168.24 195.224 161.759 198.166 155.439C198.634 154.375 199.091 153.428 199.506 152.481C199.495 152.46 199.378 152.417 199.314 152.343Z" fill="#1D1D2C"/>
<path d="M184.441 109.456C184.533 110.818 184.472 112.185 184.26 113.532C183.797 117.134 182.293 120.522 179.933 123.28C177.031 126.537 167.175 110.648 169.982 106.647C174.309 100.571 180.082 92.8126 184.313 90.8332C188.545 88.8538 184.441 109.456 184.441 109.456Z" fill="#BAE1FD"/>
<path d="M184.505 95.0156C184.505 95.0156 181.666 96.4204 181.017 100.773C180.369 105.125 178.742 113.224 179.848 117.704C180.73 121.269 180.911 121.961 180.975 121.961L183.548 118.172C183.548 118.172 186.238 114.033 185.812 112.968C185.387 111.904 184.505 95.0156 184.505 95.0156Z" fill="#1D1D2C"/>
<path d="M217.665 224.994C215.645 227.304 210.095 228.485 210.095 228.485C205.162 217.662 200.229 196.559 199.463 184.3C198.315 165.293 195.051 146.755 195.211 141.732C195.211 140.934 195.211 140.509 195.211 140.509C200.123 135.113 206.108 132.197 209.627 131.995C211.009 131.899 211.998 132.219 212.402 132.963C213.573 135.156 214.589 137.429 215.443 139.764C215.517 139.976 215.591 140.189 215.655 140.402C220.323 153.651 218.845 160.749 218.111 177.883C217.771 185.981 214.73 220.45 217.665 224.994Z" fill="#1D1D2C"/>
<path d="M216.229 207.521C216.229 198.603 217.771 185.982 218.154 177.894C218.94 160.761 220.365 153.663 215.698 140.414C214.127 140.299 212.555 140.612 211.147 141.318C211.056 141.36 210.978 141.424 210.92 141.506C210.863 141.588 210.828 141.683 210.819 141.783C210.81 141.883 210.828 141.983 210.871 142.073C210.914 142.163 210.98 142.241 211.062 142.297C211.022 142.373 211.001 142.457 211.001 142.542C211.001 142.627 211.022 142.711 211.062 142.787C213.865 149.81 215.028 157.38 214.464 164.922C213.932 168.763 213.186 172.571 212.232 176.33C211.477 180.229 210.927 184.165 210.584 188.121C209.957 194.857 209.064 201.87 209.978 208.617C210.924 215.598 211.041 220.93 212.593 227.773C212.689 228.209 217.144 226.038 217.686 224.974C217.25 224.08 216.155 222.324 216.229 207.521Z" fill="#1D1D2C"/>
<path d="M177.317 135.135C177.509 135.741 179.688 136.837 182.888 137.987C187.206 139.493 191.65 140.608 196.167 141.317C202.738 142.382 209.35 142.307 212.891 141.637C214.326 141.371 215.262 140.977 215.474 140.573C216.165 139.104 217.026 130.261 217.303 120.736C217.356 118.895 217.398 117.022 217.398 115.192C217.398 105.614 216.782 96.643 214.613 94.9722C214.124 94.5784 213.55 94.1847 212.923 93.759C211.873 93.0351 210.779 92.3776 209.648 91.7903C207.509 90.6641 205.247 89.7893 202.908 89.183C198.504 88.0246 193.885 87.9552 189.448 88.9808C188.188 89.2486 186.948 89.6042 185.738 90.045C185.44 90.1408 185.142 90.2579 184.834 90.3749C180.581 92.0776 181.209 101.293 181.889 109.019C182.235 111.972 182.406 114.943 182.399 117.916C182.348 118.598 182.259 119.276 182.133 119.949C181.166 125.663 178.03 130.995 177.317 135.135Z" fill="#BAE1FD"/>
<path d="M193.7 90.1198C193.538 90.1355 193.374 90.1355 193.211 90.1198C193.172 90.1172 193.135 90.1039 193.103 90.0814C193.071 90.0588 193.046 90.028 193.03 89.9921C192.985 89.4761 193.112 88.9596 193.392 88.5236V88.4597V84.3732L198.112 82.4258V88.2149C197.613 88.5768 195.423 90.1198 193.668 90.1198H193.7Z" fill="white"/>
<path d="M197.879 82.8196V88.0767C197.241 88.5237 195.275 89.8539 193.701 89.8539H193.276C193.273 89.4173 193.394 88.989 193.627 88.6194L193.69 88.4917V84.5543L197.879 82.8196ZM198.411 82.0215L193.116 84.235V88.3747C193.116 88.3747 192.138 90.1625 193.116 90.3647C193.297 90.3804 193.478 90.3804 193.659 90.3647C195.785 90.3647 198.368 88.3215 198.368 88.3215V82.0215H198.411Z" fill="#1D1D2C"/>
<path d="M198.432 85.1397V82.3516C198.432 82.3516 196.104 85.31 193.531 85.4483C194.321 85.76 195.169 85.8939 196.016 85.8406C196.863 85.7872 197.688 85.548 198.432 85.1397Z" fill="#1D1D2C"/>
<path d="M193.871 85.2998C191.925 85.2998 190.086 84.0653 189.926 82.65C189.731 80.0825 189.892 77.5003 190.405 74.9772L198.57 73.5938C198.953 74.5515 200.494 78.9679 198.028 82.8096C197.61 83.5503 197.008 84.1695 196.279 84.6061C195.55 85.0428 194.72 85.2818 193.871 85.2998Z" fill="white"/>
<path d="M198.432 73.9017C198.889 75.1255 200.101 79.1481 197.836 82.6706C197.439 83.3682 196.868 83.9506 196.178 84.361C195.489 84.7714 194.705 84.9956 193.903 85.0118C191.946 85.0118 190.352 83.7454 190.213 82.6067C190.022 80.1149 190.172 77.6085 190.66 75.1574L198.432 73.9017ZM198.772 73.3164L190.267 74.7211C189.725 77.3303 189.55 80.0023 189.746 82.6599C189.916 84.1817 191.819 85.5439 193.998 85.5439C194.89 85.5327 195.764 85.2882 196.532 84.8345C197.301 84.3809 197.937 83.7339 198.379 82.9579C201.26 78.4777 198.868 73.3164 198.868 73.3164H198.772Z" fill="#1D1D2C"/>
<path d="M212.614 129.122C213.135 133.07 211.551 137.721 212.89 141.637C214.326 141.371 215.261 140.977 215.474 140.573C216.165 139.104 217.026 130.261 217.303 120.736C217.356 118.895 217.398 117.022 217.398 115.192C216.629 113.47 215.718 111.815 214.677 110.244C211.641 105.563 208.899 100.697 206.469 95.6749C206.267 95.2918 209.297 93.5465 209.563 93.4188C208.778 93.3477 207.989 93.4831 207.273 93.8117C206.556 94.1402 205.939 94.6505 205.48 95.2918C200.834 101.155 199.495 109.86 203.811 116.16C206.767 120.343 211.891 123.61 212.614 129.122Z" fill="#1D1D2C"/>
<path d="M186.737 74.0726C187.503 77.2652 191.086 76.6692 193.403 75.9349C193.595 75.8817 193.658 75.605 193.829 75.5412C193.999 75.4773 194.318 75.5944 194.668 75.5412C195.387 75.5035 196.099 75.393 196.795 75.2113C197.144 75.1355 197.501 75.1033 197.858 75.1155C197.799 75.6033 197.799 76.0964 197.858 76.5841C197.858 77.8505 197.518 79.468 198.198 80.6174C198.402 80.9778 198.738 81.2442 199.136 81.3595C199.533 81.4748 199.96 81.43 200.324 81.2346C201.292 80.6706 200.941 79.7341 201.09 78.8615C201.217 78.5593 201.245 78.2247 201.171 77.9055C201.096 77.5863 200.923 77.2988 200.675 77.0843C200.682 76.9638 200.682 76.8429 200.675 76.7224C200.722 76.3378 200.684 75.9476 200.562 75.5796C200.441 75.2117 200.24 74.8751 199.974 74.5941C200.331 74.2676 200.554 73.8187 200.597 73.336C200.641 72.8533 200.501 72.3719 200.208 71.9868C199.857 71.5475 199.382 71.2248 198.845 71.0614C198.308 70.898 197.734 70.9016 197.199 71.0716C196.67 70.6367 195.994 70.4217 195.312 70.4712C194.629 70.5208 193.992 70.8309 193.531 71.3377C193.229 71.1154 192.879 70.9685 192.509 70.9092C192.139 70.85 191.76 70.8801 191.405 70.9971C189.459 68.922 186.004 71.0503 186.737 74.0726Z" fill="#1D1D2C"/>
<path d="M218.993 141.02C211.083 141.02 201.695 138.434 200.196 138.009L200.558 134.252C201.089 134.252 202.386 134.359 204.034 134.359C209.212 134.359 215.782 133.688 217.685 130.517C218.281 129.453 216.739 119.534 213.985 116.885C212.678 115.629 211.349 114.448 210.466 113.692C207.85 111.464 206.072 108.408 205.427 105.03C204.93 102.306 205.169 99.4995 206.118 96.8993C206.428 96.0458 206.996 95.3103 207.743 94.7953C208.49 94.2802 209.379 94.0113 210.286 94.026C211.331 94.0351 212.339 94.4118 213.135 95.0901C217.536 98.6764 224.458 107.488 225.797 109.223C233.133 118.8 234.653 130.506 229.55 137.658C227.87 139.86 224.341 141.02 218.993 141.02Z" fill="white"/>
<path d="M210.233 94.2604C211.21 94.2624 212.156 94.6006 212.913 95.2182C217.303 98.8045 224.203 107.595 225.543 109.319C232.751 118.769 234.271 130.304 229.232 137.392C227.669 139.595 224.203 140.712 218.951 140.712C211.382 140.712 202.44 138.328 200.431 137.764L200.697 134.465C201.335 134.465 202.494 134.561 203.94 134.561C209.192 134.561 215.858 133.869 217.814 130.592C218.505 129.442 216.921 119.365 214.082 116.63C213.019 115.629 211.818 114.501 210.542 113.437C207.97 111.248 206.225 108.244 205.598 104.924C205.106 102.244 205.337 99.4812 206.268 96.9209C206.564 96.1217 207.1 95.4338 207.803 94.9517C208.505 94.4697 209.339 94.217 210.191 94.2285L210.233 94.2604ZM210.233 93.7284C209.273 93.7169 208.332 94.0033 207.54 94.5482C206.748 95.0931 206.144 95.8698 205.811 96.7719C204.846 99.4168 204.607 102.272 205.12 105.041C205.759 108.48 207.565 111.593 210.233 113.852C211.297 114.799 212.572 115.917 213.752 117.045C216.41 119.599 217.92 129.485 217.41 130.347C215.496 133.54 208.426 134.061 203.982 134.061C201.803 134.061 200.261 133.933 200.261 133.933L199.91 138.19C199.91 138.19 210.276 141.276 219.047 141.276C223.682 141.276 227.861 140.404 229.764 137.732C235.26 130.006 232.953 118.024 226.053 108.999C225.862 108.755 218.111 98.6875 213.295 94.7713C212.442 94.0785 211.375 93.7025 210.276 93.7071L210.233 93.7284Z" fill="#1D1D2C"/>
<path d="M213.742 119.172C212.678 118.107 205.757 111.371 204.705 104.656C204.216 101.602 205.162 94.2165 208.957 93.3439C215.039 91.9285 223.172 100.793 228.785 107.444C226.223 113.265 220.578 117.331 213.742 119.172Z" fill="#BAE1FD"/>
<path d="M181.283 136.764L197.507 137.743L182.038 142.085L181.283 136.764Z" fill="#1D1D2C"/>
<path d="M197.507 137.742L197.581 139.275L182.038 144.032V142.084L197.507 137.742Z" fill="#414267"/>
<path d="M148.612 140.053L182.038 142.085V144.033L148.623 141.798L148.612 140.053Z" fill="#1D1D2C"/>
<path d="M148.846 139.808L146.337 122.344C146.323 122.196 146.338 122.046 146.382 121.904C146.426 121.761 146.497 121.629 146.592 121.514C146.692 121.401 146.815 121.31 146.952 121.247C147.09 121.185 147.239 121.153 147.39 121.152L178.221 123.015C178.466 123.032 178.697 123.134 178.876 123.303C179.054 123.472 179.168 123.697 179.2 123.941L181.73 141.798L148.846 139.808Z" fill="white"/>
<path d="M147.401 121.419H147.454L178.232 123.281C178.417 123.295 178.591 123.372 178.725 123.5C178.859 123.629 178.944 123.799 178.966 123.983L181.422 141.511L149.08 139.574L146.625 122.334C146.611 122.222 146.621 122.109 146.655 122.002C146.688 121.894 146.744 121.795 146.818 121.711C146.892 121.626 146.983 121.558 147.086 121.512C147.188 121.465 147.299 121.441 147.411 121.44L147.401 121.419ZM147.401 120.887C147.213 120.888 147.027 120.93 146.856 121.008C146.685 121.087 146.533 121.201 146.41 121.342C146.286 121.484 146.194 121.651 146.139 121.831C146.085 122.011 146.069 122.201 146.093 122.387L148.602 140.053L182.028 142.085L179.455 123.909C179.416 123.602 179.272 123.319 179.047 123.107C178.822 122.895 178.53 122.769 178.222 122.749L147.486 120.897L147.401 120.887Z" fill="#1D1D2C"/>
<path d="M191.946 138.827C191.658 138.827 191.37 138.806 191.085 138.763C191.025 138.758 190.967 138.738 190.917 138.704C190.867 138.671 190.826 138.625 190.798 138.572C190.766 138.507 190.749 138.436 190.749 138.364C190.749 138.292 190.766 138.221 190.798 138.157L190.894 137.891L190.617 137.806C190.446 137.76 190.289 137.672 190.16 137.55C190.098 137.485 190.05 137.408 190.019 137.324C189.988 137.24 189.975 137.15 189.979 137.061V136.912L189.852 136.837C189.674 136.742 189.51 136.624 189.363 136.486C189.143 136.271 188.989 135.997 188.92 135.697C188.85 135.398 188.867 135.084 188.969 134.794L189.203 134.177L188.608 134.464C187.558 134.983 186.622 135.707 185.854 136.592C185.814 136.641 185.763 136.68 185.706 136.708C185.65 136.735 185.588 136.75 185.525 136.752C185.423 136.75 185.324 136.718 185.24 136.659C185.157 136.6 185.093 136.518 185.057 136.422C184.978 136.256 184.938 136.074 184.938 135.89C184.938 135.706 184.978 135.524 185.057 135.358C185.695 134.34 186.663 133.574 187.8 133.187C188.586 132.933 189.408 132.811 190.234 132.825H190.947H191.234H191.414L191.787 132.751L191.51 132.293L191.393 132.091C191.152 131.574 191.111 130.987 191.276 130.441C191.323 130.316 191.396 130.203 191.489 130.107C191.582 130.012 191.695 129.937 191.818 129.888C191.912 129.847 192.014 129.825 192.116 129.824C192.626 129.824 193.062 130.42 193.434 130.942C193.551 131.101 193.658 131.25 193.764 131.367C194.392 132.183 195.172 132.869 196.061 133.389C196.764 133.647 197.496 133.822 198.24 133.911L198.931 134.017H199.303C199.92 134.102 200.675 134.209 200.962 134.656C201.223 135.304 201.275 136.019 201.111 136.699C200.962 137.337 200.388 137.646 199.76 137.933C199.216 138.167 198.645 138.332 198.059 138.423C197.371 138.643 196.655 138.765 195.933 138.785C195.324 138.798 194.721 138.659 194.179 138.38H194.072H193.966C193.328 138.66 192.642 138.812 191.946 138.827Z" fill="white"/>
<path d="M192.159 130.069C192.531 130.069 192.935 130.633 193.222 131.133L193.552 131.57C194.216 132.429 195.039 133.151 195.976 133.698C196.696 133.962 197.446 134.137 198.208 134.22L198.889 134.326L199.272 134.39C199.792 134.464 200.515 134.56 200.728 134.911C200.956 135.494 201.001 136.133 200.856 136.742C200.739 137.21 200.345 137.476 199.654 137.806C199.13 138.03 198.58 138.191 198.017 138.285H197.943C197.303 138.494 196.637 138.608 195.965 138.625C195.606 138.631 195.248 138.585 194.902 138.487C194.695 138.427 194.496 138.344 194.307 138.242L194.094 138.146L193.871 138.232C193.241 138.497 192.565 138.634 191.883 138.636C191.608 138.635 191.335 138.614 191.064 138.572C190.979 138.572 190.968 138.572 190.958 138.572C190.931 138.507 190.931 138.435 190.958 138.37L191.149 137.838L190.617 137.678C190.488 137.647 190.368 137.585 190.267 137.497C190.228 137.454 190.198 137.404 190.18 137.349C190.161 137.294 190.155 137.236 190.16 137.178V136.88L189.905 136.731C189.75 136.647 189.607 136.544 189.48 136.422C189.296 136.242 189.167 136.014 189.107 135.764C189.047 135.513 189.058 135.251 189.14 135.007L189.597 133.783L188.417 134.347C187.337 134.904 186.376 135.667 185.589 136.593C185.553 136.633 185.504 136.66 185.45 136.667C185.399 136.661 185.35 136.641 185.308 136.609C185.267 136.577 185.236 136.535 185.217 136.486C185.153 136.355 185.121 136.211 185.121 136.066C185.121 135.92 185.153 135.777 185.217 135.646C185.837 134.673 186.777 133.947 187.874 133.592C188.633 133.347 189.427 133.228 190.224 133.241H190.915H191.011H191.106H191.255C191.323 133.246 191.39 133.246 191.457 133.241L192.202 133.102L191.819 132.442L191.723 132.304C191.723 132.304 191.649 132.198 191.617 132.134C191.416 131.682 191.378 131.174 191.51 130.697C191.546 130.607 191.599 130.525 191.667 130.456C191.734 130.386 191.815 130.331 191.904 130.293C191.97 130.279 192.039 130.279 192.106 130.293L192.159 130.069ZM192.159 129.537C192.02 129.536 191.882 129.565 191.755 129.622C190.766 130.027 190.83 131.378 191.192 132.176C191.256 132.303 191.33 132.424 191.415 132.538C191.277 132.538 191.149 132.538 191.011 132.602H190.277C189.423 132.589 188.572 132.715 187.758 132.974C186.492 133.4 184.026 134.975 184.77 136.603C184.828 136.746 184.926 136.868 185.053 136.955C185.18 137.042 185.329 137.09 185.482 137.093C185.584 137.091 185.684 137.068 185.776 137.024C185.868 136.98 185.949 136.916 186.014 136.837C186.761 135.965 187.666 135.243 188.682 134.709C188.561 135.046 188.539 135.41 188.618 135.759C188.697 136.108 188.874 136.427 189.129 136.678C189.292 136.84 189.478 136.976 189.682 137.082C189.679 137.33 189.77 137.57 189.937 137.753C190.099 137.905 190.296 138.015 190.511 138.072C190.469 138.169 190.45 138.275 190.456 138.38C190.461 138.486 190.49 138.589 190.542 138.682C190.593 138.774 190.665 138.854 190.752 138.914C190.839 138.974 190.938 139.014 191.043 139.03C191.341 139.08 191.644 139.105 191.946 139.104C192.699 139.105 193.444 138.953 194.136 138.657C194.356 138.767 194.583 138.859 194.817 138.934C195.205 139.04 195.605 139.093 196.008 139.094C196.73 139.072 197.445 138.95 198.134 138.732C198.742 138.635 199.335 138.459 199.899 138.21C200.558 137.912 201.217 137.561 201.408 136.806C201.581 136.055 201.514 135.27 201.217 134.56C200.802 133.89 199.686 133.858 199.016 133.741C198.062 133.645 197.121 133.445 196.21 133.145C195.354 132.64 194.603 131.975 193.998 131.187C193.53 130.623 192.935 129.548 192.148 129.548L192.159 129.537Z" fill="#1D1D2C"/>
<path d="M158.393 142.766C158.367 142.751 158.344 142.73 158.327 142.704C158.311 142.678 158.301 142.648 158.298 142.617C158.208 142.734 158.096 142.832 157.968 142.905C157.84 142.978 157.699 143.025 157.554 143.043C157.171 143.043 156.958 142.735 156.799 142.49C156.656 142.761 156.437 142.984 156.168 143.132C155.9 143.279 155.594 143.345 155.289 143.32C154.704 143.203 154.587 142.735 154.64 142.256C154.489 142.434 154.318 142.595 154.13 142.735C153.428 143.277 152.706 142.649 152.472 142.064C152.458 142.022 152.455 141.977 152.465 141.934C152.474 141.891 152.495 141.852 152.525 141.819V141.702C152.69 141.136 152.926 140.592 153.226 140.085C153.43 139.637 153.741 139.246 154.13 138.946C154.874 138.542 155.193 139.361 155.332 139.925C155.534 139.361 155.895 138.861 156.65 139.17C156.868 139.24 157.063 139.366 157.216 139.536C157.369 139.706 157.475 139.914 157.522 140.138C157.662 139.881 157.868 139.664 158.117 139.51C158.755 139.116 159.18 139.797 159.329 140.266C159.377 140.483 159.377 140.708 159.329 140.925C159.382 140.919 159.435 140.919 159.488 140.925C159.956 140.83 160.254 141.383 160.307 141.702C160.314 141.928 160.258 142.152 160.146 142.348C160.034 142.545 159.871 142.707 159.673 142.816C159.476 142.926 159.252 142.98 159.026 142.971C158.801 142.962 158.582 142.891 158.393 142.766Z" fill="white"/>
<path d="M155.479 143.616H155.214C155.016 143.578 154.833 143.485 154.687 143.348C154.54 143.21 154.435 143.034 154.384 142.839L154.267 142.924C154.126 143.052 153.952 143.139 153.765 143.177C153.578 143.214 153.384 143.2 153.204 143.137C152.964 143.059 152.745 142.929 152.561 142.756C152.377 142.583 152.234 142.372 152.141 142.137C152.107 142.069 152.09 141.994 152.09 141.919C152.09 141.843 152.107 141.768 152.141 141.7C152.314 141.108 152.56 140.54 152.875 140.008L152.949 139.87C153.164 139.444 153.482 139.078 153.874 138.806C153.996 138.727 154.136 138.68 154.281 138.669C154.425 138.657 154.571 138.683 154.703 138.742C154.953 138.868 155.149 139.08 155.256 139.338C155.372 139.195 155.517 139.079 155.681 138.997C155.981 138.874 156.317 138.874 156.617 138.997C156.967 139.126 157.266 139.365 157.468 139.679C157.58 139.555 157.708 139.447 157.85 139.359C157.973 139.279 158.114 139.229 158.26 139.214C158.406 139.199 158.554 139.22 158.69 139.274C158.884 139.376 159.053 139.52 159.185 139.695C159.317 139.869 159.41 140.071 159.456 140.285C159.484 140.415 159.502 140.546 159.509 140.679C159.631 140.688 159.751 140.723 159.859 140.782C159.967 140.841 160.061 140.922 160.136 141.019C160.295 141.21 160.405 141.436 160.455 141.679C160.499 141.935 160.47 142.198 160.37 142.437C160.27 142.677 160.104 142.883 159.892 143.031C159.643 143.209 159.349 143.313 159.044 143.33C158.739 143.347 158.436 143.276 158.169 143.126C157.971 143.308 157.715 143.414 157.446 143.424C157.292 143.426 157.14 143.39 157.003 143.32C156.866 143.249 156.748 143.146 156.66 143.02C156.357 143.362 155.934 143.576 155.479 143.616ZM154.958 141.392L154.884 142.243C154.82 142.882 155.065 143.02 155.32 143.063C155.83 143.169 156.287 142.733 156.564 142.339L156.83 141.967L157.021 142.392C157.191 142.648 157.329 142.818 157.542 142.818C157.766 142.779 157.967 142.658 158.105 142.477L158.467 142.094L158.563 142.594C158.738 142.689 158.937 142.732 159.137 142.719C159.336 142.706 159.528 142.637 159.69 142.52C159.82 142.431 159.922 142.306 159.984 142.161C160.046 142.016 160.066 141.856 160.04 141.7C160.006 141.548 159.937 141.406 159.838 141.285C159.803 141.235 159.755 141.194 159.699 141.168C159.643 141.142 159.581 141.131 159.519 141.136H159.456L158.977 141.424L159.062 140.86C159.1 140.677 159.1 140.489 159.062 140.306C159.036 140.174 158.982 140.048 158.906 139.936C158.829 139.824 158.73 139.73 158.616 139.657C158.56 139.626 158.498 139.61 158.435 139.61C158.372 139.61 158.31 139.626 158.254 139.657C158.046 139.798 157.871 139.983 157.744 140.2L157.393 140.764L157.255 140.115C157.215 139.936 157.129 139.77 157.006 139.634C156.883 139.498 156.727 139.396 156.553 139.338C156.469 139.302 156.379 139.283 156.287 139.283C156.196 139.283 156.106 139.302 156.022 139.338C155.802 139.481 155.643 139.701 155.575 139.955L155.267 140.817L155.075 139.923C155.038 139.591 154.874 139.286 154.618 139.072C154.562 139.043 154.5 139.028 154.438 139.028C154.375 139.028 154.313 139.043 154.257 139.072C153.951 139.31 153.703 139.616 153.534 139.966L153.459 140.104C153.167 140.594 152.938 141.12 152.779 141.669V141.775L152.715 141.849C152.853 142.145 153.101 142.374 153.406 142.488C153.503 142.517 153.606 142.521 153.705 142.499C153.804 142.476 153.895 142.429 153.97 142.36C154.143 142.235 154.301 142.089 154.438 141.924L154.958 141.392Z" fill="#1D1D2C"/>
<path d="M201.993 134.561L199.197 134.316V137.924C199.808 137.72 200.468 137.72 201.079 137.924C202.163 138.35 201.993 134.561 201.993 134.561Z" fill="white"/>
</svg>
