<svg width="260" height="242" viewBox="0 0 260 242" fill="none" xmlns="http://www.w3.org/2000/svg">
<path d="M133.498 42.3219L133.552 17.0572C133.553 16.9283 133.52 16.8014 133.455 16.6898C133.422 16.6221 133.378 16.5601 133.325 16.5061L131.856 14.4854L127.598 16.2684L72.1302 16.1495C71.9247 16.1523 71.7285 16.2352 71.5832 16.3805C71.4379 16.5258 71.355 16.7221 71.3522 16.9275V39.8365L69.9258 40.4308L71.4386 42.4948C71.4926 42.584 71.5688 42.6577 71.6596 42.7089C71.7505 42.76 71.8531 42.7867 71.9573 42.7866L132.936 42.9162C133.087 42.9054 133.229 42.8384 133.333 42.7284C133.437 42.6184 133.496 42.4733 133.498 42.3219Z" fill="black"/>
<path d="M131.305 40.7668L70.3258 40.6372C70.1653 40.6372 70.0114 40.5734 69.8979 40.4599C69.7845 40.3464 69.7207 40.1925 69.7207 40.032V14.7673C69.7207 14.6656 69.7409 14.565 69.7801 14.4712C69.8194 14.3774 69.8768 14.2923 69.9492 14.2209C70.0216 14.1495 70.1075 14.0933 70.2018 14.0553C70.2962 14.0174 70.3971 13.9986 70.4987 14.0001L131.143 14.1297C131.349 14.1297 131.547 14.2117 131.693 14.3576C131.839 14.5035 131.921 14.7014 131.921 14.9078L131.867 40.1617C131.865 40.3142 131.806 40.4606 131.702 40.5724C131.598 40.6842 131.457 40.7535 131.305 40.7668Z" fill="#3CBCC3"/>
<path d="M77.5977 33.721V20.4727H80.2776V25.7028H85.5185V20.4727H88.1876V33.7318H85.5185V27.9289H80.2776V33.721H77.5977Z" fill="black"/>
<path d="M93.9471 33.7318V22.7203H90.0137V20.4727H100.55V22.7095H96.627V33.7318H93.9471Z" fill="black"/>
<path d="M102.235 33.7317V20.4834H106.244L108.643 29.5281L111.032 20.4834H115.041V33.7425H112.555V23.3038L109.919 33.7425H107.336L104.721 23.3146V33.7425L102.235 33.7317Z" fill="black"/>
<path d="M117.765 33.7418V20.6016H120.434V31.5049H127.08V33.731L117.765 33.7418Z" fill="black"/>
<path d="M226.096 111.58V80.1127C226.096 79.9503 226.055 79.7904 225.977 79.6481C225.936 79.5642 225.881 79.4875 225.815 79.4211L223.978 76.9033L218.672 79.1294L165.657 78.9781C165.402 78.9781 165.157 79.0794 164.977 79.2598C164.797 79.4402 164.695 79.6848 164.695 79.9398L164.631 108.5L162.858 109.246L164.739 111.818C164.805 111.928 164.898 112.018 165.01 112.081C165.122 112.144 165.248 112.176 165.376 112.174L225.275 112.337C225.379 112.346 225.485 112.333 225.584 112.299C225.683 112.265 225.775 112.21 225.852 112.139C225.929 112.068 225.991 111.982 226.033 111.885C226.075 111.789 226.096 111.685 226.096 111.58Z" fill="black"/>
<path d="M223.34 109.646L163.42 109.484C163.319 109.484 163.22 109.464 163.128 109.425C163.035 109.386 162.951 109.33 162.881 109.258C162.81 109.187 162.755 109.102 162.718 109.009C162.68 108.916 162.662 108.817 162.663 108.716L162.728 77.2489C162.728 77.1217 162.753 76.9958 162.802 76.8784C162.851 76.761 162.923 76.6545 163.014 76.565C163.104 76.4756 163.211 76.4049 163.329 76.3573C163.447 76.3096 163.573 76.2857 163.701 76.2872L223.134 76.4493C223.261 76.4478 223.387 76.4717 223.504 76.5195C223.621 76.5673 223.728 76.6381 223.817 76.7277C223.907 76.8173 223.978 76.9239 224.026 77.0413C224.073 77.1586 224.097 77.2843 224.096 77.411V108.911C224.09 109.108 224.008 109.295 223.867 109.432C223.726 109.569 223.536 109.646 223.34 109.646Z" fill="#AAB6C2"/>
<path d="M173.739 100.504V85.6564H178.548C179.741 85.6116 180.935 85.684 182.114 85.8725C182.98 86.0981 183.742 86.6129 184.275 87.3314C184.88 88.1723 185.185 89.1924 185.14 90.2274C185.168 91.0205 184.997 91.8081 184.643 92.5183C184.347 93.1037 183.913 93.6082 183.378 93.9879C182.911 94.3232 182.382 94.562 181.822 94.6903C180.797 94.8563 179.759 94.9287 178.721 94.9064H176.765V100.504H173.739ZM176.743 88.1634V92.3778H178.375C179.174 92.4218 179.976 92.3453 180.752 92.1509C181.133 92.0074 181.461 91.751 181.693 91.4161C181.922 91.0751 182.039 90.6708 182.028 90.2598C182.045 89.7722 181.875 89.2963 181.552 88.9307C181.237 88.5774 180.809 88.3444 180.342 88.2715C179.626 88.1753 178.903 88.1392 178.181 88.1634H176.743Z" fill="black"/>
<path d="M187.594 100.504V85.6562H190.587V91.5024H196.466V85.6562H199.47V100.504H196.466V94.0202H190.587V100.504H187.594Z" fill="black"/>
<path d="M202.57 100.504V85.6564H207.379C208.572 85.6116 209.766 85.684 210.945 85.8725C211.814 86.0852 212.584 86.5885 213.128 87.2989C213.733 88.1399 214.038 89.16 213.992 90.195C214.015 90.9876 213.845 91.7739 213.495 92.4859C213.196 93.0692 212.763 93.5729 212.231 93.9555C211.764 94.2908 211.235 94.5296 210.675 94.6579C209.646 94.8243 208.605 94.8966 207.563 94.874H205.564V100.472L202.57 100.504ZM205.564 88.1634V92.3778H207.206C208.002 92.422 208.8 92.3455 209.573 92.1509C209.954 92.0074 210.282 91.751 210.513 91.4161C210.746 91.0761 210.867 90.6718 210.859 90.2598C210.876 89.7722 210.706 89.2963 210.383 88.9307C210.067 88.5795 209.64 88.3469 209.173 88.2715C208.457 88.1761 207.734 88.1399 207.012 88.1634H205.564Z" fill="black"/>
<path d="M58.8921 106.176V82.403C58.8916 82.2824 58.862 82.1638 58.8056 82.0572C58.775 81.9911 58.7308 81.9322 58.6759 81.8843L57.2928 79.9824L53.2837 81.6574L13.2254 81.5493C13.0334 81.5493 12.8492 81.6256 12.7135 81.7614C12.5777 81.8971 12.5014 82.0813 12.5014 82.2733L12.4474 103.886L11.1074 104.447L12.5338 106.393C12.5853 106.475 12.6569 106.543 12.742 106.591C12.827 106.638 12.9228 106.663 13.0201 106.663L58.3194 106.749C58.4712 106.749 58.6169 106.689 58.7243 106.581C58.8317 106.474 58.8921 106.328 58.8921 106.176Z" fill="black"/>
<path d="M11.5731 104.319C11.4928 104.319 11.4159 104.287 11.3591 104.23C11.3024 104.174 11.2705 104.097 11.2705 104.016L11.3245 80.2429C11.3245 80.1225 11.3724 80.0071 11.4575 79.922C11.5426 79.8369 11.658 79.7891 11.7784 79.7891L56.721 79.9079C56.781 79.9071 56.8405 79.9181 56.8961 79.9403C56.9517 79.9626 57.0024 79.9957 57.0452 80.0376C57.088 80.082 57.1215 80.1345 57.1437 80.1921C57.166 80.2496 57.1766 80.3109 57.1749 80.3726V104.146C57.1749 104.226 57.143 104.303 57.0863 104.36C57.0295 104.417 56.9526 104.449 56.8723 104.449L11.5731 104.319Z" fill="white"/>
<path d="M11.778 80.0462L56.7207 80.1651C56.7625 80.1493 56.8086 80.1493 56.8504 80.1651C56.8679 80.2103 56.8679 80.2604 56.8504 80.3056L56.7747 104.079L11.4863 103.928L11.5403 80.1543C11.5387 80.1298 11.5424 80.1052 11.5511 80.0822C11.5597 80.0591 11.5732 80.0382 11.5906 80.0209C11.608 80.0035 11.6289 79.99 11.6519 79.9813C11.6749 79.9727 11.6995 79.969 11.724 79.9706L11.778 80.0462ZM11.778 79.5059C11.586 79.5059 11.4019 79.5822 11.2661 79.718C11.1303 79.8538 11.054 80.0379 11.054 80.2299L11 104.003C11 104.155 11.0603 104.301 11.1677 104.408C11.2752 104.516 11.4208 104.576 11.5727 104.576L56.8287 104.695C56.9806 104.695 57.1263 104.635 57.2337 104.527C57.3411 104.42 57.4015 104.274 57.4015 104.122V80.3488C57.4029 80.2528 57.3852 80.1575 57.3495 80.0684C57.3138 79.9793 57.2606 79.8982 57.1933 79.8298C57.1259 79.7615 57.0456 79.7072 56.957 79.6701C56.8685 79.6331 56.7735 79.614 56.6775 79.614L11.7348 79.4951L11.778 79.5059Z" fill="black"/>
<path d="M26.5279 93.6737L28.6892 94.3761C28.4482 95.4444 27.859 96.4024 27.0142 97.0993C26.0025 97.7782 24.7873 98.0867 23.5742 97.9725C22.3611 97.8583 21.2248 97.3284 20.3576 96.4725C19.3495 95.3205 18.8335 93.8189 18.9204 92.2905C18.8296 90.719 19.3438 89.1723 20.3576 87.9681C20.8475 87.4547 21.441 87.0515 22.0987 86.7851C22.7563 86.5186 23.4632 86.3952 24.1722 86.4228C24.7819 86.3948 25.3911 86.4884 25.9644 86.698C26.5376 86.9076 27.0635 87.2292 27.5113 87.6439C28.0772 88.2123 28.4738 88.9269 28.6567 89.7079L26.4199 90.2374C26.309 89.7038 26.0149 89.2259 25.5886 88.8864C25.1623 88.5469 24.6306 88.3673 24.0858 88.3787C23.7031 88.3662 23.3226 88.4404 22.9727 88.5957C22.6227 88.751 22.3124 88.9835 22.065 89.2756C21.4719 90.123 21.1965 91.1522 21.287 92.1825C21.1862 93.2493 21.4572 94.3183 22.0542 95.2082C22.2935 95.5023 22.5973 95.7372 22.9422 95.8946C23.2871 96.052 23.6636 96.1278 24.0425 96.1159C24.614 96.1229 25.168 95.919 25.5986 95.5432C26.0948 95.0315 26.4195 94.3782 26.5279 93.6737Z" fill="black"/>
<path d="M30.0947 94.1484L32.2559 93.9323C32.3236 94.5552 32.611 95.1337 33.0664 95.564C33.5288 95.9391 34.1146 96.128 34.7089 96.0935C35.2968 96.1309 35.8799 95.967 36.3623 95.6289C36.5296 95.5019 36.6661 95.3388 36.7615 95.1517C36.857 94.9645 36.9089 94.7583 36.9134 94.5483C36.9205 94.3031 36.8357 94.0642 36.6757 93.8783C36.4519 93.6491 36.1727 93.4816 35.8652 93.392C35.595 93.2948 34.9899 93.1327 34.0498 92.8949C33.1255 92.7324 32.25 92.363 31.4887 91.8143C31.1534 91.5406 30.8827 91.1963 30.6959 90.8059C30.5091 90.4155 30.4108 89.9886 30.4081 89.5558C30.4073 88.9828 30.5766 88.4225 30.8944 87.9457C31.2424 87.456 31.7273 87.08 32.2884 86.8651C32.9766 86.5962 33.7107 86.4641 34.4496 86.4761C35.5858 86.3944 36.7135 86.7242 37.6266 87.4054C37.974 87.716 38.2503 88.0978 38.4368 88.5249C38.6233 88.9519 38.7155 89.4141 38.7072 89.88L36.4379 89.9773C36.3967 89.4978 36.1722 89.0527 35.8112 88.7346C35.3962 88.4412 34.8912 88.3035 34.3848 88.3456C33.8359 88.3169 33.2919 88.4605 32.8287 88.7562C32.7158 88.8347 32.6242 88.9399 32.562 89.0625C32.4998 89.1851 32.4689 89.3212 32.4721 89.4586C32.4755 89.5895 32.5072 89.7181 32.565 89.8357C32.6228 89.9532 32.7054 90.0568 32.8071 90.1394C33.4509 90.5132 34.1577 90.7659 34.8926 90.885C35.7997 91.0146 36.686 91.2616 37.5293 91.6198C38.0316 91.8641 38.4604 92.2369 38.772 92.7004C39.0836 93.2522 39.2401 93.878 39.2249 94.5116C39.2096 95.1451 39.0233 95.7627 38.6856 96.2989C38.3231 96.8631 37.7945 97.3011 37.1727 97.5524C36.3926 97.8449 35.5634 97.9843 34.7306 97.963C33.5676 98.0296 32.4187 97.6811 31.4887 96.9796C30.6838 96.2453 30.186 95.2341 30.0947 94.1484Z" fill="black"/>
<path d="M40.5547 94.1484L42.7159 93.9323C42.7836 94.5552 43.0709 95.1337 43.5264 95.564C43.9887 95.9391 44.5745 96.128 45.1689 96.0935C45.7536 96.1328 46.3339 95.9687 46.8114 95.6289C46.9819 95.5042 47.1214 95.3418 47.2188 95.1543C47.3163 94.9669 47.3692 94.7595 47.3733 94.5483C47.3804 94.3031 47.2956 94.0642 47.1356 93.8783C46.9119 93.6491 46.6327 93.4816 46.3252 93.392C46.055 93.2948 45.4499 93.1327 44.5097 92.8949C43.5841 92.7372 42.7075 92.3673 41.9487 91.8143C41.6117 91.5422 41.3397 91.1981 41.1528 90.8074C40.9658 90.4166 40.8685 89.989 40.8681 89.5558C40.8691 88.9847 41.0341 88.4258 41.3435 87.9457C41.6953 87.4552 42.184 87.0793 42.7483 86.8651C43.4366 86.5962 44.1707 86.4641 44.9096 86.4761C46.0458 86.3944 47.1735 86.7242 48.0866 87.4054C48.4339 87.716 48.7103 88.0978 48.8968 88.5249C49.0832 88.9519 49.1755 89.4141 49.1672 89.88L46.8979 89.9773C46.8567 89.4978 46.6322 89.0527 46.2711 88.7346C45.8505 88.4446 45.3433 88.3073 44.8339 88.3456C44.2884 88.3163 43.7476 88.46 43.2886 88.7562C43.1758 88.8347 43.0842 88.9399 43.0219 89.0625C42.9597 89.1851 42.9288 89.3212 42.932 89.4586C42.9324 89.5901 42.9628 89.7197 43.0209 89.8377C43.0789 89.9557 43.1631 90.0588 43.267 90.1394C43.9108 90.5132 44.6177 90.7659 45.3526 90.885C46.196 91.0569 47.0159 91.329 47.7948 91.6955C48.3571 91.892 48.8544 92.2398 49.232 92.7004C49.5369 93.2543 49.6896 93.8792 49.6744 94.5113C49.6592 95.1434 49.4767 95.7602 49.1456 96.2989C48.7831 96.8631 48.2545 97.3011 47.6327 97.5524C46.8526 97.8449 46.0234 97.9843 45.1905 97.963C44.0273 98.0315 42.8778 97.6828 41.9487 96.9796C41.1438 96.2453 40.6459 95.2341 40.5547 94.1484Z" fill="black"/>
<path d="M147.211 132.316C136.935 119.932 125.513 126.319 122.606 129.842C96.0983 161.86 56.4398 168.344 52.4523 188.27C50.2911 199.076 59.4655 226.157 114.242 226.535C171.406 226.945 184.762 193.868 171.698 172.731C158.633 151.594 157.466 144.722 147.211 132.316Z" fill="#AAB6C2"/>
<path d="M115.279 226.826H114.199C80.6242 226.589 65.2795 216.388 58.3203 207.873C52.3554 200.557 51.2099 192.928 52.1392 188.227C54.16 177.929 65.4091 171.294 79.6408 162.897C92.8783 155.085 109.358 145.359 122.314 129.679C123.772 128.138 125.528 126.908 127.474 126.063C129.42 125.218 131.517 124.776 133.639 124.763C138.664 124.763 143.278 127.248 147.341 132.154C153.447 139.502 156.364 144.959 160.406 152.513C163.15 157.613 166.554 163.978 171.882 172.591C174.773 177.146 176.373 182.4 176.512 187.794C176.651 193.187 175.323 198.517 172.671 203.215C168.726 210.217 161.865 216.053 152.863 220.062C142.824 224.536 130.159 226.826 115.279 226.826ZM133.65 125.303C131.61 125.315 129.593 125.739 127.721 126.551C125.849 127.363 124.161 128.544 122.757 130.025C109.736 145.77 93.2133 155.528 79.9326 163.362C65.8198 171.694 54.6679 178.275 52.6903 188.324C51.7934 192.906 52.9173 200.351 58.7634 207.505C65.6469 215.934 80.8511 226.027 114.21 226.265C129.468 226.373 142.403 224.103 152.658 219.543C161.562 215.577 168.327 209.818 172.206 202.934C174.81 198.322 176.113 193.09 175.976 187.795C175.839 182.501 174.267 177.343 171.428 172.872C166.09 164.227 162.686 157.873 159.941 152.761C155.91 145.197 153.004 139.794 146.974 132.5C143.008 127.724 138.567 125.303 133.693 125.303H133.65Z" fill="black"/>
<path d="M86.6966 155.56C84.892 155.56 82.6659 154.749 79.6942 152.998C72.2164 148.6 71.7842 147.293 70.844 144.44C70.6603 143.889 70.4658 143.295 70.1957 142.603C70.0228 142.16 71.3735 141.187 72.7891 140.517C76.5388 143.705 79.0675 145.132 80.9693 145.132C81.5523 145.11 82.1239 144.963 82.6457 144.702C83.1675 144.441 83.6276 144.072 83.9951 143.619C84.5429 142.544 84.974 141.414 85.281 140.247C87.5179 134.034 92.1537 121.12 98.0214 118.127C98.4732 117.851 98.9772 117.67 99.5018 117.598C99.9449 117.598 100.085 117.987 100.42 119.186C100.539 119.618 100.68 120.115 100.874 120.677C102.787 126.275 100.366 138.864 95.8926 146.612C92.4779 152.555 90.1113 155.56 86.6966 155.56Z" fill="white"/>
<path d="M99.5024 117.911C99.7401 117.911 99.859 118.214 100.162 119.305C100.28 119.738 100.421 120.235 100.615 120.807C102.506 126.34 100.097 138.832 95.6662 146.504C92.2947 152.329 89.9822 155.29 86.6431 155.29C84.8817 155.29 82.6989 154.49 79.7812 152.772C72.3898 148.449 71.9684 147.142 71.0499 144.354C70.8662 143.814 70.6608 143.198 70.4015 142.528C70.4015 142.214 71.4821 141.447 72.7032 140.842C76.4205 143.997 78.9708 145.402 80.9159 145.402C81.5396 145.385 82.1524 145.234 82.712 144.958C83.2716 144.682 83.7648 144.288 84.1577 143.803C84.77 142.726 85.242 141.574 85.5625 140.377C87.7237 134.207 92.392 121.359 98.1732 118.408C98.5875 118.158 99.0461 117.989 99.524 117.911H99.5024ZM99.5024 117.371C98.9364 117.44 98.3915 117.628 97.9031 117.922C90.1875 121.877 84.6115 142.528 83.7471 143.489C83.4045 143.916 82.9746 144.264 82.4862 144.51C81.9978 144.756 81.4623 144.894 80.9159 144.916C79.2085 144.916 76.7987 143.684 72.7789 140.258C72.7789 140.258 69.537 141.75 69.8936 142.755C71.5686 147.077 70.5204 148.006 79.5002 153.291C82.4503 155.02 84.7196 155.884 86.6431 155.884C90.2523 155.884 92.6621 152.837 96.1309 146.829C100.648 139.027 103.079 126.405 101.123 120.689C100.432 118.646 100.443 117.447 99.5024 117.447V117.371Z" fill="black"/>
<path d="M136.729 157.537C134.816 157.829 132.839 158.056 130.764 158.196C128.042 158.367 125.31 158.323 122.595 158.067C122.459 158.062 122.325 158.103 122.215 158.183C122.105 158.263 122.026 158.378 121.99 158.51C116.37 158.985 110.751 159.59 105.164 160.001C96.4006 160.617 87.8746 161.2 79.8349 157.559C73.416 154.641 72.8325 152.977 65.2682 154.857C64.3173 155.095 60.8701 161.978 61.8103 161.73C65.7005 160.757 64.944 158.488 68.8018 158.812C68.3804 161.773 70.8982 163.956 72.9622 165.836C76.6159 169.014 80.4436 171.987 84.4275 174.74C88.6058 177.824 92.8346 180.849 97.1138 183.817C100.204 185.979 103.1 188.81 107.055 188.615C115.852 188.172 124.205 183.364 131.477 178.814C135.043 176.577 138.48 174.146 141.83 171.617C140.889 166.506 137.388 158.942 136.729 157.537Z" fill="black"/>
<path d="M105.412 136.823C102.413 137.334 99.3408 137.239 96.3786 136.542C95.8039 136.409 95.2375 136.243 94.682 136.045C91.9517 135.046 89.4573 133.493 87.3555 131.484C87.6797 129.928 90.0894 119.5 95.5141 114.746C97.0583 113.377 98.7552 112.191 100.571 111.212C102.516 110.207 104.591 109.656 106.126 110.521C106.385 110.661 106.622 110.839 106.828 111.05C111.55 115.708 108.233 128.005 105.412 136.823Z" fill="#3CBCC3"/>
<path d="M136.772 157.636C136.772 157.723 137.15 158.436 137.139 158.511C136.653 163.579 129.575 164.606 125.717 164.682C124.096 164.682 122.475 164.682 120.833 164.682C114.468 165.87 107.649 166.54 101.382 164.941C101.221 164.908 101.076 164.824 100.967 164.702C100.857 164.58 100.79 164.426 100.774 164.263C100.758 164.1 100.795 163.937 100.879 163.796C100.963 163.655 101.09 163.546 101.241 163.482C105.023 161.905 109.756 162.456 114.09 162.834C115.784 162.6 117.462 162.261 119.115 161.818C122.486 160.867 125.685 159.473 129.099 158.706C129.715 158.565 130.266 158.393 130.807 158.22C133.357 158.025 137.02 157.463 136.772 157.636Z" fill="black"/>
<path d="M101.047 137.449C98.8933 137.143 96.7656 136.673 94.6826 136.045C102.085 130.814 94.9852 123.607 97.4382 120.354C98.5188 118.971 99.0375 112.347 100.572 111.212C102.517 110.207 104.592 109.656 106.126 110.521C104.765 111.601 102.225 113.935 100.983 114.843C98.8214 117.858 100.712 122.494 100.766 126.168C100.885 126.892 101.458 137.255 101.047 137.449Z" fill="black"/>
<path d="M88.415 160.174C111.248 170.137 136.513 157.602 136.621 157.559C136.2 156.738 131.099 148.125 129.694 144.981C129.005 143.299 128.582 141.52 128.441 139.707C128.161 137.013 128.161 134.297 128.441 131.603C128.527 130.619 128.635 129.874 128.679 129.517C128.682 129.478 128.682 129.438 128.679 129.398C130.516 120.256 134.503 109.418 123.892 106.079C122.379 105.618 120.821 105.324 119.245 105.203C117.008 105.032 114.761 105.032 112.523 105.203C110.158 106.064 107.845 107.064 105.597 108.197C104.332 108.834 103.003 109.569 101.728 110.358C97.892 112.757 97.0599 117.566 97.2004 120.851C97.2869 123.131 100.01 127.972 100.756 128.955C99.1779 139.707 90.1764 157.051 88.415 160.174Z" fill="#3CBCC3"/>
<path d="M110.47 108.283C110.334 108.3 110.196 108.3 110.06 108.283C110.007 108.278 109.957 108.259 109.913 108.229C109.87 108.198 109.835 108.158 109.811 108.11C109.628 107.721 109.984 106.813 110.244 106.338V106.273V102.059L115.884 99.7246V104.955C115.398 105.463 112.643 108.283 110.481 108.283H110.47Z" fill="white"/>
<path d="M115.689 100.126V104.848C114.716 105.864 112.263 108.014 110.513 108.014C110.394 108.026 110.275 108.026 110.156 108.014C110.129 107.471 110.276 106.933 110.578 106.48L110.642 106.361V102.244L115.743 100.083L115.689 100.126ZM116.229 99.3262L110.048 101.887V106.21C110.048 106.21 108.892 108.371 110.048 108.555C110.203 108.571 110.358 108.571 110.513 108.555C112.998 108.555 116.229 105.064 116.229 105.064V99.3262Z" fill="black"/>
<path d="M110.47 104.187C108.633 104.187 107.034 103.334 106.569 102.123C105.491 98.869 104.731 95.5179 104.3 92.1169L113.809 89.1992C114.447 90.0637 117.656 94.7319 115.97 99.9405C115.652 101.157 114.94 102.234 113.945 103.002C112.95 103.771 111.728 104.188 110.47 104.187Z" fill="white"/>
<path d="M113.647 89.5145C114.457 90.6599 117.224 95.0256 115.646 99.8559C115.351 101.009 114.684 102.032 113.748 102.766C112.812 103.501 111.66 103.906 110.47 103.919C108.773 103.919 107.228 103.119 106.828 102.028C105.771 98.8665 105.025 95.6091 104.602 92.3024L113.701 89.5036L113.647 89.5145ZM113.852 88.8877L103.986 91.9242C104.416 95.4247 105.191 98.8742 106.299 102.222C106.807 103.552 108.536 104.459 110.448 104.459C111.761 104.457 113.036 104.019 114.074 103.216C115.112 102.412 115.855 101.288 116.186 100.018C118.132 94.0638 113.885 88.8877 113.885 88.8877H113.852Z" fill="black"/>
<path d="M118.553 81.8959C117.81 81.1311 116.823 80.6507 115.763 80.5382C114.703 80.4257 113.637 80.6881 112.75 81.2799C112.407 81.4266 112.1 81.648 111.853 81.9279C111.605 82.2078 111.423 82.5392 111.32 82.8982C111.216 83.2572 111.194 83.6347 111.254 84.0034C111.315 84.372 111.457 84.7226 111.67 85.0296C108.168 84.8783 95.8926 88.7794 103.089 96.6138C103.201 95.6855 103.538 94.7983 104.069 94.0291C104.601 93.2598 105.312 92.6315 106.141 92.1985C106.969 91.7655 107.891 91.5408 108.826 91.5438C109.761 91.5468 110.681 91.7774 111.507 92.2157C111.828 92.7084 112.096 93.2336 112.307 93.7826C112.861 95.4849 113.902 96.9875 115.3 98.105C117.364 99.5531 119.396 98.6129 119.623 96.5706C119.595 94.501 119.177 92.4553 118.391 90.5408C119.102 90.6145 119.819 90.4686 120.445 90.1228C121.071 89.777 121.576 89.2478 121.892 88.6065C122.8 86.3048 120.066 83.3223 118.553 81.8959Z" fill="black"/>
<path d="M113.798 96.2989C113.49 96.2337 113.217 96.0566 113.031 95.8018C112.702 95.4557 112.484 95.0192 112.404 94.5483C112.682 94.1651 113.096 93.9023 113.561 93.8135C113.678 93.82 113.792 93.8514 113.897 93.9054C114.001 93.9594 114.093 94.0349 114.166 94.1269C114.358 94.3173 114.492 94.5591 114.552 94.8234C114.611 95.0877 114.593 95.3635 114.501 95.6181C114.45 95.7742 114.364 95.9166 114.25 96.0346C114.135 96.1526 113.996 96.2429 113.842 96.2989H113.798Z" fill="white"/>
<path d="M113.56 94.0833C113.639 94.0866 113.716 94.1078 113.785 94.1452C113.854 94.1827 113.914 94.2354 113.96 94.2994C114.12 94.454 114.233 94.651 114.284 94.8674C114.336 95.0837 114.325 95.3103 114.252 95.5205C114.221 95.6344 114.163 95.7395 114.084 95.8276C114.006 95.9157 113.908 95.9844 113.798 96.0284C113.798 96.0284 113.528 95.9527 113.236 95.6177C112.974 95.3407 112.784 95.0028 112.685 94.6344C112.904 94.3542 113.213 94.1593 113.56 94.0833ZM113.56 93.543C112.804 93.543 112.134 94.4507 112.134 94.4507C112.058 95.1639 113.052 96.6119 113.798 96.6119H113.874C114.124 96.5173 114.345 96.3598 114.516 96.1547C114.688 95.9497 114.804 95.7039 114.853 95.4412C114.901 95.1784 114.882 94.9075 114.795 94.6545C114.709 94.4015 114.559 94.175 114.36 93.9968C114.263 93.877 114.141 93.7793 114.003 93.7103C113.866 93.6414 113.714 93.6027 113.56 93.597V93.543Z" fill="black"/>
<path d="M105.877 130.372C109.227 132.922 114.003 132.954 117.883 134.446C121.297 135.764 124.842 138.919 128.44 139.708C128.16 137.014 128.16 134.298 128.44 131.604C128.41 131.559 128.373 131.519 128.332 131.485C128.44 130.847 128.537 130.188 128.678 129.518C128.673 129.479 128.673 129.439 128.678 129.399C127.809 127.808 126.676 126.375 125.328 125.163C122.57 122.457 120.441 119.178 119.093 115.557C118.331 119.949 119.134 124.469 121.362 128.329C122.108 129.604 122.992 130.793 123.999 131.874C123.999 131.874 123.999 131.982 123.999 132.058C124.107 133.722 115.7 130.264 114.468 129.896C111.773 129.124 108.969 128.799 106.169 128.935C105.466 129.032 105.391 130.004 105.877 130.372Z" fill="black"/>
<path d="M126.679 178.804L125.372 178.555C125.497 178.405 125.606 178.242 125.696 178.069C125.847 177.788 126.971 166.052 126.777 165.858C125.609 164.983 122.778 166.377 121.374 166.463C120.037 166.674 118.685 166.782 117.332 166.787C115.311 166.604 113.291 167.328 111.378 166.69C105.726 164.821 99.9666 167.252 94.4879 164.907C91.3757 163.578 88.3716 166.128 85.6593 164.086C83.6494 162.573 81.8339 160.844 79.6943 159.482C78.6785 158.856 74.194 156.111 74.0751 159.223C73.9563 161.946 79.4782 164.237 81.3152 165.264C87.2046 168.505 92.1214 173.044 97.1678 177.356C100.637 180.306 103.835 184.477 108.741 184.174C114.901 183.807 116.5 186.206 122.314 184.174C122.984 183.947 127.436 178.922 126.679 178.804Z" fill="black"/>
<path d="M125.728 195.943C125.638 195.954 125.548 195.954 125.458 195.943C125.071 195.771 124.708 195.549 124.377 195.284L124.064 195.057C123.461 194.789 122.819 194.621 122.162 194.56L121.503 194.452C120.313 194.223 119.153 193.861 118.045 193.371C116.986 192.853 115.986 192.223 115.062 191.491C113.692 190.316 112.063 189.482 110.308 189.06C110.281 189.061 110.255 189.053 110.233 189.037C110.212 189.021 110.196 188.999 110.189 188.973L110.135 188.822H109.984C109.946 188.817 109.912 188.799 109.886 188.772C109.86 188.744 109.845 188.708 109.843 188.671C109.703 187.352 110.502 185.007 111.896 184.456C112.036 184.411 112.182 184.39 112.328 184.392C112.694 184.412 113.057 184.473 113.409 184.575L114.036 184.716C114.598 184.798 115.165 184.838 115.732 184.835C117.051 184.796 118.364 184.64 119.655 184.37C119.961 184.309 120.272 184.28 120.584 184.283C121.571 184.33 122.545 184.531 123.47 184.878C124.484 185.257 125.553 185.473 126.636 185.515H127.219C128.408 185.515 128.937 185.721 129.143 186.985C129.348 188.249 128.819 193.188 127.133 195.165C126.967 195.398 126.75 195.589 126.499 195.726C126.249 195.862 125.97 195.94 125.685 195.954L125.728 195.943Z" fill="white"/>
<path d="M120.628 184.553C121.586 184.598 122.531 184.795 123.427 185.137C124.465 185.526 125.56 185.745 126.669 185.785H127.252C128.333 185.785 128.733 185.958 128.906 187.028C129.143 188.443 128.538 193.144 126.96 194.992C126.817 195.192 126.632 195.358 126.417 195.477C126.202 195.597 125.963 195.667 125.718 195.683H125.512C125.183 195.509 124.872 195.302 124.583 195.067C124.474 194.977 124.358 194.894 124.237 194.819C123.609 194.532 122.937 194.353 122.249 194.289L121.601 194.181C120.431 193.97 119.288 193.626 118.197 193.155C117.16 192.641 116.179 192.021 115.268 191.307C113.88 190.134 112.237 189.301 110.47 188.876L110.395 188.649H110.157C110.06 187.438 110.805 185.277 112.048 184.802C112.158 184.778 112.273 184.778 112.383 184.802C112.723 184.821 113.061 184.879 113.388 184.975C113.604 185.039 113.824 185.086 114.047 185.115C114.619 185.207 115.197 185.251 115.776 185.245C117.11 185.21 118.438 185.051 119.742 184.769C120.034 184.717 120.331 184.692 120.628 184.694V184.553ZM120.628 184.013C120.302 184.01 119.976 184.039 119.655 184.099C118.379 184.372 117.081 184.527 115.776 184.564C115.223 184.566 114.67 184.526 114.123 184.445C113.552 184.293 112.97 184.184 112.383 184.121C112.203 184.116 112.023 184.146 111.853 184.207C110.351 184.791 109.465 187.255 109.627 188.692C109.636 188.787 109.675 188.877 109.739 188.947C109.804 189.018 109.89 189.065 109.984 189.081C110.007 189.154 110.051 189.218 110.111 189.267C110.17 189.315 110.243 189.344 110.319 189.351C113.237 189.805 115.333 192.452 117.991 193.674C119.12 194.168 120.302 194.531 121.514 194.754C122.366 194.837 123.202 195.037 124 195.348C124.435 195.704 124.91 196.009 125.415 196.256C125.519 196.267 125.624 196.267 125.729 196.256C128.7 196.256 129.77 188.919 129.446 186.974C129.208 185.472 128.441 185.277 127.285 185.277H126.679C124.453 185.277 122.768 184.045 120.628 184.045V184.013Z" fill="black"/>
<path d="M117.17 184.412C117.17 184.412 120.12 193.056 119.331 194.137C119.331 194.137 125.415 207.385 128.289 198.027C129.11 195.412 129.08 192.603 128.204 190.005C127.329 187.408 125.652 185.154 123.416 183.569C121.296 183.267 119.134 183.559 117.17 184.412Z" fill="black"/>
<path d="M113.907 184.099C110.525 180.208 94.1317 167.889 90.2523 164.572C86.6051 161.288 82.4575 158.607 77.9658 156.629C74.4646 155.203 69.7099 153.755 65.9061 154.684C62.5238 155.506 61.5837 157.289 60.6111 160.325C60.2768 161.317 60.0521 162.342 59.9411 163.383C59.6023 166.235 60.1614 169.121 61.5405 171.639C63.7017 175.508 67.7972 177.842 71.4281 180.133C75.6749 182.813 108.569 190.82 110.33 189.631C110.944 189.136 111.471 188.541 111.886 187.87C113.107 186.271 113.615 185.871 113.907 184.099Z" fill="black"/>
<path d="M109.94 186.218C106.374 184.057 102.268 183.139 98.2158 182.382C93.4636 181.629 88.7696 180.545 84.1678 179.14C78.8188 177.346 73.4589 175.261 68.9096 171.846C65.6538 169.291 62.6339 166.448 59.8865 163.353C59.5476 166.204 60.1067 169.09 61.4858 171.608C63.647 175.477 67.7425 177.811 71.3734 180.102C75.6202 182.782 108.514 190.789 110.275 189.601C110.89 189.105 111.416 188.51 111.831 187.839C111.291 187.202 110.653 186.655 109.94 186.218Z" fill="black"/>
<path d="M132.169 223.077C129.781 223.077 128.927 222.72 128.841 222.515C128.841 222.515 128.841 222.515 128.841 222.342C129.325 221.618 129.762 220.864 130.148 220.084C130.425 219.505 130.622 218.89 130.732 218.258C130.762 218.093 130.78 217.927 130.786 217.76C130.744 217.378 130.844 216.993 131.067 216.68C132.071 215.949 133.296 215.587 134.536 215.653C134.928 215.649 135.319 215.689 135.703 215.772V215.967L135.94 216.075C135.859 217.451 136.219 218.818 136.967 219.976C137.388 220.733 137.704 221.544 137.907 222.385C136.029 222.88 134.089 223.106 132.147 223.055L132.169 223.077Z" fill="white"/>
<path d="M134.579 215.944C134.893 215.945 135.208 215.97 135.519 216.02V216.171L135.702 216.258C135.678 217.622 136.054 218.963 136.783 220.116C137.145 220.774 137.435 221.47 137.647 222.19C135.882 222.634 134.065 222.841 132.244 222.806C131.221 222.887 130.191 222.758 129.219 222.428C129.704 221.718 130.137 220.974 130.515 220.202C130.798 219.6 131.002 218.965 131.121 218.311C131.151 218.132 131.169 217.952 131.175 217.771C131.147 217.464 131.219 217.157 131.38 216.895C132.318 216.212 133.464 215.876 134.622 215.944H134.579ZM134.579 215.404C133.268 215.322 131.971 215.704 130.915 216.485C130.472 216.949 130.602 217.684 130.515 218.181C130.402 218.791 130.209 219.383 129.943 219.943C129.56 220.71 129.131 221.454 128.657 222.169C128.116 223.012 129.954 223.314 132.169 223.314C134.935 223.314 138.285 222.828 138.199 222.331C137.81 220.17 135.864 218.3 136.243 216.096C136.252 216.037 136.24 215.978 136.211 215.927C136.182 215.876 136.136 215.836 136.081 215.815C136.081 215.685 136.016 215.555 135.81 215.501C135.406 215.409 134.993 215.366 134.579 215.372V215.404Z" fill="black"/>
<path d="M128.765 226.146C128.998 225.513 129.428 224.972 129.993 224.602C130.557 224.232 131.225 224.054 131.899 224.093C132.759 224.244 133.608 224.458 134.438 224.731C135.542 224.912 136.627 225.195 137.68 225.574C138.177 225.779 137.68 226.341 137.14 226.157C134.644 225.282 131.856 225.919 129.273 226.687C128.841 226.806 128.452 226.362 128.765 226.146Z" fill="#9BCEF5"/>
<path d="M142.975 180.145C142.619 176.071 142.381 171.586 140.328 168.085C139.066 165.925 137.146 164.225 134.849 163.233C134.051 162.899 133.217 162.66 132.364 162.52C130.354 162.196 128.311 162.066 126.636 163.201C126.095 163.566 125.627 164.027 125.253 164.563C123.211 167.415 122.53 172.127 122.325 175.704C122.146 180.37 122.607 185.038 123.697 189.579C124.778 194.301 128.592 213.493 130.181 218.031C130.181 218.15 130.57 218.226 131.099 218.258C132.05 218.292 133.002 218.234 133.941 218.085C134.589 218.012 135.217 217.814 135.789 217.502C137.378 216.464 143.407 184.91 142.975 180.145Z" fill="black"/>
<path d="M131.142 218.257C130.612 218.257 130.267 218.149 130.223 218.03C128.592 213.492 124.745 194.257 123.74 189.578C122.646 185.038 122.181 180.369 122.356 175.703C122.562 172.104 123.243 167.415 125.285 164.562C125.658 164.027 126.127 163.565 126.668 163.2C126.668 163.46 125.307 174.341 126.117 180.069C126.927 185.796 131.779 214.886 131.142 218.257Z" fill="black"/>
<path d="M118.747 88.5718C116.237 87.6265 113.973 86.1268 112.123 84.1845C111.443 83.4821 110.438 84.6167 111.108 85.2651C113.044 87.3133 115.409 88.9076 118.034 89.9334C118.974 90.2791 119.666 88.9284 118.747 88.5718Z" fill="#3CBCC3"/>
<path d="M112.35 93.9228L112.664 94.5171L113.744 96.3325C113.799 96.5359 113.898 96.7243 114.036 96.8837C114.263 97.1538 113.139 97.813 112.761 97.532C112.383 97.2511 111.075 96.138 111.075 96.138C110.921 95.668 110.877 95.169 110.945 94.6792C111.118 94.1929 111.972 93.7715 111.972 93.7715L112.35 93.9228Z" fill="white"/>
<path d="M122.022 116.711C121.688 116.676 121.368 116.557 121.092 116.366C121.052 116.297 120.995 116.24 120.927 116.198C120.86 116.157 120.783 116.133 120.703 116.128C120.655 116.127 120.607 116.137 120.562 116.155C120.518 116.174 120.478 116.201 120.444 116.236L119.363 115.425L119.752 110.584L120.163 107.634C120.973 107.569 123.902 107.364 125.35 107.364C125.587 107.346 125.826 107.346 126.063 107.364L126.884 107.861C126.657 109.082 126.322 110.746 126.247 110.941C126.171 111.135 124.95 112.951 124.15 114.183L122.022 116.711Z" fill="white"/>
<path d="M125.404 107.635C125.606 107.622 125.808 107.622 126.009 107.635L126.636 108.013C126.387 109.31 126.128 110.639 126.074 110.801C126.02 110.963 124.756 112.833 123.999 114.043L121.914 116.431C121.703 116.4 121.498 116.334 121.309 116.237C121.247 116.13 121.159 116.041 121.053 115.979C120.947 115.916 120.826 115.882 120.703 115.88C120.621 115.864 120.537 115.864 120.455 115.88L119.698 115.286L120.077 110.618L120.455 107.862C121.535 107.786 124.075 107.613 125.404 107.613V107.635ZM125.404 107.095C123.686 107.095 120.001 107.376 120.001 107.376L119.569 110.618L119.169 115.61L120.541 116.691C120.541 116.691 120.606 116.453 120.736 116.453C120.866 116.453 120.833 116.453 120.898 116.572C121.136 116.907 122.151 117.058 122.151 117.058L124.464 114.4C124.464 114.4 126.441 111.363 126.625 111.158C126.809 110.953 127.317 107.83 127.317 107.83L126.312 107.224C126.043 107.163 125.766 107.142 125.491 107.16L125.404 107.095Z" fill="black"/>
<path d="M101.728 110.542C101.024 111.104 100.268 111.596 99.4692 112.011C98.8748 112.195 96.1085 114.41 96.2274 116.399C96.3462 118.387 96.9298 121.575 96.9298 121.575L97.0486 120.991C97.0486 120.991 97.0486 120.419 97.416 120.786C97.7834 121.153 98.4966 120.71 98.4966 120.71L100.15 117.976L104.386 113.946L107.055 113.114L106.59 110.088L101.728 110.542Z" fill="#3CBCC3"/>
<path d="M132.374 153.268C124.086 153.268 114.101 150.34 114.004 150.307H113.907H113.82C113.295 150.536 112.743 150.699 112.178 150.793C111.52 151.004 110.836 151.12 110.146 151.139C109.781 151.141 109.417 151.09 109.066 150.988C108.854 150.924 108.649 150.845 108.45 150.75H108.342H108.233C107.594 151.02 106.907 151.159 106.213 151.161C105.934 151.16 105.656 151.139 105.381 151.096C105.325 151.089 105.273 151.07 105.226 151.041C105.179 151.011 105.14 150.97 105.111 150.923C105.081 150.861 105.065 150.792 105.065 150.723C105.065 150.654 105.081 150.586 105.111 150.523L105.197 150.253L104.927 150.177C104.765 150.129 104.617 150.044 104.495 149.929C104.435 149.867 104.388 149.795 104.356 149.715C104.325 149.635 104.309 149.55 104.311 149.464V149.313L104.17 149.237C104.004 149.148 103.851 149.035 103.717 148.902C103.501 148.699 103.35 148.438 103.281 148.15C103.212 147.862 103.228 147.56 103.327 147.281L103.565 146.655L102.96 146.936C101.942 147.477 101.04 148.211 100.302 149.097C100.262 149.141 100.214 149.178 100.16 149.204C100.106 149.23 100.048 149.245 99.9884 149.248C99.8928 149.242 99.8008 149.209 99.7226 149.154C99.6444 149.099 99.5831 149.023 99.5454 148.935C99.4705 148.778 99.4316 148.606 99.4316 148.432C99.4316 148.258 99.4705 148.087 99.5454 147.93C100.16 146.906 101.123 146.139 102.258 145.769C103.015 145.525 103.807 145.408 104.603 145.423C104.84 145.423 105.067 145.423 105.305 145.423H105.586H105.759L106.137 145.347L105.943 145.012L105.856 144.872C105.81 144.815 105.771 144.753 105.737 144.688C105.507 144.193 105.472 143.63 105.64 143.11C105.683 142.991 105.751 142.883 105.838 142.792C105.926 142.701 106.031 142.629 106.148 142.581C106.238 142.548 106.333 142.53 106.429 142.527C106.915 142.527 107.347 143.121 107.704 143.607C107.812 143.759 107.909 143.899 108.007 144.018C108.619 144.805 109.374 145.468 110.233 145.974C110.928 146.234 111.655 146.401 112.394 146.471L113.064 146.579H113.431C113.701 146.609 113.968 146.66 114.231 146.73C114.231 146.73 115.787 146.86 117.905 146.86C122.908 146.86 129.273 146.212 131.11 143.143C131.694 142.17 130.202 132.52 127.544 129.959C126.539 128.997 125.383 127.928 124.129 126.858C121.601 124.711 119.885 121.763 119.267 118.505C118.788 115.874 119.016 113.163 119.926 110.649C120.228 109.83 120.777 109.124 121.497 108.631C122.217 108.137 123.073 107.879 123.946 107.893C124.947 107.905 125.913 108.264 126.68 108.909C130.797 112.259 137.075 120.18 138.912 122.525C146.012 131.818 147.481 143.056 142.543 150.005C140.987 152.166 137.572 153.311 132.407 153.311L132.374 153.268Z" fill="white"/>
<path d="M123.902 108.153C124.843 108.154 125.754 108.478 126.485 109.071C130.688 112.508 137.377 120.958 138.674 122.665V122.73C145.644 131.84 147.113 142.981 142.251 149.81C140.738 151.972 137.399 153.052 132.331 153.052C124.086 153.052 114.133 150.135 114.036 150.102H113.841L113.658 150.189C113.157 150.405 112.63 150.558 112.091 150.642H112.015C111.396 150.839 110.752 150.948 110.103 150.967C109.766 150.971 109.431 150.923 109.108 150.826C108.91 150.77 108.718 150.694 108.536 150.599L108.319 150.491L108.093 150.588C107.488 150.845 106.837 150.978 106.18 150.977C105.916 150.977 105.652 150.955 105.391 150.913C105.326 150.913 105.315 150.913 105.315 150.913C105.303 150.885 105.297 150.856 105.297 150.826C105.297 150.796 105.303 150.767 105.315 150.74L105.51 150.21L104.959 150.048C104.84 150.02 104.732 149.961 104.645 149.875C104.608 149.837 104.58 149.791 104.561 149.741C104.542 149.69 104.534 149.637 104.537 149.583V149.281L104.267 149.13C104.122 149.055 103.991 148.956 103.878 148.838C103.698 148.671 103.571 148.455 103.513 148.217C103.456 147.978 103.47 147.728 103.554 147.498L104.019 146.244L102.808 146.828C101.762 147.364 100.83 148.098 100.064 148.989C100.064 149.054 99.9664 149.054 99.9556 149.054C99.9124 149.049 99.8715 149.032 99.8372 149.005C99.8029 148.979 99.7765 148.943 99.761 148.903C99.7 148.778 99.6682 148.641 99.6682 148.503C99.6682 148.364 99.7 148.227 99.761 148.103C100.357 147.171 101.259 146.476 102.311 146.136C103.041 145.902 103.804 145.789 104.57 145.801C104.797 145.801 105.024 145.801 105.251 145.801H105.348H105.434H105.586H105.78L106.536 145.661L106.137 145.002C106.114 144.948 106.085 144.897 106.05 144.85C106.014 144.802 105.982 144.752 105.953 144.699C105.753 144.269 105.719 143.781 105.856 143.327C105.886 143.242 105.933 143.165 105.994 143.1C106.056 143.035 106.13 142.983 106.212 142.948H106.396C106.753 142.948 107.152 143.5 107.477 143.91L107.801 144.332C108.446 145.159 109.246 145.853 110.157 146.374C110.853 146.632 111.579 146.802 112.318 146.882L112.988 146.99H113.355C113.617 147.02 113.877 147.067 114.133 147.13H114.23C114.295 147.13 115.787 147.26 117.872 147.26C122.951 147.26 129.402 146.59 131.315 143.402C132.082 142.116 130.288 132.391 127.695 129.895C126.42 128.674 125.123 127.528 124.269 126.782C121.791 124.677 120.109 121.786 119.504 118.591C119.026 116.008 119.25 113.343 120.152 110.876C120.434 110.109 120.948 109.448 121.621 108.986C122.295 108.523 123.096 108.281 123.913 108.293L123.902 108.153ZM123.902 107.612C122.965 107.591 122.045 107.862 121.27 108.389C120.495 108.916 119.904 109.672 119.579 110.552C118.646 113.105 118.41 115.862 118.899 118.537C119.527 121.858 121.274 124.863 123.848 127.053C124.928 127.96 126.106 129.041 127.252 130.143C129.824 132.607 131.282 142.16 130.785 142.992C128.938 146.071 122.141 146.579 117.818 146.579C115.722 146.579 114.23 146.46 114.22 146.46C113.809 146.342 113.355 146.309 113.02 146.244C112.101 146.158 111.194 145.966 110.319 145.672C109.48 145.191 108.745 144.548 108.157 143.781C107.704 143.24 107.163 142.203 106.364 142.203C106.234 142.203 106.105 142.229 105.985 142.278C105.024 142.667 105.078 143.975 105.434 144.742C105.496 144.865 105.565 144.984 105.64 145.099C105.508 145.111 105.378 145.132 105.251 145.164C105.013 145.164 104.775 145.164 104.537 145.164C103.713 145.149 102.892 145.27 102.106 145.52C100.885 145.931 98.5075 147.455 99.2207 149.021C99.2796 149.158 99.3757 149.275 99.4981 149.359C99.6204 149.443 99.764 149.491 99.9123 149.497C100.009 149.494 100.104 149.472 100.191 149.431C100.278 149.39 100.356 149.332 100.42 149.259C101.144 148.418 102.02 147.722 103.003 147.206C102.886 147.531 102.865 147.883 102.942 148.22C103.018 148.557 103.19 148.865 103.435 149.108C103.594 149.26 103.772 149.39 103.965 149.497C103.968 149.738 104.06 149.969 104.224 150.145C104.38 150.293 104.569 150.4 104.775 150.459C104.736 150.553 104.719 150.654 104.725 150.756C104.732 150.857 104.761 150.956 104.811 151.044C104.861 151.133 104.93 151.209 105.014 151.266C105.098 151.324 105.193 151.362 105.294 151.377C105.579 151.429 105.868 151.454 106.158 151.453C106.901 151.457 107.636 151.31 108.319 151.021C108.531 151.127 108.751 151.214 108.979 151.28C109.351 151.387 109.737 151.441 110.124 151.442C110.826 151.426 111.522 151.306 112.188 151.085C112.78 150.996 113.358 150.829 113.906 150.588C113.906 150.588 123.924 153.56 132.352 153.56C136.837 153.56 140.878 152.728 142.715 150.145C148.032 142.689 145.773 131.105 139.128 122.417C138.944 122.19 131.445 112.464 126.798 108.671C125.98 107.984 124.949 107.602 123.88 107.591L123.902 107.612Z" fill="black"/>
<path d="M127.295 132.187C126.214 131.182 119.579 124.622 118.553 118.139C118.088 115.189 119.007 108.067 122.681 107.214C128.559 105.852 136.426 114.4 141.851 120.84C139.365 126.481 133.897 130.415 127.295 132.187Z" fill="#3CBCC3"/>
<path d="M119.115 120.041C119.115 120.041 118.834 119.609 118.813 120.149C118.791 120.69 116.651 118.993 116.489 117.858C116.327 116.724 115.873 113.828 116.489 112.455C117.666 110.464 118.98 108.558 120.423 106.75L124.529 106.62L125.955 107.052L128.938 108.792L128.203 113.115C128.203 113.115 123.881 121.111 123.686 121.111C123.492 121.111 119.115 120.041 119.115 120.041Z" fill="#3CBCC3"/>
<path d="M139.646 224.18V224.353C139.643 225.207 139.325 226.03 138.753 226.664C138.18 227.298 137.394 227.699 136.545 227.789H136.199H130.418H130.072C129.224 227.697 128.439 227.295 127.867 226.662C127.295 226.028 126.976 225.206 126.971 224.353V224.18C126.976 223.955 127.016 223.733 127.09 223.521C127.09 223.38 127.09 223.24 127.165 223.11C127.349 222.149 129.986 219.944 129.986 219.944C134.492 221.219 137.247 219.825 137.247 219.825C138.355 220.749 139.139 222.002 139.484 223.402C139.586 223.649 139.641 223.913 139.646 224.18Z" fill="black"/>
<path d="M107.347 161.179L127.457 162.4L108.211 167.792L107.347 161.179Z" fill="#AAB6C2"/>
<path d="M108.471 167.999L127.198 162.747L127.273 164.109L108.471 169.857V167.999Z" fill="white"/>
<path d="M126.95 163.103V163.913L108.698 169.489V168.203L126.907 163.103H126.95ZM127.447 162.4L108.201 167.803V170.235L127.566 164.313L127.458 162.411L127.447 162.4Z" fill="black"/>
<path d="M66.5869 165.275L108.212 167.793L108.201 170.225L66.5977 167.447L66.5869 165.275Z" fill="#AAB6C2"/>
<path d="M66.8129 165.026L63.7224 143.262C63.6997 143.069 63.7178 142.873 63.7756 142.686C63.8334 142.5 63.9295 142.329 64.0578 142.182C64.1861 142.035 64.3437 141.917 64.5204 141.835C64.6972 141.753 64.8891 141.709 65.0839 141.706L103.446 144.029C103.764 144.045 104.067 144.173 104.301 144.39C104.534 144.608 104.683 144.901 104.721 145.218L107.887 167.511L66.8129 165.026Z" fill="white"/>
<path d="M65.0844 141.977H65.16L103.424 144.289C103.692 144.288 103.95 144.385 104.149 144.563C104.349 144.74 104.476 144.986 104.505 145.251L107.574 167.263L67.0511 164.81L64.0038 143.23C63.9785 143.075 63.9877 142.915 64.0305 142.764C64.0734 142.612 64.149 142.471 64.252 142.352C64.355 142.232 64.4829 142.137 64.6267 142.072C64.7705 142.007 64.9267 141.975 65.0844 141.977ZM65.0844 141.437C64.8496 141.438 64.6178 141.489 64.4043 141.586C64.1908 141.684 64.0006 141.826 63.8462 142.003C63.6918 142.179 63.5769 142.387 63.5091 142.612C63.4412 142.837 63.422 143.073 63.4527 143.306L66.5864 165.275L108.201 167.793L104.959 145.186C104.909 144.807 104.729 144.457 104.449 144.197C104.169 143.936 103.806 143.782 103.424 143.76L65.1925 141.447L65.0844 141.437Z" fill="black"/>
<path d="M139.646 224.352C139.641 225.205 139.322 226.027 138.75 226.66C138.178 227.294 137.393 227.695 136.545 227.788H136.188H130.418H130.061C129.214 227.695 128.43 227.293 127.86 226.659C127.29 226.026 126.974 225.204 126.971 224.352H139.646Z" fill="black"/>
<path d="M203.586 170.603L191.234 165.2V162.228L203.586 156.89V160.38L194.941 163.676L203.586 167.091V170.603Z" fill="black"/>
<path d="M204.721 172.958L209.184 154.296H211.777L207.271 172.915L204.721 172.958Z" fill="black"/>
<path d="M212.912 170.612V167.133L221.557 163.739L212.912 160.39V156.942L225.274 162.281V165.231L212.912 170.612Z" fill="black"/>
<path d="M194.38 43.3714C193.898 43.3749 193.421 43.4703 192.975 43.6523C192.638 43.8269 192.357 44.0928 192.164 44.4196C191.922 44.8397 191.761 45.3016 191.689 45.7811C191.606 46.4984 191.574 47.2206 191.592 47.9424C191.629 49.0997 191.553 50.2578 191.365 51.4003C191.248 51.9909 190.963 52.535 190.543 52.9672C190.044 53.4167 189.443 53.7392 188.793 53.9073C187.992 54.0877 187.171 54.164 186.351 54.1343H185.67V51.0221C186.27 51.06 186.872 51.0016 187.453 50.8492C187.709 50.758 187.926 50.5827 188.069 50.3521C188.226 50.0145 188.296 49.6432 188.274 49.2715C188.274 48.7636 188.274 47.7695 188.382 46.3106C188.389 45.577 188.506 44.8486 188.728 44.1494C188.89 43.6567 189.143 43.1986 189.474 42.7987C189.809 42.4061 190.211 42.0767 190.662 41.8261C190.138 41.5099 189.674 41.1039 189.29 40.6266C188.853 39.9795 188.572 39.2397 188.469 38.4654C188.382 37.8711 188.307 36.5635 188.263 34.5536C188.293 34.1212 188.235 33.6873 188.09 33.2785C187.971 33.045 187.766 32.8669 187.518 32.7814C186.913 32.6371 186.29 32.5825 185.67 32.6193V29.6152H186.34C187.227 29.5845 188.114 29.6754 188.977 29.8853C189.565 30.04 190.099 30.3538 190.52 30.7923C190.941 31.2308 191.234 31.7769 191.365 32.3708C191.546 33.3431 191.622 34.3322 191.592 35.3208C191.555 36.3366 191.616 37.3535 191.775 38.3573C191.898 38.9219 192.197 39.4327 192.629 39.8162C193.15 40.1528 193.759 40.3294 194.38 40.3241V43.3714Z" fill="black"/>
<path d="M158.784 40.3241C159.402 40.3298 160.007 40.1531 160.524 39.8162C160.96 39.4357 161.259 38.9235 161.378 38.3573C161.548 37.3547 161.613 36.337 161.572 35.3208C161.54 34.3326 161.612 33.3437 161.788 32.3708C161.919 31.7769 162.212 31.2308 162.633 30.7923C163.054 30.3538 163.588 30.04 164.176 29.8853C165.039 29.6754 165.926 29.5845 166.813 29.6152H167.483V32.6625C166.863 32.6257 166.24 32.6803 165.635 32.8246C165.391 32.9157 165.187 33.0922 165.063 33.3217C164.924 33.7318 164.865 34.1646 164.89 34.5968C164.89 35.9035 164.822 37.2092 164.684 38.5086C164.585 39.2821 164.308 40.0219 163.874 40.6698C163.488 41.1445 163.024 41.5501 162.502 41.8693C162.949 42.1257 163.35 42.4543 163.69 42.8419C164.013 43.2471 164.265 43.7037 164.436 44.1926C164.648 44.8938 164.761 45.6213 164.771 46.3539C164.846 47.8127 164.879 48.8069 164.879 49.3147C164.862 49.686 164.933 50.056 165.084 50.3954C165.227 50.626 165.445 50.8012 165.7 50.8924C166.281 51.0449 166.883 51.1032 167.483 51.0653V54.1235H166.813C165.993 54.1538 165.172 54.0775 164.371 53.8965C163.716 53.7308 163.112 53.4081 162.61 52.9564C162.191 52.5242 161.905 51.9801 161.788 51.3895C161.605 50.2465 161.533 49.0885 161.572 47.9316C161.582 47.2096 161.546 46.4877 161.464 45.7703C161.397 45.2895 161.236 44.8268 160.989 44.4088C160.796 44.082 160.515 43.8161 160.178 43.6415C159.732 43.4595 159.255 43.3641 158.773 43.3606L158.784 40.3241Z" fill="black"/>
<path d="M178.256 52.4055C178.256 52.7394 178.157 53.0657 177.971 53.3432C177.786 53.6206 177.522 53.8367 177.213 53.964C176.904 54.0912 176.565 54.124 176.238 54.058C175.91 53.9921 175.61 53.8305 175.375 53.5936C175.139 53.3568 174.98 53.0554 174.916 52.7277C174.852 52.4 174.887 52.0607 175.016 51.7529C175.145 51.445 175.363 51.1825 175.642 50.9986C175.92 50.8147 176.247 50.7176 176.581 50.7198C177.027 50.7226 177.453 50.9015 177.766 51.2173C178.08 51.5331 178.256 51.9603 178.256 52.4055Z" fill="black"/>
<path d="M183.638 52.4055C183.636 52.7363 183.536 53.0591 183.35 53.3331C183.165 53.6071 182.903 53.8201 182.597 53.9452C182.29 54.0703 181.954 54.102 181.63 54.0361C181.305 53.9703 181.008 53.8099 180.775 53.5752C180.542 53.3406 180.383 53.0421 180.319 52.7175C180.256 52.3929 180.29 52.0567 180.417 51.7512C180.544 51.4458 180.758 51.1848 181.034 51.0013C181.309 50.8177 181.632 50.7197 181.963 50.7197C182.184 50.7197 182.403 50.7634 182.606 50.8482C182.81 50.9331 182.996 51.0574 183.151 51.2141C183.307 51.3708 183.43 51.5567 183.514 51.7612C183.597 51.9656 183.639 52.1846 183.638 52.4055Z" fill="black"/>
<path d="M172.875 52.4055C172.875 52.7389 172.777 53.0648 172.591 53.342C172.406 53.6193 172.143 53.8353 171.835 53.9629C171.527 54.0905 171.188 54.1239 170.861 54.0588C170.534 53.9938 170.233 53.8332 169.998 53.5975C169.762 53.3617 169.601 53.0614 169.536 52.7344C169.471 52.4073 169.505 52.0684 169.632 51.7604C169.76 51.4523 169.976 51.1891 170.253 51.0038C170.53 50.8186 170.856 50.7197 171.19 50.7197C171.637 50.7197 172.066 50.8973 172.382 51.2135C172.698 51.5296 172.875 51.9584 172.875 52.4055Z" fill="black"/>
</svg>
