<svg width="294" height="248" viewBox="0 0 294 248" fill="none" xmlns="http://www.w3.org/2000/svg">
<g clip-path="url(#clip0_2117_16856)">
<path d="M261.941 226.549H38.5791V228.102H261.941V226.549Z" fill="#1D1D2C"/>
<path d="M245.292 226.549H104.928C103.979 226.562 103.039 226.366 102.175 225.976C101.31 225.586 100.542 225.01 99.9248 224.29C99.3074 223.569 98.856 222.722 98.6025 221.808C98.349 220.894 98.2996 219.935 98.4578 219L110.902 123.321C111.235 121.255 112.279 119.37 113.854 117.992C115.429 116.613 117.436 115.828 119.528 115.772H259.817C260.765 115.759 261.705 115.954 262.569 116.345C263.434 116.735 264.202 117.311 264.819 118.031C265.437 118.751 265.888 119.599 266.142 120.513C266.395 121.427 266.445 122.386 266.286 123.321L253.843 219C253.51 221.053 252.476 222.927 250.917 224.303C249.358 225.68 247.37 226.473 245.292 226.549Z" fill="#1D1D2C"/>
<path d="M239.663 219.42H99.288C98.3395 219.433 97.3997 219.238 96.5352 218.848C95.6706 218.457 94.9025 217.882 94.2851 217.161C93.6678 216.441 93.2164 215.594 92.9629 214.679C92.7094 213.765 92.6599 212.807 92.8181 211.871L105.262 123.321C105.595 121.255 106.64 119.37 108.215 117.992C109.79 116.613 111.796 115.828 113.888 115.772H254.231C255.179 115.759 256.119 115.954 256.984 116.345C257.848 116.735 258.616 117.311 259.234 118.031C259.851 118.751 260.302 119.599 260.556 120.513C260.81 121.427 260.859 122.386 260.701 123.321L248.279 211.86C247.948 213.927 246.906 215.813 245.333 217.193C243.76 218.573 241.755 219.361 239.663 219.42Z" fill="#414267"/>
<path d="M105.349 215.096C104.518 215.115 103.694 214.954 102.932 214.622C102.171 214.291 101.49 213.798 100.938 213.177C100.388 212.529 99.9856 211.769 99.7602 210.949C99.5348 210.129 99.4916 209.27 99.6336 208.432L111.096 126.794C111.394 124.952 112.324 123.271 113.728 122.041C115.131 120.811 116.919 120.108 118.784 120.054H248.182C249.012 120.035 249.837 120.197 250.599 120.528C251.36 120.86 252.04 121.353 252.592 121.974C253.142 122.622 253.545 123.382 253.772 124.202C253.999 125.021 254.046 125.88 253.908 126.719L242.435 208.335C242.137 210.177 241.206 211.858 239.803 213.088C238.4 214.318 236.612 215.021 234.746 215.075L105.349 215.096Z" fill="white"/>
<path d="M248.171 120.324C248.963 120.302 249.751 120.454 250.478 120.771C251.205 121.088 251.853 121.562 252.376 122.158C252.899 122.775 253.282 123.499 253.498 124.279C253.714 125.06 253.758 125.877 253.627 126.676L242.154 208.324C241.857 210.095 240.956 211.708 239.603 212.888C238.25 214.068 236.529 214.742 234.735 214.795H105.337C104.545 214.814 103.758 214.659 103.032 214.343C102.306 214.026 101.657 213.555 101.132 212.962C100.608 212.345 100.225 211.62 100.011 210.84C99.7966 210.059 99.7559 209.241 99.8917 208.443L111.354 126.817C111.65 125.046 112.552 123.433 113.905 122.253C115.258 121.073 116.979 120.399 118.773 120.346L248.171 120.324ZM248.171 119.785H118.773C116.84 119.843 114.988 120.575 113.538 121.856C112.089 123.136 111.133 124.884 110.837 126.795L99.3633 208.4C99.2055 209.266 99.2432 210.156 99.4735 211.006C99.7038 211.855 100.121 212.643 100.695 213.31C101.268 213.978 101.984 214.509 102.789 214.865C103.594 215.221 104.468 215.392 105.348 215.367H234.746C236.674 215.313 238.524 214.588 239.975 213.316C241.426 212.044 242.387 210.305 242.693 208.4L254.155 126.795C254.313 125.929 254.275 125.039 254.045 124.189C253.815 123.339 253.397 122.552 252.824 121.884C252.25 121.217 251.535 120.686 250.73 120.33C249.925 119.974 249.05 119.803 248.171 119.828V119.785Z" fill="#1D1D2C"/>
<path d="M39.4092 210.361H248.915V217.145C248.915 219.639 247.924 222.031 246.161 223.794C244.397 225.558 242.006 226.549 239.512 226.549H48.8121C46.3183 226.549 43.9266 225.558 42.1632 223.794C40.3998 222.031 39.4092 219.639 39.4092 217.145V210.361Z" fill="#1D1D2C"/>
<path d="M247.836 216.325H39.1826V210.361H248.494L247.836 216.325Z" fill="#414267"/>
<path d="M117.943 206.339C117.639 206.342 117.338 206.282 117.059 206.161C116.781 206.04 116.531 205.862 116.326 205.638C116.126 205.4 115.98 205.121 115.899 204.822C115.817 204.522 115.8 204.208 115.851 203.902L134.182 73.8211C134.337 72.9326 134.793 72.1249 135.476 71.5351C136.158 70.9453 137.023 70.6099 137.924 70.5858H243.469C243.874 70.5711 244.277 70.6455 244.65 70.8039C245.023 70.9623 245.356 71.2008 245.626 71.5025C245.89 71.8155 246.082 72.1821 246.19 72.5769C246.298 72.9716 246.319 73.3851 246.251 73.7888L227.92 203.869C227.808 204.558 227.458 205.185 226.933 205.644C226.407 206.102 225.738 206.363 225.041 206.382L117.943 206.339Z" fill="white"/>
<path d="M243.415 70.8131C243.781 70.8002 244.144 70.8698 244.479 71.0167C244.814 71.1635 245.112 71.384 245.35 71.6616C245.589 71.9392 245.761 72.2668 245.856 72.6203C245.95 72.9737 245.963 73.3439 245.895 73.7033L227.564 203.784C227.464 204.409 227.148 204.98 226.671 205.397C226.195 205.815 225.588 206.053 224.954 206.07H117.943C117.678 206.075 117.415 206.024 117.171 205.92C116.928 205.816 116.709 205.661 116.53 205.466C116.355 205.256 116.227 205.01 116.157 204.745C116.086 204.481 116.073 204.204 116.12 203.935L134.452 73.8543C134.587 73.0227 135.007 72.2642 135.641 71.7092C136.274 71.1542 137.082 70.8373 137.924 70.8131H243.415ZM243.415 70.2739H137.87C136.897 70.3016 135.964 70.6679 135.231 71.3096C134.499 71.9513 134.014 72.8283 133.858 73.7896L115.527 203.859C115.465 204.205 115.482 204.56 115.576 204.899C115.67 205.237 115.84 205.549 116.072 205.813C116.305 206.076 116.594 206.284 116.918 206.42C117.241 206.556 117.592 206.617 117.943 206.598H225.008C225.774 206.587 226.51 206.304 227.086 205.8C227.663 205.297 228.042 204.605 228.157 203.848L246.488 73.768C246.567 73.3317 246.548 72.8833 246.431 72.4555C246.314 72.0277 246.104 71.6313 245.814 71.2954C245.525 70.9595 245.164 70.6925 244.758 70.5139C244.353 70.3353 243.912 70.2496 243.469 70.2631L243.415 70.2739Z" fill="#1D1D2C"/>
<path d="M245.227 82.3747H132.651L133.859 73.7472C134.016 72.7869 134.502 71.911 135.234 71.2696C135.966 70.6283 136.898 70.2613 137.87 70.2315H243.416C243.859 70.2197 244.3 70.3069 244.706 70.4868C245.112 70.6666 245.472 70.9347 245.761 71.2714C246.05 71.6081 246.261 72.005 246.377 72.4333C246.494 72.8615 246.514 73.3104 246.435 73.7472L245.227 82.3747Z" fill="#1D1D2C"/>
<path d="M152.869 76.3234C152.94 75.8032 153.198 75.3267 153.595 74.9832C153.992 74.6398 154.501 74.4529 155.026 74.4577C155.262 74.4508 155.496 74.4965 155.712 74.5917C155.928 74.6869 156.12 74.829 156.273 75.0078C156.427 75.1865 156.54 75.3974 156.602 75.625C156.664 75.8526 156.674 76.0912 156.632 76.3234C156.547 76.8361 156.284 77.3024 155.89 77.6414C155.496 77.9803 154.995 78.1703 154.476 78.1783C154.241 78.1869 154.006 78.1427 153.79 78.0488C153.574 77.9549 153.382 77.8138 153.228 77.6358C153.074 77.4578 152.962 77.2475 152.9 77.0204C152.837 76.7933 152.827 76.5551 152.869 76.3234Z" fill="#414267"/>
<path d="M145.71 76.3235C145.793 75.8088 146.055 75.3399 146.449 74.9989C146.844 74.6578 147.345 74.4663 147.866 74.4578C148.102 74.4505 148.336 74.4961 148.552 74.5913C148.767 74.6866 148.958 74.829 149.112 75.008C149.265 75.187 149.376 75.3982 149.437 75.6259C149.497 75.8535 149.506 76.0919 149.462 76.3235C149.389 76.8417 149.13 77.3156 148.733 77.6569C148.336 77.9982 147.829 78.1835 147.306 78.1784C147.071 78.1854 146.838 78.1399 146.624 78.0453C146.409 77.9507 146.218 77.8093 146.066 77.6315C145.913 77.4537 145.801 77.244 145.74 77.0177C145.678 76.7914 145.668 76.5542 145.71 76.3235Z" fill="#BAE1FD"/>
<path d="M138.56 76.3228C138.631 75.8026 138.889 75.3261 139.286 74.9826C139.683 74.6392 140.192 74.4523 140.717 74.4571C140.949 74.4566 141.179 74.5071 141.389 74.6051C141.6 74.7031 141.786 74.8461 141.935 75.0241C142.084 75.2021 142.193 75.4106 142.252 75.635C142.312 75.8595 142.322 76.0942 142.281 76.3228C142.195 76.8355 141.932 77.3018 141.538 77.6408C141.144 77.9797 140.644 78.1697 140.124 78.1777C139.892 78.1798 139.663 78.1308 139.452 78.034C139.242 77.9373 139.055 77.7953 138.906 77.6181C138.756 77.4409 138.648 77.233 138.588 77.0091C138.529 76.7852 138.519 76.5508 138.56 76.3228Z" fill="white"/>
<path d="M237.41 74.9538L238.456 74.0371L239.588 75.3528L241.087 74.0371L241.874 74.9538L240.375 76.2695L241.507 77.5851L240.461 78.5126L239.329 77.1969L237.83 78.5126L237.043 77.5851L238.542 76.2695L237.41 74.9538Z" fill="white"/>
<path d="M143.877 115.526L144.017 114.221H133.493L133.353 115.526H143.877Z" fill="#414267"/>
<path d="M156.17 111.588L156.31 110.283H134.043L133.902 111.588H156.17Z" fill="#414267"/>
<path d="M152.32 107.662L152.46 106.357H134.603L134.463 107.662H152.32Z" fill="#1D1D2C"/>
<path d="M152.405 107.739H134.354L134.505 106.305H152.567L152.405 107.739ZM134.57 107.599H152.222L152.352 106.434H134.732L134.57 107.599Z" fill="#1D1D2C"/>
<path d="M148.826 115.526L148.966 114.221H145.763L145.634 115.526H148.826Z" fill="#414267"/>
<path d="M145.516 103.877L145.656 102.572H135.131L134.991 103.877H145.516Z" fill="#414267"/>
<path d="M157.797 99.9524L157.938 98.6367H135.681L135.541 99.9524H157.797Z" fill="#414267"/>
<path d="M153.958 96.0158L154.099 94.7109H136.231L136.091 96.0158H153.958Z" fill="#414267"/>
<path d="M150.314 103.877L150.454 102.572H147.252L147.111 103.877H150.314Z" fill="#414267"/>
<path d="M147.154 92.2307L147.294 90.9258H136.77L136.63 92.2307H147.154Z" fill="#414267"/>
<path d="M159.436 88.3049L159.576 87H137.32L137.18 88.3049H159.436Z" fill="#414267"/>
<path d="M151.791 92.2307L151.932 90.9258H148.74L148.6 92.2307H151.791Z" fill="#414267"/>
<path d="M139.434 147.176L139.574 145.871H129.049L128.909 147.176H139.434Z" fill="#414267"/>
<path d="M151.715 143.251L151.856 141.936H129.599L129.459 143.251H151.715Z" fill="#414267"/>
<path d="M147.877 139.315L148.007 138.01H130.15L130.01 139.315H147.877Z" fill="#414267"/>
<path d="M144.372 147.176L144.513 145.871H141.321L141.181 147.176H144.372Z" fill="#414267"/>
<path d="M141.073 135.53L141.213 134.225H130.689L130.549 135.53H141.073Z" fill="#414267"/>
<path d="M153.355 131.604L153.495 130.299H131.239L131.099 131.604H153.355Z" fill="#414267"/>
<path d="M149.505 127.668L149.645 126.363H131.789L131.648 127.668H149.505Z" fill="#414267"/>
<path d="M145.861 135.53L146.001 134.225H142.809L142.669 135.53H145.861Z" fill="#414267"/>
<path d="M142.712 123.883L142.841 122.578H132.317L132.177 123.883H142.712Z" fill="#414267"/>
<path d="M154.994 119.957L155.134 118.652H132.877L132.737 119.957H154.994Z" fill="#414267"/>
<path d="M147.349 123.883L147.489 122.578H144.297L144.157 123.883H147.349Z" fill="#414267"/>
<path d="M177.541 119.311L177.682 118.006H159.814L159.674 119.311H177.541Z" fill="#414267"/>
<path d="M170.737 115.526L170.877 114.221H160.353L160.213 115.526H170.737Z" fill="#414267"/>
<path d="M183.019 111.588L183.159 110.283H160.903L160.763 111.588H183.019Z" fill="#1D1D2C"/>
<path d="M183.117 111.697H160.612L160.763 110.252H183.257L183.117 111.697ZM160.871 111.557H182.923L183.052 110.392H160.99L160.871 111.557Z" fill="#1D1D2C"/>
<path d="M175.88 131.065L176.02 129.76H158.164L158.023 131.065H175.88Z" fill="#414267"/>
<path d="M169.088 127.28L169.228 125.975H158.704L158.563 127.28H169.088Z" fill="#414267"/>
<path d="M181.37 123.344L181.51 122.039H159.253L159.113 123.344H181.37Z" fill="#414267"/>
<path d="M179.169 107.662L179.31 106.357H161.453L161.312 107.662H179.169Z" fill="#414267"/>
<path d="M175.676 115.526L175.816 114.221H172.625L172.484 115.526H175.676Z" fill="#414267"/>
<path d="M174.209 142.959L174.35 141.654H156.493L156.353 142.959H174.209Z" fill="#414267"/>
<path d="M167.416 139.174L167.556 137.869H157.021L156.881 139.174H167.416Z" fill="#414267"/>
<path d="M179.698 135.239L179.838 133.934H157.582L157.441 135.239H179.698Z" fill="#414267"/>
<path d="M165.767 150.93L165.907 149.625H155.372L155.231 150.93H165.767Z" fill="#414267"/>
<path d="M178.048 146.992L178.189 145.688H155.932L155.781 146.992H178.048Z" fill="#414267"/>
<path d="M172.355 139.174L172.495 137.869H169.303L169.163 139.174H172.355Z" fill="#414267"/>
<path d="M201.07 142.959L201.21 141.654H183.342L183.213 142.959H201.07Z" fill="#1D1D2C"/>
<path d="M201.156 143.036H183.095L183.256 141.58H201.318L201.156 143.036ZM183.31 142.896H200.973L201.103 141.731H183.44L183.31 142.896Z" fill="#1D1D2C"/>
<path d="M194.266 139.174L194.406 137.869H183.881L183.741 139.174H194.266Z" fill="#414267"/>
<path d="M206.548 135.239L206.689 133.934H184.432L184.292 135.239H206.548Z" fill="#414267"/>
<path d="M192.616 150.93L192.756 149.625H182.232L182.092 150.93H192.616Z" fill="#414267"/>
<path d="M204.898 146.992L205.038 145.688H182.782L182.642 146.992H204.898Z" fill="#414267"/>
<path d="M199.204 139.174L199.345 137.869H196.153L196.013 139.174H199.204Z" fill="#414267"/>
<path d="M172.376 103.877L172.516 102.572H161.981L161.841 103.877H172.376Z" fill="#414267"/>
<path d="M184.658 99.9524L184.798 98.6367H162.542L162.401 99.9524H184.658Z" fill="#414267"/>
<path d="M180.809 96.0158L180.949 94.7109H163.092L162.952 96.0158H180.809Z" fill="#414267"/>
<path d="M177.163 103.877L177.304 102.572H174.112L173.972 103.877H177.163Z" fill="#414267"/>
<path d="M174.005 92.2307L174.145 90.9258H163.621L163.48 92.2307H174.005Z" fill="#414267"/>
<path d="M186.297 88.3049L186.438 87H164.17L164.03 88.3049H186.297Z" fill="#414267"/>
<path d="M178.652 92.2307L178.792 90.9258H175.6L175.46 92.2307H178.652Z" fill="#414267"/>
<path d="M197.587 115.526L197.727 114.221H187.203L187.062 115.526H197.587Z" fill="#414267"/>
<path d="M209.879 111.588L210.02 110.283H187.752L187.612 111.588H209.879Z" fill="#414267"/>
<path d="M206.031 107.662L206.171 106.357H188.314L188.163 107.662H206.031Z" fill="#414267"/>
<path d="M202.537 115.526L202.677 114.221H199.474L199.334 115.526H202.537Z" fill="#414267"/>
<path d="M199.226 103.877L199.367 102.572H188.842L188.702 103.877H199.226Z" fill="#414267"/>
<path d="M211.508 99.9524L211.649 98.6367H189.392L189.252 99.9524H211.508Z" fill="#414267"/>
<path d="M207.669 96.0158L207.799 94.7109H189.942L189.802 96.0158H207.669Z" fill="#414267"/>
<path d="M204.025 103.877L204.154 102.572H200.962L200.822 103.877H204.025Z" fill="#414267"/>
<path d="M195.441 130.817L195.582 129.512H185.057L184.917 130.817H195.441Z" fill="#414267"/>
<path d="M207.723 126.891L207.863 125.586H185.607L185.467 126.891H207.723Z" fill="#414267"/>
<path d="M203.873 122.965L204.014 121.66H186.157L186.017 122.965H203.873Z" fill="#414267"/>
<path d="M200.38 130.817L200.52 129.512H197.329L197.188 130.817H200.38Z" fill="#414267"/>
<path d="M197.08 119.18L197.22 117.875H186.696L186.545 119.18H197.08Z" fill="#414267"/>
<path d="M201.869 119.18L202.009 117.875H198.817L198.677 119.18H201.869Z" fill="#414267"/>
<path d="M200.865 92.2307L201.005 90.9258H190.481L190.341 92.2307H200.865Z" fill="#1D1D2C"/>
<path d="M200.952 92.2849H190.233L190.384 90.8398H201.114L200.952 92.2849ZM190.449 92.1447H200.769L200.898 90.98H190.568L190.449 92.1447Z" fill="#1D1D2C"/>
<path d="M213.147 88.3049L213.287 87H191.031L190.891 88.3049H213.147Z" fill="#414267"/>
<path d="M205.502 92.2307L205.643 90.9258H202.451L202.311 92.2307H205.502Z" fill="#1D1D2C"/>
<path d="M205.599 92.2849H202.202L202.353 90.8398H205.75L205.599 92.2849ZM202.418 92.1447H205.416L205.534 90.98H202.536L202.418 92.1447Z" fill="#1D1D2C"/>
<path d="M231.242 119.311L231.382 118.006H213.525L213.385 119.311H231.242Z" fill="#414267"/>
<path d="M224.448 115.526L224.588 114.221H214.053L213.924 115.526H224.448Z" fill="#414267"/>
<path d="M236.73 111.588L236.87 110.283H214.614L214.474 111.588H236.73Z" fill="#414267"/>
<path d="M232.88 107.662L233.02 106.357H215.164L215.023 107.662H232.88Z" fill="#BAE1FD"/>
<path d="M229.387 115.526L229.527 114.221H226.335L226.195 115.526H229.387Z" fill="#414267"/>
<path d="M226.087 103.877L226.227 102.572H215.692L215.552 103.877H226.087Z" fill="#414267"/>
<path d="M238.369 99.9524L238.509 98.6367H216.242L216.112 99.9524H238.369Z" fill="#414267"/>
<path d="M234.519 96.0158L234.659 94.7109H216.802L216.662 96.0158H234.519Z" fill="#414267"/>
<path d="M230.874 103.877L231.015 102.572H227.823L227.683 103.877H230.874Z" fill="#414267"/>
<path d="M227.36 146.992L227.5 145.688H209.632L209.492 146.992H227.36Z" fill="#414267"/>
<path d="M220.556 143.207L220.696 141.902H210.171L210.031 143.207H220.556Z" fill="#414267"/>
<path d="M232.837 139.282L232.978 137.967H210.721L210.581 139.282H232.837Z" fill="#414267"/>
<path d="M228.988 135.346L229.128 134.041H211.271L211.131 135.346H228.988Z" fill="#BAE1FD"/>
<path d="M225.494 143.207L225.634 141.902H222.442L222.302 143.207H225.494Z" fill="#414267"/>
<path d="M222.302 130.807L222.442 129.502H211.907L211.767 130.807H222.302Z" fill="#414267"/>
<path d="M234.585 126.869L234.725 125.564H212.458L212.328 126.869H234.585Z" fill="#414267"/>
<path d="M230.735 122.944L230.875 121.639H213.018L212.878 122.944H230.735Z" fill="#414267"/>
<path d="M227.09 130.807L227.23 129.502H224.039L223.898 130.807H227.09Z" fill="#414267"/>
<path d="M227.716 92.2307L227.856 90.9258H217.332L217.191 92.2307H227.716Z" fill="#414267"/>
<path d="M240.008 88.3049L240.138 87H217.881L217.741 88.3049H240.008Z" fill="#BAE1FD"/>
<path d="M232.363 92.2307L232.503 90.9258H229.3L229.16 92.2307H232.363Z" fill="#414267"/>
<path d="M134.42 182.84L134.56 181.535H124.036L123.896 182.84H134.42Z" fill="#414267"/>
<path d="M146.702 178.905L146.842 177.6H124.585L124.445 178.905H146.702Z" fill="#414267"/>
<path d="M142.863 174.979L143.003 173.674H125.135L125.006 174.979H142.863Z" fill="#1D1D2C"/>
<path d="M142.949 175.054H124.888L125.049 173.609H143.111L142.949 175.054ZM125.103 174.914H142.766L142.896 173.75H125.233L125.103 174.914Z" fill="#1D1D2C"/>
<path d="M139.358 182.84L139.498 181.535H136.306L136.166 182.84H139.358Z" fill="#414267"/>
<path d="M136.059 171.194L136.199 169.889H125.674L125.534 171.194H136.059Z" fill="#414267"/>
<path d="M148.34 167.258L148.481 165.953H126.224L126.084 167.258H148.34Z" fill="#414267"/>
<path d="M144.491 163.332L144.631 162.027H126.774L126.634 163.332H144.491Z" fill="#414267"/>
<path d="M140.846 171.194L140.986 169.889H137.794L137.654 171.194H140.846Z" fill="#414267"/>
<path d="M137.697 159.547L137.837 158.242H127.313L127.173 159.547H137.697Z" fill="#414267"/>
<path d="M149.98 155.62L150.12 154.305H127.864L127.724 155.62H149.98Z" fill="#414267"/>
<path d="M142.334 159.547L142.475 158.242H139.283L139.143 159.547H142.334Z" fill="#414267"/>
<path d="M143.898 198.92L144.038 197.615H121.771L121.642 198.92H143.898Z" fill="#414267"/>
<path d="M140.048 194.983L140.188 193.678H122.332L122.191 194.983H140.048Z" fill="#414267"/>
<path d="M133.244 191.197L133.384 189.893H122.86L122.72 191.197H133.244Z" fill="#414267"/>
<path d="M145.537 187.273L145.666 185.957H123.41L123.27 187.273H145.537Z" fill="#414267"/>
<path d="M137.892 191.197L138.032 189.893H134.83L134.7 191.197H137.892Z" fill="#414267"/>
<path d="M168.074 186.625L168.214 185.32H150.357L150.217 186.625H168.074Z" fill="#414267"/>
<path d="M161.28 182.84L161.42 181.535H150.885L150.745 182.84H161.28Z" fill="#414267"/>
<path d="M173.562 178.905L173.702 177.6H151.446L151.306 178.905H173.562Z" fill="#1D1D2C"/>
<path d="M173.649 178.98H151.198L151.349 177.535H173.81L173.649 178.98ZM151.414 178.84H173.465L173.595 177.675H151.533L151.414 178.84Z" fill="#1D1D2C"/>
<path d="M166.424 198.381L166.564 197.076H148.708L148.567 198.381H166.424Z" fill="#414267"/>
<path d="M159.62 194.596L159.76 193.291H149.236L149.096 194.596H159.62Z" fill="#414267"/>
<path d="M171.913 190.658L172.053 189.354H149.786L149.646 190.658H171.913Z" fill="#414267"/>
<path d="M169.712 174.979L169.853 173.674H151.996L151.855 174.979H169.712Z" fill="#414267"/>
<path d="M166.219 182.84L166.359 181.535H163.168L163.027 182.84H166.219Z" fill="#414267"/>
<path d="M162.92 171.194L163.049 169.889H152.525L152.385 171.194H162.92Z" fill="#414267"/>
<path d="M175.202 167.258L175.342 165.953H153.075L152.935 167.258H175.202Z" fill="#414267"/>
<path d="M171.352 163.332L171.492 162.027H153.635L153.495 163.332H171.352Z" fill="#414267"/>
<path d="M167.707 171.194L167.848 169.889H164.645L164.516 171.194H167.707Z" fill="#414267"/>
<path d="M164.548 159.547L164.688 158.242H154.164L154.023 159.547H164.548Z" fill="#414267"/>
<path d="M176.83 155.62L176.97 154.305H154.713L154.573 155.62H176.83Z" fill="#414267"/>
<path d="M169.195 159.547L169.335 158.242H166.132L165.992 159.547H169.195Z" fill="#414267"/>
<path d="M138.809 151.576L138.949 150.271H128.424L128.284 151.576H138.809Z" fill="#414267"/>
<path d="M143.455 151.576L143.596 150.271H140.404L140.264 151.576H143.455Z" fill="#414267"/>
<path d="M219.682 151.576L219.822 150.271H209.287L209.146 151.576H219.682Z" fill="#414267"/>
<path d="M224.319 151.576L224.459 150.271H221.267L221.127 151.576H224.319Z" fill="#414267"/>
<path d="M188.131 182.84L188.271 181.535H177.747L177.606 182.84H188.131Z" fill="#414267"/>
<path d="M200.413 178.905L200.553 177.6H178.296L178.156 178.905H200.413Z" fill="#414267"/>
<path d="M196.574 174.979L196.714 173.674H178.846L178.706 174.979H196.574Z" fill="#414267"/>
<path d="M193.069 182.84L193.209 181.535H190.017L189.877 182.84H193.069Z" fill="#414267"/>
<path d="M189.769 171.194L189.91 169.889H179.385L179.245 171.194H189.769Z" fill="#414267"/>
<path d="M202.051 167.258L202.191 165.953H179.935L179.795 167.258H202.051Z" fill="#414267"/>
<path d="M198.202 163.332L198.342 162.027H180.485L180.345 163.332H198.202Z" fill="#414267"/>
<path d="M194.557 171.194L194.697 169.889H191.505L191.365 171.194H194.557Z" fill="#414267"/>
<path d="M185.984 198.144L186.125 196.828H175.589L175.449 198.144H185.984Z" fill="#414267"/>
<path d="M198.266 194.207L198.406 192.902H176.15L176.01 194.207H198.266Z" fill="#414267"/>
<path d="M194.417 190.281L194.558 188.977H176.701L176.561 190.281H194.417Z" fill="#414267"/>
<path d="M190.923 198.144L191.063 196.828H187.872L187.731 198.144H190.923Z" fill="#414267"/>
<path d="M187.613 186.495L187.753 185.18H177.229L177.089 186.495H187.613Z" fill="#414267"/>
<path d="M192.412 186.495L192.552 185.18H189.36L189.22 186.495H192.412Z" fill="#414267"/>
<path d="M191.408 159.547L191.548 158.242H181.013L180.873 159.547H191.408Z" fill="#1D1D2C"/>
<path d="M191.495 159.621H180.766L180.927 158.176H191.646L191.495 159.621ZM180.981 159.481H191.312L191.441 158.316H181.1L180.981 159.481Z" fill="#1D1D2C"/>
<path d="M203.69 155.62L203.83 154.305H181.574L181.434 155.62H203.69Z" fill="#414267"/>
<path d="M196.045 159.547L196.185 158.242H192.994L192.854 159.547H196.045Z" fill="#1D1D2C"/>
<path d="M196.196 159.621H192.745L192.896 158.176H196.293L196.196 159.621ZM193.015 159.481H196.002L196.131 158.316H193.133L193.015 159.481Z" fill="#1D1D2C"/>
<path d="M221.785 186.625L221.925 185.32H204.068L203.928 186.625H221.785Z" fill="#414267"/>
<path d="M214.98 182.84L215.121 181.535H204.596L204.456 182.84H214.98Z" fill="#414267"/>
<path d="M227.273 178.905L227.413 177.6H205.146L205.006 178.905H227.273Z" fill="#414267"/>
<path d="M223.423 174.979L223.563 173.674H205.707L205.566 174.979H223.423Z" fill="#BAE1FD"/>
<path d="M219.93 182.84L220.07 181.535H216.868L216.728 182.84H219.93Z" fill="#414267"/>
<path d="M216.619 171.194L216.759 169.889H206.235L206.095 171.194H216.619Z" fill="#414267"/>
<path d="M228.901 167.258L229.041 165.953H206.785L206.645 167.258H228.901Z" fill="#414267"/>
<path d="M225.063 163.332L225.203 162.027H207.335L207.195 163.332H225.063Z" fill="#414267"/>
<path d="M221.417 171.194L221.558 169.889H218.355L218.215 171.194H221.417Z" fill="#414267"/>
<path d="M212.835 198.122L212.975 196.807H202.451L202.311 198.122H212.835Z" fill="#414267"/>
<path d="M225.128 194.186L225.268 192.881H203.001L202.86 194.186H225.128Z" fill="#414267"/>
<path d="M221.278 190.26L221.418 188.955H203.55L203.421 190.26H221.278Z" fill="#414267"/>
<path d="M217.633 198.122L217.773 196.807H214.571L214.441 198.122H217.633Z" fill="#414267"/>
<path d="M218.259 159.547L218.399 158.242H207.875L207.734 159.547H218.259Z" fill="#414267"/>
<path d="M230.541 155.62L230.681 154.305H208.424L208.284 155.62H230.541Z" fill="#BAE1FD"/>
<path d="M222.895 159.547L223.035 158.242H219.843L219.703 159.547H222.895Z" fill="#414267"/>
<path d="M142.841 174.138H111.71C111.511 174.144 111.313 174.105 111.132 174.023C110.95 173.942 110.79 173.82 110.662 173.668C110.534 173.515 110.443 173.335 110.395 173.142C110.346 172.949 110.343 172.748 110.384 172.553L115.322 141.43C115.401 140.994 115.627 140.599 115.963 140.31C116.299 140.021 116.724 139.857 117.166 139.844H148.286C148.485 139.839 148.683 139.878 148.865 139.96C149.047 140.041 149.208 140.163 149.336 140.315C149.465 140.467 149.557 140.647 149.607 140.839C149.657 141.032 149.662 141.234 149.623 141.43L144.652 172.553C144.576 172.984 144.355 173.377 144.026 173.665C143.696 173.953 143.278 174.12 142.841 174.138Z" fill="#1D1D2C"/>
<path d="M137.644 152.019C137.358 153.921 136.428 155.667 135.009 156.964C133.589 158.262 131.767 159.033 129.848 159.147C126.138 159.147 123.604 155.998 124.197 152.073C124.484 150.172 125.414 148.428 126.834 147.132C128.253 145.836 130.075 145.067 131.994 144.955C135.703 144.934 138.237 148.104 137.644 152.019Z" fill="white"/>
<path d="M119.496 168.184C120.294 162.932 124.381 162.565 129.363 162.544C134.344 162.522 138.323 162.857 137.525 168.119L119.496 168.184Z" fill="white"/>
<path d="M156.147 86.2669H117.328C117.056 86.2744 116.785 86.2211 116.536 86.1108C116.287 86.0006 116.065 85.8362 115.888 85.6296C115.71 85.423 115.581 85.1795 115.509 84.9166C115.437 84.6537 115.425 84.3782 115.473 84.11L121.663 45.2865C121.784 44.69 122.104 44.1522 122.57 43.7606C123.036 43.369 123.621 43.1466 124.229 43.1296H163.048C163.321 43.1221 163.591 43.1754 163.84 43.2856C164.09 43.3959 164.311 43.5603 164.489 43.7668C164.666 43.9734 164.796 44.217 164.867 44.4799C164.939 44.7427 164.951 45.0183 164.903 45.2865L158.714 84.11C158.592 84.7065 158.272 85.2443 157.806 85.6359C157.34 86.0275 156.756 86.2499 156.147 86.2669Z" fill="#BAE1FD"/>
<path d="M152.405 65.5935C152.739 64.2033 152.831 62.7658 152.675 61.3445L155.533 59.6621L153.926 55.3484L150.907 56.567C150.143 55.4772 149.168 54.5528 148.038 53.8494L149.117 50.8298L144.685 49.4062L143.067 52.2749C141.617 52.1654 140.158 52.3039 138.754 52.6847L137.492 50.0964L132.866 52.3827L133.621 55.2298C132.381 56.1585 131.29 57.2714 130.386 58.5298L129.34 58.2925L127.432 57.8719L125.275 62.5415L127.949 63.6955C127.719 64.6673 127.604 65.6625 127.604 66.6612C127.608 67.0899 127.633 67.5183 127.68 67.9445L124.844 69.6376L126.44 73.9513L129.47 72.7435C130.236 73.831 131.211 74.7549 132.338 75.4612L131.26 78.4808L135.692 79.9043L137.298 77.0464C138.749 77.1469 140.207 77.0047 141.612 76.6259L142.873 79.2141L147.531 76.9386L146.777 74.0915C148.009 73.1537 149.098 72.0422 150.012 70.7915L152.923 71.4386L155.08 66.769L152.405 65.5935ZM148.189 67.2111C146.033 71.8592 140.641 74.4798 136.328 73.0562C132.015 71.6327 130.074 66.7151 132.23 62.067C134.387 57.419 139.778 54.8092 144.146 56.2327C148.513 57.6562 150.346 62.5739 148.189 67.2111Z" fill="white"/>
<path d="M199.237 143.37H160.418C160.14 143.378 159.863 143.324 159.609 143.211C159.355 143.098 159.13 142.928 158.95 142.716C158.771 142.503 158.642 142.252 158.573 141.983C158.504 141.713 158.497 141.431 158.553 141.159L164.742 102.335C164.864 101.739 165.183 101.201 165.649 100.809C166.115 100.418 166.7 100.195 167.309 100.178H206.128C206.4 100.171 206.671 100.225 206.921 100.335C207.17 100.445 207.392 100.609 207.571 100.815C207.749 101.022 207.88 101.265 207.953 101.528C208.026 101.791 208.04 102.066 207.993 102.335L201.804 141.159C201.693 141.765 201.378 142.315 200.911 142.718C200.444 143.12 199.853 143.35 199.237 143.37Z" fill="#414267"/>
<path d="M199.431 139.487L190.427 113.367L179.353 130.795L175.04 121.574L161.69 139.325C161.564 139.45 161.478 139.609 161.443 139.782C161.407 139.956 161.424 140.136 161.491 140.3C161.558 140.464 161.672 140.604 161.819 140.703C161.966 140.802 162.139 140.856 162.316 140.856L198.277 140.953C198.457 140.954 198.635 140.913 198.796 140.835C198.958 140.756 199.1 140.642 199.211 140.501C199.322 140.359 199.4 140.195 199.438 140.019C199.476 139.843 199.474 139.661 199.431 139.487Z" fill="white"/>
<path d="M178.824 109.604C178.741 109.998 178.75 110.406 178.849 110.796C178.948 111.186 179.136 111.549 179.398 111.855C179.659 112.161 179.987 112.403 180.357 112.563C180.727 112.722 181.128 112.795 181.531 112.774C182.419 112.739 183.269 112.397 183.935 111.808C184.601 111.218 185.043 110.417 185.186 109.539C185.261 109.148 185.247 108.744 185.144 108.359C185.041 107.974 184.853 107.617 184.592 107.315C184.332 107.013 184.007 106.774 183.641 106.616C183.275 106.457 182.878 106.384 182.48 106.401C181.595 106.433 180.748 106.769 180.083 107.352C179.417 107.936 178.972 108.731 178.824 109.604Z" fill="white"/>
<path d="M257.897 194.736H218.938C218.659 194.745 218.381 194.691 218.126 194.577C217.871 194.463 217.645 194.293 217.465 194.079C217.285 193.865 217.157 193.613 217.089 193.342C217.021 193.071 217.015 192.788 217.072 192.514L223.284 153.551C223.394 152.941 223.71 152.389 224.179 151.984C224.648 151.58 225.242 151.349 225.861 151.329H264.82C265.099 151.32 265.377 151.374 265.632 151.488C265.887 151.602 266.113 151.772 266.293 151.986C266.473 152.2 266.601 152.452 266.669 152.723C266.737 152.994 266.743 153.277 266.686 153.551L260.475 192.579C260.351 193.176 260.029 193.715 259.561 194.106C259.093 194.498 258.507 194.72 257.897 194.736Z" fill="#BAE1FD"/>
<path d="M240.181 175.636L228.028 163.924C227.651 163.568 228.028 162.846 228.546 162.846H258.458C259.019 162.846 259.116 163.579 258.641 163.924L242.898 175.528C242.543 175.886 242.065 176.097 241.56 176.117C241.056 176.137 240.563 175.965 240.181 175.636Z" fill="white"/>
<path d="M235.921 173.89L225.871 181.514C225.418 181.849 224.793 181.514 224.933 181.051L227.327 166.05C227.338 165.93 227.381 165.816 227.452 165.719C227.523 165.621 227.618 165.545 227.729 165.498C227.839 165.45 227.96 165.433 228.079 165.449C228.198 165.464 228.311 165.512 228.405 165.586L236.072 172.962C236.129 173.031 236.17 173.111 236.193 173.197C236.216 173.283 236.221 173.373 236.206 173.46C236.192 173.548 236.159 173.632 236.11 173.706C236.061 173.78 235.996 173.843 235.921 173.89Z" fill="white"/>
<path d="M255.428 183.099C255.391 183.145 255.346 183.182 255.293 183.208C255.241 183.234 255.184 183.249 255.126 183.25H225.569C225.418 183.25 225.332 183.175 225.31 183.099C225.289 183.024 225.364 182.905 225.504 182.776L225.666 182.646L236.536 174.418C236.688 174.294 236.878 174.226 237.075 174.226C237.271 174.226 237.462 174.294 237.614 174.418L239.501 176.241C239.974 176.683 240.601 176.923 241.248 176.909C241.957 176.902 242.645 176.668 243.21 176.241L245.798 174.332C245.949 174.203 246.14 174.133 246.337 174.133C246.535 174.133 246.726 174.203 246.877 174.332L255.201 182.646L255.32 182.776C255.442 182.905 255.478 183.013 255.428 183.099Z" fill="white"/>
<path d="M258.663 166.05L256.301 180.878C256.287 180.996 256.242 181.108 256.17 181.203C256.099 181.298 256.004 181.373 255.895 181.42C255.786 181.467 255.666 181.485 255.548 181.471C255.43 181.457 255.318 181.413 255.223 181.342L247.675 173.793C247.618 173.723 247.578 173.642 247.555 173.554C247.533 173.467 247.529 173.376 247.544 173.288C247.56 173.199 247.594 173.115 247.644 173.04C247.694 172.965 247.76 172.902 247.836 172.855L257.735 165.565C258.188 165.252 258.738 165.532 258.663 166.05Z" fill="white"/>
<path d="M85.7015 223.184C84.215 223.139 82.7508 222.809 81.3883 222.213C81.0001 221.836 81.1187 218.352 81.3883 216.821C82.7697 216.521 84.1802 216.377 85.5937 216.389C87.1033 216.389 87.319 216.594 87.3298 216.605C87.6533 217.015 87.0494 220.488 86.823 221.792C86.7259 222.342 86.6612 222.763 86.6289 222.979C86.6289 222.979 86.4671 223.151 85.777 223.151L85.7015 223.184Z" fill="white"/>
<path d="M85.5175 216.692C86.0284 216.663 86.5408 216.71 87.0379 216.832C87.017 218.496 86.8292 220.155 86.4772 221.782C86.4017 222.256 86.337 222.612 86.3047 222.86C86.1083 222.915 85.9043 222.936 85.7008 222.925C84.2822 222.87 82.8827 222.578 81.5601 222.062C81.2582 221.566 81.366 218.514 81.5601 217.069C82.8658 216.83 84.1901 216.707 85.5175 216.702V216.692ZM85.5175 216.152C83.6412 216.152 81.1072 216.476 81.0641 216.702C80.8808 217.781 80.6112 221.868 81.1611 222.407C82.5846 223.074 84.1297 223.441 85.7008 223.486C86.337 223.486 86.7791 223.378 86.7791 223.065C86.8762 222.17 87.9329 217.144 87.4153 216.497C86.812 216.208 86.138 216.1 85.4744 216.185L85.5175 216.152Z" fill="#1D1D2C"/>
<path d="M80.7514 221.156C80.7514 221.156 78.0772 224.995 79.9858 228.004C79.9858 228.004 94.0038 228.662 98.1769 228.004C98.1769 228.004 98.2847 222.86 94.6724 222.418C92.1192 222.141 89.552 222.015 86.984 222.041C86.984 222.041 83.3825 224.003 80.7514 221.156Z" fill="#BAE1FD"/>
<path d="M54.646 223.66C53.1638 223.47 51.7362 222.978 50.4513 222.215C50.0739 221.837 50.1817 218.343 50.4513 216.823C51.6158 216.538 52.8112 216.401 54.0097 216.413C55.3684 216.413 55.5625 216.639 55.5625 216.639C55.7997 216.952 55.6596 219.012 55.1528 222.765C55.1528 223.121 55.0665 223.401 55.0557 223.552C55.0449 223.703 54.9155 223.638 54.6891 223.638L54.646 223.66Z" fill="white"/>
<path d="M53.9667 216.702C54.4171 216.674 54.8691 216.721 55.3038 216.843C55.4655 217.371 55.3038 219.355 54.8509 222.742C54.8509 223.011 54.7862 223.227 54.7646 223.378H54.646C53.2325 223.198 51.8669 222.748 50.6239 222.051C50.3112 221.555 50.419 218.482 50.6239 217.047C51.7124 216.817 52.8218 216.702 53.9343 216.702H53.9667ZM53.9667 216.163C52.3384 216.163 50.2034 216.476 50.1602 216.702C49.9877 217.781 49.7073 221.868 50.2681 222.407C51.5999 223.226 53.0937 223.744 54.646 223.928C55.0126 223.928 55.2499 223.831 55.2822 223.594C55.3793 222.698 56.2527 217.123 55.7351 216.487C55.1924 216.201 54.5754 216.088 53.9667 216.163Z" fill="#1D1D2C"/>
<path d="M80.9138 166.794C81.5716 175.012 80.9138 191.598 80.31 199.805C80.31 200.355 80.31 219.454 80.31 219.454L88.0307 220.187C92.193 207.677 100.226 179.498 100.226 166.999C100.226 154.5 99.1481 133.697 94.5545 123.862C90.2413 114.469 72.9882 127.442 70.9502 129.739C70.0121 130.818 71.7805 140.308 74.1852 146.606C77.075 153.864 80.558 162.383 80.9138 166.794Z" fill="#1D1D2C"/>
<path d="M80.2663 219.453L85.0325 219.906C84.6012 216.908 85.0325 210.2 85.1942 207.17C85.6855 201.872 86.6454 196.628 88.0625 191.5C90.0035 183.326 91.8582 174.655 89.5506 166.351C88.3537 162.037 85.7334 159.104 83.6091 155.329C82.1662 152.799 81.4987 149.9 81.6897 146.993C81.8083 145.397 82.768 143.38 82.2504 141.795C81.5819 139.778 75.5649 132.984 74.0229 134.009C72.1682 135.26 73.1063 140.091 72.3623 142.334C75.1983 149.635 80.5575 162.372 80.9133 166.793C81.5711 175.011 80.2124 191.511 79.7595 199.75C79.5611 206.322 79.7303 212.9 80.2663 219.453Z" fill="#1D1D2C"/>
<path d="M49.5458 219.453L56.4038 220.187C59.9838 208.324 69.5485 188.125 70.9611 175.712C73.1177 156.441 75.7811 135.81 75.889 130.72C75.889 129.9 75.889 129.469 75.889 129.469C71.1659 123.721 63.1649 121.381 59.6064 120.95C58.1938 120.788 57.1694 121.057 56.7273 121.801C55.416 123.967 54.2594 126.223 53.2659 128.552C47.5185 142.205 52.3602 150.455 52.2523 168.206C52.2523 169.231 52.2523 170.288 52.2523 171.323C52.069 178.667 54.0531 187.704 51.9396 195.361C47.8097 210.405 49.5458 219.453 49.5458 219.453Z" fill="#1D1D2C"/>
<path d="M119.635 92.9742C119.344 95.1311 119.042 97.385 118.751 99.585C118.699 100.392 118.487 101.18 118.126 101.904C117.727 102.605 117.565 103.047 116.789 102.799C115.71 102.464 115.279 101.138 114.255 100.728C113.868 100.61 113.459 100.589 113.062 100.666C112.665 100.743 112.294 100.916 111.979 101.17C111.367 101.7 110.801 102.281 110.287 102.907C108.572 104.751 106.814 106.908 104.647 107.339C104.356 107.059 104.075 106.778 103.817 106.498C103.375 106.012 102.965 105.549 102.577 105.063C102.059 104.395 101.595 103.748 101.186 103.111C101.562 102.401 102.021 101.739 102.555 101.138C105.218 97.9027 107.947 94.4948 111.559 92.3164C111.864 92.1172 112.189 91.9509 112.529 91.8203C112.734 92.2085 112.896 92.586 113.079 92.9634C113.263 93.3409 113.306 93.4272 113.403 93.6429C115.096 97.2556 115.829 99.2938 116.422 99.7036C117.479 100.361 117.878 96.5978 118.773 92.284C118.823 92.1539 118.919 92.0465 119.042 91.9821C119.161 91.9473 119.289 91.9592 119.399 92.0154C119.509 92.0715 119.594 92.1676 119.635 92.284C119.691 92.5107 119.691 92.7475 119.635 92.9742Z" fill="#1D1D2C"/>
<path d="M118.04 113.658C117.677 113.656 117.315 113.613 116.962 113.529C112.423 112.559 108.243 110.349 104.885 107.145C104.594 106.875 104.313 106.584 104.055 106.314C103.623 105.829 103.214 105.365 102.836 104.901C102.297 104.2 101.844 103.575 101.456 102.96C101.414 102.885 101.368 102.813 101.316 102.745L101.251 102.637C99.3963 99.6926 98.7601 98.0103 98.6307 95.7132C98.534 94.3458 98.5846 92.9718 98.7817 91.6152C98.2749 87.625 97.3044 77.0456 98.9973 75.126C99.0554 75.0451 99.1313 74.9786 99.2192 74.9319C99.3071 74.8851 99.4046 74.8593 99.5041 74.8564C99.6951 74.8699 99.88 74.9291 100.043 75.0289C104.357 77.5093 109.22 85.3387 112.293 91.8417C112.476 92.2191 112.606 92.4887 112.724 92.7583L113.21 93.7505C113.706 94.8289 114.126 95.7672 114.482 96.5652C115.388 98.5819 115.841 99.5956 116.315 99.9191C116.424 100.002 116.556 100.047 116.692 100.049C117.544 100.049 117.879 98.4632 118.558 94.8936C118.709 94.074 118.871 93.2113 119.054 92.3162L119.377 90.7417C119.674 88.9126 120.185 87.1246 120.898 85.4142L120.963 85.2956V85.1662C120.373 83.4882 119.88 81.7779 119.485 80.0436C119.468 79.7218 119.528 79.4006 119.659 79.1063C119.79 78.812 119.989 78.5529 120.24 78.3505C120.281 78.3076 120.333 78.2775 120.391 78.2642C120.461 78.2718 120.528 78.2964 120.586 78.3359C120.645 78.3754 120.692 78.4285 120.725 78.4907C120.764 78.5501 120.784 78.6194 120.784 78.6902C120.784 78.761 120.764 78.8303 120.725 78.8897C120.569 79.1566 120.438 79.4384 120.337 79.7309L120.272 79.9466L120.477 80.0544C120.609 80.1195 120.735 80.1952 120.855 80.2809L121.167 80.4858L121.265 80.1299C121.9 78.3105 123.078 76.7297 124.64 75.6005C126.602 74.1015 127.422 73.875 127.745 73.875C128.069 73.875 128.112 73.9828 128.133 74.1123C128.155 74.2417 128.069 74.5113 127.756 74.673C126.613 75.3007 125.612 76.1559 124.812 77.1858L123.95 78.6525L125.222 77.574C125.359 77.4316 125.543 77.3436 125.74 77.326C125.851 77.3377 125.958 77.3775 126.051 77.4416C126.143 77.5057 126.218 77.592 126.268 77.6926C126.365 77.8534 126.423 78.0339 126.44 78.2207C126.457 78.4075 126.431 78.5957 126.365 78.7711L126.106 79.3426L126.699 79.1917C126.775 79.1917 126.818 79.1917 126.85 79.3103C126.917 79.5336 126.924 79.7705 126.871 79.9975C126.818 80.2245 126.707 80.4337 126.548 80.6044L125.394 82.0279L126.915 80.9495C126.915 80.9495 126.98 81.0789 127.001 81.2946C127.008 81.6311 126.929 81.9637 126.773 82.2616C126.616 82.5596 126.387 82.8131 126.106 82.9985C125.753 83.3726 125.359 83.7055 124.931 83.9907L124.78 84.0877V84.2711C125.557 88.5441 126.004 92.8706 126.117 97.2123C126.214 103.392 124.499 109.161 121.793 111.911C121.319 112.442 120.742 112.871 120.096 113.171C119.451 113.471 118.752 113.637 118.04 113.658Z" fill="white"/>
<path d="M127.756 74.1134C127.788 74.1086 127.821 74.1086 127.853 74.1134C127.853 74.1134 127.853 74.2752 127.605 74.383C126.412 75.042 125.369 75.9418 124.542 77.0252L122.871 79.9909L125.427 77.7262C125.514 77.6293 125.632 77.5647 125.761 77.5428C125.901 77.5428 126.02 77.7262 126.052 77.7801C126.131 77.9036 126.181 78.0436 126.198 78.1894C126.215 78.3352 126.198 78.483 126.149 78.6213L125.545 79.6997L126.624 79.4193C126.649 79.5884 126.638 79.7611 126.589 79.9251C126.541 80.0891 126.457 80.2404 126.343 80.3683L123.949 83.2801L126.71 81.3821C126.691 81.6665 126.609 81.9432 126.469 82.1915C126.329 82.4398 126.135 82.6534 125.901 82.8164C125.577 83.168 125.216 83.4826 124.823 83.7546L124.499 83.9487L124.564 84.3154C125.348 88.5875 125.795 92.9145 125.901 97.2566C125.966 103.36 124.284 109.055 121.588 111.761C121.14 112.264 120.594 112.671 119.984 112.956C119.375 113.242 118.713 113.4 118.04 113.422C117.677 113.424 117.315 113.38 116.962 113.293C112.469 112.34 108.331 110.151 105.014 106.973C104.712 106.693 104.432 106.412 104.205 106.164C103.753 105.668 103.354 105.205 102.998 104.773C102.459 104.072 102.016 103.447 101.65 102.886L101.488 102.627L101.423 102.53C99.601 99.6183 98.9756 97.9683 98.8462 95.7252C98.7487 94.3829 98.7994 93.0339 98.9972 91.7026V91.5301C98.2639 85.9223 97.6924 76.9928 99.1481 75.3536C99.1822 75.3039 99.227 75.2626 99.2793 75.2327C99.3316 75.2028 99.39 75.1852 99.45 75.1811C99.5924 75.1948 99.7293 75.243 99.849 75.3213C104.162 77.7693 108.928 85.534 111.991 92.0046C112.135 92.2778 112.264 92.5474 112.379 92.8134L112.53 93.1262C112.53 93.234 112.627 93.3311 112.681 93.4389C112.735 93.5468 112.8 93.6762 112.853 93.8056C113.36 94.884 113.77 95.8115 114.126 96.6095C115.075 98.7664 115.517 99.7154 116.067 100.093C116.219 100.198 116.4 100.254 116.584 100.255C117.663 100.255 118.029 98.4536 118.741 94.8625C118.892 94.0536 119.065 93.1909 119.248 92.2958V92.285C119.345 91.8213 119.431 91.3683 119.528 90.9154V90.786C119.829 88.987 120.324 87.226 121.006 85.534L121.146 85.2968L121.038 85.0487C120.475 83.4017 120.007 81.7238 119.636 80.0232C119.626 79.7315 119.685 79.4416 119.809 79.1772C119.933 78.9129 120.117 78.6817 120.348 78.5026C120.395 78.5198 120.434 78.5546 120.456 78.5997C120.466 78.6177 120.471 78.6382 120.471 78.659C120.471 78.6798 120.466 78.7003 120.456 78.7183C120.283 79.0028 120.146 79.307 120.046 79.6242L119.906 80.0556L120.305 80.2605C120.431 80.3195 120.55 80.3918 120.66 80.4762L121.286 80.8968L121.491 80.1742C122.096 78.4152 123.225 76.8836 124.726 75.785C126.699 74.2752 127.443 74.1134 127.669 74.1134H127.756ZM127.756 73.5742C126.872 73.5742 125.2 74.8036 124.521 75.3536C122.907 76.5118 121.693 78.1438 121.049 80.0232C120.918 79.9338 120.781 79.8545 120.639 79.786C120.737 79.5097 120.86 79.2426 121.006 78.9879C121.073 78.8826 121.111 78.7612 121.115 78.6362C121.12 78.5113 121.091 78.3874 121.032 78.2774C120.972 78.1674 120.885 78.0752 120.778 78.0106C120.671 77.9459 120.548 77.911 120.423 77.9095C120.341 77.9112 120.26 77.9304 120.186 77.9657C120.111 78.001 120.045 78.0517 119.992 78.1144C119.717 78.3502 119.501 78.6459 119.359 78.9788C119.217 79.3116 119.153 79.6726 119.172 80.034C119.578 81.789 120.078 83.5206 120.671 85.2213C119.948 86.952 119.43 88.7618 119.129 90.6134L118.773 92.285C117.943 96.286 117.523 99.834 116.617 99.834C116.536 99.8286 116.458 99.8026 116.39 99.7585C115.797 99.3487 115.064 97.3105 113.371 93.6977C113.274 93.4821 113.155 93.2448 113.048 93.0183C112.94 92.7919 112.703 92.2634 112.498 91.8752C112.495 91.8465 112.495 91.8176 112.498 91.7889C109.101 84.5203 104.367 77.187 100.151 74.7928C99.9498 74.6674 99.7193 74.5967 99.4824 74.5879C96.2475 74.5879 98.5011 91.5732 98.5011 91.5732C98.2876 92.9464 98.2333 94.3396 98.3394 95.7252C98.4796 98.1517 99.202 99.9203 101.003 102.778C101.068 102.886 101.143 102.994 101.208 103.112C101.617 103.749 102.081 104.396 102.599 105.064C102.987 105.55 103.397 106.013 103.839 106.499C104.098 106.779 104.378 107.06 104.669 107.34C108.058 110.588 112.285 112.829 116.876 113.81C117.257 113.904 117.648 113.951 118.04 113.951C123.119 113.951 126.516 105.97 126.419 97.235C126.308 92.8927 125.858 88.5657 125.071 84.2938C125.513 84.0016 125.921 83.6616 126.289 83.2801C127.691 82.0723 127.281 80.7566 126.861 80.7566C126.823 80.7415 126.78 80.7415 126.742 80.7566C127.421 79.9154 127.184 78.8909 126.742 78.8909H126.645C127.001 78.2115 126.548 77.0252 125.782 77.0252C125.522 77.0425 125.277 77.1536 125.092 77.3379C125.865 76.3394 126.834 75.5099 127.939 74.9007C128.694 74.5017 128.618 73.6605 127.874 73.5958L127.756 73.5742Z" fill="#1D1D2C"/>
<path d="M101.919 105.992C100.712 104.364 98.8677 102.519 97.2287 100.718C96.614 100.039 96.021 99.3488 95.4926 98.7018C94.833 97.9223 94.285 97.0548 93.8643 96.1243C93.7092 95.7838 93.6144 95.4189 93.584 95.0459C93.6396 93.1475 93.8016 91.2536 94.0692 89.3733C94.9966 82.1263 97.4012 72.4635 100.539 73.9086C105.931 76.3782 110.427 84.693 114.298 91.1635C113.716 97.2675 109.802 103.393 101.919 105.992Z" fill="#BAE1FD"/>
<path d="M49.5453 219.452L51.1089 219.603C51.031 215.025 51.1966 210.446 51.6049 205.886C52.3869 199.66 53.9408 193.556 56.2309 187.714C59.7246 178.138 62.0861 168.68 61.4068 158.381C61.0402 152.784 59.2502 147.596 58.4953 142.086C57.9885 138.538 58.7326 135.13 59.2933 131.69C59.6395 129.721 59.8127 127.725 59.8109 125.726C59.757 124.076 53.341 125.402 53.341 128.131C47.5936 141.773 52.4352 150.454 52.3274 168.205C52.3274 169.23 52.3274 170.287 52.3274 171.322C52.2576 179.201 51.6886 187.068 50.6237 194.875C47.7661 213.78 49.5453 219.452 49.5453 219.452Z" fill="#1D1D2C"/>
<path d="M104.249 77.2832C104.249 77.2832 105.564 81.9636 103.343 88.7901C102.761 90.5695 99.7952 97.7842 98.4257 101.99C97.1236 100.685 95.9232 99.2829 94.835 97.795L100.065 87.6577L104.249 77.2832Z" fill="#1D1D2C"/>
<path d="M98.2634 96.1554C96.8406 98.8291 95.5837 101.588 94.5001 104.416C92.516 110.693 97.9938 120.97 97.0341 125.651C96.1499 126.729 83.4905 132.046 73.9582 132.391C61.5576 132.833 51.8959 128.077 51.7773 126.308C51.6587 124.54 57.0934 103.252 60.3283 94.1064C63.9299 83.9368 68.9548 74.1015 71.7692 71.1898C71.9661 70.9937 72.175 70.81 72.3946 70.6398C73.543 69.9075 74.8464 69.4534 76.2011 69.3133C85.1295 67.8574 99.1476 71.8907 104.625 76.7329C105.822 81.3378 101.757 89.0486 98.2634 96.1554Z" fill="#BAE1FD"/>
<path d="M95.6219 74.0384C92.8938 74.0384 91.2332 70.7168 91.0283 70.2639V66.209L95.8376 68.2149V71.9786C96.1072 72.5609 96.3875 73.5315 96.2042 73.8551C96.1915 73.8843 96.1703 73.9092 96.1434 73.9265C96.1166 73.9437 96.0852 73.9527 96.0533 73.9521C95.9116 73.9906 95.7675 74.0195 95.6219 74.0384Z" fill="white"/>
<path d="M91.2981 66.6174L95.6114 68.386V72.0311V72.139C95.86 72.6386 95.9926 73.1878 95.9996 73.7458H95.6114C93.142 73.7458 91.5677 70.7586 91.2981 70.1762V66.6174ZM90.759 65.8086V70.3272C90.759 70.3272 92.5058 74.3066 95.6221 74.3066C95.7837 74.3174 95.9458 74.3174 96.1074 74.3066C97.121 74.1772 96.1074 71.9449 96.1074 71.9449V68.0625L90.7158 65.8409L90.759 65.8086Z" fill="#1D1D2C"/>
<path d="M79.62 78.4043C79.62 78.4043 80.1268 85.1553 75.889 89.1886C73.7246 91.3725 71.1625 93.1223 68.3408 94.3435L67.5645 100.739C67.5645 100.739 72.6757 99.0455 77.2693 92.1112C79.6019 87.9472 80.4319 83.1077 79.62 78.4043Z" fill="#1D1D2C"/>
<path d="M94.8343 68.5599C93.6109 68.5288 92.4488 68.0174 91.5993 67.1363C88.2242 63.901 88.6663 59.1883 88.8065 58.1638L97.2281 57.4844C98.2085 59.6769 98.8903 61.991 99.2554 64.3648C99.2746 64.8336 99.1974 65.3013 99.0286 65.7391C98.8599 66.1769 98.6031 66.5753 98.2741 66.9099C97.8479 67.41 97.3215 67.8153 96.7291 68.0995C96.1366 68.3837 95.4911 68.5405 94.8343 68.5599Z" fill="white"/>
<path d="M97.0887 57.7747C98.0193 59.8916 98.6682 62.1214 99.0189 64.407C99.0257 64.8408 98.9452 65.2715 98.7822 65.6736C98.6192 66.0756 98.377 66.4407 98.07 66.7472C97.6688 67.2173 97.1738 67.5984 96.6167 67.8658C96.0596 68.1332 95.4527 68.2812 94.835 68.3002C93.6833 68.2696 92.5903 67.7851 91.7942 66.9521C88.6994 64.0296 88.8935 59.7374 89.0445 58.4217L97.0564 57.7747H97.0887ZM97.423 57.2031L88.6024 57.9149C88.6024 57.9149 87.5241 63.6198 91.4491 67.3404C92.3387 68.2632 93.554 68.8012 94.835 68.8394C97.5524 68.8394 99.7737 66.2188 99.5257 64.3423C99.141 61.8742 98.4152 59.4715 97.3691 57.2031H97.423Z" fill="#1D1D2C"/>
<path d="M87.5993 62.1526C87.5993 62.1526 87.5993 61.9801 87.4915 61.8075C87.3195 61.3371 87.2809 60.8283 87.3798 60.3373C87.4788 59.8463 87.7115 59.3922 88.0522 59.0252C88.1727 58.8901 88.3401 58.8059 88.5204 58.7899C88.7007 58.7739 88.8803 58.8272 89.0227 58.9389C90.101 58.8526 90.101 60.2114 90.3059 60.9663C90.5539 62.2173 91.3842 63.7271 90.9421 65.032C90.8899 65.2414 90.7958 65.4381 90.6655 65.6101C90.5351 65.7821 90.3713 65.9258 90.1838 66.0327C89.9963 66.1395 89.7891 66.2072 89.5747 66.2317C89.3603 66.2562 89.1432 66.237 88.9365 66.1752C87.8581 65.8624 87.966 64.8487 87.5993 64.0183C87.3421 63.5993 87.2535 63.0982 87.3513 62.6163C87.4227 62.456 87.5056 62.301 87.5993 62.1526Z" fill="#1D1D2C"/>
<path d="M88.2999 60.3208C89.486 62.9306 91.5348 60.8923 93.1847 60.0835C94.3169 59.5335 96.0422 59.3286 97.2607 58.6708C97.2988 58.7616 97.3582 58.8419 97.4339 58.9049C97.5095 58.9679 97.5992 59.0119 97.6954 59.033C97.7916 59.0542 97.8914 59.0519 97.9865 59.0264C98.0817 59.0009 98.1693 58.9529 98.242 58.8864C99.2016 58.056 100.334 56.611 99.2556 55.3708C98.4145 54.4002 97.2499 54.81 96.3226 55.3708C93.1739 53.009 86.2835 55.91 88.2999 60.3208Z" fill="#1D1D2C"/>
<path d="M72.6863 115.708C69.3382 115.744 65.9964 115.408 62.7227 114.705C56.3067 113.228 53.1149 105.29 53.2659 98.2158C53.3027 95.012 54.0581 91.8573 55.4764 88.9844C55.9144 88.1104 56.4343 87.2798 57.0292 86.504L57.6222 85.7599L57.7409 85.6305C61.6933 80.6656 66.2175 76.1843 71.2198 72.2795C71.7841 71.7737 72.5109 71.4867 73.2686 71.4707C74.789 71.4707 76.2447 72.8727 77.075 75.1158C77.3174 75.7401 77.5983 76.3488 77.9161 76.9383C78.9716 78.569 79.4042 80.5254 79.1346 82.4491C78.4808 85.8925 76.6698 89.0089 74.0018 91.2815C72.9235 92.2521 71.7697 93.255 70.7669 94.1609L70.6698 94.2472L70.3571 94.5491C67.3055 97.4717 67.2731 104.535 67.2731 104.6C67.2731 105.97 68.8798 107.728 70.713 108.375C74.0881 109.539 79.8355 109.831 84.0517 109.831C85.4427 109.831 86.5426 109.831 87.1033 109.831L85.3888 114.263C85.0761 114.349 84.3105 114.565 83.0597 114.813C79.6388 115.445 76.1648 115.745 72.6863 115.708Z" fill="white"/>
<path d="M73.2688 71.7943C74.6598 71.7943 76.0509 73.1531 76.8165 75.2669C77.0645 75.8993 77.3526 76.5153 77.6791 77.111C78.7133 78.7058 79.1347 80.6214 78.8653 82.5031C78.2113 85.8686 76.4316 88.9112 73.8188 91.1306C72.7404 92.112 71.5866 93.1149 70.5838 94.0208L70.4976 94.0963C70.3789 94.2041 70.2711 94.3012 70.1741 94.409C67.047 97.4178 67.0038 104.589 67.0038 104.654C67.0038 106.121 68.6968 108.008 70.627 108.687C74.0344 109.895 79.8142 110.154 84.0627 110.154C85.141 110.154 86.1007 110.154 86.7154 110.154L85.195 114.08C84.8176 114.177 84.0627 114.371 83.0383 114.597C79.6329 115.24 76.1736 115.554 72.7081 115.535C69.382 115.569 66.0624 115.237 62.8092 114.543C56.5334 113.087 53.4063 105.29 53.5573 98.3669C53.5781 95.2053 54.3154 92.0896 55.7139 89.2541C56.1388 88.3991 56.6443 87.5866 57.2235 86.8276C57.4176 86.5796 57.6117 86.3316 57.8058 86.1051C57.8395 86.0775 57.8687 86.0448 57.8921 86.008C61.8421 80.9825 66.3739 76.443 71.3926 72.4845C71.9188 72.0434 72.5822 71.7993 73.2688 71.7943ZM73.2688 71.2551C72.4719 71.2848 71.7098 71.5896 71.1122 72.1178C66.0714 76.023 61.5075 80.5078 57.5147 85.4796L57.4284 85.5767C57.2235 85.8247 57.0186 86.0727 56.8245 86.3316C56.2186 87.1193 55.6913 87.9645 55.2502 88.8551C53.8144 91.7615 53.048 94.9528 53.0073 98.1943C52.8456 105.884 56.3501 113.486 62.7121 114.942C66.0033 115.652 69.3632 115.992 72.7297 115.956C76.2316 115.979 79.7274 115.661 83.1677 115.007C84.7205 114.673 85.6479 114.414 85.6479 114.414L87.5133 109.539C87.5133 109.539 86.1115 109.539 84.052 109.539C80.2563 109.539 74.2285 109.324 70.7887 108.105C69.0742 107.49 67.5538 105.808 67.5538 104.579C67.5538 103.5 67.8449 97.3208 70.5515 94.7218L70.9612 94.3335C72.0395 93.2551 73.1179 92.3169 74.1423 91.4541C76.8609 89.1517 78.7038 85.9832 79.3613 82.4816C79.9544 79.1061 78.1104 77.2296 77.2909 74.9973C76.4714 72.7649 74.951 71.2012 73.2688 71.2012V71.2551Z" fill="#1D1D2C"/>
<path d="M70.5513 96.8999C71.6297 95.8215 78.6926 88.9411 79.7709 82.093C80.2562 78.9764 79.2965 71.4705 75.4577 70.5646C69.2466 69.1303 60.9544 78.1136 55.2285 84.9509C57.8165 90.8715 63.5639 95.0126 70.5513 96.8999Z" fill="#BAE1FD"/>
<path d="M73.0096 106.919L59.1641 106.801L72.1038 111.416L73.0096 106.919Z" fill="#1D1D2C"/>
<path d="M59.293 107.932L59.39 107.166L71.823 111.598L71.7475 112.698L59.293 107.932Z" fill="white"/>
<path d="M59.6166 107.534L71.5427 111.848V112.376L59.5842 107.75V107.534H59.6166ZM59.1637 106.801L59.002 108.106L71.9956 113.088L72.1035 111.416L59.1637 106.801Z" fill="#1D1D2C"/>
<path d="M100.765 111.675L72.1039 111.416L71.9961 113.088L100.658 113.163L100.765 111.675Z" fill="#1D1D2C"/>
<path d="M72.4385 111.157L75.6734 96.1238C75.7111 95.9287 75.8158 95.753 75.9694 95.6269C76.123 95.5009 76.3158 95.4325 76.5145 95.4336L102.879 95.6709C103.005 95.6711 103.13 95.6993 103.243 95.7534C103.357 95.8075 103.457 95.8861 103.537 95.9836C103.616 96.0825 103.674 96.1971 103.705 96.3198C103.737 96.4425 103.742 96.5705 103.72 96.6954L100.55 111.405L72.4385 111.157Z" fill="white"/>
<path d="M76.5037 95.1642V95.7034L102.858 95.9406C102.944 95.9413 103.03 95.961 103.108 95.9982C103.186 96.0355 103.255 96.0894 103.311 96.1563C103.364 96.2163 103.405 96.2863 103.431 96.3622C103.456 96.4381 103.467 96.5184 103.462 96.5985L100.334 111.136L72.7727 110.888L75.9106 96.1779C75.938 96.0437 76.0109 95.9232 76.1171 95.8367C76.2232 95.7502 76.356 95.7031 76.4929 95.7034V95.1642H76.5037ZM76.5037 95.1642C76.2452 95.1608 75.9942 95.2505 75.7962 95.4167C75.5983 95.583 75.4667 95.8149 75.4254 96.07L72.1904 111.416L100.766 111.697L104.001 96.771C104.043 96.6088 104.046 96.4391 104.011 96.2752C103.976 96.1114 103.903 95.958 103.799 95.8272C103.694 95.6963 103.56 95.5917 103.408 95.5215C103.256 95.4514 103.09 95.4176 102.922 95.423L76.5037 95.1642Z" fill="#1D1D2C"/>
<path d="M87.4912 114.728H87.3294C87.0814 114.674 86.8226 114.533 86.8873 113.886L86.9628 113.034L86.4128 113.692C86.2721 113.853 86.1169 114.001 85.9492 114.134C85.8318 114.226 85.6884 114.279 85.5394 114.285C85.343 114.256 85.1586 114.173 85.0064 114.046C84.8542 113.918 84.7401 113.751 84.6768 113.563L84.7522 113.487V113.423C84.9078 112.87 85.1363 112.341 85.4316 111.848L85.5178 111.697C85.6869 111.344 85.9384 111.037 86.2511 110.802C86.3249 110.754 86.4109 110.728 86.4991 110.727C86.7687 110.727 86.9736 111.18 87.0706 111.611L87.2755 112.506L87.5882 111.643C87.8039 111.039 88.0627 110.964 88.246 110.964C88.3613 110.966 88.475 110.992 88.5803 111.039C88.7547 111.1 88.9107 111.204 89.0334 111.341C89.1562 111.479 89.2414 111.646 89.2812 111.827L89.4321 112.474L89.7772 111.913C89.9036 111.691 90.081 111.502 90.2948 111.363C90.3682 111.312 90.4539 111.283 90.5428 111.277C90.8231 111.277 91.0496 111.686 91.1143 111.967C91.1527 112.152 91.1527 112.343 91.1143 112.528L91.028 113.078L91.5133 112.797H91.6319C91.8799 112.797 92.0632 113.175 92.1063 113.38C92.1279 113.496 92.1226 113.616 92.0909 113.73C92.0591 113.844 92.0017 113.949 91.923 114.037C91.823 114.154 91.699 114.249 91.5595 114.314C91.42 114.379 91.2682 114.413 91.1143 114.415C90.9244 114.413 90.7384 114.361 90.5751 114.264L90.4781 113.746L90.1438 114.167C89.9174 114.393 89.7448 114.512 89.5831 114.512C89.4213 114.512 89.2165 114.329 89.0439 114.08L88.8498 113.66L88.5803 114.027C88.461 114.216 88.3016 114.377 88.1135 114.498C87.9253 114.619 87.7129 114.697 87.4912 114.728Z" fill="white"/>
<path d="M86.4888 110.973C86.5427 110.973 86.6937 111.199 86.7907 111.642L86.9956 112.558L86.2084 113.497C86.0821 113.643 85.9412 113.777 85.7879 113.896C85.7175 113.953 85.6307 113.987 85.5399 113.993C85.4277 113.973 85.3216 113.928 85.2299 113.861C85.1382 113.793 85.0634 113.706 85.0115 113.604V113.432C85.1643 112.919 85.3779 112.427 85.6477 111.965L85.7448 111.814C85.8903 111.504 86.1041 111.231 86.3702 111.016C86.4091 111.006 86.4499 111.006 86.4888 111.016V110.973ZM88.2357 111.21C88.3143 111.198 88.3943 111.198 88.4729 111.21C88.6076 111.252 88.7288 111.329 88.8236 111.433C88.9185 111.537 88.9835 111.665 89.0121 111.803L89.2924 113.108L89.9933 112.03C90.1027 111.847 90.2497 111.688 90.4246 111.566H90.5217C90.608 111.566 90.7805 111.793 90.8452 112.041C90.8788 112.193 90.8788 112.352 90.8452 112.504L90.705 113.313V113.195L89.9718 113.96C89.7453 114.197 89.6375 114.23 89.5943 114.23C89.5512 114.23 89.4218 114.1 89.314 113.949L88.9366 113.097L88.3651 113.852C88.1925 114.1 87.8475 114.499 87.4809 114.499H87.373C87.2436 114.499 87.0927 114.435 87.1466 113.949V113.497L87.8259 111.696C88.0092 111.189 88.171 111.189 88.2357 111.189V111.21ZM91.6 113.011C91.7078 113.102 91.7803 113.228 91.8049 113.367C91.8221 113.445 91.8203 113.526 91.7996 113.603C91.779 113.68 91.7401 113.75 91.6863 113.809C91.6122 113.897 91.5198 113.968 91.4154 114.016C91.3111 114.065 91.1974 114.09 91.0824 114.09C90.9932 114.105 90.9021 114.105 90.8128 114.09L90.7158 113.583L91.6 113.065V113.011ZM86.4457 110.434C86.3127 110.437 86.1828 110.474 86.0683 110.542C85.6853 110.847 85.385 111.244 85.1948 111.696C84.8826 112.21 84.6431 112.765 84.4831 113.346C84.4781 113.367 84.4781 113.389 84.4831 113.41C84.4585 113.445 84.4453 113.486 84.4453 113.529C84.4453 113.571 84.4585 113.613 84.4831 113.647C84.5614 113.882 84.7039 114.091 84.8944 114.249C85.085 114.407 85.3161 114.509 85.5615 114.543C85.7688 114.536 85.9689 114.465 86.133 114.338C86.32 114.196 86.4901 114.033 86.6398 113.852C86.5859 114.392 86.7153 114.866 87.3083 114.985H87.5132C87.7854 114.951 88.0463 114.856 88.2762 114.707C88.506 114.557 88.6987 114.357 88.8395 114.122C89.0013 114.359 89.2169 114.683 89.5943 114.683C89.7432 114.667 89.8872 114.621 90.0171 114.547C90.1471 114.472 90.2602 114.372 90.3492 114.251C90.3528 114.282 90.3635 114.312 90.3803 114.338C90.3971 114.364 90.4196 114.386 90.4462 114.402C90.6549 114.517 90.8878 114.579 91.1256 114.586C91.3017 114.593 91.4773 114.562 91.6403 114.495C91.8033 114.428 91.9499 114.327 92.0698 114.197C92.1897 114.068 92.2802 113.915 92.335 113.747C92.3898 113.579 92.4076 113.402 92.3872 113.227C92.3225 112.936 92.0637 112.429 91.6431 112.429H91.6C91.545 112.437 91.493 112.459 91.449 112.494C91.4921 112.273 91.4921 112.046 91.449 111.825C91.352 111.447 91.0501 110.93 90.5972 110.93C90.4637 110.939 90.3344 110.979 90.2198 111.048C89.9738 111.218 89.7677 111.438 89.6159 111.696C89.5668 111.468 89.4595 111.257 89.3046 111.083C89.1496 110.909 88.9522 110.778 88.7317 110.703C88.5974 110.651 88.4552 110.622 88.3112 110.617C87.8259 110.617 87.5563 111.027 87.3946 111.469C87.2975 111.005 87.0495 110.391 86.5643 110.391L86.4457 110.434Z" fill="#1D1D2C"/>
<path d="M49.8585 221.156C49.8585 221.156 47.1735 224.995 49.0929 228.004C49.0929 228.004 63.111 228.662 67.2841 228.004C67.2841 228.004 67.3919 222.86 63.7688 222.418C60.1456 221.976 55.5197 221.782 55.5197 221.782C54.6661 222.397 53.6146 222.674 52.5688 222.558C51.523 222.443 50.5572 221.943 49.8585 221.156Z" fill="#BAE1FD"/>
</g>
<defs>
<clipPath id="clip0_2117_16856">
<rect width="294" height="248" fill="white"/>
</clipPath>
</defs>
</svg>
