<svg width="241" height="246" viewBox="0 0 241 246" fill="none" xmlns="http://www.w3.org/2000/svg">
<path d="M4.40949 117.236C3.59905 117.236 2.8216 116.915 2.24724 116.344C1.67288 115.772 1.34838 114.996 1.34473 114.185V19.1363C1.34473 18.0745 1.76652 17.0562 2.51733 16.3054C3.26813 15.5546 4.28645 15.1328 5.34825 15.1328H135.822C136.883 15.1328 137.902 15.5546 138.653 16.3054C139.403 17.0562 139.825 18.0745 139.825 19.1363V114.185C139.822 114.996 139.497 115.772 138.923 116.344C138.348 116.915 137.571 117.236 136.76 117.236H4.40949Z" fill="white"/>
<path d="M135.822 15.4793C136.792 15.4793 137.723 15.8648 138.409 16.5508C139.095 17.2369 139.48 18.1675 139.48 19.1377V114.187C139.48 114.919 139.19 115.621 138.672 116.139C138.154 116.657 137.452 116.948 136.719 116.948H4.40989C3.67762 116.948 2.97534 116.657 2.45754 116.139C1.93974 115.621 1.64884 114.919 1.64884 114.187V19.1377C1.64881 18.6538 1.7448 18.1747 1.93123 17.7281C2.11767 17.2815 2.39085 16.8763 2.73496 16.5361C3.07907 16.1958 3.48727 15.9272 3.93592 15.7458C4.38457 15.5644 4.86475 15.4738 5.34865 15.4793H135.822ZM135.822 14.7891H5.34865C4.19532 14.7891 3.08922 15.2472 2.27369 16.0628C1.45816 16.8783 1 17.9844 1 19.1377V114.187C1.00365 115.089 1.36452 115.953 2.0036 116.589C2.64269 117.226 3.50792 117.583 4.40989 117.583H136.761C137.663 117.583 138.528 117.226 139.167 116.589C139.806 115.953 140.167 115.089 140.171 114.187V19.1377C140.171 17.9844 139.713 16.8783 138.897 16.0628C138.081 15.2472 136.975 14.7891 135.822 14.7891Z" fill="black"/>
<path d="M140.157 29.754H1V19.1377C1 17.9844 1.45816 16.8783 2.27369 16.0628C3.08922 15.2472 4.19532 14.7891 5.34865 14.7891H135.822C136.392 14.7891 136.957 14.9016 137.484 15.1203C138.011 15.3391 138.489 15.6596 138.892 16.0636C139.295 16.4676 139.614 16.9471 139.831 17.4746C140.048 18.0021 140.159 18.5673 140.157 19.1377V29.754Z" fill="black"/>
<path d="M24.9385 22.2705C24.9358 21.8139 25.0687 21.3668 25.3203 20.9859C25.572 20.6049 25.9311 20.3073 26.3521 20.1307C26.7731 19.954 27.2371 19.9064 27.6853 19.9938C28.1334 20.0812 28.5455 20.2997 28.8693 20.6215C29.1931 20.9434 29.414 21.3542 29.5041 21.8018C29.5942 22.2494 29.5494 22.7136 29.3753 23.1357C29.2012 23.5578 28.9057 23.9187 28.5263 24.1726C28.1469 24.4265 27.7006 24.5621 27.244 24.5621C26.6349 24.5621 26.0506 24.3211 25.6186 23.8918C25.1867 23.4624 24.9422 22.8795 24.9385 22.2705Z" fill="#AAB6C2"/>
<path d="M16.0889 22.2728C16.0644 21.956 16.1056 21.6375 16.2099 21.3373C16.3143 21.0372 16.4796 20.7618 16.6954 20.5286C16.9113 20.2954 17.173 20.1093 17.4642 19.982C17.7554 19.8548 18.0697 19.7891 18.3875 19.7891C18.7053 19.7891 19.0196 19.8548 19.3108 19.982C19.602 20.1093 19.8637 20.2954 20.0796 20.5286C20.2954 20.7618 20.4607 21.0372 20.5651 21.3373C20.6695 21.6375 20.7107 21.956 20.6861 22.2728C20.6412 22.8517 20.3795 23.3923 19.9534 23.7866C19.5273 24.181 18.9681 24.4 18.3875 24.4C17.8069 24.4 17.2477 24.181 16.8216 23.7866C16.3955 23.3923 16.1338 22.8517 16.0889 22.2728Z" fill="#3CBCC3"/>
<path d="M7.25297 22.2704C7.25024 21.8133 7.38348 21.3656 7.63576 20.9844C7.88803 20.6031 8.24796 20.3055 8.66979 20.1293C9.09162 19.9531 9.5563 19.9063 10.0048 19.9948C10.4533 20.0833 10.8654 20.3032 11.1886 20.6264C11.5119 20.9497 11.7317 21.3617 11.8203 21.8102C11.9088 22.2587 11.8619 22.7234 11.6857 23.1453C11.5095 23.5671 11.2119 23.927 10.8307 24.1793C10.4494 24.4316 10.0018 24.5648 9.54464 24.5621C8.93685 24.5621 8.35396 24.3206 7.92418 23.8909C7.49441 23.4611 7.25297 22.8782 7.25297 22.2704Z" fill="white"/>
<path d="M129.223 20.5891L130.355 19.457L131.984 21.0861L133.613 19.457L134.745 20.5891L133.116 22.2181L134.745 23.8471L133.613 24.9791L131.984 23.3639L130.355 24.9791L129.223 23.8471L130.852 22.2181L129.223 20.5891Z" fill="white"/>
<path d="M21.6935 69.7767L21.6382 68.2305H8.74414L8.79936 69.7767H21.6935Z" fill="#AAB6C2"/>
<path d="M36.0647 65.136L36.0095 63.5898H8.74414L8.79936 65.136H36.0647Z" fill="#AAB6C2"/>
<path d="M30.6807 60.4993L30.6255 58.9531H8.74414L8.79936 60.4993H30.6807Z" fill="black"/>
<path d="M30.805 60.581H8.63379V58.8691H30.7222L30.805 60.581ZM8.9099 60.4153H30.5427V59.0348H8.85467L8.9099 60.4153Z" fill="black"/>
<path d="M27.7542 69.7767L27.699 68.2305H23.7783L23.8335 69.7767H27.7542Z" fill="#AAB6C2"/>
<path d="M21.6935 56.0246L21.6382 54.4922H8.74414L8.79936 56.0246H21.6935Z" fill="#AAB6C2"/>
<path d="M36.0647 51.3879L36.0095 49.8555H8.74414L8.79936 51.3879H36.0647Z" fill="#AAB6C2"/>
<path d="M30.6807 46.761L30.6255 45.2148H8.74414L8.79936 46.761H30.6807Z" fill="#AAB6C2"/>
<path d="M27.5617 56.0246L27.5065 54.4922H23.5996L23.6548 56.0246H27.5617Z" fill="#AAB6C2"/>
<path d="M21.6935 42.2903L21.6382 40.7441H8.74414L8.79936 42.2903H21.6935Z" fill="#AAB6C2"/>
<path d="M36.0647 37.6497L36.0095 36.1035H8.74414L8.79936 37.6497H36.0647Z" fill="#AAB6C2"/>
<path d="M27.382 42.2903L27.3268 40.7441H23.4199L23.4613 42.2903H27.382Z" fill="#AAB6C2"/>
<path d="M21.6935 107.118L21.6382 105.572H8.74414L8.79936 107.118H21.6935Z" fill="#AAB6C2"/>
<path d="M36.0647 102.482L36.0095 100.949H8.74414L8.79936 102.482H36.0647Z" fill="#AAB6C2"/>
<path d="M30.6807 97.841L30.6255 96.3086H8.74414L8.79936 97.841H30.6807Z" fill="#AAB6C2"/>
<path d="M27.7542 107.118L27.699 105.572H23.7783L23.8335 107.118H27.7542Z" fill="#AAB6C2"/>
<path d="M21.6935 93.3841L21.6382 91.8379H8.74414L8.79936 93.3841H21.6935Z" fill="#AAB6C2"/>
<path d="M36.0647 88.7435L36.0095 87.1973H8.74414L8.79936 88.7435H36.0647Z" fill="#AAB6C2"/>
<path d="M30.6807 84.1048L30.6255 82.5586H8.74414L8.79936 84.1048H30.6807Z" fill="#AAB6C2"/>
<path d="M27.5617 93.3841L27.5065 91.8379H23.5996L23.6548 93.3841H27.5617Z" fill="#AAB6C2"/>
<path d="M21.6935 79.632L21.6382 78.0996H8.74414L8.79936 79.632H21.6935Z" fill="#AAB6C2"/>
<path d="M36.0647 74.9953L36.0095 73.4629H8.74414L8.79936 74.9953H36.0647Z" fill="#AAB6C2"/>
<path d="M27.382 79.632L27.3268 78.0996H23.4199L23.4613 79.632H27.382Z" fill="#AAB6C2"/>
<path d="M63.5929 74.2336L63.5377 72.7012H41.6426L41.6978 74.2336H63.5929Z" fill="#AAB6C2"/>
<path d="M54.6057 69.7767L54.5505 68.2305H41.6426L41.6978 69.7767H54.6057Z" fill="#AAB6C2"/>
<path d="M68.977 65.136L68.9217 63.5898H41.6426L41.6978 65.136H68.977Z" fill="black"/>
<path d="M69.1019 65.2177H41.5742V63.5059H69.1019V65.2177ZM41.7675 65.052H68.7982V63.6715H41.7675V65.052Z" fill="black"/>
<path d="M63.5929 88.1087L63.5377 86.5625H41.6426L41.6978 88.1087H63.5929Z" fill="#AAB6C2"/>
<path d="M54.6057 83.6339L54.5505 82.1016H41.6426L41.6978 83.6339H54.6057Z" fill="#AAB6C2"/>
<path d="M68.977 79.011L68.9217 77.4648H41.6426L41.6978 79.011H68.977Z" fill="#AAB6C2"/>
<path d="M63.5929 60.4993L63.5377 58.9531H41.6426L41.6978 60.4993H63.5929Z" fill="#AAB6C2"/>
<path d="M60.6516 69.7767L60.6102 68.2305H56.6895L56.7447 69.7767H60.6516Z" fill="#AAB6C2"/>
<path d="M63.5929 102.15L63.5377 100.604H41.6426L41.6978 102.15H63.5929Z" fill="#AAB6C2"/>
<path d="M54.6057 97.6771L54.5505 96.1309H41.6426L41.6978 97.6771H54.6057Z" fill="#AAB6C2"/>
<path d="M68.977 93.0364L68.9217 91.4902H41.6426L41.6978 93.0364H68.977Z" fill="#AAB6C2"/>
<path d="M54.6057 111.552L54.5505 110.006H41.6426L41.6978 111.552H54.6057Z" fill="#AAB6C2"/>
<path d="M68.977 106.911L68.9217 105.365H41.6426L41.6978 106.911H68.977Z" fill="#AAB6C2"/>
<path d="M60.6516 97.6771L60.6102 96.1309H56.6895L56.7447 97.6771H60.6516Z" fill="#AAB6C2"/>
<path d="M96.5041 102.15L96.4488 100.604H74.5537L74.6089 102.15H96.5041Z" fill="black"/>
<path d="M96.6157 102.231H74.5273V100.52H96.6157V102.231ZM74.7206 102.052H96.3672V100.671H74.6792L74.7206 102.052Z" fill="black"/>
<path d="M87.5168 97.6771L87.4616 96.1309H74.5537L74.6089 97.6771H87.5168Z" fill="#AAB6C2"/>
<path d="M101.888 93.0364L101.833 91.4902H74.5537L74.6089 93.0364H101.888Z" fill="#AAB6C2"/>
<path d="M87.5168 111.552L87.4616 110.006H74.5537L74.6089 111.552H87.5168Z" fill="#AAB6C2"/>
<path d="M101.888 106.911L101.833 105.365H74.5537L74.6089 106.911H101.888Z" fill="#AAB6C2"/>
<path d="M93.5646 97.6771L93.5094 96.1309H89.6025L89.6578 97.6771H93.5646Z" fill="#AAB6C2"/>
<path d="M54.6057 56.0246L54.5505 54.4922H41.6426L41.6978 56.0246H54.6057Z" fill="#AAB6C2"/>
<path d="M68.977 51.3879L68.9217 49.8555H41.6426L41.6978 51.3879H68.977Z" fill="#AAB6C2"/>
<path d="M63.5929 46.761L63.5377 45.2148H41.6426L41.6978 46.761H63.5929Z" fill="#AAB6C2"/>
<path d="M60.4728 56.0246L60.4176 54.4922H56.5107L56.566 56.0246H60.4728Z" fill="#AAB6C2"/>
<path d="M54.6057 42.2903L54.5505 40.7441H41.6426L41.6978 42.2903H54.6057Z" fill="#AAB6C2"/>
<path d="M68.977 37.6497L68.9217 36.1035H41.6426L41.6978 37.6497H68.977Z" fill="#AAB6C2"/>
<path d="M60.2933 42.2903L60.2381 40.7441H56.3174L56.3726 42.2903H60.2933Z" fill="#AAB6C2"/>
<path d="M87.5168 69.7767L87.4616 68.2305H74.5537L74.6089 69.7767H87.5168Z" fill="#AAB6C2"/>
<path d="M101.888 65.136L101.833 63.5898H74.5537L74.6089 65.136H101.888Z" fill="#AAB6C2"/>
<path d="M96.4902 60.4993L96.4488 58.9531H74.5537L74.6089 60.4993H96.4902Z" fill="#AAB6C2"/>
<path d="M93.5646 69.7767L93.5094 68.2305H89.6025L89.6578 69.7767H93.5646Z" fill="#AAB6C2"/>
<path d="M87.5168 56.0246L87.4616 54.4922H74.5537L74.6089 56.0246H87.5168Z" fill="#AAB6C2"/>
<path d="M101.888 51.3879L101.833 49.8555H74.5537L74.6089 51.3879H101.888Z" fill="#AAB6C2"/>
<path d="M96.5041 46.761L96.4488 45.2148H74.5537L74.6089 46.761H96.5041Z" fill="#AAB6C2"/>
<path d="M93.385 56.0246L93.3297 54.4922H89.4229L89.4643 56.0246H93.385Z" fill="#AAB6C2"/>
<path d="M87.5168 87.8175L87.4616 86.2852H74.5537L74.6089 87.8175H87.5168Z" fill="#AAB6C2"/>
<path d="M101.888 83.1927L101.833 81.6465H74.5537L74.6089 83.1927H101.888Z" fill="#AAB6C2"/>
<path d="M96.4902 78.556L96.4488 77.0098H74.5537L74.6089 78.556H96.4902Z" fill="#AAB6C2"/>
<path d="M93.5646 87.8175L93.5094 86.2852H89.6025L89.6578 87.8175H93.5646Z" fill="#AAB6C2"/>
<path d="M87.5168 74.0833L87.4616 72.5371H74.5537L74.6089 74.0833H87.5168Z" fill="#AAB6C2"/>
<path d="M93.385 74.0833L93.3297 72.5371H89.4229L89.4643 74.0833H93.385Z" fill="#AAB6C2"/>
<path d="M87.5168 42.2903L87.4616 40.7441H74.5537L74.6089 42.2903H87.5168Z" fill="black"/>
<path d="M87.628 42.3994H74.4854V40.6875H87.628V42.3994ZM74.72 42.2337H87.3242V40.8532H74.6648L74.72 42.2337Z" fill="black"/>
<path d="M101.888 37.6497L101.833 36.1035H74.5537L74.6089 37.6497H101.888Z" fill="#AAB6C2"/>
<path d="M93.2054 42.2903L93.1502 40.7441H89.2295L89.2847 42.2903H93.2054Z" fill="black"/>
<path d="M93.3154 42.3994H89.1738V40.6875H93.3154V42.3994ZM89.3947 42.2337H93.0669V40.8532H89.3947V42.2337Z" fill="black"/>
<path d="M129.403 74.2336L129.348 72.7012H107.467L107.522 74.2336H129.403Z" fill="#AAB6C2"/>
<path d="M120.416 69.7767L120.375 68.2305H107.467L107.522 69.7767H120.416Z" fill="#AAB6C2"/>
<path d="M134.801 65.136L134.746 63.5898H107.467L107.522 65.136H134.801Z" fill="#AAB6C2"/>
<path d="M129.403 60.4993L129.348 58.9531H107.467L107.522 60.4993H129.403Z" fill="#3CBCC3"/>
<path d="M126.476 69.7767L126.421 68.2305H122.514L122.555 69.7767H126.476Z" fill="#AAB6C2"/>
<path d="M120.416 56.0246L120.375 54.4922H107.467L107.522 56.0246H120.416Z" fill="#AAB6C2"/>
<path d="M134.801 51.3879L134.746 49.8555H107.467L107.522 51.3879H134.801Z" fill="#AAB6C2"/>
<path d="M129.403 46.761L129.362 45.2148H107.467L107.522 46.761H129.403Z" fill="#AAB6C2"/>
<path d="M126.296 56.0246L126.241 54.4922H122.32L122.376 56.0246H126.296Z" fill="#AAB6C2"/>
<path d="M129.403 106.911L129.348 105.365H107.467L107.522 106.911H129.403Z" fill="#AAB6C2"/>
<path d="M120.416 102.437L120.375 100.891H107.467L107.522 102.437H120.416Z" fill="#AAB6C2"/>
<path d="M134.801 97.8001L134.746 96.2539H107.467L107.522 97.8001H134.801Z" fill="#AAB6C2"/>
<path d="M129.403 93.1632L129.348 91.6309H107.467L107.522 93.1632H129.403Z" fill="#3CBCC3"/>
<path d="M126.476 102.437L126.421 100.891H122.514L122.555 102.437H126.476Z" fill="#AAB6C2"/>
<path d="M120.416 87.804L120.375 86.2578H107.467L107.522 87.804H120.416Z" fill="#AAB6C2"/>
<path d="M134.801 83.1673L134.746 81.6211H107.467L107.522 83.1673H134.801Z" fill="#AAB6C2"/>
<path d="M129.403 78.5286L129.362 76.9824H107.467L107.522 78.5286H129.403Z" fill="#AAB6C2"/>
<path d="M126.296 87.804L126.241 86.2578H122.32L122.376 87.804H126.296Z" fill="#AAB6C2"/>
<path d="M120.416 42.2903L120.361 40.7441H107.467L107.522 42.2903H120.416Z" fill="#AAB6C2"/>
<path d="M134.801 37.6497L134.746 36.1035H107.467L107.522 37.6497H134.801Z" fill="#3CBCC3"/>
<path d="M126.104 42.2903L126.048 40.7441H122.142L122.197 42.2903H126.104Z" fill="#AAB6C2"/>
<path d="M127.429 97.6218C122.569 97.6218 118.29 93.0384 114.341 83.6094C112.31 78.5779 110.712 73.382 109.565 68.0785C109.537 68.0075 109.537 67.9287 109.565 67.8577C109.565 67.8577 109.717 67.7196 110.186 67.7196C111.419 67.8383 112.631 68.1216 113.789 68.5617H113.872C114.756 68.5617 117.406 72.3306 118.4 73.7387L119.449 75.2435C122.003 78.8881 126.352 83.1125 128.298 83.1125C128.468 83.1154 128.635 83.0725 128.782 82.9882C129.527 82.5602 130.852 80.2272 133.503 75.4229C133.572 75.2849 133.931 74.6636 133.931 74.6636L134.124 74.3185L134.635 73.4212L134.718 73.2555C138.694 66.1182 144.81 57.5451 149.904 55.0464C150.075 54.9577 150.263 54.906 150.456 54.8945C150.566 54.8961 150.675 54.9231 150.773 54.9734C150.871 55.0237 150.956 55.0959 151.022 55.1844C152.844 57.4071 150.925 69.4867 150.028 73.9458C150.152 75.543 150.106 77.1488 149.89 78.7362C149.559 81.3454 148.703 83.2091 146.37 86.4395L146.287 86.55C146.219 86.6318 146.159 86.7196 146.107 86.8123C145.624 87.4611 145.058 88.1928 144.395 88.8969C143.912 89.4076 143.429 89.9046 142.891 90.4154C142.573 90.7191 142.242 91.0091 141.897 91.299C138.501 94.1981 135.753 95.5372 129.651 97.2766C128.883 97.493 128.089 97.6045 127.291 97.608L127.429 97.6218Z" fill="white"/>
<path d="M150.594 54.4922V55.1824C150.677 55.1824 150.76 55.1824 150.884 55.3481C152.43 57.2256 151.05 67.6762 149.821 73.8333V74.0404C149.938 75.5734 149.892 77.1144 149.683 78.6376C149.365 81.1777 148.523 83.0138 146.232 86.189L146.149 86.2857C146.089 86.3652 146.033 86.4482 145.983 86.5342C145.486 87.183 144.934 87.9147 144.285 88.605C143.829 89.0743 143.346 89.5713 142.794 90.1097C142.49 90.3996 142.145 90.6895 141.8 90.9795C138.459 93.8371 135.74 95.121 129.693 96.8881C128.955 97.0922 128.194 97.1989 127.429 97.2056C122.721 97.2056 118.538 92.6913 114.659 83.4004C112.648 78.4126 111.064 73.2632 109.924 68.0075H110.214C111.404 68.1279 112.573 68.4017 113.693 68.822H113.803H113.955C114.493 68.9325 115.915 70.6167 118.193 73.8471L118.276 73.9576L119.201 75.3381C121.852 79.1208 126.311 83.3452 128.326 83.3452C128.56 83.3519 128.79 83.2895 128.989 83.1657C129.803 82.6963 131.032 80.5703 133.834 75.4624L134.069 75.062L134.262 74.7169L134.456 74.3717C134.621 74.0818 134.773 73.7781 134.953 73.4882V73.4192C138.929 66.2819 144.975 57.7916 150.042 55.3343C150.166 55.2708 150.303 55.2333 150.442 55.2239V54.5336L150.594 54.4922ZM150.594 54.4922C150.349 54.4992 150.109 54.5605 149.89 54.6717C144.892 57.1014 138.915 65.0946 134.47 73.0879C134.47 73.0879 134.47 73.0879 134.47 73.1845C134.207 73.6125 133.986 74.0266 133.752 74.4408C133.517 74.8549 133.448 74.9516 133.324 75.2001C131.115 79.2036 129.444 82.2131 128.74 82.6273C128.645 82.6856 128.535 82.7145 128.423 82.7101C126.849 82.7101 122.556 78.8446 119.864 75.0068C119.518 74.496 119.159 73.999 118.814 73.502C116.785 70.6167 114.935 68.1732 114.024 68.1732C112.83 67.7199 111.581 67.4274 110.31 67.3035C109.648 67.3035 109.192 67.4967 109.316 68.0765C110.478 73.402 112.085 78.6204 114.121 83.6765C117.738 92.3324 122.045 97.8959 127.525 97.8959C128.352 97.8946 129.174 97.7785 129.969 97.5508C136.278 95.7561 139.011 94.3479 142.394 91.5041C142.739 91.2141 143.084 90.9104 143.402 90.6067C143.94 90.0821 144.437 89.5851 144.92 89.0743C145.569 88.3427 146.149 87.6938 146.673 86.9345C146.756 86.8103 146.853 86.6998 146.922 86.5894C149.2 83.4418 150.166 81.4815 150.497 78.7204C150.724 77.1432 150.771 75.5453 150.635 73.9576C150.635 73.9576 154.529 54.4922 150.732 54.4922H150.594Z" fill="black"/>
<path d="M145.5 90.1806C146.991 88.4135 149.242 86.4532 151.257 84.5204C152.016 83.775 152.748 83.0433 153.383 82.353C154.198 81.5335 154.895 80.6042 155.454 79.592C155.655 79.2174 155.79 78.8112 155.854 78.3909C155.93 76.2136 155.889 74.0339 155.73 71.861C155.219 63.5779 151.519 53.9142 147.778 55.2947C141.373 57.6969 137.355 65.2345 132.427 72.4132C132.606 76.3352 133.944 80.116 136.271 83.2782C138.598 86.4405 141.809 88.8424 145.5 90.1806Z" fill="#3CBCC3"/>
<path d="M165.171 225.444C164.371 225.444 164.233 225.265 164.233 225.265C164.233 225.03 164.122 224.533 164.012 223.884C163.749 222.407 163.073 218.472 163.432 217.975C163.432 217.975 163.694 217.741 165.378 217.741C166.988 217.731 168.594 217.893 170.169 218.224C170.417 219.908 170.542 223.884 170.169 224.312C168.592 225.009 166.895 225.393 165.171 225.444Z" fill="white"/>
<path d="M165.379 218.111C166.88 218.113 168.377 218.251 169.852 218.526C170.112 220.357 170.112 222.216 169.852 224.048C168.356 224.645 166.768 224.981 165.158 225.042C164.952 225.068 164.743 225.068 164.537 225.042C164.537 224.765 164.427 224.351 164.33 223.854C163.946 222.01 163.733 220.133 163.695 218.249C164.244 218.136 164.805 218.09 165.366 218.111H165.379ZM165.379 217.421C164.619 217.323 163.847 217.448 163.157 217.78C162.563 218.525 163.778 224.282 163.888 225.304C163.888 225.649 164.441 225.787 165.172 225.787C166.967 225.752 168.735 225.343 170.363 224.586C170.998 223.965 170.694 219.285 170.487 218.056C168.832 217.562 167.105 217.347 165.379 217.421Z" fill="black"/>
<path d="M170.832 223.152C170.832 223.152 173.91 227.542 171.715 230.994C171.715 230.994 155.715 231.753 150.883 230.994C150.883 230.994 150.759 225.099 154.901 224.602C157.825 224.283 160.766 224.14 163.708 224.174C163.708 224.174 167.836 226.424 170.832 223.152Z" fill="black"/>
<path d="M200.735 226.009C200.417 226.009 200.348 226.009 200.348 226.009C200.348 226.009 200.348 225.526 200.238 225.112C199.658 220.86 199.506 218.499 199.755 218.112C199.755 218.112 200.003 217.878 201.522 217.878C202.88 217.865 204.234 218.023 205.553 218.347C205.801 220.017 205.925 224.007 205.553 224.435C204.071 225.282 202.431 225.818 200.735 226.009Z" fill="white"/>
<path d="M201.521 218.126C202.769 218.124 204.014 218.254 205.234 218.513C205.479 220.345 205.479 222.202 205.234 224.035C203.835 224.841 202.293 225.366 200.693 225.581H200.623C200.623 225.402 200.623 225.181 200.541 224.905C200.113 222.704 199.933 220.463 200.002 218.223C200.483 218.093 200.982 218.042 201.479 218.071L201.521 218.126ZM201.521 217.436C200.822 217.346 200.113 217.476 199.491 217.809C198.898 218.554 199.892 224.918 200.002 225.954C200.002 226.216 200.32 226.327 200.734 226.327C202.515 226.116 204.229 225.523 205.759 224.587C206.38 223.966 206.077 219.286 205.869 218.057C204.474 217.571 202.997 217.36 201.521 217.436Z" fill="black"/>
<path d="M170.667 160.903C169.908 170.319 170.598 189.287 171.357 198.702C171.357 199.337 171.357 221.205 171.357 221.205L162.508 222.047C157.731 207.676 148.537 175.454 148.537 161.124C148.537 146.794 149.78 122.98 155.026 111.674C160.023 100.92 179.751 115.815 182.07 118.411C183.133 119.626 181.118 130.504 178.315 137.738C175.057 146.104 171.067 155.851 170.667 160.903Z" fill="black"/>
<path d="M171.979 198.648C171.468 189.219 169.908 170.319 170.667 160.904C171.068 155.851 177.197 141.259 180.455 132.907C179.599 130.326 180.662 124.803 178.536 123.368C176.783 122.194 169.894 129.98 169.121 132.286C168.514 134.108 169.632 136.427 169.77 138.236C169.992 141.562 169.229 144.881 167.575 147.775C165.131 152.096 162.136 155.506 160.769 160.393C158.118 169.919 160.244 179.831 162.467 189.205C164.092 195.078 165.192 201.084 165.753 207.152C165.946 210.644 166.443 218.306 165.946 221.73L171.468 221.219C172.055 213.711 172.225 206.175 171.979 198.648Z" fill="black"/>
<path d="M206.546 221.206L198.691 222.048C194.55 208.491 183.643 185.34 182.028 171.12C179.529 149.032 176.506 125.411 176.382 119.599C176.382 118.674 176.382 118.218 176.382 118.218C181.78 111.633 190.946 108.955 195.019 108.472C196.634 108.279 197.78 108.582 198.318 109.438C199.822 111.917 201.146 114.501 202.28 117.169C208.866 132.797 203.316 142.24 203.44 162.575C203.44 163.748 203.44 164.949 203.44 166.137C203.661 174.544 201.383 184.884 203.799 193.664C208.562 210.824 206.546 221.206 206.546 221.206Z" fill="black"/>
<path d="M205.332 193.058C204.15 184.118 203.523 175.113 203.454 166.096C203.454 164.909 203.454 163.708 203.454 162.534C203.288 142.199 208.811 132.273 202.253 116.646C202.253 113.512 194.867 111.993 194.798 113.885C194.794 116.171 194.993 118.453 195.392 120.704C196.041 124.639 196.883 128.546 196.303 132.618C195.419 138.9 193.39 144.85 192.962 151.269C192.189 163.059 194.895 173.882 198.898 184.844C201.512 191.535 203.293 198.522 204.2 205.648C204.66 210.872 204.844 216.116 204.752 221.359L206.546 221.193C206.546 221.193 208.603 214.704 205.332 193.058Z" fill="black"/>
<path d="M143.926 58.4277C143.926 58.4277 142.421 63.7842 144.961 71.5979C145.624 73.6273 148.371 79.246 149.945 84.0917C151.192 83.0151 152.334 81.8225 153.355 80.5299L148.758 70.3002L143.926 58.4277Z" fill="black"/>
<path d="M150.828 80.0332C152.462 83.0915 153.901 86.25 155.136 89.4898C157.413 96.6823 151.146 108.444 152.237 113.801C153.244 115.043 167.74 121.131 178.66 121.518C192.865 122.029 203.937 116.631 204.061 114.615C204.186 112.6 198.042 88.2197 194.329 77.7415C190.187 66.1037 184.472 54.8386 181.228 51.5116C181.002 51.2795 180.757 51.067 180.496 50.8765C179.188 50.0321 177.697 49.5115 176.147 49.3579C165.835 47.6875 149.848 52.3123 143.539 57.8482C142.131 63.108 146.783 71.9157 150.828 80.0332Z" fill="#3CBCC3"/>
<path d="M167.05 81.0543C167.367 79.301 170.984 67.0419 171.992 63.1075C173 59.173 175.871 52.0633 175.871 52.0633L177.141 52.3394C178.425 52.6293 179.668 50.3238 180.454 50.9588C180.716 51.1493 180.961 51.3618 181.186 51.5939C182.774 53.2229 182.76 52.6431 185.052 57.1988C185.052 57.3369 191.802 84.0638 168.251 93.6309C168.251 93.479 166.732 82.8213 167.05 81.0543Z" fill="black"/>
<path d="M153.811 54.6735H153.3C153.269 54.675 153.239 54.6681 153.212 54.6535C153.185 54.6389 153.163 54.6171 153.148 54.5907C152.941 54.2317 153.286 53.1135 153.576 52.4647V52.3957V48.0608L159.112 45.8105V50.3801C158.863 50.9185 156.958 54.6735 153.88 54.6735H153.811Z" fill="white"/>
<path d="M158.697 46.3205V50.2965C158.366 50.9867 156.598 54.3276 153.81 54.3276H153.437C153.465 53.7238 153.615 53.132 153.879 52.5881V52.4501V48.3085L158.628 46.3344L158.697 46.3205ZM159.387 45.2852L153.258 47.8253V52.2844C153.258 52.2844 152.098 54.8246 153.258 54.9764C153.441 54.9901 153.626 54.9901 153.81 54.9764C157.385 54.9764 159.332 50.4069 159.332 50.4069V45.2852H159.387Z" fill="black"/>
<path d="M154.68 48.4186C153.942 48.3918 153.219 48.2109 152.555 47.8875C151.892 47.5642 151.304 47.1055 150.828 46.5411C150.452 46.1642 150.158 45.7129 149.965 45.2162C149.773 44.7194 149.686 44.188 149.71 43.6558C150.122 40.9503 150.898 38.3127 152.015 35.8145L161.679 36.5875C161.845 37.8162 162.3 43.1865 158.476 46.8034C157.513 47.8072 156.194 48.3922 154.804 48.4325L154.68 48.4186Z" fill="white"/>
<path d="M152.209 36.1612L161.265 36.8929C161.444 38.4667 161.624 43.2571 158.145 46.5566C157.691 47.0574 157.134 47.4535 156.512 47.7172C155.89 47.9809 155.218 48.1059 154.542 48.0836C153.867 48.0612 153.205 47.8921 152.601 47.5878C151.998 47.2836 151.468 46.8516 151.049 46.3219C150.713 45.9766 150.449 45.5683 150.271 45.1206C150.093 44.6728 150.006 44.1944 150.014 43.7127C150.416 41.1114 151.154 38.5732 152.209 36.1612ZM151.781 35.4434C150.591 38.0361 149.768 40.7822 149.337 43.6023C149.047 45.7559 151.587 48.7654 154.707 48.7654C156.185 48.7225 157.587 48.1031 158.614 47.0398C163.128 42.7739 161.872 36.2579 161.872 36.2579L151.753 35.4986L151.781 35.4434Z" fill="black"/>
<path d="M162.99 41.1024C162.99 41.1024 162.99 40.9092 163.128 40.7021C163.326 40.1648 163.37 39.5831 163.256 39.0222C163.141 38.4613 162.872 37.9435 162.48 37.5269C162.345 37.3683 162.154 37.2691 161.947 37.251C161.74 37.2329 161.535 37.2974 161.375 37.4302C160.091 37.3336 160.091 38.8936 159.912 39.7495C159.608 41.1991 158.725 42.9247 159.166 44.4157C159.228 44.655 159.338 44.8795 159.488 45.0757C159.639 45.272 159.827 45.4361 160.042 45.5584C160.257 45.6806 160.494 45.7586 160.74 45.7876C160.985 45.8166 161.234 45.796 161.472 45.7272C162.714 45.3545 162.576 44.2086 163.004 43.2561C163.299 42.7777 163.398 42.2041 163.28 41.6546C163.205 41.4602 163.108 41.275 162.99 41.1024Z" fill="black"/>
<path d="M153.01 33.3581C151.947 32.6955 150.608 32.2261 149.655 33.3581C148.427 34.7386 149.655 36.4367 150.815 37.3892C150.9 37.464 151.001 37.5177 151.11 37.546C151.219 37.5744 151.334 37.5765 151.444 37.5523C151.554 37.5281 151.657 37.4782 151.745 37.4067C151.832 37.3352 151.901 37.2441 151.947 37.1407C153.327 37.8862 155.315 38.1209 156.599 38.756C158.504 39.6809 160.837 42.014 162.204 39.0321C164.51 33.9517 156.613 30.6247 153.01 33.3581Z" fill="black"/>
<path d="M206.215 223.152C206.215 223.152 209.293 227.542 207.098 230.994C207.098 230.994 191.098 231.753 186.266 230.994C186.266 230.994 186.142 225.099 190.283 224.602C194.425 224.105 199.74 223.87 199.74 223.87C200.715 224.577 201.919 224.894 203.116 224.762C204.313 224.629 205.418 224.055 206.215 223.152Z" fill="black"/>
<path d="M157.054 104.384L155.895 105.903C155.372 106.554 154.612 106.972 153.782 107.066C152.951 107.159 152.118 106.919 151.463 106.4L103.504 68.2281L111.028 58.7715L155.909 94.458C156.637 95.0337 157.244 95.7474 157.696 96.5582C158.148 97.3691 158.435 98.2611 158.542 99.1832C158.648 100.105 158.572 101.039 158.316 101.932C158.061 102.824 157.632 103.658 157.054 104.384Z" fill="black"/>
<path d="M64.4907 29.4937C60.8812 34.0334 58.6991 39.5415 58.2203 45.3214C57.7414 51.1013 58.9873 56.8934 61.8005 61.9652C64.6136 67.0369 68.8676 71.1606 74.0245 73.8145C79.1814 76.4685 85.0094 77.5336 90.7717 76.8751C96.5339 76.2166 101.971 73.8641 106.397 70.1152C110.822 66.3662 114.036 61.3892 115.632 55.8135C117.229 50.2378 117.136 44.3139 115.365 38.7911C113.595 33.2682 110.226 28.3944 105.686 24.7861C99.5981 19.9485 91.8385 17.7268 84.1133 18.6096C76.3881 19.4924 69.3298 23.4075 64.4907 29.4937ZM104.692 61.4528C101.982 64.8858 98.3138 67.4371 94.1526 68.7834C89.9913 70.1296 85.5241 70.2102 81.3169 69.0149C77.1098 67.8196 73.3523 65.4023 70.5204 62.0692C67.6886 58.7362 65.91 54.6375 65.41 50.2926C64.91 45.9476 65.7111 41.5521 67.7119 37.6629C69.7126 33.7738 72.8229 30.5661 76.6485 28.4464C80.4741 26.3268 84.8429 25.3906 89.2012 25.7564C93.5595 26.1223 97.7111 27.7737 101.13 30.5015C105.693 34.1426 108.63 39.4424 109.297 45.2422C109.965 51.0421 108.309 56.8703 104.692 61.4528Z" fill="black"/>
<path d="M62.6816 31.7682C59.074 36.3083 56.8936 41.8162 56.416 47.5954C55.9385 53.3746 57.1852 59.1656 59.9986 64.2363C62.812 69.307 67.0657 73.4296 72.222 76.083C77.3782 78.7363 83.2054 79.8013 88.9668 79.1431C94.7283 78.4849 100.165 76.1332 104.59 72.3853C109.015 68.6374 112.229 63.6616 113.827 58.0871C115.424 52.5125 115.333 46.5895 113.564 41.0669C111.795 35.5443 108.429 30.6701 103.89 27.0607C97.8006 22.2223 90.0388 20.0003 82.3113 20.883C74.5838 21.7658 67.5232 25.6811 62.6816 31.7682ZM102.882 63.7136C100.168 67.1407 96.4967 69.685 92.3347 71.0243C88.1728 72.3636 83.7069 72.4376 79.5029 71.2369C75.2988 70.0363 71.5456 67.615 68.7186 64.2798C65.8917 60.9445 64.1181 56.8453 63.6225 52.5014C63.127 48.1574 63.9317 43.7641 65.9348 39.8778C67.938 35.9915 71.0494 32.7871 74.875 30.6704C78.7006 28.5538 83.0683 27.62 87.425 27.9875C91.7817 28.3549 95.9313 30.0071 99.3484 32.7346C101.618 34.5344 103.51 36.7642 104.916 39.2964C106.322 41.8285 107.215 44.6131 107.543 47.4908C107.871 50.3685 107.629 53.2827 106.829 56.0665C106.029 58.8503 104.688 61.4489 102.882 63.7136Z" fill="#AAB6C2"/>
<path d="M155.881 105.904C155.389 106.525 154.779 107.043 154.087 107.429C153.394 107.814 152.633 108.059 151.846 108.15C151.059 108.241 150.261 108.176 149.499 107.959C148.737 107.742 148.025 107.377 147.404 106.884L101.695 70.4937L109.219 61.0371L154.97 97.3725C155.595 97.869 156.116 98.485 156.501 99.1846C156.886 99.8842 157.128 100.653 157.212 101.447C157.297 102.242 157.223 103.044 156.994 103.81C156.766 104.575 156.387 105.287 155.881 105.904Z" fill="#AAB6C2"/>
<path d="M157.151 96.7918C155.414 96.7798 153.687 96.5337 152.016 96.0602C144.382 93.9342 136.609 86.1756 132.689 81.7441L131.86 80.7916L131.791 80.7087H131.695C131.501 80.6337 131.32 80.5315 131.156 80.405C130.902 80.2278 130.629 80.0796 130.342 79.9632C129.645 79.8066 128.929 79.7508 128.216 79.7976C127.028 79.7976 125.455 79.7976 124.999 79.2592C124.939 79.1903 124.892 79.1107 124.861 79.0245C125.161 78.9291 125.472 78.8734 125.786 78.8588C126.38 78.776 126.959 78.707 127.166 78.3342C127.214 78.2449 127.238 78.1454 127.238 78.0443C127.238 77.9433 127.214 77.8438 127.166 77.7544C127.07 77.4645 126.725 77.3955 125.786 77.1746C125.151 77.0365 123.467 76.6776 123.37 76.3463C123.37 76.3463 123.37 76.222 123.757 76.0011C124.114 75.912 124.479 75.8566 124.847 75.8355C125.924 75.7112 126.545 75.6284 126.669 75.2004C126.699 75.0839 126.692 74.9609 126.647 74.8492C126.602 74.7375 126.523 74.6429 126.421 74.5792H126.352H126.269L125.51 74.455C124.571 74.3031 123.149 74.0684 122.818 73.5852C122.785 73.5009 122.785 73.4072 122.818 73.3229C122.818 73.2263 123.301 73.0468 124.198 73.0468C124.471 73.0456 124.744 73.0687 125.013 73.1158C125.67 73.2722 126.34 73.3692 127.015 73.4058C127.415 73.4058 127.636 73.2677 127.65 73.0054C127.65 72.2737 125.192 71.8872 124.695 71.8182C124.198 71.7491 123.881 71.5006 123.881 71.4178C123.881 71.335 124.033 71.1279 124.585 70.976C124.98 70.8641 125.389 70.8083 125.8 70.8104C127.586 70.9521 129.286 71.636 130.673 72.7707L132.15 73.9442L131.184 72.3289C130.942 71.9057 130.796 71.4344 130.756 70.9484C130.756 70.7828 130.756 70.7137 130.756 70.7137C130.97 70.7472 131.165 70.8547 131.308 71.0174C132.018 72.1107 132.445 73.363 132.55 74.662V74.7863L132.661 74.8691C135.67 77.216 143.222 82.8347 148.275 84.3671C148.689 84.4736 149.117 84.5247 149.545 84.519C151.819 84.4324 154.036 83.7774 155.992 82.6139C155.992 82.6139 162.342 77.4507 162.77 72.6189V72.0943C162.894 70.4514 162.991 68.8086 163.06 67.0553C163.215 63.0477 164.746 59.2158 167.395 56.2044C169.501 53.7614 172.223 51.9263 175.278 50.8894C175.797 50.7086 176.343 50.6153 176.893 50.6133C178.237 50.6106 179.529 51.1304 180.496 52.0628C180.985 52.552 181.373 53.1333 181.636 53.7731C181.899 54.4129 182.032 55.0985 182.028 55.7903C182.144 63.0766 181.403 70.3513 179.82 77.4645V77.6302C179.82 77.9891 179.668 78.3342 179.585 78.6794C179.323 79.7673 178.953 80.8263 178.481 81.8408C176.952 85.1648 174.686 88.0967 171.854 90.4138C166.677 94.7763 162.025 96.7918 157.22 96.7918H157.151Z" fill="white"/>
<path d="M176.865 50.8881C178.129 50.8879 179.344 51.3835 180.247 52.2686C180.695 52.7314 181.048 53.2781 181.285 53.8775C181.522 54.4768 181.638 55.117 181.628 55.7613C181.728 63.0074 180.977 70.2402 179.391 77.3113C179.381 77.366 179.381 77.4222 179.391 77.477C179.391 77.8359 179.239 78.181 179.17 78.5262C178.906 79.5939 178.541 80.6339 178.08 81.6323C176.578 84.9384 174.34 87.8568 171.536 90.164C166.428 94.4574 161.872 96.4454 157.137 96.4454C155.428 96.4365 153.728 96.195 152.084 95.7275C144.547 93.6153 136.899 85.912 132.909 81.5219L132.08 80.5693L131.942 80.4037H131.749C131.593 80.3386 131.444 80.2552 131.307 80.1552C131.038 79.9526 130.74 79.7899 130.424 79.672C129.688 79.493 128.929 79.4278 128.174 79.4787C127.284 79.5134 126.394 79.4392 125.523 79.2578H125.785C126.094 79.2742 126.403 79.222 126.689 79.1051C126.976 78.9881 127.233 78.8093 127.442 78.5814C127.518 78.4484 127.564 78.3002 127.576 78.1474C127.588 77.9946 127.566 77.8411 127.511 77.6979C127.331 77.2285 126.89 77.1318 125.813 76.8972C125.157 76.7753 124.511 76.6046 123.88 76.3864C124.194 76.3158 124.512 76.2651 124.833 76.2345C125.951 76.1241 126.752 76.0274 126.959 75.3648C127.006 75.1822 126.996 74.9898 126.932 74.8125C126.868 74.6352 126.753 74.4813 126.6 74.3708L126.462 74.2742H126.296L125.523 74.1361C124.71 74.0467 123.914 73.8374 123.162 73.5149C123.7 73.407 124.254 73.407 124.791 73.5149C125.472 73.6724 126.165 73.7694 126.862 73.8048C127.732 73.8048 127.828 73.2526 127.842 73.0869C127.842 72.369 126.807 71.8444 124.598 71.5269L124.267 71.4441L124.529 71.3612C124.892 71.254 125.269 71.2027 125.647 71.2094C127.414 71.3382 129.093 72.0301 130.438 73.1835L132.205 74.5641C132.211 74.656 132.211 74.7482 132.205 74.8402V75.0887L132.412 75.2543C135.435 77.6012 143.014 83.2476 148.136 84.7937C148.584 84.9248 149.05 84.9854 149.517 84.9732C151.942 84.8695 154.298 84.1318 156.35 82.8334C156.419 82.8334 162.825 77.5874 163.253 72.6175C163.266 72.4429 163.266 72.2675 163.253 72.0929V71.9687C163.377 70.4501 163.474 68.7521 163.543 67.0264C163.657 63.0992 165.119 59.3309 167.684 56.3549C169.749 53.9565 172.419 52.1547 175.415 51.1366C175.9 50.9725 176.408 50.8885 176.92 50.8881H176.865ZM131.128 71.2094C131.477 71.6854 131.717 72.232 131.832 72.8108L131.501 72.1758C131.334 71.888 131.213 71.5759 131.142 71.2508L131.128 71.2094ZM176.865 50.1978C176.278 50.2021 175.695 50.3 175.139 50.4877C172.027 51.5447 169.253 53.4128 167.104 55.8994C164.466 58.9877 162.962 62.8838 162.839 66.9436C162.839 68.4345 162.687 70.1602 162.549 71.8582V72.4933C162.162 76.7729 156.806 81.5081 155.895 82.2398C154.003 83.3579 151.864 83.9888 149.668 84.0759C149.273 84.0843 148.878 84.0379 148.495 83.9378C143.387 82.3916 135.532 76.4692 132.992 74.495C132.818 73.1387 132.346 71.8376 131.611 70.6848C131.411 70.4511 131.13 70.3029 130.824 70.2706C130.603 70.2706 130.424 70.4225 130.396 70.8228C130.419 71.3784 130.58 71.9195 130.866 72.3966C129.403 71.14 127.571 70.3937 125.647 70.2706C125.181 70.2615 124.715 70.322 124.267 70.4501C122.886 70.8504 123.093 71.8306 124.432 71.9549C126.324 72.231 127.732 72.866 126.793 72.866C126.142 72.8269 125.496 72.7345 124.86 72.5899C124.57 72.5307 124.273 72.503 123.977 72.5071C123.218 72.5071 122.389 72.6589 122.32 73.0593C122.072 74.2741 124.874 74.4398 126.089 74.7297C126.917 75.42 123.977 75.2819 123.466 75.5995C121.188 76.98 126.655 77.3803 126.793 77.7531C127.166 78.8023 123.521 77.9601 124.612 79.3683C125.44 80.4175 129.043 79.7962 130.134 80.1828C130.7 80.3761 131.059 80.7902 131.514 80.9283L132.343 81.8946C135.891 85.8706 143.925 94.0847 151.863 96.3073C153.566 96.7917 155.326 97.0425 157.096 97.0528C162.162 97.0528 166.884 94.8578 171.936 90.6058C174.801 88.2469 177.098 85.2746 178.659 81.9085C179.14 80.877 179.515 79.7992 179.778 78.6918C179.86 78.3329 179.943 77.974 180.012 77.615C180.012 77.615 180.012 77.5322 180.012 77.477C181.616 70.3569 182.376 63.0728 182.276 55.7751C182.287 54.297 181.713 52.8746 180.678 51.8191C179.643 50.7636 178.232 50.1608 176.754 50.1426L176.865 50.1978Z" fill="black"/>
<path d="M160.574 74.1503C160.726 72.3833 161.83 61.1734 167.173 55.3062C169.603 52.6418 176.989 48.0998 180.578 50.9161C186.307 55.4304 184.223 69.3047 182.262 79.2859C175.084 81.122 167.256 78.9546 160.574 74.1503Z" fill="#3CBCC3"/>
</svg>
