<svg width="6" height="50" viewBox="0 0 6 50" fill="none" xmlns="http://www.w3.org/2000/svg">
<path d="M3 44.3333C1.52724 44.3333 0.333331 45.5272 0.333331 47C0.333331 48.4728 1.52724 49.6667 3 49.6667C4.47276 49.6667 5.66666 48.4728 5.66666 47C5.66666 45.5272 4.47276 44.3333 3 44.3333ZM2.5 -2.18557e-08L2.5 0.979167L3.5 0.979167L3.5 2.18557e-08L2.5 -2.18557e-08ZM2.5 2.9375L2.5 4.89583L3.5 4.89583L3.5 2.9375L2.5 2.9375ZM2.5 6.85417L2.5 8.8125L3.5 8.8125L3.5 6.85417L2.5 6.85417ZM2.5 10.7708L2.5 12.7292L3.5 12.7292L3.5 10.7708L2.5 10.7708ZM2.5 14.6875L2.5 16.6458L3.5 16.6458L3.5 14.6875L2.5 14.6875ZM2.5 18.6042L2.5 20.5625L3.5 20.5625L3.5 18.6042L2.5 18.6042ZM2.5 22.5208L2.5 24.4792L3.5 24.4792L3.5 22.5208L2.5 22.5208ZM2.5 26.4375L2.5 28.3958L3.5 28.3958L3.5 26.4375L2.5 26.4375ZM2.5 30.3542L2.5 32.3125L3.5 32.3125L3.5 30.3542L2.5 30.3542ZM2.5 34.2708L2.5 36.2292L3.5 36.2292L3.5 34.2708L2.5 34.2708ZM2.5 38.1875L2.5 40.1458L3.5 40.1458L3.5 38.1875L2.5 38.1875ZM2.5 42.1042L2.5 44.0625L3.5 44.0625L3.5 42.1042L2.5 42.1042ZM2.5 46.0208L2.5 47L3.5 47L3.5 46.0208L2.5 46.0208Z" fill="black"/>
</svg>
