<svg width="87" height="86" viewBox="0 0 87 86" fill="none" xmlns="http://www.w3.org/2000/svg">
<rect width="86" height="86" transform="translate(0.636719)" fill="white"/>
<path d="M45.6213 56.2283V81.3668H0.636719V56.2283C0.637873 53.9078 2.15056 51.8587 4.36779 51.1742L17.8367 46.9668H28.4213L41.8902 51.108C44.131 51.7997 45.6494 53.8834 45.6213 56.2283Z" fill="#50D9D7"/>
<path d="M23.1291 54.9069C21.3745 54.9069 19.6919 54.2099 18.4513 52.9693C17.2106 51.7287 16.5137 50.046 16.5137 48.2915V44.3223H29.7444V48.2915C29.7444 50.046 29.0475 51.7287 27.8068 52.9693C26.5662 54.2099 24.8836 54.9069 23.1291 54.9069Z" fill="#EBA63F"/>
<path d="M23.1294 48.2903C16.5529 48.2903 11.2217 42.9591 11.2217 36.3826V27.1211H35.0371V36.3826C35.0371 42.9591 29.7058 48.2903 23.1294 48.2903Z" fill="#F4D593"/>
<rect x="8.5752" y="24.4746" width="2.64615" height="7.93846" fill="#3CBCC3"/>
<path d="M35.0374 27.1206H9.89892C7.70677 27.1206 5.92969 25.3435 5.92969 23.1514V15.2129H29.7451C31.9372 15.2129 33.7143 16.99 33.7143 19.1821C35.9064 19.1821 37.6835 20.9592 37.6835 23.1514V32.4129H35.0374V27.1206Z" fill="#00BEBD"/>
<path d="M11.2212 31.0918V37.7072H10.5596C8.73286 37.7072 7.25195 36.2263 7.25195 34.3995C7.25195 32.5727 8.73286 31.0918 10.5596 31.0918L11.2212 31.0918Z" fill="#F4D593"/>
<path d="M35.6986 37.7072H35.0371V31.0918H35.6986C37.5254 31.0918 39.0063 32.5727 39.0063 34.3995C39.0063 36.2263 37.5254 37.7072 35.6986 37.7072Z" fill="#F4D593"/>
<path d="M19.8872 44.1757C19.2934 43.8185 19.0759 43.0635 19.3886 42.4451C19.7013 41.8266 20.4382 41.5543 21.078 41.8207C22.3716 42.4551 23.8859 42.4551 25.1795 41.8207C25.8193 41.5543 26.5562 41.8266 26.8689 42.4451C27.1816 43.0635 26.9641 43.8185 26.3703 44.1757C24.3291 45.1936 21.9284 45.1936 19.8872 44.1757Z" fill="#EBA63F"/>
<path d="M50.9141 7.27506V28.4443C50.9141 29.9057 52.0988 31.0904 53.5602 31.0904H62.8218C63.6546 31.0904 64.4389 31.4826 64.9387 32.1489L67.0556 34.967C67.3055 35.3002 67.6976 35.4963 68.1141 35.4963C68.5305 35.4963 68.9226 35.3002 69.1725 34.967L71.2894 32.1489C71.7892 31.4826 72.5735 31.0904 73.4064 31.0904H82.6679C84.1293 31.0904 85.3141 29.9057 85.3141 28.4443V7.27506C85.3141 5.81363 84.1293 4.62891 82.6679 4.62891H53.5602C52.0988 4.62891 50.9141 5.81363 50.9141 7.27506Z" fill="#F4D593"/>
<path d="M61.4982 23.1506C61.1465 23.1526 60.8085 23.0145 60.5588 22.7669L56.5896 18.7977C56.3391 18.5492 56.1982 18.2111 56.1982 17.8583C56.1982 17.5055 56.3391 17.1673 56.5896 16.9189L60.5588 12.9497C61.0776 12.4308 61.9188 12.4308 62.4376 12.9497C62.9564 13.4685 62.9564 14.3096 62.4376 14.8284L59.3945 17.8583L62.4376 20.8881C62.8193 21.2666 62.934 21.8384 62.7278 22.3349C62.5217 22.8313 62.0357 23.1537 61.4982 23.1506Z" fill="white"/>
<path d="M74.7292 23.1506C74.1917 23.1537 73.7057 22.8313 73.4996 22.3349C73.2935 21.8384 73.4082 21.2666 73.7899 20.8881L76.8329 17.8583L73.7899 14.8284C73.2711 14.3096 73.2711 13.4685 73.7899 12.9497C74.3087 12.4308 75.1498 12.4308 75.6686 12.9497L79.6379 16.9189C79.8883 17.1673 80.0292 17.5055 80.0292 17.8583C80.0292 18.2111 79.8883 18.5492 79.6379 18.7977L75.6686 22.7669C75.4189 23.0145 75.0809 23.1526 74.7292 23.1506Z" fill="white"/>
<path d="M66.7903 25.7977C66.3883 25.8058 66.0045 25.6307 65.7471 25.3219C65.4897 25.013 65.3867 24.6039 65.4672 24.21L68.1134 10.9792C68.2079 10.5065 68.5475 10.1202 69.0041 9.96571C69.4607 9.81123 69.9651 9.91211 70.3272 10.2303C70.6893 10.5485 70.8541 11.0358 70.7595 11.5084L68.1134 24.7392C67.9857 25.3652 67.429 25.8106 66.7903 25.7977Z" fill="white"/>
<path d="M31.0672 74.752H56.2057V81.3673H33.7134C31.5212 81.3673 29.7441 79.5903 29.7441 77.3981V76.075C29.7441 75.3443 30.3365 74.752 31.0672 74.752Z" fill="#3CBCC3"/>
<path d="M77.375 81.3671H44.2981C43.8962 81.3752 43.5123 81.2001 43.2549 80.8913C42.9975 80.5824 42.8946 80.1733 42.975 79.7794L49.5904 48.0255C49.7181 47.3996 50.2748 46.9542 50.9135 46.9671H83.9904C84.3924 46.9589 84.7763 47.134 85.0336 47.4429C85.291 47.7517 85.394 48.1609 85.3135 48.5548L78.6981 80.3086C78.5705 80.9346 78.0138 81.3799 77.375 81.3671Z" fill="#00BEBD"/>
<path d="M33.7134 68.1365C31.5212 68.1365 29.7441 66.3595 29.7441 64.1673V58.875H37.6826V64.1673C37.6826 66.3595 35.9055 68.1365 33.7134 68.1365Z" fill="#00BEBD"/>
<rect x="29.7441" y="58.875" width="7.93846" height="2.64615" fill="#3CBCC3"/>
<circle cx="64.144" cy="64.1684" r="3.96923" fill="white"/>
</svg>
