<svg width="274" height="195" viewBox="0 0 274 195" fill="none" xmlns="http://www.w3.org/2000/svg">
<path d="M50.5486 77.9303C50.4883 77.9303 50.4305 77.9063 50.3879 77.8637C50.3452 77.8211 50.3213 77.7632 50.3213 77.703V76.7937C50.3213 76.7334 50.3452 76.6756 50.3879 76.633C50.4305 76.5904 50.4883 76.5664 50.5486 76.5664C50.6089 76.5664 50.6667 76.5904 50.7093 76.633C50.752 76.6756 50.7759 76.7334 50.7759 76.7937V77.703C50.7759 77.7632 50.752 77.8211 50.7093 77.8637C50.6667 77.9063 50.6089 77.9303 50.5486 77.9303Z" fill="#075085"/>
<path d="M50.5486 75.1394C50.4883 75.1394 50.4305 75.1154 50.3879 75.0728C50.3452 75.0302 50.3213 74.9724 50.3213 74.9121V72.9936C50.3213 72.9333 50.3452 72.8755 50.3879 72.8329C50.4305 72.7902 50.4883 72.7663 50.5486 72.7663C50.6089 72.7663 50.6667 72.7902 50.7093 72.8329C50.752 72.8755 50.7759 72.9333 50.7759 72.9936V74.8757C50.7812 74.9085 50.7793 74.942 50.7703 74.9739C50.7613 75.0058 50.7454 75.0354 50.7237 75.0605C50.702 75.0856 50.6751 75.1057 50.6449 75.1194C50.6146 75.133 50.5818 75.1398 50.5486 75.1394ZM50.5486 71.3752C50.4883 71.3752 50.4305 71.3512 50.3879 71.3086C50.3452 71.2659 50.3213 71.2081 50.3213 71.1478V69.2566C50.3213 69.1963 50.3452 69.1385 50.3879 69.0959C50.4305 69.0533 50.4883 69.0293 50.5486 69.0293C50.6082 69.0316 50.6647 69.0562 50.7068 69.0984C50.749 69.1405 50.7737 69.1971 50.7759 69.2566V71.1751C50.7674 71.2298 50.74 71.2798 50.6985 71.3163C50.6569 71.3529 50.6039 71.3737 50.5486 71.3752ZM50.5486 67.6018C50.4883 67.6018 50.4305 67.5779 50.3879 67.5352C50.3452 67.4926 50.3213 67.4348 50.3213 67.3745V65.4924C50.3213 65.4321 50.3452 65.3743 50.3879 65.3317C50.4305 65.289 50.4883 65.2651 50.5486 65.2651C50.6089 65.2651 50.6667 65.289 50.7093 65.3317C50.752 65.3743 50.7759 65.4321 50.7759 65.4924V67.3745C50.7759 67.4348 50.752 67.4926 50.7093 67.5352C50.6667 67.5779 50.6089 67.6018 50.5486 67.6018ZM50.5486 63.8376C50.4883 63.8376 50.4305 63.8136 50.3879 63.771C50.3452 63.7284 50.3213 63.6706 50.3213 63.6103V61.7282C50.3213 61.6679 50.3452 61.6101 50.3879 61.5674C50.4305 61.5248 50.4883 61.5009 50.5486 61.5009C50.6089 61.5009 50.6667 61.5248 50.7093 61.5674C50.752 61.6101 50.7759 61.6679 50.7759 61.7282V63.6103C50.7759 63.6706 50.752 63.7284 50.7093 63.771C50.6667 63.8136 50.6089 63.8376 50.5486 63.8376ZM50.5486 60.0733C50.4883 60.0733 50.4305 60.0494 50.3879 60.0068C50.3452 59.9641 50.3213 59.9063 50.3213 59.846V57.9548C50.3213 57.8945 50.3452 57.8367 50.3879 57.7941C50.4305 57.7515 50.4883 57.7275 50.5486 57.7275C50.6082 57.7298 50.6647 57.7544 50.7068 57.7966C50.749 57.8387 50.7737 57.8953 50.7759 57.9548V59.846C50.7737 59.9056 50.749 59.9621 50.7068 60.0043C50.6647 60.0464 50.6082 60.0711 50.5486 60.0733ZM50.5486 56.3C50.4883 56.3 50.4305 56.2761 50.3879 56.2334C50.3452 56.1908 50.3213 56.133 50.3213 56.0727V54.1906C50.3213 54.1303 50.3452 54.0725 50.3879 54.0299C50.4305 53.9872 50.4883 53.9633 50.5486 53.9633C50.6089 53.9633 50.6667 53.9872 50.7093 54.0299C50.752 54.0725 50.7759 54.1303 50.7759 54.1906V56.0727C50.7759 56.133 50.752 56.1908 50.7093 56.2334C50.6667 56.2761 50.6089 56.3 50.5486 56.3ZM50.5486 52.5358C50.4883 52.5358 50.4305 52.5118 50.3879 52.4692C50.3452 52.4266 50.3213 52.3688 50.3213 52.3085V50.4264C50.3213 50.3661 50.3452 50.3083 50.3879 50.2656C50.4305 50.223 50.4883 50.199 50.5486 50.199C50.6089 50.199 50.6667 50.223 50.7093 50.2656C50.752 50.3083 50.7759 50.3661 50.7759 50.4264V52.3085C50.7759 52.3688 50.752 52.4266 50.7093 52.4692C50.6667 52.5118 50.6089 52.5358 50.5486 52.5358ZM50.5486 48.7624C50.4883 48.7624 50.4305 48.7385 50.3879 48.6959C50.3452 48.6532 50.3213 48.5954 50.3213 48.5351V46.6257C50.3213 46.5655 50.3452 46.5076 50.3879 46.465C50.4305 46.4224 50.4883 46.3984 50.5486 46.3984C50.6089 46.3984 50.6667 46.4224 50.7093 46.465C50.752 46.5076 50.7759 46.5655 50.7759 46.6257V48.5351C50.7759 48.5954 50.752 48.6532 50.7093 48.6959C50.6667 48.7385 50.6089 48.7624 50.5486 48.7624Z" fill="#075085"/>
<path d="M50.5486 44.9986C50.4883 44.9986 50.4305 44.9747 50.3879 44.932C50.3452 44.8894 50.3213 44.8316 50.3213 44.7713V43.6348H51.4578C51.5181 43.6348 51.5759 43.6587 51.6186 43.7013C51.6612 43.744 51.6851 43.8018 51.6851 43.8621C51.6851 43.9224 51.6612 43.9802 51.6186 44.0228C51.5759 44.0654 51.5181 44.0894 51.4578 44.0894H50.7759V44.8077C50.7672 44.8615 50.7394 44.9103 50.6977 44.9454C50.656 44.9804 50.6031 44.9993 50.5486 44.9986Z" fill="#075085"/>
<path d="M77.3525 44.0894H75.5341C75.4738 44.0894 75.416 44.0654 75.3733 44.0228C75.3307 43.9802 75.3068 43.9224 75.3068 43.8621C75.3068 43.8018 75.3307 43.744 75.3733 43.7013C75.416 43.6587 75.4738 43.6348 75.5341 43.6348H77.3525C77.4128 43.6348 77.4706 43.6587 77.5133 43.7013C77.5559 43.744 77.5798 43.8018 77.5798 43.8621C77.5798 43.9224 77.5559 43.9802 77.5133 44.0228C77.4706 44.0654 77.4128 44.0894 77.3525 44.0894ZM73.6519 44.0894H71.8335C71.7732 44.0894 71.7154 44.0654 71.6727 44.0228C71.6301 43.9802 71.6062 43.9224 71.6062 43.8621C71.6062 43.8018 71.6301 43.744 71.6727 43.7013C71.7154 43.6587 71.7732 43.6348 71.8335 43.6348H73.6519C73.7122 43.6348 73.7701 43.6587 73.8127 43.7013C73.8553 43.744 73.8793 43.8018 73.8793 43.8621C73.8793 43.9224 73.8553 43.9802 73.8127 44.0228C73.7701 44.0654 73.7122 44.0894 73.6519 44.0894ZM69.9514 44.0894H68.1329C68.0726 44.0894 68.0148 44.0654 67.9722 44.0228C67.9295 43.9802 67.9056 43.9224 67.9056 43.8621C67.9056 43.8018 67.9295 43.744 67.9722 43.7013C68.0148 43.6587 68.0726 43.6348 68.1329 43.6348H69.9514C70.0116 43.6348 70.0695 43.6587 70.1121 43.7013C70.1547 43.744 70.1787 43.8018 70.1787 43.8621C70.1787 43.9224 70.1547 43.9802 70.1121 44.0228C70.0695 44.0654 70.0116 44.0894 69.9514 44.0894ZM66.2599 44.0894H64.4414C64.3811 44.0894 64.3233 44.0654 64.2807 44.0228C64.238 43.9802 64.2141 43.9224 64.2141 43.8621C64.2141 43.8018 64.238 43.744 64.2807 43.7013C64.3233 43.6587 64.3811 43.6348 64.4414 43.6348H66.2599C66.3201 43.6348 66.378 43.6587 66.4206 43.7013C66.4632 43.744 66.4872 43.8018 66.4872 43.8621C66.4872 43.9224 66.4632 43.9802 66.4206 44.0228C66.378 44.0654 66.3201 44.0894 66.2599 44.0894ZM62.5593 44.0894H60.7408C60.6805 44.0894 60.6227 44.0654 60.5801 44.0228C60.5374 43.9802 60.5135 43.9224 60.5135 43.8621C60.5135 43.8018 60.5374 43.744 60.5801 43.7013C60.6227 43.6587 60.6805 43.6348 60.7408 43.6348H62.5593C62.6196 43.6348 62.6774 43.6587 62.72 43.7013C62.7626 43.744 62.7866 43.8018 62.7866 43.8621C62.7866 43.9224 62.7626 43.9802 62.72 44.0228C62.6774 44.0654 62.6196 44.0894 62.5593 44.0894ZM58.8587 44.0894H57.0402C56.9799 44.0894 56.9221 44.0654 56.8795 44.0228C56.8368 43.9802 56.8129 43.9224 56.8129 43.8621C56.8129 43.8018 56.8368 43.744 56.8795 43.7013C56.9221 43.6587 56.9799 43.6348 57.0402 43.6348H58.8587C58.919 43.6348 58.9768 43.6587 59.0194 43.7013C59.062 43.744 59.086 43.8018 59.086 43.8621C59.086 43.9224 59.062 43.9802 59.0194 44.0228C58.9768 44.0654 58.919 44.0894 58.8587 44.0894ZM55.1581 44.0894H53.3396C53.2793 44.0894 53.2215 44.0654 53.1789 44.0228C53.1363 43.9802 53.1123 43.9224 53.1123 43.8621C53.1123 43.8018 53.1363 43.744 53.1789 43.7013C53.2215 43.6587 53.2793 43.6348 53.3396 43.6348H55.1581C55.2184 43.6348 55.2762 43.6587 55.3188 43.7013C55.3614 43.744 55.3854 43.8018 55.3854 43.8621C55.3854 43.9224 55.3614 43.9802 55.3188 44.0228C55.2762 44.0654 55.2184 44.0894 55.1581 44.0894Z" fill="#075085"/>
<path d="M80.117 44.0894H79.2078C79.1475 44.0894 79.0897 44.0654 79.047 44.0228C79.0044 43.9802 78.9805 43.9224 78.9805 43.8621C78.9805 43.8018 79.0044 43.744 79.047 43.7013C79.0897 43.6587 79.1475 43.6348 79.2078 43.6348H80.117C80.1773 43.6348 80.2351 43.6587 80.2777 43.7013C80.3204 43.744 80.3443 43.8018 80.3443 43.8621C80.3443 43.9224 80.3204 43.9802 80.2777 44.0228C80.2351 44.0654 80.1773 44.0894 80.117 44.0894Z" fill="#075085"/>
<path d="M192.398 21.8585V101.999C192.399 102.375 192.326 102.749 192.183 103.097C192.039 103.446 191.829 103.763 191.562 104.03C191.296 104.297 190.98 104.508 190.632 104.653C190.284 104.797 189.911 104.872 189.534 104.872H77.9344C77.5575 104.872 77.1844 104.797 76.8363 104.653C76.4882 104.508 76.1721 104.297 75.906 104.03C75.6399 103.763 75.4291 103.446 75.2857 103.097C75.1423 102.749 75.0691 102.375 75.0703 101.999V21.8676C75.0703 20.903 75.4535 19.9779 76.1356 19.2959C76.8176 18.6138 77.7427 18.2307 78.7073 18.2307H188.725C189.205 18.2259 189.681 18.3161 190.126 18.4961C190.571 18.6762 190.975 18.9425 191.317 19.2797C191.658 19.617 191.93 20.0185 192.115 20.4611C192.301 20.9036 192.397 21.3786 192.398 21.8585Z" fill="white"/>
<path d="M192.398 30.8143H75.1064V21.8674C75.1064 20.9028 75.4896 19.9778 76.1717 19.2957C76.8537 18.6136 77.7788 18.2305 78.7434 18.2305H188.761C189.726 18.2305 190.651 18.6136 191.333 19.2957C192.015 19.9778 192.398 20.9028 192.398 21.8674V30.8143Z" fill="#414267"/>
<path d="M95.2461 24.5038C95.2479 24.1211 95.363 23.7476 95.5769 23.4303C95.7908 23.113 96.0939 22.8662 96.4479 22.721C96.802 22.5758 97.1911 22.5388 97.5661 22.6145C97.9412 22.6903 98.2854 22.8754 98.5554 23.1466C98.8253 23.4178 99.0089 23.7629 99.0829 24.1384C99.1569 24.5138 99.118 24.9027 98.9711 25.2561C98.8243 25.6094 98.5761 25.9113 98.2578 26.1238C97.9395 26.3362 97.5654 26.4495 97.1828 26.4495C96.6683 26.4471 96.1757 26.2411 95.8128 25.8764C95.4498 25.5118 95.2461 25.0182 95.2461 24.5038Z" fill="#D3D8EA"/>
<path d="M87.791 24.5038C87.7928 24.1211 87.9079 23.7476 88.1218 23.4303C88.3357 23.113 88.6388 22.8662 88.9928 22.721C89.3469 22.5758 89.736 22.5388 90.1111 22.6145C90.4861 22.6903 90.8304 22.8754 91.1003 23.1466C91.3702 23.4178 91.5538 23.7629 91.6278 24.1384C91.7018 24.5138 91.6629 24.9027 91.5161 25.2561C91.3692 25.6094 91.121 25.9113 90.8027 26.1238C90.4844 26.3362 90.1103 26.4495 89.7277 26.4495C89.2132 26.4471 88.7206 26.2411 88.3577 25.8764C87.9948 25.5118 87.791 25.0182 87.791 24.5038Z" fill="#BAE1FD"/>
<path d="M80.335 24.5038C80.3368 24.1211 80.4519 23.7476 80.6658 23.4303C80.8797 23.113 81.1827 22.8662 81.5368 22.721C81.8908 22.5758 82.2799 22.5388 82.655 22.6145C83.0301 22.6903 83.3743 22.8754 83.6443 23.1466C83.9142 23.4178 84.0977 23.7629 84.1717 24.1384C84.2457 24.5138 84.2068 24.9027 84.06 25.2561C83.9132 25.6094 83.6649 25.9113 83.3466 26.1238C83.0284 26.3362 82.6543 26.4495 82.2716 26.4495C81.7572 26.4471 81.2646 26.2411 80.9016 25.8764C80.5387 25.5118 80.335 25.0182 80.335 24.5038Z" fill="white"/>
<path d="M183.169 23.0947L184.124 22.1309L185.497 23.5038L186.86 22.1309L187.824 23.0947L186.451 24.4585L187.824 25.8315L186.86 26.7952L185.497 25.4223L184.124 26.7952L183.169 25.8315L184.533 24.4585L183.169 23.0947Z" fill="white"/>
<path d="M114.586 35.3965L114.686 36.9513H140.617L140.526 35.3965H114.586Z" fill="#D3D8EA"/>
<path d="M127.306 40.0703L127.406 41.616H169.594L169.503 40.0703H127.306Z" fill="#D3D8EA"/>
<path d="M114.658 40.0703L114.749 41.616H125.487L125.387 40.0703H114.658Z" fill="#075085"/>
<path d="M114.54 44.7344L114.631 46.2892H136.107L135.953 44.7344H114.54Z" fill="#D3D8EA"/>
<path d="M137.444 44.7344L137.599 46.2892H158.639L158.548 44.7344H137.444Z" fill="#075085"/>
<path d="M95.7552 44.7344L95.7461 46.2892H106.293L106.302 44.7344H95.7552Z" fill="#D3D8EA"/>
<path d="M82.9261 40.0703L82.917 41.616H100.083L100.092 40.0703H82.9261Z" fill="#D3D8EA"/>
<path d="M102.056 40.0703L102.047 41.616H106.411L106.42 40.0703H102.056Z" fill="#D3D8EA"/>
<path d="M97.8828 35.3965L97.8919 36.9513H106.602L106.621 35.3965H97.8828Z" fill="#BAE1FD"/>
<path d="M87.554 35.3965L87.5449 36.9513H96.1281L96.119 35.3965H87.554Z" fill="#BAE1FD"/>
<path d="M95.6194 62.2188L95.6104 63.7735H106.167L106.176 62.2188H95.6194Z" fill="#D3D8EA"/>
<path d="M82.7991 57.5449L82.79 59.0997H99.9564V57.5449H82.7991Z" fill="#D3D8EA"/>
<path d="M101.929 57.5449L101.92 59.0997H106.284L106.293 57.5449H101.929Z" fill="#D3D8EA"/>
<path d="M95.4554 72.0469L95.4463 73.6017H105.993L106.012 72.0469H95.4554Z" fill="#D3D8EA"/>
<path d="M82.6263 67.3848L82.6172 68.9305H99.7836L99.7927 67.3848H82.6263Z" fill="#BAE1FD"/>
<path d="M101.756 67.3848L101.747 68.9305H106.111L106.12 67.3848H101.756Z" fill="#BAE1FD"/>
<path d="M97.7559 52.8809L97.7649 54.4266H106.475L106.485 52.8809H97.7559Z" fill="#BAE1FD"/>
<path d="M87.4271 52.8809L87.418 54.4266H96.0012L95.9921 52.8809H87.4271Z" fill="#BAE1FD"/>
<path d="M143.199 35.3965L143.29 36.9513H151.164L151.064 35.3965H143.199Z" fill="#075085"/>
<path d="M172.223 40.0703L172.314 41.616H184.916L184.816 40.0703H172.223Z" fill="#D3D8EA"/>
<path d="M160.947 44.7344L161.047 46.2892H173.813L173.722 44.7344H160.947Z" fill="#D3D8EA"/>
<path d="M154.592 35.3965L154.783 36.9513H177.023L176.841 35.3965H154.592Z" fill="#D3D8EA"/>
<path d="M114.459 52.8809L114.55 54.4266H140.49L140.399 52.8809H114.459Z" fill="#D3D8EA"/>
<path d="M127.179 57.5449L127.279 59.0997H169.467L169.367 57.5449H127.179Z" fill="#D3D8EA"/>
<path d="M114.522 57.5449L114.622 59.0997H125.361L125.251 57.5449H114.522Z" fill="#D3D8EA"/>
<path d="M114.404 62.2188L114.504 63.7735H135.971L135.817 62.2188H114.404Z" fill="#D3D8EA"/>
<path d="M137.316 62.2188L137.471 63.7735H158.502L158.411 62.2188H137.316Z" fill="#D3D8EA"/>
<path d="M143.063 52.8809L143.163 54.4266H151.028L150.937 52.8809H143.063Z" fill="#D3D8EA"/>
<path d="M172.086 57.5449L172.186 59.0997H184.779L184.688 57.5449H172.086Z" fill="#D3D8EA"/>
<path d="M160.82 62.2188L160.911 63.7735H173.686L173.595 62.2188H160.82Z" fill="#075085"/>
<path d="M127.533 67.3848L127.633 68.9305H169.813L169.722 67.3848H127.533Z" fill="#D3D8EA"/>
<path d="M114.877 67.3848L114.968 68.9305H125.706L125.606 67.3848H114.877Z" fill="#D3D8EA"/>
<path d="M114.759 72.0469L114.85 73.6017H136.326L136.171 72.0469H114.759Z" fill="#D3D8EA"/>
<path d="M137.671 72.0469L137.825 73.6017H158.856L158.765 72.0469H137.671Z" fill="#075085"/>
<path d="M172.44 67.3848L172.531 68.9305H185.133L185.042 67.3848H172.44Z" fill="#075085"/>
<path d="M161.175 72.0469L161.266 73.6017H174.04L173.94 72.0469H161.175Z" fill="#D3D8EA"/>
<path d="M154.465 52.8809L154.647 54.4266H176.896L176.714 52.8809H154.465Z" fill="#075085"/>
<path d="M95.2737 88.1309L95.2646 89.6857H105.821L105.83 88.1309H95.2737Z" fill="#D3D8EA"/>
<path d="M82.4534 83.4688L82.4443 85.0145H99.6107V83.4688H82.4534Z" fill="#D3D8EA"/>
<path d="M101.574 83.4688V85.0145H105.939L105.948 83.4688H101.574Z" fill="#D3D8EA"/>
<path d="M95.1097 97.9688L95.1006 99.5235H105.648L105.666 97.9688H95.1097Z" fill="#D3D8EA"/>
<path d="M82.2806 93.2969L82.2715 94.8517H99.4379L99.447 93.2969H82.2806Z" fill="#BAE1FD"/>
<path d="M101.41 93.2969L101.401 94.8517H105.766L105.775 93.2969H101.41Z" fill="#BAE1FD"/>
<path d="M97.4014 78.793L97.4195 80.3478H106.13L106.139 78.793H97.4014Z" fill="#BAE1FD"/>
<path d="M87.0814 78.793L87.0723 80.3478H95.6554L95.6373 78.793H87.0814Z" fill="#BAE1FD"/>
<path d="M114.113 78.793L114.204 80.3478H140.145L140.054 78.793H114.113Z" fill="#D3D8EA"/>
<path d="M126.833 83.4688L126.933 85.0145H169.122L169.022 83.4688H126.833Z" fill="#D3D8EA"/>
<path d="M114.177 83.4688L114.277 85.0145H125.015L124.906 83.4688H114.177Z" fill="#D3D8EA"/>
<path d="M114.059 88.1309L114.159 89.6857H135.626L135.471 88.1309H114.059Z" fill="#D3D8EA"/>
<path d="M136.972 88.1309L137.126 89.6857H158.157L158.066 88.1309H136.972Z" fill="#D3D8EA"/>
<path d="M142.718 78.793L142.818 80.3478H150.683L150.592 78.793H142.718Z" fill="#D3D8EA"/>
<path d="M171.74 83.4688L171.84 85.0145H184.433L184.342 83.4688H171.74Z" fill="#D3D8EA"/>
<path d="M160.475 88.1309L160.566 89.6857H173.34L173.249 88.1309H160.475Z" fill="#075085"/>
<path d="M127.188 93.2969L127.288 94.8517H169.467L169.376 93.2969H127.188Z" fill="#D3D8EA"/>
<path d="M114.531 93.2969L114.622 94.8517H125.36L125.26 93.2969H114.531Z" fill="#D3D8EA"/>
<path d="M114.413 97.9688L114.504 99.5235H135.98L135.826 97.9688H114.413Z" fill="#D3D8EA"/>
<path d="M137.326 97.9688L137.472 99.5235H158.511L158.42 97.9688H137.326Z" fill="#075085"/>
<path d="M172.095 93.2969L172.186 94.8517H184.788L184.688 93.2969H172.095Z" fill="#075085"/>
<path d="M160.83 97.9688L160.921 99.5235H173.696L173.596 97.9688H160.83Z" fill="#D3D8EA"/>
<path d="M154.119 78.793L154.301 80.3478H176.55L176.359 78.793H154.119Z" fill="#075085"/>
<path d="M133.016 79.0203V141.758C133.014 142.353 132.777 142.922 132.356 143.343C131.935 143.764 131.366 144.001 130.771 144.003H43.393C42.806 143.992 42.2468 143.751 41.8342 143.334C41.4216 142.916 41.1882 142.354 41.1836 141.767V79.0294C41.1836 78.269 41.4851 77.5396 42.0219 77.001C42.5588 76.4624 43.2872 76.1587 44.0477 76.1562H130.171C130.926 76.1634 131.649 76.468 132.181 77.0041C132.714 77.5402 133.014 78.2646 133.016 79.0203Z" fill="#BAE1FD"/>
<path d="M133.016 86.0396H41.1836V79.0294C41.1836 78.269 41.4851 77.5396 42.0219 77.001C42.5588 76.4624 43.2872 76.1587 44.0477 76.1562H130.171C130.928 76.1634 131.652 76.4693 132.185 77.0074C132.718 77.5454 133.016 78.2721 133.016 79.0294V86.0396Z" fill="#1D1D2C"/>
<path d="M56.9492 81.0946C56.9493 80.7939 57.0385 80.4999 57.2058 80.25C57.373 80.0001 57.6107 79.8055 57.8887 79.6909C58.1667 79.5762 58.4725 79.5467 58.7673 79.606C59.0621 79.6654 59.3326 79.8109 59.5446 80.0241C59.7566 80.2374 59.9005 80.5088 59.958 80.804C60.0156 81.0991 59.9842 81.4047 59.8679 81.682C59.7516 81.9593 59.5555 82.1958 59.3046 82.3615C59.0537 82.5273 58.7593 82.6148 58.4586 82.613C58.2596 82.613 58.0626 82.5737 57.8789 82.4972C57.6952 82.4208 57.5284 82.3088 57.3881 82.1677C57.2478 82.0266 57.1368 81.8591 57.0615 81.675C56.9862 81.4908 56.948 81.2935 56.9492 81.0946Z" fill="#D3D8EA"/>
<path d="M51.1123 81.0946C51.1123 80.7939 51.2016 80.4999 51.3689 80.25C51.5361 80.0001 51.7738 79.8055 52.0518 79.6909C52.3298 79.5762 52.6356 79.5467 52.9303 79.606C53.2251 79.6654 53.4957 79.8109 53.7077 80.0241C53.9197 80.2374 54.0635 80.5088 54.1211 80.804C54.1787 81.0991 54.1473 81.4047 54.031 81.682C53.9146 81.9593 53.7186 82.1958 53.4677 82.3615C53.2168 82.5273 52.9224 82.6148 52.6217 82.613C52.4227 82.613 52.2257 82.5737 52.042 82.4972C51.8582 82.4208 51.6915 82.3088 51.5512 82.1677C51.4109 82.0266 51.2999 81.8591 51.2246 81.675C51.1493 81.4908 51.1111 81.2935 51.1123 81.0946Z" fill="#BAE1FD"/>
<path d="M45.2744 81.0946C45.2744 80.7943 45.3635 80.5007 45.5303 80.251C45.6972 80.0013 45.9343 79.8067 46.2118 79.6918C46.4892 79.5768 46.7946 79.5468 47.0891 79.6053C47.3836 79.6639 47.6542 79.8086 47.8666 80.0209C48.0789 80.2333 48.2235 80.5038 48.2821 80.7984C48.3407 81.0929 48.3106 81.3982 48.1957 81.6757C48.0808 81.9531 47.8862 82.1903 47.6365 82.3571C47.3868 82.524 47.0932 82.613 46.7929 82.613C46.5931 82.6142 46.3951 82.5758 46.2104 82.4999C46.0256 82.424 45.8577 82.3122 45.7165 82.171C45.5752 82.0297 45.4634 81.8619 45.3876 81.6771C45.3117 81.4923 45.2732 81.2943 45.2744 81.0946Z" fill="white"/>
<path d="M125.77 79.9949L126.524 79.2402L127.597 80.3131L128.67 79.2402L129.416 79.9949L128.343 81.0678L129.416 82.1316L128.67 82.8863L127.597 81.8134L126.524 82.8863L125.77 82.1316L126.842 81.0678L125.77 79.9949Z" fill="white"/>
<path d="M72.0879 89.623L72.1606 90.8414H92.4639L92.3911 89.623H72.0879Z" fill="#D3D8EA"/>
<path d="M82.0439 93.2773L82.1258 94.4957H115.149L115.076 93.2773H82.0439Z" fill="#D3D8EA"/>
<path d="M72.1426 93.2773L72.2153 94.4957H80.6167L80.5348 93.2773H72.1426Z" fill="white"/>
<path d="M72.043 96.9336L72.1157 98.152H88.9275L88.8093 96.9336H72.043Z" fill="#D3D8EA"/>
<path d="M89.9814 96.9336L90.0997 98.152H106.566L106.493 96.9336H89.9814Z" fill="white"/>
<path d="M57.3401 96.9336L57.3311 98.152H65.596L65.6051 96.9336H57.3401Z" fill="#D3D8EA"/>
<path d="M47.3021 93.2773L47.293 94.4957H60.7315V93.2773H47.3021Z" fill="#D3D8EA"/>
<path d="M62.2776 93.2773L62.2686 94.4957H65.6873L65.6964 93.2773H62.2776Z" fill="#D3D8EA"/>
<path d="M59.0039 89.623L59.0221 90.8414H65.8414V89.623H59.0039Z" fill="#BAE1FD"/>
<path d="M50.93 89.623L50.9209 90.8414H57.6402L57.622 89.623H50.93Z" fill="#BAE1FD"/>
<path d="M57.2405 110.617L57.2314 111.836H65.4964V110.617H57.2405Z" fill="#D3D8EA"/>
<path d="M47.2025 106.963L47.1934 108.181H60.6319V106.963H47.2025Z" fill="#D3D8EA"/>
<path d="M62.168 106.963V108.181H65.5867V106.963H62.168Z" fill="#D3D8EA"/>
<path d="M57.1038 118.318L57.0947 119.537H65.3597L65.3688 118.318H57.1038Z" fill="#D3D8EA"/>
<path d="M47.0657 114.664L47.0566 115.882H60.4951L60.5042 114.664H47.0657Z" fill="#BAE1FD"/>
<path d="M62.0413 114.664L62.0322 115.882H65.451L65.46 114.664H62.0413Z" fill="#BAE1FD"/>
<path d="M58.9043 103.309L58.9134 104.527H65.7327L65.7418 103.309H58.9043Z" fill="#BAE1FD"/>
<path d="M50.8216 103.309L50.8125 104.527H57.5318L57.5227 103.309H50.8216Z" fill="#BAE1FD"/>
<path d="M94.4824 89.623L94.5552 90.8414H100.72L100.638 89.623H94.4824Z" fill="white"/>
<path d="M117.204 93.2773L117.277 94.4957H127.133L127.06 93.2773H117.204Z" fill="#D3D8EA"/>
<path d="M108.376 96.9336L108.458 98.152H118.45L118.378 96.9336H108.376Z" fill="#D3D8EA"/>
<path d="M103.402 89.623L103.548 90.8414H120.96L120.814 89.623H103.402Z" fill="#D3D8EA"/>
<path d="M71.9795 103.309L72.0613 104.527H92.3646L92.2918 103.309H71.9795Z" fill="#D3D8EA"/>
<path d="M81.9443 106.963L82.0171 108.181H115.05L114.968 106.963H81.9443Z" fill="#D3D8EA"/>
<path d="M72.0332 106.963L72.1059 108.181H80.5164L80.4345 106.963H72.0332Z" fill="#D3D8EA"/>
<path d="M71.9424 110.617L72.0151 111.836H88.8269L88.7087 110.617H71.9424Z" fill="#D3D8EA"/>
<path d="M89.8818 110.617L90 111.836H106.466L106.394 110.617H89.8818Z" fill="#D3D8EA"/>
<path d="M94.373 103.309L94.4549 104.527H100.61L100.538 103.309H94.373Z" fill="#D3D8EA"/>
<path d="M117.096 106.963L117.178 108.181H127.034L126.961 106.963H117.096Z" fill="#D3D8EA"/>
<path d="M108.275 110.617L108.348 111.836H118.35L118.277 110.617H108.275Z" fill="white"/>
<path d="M82.2168 114.664L82.2986 115.882H115.322L115.249 114.664H82.2168Z" fill="#D3D8EA"/>
<path d="M72.3154 114.664L72.3882 115.882H80.7895L80.7077 114.664H72.3154Z" fill="#D3D8EA"/>
<path d="M72.2148 118.318L72.2967 119.537H89.0994L88.9812 118.318H72.2148Z" fill="#D3D8EA"/>
<path d="M90.1543 118.318L90.2725 119.537H106.739L106.666 118.318H90.1543Z" fill="white"/>
<path d="M117.377 114.664L117.45 115.882H127.315L127.233 114.664H117.377Z" fill="white"/>
<path d="M108.558 118.318L108.621 119.537H118.623L118.55 118.318H108.558Z" fill="#D3D8EA"/>
<path d="M103.302 103.309L103.447 104.527H120.859L120.714 103.309H103.302Z" fill="white"/>
<path d="M56.9671 130.912L56.958 132.121H65.223L65.2321 130.912H56.9671Z" fill="#D3D8EA"/>
<path d="M46.93 127.258L46.9209 128.467H60.3594V127.258H46.93Z" fill="#D3D8EA"/>
<path d="M61.9046 127.258L61.8955 128.467H65.3142L65.3233 127.258H61.9046Z" fill="#D3D8EA"/>
<path d="M56.8401 138.605L56.8311 139.824H65.0869L65.096 138.605H56.8401Z" fill="#D3D8EA"/>
<path d="M46.7933 134.947L46.7842 136.166H60.2227L60.2318 134.947H46.7933Z" fill="#BAE1FD"/>
<path d="M61.7686 134.947V136.166H65.1782L65.1873 134.947H61.7686Z" fill="#BAE1FD"/>
<path d="M58.6309 123.592L58.6399 124.81H65.4592L65.4683 123.592H58.6309Z" fill="#BAE1FD"/>
<path d="M50.5479 123.592V124.81H57.2671L57.2489 123.592H50.5479Z" fill="#BAE1FD"/>
<path d="M71.7158 123.592L71.7886 124.81H92.0918L92.0191 123.592H71.7158Z" fill="#D3D8EA"/>
<path d="M81.6719 127.258L81.7537 128.467H114.777L114.704 127.258H81.6719Z" fill="#D3D8EA"/>
<path d="M71.7695 127.258L71.8423 128.467H80.2436L80.1618 127.258H71.7695Z" fill="#D3D8EA"/>
<path d="M71.6699 130.912L71.7427 132.121H88.5544L88.4362 130.912H71.6699Z" fill="#D3D8EA"/>
<path d="M89.6094 130.912L89.7276 132.121H106.194L106.121 130.912H89.6094Z" fill="#D3D8EA"/>
<path d="M94.1094 123.592L94.1821 124.81H100.347L100.265 123.592H94.1094Z" fill="#D3D8EA"/>
<path d="M116.831 127.258L116.904 128.467H126.76L126.687 127.258H116.831Z" fill="#D3D8EA"/>
<path d="M108.003 130.912L108.085 132.121H118.077L118.005 130.912H108.003Z" fill="white"/>
<path d="M81.9443 134.947L82.0262 136.166H115.05L114.977 134.947H81.9443Z" fill="#D3D8EA"/>
<path d="M72.043 134.947L72.1157 136.166H80.517L80.4443 134.947H72.043Z" fill="#D3D8EA"/>
<path d="M71.9424 138.605L72.0242 139.824H88.8269L88.7087 138.605H71.9424Z" fill="#D3D8EA"/>
<path d="M89.8818 138.605L90 139.824H106.466L106.394 138.605H89.8818Z" fill="white"/>
<path d="M117.104 134.947L117.177 136.166H127.042L126.97 134.947H117.104Z" fill="white"/>
<path d="M108.285 138.605L108.358 139.824H118.35L118.278 138.605H108.285Z" fill="#D3D8EA"/>
<path d="M103.029 123.592L103.175 124.81H120.587L120.441 123.592H103.029Z" fill="white"/>
<path d="M195.653 99.78C196.447 95.9814 198.345 92.5019 201.109 89.7784C202.927 88.269 207.855 88.4145 209.865 92.5061C211.874 96.5976 212.593 99.1344 212.056 106.563C211.52 113.991 205.337 139.386 205.328 144.96C205.319 150.534 193.726 149.933 194.344 141.95C194.962 133.967 194.29 106.072 195.653 99.78Z" fill="#414267"/>
<path d="M212.247 101.371C212.179 98.2882 211.372 95.2666 209.892 92.5608C209.431 91.5711 208.723 90.7166 207.836 90.0797C206.949 89.4428 205.913 89.0447 204.828 88.9239H204.473H204.155C203.851 88.923 203.547 88.9413 203.246 88.9784C202.88 89.0195 202.52 89.1018 202.173 89.2239C202.009 89.2876 201.855 89.3512 201.709 89.4239L201.491 89.5421C201.365 89.6226 201.243 89.7107 201.127 89.8058C201.054 89.8604 200.982 89.9331 200.891 90.0149L200.745 90.1513L200.7 90.2059L200.582 90.3241L200.527 90.3877L200.4 90.515L200.345 90.5787L199.954 91.0242L199.891 91.0969L199.736 91.2788L199.672 91.3606L199.509 91.5606L199.445 91.6425C199.3 91.8334 199.145 92.0334 199 92.2517C198.975 92.2798 198.954 92.3102 198.936 92.3426L198.763 92.5881C198.736 92.6223 198.712 92.6588 198.69 92.6972C198.627 92.779 198.572 92.8699 198.518 92.9518C198.493 92.9861 198.472 93.0226 198.454 93.0609C198.29 93.2973 198.136 93.561 197.981 93.8246L197.918 93.9337L197.745 94.2338C197.724 94.2811 197.7 94.3267 197.672 94.3702L197.508 94.6793C197.508 94.6793 197.463 94.7612 197.445 94.8066C197.427 94.8521 197.29 95.0976 197.218 95.2521L196.999 95.7158C196.982 95.763 196.961 95.8086 196.936 95.8522C196.89 95.9704 196.836 96.0795 196.79 96.1977L196.717 96.3614L196.581 96.716C196.554 96.7651 196.533 96.817 196.517 96.8706L196.326 97.3798C196.263 97.5525 196.208 97.7253 196.145 97.9071C196.133 97.9655 196.117 98.0231 196.099 98.0799C196.099 98.1981 196.017 98.3254 195.981 98.4527L195.926 98.6527L195.817 99.0346C195.808 99.0964 195.792 99.1572 195.772 99.2164C195.726 99.4073 195.681 99.5983 195.645 99.7892C195.645 99.8983 195.645 100.007 195.581 100.126C195.517 100.244 195.581 100.207 195.581 100.253C195.581 100.298 195.581 100.417 195.581 100.508V100.662C195.581 100.744 195.581 100.835 195.581 100.926C195.581 101.017 195.581 101.035 195.581 101.089C195.581 101.144 195.581 101.289 195.581 101.389V101.553C195.581 101.671 195.581 101.79 195.581 101.917C195.581 102.044 195.581 101.999 195.581 102.044C195.581 102.39 195.508 102.753 195.481 103.144C195.476 103.184 195.476 103.223 195.481 103.263C195.481 103.417 195.481 103.581 195.481 103.735C195.481 103.89 195.481 103.844 195.481 103.899V104.372C195.481 104.426 195.481 104.481 195.481 104.535C195.481 104.59 195.481 104.881 195.481 105.054V105.19C195.481 105.408 195.481 105.627 195.481 105.854C195.481 106.581 195.408 107.345 195.381 108.136V108.191V108.936V109V109.8C200.3 113.319 208.783 113.246 208.51 115.755C208.392 116.883 204.801 140.996 204.382 141.932C204.328 142.041 205.037 145.497 205.801 145.46C205.801 145.324 205.801 145.169 205.801 145.015C205.801 139.559 211.765 114.864 212.493 106.99C212.493 106.872 212.493 106.754 212.493 106.636C212.575 105.472 212.629 104.435 212.656 103.49C212.402 102.726 212.265 102.02 212.247 101.371Z" fill="#1D1D2C"/>
<path d="M222.357 99.8877C220.816 95.9718 218.333 92.4961 215.129 89.7679C213.083 88.2222 208.146 88.2858 206.855 92.3865C205.563 96.4871 205.263 98.9875 207.118 106.452C208.973 113.917 215.992 139.412 216.983 145.004C217.975 150.596 228.449 146.168 227.24 137.985C225.912 128.947 224.848 106.216 222.357 99.8877Z" fill="#414267"/>
<path d="M210.901 110.944C213.492 110.517 217.538 109.835 218.475 110.126C219.451 110.396 220.315 110.969 220.943 111.764C221.571 112.559 221.929 113.533 221.966 114.545C221.966 116.981 225.794 140.431 225.785 140.531C226.334 140.086 226.853 139.606 227.34 139.094C227.328 138.723 227.295 138.352 227.24 137.985C225.912 128.947 224.812 106.216 222.357 99.8877C220.868 96.1445 218.535 92.7962 215.538 90.1043C215.383 89.9679 215.238 89.8588 215.129 89.7679C213.083 88.2222 208.146 88.2858 206.855 92.3865C205.563 96.4871 205.263 98.9875 207.118 106.452C207.209 106.816 207.627 108.062 208.027 109.18C208.219 109.767 208.613 110.268 209.14 110.591C209.666 110.914 210.29 111.039 210.901 110.944Z" fill="#1D1D2C"/>
<path d="M190.989 75.7206C192.053 73.4384 193.444 71.7836 197.354 66.4919C197.49 66.2464 197.627 66.01 197.79 65.7645C200.591 61.4183 202.264 55.7629 202.828 54.9809C204.955 52.135 212.475 51.7804 211.384 59.3816C210.392 66.2918 202.764 77.9937 198.172 79.9577C196.445 80.6941 192.799 79.6303 191.88 78.2756C192.117 78.0392 190.671 76.3389 190.989 75.7206Z" fill="#414267"/>
<path d="M196.462 71.9208C191.852 69.5841 176.768 67.3746 174.55 65.0742C173.04 63.5285 172.222 69.2749 173.759 69.4568C177.277 69.8841 188.797 77.4399 193.634 79.3311C197.753 80.9495 199.572 73.5029 196.462 71.9208Z" fill="#FAEACB"/>
<path d="M212.911 42.4156C212.42 46.1525 217.011 47.6437 217.011 47.6437C217.375 44.916 220.503 43.3066 221.558 39.9243C222.612 36.5419 220.503 32.714 215.593 32.8595C212.538 32.9868 213.402 38.6786 212.911 42.4156Z" fill="#1D1D2C"/>
<path d="M216.902 52.9896C219.53 53.3261 224.321 54.5172 225.749 57.0176C227.176 59.518 226.131 83.44 224.312 99.0879C224.312 99.0879 202.581 108.271 194.871 98.406C194.871 98.406 200.254 58.1086 203.327 54.3626C205.891 51.2803 214.274 52.6805 216.902 52.9896Z" fill="#414267"/>
<path d="M217.438 53.0907C217.438 53.0907 208.273 65.82 207.2 66.8838C207.2 66.8838 207.537 55.973 207.737 52.6543L217.438 53.0907Z" fill="url(#paint0_linear_2117_11919)"/>
<path d="M215.757 47.6886C215.866 47.2067 215.957 46.8885 215.957 46.8885C215.957 46.8885 210.747 42.7423 210.056 46.9521L215.757 47.6886Z" fill="#BAE1FD"/>
<path d="M210.183 55.7173L208.601 52.7078C208.601 52.7078 210.228 51.5985 210.01 48.7253C209.483 41.6878 215.956 46.8523 215.956 46.8523C215.956 46.8523 214.783 52.7078 216.866 52.9805L210.183 55.7173Z" fill="#FAEACB"/>
<path d="M210.219 54.3717C213.856 54.8445 213.683 50.271 213.856 49.4163C214.029 48.5617 215.957 46.8887 215.957 46.8887C215.957 46.8887 214.784 52.7442 216.866 53.0169L210.147 55.7446L209.237 53.9262C209.517 54.163 209.857 54.3172 210.219 54.3717Z" fill="#FAEACB"/>
<path d="M226.413 71.4489L224.676 65.7207L220.957 68.4484C220.957 68.4484 223.367 102.454 199.581 101.881C209.064 105.591 224.321 99.1533 224.321 99.1533C225.185 91.6157 226.085 79.4774 226.413 71.4489Z" fill="#414267"/>
<path d="M208.21 36.8066L206.391 44.9261C206.073 47.3538 208.601 49.6814 211.156 50.0178C211.746 50.1124 212.35 50.0896 212.932 49.9505C213.513 49.8115 214.062 49.5591 214.546 49.2078C215.03 48.8564 215.44 48.413 215.752 47.9029C216.064 47.3929 216.273 46.8262 216.366 46.2354V46.0354C217.099 46.0845 217.822 45.8492 218.386 45.3784C218.95 44.9077 219.311 44.2376 219.394 43.5077C219.748 40.78 217.839 41.6892 217.839 41.6892L217.993 40.5345C218.079 39.8967 217.907 39.2512 217.517 38.7397C217.126 38.2282 216.549 37.8927 215.911 37.8068L208.21 36.8066Z" fill="#FAEACB"/>
<path d="M217.875 41.6881L218.039 40.4242C218.08 40.1231 218.06 39.8169 217.982 39.5233C217.904 39.2297 217.768 38.9545 217.583 38.7135C217.398 38.4726 217.167 38.2707 216.903 38.1196C216.64 37.9684 216.349 37.871 216.048 37.8329L214.747 37.6602C214.752 37.6873 214.752 37.7149 214.747 37.742L213.529 47.0435C213.374 47.8287 212.919 48.5222 212.26 48.9759C211.6 49.4296 210.79 49.6073 210.001 49.4711C209.353 49.3179 208.737 49.05 208.183 48.6801C209.04 49.4115 210.092 49.8762 211.21 50.0167C211.801 50.1113 212.404 50.0884 212.986 49.9494C213.568 49.8104 214.116 49.558 214.6 49.2066C215.084 48.8552 215.494 48.4118 215.806 47.9018C216.119 47.3917 216.327 46.8251 216.42 46.2343V46.0342C217.144 46.0689 217.854 45.827 218.406 45.3577C218.958 44.8883 219.311 44.2265 219.393 43.5065C219.784 40.8243 217.875 41.6881 217.875 41.6881Z" fill="#FAEACB"/>
<path d="M209.392 51.8262C209.333 53.1773 209.604 54.5225 210.183 55.745C209.802 55.5691 209.373 55.5301 208.967 55.6345C208.561 55.7388 208.204 55.9802 207.955 56.3178C207.725 56.599 207.403 56.7892 207.046 56.8542C207.132 55.3913 207.382 53.9426 207.791 52.5354L209.392 51.8262Z" fill="#D3D8EA"/>
<path d="M239.86 69.8743C238.041 68.1376 226.576 56.9722 225.776 56.4721C222.766 54.5809 215.62 56.954 219.411 63.6551C222.83 69.747 229.713 76.248 234.704 76.4298C236.577 76.4935 239.596 74.184 239.96 72.5929C239.978 72.1473 240.387 70.3834 239.86 69.8743Z" fill="#414267"/>
<path d="M215.756 51.6719C214.574 53.4903 210.155 55.7543 210.155 55.7543C210.155 55.7543 211.51 55.4634 212.801 57.2182C213.168 57.6836 213.66 58.0339 214.22 58.2275C214.22 58.2275 217.029 56.0726 217.411 53.0903L215.756 51.6719Z" fill="#D3D8EA"/>
<path d="M215.02 36.8787C214.305 37.5091 213.446 37.9548 212.519 38.1767C211.592 38.3986 210.625 38.39 209.701 38.1516C206.401 37.3879 205.892 39.0609 205.892 39.0609C205.892 39.0609 205.119 32.7781 209.656 31.1687C214.193 29.5594 216.457 32.8417 216.457 32.8417L215.02 36.8787Z" fill="#1D1D2C"/>
<path d="M231.987 176.501C229.259 175.592 228.65 171.464 228.35 169.027L224.422 170.446C224.422 170.446 225.977 174.61 225.331 177.447C224.686 180.284 225.568 180.011 225.568 180.011H237.669C235.964 178.559 234.048 177.376 231.987 176.501Z" fill="#FAEACB"/>
<path d="M237.905 180.356H225.694C225.694 180.356 225.24 180.502 225.067 179.583C224.924 179.026 224.924 178.441 225.067 177.883C225.067 177.647 225.122 177.401 225.14 177.156C226.147 177.113 227.134 176.853 228.031 176.392C228.531 175.037 230.304 174.419 230.759 175.119C231.486 176.365 233.014 176.656 234.068 177.01C236.387 177.792 236.951 178.692 237.505 179.583C237.666 179.826 237.8 180.085 237.905 180.356Z" fill="#1D1D2C"/>
<path d="M237.906 180.355H225.695C225.695 180.355 225.24 180.5 225.067 179.582H237.506C237.667 179.824 237.801 180.084 237.906 180.355Z" fill="#1D1D2C"/>
<path d="M226.576 136.931C230.122 139.822 228.495 160.635 230.286 174.464C230.286 174.464 226.185 175.373 223.712 174.31C223.712 174.31 216.966 149.969 216.966 144.305C216.966 134.349 222.776 133.83 226.576 136.931Z" fill="#414267"/>
<path d="M192.717 176.781C195.444 175.872 194.19 171.562 194.48 169.135L198.39 170.59C198.569 173.001 198.873 175.401 199.299 177.782C199.89 180.628 199.045 180.355 199.045 180.355L186.752 180.227C188.576 178.816 190.583 177.657 192.717 176.781Z" fill="#FAEACB"/>
<path d="M192.716 176.784C193.544 176.529 193.735 175.984 194.226 175.211C194.535 174.656 195.499 175.62 195.971 176.693C195.971 176.693 198.081 177.557 199.217 177.211C199.217 177.411 199.272 177.602 199.308 177.784C199.899 180.63 199.054 180.357 199.054 180.357L186.761 180.23C187.388 177.92 190.125 177.557 192.716 176.784Z" fill="#1D1D2C"/>
<path d="M199.508 179.619C199.454 180.483 199.054 180.356 199.054 180.356L186.761 180.229C186.822 179.968 186.927 179.719 187.07 179.492L199.508 179.619Z" fill="#1D1D2C"/>
<path d="M195.117 141.251C192.844 143.769 194.208 161.036 193.607 173.519C193.607 173.519 197.735 174.729 200.108 173.665C200.108 173.665 206.637 149.634 205.218 144.669C203.318 138.005 198.163 137.877 195.117 141.251Z" fill="#414267"/>
<path d="M205.219 144.669C204.969 143.748 204.599 142.865 204.119 142.041C204.119 142.359 199.618 163.572 199.1 173.973C199.318 173.93 199.534 173.872 199.745 173.801L200.109 173.664C200.109 173.664 202.182 165.818 203.873 157.798C205.01 152.188 205.81 146.751 205.219 144.669Z" fill="#1D1D2C"/>
<path d="M226.576 136.931C226.129 136.58 225.648 136.276 225.14 136.021C225.612 137.922 227.467 145.832 227.34 151.478C227.204 157.761 228.395 172.727 228.913 174.728C229.731 174.628 230.286 174.5 230.286 174.5C228.486 160.635 230.122 139.822 226.576 136.931Z" fill="#1D1D2C"/>
<path d="M217.929 99.3803L221.721 94.2158L174.349 59.7285L170.549 64.9021L217.929 99.3803Z" fill="#075085"/>
<path d="M231.086 108.763L234.614 103.971C234.868 103.627 235.052 103.237 235.154 102.822C235.257 102.408 235.277 101.977 235.213 101.554C235.148 101.132 235.001 100.727 234.78 100.361C234.559 99.9956 234.268 99.6775 233.923 99.4248L197.727 73.1933C197.384 72.9371 196.994 72.7516 196.579 72.6476C196.163 72.5436 195.732 72.5231 195.309 72.5874C194.886 72.6517 194.48 72.7995 194.114 73.0222C193.749 73.2448 193.431 73.5379 193.18 73.8843L189.653 78.6851C189.397 79.0283 189.213 79.4186 189.11 79.8334C189.006 80.2483 188.986 80.6795 189.05 81.1022C189.115 81.5249 189.262 81.9307 189.484 82.2961C189.706 82.6616 189.998 82.9794 190.344 83.2313L226.54 109.472C226.884 109.727 227.275 109.911 227.691 110.014C228.107 110.117 228.539 110.135 228.962 110.069C229.385 110.003 229.791 109.854 230.155 109.63C230.52 109.405 230.837 109.111 231.086 108.763Z" fill="#D3D8EA"/>
<path d="M131.515 70.3846C136.41 73.9819 142.261 76.0471 148.33 76.3191C154.398 76.591 160.411 75.0575 165.607 71.9124C170.804 68.7672 174.952 64.1518 177.525 58.6496C180.099 53.1475 180.984 47.0057 180.067 41.0009C179.15 34.996 176.474 29.3979 172.375 24.9142C168.277 20.4306 162.942 17.2628 157.043 15.8115C151.145 14.3601 144.948 14.6904 139.238 16.7604C133.527 18.8305 128.558 22.5475 124.96 27.4414C120.136 34.0059 118.117 42.2174 119.346 50.2703C120.575 58.3233 124.953 65.5583 131.515 70.3846ZM128.024 29.6963C131.177 25.4077 135.531 22.1505 140.536 20.3367C145.541 18.5228 150.971 18.2338 156.139 19.5061C161.308 20.7783 165.984 23.5548 169.574 27.4844C173.165 31.4139 175.51 36.32 176.313 41.5823C177.115 46.8446 176.339 52.2266 174.083 57.0478C171.826 61.869 168.191 65.9128 163.636 68.6678C159.081 71.4228 153.812 72.7653 148.494 72.5255C143.177 72.2856 138.049 70.4743 133.761 67.3205C128.011 63.0918 124.177 56.7523 123.101 49.6965C122.025 42.6407 123.796 35.4465 128.024 29.6963Z" fill="#075085"/>
<path d="M133.761 67.3201C129.47 64.1667 126.211 59.8117 124.395 54.8058C122.579 49.7999 122.289 44.368 123.56 39.1969C124.832 34.0259 127.608 29.3481 131.538 25.7552C135.468 22.1622 140.376 19.8154 145.64 19.0116C150.904 18.2078 156.288 18.9831 161.112 21.2395C165.935 23.4959 169.981 27.1319 172.738 31.6878C175.494 36.2437 176.838 41.5148 176.599 46.8345C176.36 52.1542 174.549 57.2835 171.394 61.5737C169.301 64.4227 166.667 66.8313 163.643 68.6621C160.618 70.4928 157.263 71.7097 153.768 72.2434C150.273 72.777 146.708 72.6169 143.275 71.7721C139.842 70.9274 136.609 69.4145 133.761 67.3201Z" fill="#D3D8EA"/>
<mask id="mask0_2117_11919" style="mask-type:luminance" maskUnits="userSpaceOnUse" x="122" y="18" width="55" height="55">
<path d="M133.762 67.322C129.471 64.1687 126.211 59.8137 124.396 54.8078C122.58 49.8018 122.289 44.3699 123.561 39.1989C124.833 34.0279 127.609 29.3501 131.539 25.7571C135.469 22.1641 140.377 19.8174 145.641 19.0136C150.905 18.2098 156.289 18.9851 161.112 21.2415C165.936 23.4978 169.982 27.1339 172.739 31.6898C175.495 36.2457 176.839 41.5168 176.6 46.8365C176.361 52.1561 174.55 57.2854 171.395 61.5756C169.302 64.4246 166.668 66.8333 163.644 68.664C160.619 70.4947 157.264 71.7117 153.769 72.2453C150.274 72.7789 146.709 72.6188 143.276 71.7741C139.843 70.9293 136.61 69.4165 133.762 67.322Z" fill="white"/>
</mask>
<g mask="url(#mask0_2117_11919)">
<path d="M133.08 25.4884H131.462V19.4056C130.864 19.9575 130.154 20.3732 129.38 20.624V19.1601C129.878 18.977 130.341 18.7127 130.753 18.3782C131.215 18.0331 131.568 17.563 131.771 17.0234H133.08V25.4884Z" fill="white"/>
<path d="M138.226 17.0231C138.595 17.0094 138.963 17.0849 139.297 17.2431C139.631 17.4014 139.921 17.6378 140.145 17.9323C140.782 18.9561 141.069 20.159 140.963 21.3601C141.069 22.5653 140.779 23.7723 140.136 24.797C139.909 25.0831 139.618 25.3108 139.286 25.461C138.954 25.6113 138.59 25.6798 138.226 25.6608C137.848 25.6751 137.471 25.6002 137.127 25.4423C136.783 25.2843 136.48 25.0478 136.244 24.7516C135.643 23.7348 135.379 22.5542 135.489 21.3783C135.387 20.1763 135.677 18.9734 136.317 17.9505C136.537 17.6539 136.826 17.4148 137.158 17.2534C137.49 17.0919 137.857 17.0129 138.226 17.0231ZM138.226 18.3687C138.035 18.368 137.849 18.4321 137.699 18.5506C137.514 18.7331 137.391 18.968 137.344 19.2234C137.21 19.9181 137.155 20.6258 137.181 21.3328C137.153 22.015 137.202 22.6982 137.326 23.3695C137.377 23.6503 137.51 23.9097 137.708 24.1151C137.854 24.235 138.037 24.2994 138.226 24.297C138.419 24.2974 138.606 24.2298 138.754 24.106C138.933 23.9236 139.056 23.6931 139.108 23.4423C139.242 22.7475 139.297 22.0399 139.272 21.3328C139.299 20.6507 139.25 19.9676 139.126 19.2962C139.075 19.0154 138.943 18.756 138.744 18.5506C138.598 18.4321 138.415 18.3678 138.226 18.3687Z" fill="white"/>
<path d="M144.773 17.0231C145.142 17.0094 145.509 17.0849 145.843 17.2431C146.177 17.4014 146.468 17.6378 146.691 17.9323C147.328 18.9561 147.616 20.159 147.51 21.3601C147.61 22.5714 147.31 23.7821 146.655 24.8061C146.429 25.0922 146.138 25.3199 145.805 25.4701C145.473 25.6204 145.11 25.6889 144.746 25.6699C144.367 25.6841 143.991 25.6093 143.646 25.4514C143.302 25.2934 143 25.0568 142.764 24.7607C142.163 23.7439 141.899 22.5633 142.009 21.3874C141.91 20.1857 142.2 18.9841 142.836 17.9596C143.058 17.6575 143.351 17.4142 143.688 17.251C144.026 17.0878 144.398 17.0095 144.773 17.0231ZM144.773 18.3687C144.585 18.3693 144.402 18.4334 144.255 18.5506C144.07 18.7331 143.946 18.968 143.9 19.2234C143.757 19.917 143.699 20.6253 143.727 21.3328C143.701 22.0154 143.753 22.6987 143.882 23.3695C143.93 23.6493 144.06 23.9086 144.255 24.1151C144.402 24.2323 144.585 24.2964 144.773 24.297C144.966 24.299 145.153 24.2312 145.3 24.106C145.487 23.9285 145.611 23.6958 145.655 23.4423C145.789 22.7475 145.844 22.0399 145.819 21.3328C145.846 20.6507 145.797 19.9676 145.673 19.2962C145.621 19.0177 145.492 18.7595 145.3 18.5506C145.15 18.4321 144.964 18.368 144.773 18.3687Z" fill="white"/>
<path d="M152.729 25.4884H151.11V19.4056C150.513 19.9575 149.802 20.3732 149.028 20.624V19.1601C149.526 18.977 149.99 18.7127 150.401 18.3782C150.861 18.0306 151.213 17.5613 151.42 17.0234H152.729V25.4884Z" fill="white"/>
<path d="M157.875 17.0234C158.244 17.0081 158.61 17.083 158.943 17.2414C159.275 17.3999 159.564 17.6372 159.785 17.9327C160.432 18.9522 160.723 20.1578 160.612 21.3605C160.719 22.5657 160.428 23.7727 159.785 24.7974C159.559 25.0834 159.267 25.3111 158.935 25.4614C158.603 25.6117 158.239 25.6802 157.875 25.6612C157.497 25.6754 157.12 25.6006 156.776 25.4426C156.432 25.2847 156.129 25.0481 155.893 24.7519C155.288 23.7369 155.024 22.5548 155.139 21.3787C155.036 20.1766 155.326 18.9738 155.966 17.9509C156.186 17.6543 156.475 17.4152 156.807 17.2537C157.14 17.0923 157.506 17.0133 157.875 17.0234ZM157.875 18.3691C157.684 18.3683 157.498 18.4324 157.348 18.551C157.163 18.7335 157.04 18.9684 156.993 19.2238C156.86 19.9185 156.805 20.6262 156.83 21.3332C156.802 22.0154 156.851 22.6986 156.975 23.3699C157.026 23.6507 157.159 23.9101 157.357 24.1155C157.503 24.2353 157.687 24.2998 157.875 24.2973C158.066 24.2988 158.25 24.231 158.394 24.1064C158.58 23.9275 158.707 23.6958 158.757 23.4426C158.891 22.7479 158.946 22.0403 158.921 21.3332C158.943 20.6511 158.895 19.9685 158.775 19.2965C158.725 19.0158 158.592 18.7563 158.394 18.551C158.246 18.4337 158.064 18.3697 157.875 18.3691Z" fill="white"/>
<path d="M164.421 17.0231C164.791 17.0094 165.158 17.0849 165.492 17.2431C165.826 17.4014 166.117 17.6378 166.34 17.9323C166.977 18.9561 167.264 20.159 167.158 21.3601C167.265 22.5653 166.974 23.7723 166.331 24.797C166.105 25.0831 165.813 25.3108 165.481 25.461C165.149 25.6113 164.786 25.6798 164.421 25.6608C164.043 25.6751 163.666 25.6002 163.322 25.4423C162.978 25.2843 162.675 25.0478 162.439 24.7516C161.838 23.7348 161.574 22.5542 161.685 21.3783C161.586 20.1766 161.876 18.975 162.512 17.9505C162.732 17.6539 163.021 17.4148 163.353 17.2534C163.686 17.0919 164.052 17.0129 164.421 17.0231ZM164.421 18.3687C164.233 18.3693 164.051 18.4334 163.903 18.5506C163.719 18.7346 163.593 18.9685 163.54 19.2234C163.406 19.9181 163.351 20.6258 163.376 21.3328C163.35 22.0154 163.402 22.6987 163.53 23.3695C163.575 23.6505 163.705 23.9109 163.903 24.1151C164.051 24.2323 164.233 24.2964 164.421 24.297C164.615 24.299 164.802 24.2312 164.949 24.106C165.135 23.9285 165.259 23.6958 165.303 23.4423C165.437 22.7475 165.492 22.0399 165.467 21.3328C165.494 20.6507 165.445 19.9676 165.322 19.2962C165.271 19.0154 165.138 18.756 164.94 18.5506C164.794 18.4307 164.61 18.3663 164.421 18.3687Z" fill="white"/>
<path d="M125.125 35.5719C125.494 35.5582 125.861 35.6337 126.195 35.792C126.529 35.9502 126.82 36.1866 127.043 36.4811C127.68 37.5049 127.967 38.7079 127.861 39.9089C127.968 41.1142 127.677 42.3211 127.034 43.3459C126.813 43.6402 126.523 43.8767 126.191 44.035C125.858 44.1933 125.493 44.2688 125.125 44.2551C124.746 44.2693 124.37 44.1945 124.025 44.0366C123.681 43.8786 123.379 43.642 123.142 43.3459C122.542 42.3291 122.277 41.1485 122.388 39.9726C122.289 38.7709 122.579 37.5693 123.215 36.5448C123.432 36.241 123.718 35.9939 124.051 35.8245C124.383 35.6551 124.752 35.5685 125.125 35.5719ZM125.125 36.9176C124.936 36.9181 124.754 36.9822 124.606 37.0994C124.422 37.282 124.298 37.5169 124.252 37.7722C124.109 38.4658 124.051 39.1741 124.079 39.8817C124.053 40.5642 124.105 41.2475 124.234 41.9184C124.282 42.1981 124.412 42.4574 124.606 42.6639C124.754 42.7812 124.936 42.8452 125.125 42.8458C125.318 42.8478 125.505 42.78 125.652 42.6548C125.838 42.4773 125.963 42.2446 126.007 41.9911C126.14 41.2964 126.195 40.5887 126.17 39.8817C126.197 39.1995 126.149 38.5164 126.025 37.845C125.972 37.5665 125.843 37.3083 125.652 37.0994C125.502 36.9809 125.316 36.9168 125.125 36.9176Z" fill="white"/>
<path d="M133.08 44.0373H131.462V37.9545C130.864 38.5063 130.154 38.922 129.38 39.1728V37.709C129.878 37.5258 130.341 37.2616 130.753 36.927C131.215 36.582 131.568 36.1118 131.771 35.5723H133.08V44.0373Z" fill="white"/>
<path d="M138.981 44.0373H137.363V37.9545C136.763 38.5084 136.049 38.9243 135.271 39.1728V37.709C135.773 37.5281 136.24 37.2637 136.654 36.927C137.113 36.5795 137.466 36.1101 137.672 35.5723H138.981V44.0373Z" fill="white"/>
<path d="M144.127 35.5723C144.496 35.557 144.862 35.6318 145.195 35.7902C145.527 35.9487 145.816 36.186 146.037 36.4815C146.684 37.501 146.975 38.7066 146.864 39.9093C146.966 41.1142 146.676 42.3197 146.037 43.3462C145.815 43.6406 145.526 43.877 145.194 44.0354C144.861 44.1937 144.495 44.2692 144.127 44.2555C143.749 44.2697 143.372 44.1949 143.028 44.0369C142.684 43.879 142.381 43.6424 142.145 43.3462C141.54 42.3311 141.276 41.1491 141.39 39.973C141.288 38.7709 141.578 37.5681 142.218 36.5451C142.433 36.2402 142.72 35.9923 143.052 35.8228C143.385 35.6533 143.754 35.5673 144.127 35.5723ZM144.127 36.9179C143.936 36.9172 143.75 36.9813 143.6 37.0998C143.415 37.2823 143.292 37.5172 143.245 37.7726C143.111 38.4673 143.057 39.175 143.082 39.882C143.054 40.5642 143.103 41.2474 143.227 41.9187C143.279 42.1972 143.409 42.4554 143.6 42.6643C143.75 42.7828 143.936 42.8469 144.127 42.8462C144.317 42.8468 144.501 42.7791 144.646 42.6552C144.832 42.4777 144.956 42.245 145 41.9915C145.143 41.2979 145.201 40.5896 145.173 39.882C145.198 39.1995 145.146 38.5163 145.018 37.8454C144.97 37.5656 144.84 37.3063 144.646 37.0998C144.498 36.9826 144.316 36.9185 144.127 36.9179Z" fill="white"/>
<path d="M153.529 44.0379H151.402V36.0457C150.623 36.778 149.691 37.3277 148.674 37.6551V35.7184C149.336 35.4852 149.951 35.1374 150.492 34.691C151.105 34.247 151.571 33.6294 151.829 32.918H153.556L153.529 44.0379Z" fill="#BAE1FD"/>
<path d="M160.294 32.9257C160.774 32.9045 161.252 32.9983 161.689 33.1991C162.125 33.4 162.507 33.7021 162.803 34.0804C163.525 34.9836 163.885 36.4838 163.885 38.5811C163.885 40.6784 163.522 42.1938 162.794 43.1273C162.494 43.4955 162.111 43.7872 161.677 43.9784C161.242 44.1697 160.768 44.2551 160.294 44.2275C159.791 44.2439 159.291 44.1403 158.835 43.9253C158.38 43.7103 157.982 43.39 157.675 42.9909C157.021 42.1635 156.693 40.6815 156.693 38.5629C156.693 36.4444 157.048 34.9805 157.775 34.0168C158.08 33.6494 158.466 33.359 158.904 33.1694C159.342 32.9798 159.818 32.8963 160.294 32.9257ZM160.294 34.6896C160.042 34.6861 159.796 34.7732 159.603 34.9351C159.355 35.181 159.193 35.4996 159.139 35.8443C158.963 36.7423 158.89 37.6575 158.921 38.572C158.887 39.4674 158.951 40.3637 159.112 41.2452C159.18 41.6113 159.354 41.9495 159.612 42.2181C159.801 42.3815 160.044 42.469 160.294 42.4636C160.543 42.4656 160.785 42.3786 160.976 42.2181C161.225 41.9719 161.39 41.6539 161.449 41.3088C161.625 40.4108 161.698 39.4957 161.667 38.5811C161.704 37.6853 161.637 36.7883 161.467 35.908C161.403 35.5423 161.232 35.2039 160.976 34.9351C160.785 34.7746 160.543 34.6875 160.294 34.6896Z" fill="#BAE1FD"/>
<path d="M169.268 44.0373H167.659V37.9545C167.057 38.5065 166.344 38.9221 165.567 39.1728V37.709C166.066 37.5278 166.53 37.2634 166.94 36.927C167.405 36.5846 167.759 36.1136 167.959 35.5723H169.268V44.0373Z" fill="white"/>
<path d="M175.169 44.0373H173.56V37.9545C172.959 38.5065 172.245 38.9221 171.469 39.1728V37.709C171.967 37.5278 172.432 37.2634 172.842 36.927C173.306 36.5846 173.66 36.1136 173.86 35.5723H175.169V44.0373Z" fill="white"/>
<path d="M126.534 58.1759H124.915V52.084C124.315 52.6389 123.601 53.0576 122.824 53.3115V51.8386C123.326 51.6577 123.793 51.3933 124.206 51.0566C124.665 50.7145 125.016 50.2473 125.216 49.7109H126.534V58.1759Z" fill="white"/>
<path d="M131.68 49.7103C132.048 49.698 132.413 49.7742 132.746 49.9324C133.078 50.0907 133.367 50.3263 133.59 50.6195C134.229 51.6424 134.52 52.8453 134.417 54.0473C134.519 55.2522 134.229 56.4577 133.59 57.4842C133.367 57.7774 133.078 58.0131 132.746 58.1713C132.413 58.3295 132.048 58.4057 131.68 58.3935C131.3 58.4099 130.922 58.3361 130.575 58.178C130.229 58.02 129.926 57.7822 129.689 57.4842C129.092 56.4662 128.831 55.2858 128.944 54.111C128.839 52.9116 129.13 51.7111 129.771 50.6922C129.984 50.3845 130.27 50.1339 130.603 49.9627C130.936 49.7914 131.306 49.7047 131.68 49.7103ZM131.68 51.0468C131.487 51.0448 131.3 51.1126 131.153 51.2378C130.967 51.4153 130.842 51.648 130.798 51.9015C130.665 52.5963 130.61 53.3039 130.635 54.0109C130.607 54.6931 130.656 55.3763 130.78 56.0476C130.832 56.3261 130.962 56.5843 131.153 56.7932C131.303 56.9117 131.489 56.9758 131.68 56.9751C131.87 56.9757 132.054 56.908 132.199 56.7841C132.385 56.6066 132.509 56.3739 132.553 56.1204C132.696 55.4268 132.754 54.7185 132.726 54.0109C132.751 53.3284 132.699 52.6452 132.571 51.9743C132.522 51.6976 132.392 51.4415 132.199 51.2378C132.054 51.1139 131.87 51.0461 131.68 51.0468Z" fill="white"/>
<path d="M139.627 58.1759H138.018V52.084C137.417 52.6389 136.704 53.0576 135.927 53.3115V51.8386C136.425 51.6574 136.89 51.393 137.3 51.0566C137.764 50.7177 138.118 50.2497 138.318 49.7109H139.627V58.1759Z" fill="white"/>
<path d="M145.528 58.1759H143.928V52.084C143.331 52.6387 142.62 53.0574 141.846 53.3115V51.8386C142.344 51.6574 142.808 51.393 143.219 51.0566C143.68 50.7151 144.034 50.2479 144.237 49.7109H145.546L145.528 58.1759Z" fill="white"/>
<path d="M150.674 49.7102C151.043 49.6981 151.41 49.7742 151.744 49.9324C152.078 50.0905 152.369 50.3261 152.593 50.6195C153.229 51.6438 153.516 52.8463 153.411 54.0473C153.518 55.2525 153.227 56.4595 152.584 57.4842C152.363 57.7786 152.073 58.015 151.741 58.1734C151.408 58.3317 151.042 58.4072 150.674 58.3935C150.296 58.4099 149.918 58.336 149.574 58.1779C149.229 58.0198 148.927 57.7821 148.692 57.4842C148.091 56.4675 147.827 55.2868 147.938 54.1109C147.833 52.9116 148.124 51.7111 148.765 50.6922C148.978 50.3845 149.264 50.1339 149.597 49.9627C149.93 49.7914 150.3 49.7047 150.674 49.7102ZM150.674 51.0468C150.484 51.0453 150.3 51.1132 150.156 51.2378C149.97 51.4167 149.843 51.6483 149.792 51.9015C149.659 52.5963 149.604 53.3039 149.629 54.0109C149.601 54.6931 149.65 55.3763 149.774 56.0476C149.825 56.3284 149.958 56.5878 150.156 56.7932C150.303 56.9117 150.486 56.9759 150.674 56.975C150.867 56.9771 151.055 56.9093 151.202 56.7841C151.385 56.6043 151.509 56.3727 151.556 56.1204C151.69 55.4256 151.745 54.718 151.72 54.0109C151.747 53.3287 151.698 52.6457 151.575 51.9742C151.526 51.6952 151.393 51.438 151.193 51.2378C151.05 51.1117 150.865 51.0436 150.674 51.0468Z" fill="white"/>
<path d="M157.22 49.7102C157.589 49.6981 157.956 49.7742 158.29 49.9324C158.623 50.0905 158.915 50.3261 159.139 50.6195C159.775 51.6438 160.062 52.8463 159.957 54.0473C160.064 55.2525 159.773 56.4595 159.13 57.4842C158.908 57.7786 158.619 58.015 158.287 58.1734C157.954 58.3317 157.588 58.4072 157.22 58.3935C156.841 58.4099 156.464 58.336 156.12 58.1779C155.775 58.0198 155.473 57.7821 155.238 57.4842C154.637 56.4675 154.373 55.2868 154.484 54.1109C154.384 52.912 154.674 51.7129 155.311 50.6922C155.525 50.3856 155.811 50.1359 156.144 49.9648C156.477 49.7937 156.846 49.7063 157.22 49.7102ZM157.22 51.0468C157.03 51.0461 156.846 51.1139 156.702 51.2378C156.516 51.4153 156.391 51.648 156.347 51.9015C156.205 52.5951 156.147 53.3034 156.175 54.0109C156.149 54.6935 156.201 55.3768 156.329 56.0476C156.382 56.3261 156.511 56.5843 156.702 56.7932C156.849 56.9104 157.032 56.9745 157.22 56.975C157.413 56.9771 157.601 56.9093 157.748 56.7841C157.934 56.6066 158.058 56.3739 158.102 56.1204C158.236 55.4256 158.291 54.718 158.266 54.0109C158.293 53.3287 158.244 52.6457 158.12 51.9742C158.071 51.6976 157.941 51.4415 157.748 51.2378C157.601 51.1126 157.413 51.0448 157.22 51.0468Z" fill="white"/>
<path d="M163.776 49.7103C164.144 49.698 164.509 49.7742 164.841 49.9324C165.174 50.0907 165.463 50.3263 165.685 50.6195C166.329 51.6409 166.619 52.845 166.513 54.0473C166.615 55.2522 166.324 56.4577 165.685 57.4842C165.464 57.778 165.174 58.014 164.842 58.1723C164.51 58.3306 164.144 58.4064 163.776 58.3935C163.396 58.4091 163.018 58.335 162.672 58.177C162.326 58.019 162.022 57.7817 161.785 57.4842C161.188 56.4662 160.927 55.2858 161.039 54.111C160.935 52.9116 161.225 51.7111 161.867 50.6922C162.08 50.3845 162.366 50.1339 162.699 49.9627C163.032 49.7914 163.402 49.7047 163.776 49.7103ZM163.776 51.0468C163.583 51.0448 163.396 51.1126 163.249 51.2378C163.062 51.4153 162.938 51.648 162.894 51.9015C162.761 52.5963 162.706 53.3039 162.73 54.0109C162.703 54.6931 162.752 55.3763 162.876 56.0476C162.928 56.3261 163.057 56.5843 163.249 56.7932C163.399 56.9117 163.585 56.9758 163.776 56.9751C163.966 56.9757 164.15 56.908 164.294 56.7841C164.481 56.6066 164.605 56.3739 164.649 56.1204C164.792 55.4268 164.85 54.7185 164.822 54.0109C164.847 53.3284 164.795 52.6452 164.667 51.9743C164.621 51.6963 164.491 51.4392 164.294 51.2378C164.15 51.1139 163.966 51.0461 163.776 51.0468Z" fill="white"/>
<path d="M171.723 58.1759H170.114V52.084C169.513 52.6389 168.8 53.0576 168.022 53.3115V51.8386C168.521 51.6574 168.985 51.393 169.395 51.0566C169.86 50.7177 170.214 50.2497 170.414 49.7109H171.723V58.1759Z" fill="white"/>
<path d="M177.624 58.1759H176.015V52.084C175.414 52.6389 174.701 53.0576 173.924 53.3115V51.8386C174.422 51.6574 174.887 51.393 175.297 51.0566C175.761 50.7177 176.115 50.2497 176.315 49.7109H177.624V58.1759Z" fill="white"/>
<path d="M131.68 63.8392C132.048 63.8269 132.413 63.9031 132.745 64.0613C133.077 64.2196 133.367 64.4552 133.589 64.7484C134.228 65.7749 134.518 66.9804 134.417 68.1853C134.516 69.39 134.226 70.5947 133.589 71.6222C133.365 71.9138 133.076 72.1482 132.744 72.3062C132.412 72.4642 132.047 72.5414 131.68 72.5315C131.3 72.5457 130.922 72.4709 130.576 72.313C130.231 72.1551 129.927 71.9186 129.689 71.6222C129.093 70.6038 128.832 69.4237 128.943 68.249C128.838 67.0467 129.128 65.843 129.77 64.8211C129.985 64.5145 130.271 64.2648 130.604 64.0937C130.936 63.9226 131.306 63.8352 131.68 63.8392ZM131.68 65.1757C131.487 65.1737 131.299 65.2415 131.152 65.3667C130.966 65.5442 130.842 65.7769 130.798 66.0304C130.664 66.7282 130.609 67.4389 130.634 68.1489C130.608 68.8311 130.656 69.5142 130.78 70.1856C130.832 70.4615 130.961 70.7169 131.152 70.9221C131.3 71.0448 131.488 71.1094 131.68 71.104C131.868 71.1034 132.051 71.0393 132.198 70.9221C132.383 70.7396 132.506 70.5046 132.553 70.2493C132.695 69.5587 132.753 68.8535 132.725 68.1489C132.751 67.4634 132.699 66.7771 132.571 66.1032C132.519 65.8273 132.39 65.5719 132.198 65.3667C132.054 65.2428 131.87 65.175 131.68 65.1757Z" fill="white"/>
<path d="M139.627 72.3048H138.018V66.213C137.42 66.7711 136.706 67.1902 135.927 67.4404V65.9675C136.427 65.79 136.892 65.5252 137.3 65.1855C137.764 64.8466 138.118 64.3786 138.318 63.8398H139.627V72.3048Z" fill="white"/>
<path d="M145.528 72.3048H143.928V66.213C143.333 66.7709 142.622 67.1901 141.846 67.4404V65.9675C142.346 65.79 142.811 65.5252 143.219 65.1855C143.68 64.844 144.034 64.3768 144.237 63.8398H145.546L145.528 72.3048Z" fill="white"/>
<path d="M151.429 72.3048H149.811V66.213C149.216 66.7709 148.505 67.1901 147.729 67.4404V65.9675C148.228 65.7879 148.692 65.5234 149.101 65.1855C149.563 64.844 149.917 64.3768 150.12 63.8398H151.429V72.3048Z" fill="white"/>
<path d="M157.33 72.3048H155.748V66.213C155.153 66.7709 154.442 67.1901 153.666 67.4404V65.9675C154.165 65.7879 154.63 65.5234 155.039 65.1855C155.498 64.8415 155.851 64.3751 156.057 63.8398H157.367L157.33 72.3048Z" fill="white"/>
<path d="M162.476 63.8395C162.844 63.8257 163.21 63.9012 163.543 64.0596C163.875 64.2179 164.164 64.4544 164.386 64.7487C165.029 65.7734 165.32 66.9804 165.213 68.1856C165.312 69.3903 165.022 70.595 164.386 71.6225C164.163 71.9158 163.874 72.1514 163.542 72.3096C163.21 72.4678 162.844 72.544 162.476 72.5318C162.098 72.546 161.721 72.4712 161.377 72.3132C161.033 72.1553 160.73 71.9187 160.494 71.6225C159.89 70.607 159.626 69.4253 159.74 68.2493C159.634 67.047 159.925 65.8434 160.567 64.8215C160.781 64.5148 161.067 64.2651 161.4 64.094C161.733 63.9229 162.102 63.8355 162.476 63.8395ZM162.476 65.1761C162.283 65.174 162.096 65.2418 161.949 65.367C161.763 65.5445 161.638 65.7772 161.594 66.0307C161.461 66.7285 161.406 67.4392 161.431 68.1493C161.404 68.8314 161.453 69.5145 161.576 70.186C161.627 70.4642 161.76 70.7208 161.958 70.9224C162.102 71.046 162.287 71.1109 162.476 71.1043C162.665 71.1052 162.848 71.0409 162.995 70.9224C163.179 70.7384 163.305 70.5045 163.358 70.2496C163.492 69.5579 163.547 68.8533 163.522 68.1493C163.544 67.4641 163.496 66.7786 163.377 66.1035C163.322 65.8266 163.189 65.5711 162.995 65.367C162.85 65.2431 162.666 65.1754 162.476 65.1761Z" fill="white"/>
<path d="M170.422 72.3048H168.813V66.213C168.215 66.7711 167.501 67.1902 166.722 67.4404V65.9675C167.223 65.792 167.688 65.527 168.095 65.1855C168.559 64.8466 168.913 64.3786 169.113 63.8398H170.422V72.3048Z" fill="white"/>
</g>
<g opacity="0.5">
<path d="M147.346 66.3103C147.254 66.0291 147.096 65.7744 146.883 65.5684C146.671 65.3624 146.412 65.2114 146.128 65.1283C143.698 64.4676 141.411 63.3641 139.381 61.8732C139.005 61.6224 138.547 61.5263 138.102 61.6049C137.657 61.6835 137.259 61.9309 136.992 62.2954C136.725 62.6599 136.608 63.1135 136.667 63.5616C136.726 64.0098 136.956 64.4179 137.308 64.701C139.671 66.4468 142.338 67.7386 145.173 68.5107C145.395 68.5726 145.627 68.59 145.856 68.5618C146.085 68.5335 146.306 68.4602 146.506 68.3461C146.707 68.232 146.882 68.0793 147.023 67.8968C147.164 67.7144 147.268 67.5058 147.328 67.2832C147.425 66.967 147.431 66.6299 147.346 66.3103Z" fill="white"/>
<path d="M132.107 38.1061C131.995 37.7506 131.772 37.4402 131.471 37.2199C131.17 36.9996 130.807 36.8809 130.434 36.8809C130.061 36.8809 129.698 36.9996 129.397 37.2199C129.096 37.4402 128.874 37.7506 128.761 38.1061C126.87 44.0419 127.345 50.4792 130.089 56.0726C130.299 56.482 130.662 56.7923 131.1 56.9364C131.537 57.0805 132.014 57.0469 132.427 56.8429C132.839 56.6389 133.155 56.2808 133.307 55.8458C133.458 55.4108 133.432 54.9338 133.235 54.5178C130.893 49.7323 130.489 44.2277 132.107 39.1517C132.216 38.8117 132.216 38.446 132.107 38.1061Z" fill="white"/>
</g>
<path d="M178.824 71.9853C178.951 71.6125 178.996 70.8669 178.524 70.7032C178.467 70.6904 178.408 70.6904 178.351 70.7032C178.512 70.4874 178.632 70.244 178.705 69.9849C178.878 69.4303 178.851 68.4574 178.051 68.5211C177.724 68.5551 177.412 68.6708 177.142 68.8575C177.23 68.606 177.255 68.3364 177.214 68.073C177.173 67.8095 177.066 67.5605 176.905 67.3482C176.378 66.6299 175.778 66.9481 175.268 67.43C175.478 66.7571 175.65 65.7115 174.741 65.7388C174.199 65.8434 173.692 66.0843 173.268 66.4389C172.692 66.8197 172.167 67.2718 171.704 67.7846C171.684 67.8018 171.669 67.8237 171.659 67.8482C171.61 67.8651 171.567 67.8954 171.535 67.9356C171.503 67.9758 171.483 68.0243 171.477 68.0755C171.35 68.8302 171.65 69.894 172.595 69.7031C172.849 69.6567 173.096 69.5804 173.332 69.4758C172.977 70.0122 172.823 70.5759 173.286 71.0215C173.75 71.467 174.496 71.3124 175.105 70.9669C175.105 71.3124 175.105 71.767 175.469 71.9671C175.615 72.0248 175.771 72.0506 175.928 72.0428C176.085 72.035 176.238 71.9936 176.378 71.9216C176.35 71.9918 176.35 72.0697 176.378 72.1398C176.479 72.3914 176.657 72.6045 176.887 72.7491C177.117 72.8936 177.386 72.9622 177.656 72.9451C177.927 72.928 178.186 72.8261 178.395 72.6538C178.605 72.4815 178.755 72.2476 178.824 71.9853Z" fill="#FAEACB"/>
<path d="M222.721 102.745C222.594 101.326 222.439 99.9623 222.448 101.035C222.448 102.399 220.912 103.045 220.894 101.69C220.743 99.9187 220.835 98.1353 221.166 96.389C221.676 94.5705 225.558 92.4975 226.522 91.0063C226.913 90.4062 230.313 93.1067 230.241 93.734C230.013 95.7162 227.431 96.4617 227.386 96.7436C227.482 97.4732 227.625 98.1959 227.813 98.9076C228.04 99.9532 226.649 101.108 226.431 100.071C226.285 99.4077 226.003 99.5531 226.167 100.499C226.376 101.708 224.885 102.808 224.676 101.617C224.585 101.108 224.403 100.944 224.458 101.617C224.585 102.999 222.848 104.136 222.721 102.745Z" fill="#FAEACB"/>
<path d="M240.778 73.5751C239.242 78.5032 230.158 90.5233 230.24 93.6965C230.295 95.8605 225.439 92.4418 226.367 91.2143C228.522 88.3866 231.486 75.2209 233.495 70.4383C235.205 66.3558 241.815 70.2655 240.778 73.5751Z" fill="#FAEACB"/>
<path d="M60.1131 47.8452C60.1131 43.79 57.6854 39.6621 53.9303 39.6621C51.5481 39.6621 48.1475 42.1807 47.6475 44.963C47.5947 44.9442 47.5455 44.9165 47.502 44.8811C46.6191 44.1575 45.5019 43.7821 44.3612 43.8256C43.2205 43.8692 42.1352 44.3287 41.3101 45.1175C40.5486 45.8508 39.9613 46.7457 39.5916 47.7361C38.4745 47.8906 37.4499 48.4409 36.704 49.2868C35.9582 50.1328 35.5407 51.2182 35.5273 52.346C35.5346 53.6136 36.0438 54.8268 36.9436 55.7198C37.8434 56.6127 39.0604 57.1128 40.3281 57.1103H60.6404C62.0618 57.1128 63.4263 56.553 64.4365 55.5531C65.4466 54.5532 66.0202 53.1944 66.0322 51.7731C66.014 48.9545 63.5136 46.054 60.1131 47.8452Z" fill="#BAE1FD"/>
<path d="M41.6289 43.8691H44.4112L44.5748 46.2332H41.8562L41.6289 43.8691Z" fill="#BAE1FD"/>
<path d="M51.4119 39.6875H53.9123V43.2517C53.9123 43.2517 50.2754 43.579 50.2754 43.479C50.2754 43.379 51.4119 39.6875 51.4119 39.6875Z" fill="#BAE1FD"/>
<path d="M59.7584 47.2969H61.9952L61.8497 50.652L56.5488 51.4339L59.7584 47.2969Z" fill="#BAE1FD"/>
<path d="M57.5494 47.8452C57.5948 43.79 55.1217 39.6621 51.3757 39.6621C48.9844 39.6621 45.5838 42.1807 45.0837 44.963C45.034 44.9436 44.9879 44.9159 44.9474 44.8811C44.0645 44.1575 42.9473 43.7821 41.8066 43.8256C40.6659 43.8692 39.5806 44.3287 38.7555 45.1175C37.9882 45.8479 37.3974 46.7434 37.0279 47.7361C35.9128 47.8993 34.8931 48.4569 34.1541 49.3077C33.415 50.1586 33.0055 51.2462 33 52.3732C33.0096 53.6417 33.5209 54.8549 34.4221 55.7476C35.3234 56.6403 36.5413 57.1401 37.8099 57.1376H58.1222C59.5428 57.1377 60.906 56.5771 61.9156 55.5778C62.9252 54.5784 63.4996 53.2209 63.514 51.8004C63.4867 48.9545 60.9863 46.054 57.5494 47.8452Z" fill="#D3D8EA"/>
<path d="M43.5654 51.3716V50.2624C43.7366 50.2578 43.9057 50.224 44.0655 50.1624C44.1903 50.0988 44.2944 50.0011 44.3656 49.8805C44.4543 49.7295 44.513 49.5628 44.5383 49.3895C44.5531 49.1321 44.5531 48.8741 44.5383 48.6167C44.5247 48.1998 44.5521 47.7825 44.6201 47.371C44.6636 47.1554 44.7677 46.9567 44.9202 46.7982C45.1009 46.6396 45.3155 46.5245 45.5476 46.4618C45.8458 46.3948 46.1514 46.3673 46.4568 46.3799H46.7023V47.4801C46.479 47.4644 46.2547 47.4859 46.0386 47.5438C45.9505 47.5745 45.8763 47.6358 45.8294 47.7165C45.773 47.842 45.748 47.9793 45.7567 48.1166C45.7567 48.3166 45.7567 48.6803 45.7112 49.2258C45.7075 49.4758 45.6677 49.7238 45.593 49.9623C45.5392 50.1329 45.4561 50.2929 45.3475 50.4351C45.2131 50.5815 45.0603 50.7098 44.8929 50.817C45.0619 50.9107 45.2128 51.0338 45.3384 51.1807C45.4566 51.333 45.546 51.5055 45.6021 51.6899C45.6739 51.9508 45.7136 52.2195 45.7203 52.49C45.7203 53.0083 45.7203 53.3265 45.7203 53.472C45.7066 53.6183 45.7317 53.7657 45.7931 53.8993C45.8463 53.9801 45.9222 54.0434 46.0113 54.0812C46.2253 54.1339 46.4458 54.1553 46.6659 54.1448V55.245H46.4204C46.099 55.2593 45.7772 55.2256 45.4657 55.145C45.2523 55.0874 45.0578 54.9745 44.902 54.8176C44.747 54.6597 44.6398 54.4611 44.5929 54.2448C44.536 53.8932 44.5116 53.5371 44.5201 53.181C44.5562 52.8146 44.547 52.4451 44.4929 52.0808C44.4562 51.8759 44.3503 51.6897 44.1928 51.5535C44.0082 51.428 43.7885 51.3643 43.5654 51.3716Z" fill="white"/>
<path d="M52.9487 51.3703C52.7741 51.3705 52.6012 51.4045 52.4395 51.4703C52.3198 51.5335 52.2193 51.6277 52.1486 51.7431C52.0626 51.8953 52.0042 52.0615 51.9758 52.234C51.9565 52.4913 51.9565 52.7496 51.9758 53.0069C51.9894 53.4238 51.962 53.841 51.894 54.2525C51.8506 54.4682 51.7465 54.6669 51.5939 54.8254C51.4135 54.9894 51.1946 55.1051 50.9575 55.1618C50.6594 55.2297 50.3536 55.2572 50.0482 55.2436H49.8027V54.1434C50.0199 54.1535 50.2373 54.132 50.4483 54.0798C50.5385 54.0398 50.6168 53.9771 50.6756 53.8979C50.732 53.7725 50.757 53.6352 50.7483 53.4979C50.7483 53.3069 50.7483 52.9523 50.7483 52.425C50.7534 52.1626 50.7962 51.9023 50.8756 51.6521C50.9485 51.474 51.0533 51.3107 51.1848 51.1702C51.3122 51.034 51.4593 50.9175 51.6212 50.8247C51.4321 50.7072 51.2632 50.5598 51.1211 50.3883C50.9634 50.1578 50.8636 49.8927 50.8302 49.6154C50.7772 49.1415 50.7529 48.6648 50.7574 48.1879C50.7619 48.0339 50.7404 47.8802 50.6938 47.7333C50.6468 47.6507 50.573 47.5866 50.4847 47.5515C50.2645 47.4985 50.038 47.4771 49.8118 47.4878V46.3786H50.0573C50.3786 46.3689 50.6997 46.4026 51.012 46.4786C51.2229 46.536 51.4145 46.649 51.5667 46.8059C51.7217 46.9639 51.8289 47.1624 51.8758 47.3787C51.9349 47.73 51.9562 48.0867 51.9394 48.4425C51.9243 48.8135 51.9456 49.185 52.0031 49.5518C52.0497 49.7551 52.1576 49.9392 52.3122 50.0792C52.5045 50.1952 52.7241 50.258 52.9487 50.261V51.3703Z" fill="white"/>
<defs>
<linearGradient id="paint0_linear_2117_11919" x1="207.209" y1="59.7736" x2="217.447" y2="59.7736" gradientUnits="userSpaceOnUse">
<stop stop-color="white"/>
<stop offset="1" stop-color="#D3DBEB"/>
</linearGradient>
</defs>
</svg>
