<svg width="114" height="33" viewBox="0 0 114 33" fill="none" xmlns="http://www.w3.org/2000/svg">
<path fill-rule="evenodd" clip-rule="evenodd" d="M46.7117 24.0057L40.5084 16.7534V24.0057H36.1714V0.501953H40.5084V12.5185L45.5552 6.37789H51.4693L44.2409 14.6624L52.6259 24.0321H46.7117V24.0057ZM71.2358 18.1827C71.2358 22.1264 74.3637 24.4821 77.4917 24.4821C78.6745 24.4821 80.2779 24.1116 81.6184 23.3704L78.8322 19.8502C78.4642 20.0884 77.9648 20.2737 77.4128 20.2737C76.7294 20.2737 75.4151 19.7708 75.4151 18.1033V10.5599H79.0162V6.35142H75.4151V1.9577H71.2095V6.35142H68.9753V10.5334H71.2095V18.1827H71.2358ZM12.541 15.7741L19.0597 24.0321H13.5398L8.15135 17.2034H5.0497V24.0321H0.633789V1.98417H7.91479C12.3307 1.98417 15.9055 5.39856 15.9055 9.58053C15.9055 12.1215 14.5649 14.3713 12.541 15.7741ZM102.515 7.01312C102.515 7.01312 104.013 5.92793 106.09 5.92793C110.558 5.92793 113.634 9.39526 113.634 13.6566V24.0321H109.428V13.6566C109.428 11.7245 108.035 10.057 105.985 10.057C103.935 10.057 102.541 11.698 102.541 13.6566V24.0321H98.3358V6.35142H102.541V7.01312H102.515ZM25.6047 24.4556C20.8208 24.4556 17.1672 20.3001 17.1672 15.1918C17.1672 10.0834 20.7945 5.92793 25.6047 5.92793C27.1555 5.92793 28.3121 6.37789 29.5738 7.14546V6.35142H33.7794V24.0057H29.5738V23.2116C28.2858 24.0057 27.1555 24.4556 25.6047 24.4556ZM23.239 27.3142H91.6068L28.6801 32.502L23.239 27.3142ZM29.6263 15.1918C29.6263 17.9974 27.9704 20.1943 25.6047 20.1943C23.239 20.1943 21.5042 17.9709 21.5042 15.1918C21.5042 12.3862 23.239 10.1893 25.6047 10.1893C27.9704 10.1893 29.6263 12.3862 29.6263 15.1918ZM59.6966 24.4556C61.7731 24.4556 63.2714 23.3704 63.2714 23.3704V24.0321H67.477V6.35142H63.2714V16.7269C63.2714 18.6591 61.8783 20.3266 59.828 20.3266C57.7778 20.3266 56.3847 18.6856 56.3847 16.7269V6.35142H52.179V16.7269C52.179 20.9883 55.2281 24.4556 59.6966 24.4556ZM7.91479 6.13967C9.88618 6.13967 11.5159 7.67483 11.5159 9.55407C11.5159 11.4333 9.88618 12.9685 7.91479 12.9685H5.0497V6.13967H7.91479ZM96.6273 16.4358H84.5098C85.0618 20.4589 89.8457 22.5235 92.7371 18.4738L96.4433 20.5119C94.0513 23.741 91.2125 24.4556 88.9783 24.4556C84.5887 24.4556 80.199 20.6442 80.199 15.1918C80.199 10.004 83.695 5.92793 88.5577 5.92793C93.3679 5.92793 97.6787 10.0834 96.6273 16.4358ZM92.2377 12.9155C91.4228 8.54828 85.5349 8.78649 84.6675 12.9155H92.2377Z" fill="#FF3333"/>
</svg>
