<svg width="325" height="205" viewBox="0 0 325 205" fill="none" xmlns="http://www.w3.org/2000/svg">
<path d="M189.373 64.3482C169.92 50.8264 170.185 40.1978 173.121 31.6595C176.446 21.957 213.15 39.0599 220.79 70.0286C228.429 100.997 199.674 71.5193 189.373 64.3482Z" fill="url(#paint0_linear_2117_18668)"/>
<path d="M213.151 183.875H53.7168V185.083H213.151V183.875Z" fill="#D3D8EA"/>
<path d="M173.635 63.069V151.15C173.635 151.565 173.553 151.975 173.394 152.357C173.235 152.74 173.001 153.088 172.707 153.38C172.413 153.673 172.064 153.904 171.68 154.062C171.296 154.22 170.885 154.3 170.47 154.299H47.518C46.6808 154.299 45.8779 153.967 45.2859 153.377C44.6939 152.786 44.3613 151.985 44.3613 151.15V63.069C44.3613 62.0023 44.7861 60.9792 45.5423 60.2249C46.2985 59.4706 47.324 59.0469 48.3934 59.0469H169.594C170.124 59.0457 170.65 59.1489 171.14 59.3505C171.63 59.5521 172.076 59.8482 172.451 60.2218C172.826 60.5954 173.124 61.0392 173.327 61.5278C173.53 62.0163 173.635 62.5401 173.635 63.069Z" fill="#D3D8EA"/>
<path d="M173.635 72.9127H44.3613V63.069C44.3613 62.5401 44.4659 62.0163 44.6691 61.5278C44.8723 61.0392 45.1701 60.5954 45.5454 60.2218C45.9208 59.8482 46.3663 59.5521 46.8565 59.3505C47.3467 59.1489 47.872 59.0457 48.4022 59.0469H169.594C170.124 59.0457 170.65 59.1489 171.14 59.3505C171.63 59.5521 172.076 59.8482 172.451 60.2218C172.826 60.5954 173.124 61.0392 173.327 61.5278C173.53 62.0163 173.635 62.5401 173.635 63.069V72.9127Z" fill="#075085"/>
<path d="M66.5996 65.9793C66.5979 65.5564 66.7221 65.1425 66.9566 64.7901C67.191 64.4377 67.5251 64.1628 67.9165 64.0001C68.3078 63.8375 68.7388 63.7944 69.1547 63.8765C69.5706 63.9586 69.9527 64.1621 70.2525 64.4611C70.5523 64.7602 70.7563 65.1413 70.8386 65.5562C70.9209 65.9711 70.8777 66.401 70.7147 66.7914C70.5516 67.1818 70.276 67.5151 69.9227 67.749C69.5695 67.9828 69.1546 68.1068 68.7306 68.105C68.1654 68.105 67.6234 67.8811 67.2238 67.4824C66.8241 67.0838 66.5996 66.5431 66.5996 65.9793Z" fill="#D3D8EA"/>
<path d="M58.3848 65.9793C58.383 65.5564 58.5073 65.1425 58.7417 64.7901C58.9762 64.4377 59.3103 64.1628 59.7016 64.0001C60.093 63.8375 60.524 63.7944 60.9399 63.8765C61.3558 63.9586 61.7379 64.1621 62.0377 64.4611C62.3375 64.7602 62.5414 65.1413 62.6237 65.5562C62.706 65.9711 62.6629 66.401 62.4998 66.7914C62.3368 67.1818 62.0611 67.5151 61.7079 67.749C61.3547 67.9828 60.9397 68.1068 60.5158 68.105C59.9506 68.105 59.4086 67.8811 59.0089 67.4824C58.6093 67.0838 58.3848 66.5431 58.3848 65.9793Z" fill="#EBA63F"/>
<path d="M50.1719 65.9793C50.1701 65.5571 50.2939 65.1439 50.5276 64.7919C50.7613 64.4399 51.0943 64.165 51.4847 64.0018C51.875 63.8386 52.3051 63.7946 52.7205 63.8753C53.1359 63.9559 53.518 64.1576 53.8185 64.4549C54.119 64.7522 54.3244 65.1317 54.4087 65.5454C54.4929 65.9591 54.4523 66.3885 54.292 66.7792C54.1317 67.1699 53.8588 67.5044 53.5079 67.7404C53.157 67.9764 52.7438 68.1033 52.3206 68.105C52.0392 68.1074 51.7602 68.0541 51.4996 67.9483C51.239 67.8425 51.002 67.6863 50.8023 67.4887C50.6025 67.2911 50.444 67.0559 50.3358 66.7969C50.2276 66.5378 50.1719 66.2599 50.1719 65.9793Z" fill="white"/>
<path d="M163.467 64.4188L164.519 63.3691L166.031 64.8686L167.534 63.3691L168.595 64.4188L167.083 65.9271L168.595 67.4354L167.534 68.485L166.031 66.9767L164.519 68.485L163.467 67.4354L164.97 65.9271L163.467 64.4188Z" fill="white"/>
<path d="M238.891 21.3389V82.2002C238.891 82.778 238.661 83.3321 238.251 83.7407C237.841 84.1493 237.286 84.3788 236.707 84.3788H151.768C151.189 84.3765 150.635 84.1462 150.226 83.7381C149.817 83.3301 149.586 82.7773 149.584 82.2002V21.3389C149.596 20.6073 149.895 19.9096 150.418 19.3964C150.941 18.8832 151.645 18.5956 152.378 18.5957H236.123C236.853 18.6003 237.551 18.8902 238.069 19.4032C238.586 19.9161 238.881 20.6112 238.891 21.3389Z" fill="#0B3E66"/>
<path d="M238.891 28.1395H149.584V21.3389C149.596 20.6073 149.895 19.9096 150.418 19.3964C150.941 18.8832 151.645 18.5956 152.378 18.5957H236.123C236.853 18.6003 237.551 18.8902 238.069 19.4032C238.586 19.9161 238.881 20.6112 238.891 21.3389V28.1395Z" fill="#1D1D2C"/>
<path d="M164.951 23.35C164.951 23.0586 165.038 22.7738 165.2 22.5316C165.362 22.2894 165.593 22.1006 165.863 21.9891C166.133 21.8776 166.429 21.8484 166.716 21.9053C167.002 21.9621 167.265 22.1024 167.472 22.3084C167.678 22.5144 167.819 22.7769 167.876 23.0626C167.933 23.3483 167.904 23.6445 167.792 23.9137C167.68 24.1828 167.491 24.4129 167.248 24.5747C167.005 24.7366 166.72 24.823 166.428 24.823C166.036 24.823 165.661 24.6678 165.384 24.3916C165.107 24.1153 164.951 23.7406 164.951 23.35Z" fill="#D3D8EA"/>
<path d="M159.311 23.35C159.311 23.0586 159.397 22.7738 159.559 22.5316C159.722 22.2894 159.952 22.1006 160.222 21.9891C160.492 21.8776 160.789 21.8484 161.075 21.9053C161.362 21.9621 161.625 22.1024 161.831 22.3084C162.038 22.5144 162.179 22.7769 162.235 23.0626C162.292 23.3483 162.263 23.6445 162.151 23.9137C162.04 24.1828 161.85 24.4129 161.608 24.5747C161.365 24.7366 161.079 24.823 160.787 24.823C160.396 24.823 160.02 24.6678 159.743 24.3916C159.466 24.1153 159.311 23.7406 159.311 23.35Z" fill="#EBA63F"/>
<path d="M153.598 23.35C153.598 23.0586 153.684 22.7738 153.847 22.5316C154.009 22.2894 154.239 22.1006 154.509 21.9891C154.779 21.8776 155.076 21.8484 155.362 21.9053C155.649 21.9621 155.912 22.1024 156.118 22.3084C156.325 22.5144 156.466 22.7769 156.523 23.0626C156.58 23.3483 156.55 23.6445 156.439 23.9137C156.327 24.1828 156.138 24.4129 155.895 24.5747C155.652 24.7366 155.366 24.823 155.074 24.823C154.683 24.823 154.307 24.6678 154.03 24.3916C153.753 24.1153 153.598 23.7406 153.598 23.35Z" fill="white"/>
<path d="M231.887 22.2731L232.612 21.541L233.655 22.5818L234.699 21.541L235.432 22.2731L234.389 23.3139L235.432 24.3547L234.699 25.078L233.655 24.0372L232.612 25.078L231.887 24.3547L232.93 23.3139L231.887 22.2731Z" fill="white"/>
<path d="M179.674 31.6152L179.745 32.7972H199.498L199.419 31.6152H179.674Z" fill="#D3D8EA"/>
<path d="M189.355 35.1602L189.435 36.3421H221.55L221.479 35.1602H189.355Z" fill="#D3D8EA"/>
<path d="M179.727 35.1602L179.797 36.3421H187.976L187.897 35.1602H179.727Z" fill="white"/>
<path d="M179.639 38.707L179.709 39.889H196.059L195.935 38.707H179.639Z" fill="#D3D8EA"/>
<path d="M197.076 38.707L197.191 39.889H213.213L213.143 38.707H197.076Z" fill="white"/>
<path d="M165.332 38.707V39.889H173.361L173.37 38.707H165.332Z" fill="#D3D8EA"/>
<path d="M155.571 35.1602L155.562 36.3421H168.631L168.64 35.1602H155.571Z" fill="#D3D8EA"/>
<path d="M170.133 35.1602V36.3421H173.449L173.457 35.1602H170.133Z" fill="#D3D8EA"/>
<path d="M166.959 31.6152L166.968 32.7972H173.6L173.608 31.6152H166.959Z" fill="#EBA63F"/>
<path d="M159.099 31.6152L159.09 32.7972H165.624L165.615 31.6152H159.099Z" fill="#EBA63F"/>
<path d="M165.235 51.9824L165.227 53.1644H173.264L173.273 51.9824H165.235Z" fill="#D3D8EA"/>
<path d="M155.474 48.4355L155.465 49.6175H168.534V48.4355H155.474Z" fill="#D3D8EA"/>
<path d="M170.036 48.4355L170.027 49.6175H173.352L173.361 48.4355H170.036Z" fill="#D3D8EA"/>
<path d="M165.11 59.4531L165.102 60.6351H173.139V59.4531H165.11Z" fill="#D3D8EA"/>
<path d="M155.349 55.9062L155.34 57.0882H168.409V55.9062H155.349Z" fill="#EBA63F"/>
<path d="M169.902 55.9062V57.0882H173.227V55.9062H169.902Z" fill="#F4D593"/>
<path d="M166.861 44.8906L166.87 46.0726H173.502L173.511 44.8906H166.861Z" fill="#EBA63F"/>
<path d="M159.001 44.8906L158.992 46.0726H165.527L165.518 44.8906H159.001Z" fill="#EBA63F"/>
<path d="M201.453 31.6152L201.524 32.7972H207.519L207.448 31.6152H201.453Z" fill="white"/>
<path d="M223.551 35.1602L223.622 36.3421H233.215L233.145 35.1602H223.551Z" fill="#D3D8EA"/>
<path d="M214.973 38.707L215.043 39.889H224.77L224.699 38.707H214.973Z" fill="#D3D8EA"/>
<path d="M210.137 31.6152L210.278 32.7972H227.211L227.07 31.6152H210.137Z" fill="#D3D8EA"/>
<path d="M179.578 44.8906L179.649 46.0726H199.394L199.323 44.8906H179.578Z" fill="#D3D8EA"/>
<path d="M189.26 48.4355L189.339 49.6175H221.454L221.384 48.4355H189.26Z" fill="#D3D8EA"/>
<path d="M179.631 48.4355L179.702 49.6175H187.872L187.792 48.4355H179.631Z" fill="#D3D8EA"/>
<path d="M179.533 51.9824L179.613 53.1644H195.953L195.838 51.9824H179.533Z" fill="#D3D8EA"/>
<path d="M196.979 51.9824L197.093 53.1644H213.107L213.036 51.9824H196.979Z" fill="#D3D8EA"/>
<path d="M201.355 44.8906L201.426 46.0726H207.421L207.351 44.8906H201.355Z" fill="#D3D8EA"/>
<path d="M223.453 48.4355L223.524 49.6175H233.118L233.047 48.4355H223.453Z" fill="#D3D8EA"/>
<path d="M214.875 51.9824L214.946 53.1644H224.663L224.593 51.9824H214.875Z" fill="white"/>
<path d="M189.533 55.9062L189.604 57.0882H221.719L221.648 55.9062H189.533Z" fill="#D3D8EA"/>
<path d="M179.895 55.9062L179.965 57.0882H188.144L188.065 55.9062H179.895Z" fill="#D3D8EA"/>
<path d="M179.807 59.4531L179.877 60.6351H196.227L196.103 59.4531H179.807Z" fill="#D3D8EA"/>
<path d="M197.244 59.4531L197.368 60.6351H213.381L213.311 59.4531H197.244Z" fill="white"/>
<path d="M223.719 55.9062L223.789 57.0882H233.383L233.313 55.9062H223.719Z" fill="white"/>
<path d="M215.141 59.4531L215.211 60.6351H224.938L224.867 59.4531H215.141Z" fill="#D3D8EA"/>
<path d="M210.029 44.8906L210.171 46.0726H227.113L226.971 44.8906H210.029Z" fill="white"/>
<path d="M164.969 71.668V72.8411H172.998L173.006 71.668H164.969Z" fill="#D3D8EA"/>
<path d="M155.208 68.123L155.199 69.2962H168.268L168.277 68.123H155.208Z" fill="#D3D8EA"/>
<path d="M169.77 68.123V69.2962H173.085L173.094 68.123H169.77Z" fill="#D3D8EA"/>
<path d="M164.847 79.1309L164.838 80.3128H172.875L172.884 79.1309H164.847Z" fill="#D3D8EA"/>
<path d="M155.083 75.5859L155.074 76.7679H168.143V75.5859H155.083Z" fill="#EBA63F"/>
<path d="M169.639 75.5859V76.7679H172.963L172.972 75.5859H169.639Z" fill="#EEBA5B"/>
<path d="M166.598 64.5762L166.606 65.7493H173.238L173.247 64.5762H166.598Z" fill="#F4D593"/>
<path d="M158.735 64.5762L158.727 65.7493H165.261L165.252 64.5762H158.735Z" fill="#EEBA5B"/>
<path d="M179.312 64.5762L179.383 65.7493H199.137L199.066 64.5762H179.312Z" fill="#D3D8EA"/>
<path d="M188.994 68.123L189.074 69.2962H221.189L221.118 68.123H188.994Z" fill="#D3D8EA"/>
<path d="M179.365 68.123L179.436 69.2962H187.606L187.535 68.123H179.365Z" fill="#D3D8EA"/>
<path d="M179.277 71.668L179.348 72.8411H195.689L195.574 71.668H179.277Z" fill="#D3D8EA"/>
<path d="M196.713 71.668L196.828 72.8411H212.85L212.779 71.668H196.713Z" fill="#D3D8EA"/>
<path d="M201.09 64.5762L201.161 65.7493H207.156L207.085 64.5762H201.09Z" fill="#D3D8EA"/>
<path d="M223.188 68.123L223.258 69.2962H232.852L232.781 68.123H223.188Z" fill="#D3D8EA"/>
<path d="M214.609 71.668L214.68 72.8411H224.407L224.336 71.668H214.609Z" fill="white"/>
<path d="M189.268 75.5859L189.338 76.7679H221.453L221.383 75.5859H189.268Z" fill="#D3D8EA"/>
<path d="M179.629 75.5859L179.7 76.7679H187.879L187.799 75.5859H179.629Z" fill="#D3D8EA"/>
<path d="M179.543 79.1309L179.614 80.3128H195.963L195.848 79.1309H179.543Z" fill="#D3D8EA"/>
<path d="M196.979 79.1309L197.102 80.3128H213.116L213.045 79.1309H196.979Z" fill="white"/>
<path d="M223.453 75.5859L223.524 76.7679H233.118L233.047 75.5859H223.453Z" fill="white"/>
<path d="M214.875 79.1309L214.946 80.3128H224.672L224.601 79.1309H214.875Z" fill="#D3D8EA"/>
<path d="M209.773 64.5762L209.915 65.7493H226.848L226.706 64.5762H209.773Z" fill="white"/>
<mask id="mask0_2117_18668" style="mask-type:luminance" maskUnits="userSpaceOnUse" x="44" y="32" width="130" height="147">
<path d="M159.868 72.9036L163.458 43.0463L157.418 32.7969L134.703 42.9757L115.984 38.1244L104.833 46.0629L100.598 66.9762L96.2919 72.9036H44.3613V151.141C44.3613 151.977 44.6936 152.779 45.2854 153.371C45.8771 153.963 46.68 154.297 47.518 154.299H89.9608L87.7326 158.383L76.9539 175.212L86.4681 178.247L120.873 167.662L155.075 160.217L155.738 154.343H170.47C170.885 154.343 171.297 154.261 171.681 154.103C172.065 153.944 172.414 153.711 172.708 153.418C173.002 153.125 173.235 152.777 173.394 152.394C173.553 152.011 173.635 151.6 173.635 151.185V72.9036H159.868Z" fill="white"/>
</mask>
<g mask="url(#mask0_2117_18668)">
<path d="M90.8534 167.98C92.1178 166.851 101.217 165.113 103.507 164.452L101.835 160.174C98.3286 161.341 94.6563 161.936 90.9595 161.938C89.0938 161.867 85.6541 167.292 87.7851 169.876C87.9089 169.956 88.9788 169.656 90.8534 167.98Z" fill="#FAEACB"/>
<path d="M90.3412 166.313C90.854 167.433 93.604 166.745 92.8612 168.077C90.8806 168.077 88.8468 169.206 86.8485 172.355C85.08 175.23 80.2168 175.204 80.2168 175.204L89.6426 160.323C89.6426 160.323 91.2431 159.053 94.1168 161.594C93.153 163.164 89.6073 164.619 90.3412 166.313Z" fill="#1D1D2C"/>
<path d="M121.89 100.547C130.732 112.013 151.219 148.054 151.502 149.783C151.847 151.82 147.612 158.383 140.803 152.614C134.658 147.419 100.129 111.422 107.247 100.829C111.305 94.8223 119.193 97.045 121.89 100.547Z" fill="#414267"/>
<path d="M111.934 99.0469C118.354 131.683 147.064 151.617 148.851 152.931C147.144 152.702 144.429 155.401 142.228 153.663C136.577 149.147 98.9006 116.053 110.652 100.149C111.448 99.0822 110.97 99.629 111.934 99.0469Z" fill="#1D1D2C"/>
<path d="M96.6799 107.956C100.006 103.623 104.267 100.093 109.147 97.6268C112.26 96.3302 117.415 97.1417 117.459 102.522C117.503 107.903 117.583 111.898 112.472 120.463C107.361 129.028 91.2242 147.074 85.2734 153.646C80.3571 159.097 71.2407 157.95 76.7583 148.759C82.2759 139.568 91.2242 114.959 96.6799 107.956Z" fill="#414267"/>
<path d="M75.4418 150.461C76.6178 148.768 77.3518 147.489 78.3951 145.707C82.8163 138.139 88.7052 148.027 87.5911 150.064C86.194 152.622 84.8235 153.654 80.5173 162.731C77.5704 169.116 73.4768 174.91 68.4388 179.825C65.4619 183.162 62.7173 186.698 60.2243 190.409C55.4672 189.677 54.5918 187.481 54.5918 187.481C54.5918 187.481 60.41 177.046 63.9911 169.187C67.5722 161.328 72.6565 154.431 75.4418 150.461Z" fill="#414267"/>
<path d="M149.629 153.426C148.126 156.169 102.668 165.466 102.668 165.466C99.9183 161.84 100.723 158.868 100.723 158.868C100.723 158.868 113.792 155.181 120.936 151.176C152.786 133.315 150.699 151.503 149.629 153.426Z" fill="#414267"/>
<path d="M112.676 43.7252C113.683 43.5076 114.732 43.5928 115.69 43.9699C116.648 44.347 117.473 44.9992 118.06 45.8439C118.646 46.6887 118.969 47.688 118.986 48.7155C119.003 49.743 118.715 50.7526 118.157 51.6165C117.599 52.4804 116.797 53.1598 115.851 53.5688C114.906 53.9778 113.861 54.098 112.847 53.9142C111.834 53.7304 110.898 53.2509 110.157 52.5363C109.417 51.8217 108.906 50.9041 108.688 49.8996C108.399 48.5535 108.656 47.1481 109.404 45.9909C110.151 44.8337 111.328 44.019 112.676 43.7252Z" fill="#1D1D2C"/>
<path d="M110.167 67.4782C111.431 62.1859 108.655 63.509 110.052 56.8936C111.449 50.2783 114.367 48.9023 117.125 47.3322C124.031 43.3542 134.032 50.7105 132.723 57.9168C131.512 64.5851 131.98 72.3118 133.935 77.6747C135.889 83.0375 135.181 99.2672 121.016 99.1525C106.851 99.0379 104.26 92.6871 103.8 84.0519C103.243 73.679 108.911 72.7793 110.167 67.4782Z" fill="#1D1D2C"/>
<path d="M89.7316 85.8242C89.4059 85.7832 89.0874 85.6971 88.7855 85.5684C88.1139 85.3092 87.535 84.8563 87.1225 84.2675C86.71 83.6787 86.4826 82.9807 86.4694 82.2625C86.4561 81.5444 86.6575 80.8385 87.048 80.2349C87.4384 79.6314 88.0002 79.1575 88.6617 78.8737C91.5796 77.4624 107.301 72.7611 111.227 71.0235C115.471 69.1359 120.494 75.1867 116.285 78.3533C115.401 79.0325 110.095 80.8318 104.454 82.4989C98.1141 84.36 91.3232 86.0624 89.7316 85.8242Z" fill="#FAEACB"/>
<path d="M89.7313 85.8258C89.4055 85.7848 89.0871 85.6987 88.7852 85.5701C89.6229 85.1518 90.5161 84.8548 91.4378 84.688C97.4152 83.4884 100.51 77.9668 100.51 77.9668L104.489 82.5005C98.1137 84.3616 91.3229 86.064 89.7313 85.8258Z" fill="#FAEACB"/>
<path d="M92.4529 81.2923C89.0486 76.6527 78.0577 69.5699 77.0054 66.2975C75.9532 63.0251 76.3157 57.9268 73.6365 57.6005C70.9573 57.2741 70.2146 58.4825 70.1881 61.5609C70.1881 63.1574 69.0739 65.4154 72.1599 67.8763C75.2458 70.3373 81.347 80.4984 85.3614 84.6352C89.3758 88.772 94.7607 84.4324 92.4529 81.2923Z" fill="#FAEACB"/>
<path d="M101.836 83.867C108.68 82.1029 115.179 78.8923 116.24 78.0984C120.449 74.9319 115.462 69.1368 111.218 71.0421C109.016 72.0123 103.18 73.6176 97.8926 75.3553C99.0067 80.1977 100.881 82.985 101.836 83.867Z" fill="#EBA63F"/>
<path d="M125.771 94.1871C126.461 92.0879 127.645 90.2708 131.147 83.2674C132.509 80.533 133.879 78.4602 133.428 77.0225C132.845 75.1966 130.006 74.3763 127.946 73.9177C124.223 73.1503 127.866 64.5503 127.866 64.5503C127.69 62.5657 121.942 58.4907 120.474 67.6551C119.519 73.6883 114.214 69.7544 112.543 70.5394C110.297 71.6596 109.766 75.0114 109.006 76.7138C108.245 78.4161 105.195 79.9421 104.877 83.2586C104.75 84.1347 104.97 85.0255 105.49 85.743C106.01 86.4605 106.788 86.9486 107.662 87.1043C108.565 88.8207 108.969 90.7544 108.829 92.6877C108.332 95.2948 107.243 97.7539 105.646 99.8763C111.455 104.05 118.684 105.759 125.753 104.631C125.753 104.631 123.693 100.476 125.771 94.1871Z" fill="#FAEACB"/>
<path d="M127.947 73.9167C124.224 73.1493 127.867 64.5493 127.867 64.5493C127.77 63.4468 125.79 62.697 123.941 63.2263C125.029 63.7643 126.744 69.4006 123.544 76.457C122.659 78.4681 120.104 79.2443 117.92 79.2266C117.92 79.2266 130.679 84.2719 131.183 83.2488C132.51 80.5321 130.007 74.3401 127.947 73.9167Z" fill="#FAEACB"/>
<path d="M125.763 94.1865C126.461 92.0872 127.646 90.2702 131.148 83.2668C132.51 80.5324 133.88 78.4596 133.42 77.0219C132.907 75.3813 130.555 74.5168 128.592 74.0494C125.17 78.5743 119.909 80.3384 116.753 78.0186C114.71 76.5367 114.029 73.7142 114.666 70.6623C113.99 70.412 113.255 70.366 112.553 70.53C110.298 71.659 109.758 75.0108 109.016 76.7043C108.273 78.3979 105.205 79.9326 104.886 83.2491C104.76 84.1253 104.98 85.0161 105.5 85.7336C106.019 86.4511 106.798 86.9392 107.672 87.0949C108.573 88.8147 108.974 90.7517 108.83 92.687C108.332 95.2954 107.24 97.7549 105.638 99.8757C111.45 104.05 118.682 105.759 125.754 104.63C125.754 104.63 123.685 100.484 125.763 94.1865Z" fill="#EBA63F"/>
<path d="M125.763 94.1877C126.462 92.0885 127.647 90.2715 131.148 83.268C132.51 80.5336 133.88 78.4608 133.421 77.0231C132.925 75.4354 130.715 74.5798 128.796 74.1035C128.681 74.4122 128.557 74.7298 128.416 75.0385C127.546 76.9704 126.196 78.6488 124.494 79.9146C122.792 81.1803 120.794 81.9915 118.689 82.2713L120.75 83.1533C121.874 83.7215 122.73 84.7063 123.135 85.8967C123.54 87.0871 123.461 88.3884 122.916 89.5217C122.533 90.3078 121.938 90.9719 121.198 91.4393C120.457 91.9067 119.601 92.159 118.725 92.1679L116.523 97.0985C116.138 97.9523 115.972 98.8886 116.041 99.8226C116.109 100.756 116.411 101.659 116.918 102.447C117.424 103.235 118.12 103.885 118.942 104.337C119.764 104.79 120.686 105.03 121.625 105.037C123.01 105.061 124.394 104.943 125.754 104.684C125.754 104.684 123.685 100.486 125.763 94.1877Z" fill="#EBA63F"/>
<path d="M117.549 59.0456C117.549 59.0456 118.239 50.922 120.653 50.0575C123.067 49.1931 125.074 48.8932 127.01 51.2748C128.301 52.657 129.102 54.4229 129.292 56.3024C129.292 56.3024 133.324 58.3576 130.936 63.5441C128.549 68.7305 121.873 67.3545 118.902 63.9322C118.902 63.9322 115.878 65.855 114.64 62.9002C113.402 59.9453 115.383 59.2573 117.549 59.0456Z" fill="#FAEACB"/>
<path d="M117.549 59.0463C117.549 59.0463 118.239 50.9227 120.653 50.0582C122.589 49.3702 124.269 49.0351 125.843 50.1553C124.075 50.1553 119.954 58.2437 120.936 62.1688C121.173 63.0615 121.634 63.8792 122.275 64.5448C122.917 65.2104 123.718 65.7019 124.603 65.973C125.488 66.244 126.427 66.2855 127.333 66.0937C128.238 65.9019 129.08 65.483 129.778 64.8767C130.141 64.5648 130.47 64.216 130.76 63.8358C128.275 68.6695 121.82 67.2846 118.902 63.9329C118.902 63.9329 115.878 65.8557 114.64 62.9009C113.402 59.946 115.383 59.258 117.549 59.0463Z" fill="#FAEACB"/>
<path d="M129.185 51.8393C129.185 51.8393 125.135 52.2627 122.35 50.6574C119.565 49.0521 118.521 49.7224 118.521 49.7224C124.428 45.0564 129.185 51.8393 129.185 51.8393Z" fill="#1D1D2C"/>
<path d="M120.732 49.5915C122.014 50.1649 122.934 52.7051 121.006 56.348C119.079 59.9909 120.9 63.3338 118.221 61.9578C115.542 60.5818 115.427 60.2731 114.525 57.6623C113.623 55.0514 117.903 48.3214 120.732 49.5915Z" fill="#1D1D2C"/>
<path d="M133.669 147.551C139.788 144.905 147.631 144.905 147.631 144.905C144.297 142.364 136.861 142.259 120.962 151.211C120.282 151.591 119.539 151.97 118.77 152.349C123.837 151.082 128.815 149.479 133.669 147.551Z" fill="#1D1D2C"/>
<path d="M130.705 73.8826C134.799 72.586 147.558 66.5175 150.68 65.6354C151.441 65.3961 152.259 65.4119 153.01 65.6805C153.761 65.9491 154.404 66.4558 154.839 67.1229C155.274 67.79 155.478 68.581 155.42 69.3748C155.362 70.1686 155.045 70.9216 154.517 71.5187C152.554 73.8561 133.897 83.0823 131.527 83.2764C126.248 83.7174 126.284 75.2938 130.705 73.8826Z" fill="#FAEACB"/>
<path d="M150.203 67.1087C149.044 67.5321 147.939 68.0702 146.807 68.5288C144.561 69.4109 142.209 70.046 139.937 70.8927C135.516 72.5333 131.537 74.6238 130.113 79.475C129.734 80.7119 129.692 82.0268 129.989 83.2855C127.92 80.9833 128.628 74.5179 130.688 73.8211C134.755 72.4451 145.958 67.2499 149.08 66.3678C150.083 66.075 151.156 66.1215 152.13 66.5001C151.485 66.7206 150.831 66.9147 150.203 67.1087Z" fill="#FAEACB"/>
<path d="M144.155 78.1072C137.903 81.362 132.73 83.4877 131.404 83.5935C126.099 84.0169 126.355 75.1435 130.776 73.7411C133.075 73.009 136.312 71.3243 141.387 69.1191C143.836 73.4853 144.278 76.8106 144.155 78.1072Z" fill="#EBA63F"/>
<path d="M152.149 72.8495C152.149 72.8495 154.872 71.2089 155.394 69.7623C155.916 68.3158 149.762 66.3047 149.762 66.3047L148.701 67.7689L147.984 69.9564L149.939 72.8848L152.149 72.8495Z" fill="#FAEACB"/>
<path d="M152.783 47.3766C153.058 44.7922 152.669 43.9631 152.669 43.9631C152.226 41.9609 151.652 41.9697 151.917 40.3379C152.103 39.1295 153.623 42.7635 153.836 42.2784C154.842 40.0156 156.424 38.0544 158.425 36.5892C159.433 35.9012 159.592 36.5892 158.982 37.1449C156.329 39.791 159.406 40.823 159.079 42.3401C158.628 44.4659 157.567 44.607 156.913 45.9213C156.86 46.0359 156.807 46.1594 156.754 46.3005C155.931 49.9346 156.754 64.0032 156.17 68.828C155.586 73.6528 149.202 73.3441 149.149 70.01C149.087 65.8379 152.386 52.0691 152.783 47.3766Z" fill="#FAEACB"/>
</g>
<path d="M69.6932 59.7523C69.9054 60.1669 70.5243 60.8372 71.0637 60.5638C71.1284 60.532 71.1857 60.4869 71.2317 60.4315C71.2875 60.74 71.3919 61.0377 71.5412 61.3135C71.886 61.9221 72.7526 62.7248 73.3804 61.9751C73.6204 61.6721 73.7814 61.3145 73.849 60.9342C73.9943 61.2228 74.2079 61.4716 74.4714 61.6591C74.7349 61.8466 75.0403 61.9672 75.361 62.0103C76.431 62.1603 76.6697 61.3753 76.6785 60.5285C77.0764 61.2694 77.8546 62.2926 78.5973 61.4899C78.96 60.9281 79.1786 60.286 79.2339 59.62C79.3843 58.7999 79.4377 57.9651 79.3931 57.1326C79.3971 57.1004 79.3971 57.0678 79.3931 57.0356C79.4179 56.9797 79.4269 56.9181 79.4191 56.8574C79.4113 56.7968 79.387 56.7395 79.3489 56.6916C78.8007 55.9419 77.6335 55.3068 76.988 56.2859C76.813 56.5425 76.6732 56.8213 76.5724 57.115C76.3956 56.3564 76.0419 55.7478 75.2638 55.7743C74.4857 55.8007 73.9905 56.5769 73.7429 57.4237C73.7467 57.4092 73.7467 57.3941 73.7429 57.3796C73.4334 57.0973 73.0267 56.7269 72.558 56.8504C72.3767 56.9336 72.216 57.0559 72.0876 57.2084C71.9592 57.3609 71.8662 57.5398 71.8153 57.7324C71.7803 57.6487 71.7136 57.5821 71.6296 57.5472C71.3309 57.4374 71.0059 57.4206 70.6974 57.4989C70.3889 57.5773 70.1115 57.7471 69.9017 57.9859C69.692 58.2248 69.5598 58.5215 69.5225 58.8368C69.4853 59.1522 69.5448 59.4714 69.6932 59.7523Z" fill="#FAEACB"/>
<path d="M109.193 5.36523H78.9344C77.8197 5.36757 76.7514 5.81095 75.964 6.59807C75.1766 7.3852 74.7344 8.45178 74.7344 9.56378V25.5729C74.7344 26.6849 75.1766 27.7515 75.964 28.5387C76.7514 29.3258 77.8197 29.7692 78.9344 29.7715H98.2194L104.577 37.3924C104.681 37.5288 104.825 37.6292 104.99 37.6796C105.154 37.73 105.33 37.7278 105.493 37.6733C105.656 37.6188 105.797 37.5147 105.898 37.3758C105.999 37.2368 106.053 37.0699 106.054 36.8984L104.135 29.7715H109.193C110.309 29.7715 111.379 29.3291 112.169 28.5418C112.958 27.7544 113.402 26.6865 113.402 25.5729V9.56378C113.402 8.45026 112.958 7.38234 112.169 6.59496C111.379 5.80758 110.309 5.36523 109.193 5.36523Z" fill="#EEBA5B"/>
<path d="M91.0479 21.5422L83.0898 18.0846V16.1705L91.0479 12.7129V14.9709L85.4773 17.0967L91.0479 19.293V21.5422Z" fill="white"/>
<path d="M91.791 23.0584L94.6559 11.0449H96.3359L93.4357 23.0584H91.791Z" fill="white"/>
<path d="M97.0879 21.5412V19.3008L102.667 17.1045L97.0879 14.9435V12.7207L105.046 16.1607V18.0571L97.0879 21.5412Z" fill="white"/>
<defs>
<linearGradient id="paint0_linear_2117_18668" x1="43.2194" y1="96.0578" x2="273.932" y2="36.6955" gradientUnits="userSpaceOnUse">
<stop stop-color="white"/>
<stop offset="1" stop-color="#D3DBEB"/>
</linearGradient>
</defs>
</svg>
