<svg width="272" height="248" viewBox="0 0 272 248" fill="none" xmlns="http://www.w3.org/2000/svg">
<path d="M201.45 81.1912C187.45 70.0412 175.77 50.5912 182.45 31.8412C189.13 13.0912 202.74 48.0012 213.76 59.6112C229.71 76.4312 230.77 104.521 201.45 81.1912Z" fill="#BAE1FD"/>
<path d="M235.34 231.911H28.2002V233.351H235.34V231.911Z" fill="black"/>
<path d="M69.7 221.311C69.2 220.691 63.82 221.211 63.77 221.531C63.6 222.531 63.35 226.321 63.86 226.821C64.37 227.321 69.01 228.371 69.11 227.411C69.21 226.451 70.18 221.911 69.7 221.311Z" fill="white"/>
<path d="M68.06 228.001C66.5465 228.003 65.0523 227.661 63.69 227.001C63.02 226.351 63.41 222.151 63.52 221.491C63.52 221.281 63.79 221.211 64.02 221.151C65.02 220.891 69.32 220.441 69.9 221.151C70.27 221.611 70.05 223.331 69.53 226.351C69.45 226.851 69.38 227.231 69.36 227.421C69.3422 227.542 69.289 227.655 69.2071 227.746C69.1253 227.836 69.0184 227.901 68.9 227.931C68.6252 227.997 68.342 228.02 68.06 228.001ZM64 221.671C63.79 223.061 63.68 226.291 64 226.671C64.32 227.051 67.72 227.841 68.69 227.491C68.77 227.491 68.82 227.431 68.82 227.411C68.82 227.211 68.91 226.811 69 226.311C69.21 225.101 69.76 221.891 69.47 221.501C69.18 221.111 64.73 221.351 64 221.671Z" fill="black"/>
<path d="M63.4799 225.661C63.4799 225.661 60.9999 229.221 62.7699 232.001C62.7699 232.001 75.7699 232.611 79.6399 232.001C79.6399 232.001 79.7399 227.231 76.3899 226.821C74.0221 226.565 71.6413 226.448 69.2599 226.471C69.2599 226.471 65.9199 228.311 63.4799 225.661Z" fill="black"/>
<path d="M40.2802 221.331C39.7802 220.711 35.1702 221.211 35.1102 221.531C34.9502 222.531 34.6902 226.321 35.2102 226.821C35.7302 227.321 39.7502 228.891 39.8602 227.931C39.9702 226.971 40.7602 221.931 40.2802 221.331Z" fill="white"/>
<path d="M39.2902 228.471C37.7679 228.309 36.3015 227.807 35.0002 227.001C34.3402 226.351 34.7302 222.151 34.8402 221.491C34.8402 221.291 35.0702 221.201 35.3802 221.121C36.2402 220.901 39.8702 220.471 40.4402 221.181C40.7802 221.601 40.7102 223.251 40.1702 227.241C40.1202 227.571 40.0902 227.821 40.0702 227.951C40.0585 228.057 40.0164 228.158 39.9491 228.241C39.8817 228.324 39.7919 228.387 39.6902 228.421C39.5601 228.457 39.4253 228.474 39.2902 228.471ZM35.3402 221.661C35.1302 223.041 35.0202 226.291 35.3402 226.661C35.6602 227.031 38.7802 228.231 39.5102 227.961C39.5602 227.961 39.5702 227.961 39.5702 227.961C39.5702 227.961 39.6202 227.571 39.6602 227.231C40.1302 223.761 40.2602 221.851 40.0402 221.551C39.8202 221.251 36.0002 221.331 35.3402 221.661Z" fill="black"/>
<path d="M63.6302 175.251C64.2302 182.871 63.6302 198.251 63.0702 205.861C63.0702 206.371 63.0702 224.081 63.0702 224.081L70.2302 224.761C74.1302 213.131 81.5802 187.031 81.5802 175.451C81.5802 163.871 80.5802 144.561 76.3202 135.451C72.3202 126.741 56.3202 138.771 54.4302 140.901C53.5602 141.901 55.2002 150.701 57.4302 156.551C60.0602 163.261 63.3002 171.151 63.6302 175.251Z" fill="black"/>
<path d="M62.9999 224.081L67.4199 224.501C67.0199 221.721 67.4199 215.501 67.5699 212.691C68.0255 207.778 68.9157 202.916 70.2299 198.161C72.0299 190.581 73.7499 182.541 71.6099 174.841C70.4999 170.841 68.0699 168.121 66.0899 164.621C64.7591 162.272 64.1439 159.585 64.3199 156.891C64.4299 155.411 65.3199 153.541 64.8399 152.071C64.2199 150.201 58.6399 143.901 57.2099 144.851C55.4899 146.011 56.3599 150.491 55.6699 152.571C58.2999 159.341 63.2699 171.151 63.5999 175.251C64.1999 182.871 62.9499 198.171 62.5299 205.811C62.3459 211.905 62.5028 218.004 62.9999 224.081Z" fill="black"/>
<path d="M34.56 224.081L40.92 224.761C44.24 213.761 53.1099 195.041 54.4199 183.531C56.4199 165.651 58.88 146.531 58.99 141.801C58.99 141.041 58.99 140.641 58.99 140.641C54.61 135.311 47.1899 133.141 43.8899 132.751C42.58 132.591 41.6299 132.841 41.2199 133.531C39.9926 135.535 38.9163 137.627 38 139.791C32.67 152.451 37.16 160.101 37.06 176.561C37.06 177.511 37.06 178.491 37.06 179.451C36.89 186.261 38.73 194.641 36.77 201.751C32.93 215.691 34.56 224.081 34.56 224.081Z" fill="black"/>
<path d="M105.83 110.731C105.92 119.431 102.28 127.321 96.9799 126.101C92.7227 125.191 88.8031 123.113 85.6599 120.101C85.3899 119.851 85.1299 119.581 84.8899 119.321C84.4799 118.871 84.0999 118.441 83.7399 117.991C83.2599 117.371 82.8299 116.771 82.4499 116.181C82.3899 116.071 82.3199 115.971 82.2599 115.881C80.5899 113.221 79.9199 111.581 79.7899 109.331C79.6915 108.046 79.7418 106.755 79.9399 105.481C79.9399 105.481 77.5999 87.7513 81.4699 89.9413C85.3399 92.1313 89.7699 98.9413 92.9299 105.651C92.9299 105.651 92.9299 105.651 92.9299 105.731C93.1199 106.091 93.2699 106.441 93.4399 106.791C93.6099 107.141 93.6499 107.221 93.7399 107.421C95.3099 110.771 95.9899 112.671 96.5399 113.041C97.4799 113.651 97.8599 110.161 98.6999 106.141L98.9999 104.691C99.5899 101.851 100.2 99.4113 100.89 99.1813C100.89 99.1813 104.07 96.1813 104.36 97.6113C105.217 101.936 105.709 106.324 105.83 110.731Z" fill="white"/>
<path d="M98.07 126.481C97.6826 126.478 97.2968 126.431 96.92 126.341C92.6273 125.44 88.6699 123.362 85.49 120.341C85.22 120.081 84.95 119.811 84.7 119.551C84.27 119.081 83.9 118.641 83.55 118.211C83.0827 117.62 82.6455 117.006 82.24 116.371L82.12 116.181L82 116.001C80.26 113.221 79.63 111.531 79.5 109.341C79.4112 108.046 79.4581 106.746 79.64 105.461C79.43 103.841 77.87 91.2412 80.22 89.6612C80.4165 89.5288 80.6481 89.458 80.885 89.458C81.122 89.458 81.3535 89.5288 81.55 89.6612C85.07 91.6612 89.39 97.5712 93.12 105.471C93.1224 105.511 93.1224 105.551 93.12 105.591C93.24 105.811 93.36 106.071 93.48 106.321L93.74 106.881C93.808 107 93.8682 107.124 93.92 107.251C94.39 108.251 94.78 109.121 95.11 109.861C95.4655 110.9 95.9781 111.878 96.63 112.761C96.63 112.761 96.7 112.761 96.71 112.761C97.14 112.581 97.54 110.451 97.93 108.391C98.08 107.641 98.23 106.831 98.4 106.001C98.5 105.531 98.59 105.081 98.68 104.621V104.531C99.49 100.671 100.02 99.1612 100.68 98.8712C101.16 98.4112 103.16 96.6112 104.08 96.8712C104.201 96.9111 104.308 96.9852 104.388 97.0846C104.468 97.1839 104.517 97.3043 104.53 97.4312C105.382 101.776 105.864 106.185 105.97 110.611C106.04 117.031 104.15 122.741 101.16 125.151C100.312 125.934 99.2216 126.403 98.07 126.481ZM80.85 90.0012C80.7386 90.0004 80.63 90.0355 80.54 90.1012C78.75 91.3112 79.68 101.601 80.18 105.461V105.541C79.9973 106.799 79.9503 108.073 80.04 109.341C80.16 111.471 80.75 113.031 82.47 115.761L82.53 115.861C82.5825 115.931 82.6293 116.004 82.67 116.081C83.02 116.621 83.44 117.211 83.94 117.861C84.28 118.281 84.65 118.711 85.07 119.171C85.31 119.431 85.57 119.691 85.83 119.941C88.9367 122.906 92.8023 124.955 97 125.861C97.6843 126.017 98.3959 126.007 99.0758 125.833C99.7557 125.66 100.384 125.326 100.91 124.861C103.75 122.581 105.61 116.861 105.54 110.721C105.433 106.325 104.954 101.946 104.11 97.6312C104.11 97.4712 104.02 97.4512 103.99 97.4412C103.5 97.3012 101.99 98.4412 101.06 99.3312L100.97 99.3912C100.31 99.6012 99.53 103.311 99.24 104.711V104.791C99.15 105.251 99.06 105.701 98.96 106.161C98.79 107.001 98.64 107.811 98.5 108.561C97.93 111.561 97.62 113.021 96.98 113.291C96.8897 113.332 96.7903 113.347 96.6919 113.337C96.5936 113.326 96.4997 113.29 96.42 113.231C95.98 112.921 95.56 111.981 94.72 110.111C94.39 109.371 94 108.501 93.54 107.501C93.4774 107.387 93.4206 107.271 93.37 107.151L93.1 106.581L92.73 105.821C92.708 105.782 92.688 105.742 92.67 105.701C89.84 99.7012 85.36 92.4412 81.33 90.1412C81.1845 90.0546 81.0193 90.0064 80.85 90.0012Z" fill="black"/>
<path d="M99.5602 106.801C99.2902 108.801 99.0102 110.891 98.7402 112.931C98.6827 113.678 98.486 114.407 98.1602 115.081C97.7902 115.731 97.6402 116.141 96.9202 115.911C95.9202 115.601 95.5202 114.371 94.5702 114.001C94.2123 113.887 93.8315 113.865 93.4628 113.936C93.0941 114.008 92.7493 114.171 92.4602 114.411C91.8886 114.891 91.3629 115.423 90.8902 116.001C89.3002 117.701 87.6702 119.701 85.6602 120.101C85.3902 119.851 85.1302 119.581 84.8902 119.321C84.4802 118.871 84.1002 118.441 83.7402 117.991C83.2602 117.371 82.8302 116.771 82.4502 116.181C82.8015 115.524 83.2276 114.91 83.7202 114.351C86.1902 111.301 88.7202 108.191 92.0702 106.171C92.3531 105.986 92.6548 105.832 92.9702 105.711C93.1602 106.071 93.3102 106.421 93.4802 106.771C93.6502 107.121 93.6902 107.201 93.7802 107.401C95.3502 110.751 96.0302 112.651 96.5802 113.021C97.5202 113.631 97.9002 110.141 98.7402 106.121C98.7866 106 98.8755 105.901 98.9902 105.841C99.1002 105.812 99.217 105.826 99.3172 105.88C99.4174 105.934 99.4935 106.023 99.5302 106.131C99.5968 106.348 99.6072 106.579 99.5602 106.801Z" fill="black"/>
<path d="M83.1099 118.871C81.9899 117.361 80.2799 115.651 78.7599 113.981C78.1899 113.351 77.6399 112.711 77.1499 112.121C76.5378 111.395 76.0296 110.587 75.6399 109.721C75.4919 109.407 75.4038 109.068 75.3799 108.721C75.4309 106.957 75.5812 105.198 75.8299 103.451C76.6899 96.731 78.9199 87.771 81.8299 89.111C86.8299 91.401 90.9999 99.111 94.5899 105.111C94.0499 110.781 90.4199 116.461 83.1099 118.871Z" fill="#AAB6C2"/>
<path d="M34.5598 224.081L36.0098 224.221C35.9396 219.976 36.0898 215.731 36.4598 211.501C37.1945 205.729 38.6388 200.07 40.7598 194.651C43.9998 185.771 46.1898 177.001 45.5598 167.451C45.2198 162.261 43.5598 157.451 42.8498 152.341C42.3898 149.051 43.0698 145.891 43.5998 142.701C43.9225 140.876 44.0798 139.025 44.0698 137.171C44.0698 135.641 38.0698 136.871 38.0698 139.401C32.7398 152.051 37.2298 160.101 37.1298 176.561C37.1298 177.511 37.1298 178.491 37.1298 179.451C37.0834 186.756 36.579 194.05 35.6198 201.291C32.8898 218.821 34.5598 224.081 34.5598 224.081Z" fill="black"/>
<path d="M85.27 92.251C85.27 92.251 86.49 96.591 84.43 102.921C83.89 104.571 81.14 111.261 79.87 115.181C78.6454 113.968 77.5186 112.661 76.5 111.271L81.35 101.871L85.27 92.251Z" fill="black"/>
<path d="M79.7099 109.751C78.3948 112.231 77.2326 114.789 76.2299 117.411C74.3799 123.241 79.4699 132.761 78.5799 137.101C77.7599 138.101 66.0199 143.031 57.1799 143.351C45.6799 143.761 36.7099 139.351 36.6099 137.711C36.5099 136.071 41.4799 116.331 44.4999 107.851C47.8399 98.4207 52.4999 89.3007 55.1099 86.6007C55.2925 86.4189 55.4862 86.2485 55.6899 86.0907C56.7549 85.4117 57.9636 84.9906 59.2199 84.8607C67.5699 83.5107 80.5199 87.2507 85.6199 91.7407C86.7299 96.0007 82.9999 103.181 79.7099 109.751Z" fill="#AAB6C2"/>
<path d="M77.7202 83.6713V87.2813C77.7202 87.2813 78.6602 89.3413 77.7202 89.4613C74.5402 89.8713 72.7202 85.8013 72.7202 85.8013V81.6113L77.7202 83.6713Z" fill="white"/>
<path d="M77.2598 89.7412C74.2598 89.7412 72.5998 86.0612 72.5298 85.9012V85.8012V81.2412L77.9998 83.5012V87.2212C78.1498 87.5712 78.6298 88.7712 78.2998 89.3712C78.2464 89.4651 78.1713 89.5449 78.0809 89.6041C77.9905 89.6632 77.8872 89.6999 77.7798 89.7112C77.6073 89.7325 77.4336 89.7425 77.2598 89.7412ZM72.9998 85.7412C73.2098 86.1812 74.9198 89.5612 77.6898 89.2112C77.7194 89.2117 77.7485 89.2034 77.7734 89.1874C77.7983 89.1714 77.8179 89.1484 77.8298 89.1212C77.9998 88.8212 77.7398 87.9212 77.4898 87.3812V87.2812V83.8412L72.9998 82.0012V85.7412Z" fill="black"/>
<path d="M62.43 93.291C62.43 93.291 62.9 99.561 58.97 103.291C56.9656 105.288 54.6004 106.886 52 108.001L51.23 114.001C51.23 114.001 55.97 112.441 60.23 106.001C62.4001 102.142 63.1768 97.6546 62.43 93.291Z" fill="black"/>
<path d="M78.9401 73.6309C79.9102 75.7342 80.5833 77.9622 80.9401 80.2509C81.2601 82.7009 77.0801 86.4909 73.4201 83.0309C69.7601 79.5709 70.7801 74.2909 70.7801 74.2909L78.9401 73.6309Z" fill="white"/>
<path d="M76.58 84.6708C75.318 84.638 74.1176 84.1185 73.23 83.2208C69.51 79.7108 70.5 74.3008 70.51 74.2208V74.0308L79.05 73.3408L79.12 73.5008C80.0954 75.6231 80.7687 77.8717 81.12 80.1808C81.3 81.5708 80.12 83.3108 78.55 84.1808C77.9409 84.4965 77.266 84.6644 76.58 84.6708ZM71 74.5308C70.87 75.4808 70.46 79.8908 73.59 82.8508C74.1821 83.5049 74.9739 83.9449 75.842 84.1022C76.7102 84.2596 77.606 84.1255 78.39 83.7208C79.84 82.9808 80.85 81.4708 80.69 80.2808C80.3515 78.0796 79.7192 75.9338 78.81 73.9008L71 74.5308Z" fill="black"/>
<path d="M69.8299 78.2307C69.8299 78.2307 69.8299 78.0607 69.7299 77.9007C69.5704 77.4645 69.5346 76.9927 69.6263 76.5374C69.7181 76.0821 69.9339 75.661 70.2499 75.3207C70.3629 75.1975 70.5179 75.121 70.6844 75.1061C70.8509 75.0913 71.017 75.1393 71.1499 75.2407C72.1499 75.1607 72.1499 76.4207 72.3399 77.1207C72.5699 78.2807 73.3399 79.6807 72.9299 80.8907C72.8868 81.086 72.8045 81.2706 72.688 81.4333C72.5715 81.5959 72.4233 81.7333 72.2523 81.837C72.0812 81.9408 71.8909 82.0087 71.6929 82.0369C71.4948 82.065 71.2931 82.0527 71.0999 82.0007C70.0999 81.7107 70.1999 80.7707 69.8599 80.0007C69.6214 79.6121 69.5392 79.1475 69.6299 78.7007C69.6789 78.5371 69.746 78.3794 69.8299 78.2307Z" fill="black"/>
<path d="M70.48 76.5205C71.58 78.9405 73.48 77.0505 75.01 76.3005C76.06 75.7905 77.66 75.6005 78.79 74.9905C78.8248 75.0737 78.8789 75.1475 78.9478 75.2058C79.0167 75.264 79.0984 75.3051 79.1863 75.3256C79.2741 75.3461 79.3656 75.3455 79.4532 75.3237C79.5407 75.302 79.6219 75.2597 79.69 75.2005C80.58 74.4205 81.69 73.0805 80.69 71.9305C79.91 71.0305 78.83 71.4105 77.97 71.9305C75 69.7405 68.61 72.4305 70.48 76.5205Z" fill="black"/>
<path d="M69.7498 122.121L67.9998 126.701C67.9998 126.701 67.1498 126.941 65.7098 127.251C59.4304 128.441 52.9815 128.421 46.7098 127.191C40.8398 125.841 37.5798 118.791 37.7098 111.661C37.7527 108.652 38.474 105.692 39.8198 103.001C40.2289 102.175 40.7179 101.392 41.2798 100.661L41.8398 99.9611L41.9198 99.8711C45.603 95.2389 49.8225 91.0597 54.4898 87.4211C56.8498 85.4911 59.2098 87.2911 60.2598 90.1611C61.0198 92.2211 62.7298 93.9611 62.1798 97.0911C61.5699 100.341 59.861 103.282 57.3398 105.421C56.4298 106.211 55.3398 107.141 54.3398 108.091L53.9598 108.441C51.4498 110.851 51.1798 116.631 51.1798 117.581C51.1798 118.721 52.6098 120.281 54.1798 120.851C59.1598 122.591 69.7498 122.121 69.7498 122.121Z" fill="white"/>
<path d="M56.0001 128.381C52.8684 128.411 49.7429 128.095 46.6801 127.441C40.1801 125.941 37.3801 118.211 37.5201 111.651C37.5491 108.602 38.2706 105.6 39.6301 102.871C40.0472 102.036 40.5428 101.242 41.1101 100.501L41.6801 99.7909L41.7401 99.7209C45.44 95.0719 49.676 90.8762 54.3601 87.2209C54.7493 86.8647 55.2202 86.61 55.7313 86.4792C56.2423 86.3484 56.7777 86.3455 57.2901 86.4709C58.0707 86.7813 58.7692 87.2676 59.3311 87.892C59.8931 88.5164 60.3034 89.262 60.5301 90.0709C60.7488 90.6281 60.9992 91.1723 61.2801 91.7009C62.3096 93.3117 62.7282 95.238 62.4601 97.1309C61.8336 100.433 60.0977 103.421 57.5401 105.601C56.5401 106.511 55.4701 107.431 54.5901 108.271H54.5301C54.4201 108.371 54.3201 108.461 54.2201 108.571C51.5801 111.101 51.5101 117.471 51.5101 117.571C51.5101 118.571 52.9001 120.081 54.3701 120.571C59.1701 122.281 69.6601 121.841 69.7701 121.831H70.1501L68.1501 126.891H68.0301C68.0301 126.891 67.1501 127.141 65.7301 127.441C62.5245 128.066 59.2661 128.381 56.0001 128.381ZM56.5201 86.8609C55.8345 86.8858 55.1795 87.1513 54.6701 87.6109C50.0151 91.2341 45.8028 95.3928 42.1201 100.001L42.0101 100.111L41.4801 100.781C40.9135 101.505 40.4179 102.282 40.0001 103.101C38.6987 105.764 38.0151 108.687 38.0001 111.651C37.8601 118.221 40.8201 125.581 46.7701 126.951C53.0033 128.147 59.407 128.147 65.6401 126.951C66.7501 126.721 67.5101 126.521 67.8001 126.441L69.3901 122.331C67.3901 122.401 58.6101 122.611 54.1801 121.031C52.4801 120.431 50.9901 118.801 50.9901 117.531C50.9901 117.471 50.9901 110.921 53.8501 108.211L54.1701 107.901H54.2301C55.1101 107.061 56.1401 106.131 57.2301 105.231C59.6936 103.106 61.3557 100.201 61.9401 97.0009C62.1902 95.2171 61.789 93.4029 60.8101 91.8909C60.5067 91.3579 60.2361 90.8069 60.0001 90.2409C59.795 89.5203 59.4307 88.855 58.9339 88.2942C58.4371 87.7334 57.8207 87.2914 57.1301 87.0009C56.9246 86.9239 56.709 86.8768 56.4901 86.8609H56.5201Z" fill="black"/>
<path d="M53.9998 110.441C54.9998 109.441 61.5498 103.061 62.5498 96.7113C62.9998 93.8313 62.1098 86.8613 58.5498 86.0213C52.7998 84.6913 45.0998 93.0213 39.7998 99.3613C42.2098 104.851 47.5498 108.701 53.9998 110.441Z" fill="#AAB6C2"/>
<path d="M56.3 119.741L43.46 119.621L55.46 123.911L56.3 119.741Z" fill="black"/>
<path d="M43.5098 120.711L43.6198 119.881L55.2598 124.041L55.1798 125.181L43.5098 120.711Z" fill="white"/>
<path d="M43.7801 120.151L55.0601 124.151L55.0101 124.891L43.7301 120.561L43.7801 120.131V120.151ZM43.4601 119.621L43.3101 120.831L55.3601 125.451L55.4601 123.911L43.4601 119.621Z" fill="black"/>
<path d="M82.0399 124.141L55.4599 123.911L55.3599 125.451L81.9399 125.521L82.0399 124.141Z" fill="black"/>
<path d="M55.7002 123.721L58.7002 109.721C58.7393 109.527 58.8443 109.352 58.9973 109.227C59.1504 109.101 59.3421 109.032 59.5402 109.031L84.0002 109.241C84.1272 109.241 84.2526 109.27 84.367 109.325C84.4813 109.381 84.5815 109.461 84.6602 109.561C84.7389 109.66 84.7949 109.775 84.8243 109.897C84.8537 110.02 84.8557 110.148 84.8302 110.271L81.8902 124.001L55.7002 123.721Z" fill="white"/>
<path d="M59.5298 108.831V109.211L83.9998 109.431C84.0982 109.431 84.1952 109.454 84.2835 109.497C84.3719 109.541 84.4492 109.604 84.5098 109.681C84.5702 109.758 84.6132 109.847 84.6356 109.942C84.6581 110.037 84.6595 110.136 84.6398 110.231L81.7498 123.761L55.9598 123.531L58.8998 109.751C58.9296 109.6 59.0105 109.464 59.1289 109.366C59.2473 109.267 59.3959 109.213 59.5498 109.211V108.831H59.5298ZM59.5298 108.831C59.2901 108.828 59.0573 108.911 58.8737 109.065C58.6902 109.22 58.5681 109.435 58.5298 109.671L55.5298 123.911L82.1098 124.141L85.1098 110.311C85.1506 110.16 85.1553 110.002 85.1237 109.848C85.092 109.695 85.0249 109.551 84.9276 109.429C84.8304 109.306 84.7057 109.208 84.5637 109.143C84.4216 109.077 84.2662 109.046 84.1098 109.051L59.6698 108.831H59.5298Z" fill="black"/>
<path d="M72.4701 126.711C72.4454 126.696 72.4245 126.676 72.4089 126.651C72.3933 126.627 72.3835 126.6 72.3801 126.571C72.2976 126.683 72.1927 126.776 72.0722 126.845C71.9517 126.914 71.8181 126.957 71.6801 126.971C71.3201 126.971 71.1201 126.681 70.9701 126.451C70.8339 126.704 70.6273 126.912 70.3754 127.051C70.1234 127.189 69.8368 127.252 69.5501 127.231C69.0101 127.121 68.8901 126.681 68.9401 126.231C68.7987 126.396 68.6413 126.547 68.4701 126.681C67.8001 127.181 67.1201 126.601 66.9101 126.041C66.8873 126.009 66.875 125.97 66.875 125.931C66.875 125.892 66.8873 125.853 66.9101 125.821C66.9054 125.801 66.9054 125.781 66.9101 125.761C67.0593 125.225 67.2778 124.711 67.5601 124.231C67.7615 123.816 68.0558 123.454 68.4201 123.171C69.1101 122.791 69.4201 123.561 69.5401 124.091C69.7301 123.561 70.0701 123.091 70.7801 123.371C70.9846 123.44 71.1676 123.562 71.3113 123.723C71.455 123.884 71.5545 124.08 71.6001 124.291C71.7408 124.053 71.9319 123.848 72.1601 123.691C72.7701 123.331 73.1601 123.971 73.3001 124.411C73.34 124.616 73.34 124.826 73.3001 125.031C73.3408 124.999 73.389 124.979 73.4401 124.971C73.8801 124.891 74.1601 125.411 74.2201 125.701C74.219 125.905 74.1644 126.106 74.0618 126.283C73.9591 126.459 73.8119 126.606 73.6349 126.708C73.4579 126.81 73.2573 126.864 73.0529 126.865C72.8485 126.865 72.6476 126.812 72.4701 126.711Z" fill="white"/>
<path d="M69.73 127.471C69.6503 127.481 69.5697 127.481 69.49 127.471C69.3002 127.447 69.1226 127.365 68.9812 127.236C68.8398 127.107 68.7416 126.938 68.7 126.751L68.6 126.831C68.464 126.947 68.3008 127.026 68.1259 127.061C67.9509 127.096 67.7699 127.085 67.6 127.031C67.3674 126.953 67.1561 126.822 66.9827 126.648C66.8092 126.475 66.6782 126.264 66.6 126.031C66.5683 125.967 66.5518 125.897 66.5518 125.826C66.5518 125.755 66.5683 125.685 66.6 125.621C66.7645 125.062 66.9962 124.525 67.29 124.021L67.37 123.891C67.5679 123.488 67.8678 123.143 68.24 122.891C68.3533 122.819 68.4824 122.774 68.6164 122.762C68.7504 122.75 68.8854 122.77 69.01 122.821C69.2459 122.943 69.4304 123.145 69.53 123.391C69.6387 123.257 69.7752 123.148 69.93 123.071C70.069 123.012 70.2187 122.981 70.37 122.981C70.5212 122.981 70.6709 123.012 70.81 123.071C71.1443 123.182 71.428 123.409 71.61 123.711C71.7154 123.595 71.8366 123.494 71.97 123.411C72.0855 123.335 72.2177 123.288 72.3552 123.274C72.4927 123.261 72.6315 123.28 72.76 123.331C72.9488 123.431 73.112 123.574 73.2368 123.747C73.3617 123.92 73.4449 124.12 73.48 124.331C73.4904 124.454 73.4904 124.578 73.48 124.701C73.5943 124.71 73.7056 124.742 73.807 124.795C73.9085 124.848 73.998 124.922 74.07 125.011C74.2184 125.194 74.3212 125.41 74.37 125.641C74.4135 125.88 74.3866 126.126 74.2924 126.35C74.1983 126.574 74.0411 126.765 73.84 126.901C73.6075 127.07 73.3315 127.17 73.0445 127.187C72.7576 127.205 72.4715 127.14 72.22 127.001C72.0335 127.172 71.7926 127.271 71.54 127.281C71.3935 127.285 71.2483 127.252 71.1187 127.183C70.989 127.115 70.8792 127.014 70.8 126.891C70.5296 127.213 70.1472 127.42 69.73 127.471ZM69.24 125.381L69.17 126.171C69.11 126.781 69.35 126.911 69.58 126.951C70.07 127.051 70.49 126.631 70.75 126.271L71.02 125.911L71.19 126.321C71.34 126.561 71.47 126.721 71.67 126.721C71.8783 126.679 72.0656 126.566 72.2 126.401L72.54 126.041L72.63 126.511C72.7954 126.6 72.9826 126.641 73.17 126.628C73.3575 126.616 73.5377 126.551 73.69 126.441C73.8125 126.357 73.9087 126.241 73.9671 126.104C74.0256 125.968 74.0439 125.818 74.02 125.671C73.9879 125.528 73.9228 125.395 73.83 125.281C73.69 125.111 73.57 125.131 73.53 125.141H73.47L73.02 125.401L73.1 124.881C73.1355 124.71 73.1355 124.533 73.1 124.361C73.0766 124.236 73.0272 124.117 72.9548 124.011C72.8825 123.906 72.7888 123.818 72.68 123.751C72.628 123.722 72.5695 123.707 72.51 123.707C72.4505 123.707 72.392 123.722 72.34 123.751C72.1417 123.881 71.9772 124.055 71.86 124.261L71.54 124.781L71.4 124.181C71.3622 124.013 71.2816 123.857 71.166 123.729C71.0503 123.601 70.9036 123.506 70.74 123.451C70.5827 123.388 70.4072 123.388 70.25 123.451C70.1444 123.517 70.053 123.603 69.9809 123.704C69.9088 123.805 69.8575 123.92 69.83 124.041L69.53 124.841L69.35 124.011C69.3149 123.699 69.1609 123.412 68.92 123.211C68.92 123.211 68.79 123.151 68.59 123.211C68.3 123.429 68.0667 123.714 67.91 124.041L67.83 124.181C67.554 124.64 67.342 125.135 67.2 125.651V125.751L67.13 125.821C67.2684 126.092 67.4989 126.305 67.78 126.421C67.8731 126.445 67.9705 126.447 68.0643 126.426C68.1582 126.405 68.2458 126.362 68.32 126.301C68.4777 126.18 68.6219 126.043 68.75 125.891L69.24 125.381Z" fill="black"/>
<path d="M34.8299 225.661C34.8299 225.661 32.3399 229.221 34.1199 232.011C34.1199 232.011 47.1199 232.621 50.9899 232.011C50.9899 232.011 51.0899 227.241 47.7299 226.831C44.3699 226.421 40.0799 226.241 40.0799 226.241C39.2891 226.814 38.3134 227.072 37.3429 226.965C36.3724 226.857 35.4765 226.393 34.8299 225.661Z" fill="black"/>
<path d="M107.14 88.8106C106.34 88.7406 104.72 89.9406 104.04 90.4606C102.543 91.5345 101.417 93.0478 100.82 94.7906C100.7 94.7106 100.57 94.6406 100.44 94.5706C100.529 94.3134 100.643 94.0656 100.78 93.8306C101.11 93.2506 100.33 92.5406 99.8399 93.0706C99.5853 93.2892 99.3843 93.5634 99.2526 93.872C99.1208 94.1807 99.0617 94.5155 99.0799 94.8506C99.4551 96.5816 99.9667 98.2802 100.61 99.9306C100.83 100.221 101.87 98.9306 102.11 98.7606C102.559 99.0047 103.074 99.0993 103.58 99.0306C104.423 98.8736 105.18 98.415 105.71 97.7406C107.14 96.5106 106.53 95.1606 106.13 95.4406C106.8 94.6206 106.51 93.5906 106 93.7306C106.42 92.9206 105.61 91.3506 104.56 92.2906C105.271 91.3518 106.17 90.5718 107.2 90.0006C107.9 89.6506 107.83 88.8706 107.14 88.8106Z" fill="white"/>
<path d="M100.7 100.221C100.65 100.221 100.6 100.209 100.555 100.186C100.51 100.164 100.471 100.131 100.44 100.091C99.9301 99.4312 98.8601 94.9212 98.8501 94.8812C98.8252 94.5064 98.8871 94.131 99.0311 93.7841C99.1751 93.4372 99.3972 93.1282 99.6801 92.8812C99.8085 92.729 99.9914 92.6333 100.19 92.6146C100.388 92.5959 100.586 92.6557 100.74 92.7812C100.844 92.856 100.932 92.9514 100.997 93.0615C101.062 93.1717 101.104 93.2941 101.12 93.4212C101.819 92.1791 102.77 91.0961 103.91 90.2412C105.47 89.0412 106.55 88.4912 107.18 88.5412C107.358 88.5455 107.529 88.6088 107.666 88.7211C107.804 88.8333 107.9 88.9882 107.94 89.1612C107.971 89.3793 107.929 89.6014 107.82 89.7931C107.712 89.9848 107.543 90.1353 107.34 90.2212C106.61 90.6346 105.938 91.1423 105.34 91.7312C105.517 91.7543 105.683 91.8271 105.82 91.9412C106.037 92.1326 106.199 92.3772 106.292 92.6508C106.385 92.9244 106.405 93.2175 106.35 93.5012C106.462 93.5526 106.556 93.6362 106.62 93.7412C106.741 93.975 106.799 94.2362 106.788 94.4991C106.778 94.7621 106.699 95.0178 106.56 95.2412C106.604 95.2738 106.641 95.3146 106.67 95.3612C107.03 95.8312 107.03 96.9412 105.89 97.9112C105.331 98.6201 104.53 99.0973 103.64 99.2512C103.143 99.3303 102.634 99.2571 102.18 99.0412C102.12 99.0412 102.06 99.1612 101.98 99.2412C101.33 99.9212 101 100.221 100.7 100.221ZM100.24 93.1312C100.199 93.1324 100.159 93.1429 100.122 93.1619C100.086 93.181 100.054 93.2081 100.03 93.2412C99.7974 93.431 99.6128 93.673 99.4912 93.9475C99.3696 94.222 99.3144 94.5214 99.3301 94.8212C99.6999 96.4773 100.178 98.1074 100.76 99.7012C101.059 99.4629 101.34 99.2021 101.6 98.9212C101.712 98.7935 101.832 98.6732 101.96 98.5612L102.09 98.4612L102.23 98.5412C102.628 98.7633 103.089 98.8477 103.54 98.7812C104.28 98.6612 104.6 98.4612 105.54 97.5612C105.801 97.3856 106.013 97.1467 106.156 96.8669C106.3 96.5871 106.37 96.2755 106.36 95.9612C106.36 95.7612 106.26 95.6612 106.23 95.6512L104.81 96.6512L105.94 95.3212C106.111 95.1524 106.225 94.9351 106.268 94.699C106.311 94.4629 106.28 94.2193 106.18 94.0012C106.13 93.9112 106.08 93.9212 106.06 93.9312L105.52 94.0712L105.78 93.5712C105.864 93.3563 105.881 93.1213 105.829 92.8966C105.777 92.6719 105.659 92.468 105.49 92.3112C105.26 92.1412 105.01 92.1812 104.72 92.4312L103.54 93.4312L104.34 92.0712C105.081 91.1043 106.014 90.3009 107.08 89.7112C107.37 89.5612 107.46 89.3412 107.43 89.1912C107.4 89.0412 107.29 88.9912 107.12 88.9712C106.85 88.9712 106.12 89.1212 104.19 90.5712C102.742 91.6183 101.65 93.0841 101.06 94.7712L101 95.2012L100.71 95.0012C100.599 94.9218 100.482 94.8516 100.36 94.7912L100.17 94.6912L100.23 94.4912C100.326 94.2209 100.447 93.9598 100.59 93.7112C100.634 93.6249 100.645 93.5256 100.621 93.4318C100.597 93.338 100.54 93.2561 100.46 93.2012C100.396 93.1544 100.319 93.1298 100.24 93.1312Z" fill="black"/>
<path d="M100.61 99.3413C100.615 99.8271 100.495 100.306 100.26 100.731C99.8401 101.731 104.26 100.931 104.37 99.8413C104.48 98.7513 104.61 98.3713 105 98.0413C105.39 97.7113 102.34 97.1513 101.87 97.7613C101.4 98.3713 100.61 99.3413 100.61 99.3413Z" fill="white"/>
<path d="M115.174 52.3569L114.848 221.977L209.798 222.159L210.124 52.5392L115.174 52.3569Z" fill="white"/>
<path d="M115.42 52.5908L209.87 52.7808L209.55 221.911L115.1 221.721L115.42 52.5908ZM114.92 52.0908L114.6 222.221L210.05 222.411L210.37 52.2808L114.92 52.0908Z" fill="black"/>
<path d="M207.08 45.7812L151.89 46.0912V53.2612L179.89 53.3212L199.81 53.4312C203.021 53.4524 206.093 54.7449 208.353 57.0258C210.613 59.3067 211.878 62.3901 211.87 65.6012L211.62 204.191C211.609 207.414 210.321 210.5 208.038 212.774C205.754 215.048 202.662 216.324 199.44 216.321L151.57 216.421V231.421L206.75 231.941C208.346 231.945 209.928 231.634 211.404 231.027C212.88 230.419 214.222 229.527 215.353 228.4C216.485 227.274 217.383 225.935 217.996 224.462C218.61 222.988 218.927 221.408 218.93 219.811L219.21 58.0012C219.219 56.4015 218.912 54.8157 218.307 53.3348C217.702 51.8539 216.81 50.5071 215.683 49.3717C214.556 48.2363 213.216 47.3347 211.74 46.7185C210.263 46.1024 208.68 45.7839 207.08 45.7812Z" fill="black"/>
<path d="M202.94 45.7314C202.66 45.7314 202.38 45.7314 202.1 45.7314H117.24C115.15 45.7314 113.146 46.5617 111.668 48.0394C110.19 49.5172 109.36 51.5215 109.36 53.6114V224.071C109.36 225.105 109.563 226.128 109.959 227.083C110.354 228.038 110.934 228.906 111.665 229.636C112.396 230.367 113.263 230.947 114.218 231.342C115.173 231.738 116.196 231.941 117.23 231.941H202.09C202.37 231.941 202.65 231.941 202.92 231.941C205.995 231.733 208.875 230.365 210.979 228.113C213.083 225.861 214.252 222.893 214.25 219.811V57.9214C214.265 54.8332 213.105 51.855 211.004 49.5911C208.904 47.3272 206.021 45.9473 202.94 45.7314ZM206.94 208.381C206.94 209.416 206.736 210.44 206.34 211.395C205.944 212.351 205.363 213.219 204.631 213.95C203.899 214.681 203.031 215.26 202.075 215.655C201.119 216.05 200.094 216.253 199.06 216.251H124.52C123.486 216.251 122.463 216.048 121.508 215.652C120.553 215.257 119.686 214.677 118.955 213.946C118.224 213.216 117.644 212.348 117.249 211.393C116.853 210.438 116.65 209.415 116.65 208.381V61.2414C116.649 60.2071 116.851 59.1826 117.246 58.2267C117.641 57.2707 118.22 56.4019 118.951 55.6701C119.682 54.9382 120.55 54.3576 121.506 53.9615C122.461 53.5653 123.486 53.3614 124.52 53.3614H199.03C200.064 53.3601 201.089 53.5627 202.045 53.9576C203.001 54.3526 203.869 54.932 204.601 55.663C205.333 56.3939 205.914 57.2619 206.31 58.2174C206.706 59.1729 206.91 60.1971 206.91 61.2314L206.94 208.381Z" fill="#AAB6C2"/>
<path d="M171.74 227.731H151.51C151.027 227.731 150.549 227.635 150.103 227.45C149.657 227.265 149.252 226.994 148.911 226.652C148.57 226.31 148.3 225.905 148.116 225.458C147.933 225.012 147.839 224.533 147.84 224.051C147.841 223.569 147.937 223.092 148.123 222.647C148.309 222.202 148.58 221.798 148.922 221.458C149.264 221.119 149.669 220.849 150.115 220.666C150.56 220.483 151.038 220.389 151.52 220.391H171.75C172.233 220.391 172.711 220.486 173.157 220.671C173.603 220.856 174.008 221.127 174.348 221.469C174.689 221.811 174.96 222.217 175.143 222.663C175.327 223.11 175.421 223.588 175.42 224.071C175.419 224.553 175.322 225.03 175.137 225.474C174.951 225.919 174.68 226.323 174.338 226.663C173.996 227.003 173.591 227.272 173.145 227.455C172.699 227.638 172.222 227.732 171.74 227.731Z" fill="black"/>
<path d="M206.94 64.0014H116.65V56.3214C116.65 55.4913 116.98 54.6952 117.567 54.1082C118.154 53.5212 118.95 53.1914 119.78 53.1914H203.78C204.611 53.1914 205.408 53.5209 205.997 54.1076C206.585 54.6943 206.917 55.4904 206.92 56.3214L206.94 64.0014Z" fill="black"/>
<path d="M133.91 58.5809C133.91 58.2521 134.008 57.9308 134.191 57.6576C134.373 57.3844 134.633 57.1716 134.937 57.0463C135.241 56.921 135.575 56.8887 135.898 56.9535C136.22 57.0184 136.516 57.1775 136.748 57.4107C136.979 57.6438 137.137 57.9405 137.199 58.2632C137.262 58.5859 137.228 58.9199 137.101 59.2231C136.974 59.5262 136.759 59.7848 136.485 59.966C136.211 60.1472 135.889 60.2429 135.56 60.2409C135.343 60.2409 135.127 60.1979 134.926 60.1143C134.726 60.0308 134.543 59.9083 134.39 59.7541C134.237 59.5998 134.115 59.4167 134.033 59.2154C133.951 59.014 133.909 58.7984 133.91 58.5809Z" fill="white"/>
<path d="M127.53 58.5809C127.53 58.2526 127.627 57.9316 127.81 57.6587C127.992 57.3857 128.251 57.1729 128.555 57.0473C128.858 56.9216 129.192 56.8887 129.514 56.9528C129.836 57.0168 130.131 57.1749 130.364 57.4071C130.596 57.6393 130.754 57.935 130.818 58.257C130.882 58.5791 130.849 58.9128 130.723 59.2162C130.598 59.5195 130.385 59.7787 130.112 59.9611C129.839 60.1435 129.518 60.2409 129.19 60.2409C128.971 60.2422 128.755 60.2002 128.553 60.1172C128.351 60.0343 128.167 59.9121 128.013 59.7577C127.859 59.6032 127.736 59.4197 127.653 59.2177C127.571 59.0157 127.528 58.7993 127.53 58.5809Z" fill="#AAB6C2"/>
<path d="M121.16 58.5809C121.16 58.2521 121.258 57.9308 121.441 57.6576C121.623 57.3844 121.883 57.1716 122.187 57.0463C122.491 56.921 122.825 56.8887 123.148 56.9535C123.47 57.0184 123.766 57.1775 123.998 57.4107C124.229 57.6438 124.387 57.9405 124.449 58.2632C124.512 58.5859 124.478 58.9199 124.351 59.2231C124.224 59.5262 124.009 59.7848 123.735 59.966C123.461 60.1472 123.139 60.2429 122.81 60.2409C122.593 60.2409 122.377 60.1979 122.176 60.1143C121.976 60.0308 121.793 59.9083 121.64 59.7541C121.487 59.5998 121.365 59.4167 121.283 59.2154C121.201 59.014 121.159 58.7984 121.16 58.5809Z" fill="#3CBCC3"/>
<path d="M199.04 57.3708L199.86 56.5508L201.03 57.7208L202.2 56.5508L203.02 57.3708L201.85 58.5408L203.02 59.7208L202.2 60.5308L201.03 59.3608L199.86 60.5308L199.04 59.7208L200.21 58.5408L199.04 57.3708Z" fill="white"/>
<path d="M192 65.001H238.44C236.95 55.641 227.44 51.881 220.44 52.351C219.879 45.7517 216.932 39.5832 212.15 35.001C204.25 27.651 191.96 27.001 183.69 33.891C183.508 34.0767 183.28 34.2112 183.03 34.281C180.74 21.501 165.13 14.001 154.16 14.001C136.93 14.001 125.57 28.761 125.77 47.401C110.35 39.311 98.9998 52.141 98.5698 65.001H175.46V78.651H168.68L183.75 96.351L198.81 78.651H192V65.001Z" fill="black"/>
<path d="M177.1 96.3512H183.74L185.01 88.9912L173.71 85.0312L177.1 96.3512Z" fill="black"/>
<path d="M185.39 65.001H229C227.51 55.641 218 51.881 211 52.351C210.438 45.7522 207.49 39.5843 202.71 35.001C194.81 27.651 182.52 27.001 174.26 33.891C174.076 34.0745 173.849 34.2087 173.6 34.281C171.31 21.501 155.69 14.001 144.72 14.001C127.5 14.001 116.14 28.761 116.34 47.401C100.92 39.311 89.5499 52.141 89.1299 65.001H168.83V78.651H162.05L177.11 96.351L192.17 78.651H185.39V65.001Z" fill="#3CBCC3"/>
<path d="M155.95 70.1305V53.7105H162.73L147.67 36.0205L132.6 53.7105H139.39V70.1305H155.95Z" fill="black"/>
<path d="M142.31 36.0205H147.67L148.67 45.3205L141.86 47.6505L142.31 36.0205Z" fill="black"/>
<path d="M134.21 69.951V53.541H127.63L142.31 36.291L157 53.541H150.42V69.951H134.21Z" fill="white"/>
<path d="M142.32 36.561L156.62 53.361H150.25V69.771H134.39V53.361H128L142.3 36.561H142.32ZM142.32 36.021L127.26 53.711H134V70.121H150.6V53.711H157.38L142.32 36.001V36.021Z" fill="black"/>
<path d="M163.38 65.0312H155.95V70.1213H163.38V65.0312Z" fill="black"/>
<path d="M130 203.241C130 203.658 130.154 204.06 130.433 204.37C130.712 204.68 131.095 204.876 131.51 204.921H193.24C193.688 204.921 194.118 204.743 194.435 204.426C194.752 204.109 194.93 203.679 194.93 203.231V197.111C194.93 196.663 194.752 196.233 194.435 195.916C194.118 195.599 193.688 195.421 193.24 195.421H131.71H131.37C130.989 195.501 130.647 195.71 130.401 196.012C130.155 196.314 130.021 196.691 130.02 197.081L130 203.241Z" fill="#AAB6C2"/>
<path d="M130 192.311C129.998 192.729 130.151 193.133 130.431 193.443C130.71 193.754 131.095 193.949 131.51 193.991H193.24C193.462 193.993 193.683 193.95 193.888 193.865C194.094 193.781 194.281 193.657 194.438 193.499C194.595 193.342 194.72 193.155 194.804 192.95C194.889 192.744 194.931 192.524 194.93 192.301V186.201C194.93 185.753 194.752 185.323 194.435 185.006C194.118 184.689 193.688 184.511 193.24 184.511H131.71C131.597 184.496 131.483 184.496 131.37 184.511C130.99 184.59 130.648 184.796 130.402 185.097C130.156 185.397 130.021 185.773 130.02 186.161L130 192.311Z" fill="#AAB6C2"/>
<path d="M130 181.391C130.002 181.808 130.157 182.209 130.436 182.518C130.714 182.828 131.096 183.025 131.51 183.071H193.24C193.688 183.071 194.118 182.893 194.435 182.576C194.752 182.259 194.93 181.829 194.93 181.381V175.261C194.93 174.813 194.752 174.383 194.435 174.066C194.118 173.749 193.688 173.571 193.24 173.571H131.71C131.597 173.561 131.483 173.561 131.37 173.571C130.99 173.649 130.648 173.856 130.402 174.157C130.156 174.457 130.021 174.833 130.02 175.221L130 181.391Z" fill="#AAB6C2"/>
<path d="M130 170.461C130 170.878 130.154 171.28 130.433 171.59C130.712 171.901 131.095 172.097 131.51 172.141H193.24C193.462 172.142 193.683 172.1 193.888 172.015C194.094 171.931 194.281 171.806 194.438 171.649C194.595 171.492 194.72 171.305 194.804 171.099C194.889 170.894 194.931 170.673 194.93 170.451V164.331C194.93 164.11 194.886 163.89 194.801 163.686C194.716 163.481 194.591 163.296 194.434 163.14C194.277 162.983 194.091 162.86 193.886 162.776C193.681 162.692 193.461 162.65 193.24 162.651H131.71C131.597 162.636 131.483 162.636 131.37 162.651C130.989 162.727 130.646 162.934 130.4 163.235C130.154 163.535 130.019 163.912 130.02 164.301L130 170.461Z" fill="#AAB6C2"/>
<path d="M130 159.541C130.002 159.958 130.157 160.359 130.436 160.668C130.714 160.978 131.096 161.175 131.51 161.221H193.24C193.462 161.223 193.683 161.18 193.888 161.095C194.094 161.011 194.281 160.887 194.438 160.729C194.595 160.572 194.72 160.385 194.804 160.18C194.889 159.974 194.931 159.754 194.93 159.531V153.421C194.93 152.973 194.752 152.543 194.435 152.226C194.118 151.909 193.688 151.731 193.24 151.731H131.71C131.597 151.721 131.483 151.721 131.37 151.731C130.99 151.81 130.648 152.016 130.402 152.317C130.156 152.617 130.021 152.993 130.02 153.381L130 159.541Z" fill="#AAB6C2"/>
<path d="M130 148.611C130 149.028 130.154 149.43 130.433 149.74C130.712 150.05 131.095 150.246 131.51 150.291H193.24C193.688 150.291 194.118 150.113 194.435 149.796C194.752 149.479 194.93 149.049 194.93 148.601V142.481C194.93 142.259 194.886 142.04 194.801 141.835C194.716 141.631 194.591 141.445 194.434 141.289C194.277 141.133 194.091 141.01 193.886 140.926C193.681 140.842 193.461 140.799 193.24 140.801H131.71C131.597 140.79 131.483 140.79 131.37 140.801C130.989 140.881 130.647 141.09 130.401 141.392C130.155 141.694 130.021 142.071 130.02 142.461L130 148.611Z" fill="#AAB6C2"/>
<path d="M187.13 146.311H155.94C155.734 146.333 155.544 146.431 155.406 146.585C155.268 146.739 155.191 146.939 155.191 147.146C155.191 147.353 155.268 147.552 155.406 147.706C155.544 147.86 155.734 147.958 155.94 147.981H187.13C187.247 147.994 187.366 147.982 187.478 147.945C187.591 147.909 187.694 147.85 187.782 147.771C187.87 147.692 187.94 147.596 187.988 147.488C188.037 147.38 188.061 147.264 188.061 147.146C188.061 147.028 188.037 146.911 187.988 146.803C187.94 146.695 187.87 146.599 187.782 146.52C187.694 146.441 187.591 146.382 187.478 146.346C187.366 146.31 187.247 146.298 187.13 146.311Z" fill="white"/>
<path d="M187.13 143.121H160.67C160.45 143.121 160.239 143.208 160.083 143.364C159.927 143.519 159.84 143.731 159.84 143.951C159.84 144.172 159.927 144.384 160.082 144.541C160.238 144.698 160.449 144.788 160.67 144.791H187.13C187.349 144.796 187.561 144.717 187.723 144.57C187.885 144.423 187.984 144.219 188 144.001C188.005 143.884 187.987 143.768 187.945 143.66C187.904 143.551 187.84 143.452 187.758 143.37C187.676 143.287 187.578 143.222 187.47 143.179C187.362 143.136 187.246 143.116 187.13 143.121Z" fill="white"/>
<path d="M137.89 144.331C137.611 144.329 137.337 144.41 137.104 144.564C136.871 144.718 136.689 144.937 136.58 145.195C136.472 145.452 136.443 145.736 136.496 146.01C136.549 146.284 136.683 146.536 136.88 146.735C137.076 146.933 137.328 147.068 137.601 147.123C137.875 147.178 138.159 147.151 138.417 147.045C138.676 146.938 138.896 146.758 139.052 146.525C139.207 146.293 139.29 146.02 139.29 145.741C139.29 145.369 139.143 145.012 138.881 144.748C138.619 144.483 138.262 144.334 137.89 144.331Z" fill="white"/>
<path d="M137.89 144.101C137.566 144.101 137.249 144.197 136.979 144.377C136.709 144.557 136.499 144.813 136.375 145.113C136.251 145.413 136.218 145.742 136.282 146.061C136.345 146.379 136.501 146.671 136.73 146.9C136.96 147.13 137.252 147.286 137.57 147.349C137.888 147.412 138.218 147.38 138.518 147.256C138.817 147.132 139.073 146.921 139.254 146.652C139.434 146.382 139.53 146.065 139.53 145.741C139.53 145.306 139.357 144.888 139.05 144.581C138.742 144.273 138.325 144.101 137.89 144.101ZM137.89 146.911C137.658 146.913 137.431 146.846 137.237 146.718C137.044 146.591 136.892 146.409 136.802 146.195C136.712 145.982 136.687 145.746 136.731 145.519C136.775 145.291 136.886 145.081 137.049 144.917C137.212 144.752 137.421 144.64 137.648 144.594C137.875 144.548 138.111 144.57 138.325 144.659C138.54 144.747 138.723 144.897 138.852 145.09C138.981 145.282 139.05 145.509 139.05 145.741C139.05 146.049 138.928 146.345 138.711 146.564C138.494 146.784 138.199 146.908 137.89 146.911Z" fill="#AAB6C2"/>
<path d="M143 144.101C142.676 144.101 142.358 144.197 142.089 144.377C141.819 144.557 141.609 144.813 141.485 145.113C141.361 145.413 141.328 145.742 141.391 146.061C141.455 146.379 141.611 146.671 141.84 146.9C142.07 147.13 142.362 147.286 142.68 147.349C142.998 147.412 143.328 147.38 143.627 147.256C143.927 147.132 144.183 146.921 144.363 146.652C144.544 146.382 144.64 146.065 144.64 145.741C144.641 145.525 144.6 145.311 144.518 145.111C144.436 144.912 144.315 144.731 144.162 144.578C144.01 144.425 143.829 144.305 143.629 144.223C143.429 144.141 143.216 144.099 143 144.101ZM143 146.911C142.768 146.911 142.542 146.842 142.35 146.713C142.157 146.585 142.007 146.402 141.919 146.188C141.83 145.975 141.807 145.739 141.852 145.512C141.897 145.285 142.009 145.077 142.173 144.913C142.336 144.75 142.545 144.638 142.772 144.593C142.999 144.548 143.234 144.571 143.448 144.66C143.661 144.748 143.844 144.898 143.973 145.091C144.101 145.283 144.17 145.509 144.17 145.741C144.17 146.051 144.047 146.349 143.827 146.568C143.608 146.787 143.31 146.911 143 146.911Z" fill="#AAB6C2"/>
<path d="M147.31 145.261H144.35V146.211H147.31V145.261Z" fill="#AAB6C2"/>
<path d="M187.13 157.181H155.94C155.719 157.184 155.508 157.273 155.352 157.43C155.197 157.588 155.11 157.8 155.11 158.021C155.11 158.13 155.131 158.238 155.173 158.339C155.215 158.439 155.276 158.531 155.353 158.608C155.43 158.685 155.522 158.746 155.622 158.788C155.723 158.829 155.831 158.851 155.94 158.851H187.13C187.244 158.855 187.357 158.836 187.463 158.795C187.569 158.754 187.666 158.692 187.747 158.612C187.828 158.533 187.893 158.438 187.936 158.333C187.98 158.227 188.001 158.115 188 158.001C187.992 157.777 187.896 157.566 187.733 157.412C187.57 157.259 187.354 157.176 187.13 157.181Z" fill="white"/>
<path d="M187.13 154.001H160.67C160.449 154.004 160.238 154.093 160.082 154.251C159.927 154.408 159.84 154.62 159.84 154.841C159.84 155.061 159.927 155.272 160.083 155.428C160.239 155.584 160.45 155.671 160.67 155.671H187.13C187.351 155.671 187.563 155.584 187.72 155.428C187.878 155.273 187.967 155.062 187.97 154.841C187.967 154.619 187.878 154.407 187.721 154.25C187.564 154.093 187.352 154.004 187.13 154.001Z" fill="white"/>
<path d="M137.89 155.211C137.61 155.209 137.336 155.29 137.103 155.444C136.87 155.599 136.687 155.819 136.579 156.077C136.472 156.335 136.443 156.619 136.497 156.894C136.551 157.168 136.685 157.42 136.883 157.618C137.081 157.816 137.333 157.95 137.608 158.004C137.882 158.058 138.166 158.03 138.424 157.922C138.682 157.814 138.903 157.631 139.057 157.398C139.211 157.165 139.292 156.891 139.29 156.611C139.288 156.24 139.139 155.886 138.877 155.624C138.615 155.362 138.261 155.214 137.89 155.211Z" fill="white"/>
<path d="M137.89 155.001C137.563 154.999 137.242 155.094 136.97 155.275C136.697 155.455 136.484 155.713 136.357 156.015C136.231 156.317 136.198 156.649 136.261 156.97C136.325 157.291 136.482 157.586 136.713 157.818C136.945 158.049 137.24 158.206 137.561 158.27C137.882 158.333 138.214 158.3 138.516 158.173C138.818 158.047 139.076 157.834 139.256 157.561C139.437 157.289 139.532 156.968 139.53 156.641C139.527 156.207 139.354 155.791 139.047 155.484C138.74 155.177 138.324 155.004 137.89 155.001ZM137.89 157.811C137.658 157.813 137.431 157.746 137.237 157.619C137.044 157.491 136.892 157.309 136.802 157.096C136.712 156.882 136.687 156.647 136.731 156.419C136.775 156.191 136.886 155.982 137.049 155.817C137.212 155.653 137.421 155.54 137.648 155.494C137.875 155.448 138.111 155.471 138.325 155.559C138.54 155.647 138.723 155.797 138.852 155.99C138.981 156.183 139.05 156.409 139.05 156.641C139.042 156.944 138.917 157.233 138.7 157.446C138.484 157.658 138.193 157.779 137.89 157.781V157.811Z" fill="#AAB6C2"/>
<path d="M143 155.001C142.673 154.999 142.352 155.094 142.079 155.275C141.807 155.455 141.593 155.713 141.467 156.015C141.341 156.317 141.308 156.649 141.371 156.97C141.434 157.291 141.592 157.586 141.823 157.818C142.054 158.049 142.349 158.206 142.67 158.27C142.991 158.333 143.324 158.3 143.626 158.173C143.928 158.047 144.185 157.834 144.366 157.561C144.546 157.289 144.642 156.968 144.64 156.641C144.64 156.206 144.467 155.789 144.159 155.481C143.852 155.174 143.435 155.001 143 155.001ZM143 157.811C142.768 157.811 142.542 157.742 142.35 157.614C142.157 157.485 142.007 157.303 141.919 157.089C141.83 156.875 141.807 156.64 141.852 156.413C141.897 156.186 142.009 155.977 142.173 155.814C142.336 155.65 142.545 155.539 142.772 155.493C142.999 155.448 143.234 155.472 143.448 155.56C143.661 155.649 143.844 155.799 143.973 155.991C144.101 156.183 144.17 156.41 144.17 156.641C144.162 156.946 144.035 157.236 143.817 157.449C143.598 157.662 143.305 157.781 143 157.781V157.811Z" fill="#AAB6C2"/>
<path d="M147.31 156.141H144.35V157.091H147.31V156.141Z" fill="#AAB6C2"/>
<path d="M187.13 168.061H155.94C155.831 168.061 155.723 168.082 155.622 168.124C155.522 168.165 155.43 168.227 155.353 168.304C155.276 168.381 155.215 168.472 155.173 168.573C155.131 168.674 155.11 168.782 155.11 168.891C155.11 169.112 155.197 169.324 155.352 169.481C155.508 169.638 155.719 169.728 155.94 169.731H187.13C187.352 169.728 187.564 169.639 187.721 169.482C187.878 169.325 187.967 169.113 187.97 168.891C187.967 168.67 187.878 168.458 187.72 168.303C187.563 168.148 187.351 168.061 187.13 168.061Z" fill="white"/>
<path d="M187.13 164.871H160.67C160.561 164.871 160.453 164.893 160.352 164.934C160.252 164.976 160.16 165.037 160.083 165.114C160.006 165.191 159.945 165.283 159.903 165.383C159.861 165.484 159.84 165.592 159.84 165.701C159.84 165.922 159.927 166.134 160.082 166.292C160.238 166.449 160.449 166.538 160.67 166.541H187.13C187.352 166.538 187.564 166.449 187.721 166.292C187.878 166.135 187.967 165.923 187.97 165.701C187.967 165.48 187.878 165.269 187.72 165.114C187.563 164.958 187.351 164.871 187.13 164.871Z" fill="white"/>
<path d="M137.89 166.081C137.611 166.079 137.337 166.16 137.104 166.314C136.871 166.468 136.689 166.687 136.58 166.945C136.472 167.202 136.443 167.486 136.496 167.76C136.549 168.034 136.683 168.286 136.88 168.485C137.076 168.683 137.328 168.818 137.601 168.873C137.875 168.928 138.159 168.901 138.417 168.795C138.676 168.688 138.896 168.508 139.052 168.275C139.207 168.043 139.29 167.77 139.29 167.491C139.29 167.119 139.143 166.762 138.881 166.498C138.619 166.233 138.262 166.084 137.89 166.081Z" fill="white"/>
<path d="M137.89 165.851C137.566 165.851 137.249 165.947 136.979 166.127C136.709 166.307 136.499 166.563 136.375 166.863C136.251 167.163 136.218 167.492 136.282 167.811C136.345 168.129 136.501 168.421 136.73 168.65C136.96 168.88 137.252 169.036 137.57 169.099C137.888 169.162 138.218 169.13 138.518 169.006C138.817 168.882 139.073 168.671 139.254 168.402C139.434 168.132 139.53 167.815 139.53 167.491C139.53 167.056 139.357 166.638 139.05 166.331C138.742 166.023 138.325 165.851 137.89 165.851ZM137.89 168.661C137.658 168.663 137.431 168.596 137.237 168.468C137.044 168.341 136.892 168.159 136.802 167.945C136.712 167.732 136.687 167.496 136.731 167.269C136.775 167.041 136.886 166.831 137.049 166.667C137.212 166.502 137.421 166.39 137.648 166.344C137.875 166.298 138.111 166.32 138.325 166.409C138.54 166.497 138.723 166.647 138.852 166.84C138.981 167.032 139.05 167.259 139.05 167.491C139.05 167.799 138.928 168.095 138.711 168.314C138.494 168.534 138.199 168.658 137.89 168.661Z" fill="#AAB6C2"/>
<path d="M143 165.851C142.676 165.851 142.358 165.947 142.089 166.127C141.819 166.307 141.609 166.563 141.485 166.863C141.361 167.163 141.328 167.492 141.391 167.811C141.455 168.129 141.611 168.421 141.84 168.65C142.07 168.88 142.362 169.036 142.68 169.099C142.998 169.162 143.328 169.13 143.627 169.006C143.927 168.882 144.183 168.671 144.363 168.402C144.544 168.132 144.64 167.815 144.64 167.491C144.641 167.275 144.6 167.061 144.518 166.861C144.436 166.662 144.315 166.481 144.162 166.328C144.01 166.175 143.829 166.055 143.629 165.973C143.429 165.891 143.216 165.849 143 165.851ZM143 168.661C142.768 168.661 142.542 168.592 142.35 168.463C142.157 168.335 142.007 168.152 141.919 167.938C141.83 167.725 141.807 167.489 141.852 167.262C141.897 167.035 142.009 166.827 142.173 166.663C142.336 166.5 142.545 166.388 142.772 166.343C142.999 166.298 143.234 166.321 143.448 166.41C143.661 166.498 143.844 166.648 143.973 166.841C144.101 167.033 144.17 167.259 144.17 167.491C144.17 167.801 144.047 168.099 143.827 168.318C143.608 168.537 143.31 168.661 143 168.661Z" fill="#AAB6C2"/>
<path d="M147.31 167.011H144.35V167.961H147.31V167.011Z" fill="#AAB6C2"/>
<path d="M187.13 178.931H155.94C155.719 178.933 155.508 179.023 155.352 179.18C155.197 179.337 155.11 179.55 155.11 179.771C155.11 179.88 155.131 179.988 155.173 180.088C155.215 180.189 155.276 180.281 155.353 180.358C155.43 180.435 155.522 180.496 155.622 180.537C155.723 180.579 155.831 180.601 155.94 180.601H187.13C187.351 180.601 187.563 180.514 187.72 180.358C187.878 180.203 187.967 179.992 187.97 179.771C187.967 179.549 187.878 179.337 187.721 179.18C187.564 179.023 187.352 178.933 187.13 178.931Z" fill="white"/>
<path d="M187.13 175.741H160.67C160.449 175.744 160.238 175.833 160.082 175.991C159.927 176.148 159.84 176.36 159.84 176.581C159.84 176.69 159.861 176.798 159.903 176.899C159.945 177 160.006 177.091 160.083 177.168C160.16 177.245 160.252 177.306 160.352 177.348C160.453 177.39 160.561 177.411 160.67 177.411H187.13C187.351 177.411 187.563 177.324 187.72 177.169C187.878 177.013 187.967 176.802 187.97 176.581C187.967 176.359 187.878 176.147 187.721 175.99C187.564 175.833 187.352 175.744 187.13 175.741Z" fill="white"/>
<path d="M137.89 177.001C137.61 176.999 137.336 177.08 137.103 177.234C136.87 177.389 136.687 177.609 136.579 177.867C136.472 178.125 136.443 178.409 136.497 178.684C136.551 178.958 136.685 179.21 136.883 179.408C137.081 179.606 137.333 179.74 137.608 179.794C137.882 179.848 138.166 179.82 138.424 179.712C138.682 179.604 138.903 179.421 139.057 179.188C139.211 178.955 139.292 178.681 139.29 178.401C139.288 178.031 139.139 177.676 138.877 177.414C138.615 177.152 138.261 177.004 137.89 177.001Z" fill="white"/>
<path d="M137.89 176.721C137.563 176.719 137.242 176.814 136.97 176.995C136.697 177.175 136.484 177.433 136.357 177.735C136.231 178.037 136.198 178.369 136.261 178.69C136.325 179.011 136.482 179.306 136.713 179.537C136.945 179.769 137.24 179.926 137.561 179.989C137.882 180.053 138.214 180.019 138.516 179.893C138.818 179.767 139.076 179.554 139.256 179.281C139.437 179.008 139.532 178.688 139.53 178.361C139.527 177.927 139.354 177.511 139.047 177.204C138.74 176.897 138.324 176.723 137.89 176.721ZM137.89 179.531C137.658 179.533 137.431 179.466 137.237 179.338C137.044 179.211 136.892 179.029 136.802 178.815C136.712 178.602 136.687 178.366 136.731 178.139C136.775 177.911 136.886 177.702 137.049 177.537C137.212 177.372 137.421 177.26 137.648 177.214C137.875 177.168 138.111 177.191 138.325 177.279C138.54 177.367 138.723 177.517 138.852 177.71C138.981 177.902 139.05 178.129 139.05 178.361C139.05 178.669 138.928 178.965 138.711 179.185C138.494 179.404 138.199 179.528 137.89 179.531Z" fill="#AAB6C2"/>
<path d="M143 176.721C142.673 176.719 142.352 176.814 142.079 176.995C141.807 177.175 141.593 177.433 141.467 177.735C141.341 178.037 141.308 178.369 141.371 178.69C141.434 179.011 141.592 179.306 141.823 179.537C142.054 179.769 142.349 179.926 142.67 179.989C142.991 180.053 143.324 180.019 143.626 179.893C143.928 179.767 144.185 179.554 144.366 179.281C144.546 179.008 144.642 178.688 144.64 178.361C144.64 177.926 144.467 177.509 144.159 177.201C143.852 176.894 143.435 176.721 143 176.721ZM143 179.531C142.768 179.531 142.542 179.462 142.35 179.334C142.157 179.205 142.007 179.022 141.919 178.808C141.83 178.595 141.807 178.359 141.852 178.132C141.897 177.906 142.009 177.697 142.173 177.533C142.336 177.37 142.545 177.258 142.772 177.213C142.999 177.168 143.234 177.191 143.448 177.28C143.661 177.368 143.844 177.518 143.973 177.711C144.101 177.903 144.17 178.129 144.17 178.361C144.17 178.671 144.047 178.969 143.827 179.188C143.608 179.407 143.31 179.531 143 179.531Z" fill="#AAB6C2"/>
<path d="M147.31 177.891H144.35V178.841H147.31V177.891Z" fill="#AAB6C2"/>
<path d="M187.13 189.811H155.94C155.831 189.811 155.723 189.832 155.622 189.874C155.522 189.915 155.43 189.977 155.353 190.054C155.276 190.131 155.215 190.222 155.173 190.323C155.131 190.424 155.11 190.532 155.11 190.641C155.11 190.862 155.197 191.074 155.352 191.231C155.508 191.388 155.719 191.478 155.94 191.481H187.13C187.352 191.478 187.564 191.389 187.721 191.232C187.878 191.075 187.967 190.863 187.97 190.641C187.967 190.42 187.878 190.208 187.72 190.053C187.563 189.898 187.351 189.811 187.13 189.811Z" fill="white"/>
<path d="M187.13 186.621H160.67C160.45 186.621 160.239 186.709 160.083 186.864C159.927 187.02 159.84 187.231 159.84 187.451C159.84 187.672 159.927 187.884 160.082 188.042C160.238 188.199 160.449 188.288 160.67 188.291H187.13C187.352 188.288 187.564 188.199 187.721 188.042C187.878 187.885 187.967 187.673 187.97 187.451C187.967 187.23 187.878 187.019 187.72 186.864C187.563 186.708 187.351 186.621 187.13 186.621Z" fill="white"/>
<path d="M137.89 187.831C137.611 187.829 137.337 187.91 137.104 188.064C136.871 188.218 136.689 188.437 136.58 188.695C136.472 188.952 136.443 189.236 136.496 189.51C136.549 189.784 136.683 190.036 136.88 190.235C137.076 190.433 137.328 190.568 137.601 190.623C137.875 190.678 138.159 190.651 138.417 190.545C138.676 190.438 138.896 190.258 139.052 190.025C139.207 189.793 139.29 189.52 139.29 189.241C139.29 188.869 139.143 188.512 138.881 188.248C138.619 187.983 138.262 187.834 137.89 187.831Z" fill="white"/>
<path d="M137.89 187.601C137.566 187.601 137.249 187.697 136.979 187.877C136.709 188.057 136.499 188.313 136.375 188.613C136.251 188.913 136.218 189.242 136.282 189.561C136.345 189.879 136.501 190.171 136.73 190.4C136.96 190.63 137.252 190.786 137.57 190.849C137.888 190.912 138.218 190.88 138.518 190.756C138.817 190.632 139.073 190.421 139.254 190.152C139.434 189.882 139.53 189.565 139.53 189.241C139.53 188.806 139.357 188.388 139.05 188.081C138.742 187.773 138.325 187.601 137.89 187.601ZM137.89 190.411C137.658 190.413 137.431 190.346 137.237 190.218C137.044 190.091 136.892 189.909 136.802 189.695C136.712 189.482 136.687 189.246 136.731 189.019C136.775 188.791 136.886 188.581 137.049 188.417C137.212 188.252 137.421 188.14 137.648 188.094C137.875 188.048 138.111 188.07 138.325 188.159C138.54 188.247 138.723 188.397 138.852 188.59C138.981 188.782 139.05 189.009 139.05 189.241C139.05 189.549 138.928 189.845 138.711 190.064C138.494 190.284 138.199 190.408 137.89 190.411Z" fill="#AAB6C2"/>
<path d="M143 187.601C142.676 187.601 142.358 187.697 142.089 187.877C141.819 188.057 141.609 188.313 141.485 188.613C141.361 188.913 141.328 189.242 141.391 189.561C141.455 189.879 141.611 190.171 141.84 190.4C142.07 190.63 142.362 190.786 142.68 190.849C142.998 190.912 143.328 190.88 143.627 190.756C143.927 190.632 144.183 190.421 144.363 190.152C144.544 189.882 144.64 189.565 144.64 189.241C144.641 189.025 144.6 188.811 144.518 188.611C144.436 188.412 144.315 188.231 144.162 188.078C144.01 187.925 143.829 187.805 143.629 187.723C143.429 187.641 143.216 187.599 143 187.601ZM143 190.411C142.768 190.411 142.542 190.342 142.35 190.213C142.157 190.085 142.007 189.902 141.919 189.688C141.83 189.475 141.807 189.239 141.852 189.012C141.897 188.785 142.009 188.577 142.173 188.413C142.336 188.25 142.545 188.138 142.772 188.093C142.999 188.048 143.234 188.071 143.448 188.16C143.661 188.248 143.844 188.398 143.973 188.591C144.101 188.783 144.17 189.009 144.17 189.241C144.17 189.551 144.047 189.849 143.827 190.068C143.608 190.287 143.31 190.411 143 190.411Z" fill="#AAB6C2"/>
<path d="M147.31 188.761H144.35V189.711H147.31V188.761Z" fill="#AAB6C2"/>
<path d="M187.13 200.681H155.94C155.719 200.683 155.508 200.773 155.352 200.93C155.197 201.087 155.11 201.3 155.11 201.521C155.11 201.63 155.131 201.738 155.173 201.838C155.215 201.939 155.276 202.031 155.353 202.108C155.43 202.185 155.522 202.246 155.622 202.287C155.723 202.329 155.831 202.351 155.94 202.351H187.13C187.351 202.351 187.563 202.264 187.72 202.108C187.878 201.953 187.967 201.742 187.97 201.521C187.967 201.299 187.878 201.087 187.721 200.93C187.564 200.773 187.352 200.683 187.13 200.681Z" fill="white"/>
<path d="M187.13 197.491H160.67C160.449 197.494 160.238 197.583 160.082 197.741C159.927 197.898 159.84 198.11 159.84 198.331C159.84 198.551 159.927 198.762 160.083 198.918C160.239 199.074 160.45 199.161 160.67 199.161H187.13C187.351 199.161 187.563 199.074 187.72 198.919C187.878 198.763 187.967 198.552 187.97 198.331C187.967 198.109 187.878 197.897 187.721 197.74C187.564 197.583 187.352 197.494 187.13 197.491Z" fill="white"/>
<path d="M137.89 198.711C137.61 198.709 137.336 198.79 137.103 198.944C136.87 199.099 136.687 199.319 136.579 199.577C136.472 199.835 136.443 200.119 136.497 200.394C136.551 200.668 136.685 200.92 136.883 201.118C137.081 201.316 137.333 201.45 137.608 201.504C137.882 201.558 138.166 201.53 138.424 201.422C138.682 201.314 138.903 201.131 139.057 200.898C139.211 200.665 139.292 200.391 139.29 200.111C139.288 199.74 139.139 199.386 138.877 199.124C138.615 198.862 138.261 198.714 137.89 198.711Z" fill="white"/>
<path d="M137.89 198.471C137.563 198.469 137.242 198.564 136.97 198.745C136.697 198.925 136.484 199.183 136.357 199.485C136.231 199.787 136.198 200.119 136.261 200.44C136.325 200.761 136.482 201.056 136.713 201.287C136.945 201.519 137.24 201.676 137.561 201.739C137.882 201.803 138.214 201.769 138.516 201.643C138.818 201.517 139.076 201.304 139.256 201.031C139.437 200.758 139.532 200.438 139.53 200.111C139.527 199.677 139.354 199.261 139.047 198.954C138.74 198.647 138.324 198.473 137.89 198.471ZM137.89 201.281C137.658 201.283 137.431 201.216 137.237 201.088C137.044 200.961 136.892 200.779 136.802 200.565C136.712 200.352 136.687 200.116 136.731 199.889C136.775 199.661 136.886 199.452 137.049 199.287C137.212 199.122 137.421 199.01 137.648 198.964C137.875 198.918 138.111 198.941 138.325 199.029C138.54 199.117 138.723 199.267 138.852 199.46C138.981 199.652 139.05 199.879 139.05 200.111C139.05 200.419 138.928 200.715 138.711 200.935C138.494 201.154 138.199 201.278 137.89 201.281Z" fill="#AAB6C2"/>
<path d="M143 198.471C142.673 198.469 142.352 198.564 142.079 198.745C141.807 198.925 141.593 199.183 141.467 199.485C141.341 199.787 141.308 200.119 141.371 200.44C141.434 200.761 141.592 201.056 141.823 201.287C142.054 201.519 142.349 201.676 142.67 201.739C142.991 201.803 143.324 201.769 143.626 201.643C143.928 201.517 144.185 201.304 144.366 201.031C144.546 200.758 144.642 200.438 144.64 200.111C144.64 199.676 144.467 199.259 144.159 198.951C143.852 198.644 143.435 198.471 143 198.471ZM143 201.281C142.768 201.281 142.542 201.212 142.35 201.084C142.157 200.955 142.007 200.772 141.919 200.558C141.83 200.345 141.807 200.109 141.852 199.882C141.897 199.656 142.009 199.447 142.173 199.283C142.336 199.12 142.545 199.008 142.772 198.963C142.999 198.918 143.234 198.941 143.448 199.03C143.661 199.118 143.844 199.268 143.973 199.461C144.101 199.653 144.17 199.879 144.17 200.111C144.17 200.421 144.047 200.719 143.827 200.938C143.608 201.157 143.31 201.281 143 201.281Z" fill="#AAB6C2"/>
<path d="M147.31 199.641H144.35V200.591H147.31V199.641Z" fill="#AAB6C2"/>
<path d="M131 125.901L134.73 125.541C134.85 126.593 135.335 127.569 136.1 128.301C136.89 128.921 137.877 129.234 138.88 129.181C139.874 129.254 140.862 128.974 141.67 128.391C141.957 128.179 142.192 127.904 142.355 127.586C142.518 127.269 142.605 126.918 142.61 126.561C142.622 126.142 142.48 125.732 142.21 125.411C141.829 125.023 141.353 124.74 140.83 124.591C140.38 124.431 139.36 124.161 137.76 123.761C136.192 123.473 134.711 122.83 133.43 121.881C132.879 121.409 132.436 120.823 132.134 120.164C131.832 119.504 131.677 118.787 131.68 118.061C131.681 117.092 131.97 116.145 132.51 115.341C133.084 114.473 133.912 113.803 134.88 113.421C136.07 112.952 137.342 112.728 138.62 112.761C140.543 112.616 142.453 113.17 144 114.321C144.598 114.843 145.078 115.487 145.406 116.209C145.733 116.932 145.902 117.717 145.9 118.511L142.06 118.681C141.987 117.871 141.612 117.118 141.01 116.571C140.292 116.097 139.438 115.872 138.58 115.931C137.656 115.877 136.738 116.119 135.96 116.621C135.767 116.751 135.61 116.927 135.504 117.133C135.397 117.339 135.344 117.569 135.35 117.801C135.35 118.024 135.402 118.243 135.501 118.443C135.6 118.642 135.743 118.816 135.92 118.951C137.006 119.593 138.204 120.024 139.45 120.221C140.878 120.516 142.268 120.975 143.59 121.591C144.451 122.033 145.177 122.7 145.69 123.521C146.211 124.433 146.47 125.471 146.44 126.521C146.441 127.606 146.129 128.669 145.54 129.581C144.926 130.536 144.027 131.274 142.97 131.691C141.654 132.198 140.25 132.436 138.84 132.391C136.852 132.522 134.884 131.929 133.3 130.721C131.946 129.467 131.123 127.742 131 125.901Z" fill="#AAB6C2"/>
<path d="M152.35 122.521L149.04 121.921C149.303 120.725 149.984 119.661 150.96 118.921C152.166 118.201 153.557 117.853 154.96 117.921C156.194 117.856 157.428 118.054 158.58 118.501C159.281 118.803 159.868 119.317 160.26 119.971C160.667 121.007 160.835 122.122 160.75 123.231V127.481C160.726 128.375 160.786 129.269 160.93 130.151C161.065 130.794 161.283 131.416 161.58 132.001H158C157.861 131.649 157.744 131.288 157.65 130.921C157.59 130.711 157.54 130.571 157.52 130.501C156.941 131.072 156.264 131.533 155.52 131.861C154.802 132.164 154.029 132.317 153.25 132.311C152.026 132.379 150.824 131.967 149.9 131.161C149.502 130.788 149.187 130.335 148.977 129.832C148.767 129.329 148.666 128.787 148.68 128.241C148.666 127.51 148.856 126.79 149.23 126.161C149.609 125.554 150.154 125.068 150.8 124.761C151.726 124.365 152.697 124.079 153.69 123.911C154.895 123.726 156.08 123.428 157.23 123.021V122.661C157.258 122.388 157.226 122.113 157.136 121.854C157.046 121.595 156.901 121.358 156.71 121.161C156.129 120.796 155.442 120.638 154.76 120.711C154.227 120.682 153.697 120.814 153.24 121.091C152.798 121.46 152.486 121.962 152.35 122.521ZM157.22 125.521C156.489 125.72 155.748 125.88 155 126.001C154.305 126.105 153.63 126.318 153 126.631C152.783 126.77 152.605 126.961 152.481 127.186C152.357 127.411 152.291 127.664 152.29 127.921C152.288 128.169 152.338 128.414 152.436 128.641C152.534 128.869 152.679 129.073 152.86 129.241C153.052 129.427 153.279 129.572 153.528 129.668C153.777 129.764 154.043 129.809 154.31 129.801C154.99 129.792 155.649 129.564 156.19 129.151C156.606 128.856 156.912 128.43 157.06 127.941C157.177 127.359 157.224 126.765 157.2 126.171L157.22 125.521Z" fill="#AAB6C2"/>
<path d="M167.11 122.521L163.81 121.921C164.073 120.727 164.749 119.664 165.72 118.921C166.94 118.191 168.351 117.842 169.77 117.921C171.007 117.857 172.244 118.055 173.4 118.501C174.097 118.808 174.683 119.321 175.08 119.971C175.478 121.009 175.642 122.122 175.56 123.231V127.481C175.536 128.375 175.596 129.268 175.74 130.151C175.875 130.793 176.093 131.415 176.39 132.001H172.79C172.69 131.761 172.58 131.401 172.44 130.921C172.38 130.711 172.34 130.571 172.31 130.501C171.733 131.074 171.055 131.535 170.31 131.861C169.595 132.162 168.826 132.315 168.05 132.311C166.823 132.381 165.617 131.968 164.69 131.161C164.292 130.788 163.977 130.335 163.767 129.832C163.557 129.328 163.456 128.786 163.47 128.241C163.459 127.509 163.653 126.789 164.03 126.161C164.403 125.552 164.945 125.065 165.59 124.761C166.52 124.363 167.493 124.078 168.49 123.911C169.692 123.725 170.874 123.427 172.02 123.021V122.661C172.047 122.389 172.016 122.114 171.928 121.856C171.84 121.597 171.697 121.36 171.51 121.161C170.913 120.789 170.208 120.631 169.51 120.711C168.977 120.683 168.447 120.815 167.99 121.091C167.555 121.465 167.248 121.964 167.11 122.521ZM171.98 125.521C171.254 125.746 170.516 125.933 169.77 126.081C169.075 126.185 168.4 126.398 167.77 126.711C167.551 126.848 167.37 127.038 167.244 127.263C167.118 127.489 167.051 127.743 167.05 128.001C167.048 128.248 167.098 128.494 167.196 128.721C167.294 128.948 167.439 129.153 167.62 129.321C167.812 129.506 168.039 129.651 168.288 129.747C168.538 129.844 168.803 129.889 169.07 129.881C169.751 129.873 170.41 129.645 170.95 129.231C171.366 128.935 171.672 128.51 171.82 128.021C171.942 127.439 171.989 126.844 171.96 126.251L171.98 125.521Z" fill="#AAB6C2"/>
<path d="M178.21 125.901L181.94 125.541C182.06 126.593 182.545 127.569 183.31 128.301C184.1 128.921 185.087 129.234 186.09 129.181C187.084 129.254 188.072 128.974 188.88 128.391C189.167 128.179 189.402 127.904 189.565 127.586C189.728 127.269 189.815 126.918 189.82 126.561C189.832 126.142 189.69 125.732 189.42 125.411C189.039 125.023 188.563 124.74 188.04 124.591C187.59 124.431 186.57 124.161 184.97 123.761C183.402 123.473 181.921 122.83 180.64 121.881C180.089 121.409 179.646 120.823 179.344 120.164C179.042 119.504 178.887 118.787 178.89 118.061C178.891 117.092 179.18 116.145 179.72 115.341C180.297 114.475 181.123 113.805 182.09 113.421C183.28 112.952 184.552 112.728 185.83 112.761C187.753 112.616 189.663 113.17 191.21 114.321C191.808 114.843 192.288 115.487 192.615 116.209C192.943 116.932 193.112 117.717 193.11 118.511L189.27 118.681C189.197 117.871 188.822 117.118 188.22 116.571C187.502 116.097 186.648 115.872 185.79 115.931C184.865 115.877 183.948 116.119 183.17 116.621C182.977 116.751 182.82 116.927 182.714 117.133C182.607 117.339 182.554 117.569 182.56 117.801C182.56 118.024 182.612 118.243 182.711 118.443C182.81 118.642 182.953 118.816 183.13 118.951C184.216 119.593 185.414 120.024 186.66 120.221C188.088 120.516 189.478 120.975 190.8 121.591C191.661 122.033 192.387 122.7 192.9 123.521C193.424 124.432 193.687 125.47 193.66 126.521C193.658 127.607 193.342 128.67 192.75 129.581C192.136 130.536 191.237 131.274 190.18 131.691C188.864 132.198 187.46 132.436 186.05 132.391C184.062 132.522 182.094 131.929 180.51 130.721C179.16 129.464 178.337 127.741 178.21 125.901Z" fill="#AAB6C2"/>
<path d="M111.27 188.671L109.8 185.311C109.731 185.158 109.618 185.029 109.476 184.94C109.333 184.851 109.168 184.806 109 184.811H92.45C92.2678 184.815 92.0892 184.862 91.9292 184.949C91.7691 185.036 91.6322 185.16 91.53 185.311L89.25 188.661C88.9851 189.046 88.8138 189.488 88.75 189.951L83.75 230.621C83.7248 230.797 83.7388 230.976 83.7908 231.146C83.8428 231.316 83.9317 231.473 84.051 231.604C84.1703 231.736 84.3172 231.84 84.4812 231.908C84.6453 231.977 84.8224 232.009 85 232.001H135.4C135.785 231.989 136.155 231.842 136.443 231.587C136.732 231.331 136.922 230.982 136.98 230.601L141.88 190.601C141.908 190.425 141.897 190.245 141.847 190.074C141.798 189.903 141.712 189.745 141.594 189.612C141.477 189.478 141.331 189.372 141.168 189.301C141.005 189.23 140.828 189.196 140.65 189.201H112.21C112.019 189.212 111.829 189.168 111.662 189.074C111.496 188.98 111.36 188.84 111.27 188.671Z" fill="black"/>
<path d="M136.04 169.551H96.79V218.131H136.04V169.551Z" fill="white"/>
<path d="M135.78 169.791V217.881H97.0598V169.801H135.81L135.78 169.791ZM136.28 169.291H96.5298V218.381H136.28V169.301V169.291Z" fill="black"/>
<path d="M133.13 175.781H100.18V176.671H133.13V175.781Z" fill="black"/>
<path d="M133.13 179.151H100.18V180.041H133.13V179.151Z" fill="black"/>
<path d="M133.13 182.521H100.18V183.411H133.13V182.521Z" fill="black"/>
<path d="M133.14 185.891H100.19V186.781H133.14V185.891Z" fill="black"/>
<path d="M133.14 189.261H100.19V190.151H133.14V189.261Z" fill="black"/>
<path d="M133.14 193.001H100.18V193.891H133.14V193.001Z" fill="black"/>
<path d="M133.14 196.371H100.18V197.261H133.14V196.371Z" fill="black"/>
<path d="M133.14 199.741H100.18V200.631H133.14V199.741Z" fill="black"/>
<path d="M133.14 203.111H100.18V204.001H133.14V203.111Z" fill="black"/>
<path d="M133.14 206.491H100.18V207.381H133.14V206.491Z" fill="black"/>
<g opacity="0.15">
<path d="M134.54 174.631L129.07 169.291L94.79 169.311L94.81 218.391L134.56 218.371L134.54 174.631Z" fill="black"/>
</g>
<path d="M92.1299 167.521L126.06 167.501L131.39 172.701L131.41 216.091L92.1599 216.101L92.1299 167.521Z" fill="white"/>
<path d="M126 167.751L131.18 172.801V215.801H92.4302V167.771H126V167.751ZM126.21 167.251H91.9302V216.331H131.68V172.591L126.21 167.251Z" fill="black"/>
<path d="M128.48 173.741H95.5298V174.631H128.48V173.741Z" fill="black"/>
<path d="M128.49 177.111H95.54V178.001H128.49V177.111Z" fill="black"/>
<path d="M128.49 180.481H95.54V181.371H128.49V180.481Z" fill="black"/>
<path d="M128.49 183.851H95.54V184.741H128.49V183.851Z" fill="black"/>
<path d="M128.49 187.221H95.54V188.111H128.49V187.221Z" fill="black"/>
<path d="M128.49 190.961H95.5298V191.851H128.49V190.961Z" fill="black"/>
<path d="M128.49 194.331H95.5298V195.221H128.49V194.331Z" fill="black"/>
<path d="M128.49 197.701H95.5298V198.591H128.49V197.701Z" fill="black"/>
<path d="M128.5 201.071H95.54V201.961H128.5V201.071Z" fill="black"/>
<path d="M128.5 204.451H95.54V205.341H128.5V204.451Z" fill="black"/>
<path d="M126.64 171.891L126.45 167.881L130.96 172.281L126.64 171.891Z" fill="white"/>
<path d="M126.73 168.501L130.28 171.971L126.88 171.661L126.73 168.501ZM126.17 167.251L126.4 172.121L131.64 172.591L126.17 167.251Z" fill="black"/>
<g opacity="0.15">
<path d="M131.66 214.731H91.9102V183.831H97.8102C97.992 183.838 98.1701 183.885 98.3311 183.97C98.4922 184.055 98.632 184.175 98.7402 184.321L99.7402 185.601L100.41 186.491L101.23 187.581C101.359 187.752 101.525 187.893 101.715 187.991C101.906 188.09 102.116 188.145 102.33 188.151H130C130.385 188.168 130.753 188.312 131.047 188.56C131.342 188.807 131.547 189.145 131.63 189.521L131.7 189.881L131.66 214.731Z" fill="black"/>
</g>
<path d="M98.3401 189.851L95.8801 186.591C95.7714 186.445 95.6314 186.326 95.4705 186.241C95.3096 186.156 95.1318 186.108 94.9501 186.101H78.8501C78.6909 186.095 78.5339 186.139 78.4011 186.227C78.2683 186.315 78.1665 186.442 78.1101 186.591L76.9201 189.841C76.7789 190.242 76.7478 190.674 76.8301 191.091L84.5201 230.661C84.6094 231.033 84.8182 231.365 85.1143 231.607C85.4105 231.849 85.7778 231.988 86.1601 232.001H135.16C135.33 232.008 135.499 231.975 135.654 231.905C135.809 231.835 135.945 231.73 136.052 231.598C136.159 231.465 136.233 231.31 136.269 231.144C136.305 230.978 136.302 230.806 136.26 230.641L128.71 191.771C128.627 191.395 128.422 191.057 128.127 190.81C127.833 190.562 127.465 190.418 127.08 190.401H99.4401C99.2273 190.397 99.0182 190.346 98.8279 190.25C98.6376 190.155 98.4709 190.019 98.3401 189.851Z" fill="#3CBCC3"/>
<path d="M37.39 68.3111L34 66.3811L32.59 68.4411C31.4625 68.086 30.2803 67.937 29.1 68.0011L28.22 65.6611L24.42 66.7211L24.89 69.1811C23.8639 69.728 22.943 70.4525 22.17 71.3211L19.89 70.3211L18 73.7711L20 75.1811C19.666 76.2956 19.5273 77.4594 19.59 78.6211L17.25 79.5011L18.32 83.2911L20.78 82.8311C21.3261 83.8577 22.0508 84.7788 22.92 85.5511L21.92 87.8311L25.36 89.7611L26.77 87.6911C27.88 88.03 29.0414 88.1689 30.2 88.1011L31.08 90.4411L34.88 89.3711L34.41 86.9211C35.4392 86.3746 36.3635 85.65 37.14 84.7811L39.41 85.7811L41.35 82.3411L39.27 81.0011C39.604 79.8867 39.7427 78.7229 39.68 77.5611L42 76.6411L41 72.8411L38.55 73.3111C37.9967 72.2893 37.2729 71.3694 36.41 70.5911L37.39 68.3111ZM35.86 81.5611C35.1709 82.7919 34.1322 83.7907 32.8753 84.431C31.6185 85.0713 30.1999 85.3244 28.7991 85.1583C27.3984 84.9922 26.0784 84.4143 25.0061 83.4978C23.9339 82.5813 23.1575 81.3674 22.7754 80.0095C22.3932 78.6517 22.4224 77.2111 22.8593 75.8698C23.2961 74.5286 24.121 73.3471 25.2295 72.4748C26.338 71.6024 27.6803 71.0785 29.0866 70.9693C30.493 70.8601 31.9001 71.1704 33.13 71.8611C33.9467 72.3183 34.6652 72.9319 35.2445 73.667C35.8238 74.4021 36.2525 75.2442 36.5061 76.1451C36.7597 77.046 36.8331 77.9881 36.7222 78.9175C36.6114 79.8468 36.3184 80.7451 35.86 81.5611Z" fill="black"/>
<path d="M18.6101 70.4111L19.8901 70.3311V72.0011C19.3708 72.0411 18.8493 72.0411 18.3301 72.0011C18.3401 71.9111 18.6101 70.4111 18.6101 70.4111Z" fill="black"/>
<path d="M26.9401 65.7812L28.2201 65.7012L27.7701 66.6312L26.8901 66.9412L26.9401 65.7812Z" fill="black"/>
<path d="M32.6699 66.4609L33.9399 66.3809L33.8399 67.6909L32.8999 67.7909L32.6699 66.4609Z" fill="black"/>
<path d="M39.6701 72.9308L40.9501 72.8408L40.5301 74.4208L39.3501 74.8108L39.6701 72.9308Z" fill="black"/>
<path d="M38.1199 85.8909L39.3999 85.8109L38.9899 85.0009L37.8599 84.7109L38.1199 85.8909Z" fill="black"/>
<path d="M29.7998 90.5209L31.0698 90.4409L30.9398 89.9509L30.0498 89.9209H30.0098L29.7998 90.5209Z" fill="black"/>
<path d="M24.07 89.8411L25.34 89.7611L25.1 89.1511L23.71 88.6611L24.07 89.8411Z" fill="black"/>
<path d="M17.06 83.3812L18.34 83.2913L18.26 82.7812H17.04L17.06 83.3812Z" fill="black"/>
<path d="M36.11 68.3913L32.67 66.4613L31.26 68.5312C30.1476 68.1875 28.982 68.0486 27.82 68.1213L26.94 65.7812L23.15 66.8512L23.61 69.3013C22.5858 69.8511 21.6654 70.5753 20.89 71.4412L18.61 70.4412L16.68 73.8512L18.75 75.2612C18.4112 76.3747 18.2724 77.5394 18.34 78.7012L16 79.5813L17.07 83.3812L19.52 82.9113C20.0698 83.9354 20.794 84.8559 21.66 85.6312L20.66 87.9113L24.1 89.8412L25.51 87.7812C26.6245 88.1152 27.7883 88.2539 28.95 88.1913L29.83 90.5212L33.63 89.4613L33.13 87.0013C34.1561 86.4544 35.077 85.7298 35.85 84.8613L38.13 85.8613L40.06 82.4212L38 81.0013C38.334 79.8868 38.4727 78.723 38.41 77.5613L40.74 76.6813L39.68 72.8913L37.22 73.3512C36.6702 72.3271 35.946 71.4067 35.08 70.6313L36.11 68.3913ZM34.58 81.6413C33.8896 82.8683 32.851 83.8631 31.5953 84.4999C30.3397 85.1367 28.9234 85.387 27.5256 85.2191C26.1277 85.0512 24.811 84.4726 23.7419 83.5565C22.6728 82.6404 21.8993 81.4279 21.5192 80.0723C21.1391 78.7167 21.1694 77.2788 21.6063 75.9404C22.0432 74.602 22.8671 73.4232 23.9738 72.5529C25.0806 71.6827 26.4205 71.1601 27.8242 71.0512C29.2278 70.9424 30.6323 71.2521 31.86 71.9412C32.6758 72.3992 33.3934 73.0135 33.9717 73.749C34.55 74.4844 34.9777 75.3267 35.2303 76.2275C35.4829 77.1284 35.5555 78.0702 35.4439 78.9991C35.3324 79.928 35.0388 80.8259 34.58 81.6413Z" fill="#3CBCC3"/>
<path d="M71.7301 24.7414L67.0001 22.0914L65.0701 24.9214C63.5409 24.4637 61.944 24.2742 60.3501 24.3614L59.1401 21.1514L53.9201 22.6214L54.5601 26.0014C53.1498 26.7531 51.8836 27.7485 50.8201 28.9414L47.6901 27.5214L45.0001 32.2414L47.8401 34.1714C47.3787 35.7034 47.1859 37.3036 47.2701 38.9014L44.1001 40.1114L45.5701 45.3314L48.9401 44.6814C49.6926 46.0912 50.6878 47.3573 51.8801 48.4214L50.4601 51.5514L55.1901 54.2114L57.1301 51.3714C58.6582 51.8345 60.2561 52.0241 61.8501 51.9314L63.0601 55.1414L68.2801 53.6814L67.6401 50.3114C69.0461 49.5531 70.3112 48.5586 71.3801 47.3714L74.5001 48.7814L77.1601 44.0514L74.3201 42.1214C74.782 40.593 74.9715 38.9954 74.8801 37.4014L78.1001 36.1914L76.6301 31.0014L73.2601 31.6414C72.5018 30.2353 71.5073 28.9702 70.3201 27.9014L71.7301 24.7414ZM69.6301 42.9414C68.6817 44.6295 67.2541 45.9986 65.5277 46.8753C63.8012 47.7521 61.8536 48.0972 59.931 47.8671C58.0084 47.6369 56.1973 46.8418 54.7266 45.5823C53.2559 44.3228 52.1917 42.6555 51.6687 40.7911C51.1456 38.9268 51.1871 36.9493 51.788 35.1085C52.3888 33.2678 53.522 31.6466 55.0443 30.4499C56.5665 29.2533 58.4095 28.5349 60.34 28.3856C62.2705 28.2363 64.202 28.6629 65.8901 29.6114C67.0119 30.2401 67.9986 31.0839 68.7939 32.0945C69.5892 33.1051 70.1773 34.2625 70.5247 35.5007C70.8721 36.7389 70.9719 38.0334 70.8184 39.3101C70.6649 40.5869 70.2611 41.8208 69.6301 42.9414Z" fill="black"/>
<path d="M45.9398 27.6307L47.6898 27.5107V29.8007C46.9773 29.8508 46.2623 29.8508 45.5498 29.8007C45.5698 29.6907 45.9398 27.6307 45.9398 27.6307Z" fill="black"/>
<path d="M57.3801 21.2614L59.1301 21.1514L58.5201 22.4314L57.3101 22.8614L57.3801 21.2614Z" fill="black"/>
<path d="M65.25 22.2008L67 22.0908L66.86 23.8808L65.57 24.0308L65.25 22.2008Z" fill="black"/>
<path d="M74.8802 31.0807L76.6302 30.9707L76.0502 33.1307L74.4302 33.6807L74.8802 31.0807Z" fill="black"/>
<path d="M72.7499 48.9005L74.4999 48.7805L73.9299 47.6705L72.3799 47.2705L72.7499 48.9005Z" fill="black"/>
<path d="M61.2998 55.2607L63.0598 55.1507L62.8698 54.4707L61.6498 54.4307H61.5998L61.2998 55.2607Z" fill="black"/>
<path d="M53.4399 54.3214L55.1899 54.2114L54.8499 53.3814L52.9399 52.6914L53.4399 54.3214Z" fill="black"/>
<path d="M43.8098 45.4411L45.5598 45.3211L45.4498 44.6211H43.7798L43.8098 45.4411Z" fill="black"/>
<path d="M70.0001 24.8607L65.2501 22.2007L63.3201 25.0007C61.7919 24.5383 60.1941 24.3487 58.6001 24.4407L57.3901 21.2607L52.1701 22.7307L52.8101 26.1007C51.4051 26.8438 50.1396 27.825 49.0701 29.0007L45.9401 27.5907L43.2901 32.3207L46.1201 34.2507C45.6639 35.7906 45.4745 37.3971 45.5601 39.0007L42.3501 40.2107L43.8101 45.4307L47.1901 44.7907C47.9419 46.201 48.9372 47.4672 50.1301 48.5307L48.7101 51.6607L53.4401 54.3107L55.3701 51.4707C56.9021 51.9321 58.5024 52.125 60.1001 52.0407L61.3101 55.2507L66.5201 53.7807L65.8801 50.4107C67.2882 49.6557 68.5539 48.6607 69.6201 47.4707L72.7501 48.8907L75.4101 44.1607L72.5701 42.2207C73.0326 40.6925 73.2222 39.0948 73.1301 37.5007L76.3401 36.2907L74.8801 31.0707L71.5101 31.7107C70.7489 30.3154 69.7546 29.0606 68.5701 28.0007L70.0001 24.8607ZM67.9001 43.0507C66.953 44.7403 65.526 46.1109 63.7996 46.9891C62.0733 47.8674 60.1253 48.2139 58.202 47.9847C56.2787 47.7555 54.4667 46.961 52.9951 45.7016C51.5235 44.4423 50.4585 42.7747 49.9349 40.91C49.4113 39.0452 49.4526 37.067 50.0536 35.2257C50.6546 33.3844 51.7883 31.7628 53.3112 30.566C54.8341 29.3692 56.6777 28.651 58.6089 28.5023C60.5401 28.3537 62.472 28.7812 64.1601 29.7307C66.4196 31.004 68.0808 33.1225 68.7784 35.6204C69.476 38.1183 69.1529 40.791 67.8801 43.0507H67.9001Z" fill="#AAB6C2"/>
</svg>
