<svg width="112" height="112" viewBox="0 0 112 112" fill="none" xmlns="http://www.w3.org/2000/svg">
<path d="M76.6768 53.4141H35.3229C34.3713 53.4141 33.5999 54.1855 33.5999 55.1371V108.553C33.5841 109.091 33.8211 109.606 34.2405 109.944C34.66 110.283 35.2135 110.405 35.7365 110.276L55.9999 105.106C77.6589 110.517 76.3666 110.276 76.6768 110.276C77.6284 110.276 78.3999 109.504 78.3999 108.553V55.1371C78.3999 54.1855 77.6284 53.4141 76.6768 53.4141Z" fill="#075085"/>
<path d="M71.5076 53.4141V109.035L55.9999 105.158L40.4922 109.035V53.4141H71.5076Z" fill="#075085"/>
<path d="M97.1986 55.3275C94.6883 58.7386 93.0765 62.7264 92.5118 66.9238C91.3619 74.3417 85.542 80.1616 78.1241 81.3115C73.9267 81.8763 69.9389 83.488 66.5278 85.9983C60.3254 90.7855 51.6742 90.7855 45.4718 85.9983C42.0608 83.488 38.0729 81.8763 33.8755 81.3115C26.4577 80.1616 20.6378 74.3417 19.4878 66.9238C18.9231 62.7264 17.3114 58.7386 14.8011 55.3275C10.0139 49.1251 10.0139 40.4739 14.8011 34.2715C17.3241 30.8659 18.9425 26.8761 19.5051 22.6752C20.6509 15.268 26.4538 9.45115 33.8583 8.28753C38.0706 7.7284 42.0724 6.10993 45.4891 3.58353C51.6914 -1.20362 60.3427 -1.20362 66.5451 3.58353C69.9618 6.10993 73.9635 7.7284 78.1758 8.28753C85.5803 9.45115 91.3832 15.268 92.5291 22.6752C93.0916 26.8761 94.71 30.8659 97.2331 34.2715C102.01 40.4817 101.996 49.133 97.1986 55.3275Z" fill="#0B3E66"/>
<circle cx="55.9999" cy="44.7997" r="27.5692" fill="#F0FBFA"/>
<path d="M47.3847 53.4146C46.9267 53.4172 46.4864 53.2374 46.1613 52.9149L39.269 46.0226C38.9428 45.699 38.7593 45.2586 38.7593 44.7992C38.7593 44.3398 38.9428 43.8993 39.269 43.5758L46.1613 36.6835C46.8369 36.0078 47.9324 36.0078 48.608 36.6835C49.2837 37.3592 49.2837 38.4546 48.608 39.1303L42.9219 44.7992L48.608 50.4681C49.1051 50.9611 49.2545 51.7057 48.986 52.3523C48.7176 52.9988 48.0847 53.4186 47.3847 53.4146Z" fill="#0B3E66"/>
<path d="M64.6154 53.4146C63.9153 53.4186 63.2824 52.9988 63.014 52.3523C62.7455 51.7057 62.8949 50.9611 63.392 50.4681L69.0781 44.7992L63.392 39.1303C62.7163 38.4546 62.7163 37.3592 63.392 36.6835C64.0676 36.0078 65.1631 36.0078 65.8387 36.6835L72.731 43.5758C73.0572 43.8993 73.2407 44.3398 73.2407 44.7992C73.2407 45.2586 73.0572 45.699 72.731 46.0226L65.8387 52.9149C65.5136 53.2374 65.0734 53.4172 64.6154 53.4146Z" fill="#0B3E66"/>
<path d="M54.2768 56.8608C53.7678 56.8674 53.2819 56.6485 52.9495 56.263C52.6171 55.8774 52.4722 55.3646 52.5537 54.8621L55.9999 34.1851C56.0984 33.5695 56.5178 33.0533 57.1002 32.8308C57.6825 32.6083 58.3394 32.7134 58.8233 33.1065C59.3071 33.4996 59.5445 34.1209 59.446 34.7365L55.9999 55.4135C55.8634 56.2561 55.1304 56.8718 54.2768 56.8608Z" fill="#0B3E66"/>
<path d="M9.47684 24.123C6.77161 24.123 8.08115 19.04 1.46454 13.371C1.08173 13.0437 0.861328 12.5652 0.861328 12.0615C0.861328 11.5578 1.08173 11.0793 1.46454 10.752C4.413 8.1383 6.62835 4.80043 7.89161 1.06828C8.16229 0.432889 8.7862 0.0205078 9.47684 0.0205078C10.1675 0.0205078 10.7914 0.432889 11.0621 1.06828C12.2986 4.81349 14.5183 8.15788 17.4892 10.752C17.872 11.0793 18.0924 11.5578 18.0924 12.0615C18.0924 12.5652 17.872 13.0437 17.4892 13.371C14.5407 15.9847 12.3253 19.3226 11.0621 23.0547C10.7978 23.6982 10.1725 24.1196 9.47684 24.123Z" fill="#0B3E66"/>
<path d="M102.523 91.3232C99.8178 91.3232 101.127 86.154 94.5107 80.5712C94.1279 80.2439 93.9075 79.7654 93.9075 79.2617C93.9075 78.758 94.1279 78.2795 94.5107 77.9522C97.4591 75.3385 99.6745 72.0006 100.938 68.2685C101.208 67.6331 101.832 67.2207 102.523 67.2207C103.214 67.2207 103.838 67.6331 104.108 68.2685C105.345 72.0137 107.564 75.3581 110.535 77.9522C110.918 78.2795 111.139 78.758 111.139 79.2617C111.139 79.7654 110.918 80.2439 110.535 80.5712C107.587 83.1849 105.371 86.5228 104.108 90.2549C103.844 90.8984 103.219 91.3198 102.523 91.3232Z" fill="#0B3E66"/>
</svg>
