<svg width="195" height="174" viewBox="0 0 195 174" fill="none" xmlns="http://www.w3.org/2000/svg">
<path d="M145.374 59.2232C125.921 45.7014 126.186 35.0728 129.122 26.5345C132.447 16.832 169.151 33.9349 176.791 64.9036C184.43 95.8723 155.675 66.3943 145.374 59.2232Z" fill="url(#paint0_linear_2117_13897)"/>
<path d="M129.635 57.944V146.025C129.635 146.44 129.553 146.85 129.394 147.232C129.235 147.615 129.001 147.963 128.707 148.255C128.413 148.548 128.064 148.779 127.68 148.937C127.296 149.095 126.885 149.175 126.47 149.174H3.51801C2.68081 149.174 1.87789 148.842 1.2859 148.252C0.693906 147.661 0.361328 146.86 0.361328 146.025L0.361328 57.944C0.361328 56.8773 0.786134 55.8542 1.54229 55.0999C2.29845 54.3456 3.32402 53.9219 4.39339 53.9219H125.594C126.124 53.9207 126.65 54.0239 127.14 54.2255C127.63 54.4271 128.076 54.7232 128.451 55.0968C128.826 55.4704 129.124 55.9142 129.327 56.4028C129.53 56.8913 129.635 57.4151 129.635 57.944Z" fill="#F0FBFA"/>
<path d="M129.635 67.7877H0.361328V57.944C0.361327 57.4151 0.465912 56.8913 0.669095 56.4028C0.872278 55.9142 1.17007 55.4704 1.54542 55.0968C1.92077 54.7232 2.3663 54.4271 2.85652 54.2255C3.34673 54.0239 3.87199 53.9207 4.40224 53.9219H125.594C126.124 53.9207 126.65 54.0239 127.14 54.2255C127.63 54.4271 128.076 54.7232 128.451 55.0968C128.826 55.4704 129.124 55.9142 129.327 56.4028C129.53 56.8913 129.635 57.4151 129.635 57.944V67.7877Z" fill="#075085"/>
<path d="M22.5996 60.8543C22.5979 60.4314 22.7221 60.0175 22.9566 59.6651C23.191 59.3127 23.5251 59.0378 23.9165 58.8751C24.3078 58.7125 24.7388 58.6694 25.1547 58.7515C25.5706 58.8336 25.9527 59.0371 26.2525 59.3361C26.5523 59.6352 26.7563 60.0163 26.8386 60.4312C26.9209 60.8461 26.8777 61.276 26.7147 61.6664C26.5516 62.0568 26.276 62.3901 25.9227 62.624C25.5695 62.8578 25.1546 62.9818 24.7306 62.98C24.1654 62.98 23.6234 62.7561 23.2238 62.3574C22.8241 61.9588 22.5996 61.4181 22.5996 60.8543Z" fill="#F0FBFA"/>
<path d="M14.3848 60.8543C14.383 60.4314 14.5073 60.0175 14.7417 59.6651C14.9762 59.3127 15.3103 59.0378 15.7016 58.8751C16.093 58.7125 16.524 58.6694 16.9399 58.7515C17.3558 58.8336 17.7379 59.0371 18.0377 59.3361C18.3375 59.6352 18.5414 60.0163 18.6237 60.4312C18.706 60.8461 18.6629 61.276 18.4998 61.6664C18.3368 62.0568 18.0611 62.3901 17.7079 62.624C17.3547 62.8578 16.9397 62.9818 16.5158 62.98C15.9506 62.98 15.4086 62.7561 15.0089 62.3574C14.6093 61.9588 14.3848 61.4181 14.3848 60.8543Z" fill="#EBA63F"/>
<path d="M6.17092 60.8543C6.16917 60.4321 6.29296 60.0189 6.52663 59.6669C6.76031 59.3149 7.09337 59.04 7.48369 58.8768C7.87402 58.7136 8.30409 58.6696 8.71951 58.7503C9.13493 58.8309 9.51705 59.0326 9.81754 59.3299C10.118 59.6272 10.3234 60.0067 10.4077 60.4204C10.492 60.8341 10.4514 61.2635 10.291 61.6542C10.1307 62.0449 9.85781 62.3794 9.5069 62.6154C9.15598 62.8514 8.7428 62.9783 8.31958 62.98C8.03825 62.9824 7.75925 62.9291 7.49866 62.8233C7.23807 62.7175 7.00106 62.5613 6.80131 62.3637C6.60155 62.1661 6.443 61.9309 6.3348 61.6719C6.22661 61.4128 6.17091 61.1349 6.17092 60.8543Z" fill="white"/>
<path d="M119.467 59.2938L120.519 58.2441L122.031 59.7436L123.534 58.2441L124.595 59.2938L123.083 60.8021L124.595 62.3104L123.534 63.36L122.031 61.8517L120.519 63.36L119.467 62.3104L120.97 60.8021L119.467 59.2938Z" fill="white"/>
<path d="M194.891 16.2139V77.0752C194.891 77.653 194.661 78.2071 194.251 78.6157C193.841 79.0243 193.286 79.2538 192.707 79.2538H107.768C107.189 79.2515 106.635 79.0212 106.226 78.6131C105.817 78.2051 105.586 77.6523 105.584 77.0752V16.2139C105.596 15.4823 105.895 14.7846 106.418 14.2714C106.941 13.7582 107.645 13.4706 108.378 13.4707H192.123C192.853 13.4753 193.551 13.7652 194.069 14.2782C194.586 14.7911 194.881 15.4862 194.891 16.2139Z" fill="#83DADD"/>
<path d="M194.891 23.0145H105.584V16.2139C105.596 15.4823 105.895 14.7846 106.418 14.2714C106.941 13.7582 107.645 13.4706 108.378 13.4707H192.123C192.853 13.4753 193.551 13.7652 194.069 14.2782C194.586 14.7911 194.881 15.4862 194.891 16.2139V23.0145Z" fill="#1D1D2C"/>
<path d="M120.952 18.225C120.952 17.9336 121.039 17.6488 121.201 17.4066C121.363 17.1644 121.594 16.9756 121.864 16.8641C122.134 16.7526 122.43 16.7234 122.717 16.7803C123.003 16.8371 123.266 16.9774 123.473 17.1834C123.679 17.3894 123.82 17.6519 123.877 17.9376C123.934 18.2233 123.905 18.5195 123.793 18.7887C123.681 19.0578 123.492 19.2879 123.249 19.4497C123.006 19.6116 122.721 19.698 122.429 19.698C122.037 19.698 121.662 19.5428 121.385 19.2666C121.108 18.9903 120.952 18.6156 120.952 18.225Z" fill="#F0FBFA"/>
<path d="M115.311 18.225C115.311 17.9336 115.397 17.6488 115.559 17.4066C115.722 17.1644 115.952 16.9756 116.222 16.8641C116.492 16.7526 116.789 16.7234 117.075 16.7803C117.362 16.8371 117.625 16.9774 117.831 17.1834C118.038 17.3894 118.179 17.6519 118.235 17.9376C118.292 18.2233 118.263 18.5195 118.151 18.7887C118.04 19.0578 117.85 19.2879 117.608 19.4497C117.365 19.6116 117.079 19.698 116.787 19.698C116.396 19.698 116.02 19.5428 115.743 19.2666C115.466 18.9903 115.311 18.6156 115.311 18.225Z" fill="#EBA63F"/>
<path d="M109.599 18.225C109.599 17.9336 109.685 17.6488 109.847 17.4066C110.01 17.1644 110.24 16.9756 110.51 16.8641C110.78 16.7526 111.077 16.7234 111.363 16.7803C111.65 16.8371 111.913 16.9774 112.119 17.1834C112.326 17.3894 112.467 17.6519 112.524 17.9376C112.581 18.2233 112.551 18.5195 112.44 18.7887C112.328 19.0578 112.139 19.2879 111.896 19.4497C111.653 19.6116 111.367 19.698 111.075 19.698C110.684 19.698 110.308 19.5428 110.031 19.2666C109.754 18.9903 109.599 18.6156 109.599 18.225Z" fill="white"/>
<path d="M187.888 17.1481L188.613 16.416L189.656 17.4568L190.7 16.416L191.433 17.1481L190.39 18.1889L191.433 19.2297L190.7 19.953L189.656 18.9122L188.613 19.953L187.888 19.2297L188.931 18.1889L187.888 17.1481Z" fill="white"/>
<path d="M135.674 26.4902L135.745 27.6722H155.498L155.419 26.4902H135.674Z" fill="#F0FBFA"/>
<path d="M145.356 30.0352L145.436 31.2171H177.551L177.48 30.0352H145.356Z" fill="#F0FBFA"/>
<path d="M135.728 30.0352L135.798 31.2171H143.977L143.898 30.0352H135.728Z" fill="white"/>
<path d="M135.639 33.582L135.709 34.764H152.059L151.935 33.582H135.639Z" fill="#F0FBFA"/>
<path d="M153.076 33.582L153.191 34.764H169.213L169.143 33.582H153.076Z" fill="white"/>
<path d="M121.332 33.582V34.764H129.361L129.37 33.582H121.332Z" fill="#F0FBFA"/>
<path d="M111.57 30.0352L111.562 31.2171H124.63L124.639 30.0352H111.57Z" fill="#F0FBFA"/>
<path d="M126.134 30.0352V31.2171H129.45L129.458 30.0352H126.134Z" fill="#F0FBFA"/>
<path d="M122.959 26.4902L122.968 27.6722H129.6L129.608 26.4902H122.959Z" fill="#EBA63F"/>
<path d="M115.099 26.4902L115.09 27.6722H121.624L121.615 26.4902H115.099Z" fill="#EBA63F"/>
<path d="M121.235 46.8574L121.227 48.0394H129.264L129.273 46.8574H121.235Z" fill="#F0FBFA"/>
<path d="M111.473 43.3105L111.464 44.4925H124.533V43.3105H111.473Z" fill="#F0FBFA"/>
<path d="M126.036 43.3105L126.027 44.4925H129.352L129.361 43.3105H126.036Z" fill="#F0FBFA"/>
<path d="M121.111 54.3281L121.103 55.5101H129.14V54.3281H121.111Z" fill="#F0FBFA"/>
<path d="M111.349 50.7812L111.34 51.9632H124.409V50.7812H111.349Z" fill="#EBA63F"/>
<path d="M125.903 50.7812V51.9632H129.228V50.7812H125.903Z" fill="#F4D593"/>
<path d="M122.861 39.7656L122.87 40.9476H129.502L129.511 39.7656H122.861Z" fill="#EBA63F"/>
<path d="M115.001 39.7656L114.992 40.9476H121.527L121.518 39.7656H115.001Z" fill="#EBA63F"/>
<path d="M157.453 26.4902L157.524 27.6722H163.519L163.448 26.4902H157.453Z" fill="white"/>
<path d="M179.55 30.0352L179.621 31.2171H189.214L189.144 30.0352H179.55Z" fill="#F0FBFA"/>
<path d="M170.973 33.582L171.043 34.764H180.77L180.699 33.582H170.973Z" fill="#F0FBFA"/>
<path d="M166.136 26.4902L166.277 27.6722H183.21L183.069 26.4902H166.136Z" fill="#F0FBFA"/>
<path d="M135.577 39.7656L135.648 40.9476H155.393L155.322 39.7656H135.577Z" fill="#F0FBFA"/>
<path d="M145.26 43.3105L145.339 44.4925H177.454L177.384 43.3105H145.26Z" fill="#F0FBFA"/>
<path d="M135.63 43.3105L135.701 44.4925H143.871L143.791 43.3105H135.63Z" fill="#F0FBFA"/>
<path d="M135.533 46.8574L135.613 48.0394H151.953L151.838 46.8574H135.533Z" fill="#F0FBFA"/>
<path d="M152.979 46.8574L153.093 48.0394H169.107L169.036 46.8574H152.979Z" fill="#F0FBFA"/>
<path d="M157.355 39.7656L157.426 40.9476H163.421L163.351 39.7656H157.355Z" fill="#F0FBFA"/>
<path d="M179.452 43.3105L179.523 44.4925H189.117L189.046 43.3105H179.452Z" fill="#F0FBFA"/>
<path d="M170.875 46.8574L170.946 48.0394H180.663L180.593 46.8574H170.875Z" fill="white"/>
<path d="M145.533 50.7812L145.604 51.9632H177.719L177.648 50.7812H145.533Z" fill="#F0FBFA"/>
<path d="M135.896 50.7812L135.966 51.9632H144.145L144.066 50.7812H135.896Z" fill="#F0FBFA"/>
<path d="M135.807 54.3281L135.877 55.5101H152.227L152.103 54.3281H135.807Z" fill="#F0FBFA"/>
<path d="M153.244 54.3281L153.368 55.5101H169.381L169.311 54.3281H153.244Z" fill="white"/>
<path d="M179.718 50.7812L179.789 51.9632H189.382L189.312 50.7812H179.718Z" fill="white"/>
<path d="M171.141 54.3281L171.211 55.5101H180.938L180.867 54.3281H171.141Z" fill="#F0FBFA"/>
<path d="M166.029 39.7656L166.171 40.9476H183.113L182.971 39.7656H166.029Z" fill="white"/>
<path d="M120.97 66.543V67.7161H128.998L129.007 66.543H120.97Z" fill="#F0FBFA"/>
<path d="M111.208 62.998L111.199 64.1712H124.268L124.277 62.998H111.208Z" fill="#F0FBFA"/>
<path d="M125.771 62.998V64.1712H129.086L129.095 62.998H125.771Z" fill="#F0FBFA"/>
<path d="M120.846 74.0059L120.837 75.1878H128.875L128.883 74.0059H120.846Z" fill="#F0FBFA"/>
<path d="M111.084 70.4609L111.075 71.6429H124.144V70.4609H111.084Z" fill="#EBA63F"/>
<path d="M125.639 70.4609V71.6429H128.963L128.972 70.4609H125.639Z" fill="#EEBA5B"/>
<path d="M122.597 59.4512L122.606 60.6243H129.237L129.246 59.4512H122.597Z" fill="#F4D593"/>
<path d="M114.735 59.4512L114.727 60.6243H121.261L121.252 59.4512H114.735Z" fill="#EEBA5B"/>
<path d="M135.312 59.4512L135.382 60.6243H155.136L155.065 59.4512H135.312Z" fill="#F0FBFA"/>
<path d="M144.994 62.998L145.074 64.1712H177.189L177.118 62.998H144.994Z" fill="#F0FBFA"/>
<path d="M135.365 62.998L135.436 64.1712H143.606L143.535 62.998H135.365Z" fill="#F0FBFA"/>
<path d="M135.276 66.543L135.347 67.7161H151.688L151.573 66.543H135.276Z" fill="#F0FBFA"/>
<path d="M152.713 66.543L152.828 67.7161H168.85L168.779 66.543H152.713Z" fill="#F0FBFA"/>
<path d="M157.09 59.4512L157.161 60.6243H163.156L163.085 59.4512H157.09Z" fill="#F0FBFA"/>
<path d="M179.188 62.998L179.258 64.1712H188.852L188.781 62.998H179.188Z" fill="#F0FBFA"/>
<path d="M170.61 66.543L170.681 67.7161H180.408L180.337 66.543H170.61Z" fill="white"/>
<path d="M145.268 70.4609L145.338 71.6429H177.453L177.383 70.4609H145.268Z" fill="#F0FBFA"/>
<path d="M135.63 70.4609L135.701 71.6429H143.88L143.8 70.4609H135.63Z" fill="#F0FBFA"/>
<path d="M135.542 74.0059L135.613 75.1878H151.962L151.847 74.0059H135.542Z" fill="#F0FBFA"/>
<path d="M152.979 74.0059L153.102 75.1878H169.116L169.045 74.0059H152.979Z" fill="white"/>
<path d="M179.452 70.4609L179.523 71.6429H189.117L189.046 70.4609H179.452Z" fill="white"/>
<path d="M170.875 74.0059L170.946 75.1878H180.672L180.601 74.0059H170.875Z" fill="#F0FBFA"/>
<path d="M165.773 59.4512L165.915 60.6243H182.848L182.706 59.4512H165.773Z" fill="white"/>
<mask id="mask0_2117_13897" style="mask-type:luminance" maskUnits="userSpaceOnUse" x="0" y="27" width="130" height="147">
<path d="M115.868 67.7786L119.458 37.9213L113.418 27.6719L90.7026 37.8507L71.9836 32.9994L60.8335 40.9379L56.598 61.8512L52.2919 67.7786H0.361328V146.016C0.361325 146.852 0.693621 147.654 1.28536 148.246C1.8771 148.838 2.68 149.172 3.51801 149.174H45.9608L43.7326 153.258L32.9539 170.087L42.4681 173.122L76.8733 162.537L111.075 155.092L111.738 149.218H126.47C126.885 149.218 127.297 149.136 127.681 148.978C128.065 148.819 128.414 148.586 128.708 148.293C129.002 148 129.235 147.652 129.394 147.269C129.553 146.886 129.635 146.475 129.635 146.06V67.7786H115.868Z" fill="white"/>
</mask>
<g mask="url(#mask0_2117_13897)">
<path d="M46.8534 162.855C48.1178 161.726 57.2165 159.988 59.5066 159.327L57.8355 155.049C54.3286 156.216 50.6563 156.811 46.9595 156.813C45.0938 156.742 41.6541 162.167 43.7851 164.751C43.9089 164.831 44.9788 164.531 46.8534 162.855Z" fill="#FAEACB"/>
<path d="M46.3412 161.188C46.854 162.308 49.604 161.62 48.8612 162.952C46.8806 162.952 44.8468 164.081 42.8485 167.23C41.08 170.105 36.2168 170.079 36.2168 170.079L45.6426 155.198C45.6426 155.198 47.2431 153.928 50.1168 156.469C49.153 158.039 45.6073 159.494 46.3412 161.188Z" fill="#1D1D2C"/>
<path d="M77.8896 95.4217C86.7318 106.888 107.219 142.929 107.502 144.658C107.847 146.695 103.612 153.258 96.8032 147.489C90.6578 142.294 56.1288 106.297 63.2468 95.704C67.3054 89.6973 75.1927 91.92 77.8896 95.4217Z" fill="#3CBCC3"/>
<path d="M67.9341 93.9219C74.3536 126.558 103.064 146.492 104.851 147.806C103.144 147.577 100.429 150.276 98.2277 148.538C92.5775 144.022 54.9006 110.928 66.652 95.0244C67.4478 93.9572 66.9703 94.504 67.9341 93.9219Z" fill="#1D1D2C"/>
<path d="M52.6809 102.831C56.007 98.498 60.2682 94.9678 65.1485 92.5018C68.2609 91.2052 73.416 92.0167 73.4602 97.3972C73.5044 102.778 73.584 106.773 68.4731 115.338C63.3623 123.903 47.2252 141.949 41.2744 148.521C36.3581 153.972 27.2417 152.825 32.7593 143.634C38.2769 134.443 47.2252 109.834 52.6809 102.831Z" fill="#3CBCC3"/>
<path d="M31.4418 145.336C32.6178 143.643 33.3518 142.364 34.3951 140.582C38.8163 133.014 44.7052 142.902 43.5911 144.939C42.194 147.497 40.8235 148.529 36.5173 157.606C33.5704 163.991 29.4768 169.785 24.4388 174.7C21.4619 178.037 18.7173 181.573 16.2243 185.284C11.4672 184.552 10.5918 182.356 10.5918 182.356C10.5918 182.356 16.41 171.921 19.9911 164.062C23.5722 156.203 28.6565 149.306 31.4418 145.336Z" fill="#3CBCC3"/>
<path d="M105.628 148.301C104.125 151.044 58.6673 160.341 58.6673 160.341C55.9173 156.715 56.722 153.743 56.722 153.743C56.722 153.743 69.7908 150.056 76.9353 146.051C108.785 128.19 106.698 146.378 105.628 148.301Z" fill="#3CBCC3"/>
<path d="M68.6759 38.6002C69.6827 38.3826 70.7316 38.4678 71.69 38.8449C72.6483 39.222 73.473 39.8742 74.0597 40.7189C74.6464 41.5637 74.9688 42.563 74.9861 43.5905C75.0034 44.618 74.7148 45.6276 74.1568 46.4915C73.5988 47.3554 72.7966 48.0348 71.8515 48.4438C70.9064 48.8528 69.8609 48.973 68.8473 48.7892C67.8337 48.6054 66.8975 48.1259 66.1572 47.4113C65.4168 46.6967 64.9055 45.7791 64.688 44.7746C64.399 43.4285 64.6563 42.0231 65.4037 40.8659C66.1511 39.7087 67.3277 38.894 68.6759 38.6002Z" fill="#1D1D2C"/>
<path d="M66.1656 62.3532C67.43 57.0609 64.6535 58.384 66.0506 51.7686C67.4477 45.1533 70.3656 43.7773 73.1244 42.2072C80.0302 38.2292 90.0308 45.5855 88.7221 52.7918C87.5108 59.4601 87.9794 67.1868 89.9335 72.5497C91.8877 77.9125 91.1803 94.1422 77.015 94.0275C62.8497 93.9129 60.2589 87.5621 59.7991 78.9269C59.2421 68.554 64.91 67.6543 66.1656 62.3532Z" fill="#1D1D2C"/>
<path d="M45.7306 80.6992C45.4049 80.6582 45.0865 80.5721 44.7845 80.4434C44.113 80.1842 43.534 79.7313 43.1216 79.1425C42.7091 78.5537 42.4817 77.8557 42.4684 77.1375C42.4551 76.4194 42.6565 75.7135 43.047 75.1099C43.4374 74.5064 43.9992 74.0325 44.6607 73.7487C47.5787 72.3374 63.3002 67.6361 67.2261 65.8985C71.4704 64.0109 76.4928 70.0617 72.2839 73.2283C71.3997 73.9075 66.0943 75.7068 60.453 77.3739C54.1131 79.235 47.3222 80.9374 45.7306 80.6992Z" fill="#FAEACB"/>
<path d="M45.7313 80.7008C45.4055 80.6598 45.0871 80.5737 44.7852 80.4451C45.6229 80.0268 46.5161 79.7298 47.4378 79.563C53.4152 78.3634 56.51 72.8418 56.51 72.8418L60.489 77.3755C54.1137 79.2366 47.3229 80.939 45.7313 80.7008Z" fill="#FAEACB"/>
<path d="M48.4538 76.1673C45.0496 71.5277 34.0586 64.4449 33.0064 61.1725C31.9542 57.9001 32.3167 52.8018 29.6375 52.4755C26.9583 52.1491 26.2156 53.3575 26.189 56.4359C26.189 58.0324 25.0749 60.2904 28.1609 62.7513C31.2468 65.2123 37.348 75.3734 41.3623 79.5102C45.3767 83.647 50.7617 79.3074 48.4538 76.1673Z" fill="#FAEACB"/>
<path d="M57.8362 78.742C64.6801 76.9779 71.1792 73.7673 72.2402 72.9734C76.4492 69.8069 71.4621 64.0118 67.2179 65.9171C65.0161 66.8873 59.1802 68.4926 53.8926 70.2303C55.0067 75.0727 56.8813 77.86 57.8362 78.742Z" fill="#EBA63F"/>
<path d="M81.7718 89.0621C82.4615 86.9629 83.6464 85.1458 87.1479 78.1424C88.5096 75.408 89.8801 73.3352 89.4292 71.8975C88.8456 70.0716 86.0072 69.2513 83.947 68.7927C80.2244 68.0253 83.8674 59.4253 83.8674 59.4253C83.6906 57.4407 77.9431 53.3657 76.4753 62.5301C75.5203 68.5633 70.215 64.6294 68.5438 65.4144C66.2979 66.5346 65.7673 69.8864 65.0069 71.5888C64.2465 73.2911 61.1959 74.8171 60.8776 78.1336C60.7514 79.0097 60.9713 79.9005 61.491 80.618C62.0106 81.3355 62.7894 81.8236 63.6629 81.9793C64.5655 83.6957 64.9697 85.6294 64.83 87.5627C64.3329 90.1698 63.244 92.6289 61.6468 94.7513C67.456 98.9247 74.6852 100.634 81.7541 99.5056C81.7541 99.5056 79.6939 95.3511 81.7718 89.0621Z" fill="#FAEACB"/>
<path d="M83.947 68.7917C80.2244 68.0243 83.8675 59.4243 83.8675 59.4243C83.7702 58.3218 81.7895 57.572 79.9415 58.1013C81.0291 58.6393 82.7445 64.2756 79.5436 71.332C78.6594 73.3431 76.104 74.1193 73.9199 74.1016C73.9199 74.1016 86.6793 79.1469 87.1833 78.1238C88.5096 75.4071 86.0073 69.2151 83.947 68.7917Z" fill="#FAEACB"/>
<path d="M81.7629 89.0615C82.4614 86.9622 83.6463 85.1452 87.1478 78.1418C88.5095 75.4074 89.8801 73.3346 89.4203 71.8969C88.9074 70.2563 86.5554 69.3918 84.5924 68.9244C81.1705 73.4493 75.9093 75.2134 72.7527 72.8936C70.7101 71.4117 70.0292 68.5892 70.6659 65.5373C69.9898 65.287 69.2547 65.241 68.5526 65.405C66.2978 66.534 65.7584 69.8858 65.0157 71.5793C64.2729 73.2729 61.2047 74.8076 60.8864 78.1241C60.7602 79.0003 60.9801 79.8911 61.4998 80.6086C62.0194 81.3261 62.7981 81.8142 63.6717 81.9699C64.5729 83.6897 64.9741 85.6267 64.83 87.562C64.3318 90.1704 63.2397 92.6299 61.6379 94.7507C67.4502 98.9246 74.6824 100.634 81.7541 99.505C81.7541 99.505 79.685 95.3593 81.7629 89.0615Z" fill="#EBA63F"/>
<path d="M81.7632 89.0627C82.4618 86.9635 83.6466 85.1465 87.1482 78.143C88.5099 75.4086 89.8804 73.3358 89.4206 71.8981C88.9255 70.3104 86.7149 69.4548 84.7961 68.9785C84.6812 69.2872 84.5574 69.6048 84.4159 69.9135C83.5461 71.8454 82.1962 73.5238 80.494 74.7896C78.7919 76.0553 76.7939 76.8665 74.6894 77.1463L76.7497 78.0283C77.8738 78.5965 78.7301 79.5813 79.135 80.7717C79.54 81.9621 79.4614 83.2634 78.916 84.3967C78.5331 85.1828 77.938 85.8469 77.1976 86.3143C76.4573 86.7817 75.6009 87.034 74.7248 87.0429L72.5231 91.9735C72.1376 92.8273 71.9717 93.7636 72.0406 94.6976C72.1095 95.6315 72.4109 96.5335 72.9176 97.3219C73.4243 98.1102 74.1201 98.76 74.9421 99.2122C75.7642 99.6645 76.6863 99.905 77.6251 99.9119C79.01 99.9362 80.3938 99.818 81.7544 99.5591C81.7544 99.5591 79.6853 95.3606 81.7632 89.0627Z" fill="#EBA63F"/>
<path d="M73.5482 53.9206C73.5482 53.9206 74.2379 45.797 76.6518 44.9325C79.0658 44.0681 81.073 43.7682 83.0094 46.1498C84.3001 47.532 85.1014 49.2979 85.2907 51.1774C85.2907 51.1774 89.3228 53.2326 86.9354 58.4191C84.548 63.6055 77.8721 62.2295 74.9011 58.8072C74.9011 58.8072 71.877 60.73 70.6391 57.7752C69.4012 54.8203 71.3819 54.1323 73.5482 53.9206Z" fill="#FAEACB"/>
<path d="M73.5482 53.9213C73.5482 53.9213 74.2379 45.7977 76.6518 44.9332C78.5883 44.2452 80.2683 43.9101 81.8422 45.0303C80.0738 45.0303 75.9533 53.1187 76.9348 57.0438C77.1716 57.9365 77.6326 58.7542 78.2742 59.4198C78.9158 60.0854 79.7169 60.5769 80.6018 60.848C81.4868 61.119 82.4263 61.1605 83.3318 60.9687C84.2373 60.7769 85.0789 60.358 85.777 59.7517C86.1397 59.4398 86.4687 59.091 86.7585 58.7108C84.2739 63.5445 77.819 62.1596 74.9011 58.8079C74.9011 58.8079 71.877 60.7307 70.6391 57.7759C69.4012 54.821 71.3819 54.133 73.5482 53.9213Z" fill="#FAEACB"/>
<path d="M85.1852 46.7143C85.1852 46.7143 81.1355 47.1377 78.3502 45.5324C75.5649 43.9271 74.5215 44.5974 74.5215 44.5974C80.4281 39.9314 85.1852 46.7143 85.1852 46.7143Z" fill="#1D1D2C"/>
<path d="M76.7321 44.4665C78.0143 45.0399 78.9339 47.5801 77.0062 51.223C75.0786 54.8659 76.9001 58.2088 74.2209 56.8328C71.5417 55.4568 71.4268 55.1481 70.5249 52.5373C69.623 49.9264 73.9026 43.1964 76.7321 44.4665Z" fill="#1D1D2C"/>
<path d="M89.6677 142.426C95.7866 139.78 103.63 139.78 103.63 139.78C100.296 137.239 92.8598 137.134 76.9614 146.086C76.2806 146.466 75.5378 146.845 74.7686 147.224C79.8364 145.957 84.8138 144.354 89.6677 142.426Z" fill="#1D1D2C"/>
<path d="M86.7059 68.7576C90.7999 67.461 103.559 61.3925 106.681 60.5104C107.442 60.2711 108.26 60.2869 109.011 60.5555C109.762 60.8241 110.405 61.3308 110.84 61.9979C111.275 62.665 111.479 63.456 111.421 64.2498C111.363 65.0436 111.046 65.7966 110.518 66.3937C108.555 68.7311 89.898 77.9573 87.5283 78.1514C82.2494 78.5924 82.2848 70.1688 86.7059 68.7576Z" fill="#FAEACB"/>
<path d="M106.203 61.9837C105.044 62.4071 103.939 62.9452 102.807 63.4038C100.561 64.2859 98.2093 64.921 95.9369 65.7677C91.5158 67.4083 87.5368 69.4988 86.1132 74.35C85.7344 75.5869 85.6917 76.9018 85.9894 78.1605C83.9203 75.8583 84.6277 69.3929 86.6879 68.6961C90.7553 67.3201 101.958 62.1249 105.08 61.2428C106.083 60.95 107.156 60.9965 108.13 61.3751C107.485 61.5956 106.831 61.7897 106.203 61.9837Z" fill="#FAEACB"/>
<path d="M100.155 72.9822C93.9031 76.237 88.7304 78.3627 87.4041 78.4685C82.0987 78.8919 82.3551 70.0185 86.7763 68.6161C89.0753 67.884 92.3115 66.1993 97.387 63.9941C99.8363 68.3603 100.278 71.6856 100.155 72.9822Z" fill="#EBA63F"/>
<path d="M108.148 67.7245C108.148 67.7245 110.872 66.0839 111.393 64.6373C111.915 63.1908 105.761 61.1797 105.761 61.1797L104.7 62.6439L103.983 64.8314L105.938 67.7598L108.148 67.7245Z" fill="#FAEACB"/>
<path d="M108.784 42.2516C109.059 39.6672 108.669 38.8381 108.669 38.8381C108.227 36.8359 107.653 36.8447 107.918 35.2129C108.104 34.0045 109.624 37.6385 109.837 37.1534C110.843 34.8906 112.425 32.9294 114.426 31.4642C115.434 30.7762 115.593 31.4642 114.983 32.0199C112.33 34.666 115.407 35.698 115.08 37.2151C114.629 39.3409 113.568 39.482 112.914 40.7963C112.861 40.9109 112.808 41.0344 112.755 41.1755C111.932 44.8096 112.755 58.8782 112.171 63.703C111.587 68.5278 105.203 68.2191 105.15 64.885C105.088 60.7129 108.387 46.9441 108.784 42.2516Z" fill="#FAEACB"/>
</g>
<path d="M25.6941 54.6273C25.9063 55.0419 26.5253 55.7122 27.0647 55.4388C27.1294 55.407 27.1866 55.3619 27.2327 55.3065C27.2884 55.615 27.3929 55.9127 27.5422 56.1885C27.887 56.7971 28.7536 57.5998 29.3814 56.8501C29.6214 56.5471 29.7824 56.1895 29.85 55.8092C29.9953 56.0978 30.2089 56.3466 30.4724 56.5341C30.7359 56.7216 31.0412 56.8422 31.362 56.8853C32.4319 57.0353 32.6707 56.2503 32.6795 55.4035C33.0774 56.1444 33.8555 57.1676 34.5983 56.3649C34.961 55.8031 35.1796 55.161 35.2349 54.495C35.3853 53.6749 35.4387 52.8401 35.3941 52.0076C35.3981 51.9754 35.3981 51.9428 35.3941 51.9106C35.4189 51.8547 35.4278 51.7931 35.42 51.7324C35.4123 51.6718 35.388 51.6145 35.3499 51.5666C34.8017 50.8169 33.6345 50.1818 32.989 51.1609C32.814 51.4175 32.6742 51.6963 32.5734 51.99C32.3966 51.2314 32.0429 50.6228 31.2648 50.6493C30.4866 50.6757 29.9915 51.4519 29.7439 52.2987C29.7476 52.2842 29.7476 52.2691 29.7439 52.2546C29.4344 51.9723 29.0277 51.6019 28.559 51.7254C28.3776 51.8086 28.217 51.9309 28.0886 52.0834C27.9601 52.2359 27.8672 52.4148 27.8163 52.6074C27.7813 52.5237 27.7145 52.4571 27.6306 52.4222C27.3319 52.3124 27.0068 52.2956 26.6984 52.3739C26.3899 52.4523 26.1125 52.6221 25.9027 52.8609C25.693 53.0998 25.5607 53.3965 25.5235 53.7118C25.4863 54.0272 25.5458 54.3464 25.6941 54.6273Z" fill="#FAEACB"/>
<path d="M65.1926 0.240234H34.9344C33.8197 0.242571 32.7514 0.685947 31.964 1.47307C31.1766 2.2602 30.7344 3.32678 30.7344 4.43878V20.4479C30.7344 21.5599 31.1766 22.6265 31.964 23.4137C32.7514 24.2008 33.8197 24.6442 34.9344 24.6465H54.2194L60.577 32.2674C60.6811 32.4038 60.8254 32.5042 60.9896 32.5546C61.1539 32.605 61.3298 32.6028 61.4928 32.5483C61.6557 32.4938 61.7974 32.3897 61.898 32.2508C61.9986 32.1118 62.053 31.9449 62.0536 31.7734L60.1349 24.6465H65.1926C66.3089 24.6465 67.3795 24.2041 68.1688 23.4168C68.9581 22.6294 69.4015 21.5615 69.4015 20.4479V4.43878C69.4015 3.32526 68.9581 2.25734 68.1688 1.46996C67.3795 0.68258 66.3089 0.240234 65.1926 0.240234Z" fill="#EEBA5B"/>
<path d="M47.0488 16.4172L39.0908 12.9596V11.0455L47.0488 7.58789V9.84593L41.4782 11.9717L47.0488 14.168V16.4172Z" fill="white"/>
<path d="M47.791 17.9334L50.6559 5.91992H52.3359L49.4357 17.9334H47.791Z" fill="white"/>
<path d="M53.0879 16.4162V14.1758L58.6674 11.9795L53.0879 9.81846V7.5957L61.0459 11.0357V12.9321L53.0879 16.4162Z" fill="white"/>
<defs>
<linearGradient id="paint0_linear_2117_13897" x1="-0.779581" y1="90.9328" x2="229.933" y2="31.5705" gradientUnits="userSpaceOnUse">
<stop stop-color="white"/>
<stop offset="1" stop-color="#D3DBEB"/>
</linearGradient>
</defs>
</svg>
