<svg width="299" height="220" viewBox="0 0 299 220" fill="none" xmlns="http://www.w3.org/2000/svg">
<path d="M216.06 77.8675C215.927 77.8675 215.8 77.8148 215.706 77.721C215.613 77.6273 215.56 77.5001 215.56 77.3675V73.9075C215.56 73.7749 215.613 73.6477 215.706 73.5539C215.8 73.4602 215.927 73.4075 216.06 73.4075C216.193 73.4075 216.32 73.4602 216.413 73.5539C216.507 73.6477 216.56 73.7749 216.56 73.9075V77.3675C216.56 77.5001 216.507 77.6273 216.413 77.721C216.32 77.8148 216.193 77.8675 216.06 77.8675ZM216.06 69.4075C215.927 69.4075 215.8 69.3548 215.706 69.261C215.613 69.1673 215.56 69.0401 215.56 68.9075V63.9075C215.56 63.7749 215.613 63.6477 215.706 63.5539C215.8 63.4602 215.927 63.4075 216.06 63.4075C216.193 63.4075 216.32 63.4602 216.413 63.5539C216.507 63.6477 216.56 63.7749 216.56 63.9075V68.9075C216.56 69.0401 216.507 69.1673 216.413 69.261C216.32 69.3548 216.193 69.4075 216.06 69.4075ZM216.06 59.4075C215.927 59.4075 215.8 59.3548 215.706 59.261C215.613 59.1673 215.56 59.0401 215.56 58.9075V53.9075C215.56 53.7749 215.613 53.6477 215.706 53.5539C215.8 53.4602 215.927 53.4075 216.06 53.4075C216.193 53.4075 216.32 53.4602 216.413 53.5539C216.507 53.6477 216.56 53.7749 216.56 53.9075V58.9075C216.56 59.0401 216.507 59.1673 216.413 59.261C216.32 59.3548 216.193 59.4075 216.06 59.4075ZM216.06 49.4075C215.927 49.4075 215.8 49.3548 215.706 49.261C215.613 49.1673 215.56 49.0401 215.56 48.9075V46.7775C215.561 45.8789 215.399 44.9876 215.08 44.1475C215.056 44.0865 215.045 44.0214 215.046 43.9559C215.048 43.8904 215.063 43.8259 215.09 43.7662C215.117 43.7066 215.156 43.6529 215.204 43.6085C215.252 43.564 215.308 43.5297 215.37 43.5075C215.493 43.4619 215.63 43.4668 215.749 43.5211C215.869 43.5754 215.963 43.6747 216.01 43.7975C216.38 44.754 216.567 45.7718 216.56 46.7975V48.9075C216.56 49.0401 216.507 49.1673 216.413 49.261C216.32 49.3548 216.193 49.4075 216.06 49.4075ZM212.45 40.6575C212.354 40.6557 212.261 40.628 212.18 40.5775C210.989 39.8057 209.599 39.3958 208.18 39.3975H207.69C207.557 39.3975 207.43 39.3448 207.336 39.251C207.243 39.1573 207.19 39.0301 207.19 38.8975C207.193 38.7657 207.246 38.64 207.339 38.5468C207.432 38.4535 207.558 38.4 207.69 38.3975H208.18C209.791 38.3934 211.369 38.8591 212.72 39.7375C212.831 39.8092 212.909 39.9221 212.938 40.0515C212.966 40.1808 212.941 40.316 212.87 40.4275C212.824 40.4973 212.762 40.5547 212.689 40.5948C212.615 40.6349 212.533 40.6565 212.45 40.6575ZM202.69 39.3975H197.69C197.557 39.3975 197.43 39.3448 197.336 39.251C197.243 39.1573 197.19 39.0301 197.19 38.8975C197.193 38.7657 197.246 38.64 197.339 38.5468C197.432 38.4535 197.558 38.4 197.69 38.3975H202.69C202.823 38.3975 202.95 38.4502 203.043 38.5439C203.137 38.6377 203.19 38.7649 203.19 38.8975C203.19 38.9631 203.177 39.0282 203.152 39.0888C203.127 39.1495 203.09 39.2046 203.043 39.251C202.997 39.2975 202.942 39.3343 202.881 39.3594C202.821 39.3846 202.756 39.3975 202.69 39.3975ZM192.69 39.3975H187.69C187.557 39.3975 187.43 39.3448 187.336 39.251C187.243 39.1573 187.19 39.0301 187.19 38.8975C187.193 38.7657 187.246 38.64 187.339 38.5468C187.432 38.4535 187.558 38.4 187.69 38.3975H192.69C192.823 38.3975 192.95 38.4502 193.043 38.5439C193.137 38.6377 193.19 38.7649 193.19 38.8975C193.19 38.9631 193.177 39.0282 193.152 39.0888C193.127 39.1495 193.09 39.2046 193.043 39.251C192.997 39.2975 192.942 39.3343 192.881 39.3594C192.821 39.3846 192.756 39.3975 192.69 39.3975ZM182.69 39.3975H177.69C177.557 39.3975 177.43 39.3448 177.336 39.251C177.243 39.1573 177.19 39.0301 177.19 38.8975C177.193 38.7657 177.246 38.64 177.339 38.5468C177.432 38.4535 177.558 38.4 177.69 38.3975H182.69C182.823 38.3975 182.95 38.4502 183.043 38.5439C183.137 38.6377 183.19 38.7649 183.19 38.8975C183.19 38.9631 183.177 39.0282 183.152 39.0888C183.127 39.1495 183.09 39.2046 183.043 39.251C182.997 39.2975 182.942 39.3343 182.881 39.3594C182.821 39.3846 182.756 39.3975 182.69 39.3975ZM172.69 39.3975H167.69C167.557 39.3975 167.43 39.3448 167.336 39.251C167.243 39.1573 167.19 39.0301 167.19 38.8975C167.193 38.7657 167.246 38.64 167.339 38.5468C167.432 38.4535 167.558 38.4 167.69 38.3975H172.69C172.823 38.3975 172.95 38.4502 173.043 38.5439C173.137 38.6377 173.19 38.7649 173.19 38.8975C173.19 38.9631 173.177 39.0282 173.152 39.0888C173.127 39.1495 173.09 39.2046 173.043 39.251C172.997 39.2975 172.942 39.3343 172.881 39.3594C172.821 39.3846 172.756 39.3975 172.69 39.3975Z" fill="#BAE1FD"/>
<path d="M265.61 76.7882V153.508C265.61 153.934 265.526 154.355 265.363 154.748C265.201 155.141 264.962 155.498 264.661 155.799C264.36 156.1 264.003 156.339 263.61 156.502C263.217 156.664 262.795 156.748 262.37 156.748H157.37C156.511 156.748 155.687 156.407 155.079 155.799C154.471 155.192 154.13 154.368 154.13 153.508V76.7982C154.13 75.7002 154.566 74.6472 155.343 73.8708C156.119 73.0944 157.172 72.6582 158.27 72.6582H261.47C262.013 72.6569 262.551 72.7628 263.054 72.9697C263.556 73.1767 264.012 73.4807 264.397 73.8643C264.781 74.248 265.086 74.7037 265.295 75.2054C265.503 75.7071 265.61 76.245 265.61 76.7882Z" fill="#D3D8EA"/>
<path d="M265.61 86.9175H154.11V76.7975C154.109 76.2529 154.215 75.7135 154.422 75.2101C154.63 74.7066 154.934 74.2491 155.319 73.8636C155.704 73.4781 156.16 73.1722 156.663 72.9636C157.166 72.7549 157.705 72.6475 158.25 72.6475H261.47C262.015 72.6475 262.554 72.7549 263.057 72.9636C263.56 73.1722 264.016 73.4781 264.401 73.8636C264.786 74.2491 265.09 74.7066 265.298 75.2101C265.505 75.7135 265.611 76.2529 265.61 76.7975V86.9175Z" fill="#1D1D2C"/>
<path d="M176.93 79.7877C176.93 79.3545 177.058 78.9311 177.299 78.571C177.54 78.2108 177.882 77.9301 178.282 77.7644C178.682 77.5986 179.122 77.5552 179.547 77.6397C179.972 77.7242 180.362 77.9328 180.669 78.2391C180.975 78.5454 181.183 78.9356 181.268 79.3604C181.352 79.7852 181.309 80.2256 181.143 80.6257C180.977 81.0259 180.697 81.3679 180.337 81.6086C179.976 81.8492 179.553 81.9777 179.12 81.9777C178.539 81.9777 177.982 81.7469 177.571 81.3362C177.161 80.9255 176.93 80.3685 176.93 79.7877Z" fill="#B2CDFA"/>
<path d="M168.5 79.7877C168.5 79.3545 168.628 78.9311 168.869 78.571C169.11 78.2108 169.452 77.9301 169.852 77.7644C170.252 77.5986 170.692 77.5552 171.117 77.6397C171.542 77.7242 171.932 77.9328 172.239 78.2391C172.545 78.5454 172.753 78.9356 172.838 79.3604C172.922 79.7852 172.879 80.2256 172.713 80.6257C172.548 81.0259 172.267 81.3679 171.907 81.6086C171.547 81.8492 171.123 81.9777 170.69 81.9777C170.109 81.9777 169.552 81.7469 169.141 81.3362C168.731 80.9255 168.5 80.3685 168.5 79.7877Z" fill="#BAE1FD"/>
<path d="M160.07 79.7877C160.07 79.3545 160.199 78.9311 160.439 78.571C160.68 78.2108 161.022 77.9301 161.422 77.7644C161.822 77.5986 162.262 77.5552 162.687 77.6397C163.112 77.7242 163.502 77.9328 163.809 78.2391C164.115 78.5454 164.323 78.9356 164.408 79.3604C164.492 79.7852 164.449 80.2256 164.283 80.6257C164.118 81.0259 163.837 81.3679 163.477 81.6086C163.117 81.8492 162.693 81.9777 162.26 81.9777C161.679 81.9777 161.122 81.7469 160.712 81.3362C160.301 80.9255 160.07 80.3685 160.07 79.7877Z" fill="white"/>
<path d="M255.17 78.1777L256.26 77.0977L257.81 78.6477L259.36 77.0977L260.44 78.1777L258.89 79.7277L260.44 81.2777L259.36 82.3577L257.81 80.8077L256.26 82.3577L255.17 81.2777L256.72 79.7277L255.17 78.1777Z" fill="white"/>
<path d="M180.1 146.138L180.06 144.298H164.46L164.49 146.138H180.1Z" fill="#B2CDFA"/>
<path d="M201.71 146.138L201.67 144.298H186.06L186.1 146.138H201.71Z" fill="#B2CDFA"/>
<path d="M174.01 140.808L173.97 138.978H164.77L164.81 140.808H174.01Z" fill="#B2CDFA"/>
<path d="M184.07 135.278L184.04 133.448H164.58L164.62 135.278H184.07Z" fill="#B2CDFA"/>
<path d="M177.75 140.808L177.71 138.978H174.92L174.96 140.808H177.75Z" fill="#B2CDFA"/>
<path d="M195.62 140.808L195.58 138.978H186.38L186.42 140.808H195.62Z" fill="#B2CDFA"/>
<path d="M205.68 135.278L205.64 133.448H186.19L186.23 135.278H205.68Z" fill="#B2CDFA"/>
<path d="M199.36 140.808L199.32 138.978H196.53L196.56 140.808H199.36Z" fill="#B2CDFA"/>
<path d="M228.9 146.138L228.86 144.298H213.26L213.3 146.138H228.9Z" fill="#B2CDFA"/>
<path d="M250.51 146.138L250.47 144.298H234.86L234.9 146.138H250.51Z" fill="#B2CDFA"/>
<path d="M222.81 140.808L222.77 138.978H213.58L213.61 140.808H222.81Z" fill="#B2CDFA"/>
<path d="M232.87 135.278L232.84 133.448H213.38L213.42 135.278H232.87Z" fill="#B2CDFA"/>
<path d="M226.55 140.808L226.51 138.978H223.72L223.76 140.808H226.55Z" fill="#B2CDFA"/>
<path d="M244.42 140.808L244.38 138.978H235.18L235.22 140.808H244.42Z" fill="#B2CDFA"/>
<path d="M254.48 135.278L254.44 133.448H234.99L235.03 135.278H254.48Z" fill="#BAE1FD"/>
<path d="M248.16 140.808L248.12 138.978H245.33L245.36 140.808H248.16Z" fill="#B2CDFA"/>
<path d="M180.18 117.927L166.08 111.817V108.427L180.16 102.317V106.317L170.34 110.087L180.17 113.977L180.18 117.927Z" fill="#BAE1FD"/>
<path d="M181.48 120.628L186.55 99.3682H189.55L184.43 120.628H181.48Z" fill="#BAE1FD"/>
<path d="M190.83 117.938V113.938L200.67 110.058L190.82 106.238V102.328L204.94 108.418V111.778L190.83 117.938Z" fill="#BAE1FD"/>
<path d="M245.61 96.5078H221.86V120.258H245.61V96.5078Z" fill="#BAE1FD"/>
<path d="M223.88 118.628L230.83 104.848L234.98 113.548L237.89 108.948L243.57 118.578L223.88 118.628Z" fill="white"/>
<path d="M236.82 103.238C236.818 103.542 236.726 103.839 236.555 104.091C236.384 104.344 236.142 104.539 235.86 104.654C235.578 104.769 235.268 104.797 234.97 104.736C234.671 104.675 234.398 104.526 234.184 104.309C233.97 104.093 233.825 103.817 233.768 103.518C233.71 103.219 233.743 102.91 233.861 102.629C233.979 102.348 234.178 102.109 234.433 101.942C234.687 101.774 234.985 101.686 235.29 101.688C235.492 101.689 235.692 101.73 235.879 101.809C236.065 101.887 236.234 102.002 236.376 102.146C236.518 102.29 236.63 102.46 236.707 102.647C236.783 102.835 236.821 103.035 236.82 103.238Z" fill="white"/>
<path d="M243.87 98.0008L223.382 118.539L223.601 118.758L244.089 98.2198L243.87 98.0008Z" fill="#FDFCFF"/>
<path d="M223.591 98.0171L223.372 98.2363L243.885 118.749L244.104 118.53L223.591 98.0171Z" fill="#FDFCFF"/>
<path d="M243.57 118.948C243.07 118.948 243 118.838 243 118.718C243 118.598 243.07 118.488 243.57 118.488C244.07 118.488 244.15 118.608 244.15 118.718C244.15 118.828 244.08 118.948 243.57 118.948Z" fill="#1D1D2C"/>
<path d="M241.89 118.948C241.39 118.948 241.32 118.838 241.32 118.718C241.32 118.598 241.39 118.488 241.89 118.488C242.39 118.488 242.47 118.608 242.47 118.718C242.47 118.828 242.4 118.948 241.89 118.948Z" fill="#1D1D2C"/>
<path d="M240.21 118.948C239.71 118.948 239.64 118.838 239.64 118.718C239.64 118.598 239.71 118.488 240.21 118.488C240.71 118.488 240.79 118.608 240.79 118.718C240.79 118.828 240.72 118.948 240.21 118.948Z" fill="#1D1D2C"/>
<path d="M238.54 118.948C238.03 118.948 237.96 118.838 237.96 118.718C237.96 118.598 238.03 118.488 238.54 118.488C239.05 118.488 239.11 118.608 239.11 118.718C239.11 118.828 239 118.948 238.54 118.948Z" fill="#1D1D2C"/>
<path d="M236.86 118.948C236.35 118.948 236.28 118.838 236.28 118.718C236.28 118.598 236.35 118.488 236.86 118.488C237.37 118.488 237.43 118.608 237.43 118.718C237.43 118.828 237.36 118.948 236.86 118.948Z" fill="#1D1D2C"/>
<path d="M235.18 118.948C234.67 118.948 234.6 118.838 234.6 118.718C234.6 118.598 234.67 118.488 235.18 118.488C235.69 118.488 235.75 118.608 235.75 118.718C235.75 118.828 235.68 118.948 235.18 118.948Z" fill="#1D1D2C"/>
<path d="M233.5 118.948C232.99 118.948 232.92 118.838 232.92 118.718C232.92 118.598 232.99 118.488 233.5 118.488C234.01 118.488 234.07 118.608 234.07 118.718C234.07 118.828 234 118.948 233.5 118.948Z" fill="#1D1D2C"/>
<path d="M231.82 118.948C231.31 118.948 231.24 118.838 231.24 118.718C231.24 118.598 231.31 118.488 231.82 118.488C232.33 118.488 232.39 118.608 232.39 118.718C232.39 118.828 232.32 118.948 231.82 118.948Z" fill="#1D1D2C"/>
<path d="M230.14 118.948C229.63 118.948 229.56 118.838 229.56 118.718C229.56 118.598 229.63 118.488 230.14 118.488C230.65 118.488 230.71 118.608 230.71 118.718C230.71 118.828 230.64 118.948 230.14 118.948Z" fill="#1D1D2C"/>
<path d="M228.46 118.948C227.95 118.948 227.88 118.838 227.88 118.718C227.88 118.598 227.95 118.488 228.46 118.488C228.97 118.488 229.03 118.608 229.03 118.718C229.03 118.828 229 118.948 228.46 118.948Z" fill="#1D1D2C"/>
<path d="M226.78 118.948C226.27 118.948 226.2 118.838 226.2 118.718C226.2 118.598 226.27 118.488 226.78 118.488C227.29 118.488 227.35 118.608 227.35 118.718C227.35 118.828 227.28 118.948 226.78 118.948Z" fill="#1D1D2C"/>
<path d="M225.1 118.948C224.59 118.948 224.52 118.838 224.52 118.718C224.52 118.598 224.59 118.488 225.1 118.488C225.61 118.488 225.67 118.608 225.67 118.718C225.67 118.828 225.6 118.948 225.1 118.948Z" fill="#1D1D2C"/>
<path d="M223.71 119.028L223.59 118.938H223.26V118.628L223.1 118.478H223.26C223.26 118.128 223.38 118.078 223.48 118.078C223.58 118.078 223.69 118.078 223.7 118.498C223.87 118.498 223.99 118.578 223.99 118.708C223.99 118.838 223.87 118.898 223.71 118.918V119.028Z" fill="#1D1D2C"/>
<path d="M223.48 117.508C223.37 117.508 223.26 117.438 223.26 116.938C223.26 116.438 223.37 116.368 223.48 116.368C223.59 116.368 223.71 116.428 223.71 116.938C223.71 117.448 223.6 117.508 223.48 117.508Z" fill="#1D1D2C"/>
<path d="M223.48 115.868C223.37 115.868 223.26 115.808 223.26 115.298C223.26 114.788 223.37 114.728 223.48 114.728C223.59 114.728 223.71 114.798 223.71 115.298C223.71 115.798 223.6 115.868 223.48 115.868Z" fill="#1D1D2C"/>
<path d="M223.48 114.188C223.37 114.188 223.26 114.128 223.26 113.618C223.26 113.108 223.37 113.048 223.48 113.048C223.59 113.048 223.71 113.118 223.71 113.618C223.71 114.118 223.6 114.188 223.48 114.188Z" fill="#1D1D2C"/>
<path d="M223.48 112.508C223.37 112.508 223.26 112.448 223.26 111.938C223.26 111.428 223.37 111.368 223.48 111.368C223.59 111.368 223.71 111.438 223.71 111.938C223.71 112.438 223.6 112.508 223.48 112.508Z" fill="#1D1D2C"/>
<path d="M223.48 110.827C223.37 110.827 223.26 110.767 223.26 110.257C223.26 109.747 223.37 109.688 223.48 109.688C223.59 109.688 223.71 109.757 223.71 110.257C223.71 110.757 223.6 110.827 223.48 110.827Z" fill="#1D1D2C"/>
<path d="M223.48 109.148C223.37 109.148 223.26 109.088 223.26 108.578C223.26 108.068 223.37 108.008 223.48 108.008C223.59 108.008 223.71 108.078 223.71 108.578C223.71 109.078 223.6 109.148 223.48 109.148Z" fill="#1D1D2C"/>
<path d="M223.48 107.508C223.37 107.508 223.26 107.448 223.26 106.938C223.26 106.428 223.37 106.368 223.48 106.368C223.59 106.368 223.71 106.438 223.71 106.938C223.71 107.438 223.6 107.508 223.48 107.508Z" fill="#1D1D2C"/>
<path d="M223.48 105.797C223.37 105.797 223.26 105.727 223.26 105.217C223.26 104.707 223.37 104.647 223.48 104.647C223.59 104.647 223.71 104.717 223.71 105.217C223.71 105.717 223.6 105.797 223.48 105.797Z" fill="#1D1D2C"/>
<path d="M223.48 104.118C223.37 104.118 223.26 104.048 223.26 103.538C223.26 103.028 223.37 102.968 223.48 102.968C223.59 102.968 223.71 103.038 223.71 103.538C223.71 104.038 223.6 104.118 223.48 104.118Z" fill="#1D1D2C"/>
<path d="M223.48 102.438C223.37 102.438 223.26 102.368 223.26 101.858C223.26 101.348 223.37 101.288 223.48 101.288C223.59 101.288 223.71 101.358 223.71 101.858C223.71 102.358 223.6 102.438 223.48 102.438Z" fill="#1D1D2C"/>
<path d="M223.48 100.757C223.37 100.757 223.26 100.687 223.26 100.177C223.26 99.6674 223.37 99.6074 223.48 99.6074C223.59 99.6074 223.71 99.6774 223.71 100.177C223.71 100.677 223.6 100.757 223.48 100.757Z" fill="#1D1D2C"/>
<path d="M224.87 98.4375C224.36 98.4375 224.29 98.3175 224.29 98.2075C224.29 98.0975 224.36 97.9775 224.87 97.9775C225.38 97.9775 225.44 98.0875 225.44 98.2075C225.44 98.3275 225.37 98.4375 224.87 98.4375Z" fill="#1D1D2C"/>
<path d="M226.55 98.4375C226.04 98.4375 225.97 98.3175 225.97 98.2075C225.97 98.0975 226.04 97.9775 226.55 97.9775C227.06 97.9775 227.12 98.0875 227.12 98.2075C227.12 98.3275 227.05 98.4375 226.55 98.4375Z" fill="#1D1D2C"/>
<path d="M228.23 98.4375C227.72 98.4375 227.65 98.3175 227.65 98.2075C227.65 98.0975 227.72 97.9775 228.23 97.9775C228.74 97.9775 228.8 98.0875 228.8 98.2075C228.8 98.3275 228.73 98.4375 228.23 98.4375Z" fill="#1D1D2C"/>
<path d="M229.91 98.4375C229.4 98.4375 229.33 98.3175 229.33 98.2075C229.33 98.0975 229.4 97.9775 229.91 97.9775C230.42 97.9775 230.48 98.0875 230.48 98.2075C230.48 98.3275 230.41 98.4375 229.91 98.4375Z" fill="#1D1D2C"/>
<path d="M231.59 98.4375C231.08 98.4375 231.01 98.3175 231.01 98.2075C231.01 98.0975 231.08 97.9775 231.59 97.9775C232.1 97.9775 232.16 98.0875 232.16 98.2075C232.16 98.3275 232.09 98.4375 231.59 98.4375Z" fill="#1D1D2C"/>
<path d="M233.27 98.4375C232.76 98.4375 232.69 98.3175 232.69 98.2075C232.69 98.0975 232.76 97.9775 233.27 97.9775C233.78 97.9775 233.84 98.0875 233.84 98.2075C233.84 98.3275 233.77 98.4375 233.27 98.4375Z" fill="#1D1D2C"/>
<path d="M234.94 98.4375C234.44 98.4375 234.37 98.3175 234.37 98.2075C234.37 98.0975 234.44 97.9775 234.94 97.9775C235.44 97.9775 235.52 98.0875 235.52 98.2075C235.52 98.3275 235.45 98.4375 234.94 98.4375Z" fill="#1D1D2C"/>
<path d="M236.62 98.4375C236.12 98.4375 236.05 98.3175 236.05 98.2075C236.05 98.0975 236.12 97.9775 236.62 97.9775C237.12 97.9775 237.2 98.0875 237.2 98.2075C237.2 98.3275 237.13 98.4375 236.62 98.4375Z" fill="#1D1D2C"/>
<path d="M238.3 98.4375C237.8 98.4375 237.73 98.3175 237.73 98.2075C237.73 98.0975 237.8 97.9775 238.3 97.9775C238.8 97.9775 238.88 98.0875 238.88 98.2075C238.88 98.3275 238.81 98.4375 238.3 98.4375Z" fill="#1D1D2C"/>
<path d="M240 98.4375C239.5 98.4375 239.43 98.3175 239.43 98.2075C239.43 98.0975 239.5 97.9775 240 97.9775C240.5 97.9775 240.58 98.0875 240.58 98.2075C240.58 98.3275 240.49 98.4375 240 98.4375Z" fill="#1D1D2C"/>
<path d="M241.66 98.4375C241.16 98.4375 241.09 98.3175 241.09 98.2075C241.09 98.0975 241.16 97.9775 241.66 97.9775C242.16 97.9775 242.24 98.0875 242.24 98.2075C242.24 98.3275 242.17 98.4375 241.66 98.4375Z" fill="#1D1D2C"/>
<path d="M243.34 98.4375C242.84 98.4375 242.77 98.3175 242.77 98.2075C242.77 98.0975 242.84 97.9775 243.34 97.9775C243.84 97.9775 243.92 98.0875 243.92 98.2075C243.92 98.3275 243.85 98.4375 243.34 98.4375Z" fill="#1D1D2C"/>
<path d="M244 99.8082C243.89 99.8082 243.78 99.7382 243.78 99.2382C243.78 98.7382 243.89 98.6582 244 98.6582C244.11 98.6582 244.23 98.7282 244.23 99.2382C244.23 99.7482 244.11 99.8082 244 99.8082Z" fill="#1D1D2C"/>
<path d="M244 101.507C243.89 101.507 243.78 101.437 243.78 100.937C243.78 100.437 243.89 100.357 244 100.357C244.11 100.357 244.23 100.427 244.23 100.937C244.23 101.447 244.11 101.507 244 101.507Z" fill="#1D1D2C"/>
<path d="M244 103.168C243.89 103.168 243.78 103.098 243.78 102.598C243.78 102.098 243.89 102.018 244 102.018C244.11 102.018 244.23 102.088 244.23 102.598C244.23 103.108 244.11 103.168 244 103.168Z" fill="#1D1D2C"/>
<path d="M244 104.848C243.89 104.848 243.78 104.778 243.78 104.278C243.78 103.778 243.89 103.698 244 103.698C244.11 103.698 244.23 103.768 244.23 104.278C244.23 104.788 244.11 104.848 244 104.848Z" fill="#1D1D2C"/>
<path d="M244 106.507C243.89 106.507 243.78 106.437 243.78 105.937C243.78 105.437 243.89 105.357 244 105.357C244.11 105.357 244.23 105.427 244.23 105.937C244.23 106.447 244.11 106.507 244 106.507Z" fill="#1D1D2C"/>
<path d="M244 108.208C243.89 108.208 243.78 108.138 243.78 107.638C243.78 107.138 243.89 107.058 244 107.058C244.11 107.058 244.23 107.128 244.23 107.638C244.23 108.148 244.11 108.208 244 108.208Z" fill="#1D1D2C"/>
<path d="M244 109.888C243.89 109.888 243.78 109.818 243.78 109.308C243.78 108.798 243.89 108.738 244 108.738C244.11 108.738 244.23 108.808 244.23 109.308C244.23 109.808 244.11 109.888 244 109.888Z" fill="#1D1D2C"/>
<path d="M244 111.568C243.89 111.568 243.78 111.498 243.78 110.998C243.78 110.498 243.89 110.418 244 110.418C244.11 110.418 244.23 110.488 244.23 110.998C244.23 111.508 244.11 111.568 244 111.568Z" fill="#1D1D2C"/>
<path d="M244 113.248C243.89 113.248 243.78 113.178 243.78 112.668C243.78 112.158 243.89 112.098 244 112.098C244.11 112.098 244.23 112.168 244.23 112.668C244.23 113.168 244.11 113.248 244 113.248Z" fill="#1D1D2C"/>
<path d="M244 114.927C243.89 114.927 243.78 114.857 243.78 114.347C243.78 113.837 243.89 113.777 244 113.777C244.11 113.777 244.23 113.847 244.23 114.347C244.23 114.847 244.11 114.927 244 114.927Z" fill="#1D1D2C"/>
<path d="M244 116.608C243.89 116.608 243.78 116.538 243.78 116.028C243.78 115.518 243.89 115.458 244 115.458C244.11 115.458 244.23 115.528 244.23 116.028C244.23 116.528 244.11 116.608 244 116.608Z" fill="#1D1D2C"/>
<path d="M244 118.288C243.89 118.288 243.78 118.218 243.78 117.708C243.78 117.198 243.89 117.138 244 117.138C244.11 117.138 244.23 117.208 244.23 117.708C244.23 118.208 244.11 118.288 244 118.288Z" fill="#1D1D2C"/>
<path d="M244.76 117.748H243.24V119.268H244.76V117.748Z" fill="#1D1D2C"/>
<path d="M244.91 119.428H243.08V117.598H244.91V119.428ZM243.39 119.118H244.6V117.908H243.39V119.118Z" fill="#1D1D2C"/>
<path d="M224.24 117.958H222.72V119.478H224.24V117.958Z" fill="#1D1D2C"/>
<path d="M224.4 119.628H222.57V117.808H224.4V119.628ZM222.88 119.328H224.09V118.118H222.88V119.328Z" fill="#1D1D2C"/>
<path d="M244.76 97.2979H243.24V98.8178H244.76V97.2979Z" fill="#1D1D2C"/>
<path d="M244.91 98.9675H243.08V97.1475H244.91V98.9675ZM243.39 98.6675H244.6V97.5075H243.39V98.6675Z" fill="#1D1D2C"/>
<path d="M224.24 97.4482H222.72V98.9682H224.24V97.4482Z" fill="#1D1D2C"/>
<path d="M224.4 99.1179H222.57V97.2979H224.4V99.1179ZM222.88 98.8079H224.09V97.5978H222.88V98.8079Z" fill="#1D1D2C"/>
<path d="M179.2 19.0678V118.928C179.2 119.397 179.107 119.863 178.927 120.296C178.747 120.73 178.483 121.124 178.151 121.456C177.818 121.787 177.424 122.05 176.989 122.229C176.555 122.408 176.09 122.499 175.62 122.498H36.57C35.6232 122.498 34.7151 122.122 34.0456 121.452C33.3761 120.783 33 119.875 33 118.928V19.0778C33 17.8675 33.4801 16.7066 34.335 15.8499C35.1899 14.9931 36.3497 14.5105 37.56 14.5078H174.63C175.84 14.5078 177.001 14.9879 177.858 15.8428C178.715 16.6977 179.197 17.8575 179.2 19.0678Z" fill="white"/>
<path d="M179.2 30.2278H33V19.0678C33 17.8584 33.4804 16.6986 34.3356 15.8434C35.1908 14.9882 36.3506 14.5078 37.56 14.5078H174.63C175.84 14.5078 177.001 14.9879 177.858 15.8428C178.715 16.6977 179.197 17.8575 179.2 19.0678V30.2278Z" fill="#0B3E66"/>
<path d="M58.15 22.368C58.15 21.8914 58.2914 21.4254 58.5562 21.0291C58.821 20.6328 59.1974 20.3239 59.6378 20.1415C60.0781 19.9591 60.5627 19.9113 61.0302 20.0043C61.4977 20.0973 61.9271 20.3268 62.2642 20.6639C62.6012 21.0009 62.8307 21.4303 62.9237 21.8978C63.0167 22.3653 62.969 22.8499 62.7866 23.2903C62.6042 23.7306 62.2953 24.107 61.8989 24.3719C61.5026 24.6367 61.0367 24.778 60.56 24.778C59.9209 24.778 59.3079 24.5241 58.8559 24.0721C58.4039 23.6202 58.15 23.0072 58.15 22.368Z" fill="#B2CDFA"/>
<path d="M48.85 22.3675C48.848 21.8884 48.9883 21.4196 49.253 21.0203C49.5177 20.621 49.8949 20.3093 50.337 20.1246C50.779 19.9399 51.2659 19.8905 51.736 19.9828C52.206 20.075 52.6382 20.3047 52.9776 20.6428C53.3171 20.9808 53.5485 21.412 53.6427 21.8817C53.7369 22.3514 53.6896 22.8385 53.5067 23.2813C53.3239 23.7241 53.0137 24.1026 52.6155 24.369C52.2173 24.6353 51.7491 24.7775 51.27 24.7775C50.6299 24.7775 50.0159 24.5239 49.5623 24.0722C49.1088 23.6206 48.8526 23.0076 48.85 22.3675Z" fill="#BAE1FD"/>
<path d="M39.56 22.3674C39.5581 21.8892 39.6978 21.4212 39.9617 21.0223C40.2255 20.6235 40.6016 20.3118 41.0424 20.1265C41.4833 19.9412 41.9691 19.8907 42.4387 19.9814C42.9082 20.072 43.3404 20.2997 43.6806 20.6358C44.0208 20.9718 44.2538 21.4011 44.3503 21.8695C44.4467 22.3378 44.4022 22.8243 44.2224 23.2674C44.0426 23.7105 43.7356 24.0904 43.34 24.3592C42.9445 24.6279 42.4782 24.7735 42 24.7774C41.6814 24.7801 41.3654 24.7197 41.0701 24.5999C40.7748 24.4801 40.5061 24.3032 40.2794 24.0793C40.0527 23.8553 39.8725 23.5888 39.749 23.2951C39.6255 23.0013 39.5613 22.6861 39.56 22.3674Z" fill="white"/>
<path d="M167.69 20.5975L168.89 19.3975L170.6 21.1075L172.3 19.3975L173.5 20.5975L171.79 22.3075L173.5 24.0175L172.3 25.2075L170.6 23.4975L168.89 25.2075L167.69 24.0175L169.4 22.3075L167.69 20.5975Z" fill="white"/>
<path d="M82.25 35.9277L82.36 37.8577H114.68L114.57 35.9277H82.25Z" fill="#B2CDFA"/>
<path d="M98.1 41.748L98.22 43.678H150.79L150.67 41.748H98.1Z" fill="#B2CDFA"/>
<path d="M82.33 41.748L82.45 43.678H95.83L95.7 41.748H82.33Z" fill="#D3D8EA"/>
<path d="M82.18 47.5674L82.3 49.4974H109.05L108.86 47.5674H82.18Z" fill="#B2CDFA"/>
<path d="M110.73 47.5674L110.92 49.4974H137.13L137.01 47.5674H110.73Z" fill="#D3D8EA"/>
<path d="M58.78 47.5674L58.77 49.4974H71.91L71.93 47.5674H58.78Z" fill="#B2CDFA"/>
<path d="M42.8 41.748L42.78 43.678H64.17L64.18 41.748H42.8Z" fill="#B2CDFA"/>
<path d="M66.63 41.748L66.62 43.678H72.06L72.07 41.748H66.63Z" fill="#B2CDFA"/>
<path d="M61.43 35.9277L61.45 37.8577H72.3L72.31 35.9277H61.43Z" fill="#BAE1FD"/>
<path d="M48.57 35.9277L48.55 37.8577H59.25L59.23 35.9277H48.57Z" fill="#BAE1FD"/>
<path d="M58.61 69.3477L58.6 71.2877H71.75L71.76 69.3477H58.61Z" fill="#B2CDFA"/>
<path d="M42.63 63.5273L42.62 65.4673H64.01L64.02 63.5273H42.63Z" fill="#B2CDFA"/>
<path d="M66.47 63.5273L66.46 65.4673H71.9L71.91 63.5273H66.47Z" fill="#B2CDFA"/>
<path d="M58.4 81.5977L58.39 83.5377H71.54L71.55 81.5977H58.4Z" fill="#B2CDFA"/>
<path d="M42.42 75.7881L42.41 77.7181H63.8L63.81 75.7881H42.42Z" fill="#BAE1FD"/>
<path d="M66.26 75.7881L66.25 77.7181H71.69L71.7 75.7881H66.26Z" fill="#BAE1FD"/>
<path d="M61.27 57.708L61.28 59.648H72.14L72.15 57.708H61.27Z" fill="#F4F6FA"/>
<path d="M48.4 57.708L48.39 59.648H59.09L59.07 57.708H48.4Z" fill="#F0F8FF"/>
<path d="M117.89 35.9277L118.01 37.8577H127.82L127.7 35.9277H117.89Z" fill="#D3D8EA"/>
<path d="M154.05 41.748L154.17 43.678H169.87L169.75 41.748H154.05Z" fill="#B2CDFA"/>
<path d="M140.02 47.5674L140.13 49.4974H156.05L155.93 47.5674H140.02Z" fill="#B2CDFA"/>
<path d="M132.09 35.9277L132.33 37.8577H160.05L159.81 35.9277H132.09Z" fill="#B2CDFA"/>
<path d="M82.08 57.708L82.2 59.648H114.52L114.4 57.708H82.08Z" fill="#B2CDFA"/>
<path d="M97.93 63.5273L98.06 65.4673H150.62L150.51 63.5273H97.93Z" fill="#B2CDFA"/>
<path d="M82.17 63.5273L82.28 65.4673H95.66L95.54 63.5273H82.17Z" fill="#B2CDFA"/>
<path d="M82.02 69.3477L82.14 71.2877H108.89L108.7 69.3477H82.02Z" fill="#B2CDFA"/>
<path d="M110.57 69.3477L110.76 71.2877H136.97L136.85 69.3477H110.57Z" fill="#B2CDFA"/>
<path d="M117.73 57.708L117.85 59.648H127.65L127.54 57.708H117.73Z" fill="#B2CDFA"/>
<path d="M153.89 63.5273L154.01 65.4673H169.71L169.59 63.5273H153.89Z" fill="#B2CDFA"/>
<path d="M139.85 69.3477L139.97 71.2877H155.88L155.77 69.3477H139.85Z" fill="#D3D8EA"/>
<path d="M98.37 75.7881L98.5 77.7181H151.06L150.95 75.7881H98.37Z" fill="#B2CDFA"/>
<path d="M82.61 75.7881L82.72 77.7181H96.1L95.97 75.7881H82.61Z" fill="#B2CDFA"/>
<path d="M82.46 81.5977L82.58 83.5377H109.33L109.14 81.5977H82.46Z" fill="#B2CDFA"/>
<path d="M111 81.5977L111.19 83.5377H137.41L137.29 81.5977H111Z" fill="#D3D8EA"/>
<path d="M154.33 75.7881L154.45 77.7181H170.14L170.03 75.7881H154.33Z" fill="#D3D8EA"/>
<path d="M140.29 81.5977L140.41 83.5377H156.32L156.21 81.5977H140.29Z" fill="#B2CDFA"/>
<path d="M131.93 57.708L132.16 59.648H159.88L159.65 57.708H131.93Z" fill="#D3D8EA"/>
<path d="M58.18 101.638L58.17 103.578H71.32L71.33 101.638H58.18Z" fill="#B2CDFA"/>
<path d="M42.2 95.8281L42.19 97.7581H63.58L63.59 95.8281H42.2Z" fill="#B2CDFA"/>
<path d="M66.04 95.8281L66.03 97.7581H71.47L71.48 95.8281H66.04Z" fill="#B2CDFA"/>
<path d="M57.97 113.897L57.96 115.827H71.11L71.12 113.897H57.97Z" fill="#B2CDFA"/>
<path d="M41.99 108.078L41.98 110.008H63.37L63.38 108.078H41.99Z" fill="#BAE1FD"/>
<path d="M65.83 108.078L65.82 110.008H71.26L71.27 108.078H65.83Z" fill="#BAE1FD"/>
<path d="M60.83 90.0078L60.85 91.9378H71.71L71.72 90.0078H60.83Z" fill="#BAE1FD"/>
<path d="M47.97 90.0078L47.96 91.9378H58.65L58.64 90.0078H47.97Z" fill="#BAE1FD"/>
<path d="M81.65 90.0078L81.77 91.9378H114.09L113.97 90.0078H81.65Z" fill="#B2CDFA"/>
<path d="M97.5 95.8281L97.63 97.7581H150.19L150.08 95.8281H97.5Z" fill="#B2CDFA"/>
<path d="M81.74 95.8281L81.85 97.7581H95.23L95.11 95.8281H81.74Z" fill="#B2CDFA"/>
<path d="M81.59 101.638L81.7 103.578H108.46L108.27 101.638H81.59Z" fill="#B2CDFA"/>
<path d="M110.13 101.638L110.33 103.578H136.54L136.42 101.638H110.13Z" fill="#B2CDFA"/>
<path d="M117.3 90.0078L117.41 91.9378H127.22L127.11 90.0078H117.3Z" fill="#B2CDFA"/>
<path d="M153.46 95.8281L153.58 97.7581H169.28L169.16 95.8281H153.46Z" fill="#B2CDFA"/>
<path d="M139.42 101.638L139.54 103.578H155.45L155.34 101.638H139.42Z" fill="#D3D8EA"/>
<path d="M97.94 108.078L98.07 110.008H150.63L150.51 108.078H97.94Z" fill="#B2CDFA"/>
<path d="M82.18 108.078L82.29 110.008H95.67L95.54 108.078H82.18Z" fill="#B2CDFA"/>
<path d="M82.03 113.897L82.14 115.827H108.9L108.71 113.897H82.03Z" fill="#B2CDFA"/>
<path d="M110.57 113.897L110.76 115.827H136.98L136.86 113.897H110.57Z" fill="#D3D8EA"/>
<path d="M153.9 108.078L154.02 110.008H169.71L169.6 108.078H153.9Z" fill="#D3D8EA"/>
<path d="M139.86 113.897L139.98 115.827H155.89L155.77 113.897H139.86Z" fill="#B2CDFA"/>
<path d="M131.5 90.0078L131.73 91.9378H159.45L159.22 90.0078H131.5Z" fill="#D3D8EA"/>
<path d="M199 82.4079C196.07 82.0879 179.63 72.0579 176.21 70.1779C174.99 69.5079 178.31 64.0879 182.21 64.7679C184.36 65.1479 201.67 75.8979 203.29 78.1579C205.21 80.8079 202.82 82.8279 199 82.4079Z" fill="#FFD2A7"/>
<path d="M184.57 68.3874C181.57 67.8874 179.43 66.6874 176.65 67.9674C177.84 65.8474 179.65 64.3174 182.23 64.7674C184.17 65.1174 198.44 73.7674 202.4 77.2374C201.53 76.6074 188.54 69.0474 184.57 68.3874Z" fill="#FFBC8E"/>
<path d="M196.2 72.098C196.2 72.098 184.18 65.258 182 64.508C179.82 63.758 175.5 66.888 175.91 70.008C175.91 70.008 176.07 70.078 176.19 70.148C177.38 70.848 183.35 75.708 189.67 78.908C189.68 78.928 193.52 78.328 196.2 72.098Z" fill="#075085"/>
<path d="M196.2 72.0983C196.2 72.0983 184.18 65.2583 182 64.5083C179.82 63.7583 175.74 65.6683 175.83 68.5883C175.83 68.5883 175.94 68.7083 175.99 68.7483C176.04 68.7883 176.13 68.7483 176.34 68.5283C177.19 67.7283 179.88 65.4483 182.34 66.0883C186.11 67.0583 192.38 71.9983 196.2 72.0983Z" fill="#075085"/>
<path d="M205.07 82.2376C202.43 86.7476 192.93 93.4476 192.27 96.5176C191.61 99.5876 183.1 99.8976 181.1 98.5176C179.1 97.1376 180.32 95.7076 182.38 94.5176C183.69 93.7676 185.01 95.8276 188.38 94.6376C189.95 94.0876 195.27 84.1976 198.5 80.0376C201.73 75.8776 206.85 79.1876 205.07 82.2376Z" fill="#FFD2A7"/>
<path d="M198.6 82.6982C198.6 82.6982 198.4 81.6982 197.84 81.6282C197.28 81.5582 199.17 77.9482 199.17 77.9482H202.52C202.52 77.9482 203.35 78.2382 204.22 79.9482C205.09 81.6582 198.6 82.6982 198.6 82.6982Z" fill="#FFD2A7"/>
<path d="M192.37 192.508C191.762 190.377 190.709 188.4 189.28 186.708L193.5 184.018C194.435 185.896 195.645 187.625 197.09 189.148C198.5 190.618 197.36 195.258 193.83 196.148C193.67 196.108 192.92 195.158 192.37 192.508Z" fill="#FFD2A7"/>
<path d="M193.88 191.307C192.71 191.967 190.74 189.567 190.52 191.227C192.27 192.497 193.3 194.837 193 198.907C192.73 202.617 197 205.727 197 205.727L198.4 186.507C198.4 186.507 197.82 184.347 193.64 184.717C193.49 186.727 195.66 190.317 193.88 191.307Z" fill="#414267"/>
<path d="M194.71 184.508C194.393 185.163 193.952 185.751 193.41 186.238L193.25 186.388C192.072 187.418 190.667 188.155 189.15 188.538C189.15 188.538 160.54 153.628 161 150.508C161.22 149.118 164.62 142.058 170.79 146.178C174.12 148.408 178.26 153.878 183.13 165.238C183.25 165.508 183.37 165.778 183.48 166.058C186.68 173.608 194.71 184.508 194.71 184.508Z" fill="#414267"/>
<path d="M176.23 157.508L177.15 173.568C177.15 173.568 179.93 176.938 180.31 177.568C180.69 178.198 189.15 188.568 189.15 188.568L190.98 181.308L187.68 175.058L176.23 157.508Z" fill="#1D1D2C"/>
<path d="M194.71 184.508C194.393 185.164 193.952 185.751 193.41 186.238L193.25 186.388C187.91 180.268 180.88 168.968 178.48 162.818C177.18 159.478 175.2 155.208 173.54 151.768C172.32 149.248 171.28 147.168 170.81 146.238C174.14 148.468 178.28 153.938 183.15 165.298C183.27 165.568 183.39 165.838 183.5 166.118C186.68 173.608 194.71 184.508 194.71 184.508Z" fill="#1D1D2C"/>
<path d="M179.27 200.978C185.27 198.428 182.35 193.088 182.72 189.268L187.45 190.268C187.45 190.268 188.77 197.448 189.06 201.758C189.35 206.068 188.12 205.678 188.12 205.678L173.45 205.788C174.838 203.614 176.874 201.932 179.27 200.978Z" fill="#FFD2A7"/>
<path d="M179.13 201.038C180.464 200.528 181.614 199.629 182.43 198.458C183.03 197.618 185.96 198.518 186.43 200.148C187.187 200.655 188.09 200.901 189 200.848C189 201.148 189 201.438 189 201.718C189.29 206.038 188.06 205.638 188.06 205.638L173.39 205.748C173.982 204.618 174.796 203.619 175.782 202.81C176.768 202.001 177.907 201.398 179.13 201.038Z" fill="#414267"/>
<path d="M190.15 101.647C188.92 94.5174 187.24 94.4174 186.01 92.9174C184.01 90.4574 176.26 89.8274 173.84 94.2974C171.42 98.7674 171.91 100.907 172.39 110.297C172.87 119.687 178.15 144.297 178.03 151.207C177.91 158.117 187.82 160.997 187.29 150.877C186.76 140.757 191.58 109.887 190.15 101.647Z" fill="#414267"/>
<path d="M184.59 112.408L177.86 146.138C177.86 146.138 175.73 132.668 175.14 130.038C174.55 127.408 184.59 112.408 184.59 112.408Z" fill="#1D1D2C"/>
<path d="M187.64 152.907C187.41 150.967 187.36 149.577 187.28 147.627C186.93 139.337 177.66 145.017 177.69 147.207C177.69 149.957 178.41 151.427 178.01 160.927C177.631 167.562 178.478 174.21 180.51 180.537C181.437 184.25 182.023 188.039 182.26 191.857C186.54 193.337 188.26 191.857 188.26 191.857C188.26 191.857 188.46 181.707 188.95 173.557C189.44 165.407 188.19 157.427 187.64 152.907Z" fill="#414267"/>
<path d="M170.39 94.7983C166.18 107.798 157.98 144.948 158.28 146.578C158.62 148.498 166.45 160.738 168.23 152.498C170.99 139.678 197.52 99.4083 182.05 88.9683C176.37 85.1283 171.67 90.8283 170.39 94.7983Z" fill="#414267"/>
<path d="M186.14 84.268C186.25 82.128 186.88 80.118 188.35 72.658C188.93 69.758 189.68 67.468 188.88 66.228C187.97 64.828 185.56 64.628 183.6 64.688C180.89 64.688 176.05 65.078 172.14 65.048C170.922 65.1005 169.762 65.5782 168.86 66.398C167.286 67.9501 166.279 69.9854 166 72.178C165.73 73.948 163.27 76.178 163.83 79.368C163.938 80.2188 164.371 80.9949 165.038 81.5337C165.706 82.0724 166.555 82.332 167.41 82.258C168.71 83.6514 169.587 85.3853 169.94 87.258C170.147 89.8271 169.764 92.4096 168.82 94.808C175.319 97.2227 182.509 96.9674 188.82 94.098C188.82 94.098 185.81 90.688 186.14 84.268Z" fill="#BAE1FD"/>
<path d="M164.88 79.7881L164.36 80.7881C164.696 81.2637 165.148 81.6456 165.673 81.8976C166.198 82.1496 166.779 82.2633 167.36 82.2281C168.66 83.6215 169.537 85.3554 169.89 87.2281C173.44 82.0381 170.45 75.2881 170.45 75.2881L170.24 75.7881L164.88 79.7881Z" fill="#075085"/>
<path d="M175.15 72.0576C174.05 73.3776 160.42 89.0576 157.95 90.3076C155.05 91.8076 152.87 88.2376 154.37 84.7376C155.87 81.2376 164.67 69.2376 169.04 66.5776C173.75 63.7176 177.54 69.2176 175.15 72.0576Z" fill="#FFD2A7"/>
<path d="M156.5 80.2581C157.728 82.9746 159.458 85.4345 161.6 87.5081L178.17 69.4081L174 65.6881C174 65.6881 171.11 64.3581 167.49 67.3881C163.87 70.4181 158.4 78.5081 156.5 80.2581Z" fill="#BAE1FD"/>
<path d="M154.39 90.1176C150.68 86.4476 142.53 72.1176 139.72 70.7676C136.91 69.4176 133.06 65.6576 133.07 63.2376C133.08 60.8176 134.94 61.0076 137.07 62.0376C138.43 62.6976 139.83 63.5976 141.66 66.6876C143.49 69.7776 154.89 80.1476 158.12 84.3076C161.35 88.4676 156.9 92.5976 154.39 90.1176Z" fill="#FFD2A7"/>
<path d="M178.55 36.368C179.29 37.478 178.75 39.968 175.38 41.908C172.01 43.848 171.8 47.428 170.38 44.988C168.96 42.548 169 42.248 169.59 39.708C170.18 37.168 176.94 33.948 178.55 36.368Z" fill="#1D1D2C"/>
<path d="M178.47 36.3273C178.07 37.5873 179.28 39.8273 183.06 40.7473C186.84 41.6673 188.06 45.0473 188.75 42.3073C189.44 39.5673 189.3 39.3073 188.03 37.0173C186.76 34.7273 179.34 33.5073 178.47 36.3273Z" fill="#1D1D2C"/>
<path d="M171.8 56.5079C172.374 58.193 172.776 59.9318 173 61.6979C172.955 62.8629 172.534 63.982 171.8 64.8879C174.761 66.0803 177.994 66.4265 181.14 65.8879C180.223 62.8513 179.93 59.6605 180.28 56.5079C180.91 51.8979 171.8 56.5079 171.8 56.5079Z" fill="#FFBC8E"/>
<path d="M175.09 63.1681C175.4 60.9781 175.03 56.2881 173.04 55.6681C175.75 53.8581 180.77 52.9181 180.23 56.5581C179.88 59.7108 180.173 62.9016 181.09 65.9381C178.995 66.3423 176.837 66.298 174.76 65.8081C174.88 64.9281 175 64.0481 175.09 63.1681Z" fill="#FFD2A7"/>
<path d="M173 41.2275C172.153 42.9348 171.483 44.7241 171 46.5675C170.45 49.0875 168.51 52.0275 170 55.5675C171.49 59.1075 177.82 57.7175 180.12 54.7775C181.087 53.703 181.687 52.3492 181.835 50.9113C181.982 49.4734 181.669 48.0258 180.94 46.7775C179.71 44.6775 173 41.2275 173 41.2275Z" fill="#FFD2A7"/>
<path d="M173.49 52.9878C173.83 51.7678 175.26 42.4678 175.26 42.4678C177.33 43.6578 180.19 45.4678 180.95 46.7578C181.679 48.0061 181.992 49.4536 181.845 50.8915C181.697 52.3294 181.097 53.6833 180.13 54.7578C177.95 57.5478 172.13 58.9078 170.29 56.0678C171.042 55.8697 171.73 55.4828 172.29 54.9437C172.85 54.4046 173.263 53.7313 173.49 52.9878Z" fill="#FFBC8E"/>
<path d="M176.36 37.0676C167.53 39.7876 171.31 48.5776 171.31 48.5776C171.31 48.5776 171.43 43.3176 174.09 44.1676C174.93 44.4376 175.99 48.1676 174.75 52.0676C173.23 56.8276 172.26 61.5576 175.3 62.5276C181.08 64.3776 179.48 84.7876 186.89 87.1476C196.27 77.1476 192.89 74.1476 194.23 68.6476C197.79 54.1276 192.54 45.5076 190.38 42.1576C188.22 38.8076 181.92 35.3476 176.36 37.0676Z" fill="#1D1D2C"/>
<path d="M186 33.1477C185.034 33.0698 184.067 33.28 183.22 33.7518C182.374 34.2236 181.686 34.9358 181.245 35.7983C180.803 36.6609 180.627 37.635 180.739 38.5976C180.851 39.5601 181.245 40.4679 181.873 41.2061C182.501 41.9444 183.334 42.4799 184.266 42.7449C185.198 43.01 186.188 42.9928 187.11 42.6954C188.032 42.398 188.845 41.8338 189.447 41.0742C190.049 40.3146 190.412 39.3936 190.49 38.4277C190.543 37.7859 190.469 37.1399 190.272 36.5268C190.075 35.9136 189.759 35.3455 189.342 34.8548C188.925 34.3642 188.415 33.9609 187.841 33.6679C187.268 33.375 186.642 33.1982 186 33.1477Z" fill="#1D1D2C"/>
<path d="M188 94.7979C187.265 94.8064 186.539 94.9558 185.86 95.2379C184.86 95.6779 185.27 96.5878 185.27 96.9278C185.27 97.2678 189.54 96.2379 189.54 96.2379L188 94.7979Z" fill="#FFD2A7"/>
</svg>
