<svg width="116" height="116" viewBox="0 0 116 116" fill="none" xmlns="http://www.w3.org/2000/svg">
<path d="M67.4942 114.215H73.1335C73.7318 114.215 74.2901 113.914 74.6203 113.415C74.9505 112.917 75.0087 112.285 74.7754 111.734L65.1385 89.2305H54.4308L61.3194 105.292H26.1268L33.0154 89.2305H22.3077L12.6708 111.734C12.4374 112.285 12.4957 112.917 12.8259 113.415C13.1561 113.914 13.7143 114.215 14.3126 114.215C22.7895 114.215 21.9865 114.947 24.6098 108.861H62.8363C64.0142 111.574 64.5674 114.215 67.4942 114.215Z" fill="#0B3E66"/>
<path fill-rule="evenodd" clip-rule="evenodd" d="M40.1445 14.4261C63.0237 12.5094 83.3448 28.9741 86.2148 51.7535C87.7513 63.949 83.974 76.2168 75.844 85.436C67.7141 94.6553 56.015 99.9372 43.7231 99.9381C20.7637 99.9398 1.8866 81.8375 0.926609 58.8982C-0.033386 35.9589 17.2652 16.3427 40.1445 14.4261ZM40.1416 90.8257C58.0718 92.7286 74.3555 80.266 77.2025 62.4612C78.77 52.658 75.9625 42.6604 69.5209 35.1062C63.0793 27.5521 53.6507 23.2005 43.7231 23.1996C25.6921 23.1981 10.8135 37.3083 9.85986 55.3141C8.90626 73.3198 22.2113 88.9227 40.1416 90.8257Z" fill="#E4E4E4"/>
<path fill-rule="evenodd" clip-rule="evenodd" d="M40.1415 23.389C58.0718 21.4861 74.3554 33.9487 77.2024 51.7535C78.77 61.5567 75.9625 71.5543 69.5209 79.1084C63.0793 86.6626 53.6507 91.0142 43.7231 91.0151C25.6921 91.0166 10.8134 76.9064 9.85984 58.9006C8.90625 40.8949 22.2112 25.292 40.1415 23.389ZM40.1379 80.0284C52.1073 81.9014 63.5027 74.2492 66.2984 62.4612C67.9358 55.5576 66.3241 48.2844 61.9237 42.7187C57.5234 37.153 50.8181 33.9069 43.723 33.9074C31.608 33.9082 21.5333 43.2308 20.5944 55.3094C19.6555 67.388 28.1685 78.1554 40.1379 80.0284Z" fill="#CFD4D8"/>
<path fill-rule="evenodd" clip-rule="evenodd" d="M40.1379 34.1868C52.1073 32.3139 63.5027 39.966 66.2984 51.7541C67.9358 58.6576 66.3241 65.9309 61.9237 71.4966C57.5234 77.0622 50.8181 80.3084 43.7231 80.3079C31.608 80.3071 21.5333 70.9845 20.5944 58.9059C19.6555 46.8273 28.1685 36.0598 40.1379 34.1868ZM31.2307 57.1079C31.2307 64.0072 36.8237 69.6002 43.7231 69.6002C50.6224 69.6002 56.2154 64.0072 56.2154 57.1079C56.2154 50.2086 50.6224 44.6156 43.7231 44.6156C36.8237 44.6156 31.2307 50.2086 31.2307 57.1079Z" fill="#0B3E66"/>
<circle cx="43.7231" cy="57.1075" r="12.4923" fill="#1D1D2C"/>
<path d="M49.8264 34.711C45.868 36.0143 41.596 36.0143 37.6375 34.711C41.6288 33.6315 45.8352 33.6315 49.8264 34.711Z" fill="#1D1D2C"/>
<path d="M59.7846 27.2684C57.3568 30.7828 53.8379 33.3984 49.7729 34.7103C45.7816 33.6308 41.5753 33.6308 37.584 34.7103C33.5617 33.3719 30.0807 30.7674 27.6615 27.2863C36.4503 22.5086 46.9002 21.8555 56.2154 25.5017C57.4359 26.0263 58.6274 26.616 59.7846 27.2684Z" fill="#0B3E66"/>
<path d="M63.1397 18.9348C62.6882 21.9369 61.5391 24.7914 59.7846 27.2689C49.7562 21.8751 37.6899 21.8751 27.6615 27.2689C25.9132 24.7916 24.7757 21.9358 24.3421 18.9348C36.5276 12.7184 50.9542 12.7184 63.1397 18.9348Z" fill="#CFD4D8"/>
<circle cx="43.7231" cy="16.0615" r="16.0615" fill="#1D1D2C"/>
<path d="M66.2984 62.4616H55.0018C56.627 59.0774 56.627 55.1381 55.0018 51.7539H66.2984C67.1374 55.2738 67.1374 58.9417 66.2984 62.4616Z" fill="#1D1D2C"/>
<path d="M77.2025 62.4616H66.2985C67.1374 58.9417 67.1374 55.2738 66.2985 51.7539H77.2025C77.7735 55.3003 77.7735 58.9152 77.2025 62.4616Z" fill="#0B3E66"/>
<path d="M86.2148 62.4616H77.2025C77.7735 58.9152 77.7735 55.3003 77.2025 51.7539H86.2148C86.661 55.3092 86.661 58.9063 86.2148 62.4616Z" fill="#CFD4D8"/>
<path d="M43.723 14.2766C42.7374 14.2766 41.9384 13.4776 41.9384 12.492C41.9384 11.5064 42.7374 10.7074 43.723 10.7074H47.2923C48.2779 10.7074 49.0769 9.90839 49.0769 8.92278C49.0769 7.93716 48.2779 7.13816 47.2923 7.13816H45.5077C45.419 6.15255 44.548 5.42546 43.5624 5.51416C42.5768 5.60287 41.8497 6.47378 41.9384 7.45939C39.5025 8.34328 38.0492 10.8449 38.4881 13.3988C38.9269 15.9527 41.1318 17.8258 43.723 17.8459C44.7087 17.8459 45.5077 18.6449 45.5077 19.6305C45.5077 20.6161 44.7087 21.4151 43.723 21.4151H40.1538C39.1682 21.4151 38.3692 22.2141 38.3692 23.1997C38.3692 24.1853 39.1682 24.9843 40.1538 24.9843H41.9384C41.9958 25.6219 42.389 26.1804 42.9698 26.4495C43.5507 26.7186 44.231 26.6574 44.7545 26.2889C45.2779 25.9204 45.565 25.3007 45.5077 24.6631C47.9436 23.7792 49.3969 21.2776 48.958 18.7237C48.5192 16.1698 46.3143 14.2967 43.723 14.2766Z" fill="#FDFDFD"/>
<path d="M113.323 58.8915H45.5077C44.5221 58.8915 43.7231 58.0925 43.7231 57.1069C43.7231 56.1213 44.5221 55.3223 45.5077 55.3223H113.323C114.309 55.3223 115.108 56.1213 115.108 57.1069C115.108 58.0925 114.309 58.8915 113.323 58.8915Z" fill="#1D1D2C"/>
<path d="M90.123 55.324L95.4769 48.1855H113.323L109.754 55.324H90.123Z" fill="#D9D9D9"/>
<path d="M90.123 58.8926L95.4769 66.031H113.323L109.754 58.8926H90.123Z" fill="#D9D9D9"/>
</svg>
