<svg width="267" height="238" viewBox="0 0 267 238" fill="none" xmlns="http://www.w3.org/2000/svg">
<g clip-path="url(#clip0_2009_4109)">
<path d="M61.9097 110.725C62.2454 111.52 62.7897 112.211 63.4853 112.723C64.1809 113.236 65.002 113.552 65.8622 113.638C72.7048 114.312 82.5814 111.417 92.7822 98.6051C104.199 84.2827 116.731 69.5019 104.451 70.6257C92.17 71.7496 71.9575 83.4017 64.6197 95.5572C60.1181 102.993 60.7483 107.991 61.9097 110.725Z" fill="url(#paint0_linear_2009_4109)"/>
<path d="M221.999 222.65H59.6589V223.882H221.999V222.65Z" fill="#D3D8EA"/>
<path d="M95.1232 167.582H79.8625V159.257H95.1232V167.582ZM80.7179 166.683H94.2229V160.066H80.7179V166.683Z" fill="#D3D8EA"/>
<path d="M84.6434 175.054H69.4187V166.729H84.6434V175.054ZM70.238 174.155H83.743V167.538H70.238V174.155Z" fill="#D3D8EA"/>
<path d="M132.685 95.8899H117.46V87.5645H132.685V95.8899ZM118.28 95.0358H131.785V88.4186H118.28V95.0358Z" fill="#D3D8EA"/>
<path d="M147.055 133.947H131.83V125.631H147.055V133.947ZM132.649 133.048H146.154V126.44H132.649V133.048Z" fill="#D3D8EA"/>
<path d="M149.819 64.9793V152.19C149.819 152.812 149.571 153.409 149.13 153.849C148.69 154.289 148.092 154.537 147.469 154.537H56.0037C55.3805 154.537 54.7828 154.289 54.3421 153.849C53.9014 153.409 53.6538 152.812 53.6538 152.19V64.9793C53.6538 64.5861 53.7314 64.1968 53.882 63.8336C54.0327 63.4703 54.2535 63.1403 54.5319 62.8623C54.8103 62.5842 55.1408 62.3637 55.5046 62.2133C55.8683 62.0628 56.2582 61.9854 56.6519 61.9854H146.821C147.616 61.9854 148.378 62.3008 148.941 62.8623C149.503 63.4237 149.819 64.1852 149.819 64.9793Z" fill="white"/>
<path d="M149.819 72.3068H53.6538V64.9793C53.6538 64.5861 53.7314 64.1968 53.882 63.8336C54.0327 63.4703 54.2535 63.1403 54.5319 62.8623C54.8103 62.5842 55.1408 62.3637 55.5046 62.2133C55.8683 62.0628 56.2582 61.9854 56.6519 61.9854H146.821C147.616 61.9854 148.378 62.3008 148.941 62.8623C149.503 63.4237 149.819 64.1852 149.819 64.9793V72.3068Z" fill="#075085"/>
<path d="M70.1929 67.1462C70.1911 66.8307 70.2833 66.5218 70.4577 66.2588C70.6321 65.9957 70.8809 65.7903 71.1725 65.6688C71.464 65.5472 71.7852 65.5149 72.0952 65.576C72.4051 65.6372 72.6899 65.7889 72.9133 66.012C73.1367 66.2351 73.2887 66.5195 73.3499 66.829C73.4111 67.1385 73.3788 67.4593 73.257 67.7504C73.1353 68.0416 72.9297 68.29 72.6662 68.4642C72.4028 68.6383 72.0934 68.7304 71.7775 68.7286C71.3572 68.7286 70.9542 68.5619 70.657 68.2651C70.3598 67.9684 70.1929 67.5659 70.1929 67.1462Z" fill="#D3D8EA"/>
<path d="M64.0796 67.1462C64.0778 66.8307 64.17 66.5218 64.3444 66.2588C64.5188 65.9957 64.7676 65.7903 65.0592 65.6688C65.3508 65.5472 65.6719 65.5149 65.9819 65.576C66.2918 65.6372 66.5766 65.7889 66.8 66.012C67.0234 66.2351 67.1754 66.5195 67.2366 66.829C67.2978 67.1385 67.2655 67.4593 67.1438 67.7504C67.022 68.0416 66.8164 68.29 66.5529 68.4642C66.2895 68.6383 65.9801 68.7304 65.6642 68.7286C65.2439 68.7286 64.8409 68.5619 64.5437 68.2651C64.2466 67.9684 64.0796 67.5659 64.0796 67.1462Z" fill="#FAEACB"/>
<path d="M57.9663 67.1463C57.9646 66.8311 58.0565 66.5226 58.2305 66.2597C58.4045 65.9968 58.6528 65.7915 58.9438 65.6696C59.2349 65.5478 59.5556 65.515 59.8653 65.5754C60.175 65.6358 60.4598 65.7866 60.6835 66.0088C60.9073 66.231 61.06 66.5145 61.1222 66.8235C61.1844 67.1324 61.1534 67.4529 61.0331 67.7442C60.9127 68.0355 60.7085 68.2845 60.4462 68.4598C60.184 68.6351 59.8755 68.7286 59.5599 68.7286C59.3511 68.7298 59.1441 68.6898 58.9508 68.6108C58.7575 68.5318 58.5817 68.4154 58.4336 68.2684C58.2855 68.1213 58.168 67.9465 58.0878 67.7539C58.0076 67.5613 57.9663 67.3548 57.9663 67.1463Z" fill="white"/>
<path d="M142.256 65.9863L143.039 65.2041L144.165 66.328L145.281 65.2041L146.073 65.9863L144.948 67.1101L146.073 68.234L145.281 69.0162L144.165 67.8923L143.039 69.0162L142.256 68.234L143.372 67.1101L142.256 65.9863Z" fill="white"/>
<path d="M86.0479 76.0557L86.1199 77.3234H107.377L107.305 76.0557H86.0479Z" fill="#D3D8EA"/>
<path d="M96.4736 79.877L96.5547 81.1447H131.128L131.056 79.877H96.4736Z" fill="#D3D8EA"/>
<path d="M86.1018 79.877L86.1738 81.1447H94.9791L94.8891 79.877H86.1018Z" fill="#075085"/>
<path d="M86.0027 83.6982L86.0747 84.9749H103.676L103.55 83.6982H86.0027Z" fill="#D3D8EA"/>
<path d="M104.775 83.6982L104.901 84.9749H122.151L122.07 83.6982H104.775Z" fill="#075085"/>
<path d="M70.6071 83.6982L70.5981 84.9749H79.2504L79.2594 83.6982H70.6071Z" fill="#D3D8EA"/>
<path d="M60.091 79.877L60.082 81.1447H74.1543L74.1633 79.877H60.091Z" fill="#D3D8EA"/>
<path d="M75.7749 79.877L75.7659 81.1447H79.3402L79.3492 79.877H75.7749Z" fill="#D3D8EA"/>
<path d="M72.3538 76.0557L72.3628 77.3234H79.5024L79.5114 76.0557H72.3538Z" fill="#F4D593"/>
<path d="M63.8906 76.0557L63.8816 77.3234H70.9132L70.9042 76.0557H63.8906Z" fill="#EBA63F"/>
<path d="M70.499 98.0117L70.49 99.2794H79.1422L79.1512 98.0117H70.499Z" fill="#D3D8EA"/>
<path d="M59.9832 94.1904V95.4581H74.0464L74.0554 94.1904H59.9832Z" fill="#D3D8EA"/>
<path d="M75.667 94.1904L75.658 95.4581H79.2323L79.2413 94.1904H75.667Z" fill="#D3D8EA"/>
<path d="M70.364 106.059L70.355 107.326H78.9982L79.0072 106.059H70.364Z" fill="#D3D8EA"/>
<path d="M59.8481 102.237L59.8391 103.505H73.9114V102.237H59.8481Z" fill="#FAEACB"/>
<path d="M75.5229 102.237V103.505H79.0973L79.1063 102.237H75.5229Z" fill="#F4D593"/>
<path d="M72.2456 90.3691L72.2546 91.6368H79.3943L79.4033 90.3691H72.2456Z" fill="#EBA63F"/>
<path d="M63.7824 90.3691L63.7734 91.6368H70.8051L70.7961 90.3691H63.7824Z" fill="#F4D593"/>
<path d="M109.492 76.0557L109.573 77.3234H116.02L115.948 76.0557H109.492Z" fill="#075085"/>
<path d="M133.279 79.877L133.36 81.1447H143.687L143.606 79.877H133.279Z" fill="#D3D8EA"/>
<path d="M124.042 83.6982L124.123 84.9749H134.594L134.513 83.6982H124.042Z" fill="#D3D8EA"/>
<path d="M118.829 76.0557L118.982 77.3234H137.223L137.07 76.0557H118.829Z" fill="#D3D8EA"/>
<path d="M85.9397 90.3691L86.0117 91.6368H107.278L107.197 90.3691H85.9397Z" fill="#D3D8EA"/>
<path d="M96.3657 94.1904L96.4468 95.4581H131.02L130.948 94.1904H96.3657Z" fill="#D3D8EA"/>
<path d="M85.9937 94.1904L86.0657 95.4581H94.871L94.7899 94.1904H85.9937Z" fill="#D3D8EA"/>
<path d="M85.8948 98.0117L85.9758 99.2794H103.568L103.442 98.0117H85.8948Z" fill="#D3D8EA"/>
<path d="M104.676 98.0117L104.802 99.2794H122.043L121.962 98.0117H104.676Z" fill="#D3D8EA"/>
<path d="M109.385 90.3691L109.466 91.6368H115.912L115.84 90.3691H109.385Z" fill="#D3D8EA"/>
<path d="M133.171 94.1904L133.252 95.4581H143.579L143.498 94.1904H133.171Z" fill="#D3D8EA"/>
<path d="M123.934 98.0117L124.015 99.2794H134.486L134.405 98.0117H123.934Z" fill="#075085"/>
<path d="M96.6538 102.237L96.7348 103.505H131.308L131.236 102.237H96.6538Z" fill="#D3D8EA"/>
<path d="M86.282 102.237L86.363 103.505H95.1593L95.0783 102.237H86.282Z" fill="#D3D8EA"/>
<path d="M86.1829 106.059L86.2639 107.326H103.856L103.73 106.059H86.1829Z" fill="#D3D8EA"/>
<path d="M104.964 106.059L105.09 107.326H122.331L122.25 106.059H104.964Z" fill="#075085"/>
<path d="M133.459 102.237L133.54 103.505H143.867L143.786 102.237H133.459Z" fill="#075085"/>
<path d="M124.222 106.059L124.303 107.326H134.774L134.693 106.059H124.222Z" fill="#D3D8EA"/>
<path d="M118.73 90.3691L118.883 91.6368H137.115L136.962 90.3691H118.73Z" fill="#075085"/>
<path d="M70.2199 119.221L70.2109 120.497H78.8542L78.8632 119.221H70.2199Z" fill="#D3D8EA"/>
<path d="M59.7041 115.399L59.6951 116.667H73.7673V115.399H59.7041Z" fill="#D3D8EA"/>
<path d="M75.3789 115.399V116.667H78.9532L78.9622 115.399H75.3789Z" fill="#D3D8EA"/>
<path d="M70.0759 127.268L70.0669 128.544H78.7191L78.7281 127.268H70.0759Z" fill="#D3D8EA"/>
<path d="M59.5688 123.446L59.5598 124.723H73.6231L73.6321 123.446H59.5688Z" fill="#F4D593"/>
<path d="M75.2439 123.446L75.2349 124.723H78.8182L78.8272 123.446H75.2439Z" fill="#F4D593"/>
<path d="M71.9575 111.578L71.9755 112.846H79.1152L79.1242 111.578H71.9575Z" fill="#FAEACB"/>
<path d="M63.5034 111.578L63.4944 112.846H70.526L70.517 111.578H63.5034Z" fill="#EBA63F"/>
<path d="M85.6516 111.578L85.7326 112.846H106.99L106.918 111.578H85.6516Z" fill="#D3D8EA"/>
<path d="M96.0776 115.399L96.1587 116.667H130.741L130.66 115.399H96.0776Z" fill="#D3D8EA"/>
<path d="M85.7056 115.399L85.7866 116.667H94.5829L94.5018 115.399H85.7056Z" fill="#D3D8EA"/>
<path d="M85.6067 119.221L85.6877 120.497H103.289L103.163 119.221H85.6067Z" fill="#D3D8EA"/>
<path d="M104.388 119.221L104.514 120.497H121.755L121.683 119.221H104.388Z" fill="#D3D8EA"/>
<path d="M109.105 111.578L109.177 112.846H115.633L115.552 111.578H109.105Z" fill="#D3D8EA"/>
<path d="M132.892 115.399L132.964 116.667H143.291L143.219 115.399H132.892Z" fill="#D3D8EA"/>
<path d="M123.655 119.221L123.727 120.497H134.198L134.126 119.221H123.655Z" fill="#075085"/>
<path d="M96.3657 123.446L96.4468 124.723H131.029L130.948 123.446H96.3657Z" fill="#D3D8EA"/>
<path d="M85.9937 123.446L86.0747 124.723H94.871L94.7899 123.446H85.9937Z" fill="#D3D8EA"/>
<path d="M85.9038 127.268L85.9758 128.544H103.577L103.451 127.268H85.9038Z" fill="#D3D8EA"/>
<path d="M104.676 127.268L104.802 128.544H122.043L121.971 127.268H104.676Z" fill="#075085"/>
<path d="M133.18 123.446L133.252 124.723H143.579L143.498 123.446H133.18Z" fill="#075085"/>
<path d="M123.943 127.268L124.015 128.544H134.486L134.414 127.268H123.943Z" fill="#D3D8EA"/>
<path d="M118.442 111.578L118.595 112.846H136.827L136.674 111.578H118.442Z" fill="#075085"/>
<path d="M63.6474 129.012H42.3454C40.9531 129.012 39.8245 130.139 39.8245 131.529V144.116C39.8245 145.507 40.9531 146.634 42.3454 146.634H63.6474C65.0396 146.634 66.1683 145.507 66.1683 144.116V131.529C66.1683 130.139 65.0396 129.012 63.6474 129.012Z" fill="#EBA63F"/>
<path d="M49.8904 141.95L42.8318 138.893V137.157L49.8814 134.101V136.097L44.9656 138.057L49.8904 139.999V141.95Z" fill="#FAEACB"/>
<path d="M50.5476 143.298L53.0866 132.662H54.6081L52.0512 143.289L50.5476 143.298Z" fill="#F4D593"/>
<path d="M55.2292 141.95V139.963L60.1541 138.057L55.2292 136.151V134.182L62.2879 137.158V138.848L55.2292 141.95Z" fill="#FAEACB"/>
<path d="M75.2437 131.628L75.1987 132.977H116.857L116.785 131.628H75.2437Z" fill="#EBA63F"/>
<path d="M75.2167 137.301L75.1987 138.649H93.8627L93.8357 137.301H75.2167Z" fill="#EBA63F"/>
<path d="M95.7895 137.301L95.7715 138.649H116.857L116.821 137.301H95.7895Z" fill="#EBA63F"/>
<path d="M75.2347 142.975L75.1987 144.332H106.314L106.26 142.975H75.2347Z" fill="#EBA63F"/>
<path d="M108.547 142.975L108.538 144.332H116.857L116.839 142.975H108.547Z" fill="#EBA63F"/>
<path d="M112.626 160.821V178.434C112.626 178.911 112.436 179.368 112.098 179.705C111.761 180.042 111.303 180.232 110.825 180.232H34.8007C34.3231 180.232 33.8651 180.042 33.5274 179.705C33.1897 179.368 33 178.911 33 178.434V160.821C33 160.215 33.2409 159.634 33.6698 159.206C34.0987 158.778 34.6803 158.537 35.2869 158.537H110.339C110.945 158.537 111.527 158.778 111.956 159.206C112.385 159.634 112.626 160.215 112.626 160.821Z" fill="#075085"/>
<path d="M55.1394 160.704H40.0767C38.8287 160.704 37.8169 161.714 37.8169 162.961V174.262C37.8169 175.509 38.8287 176.519 40.0767 176.519H55.1394C56.3874 176.519 57.3992 175.509 57.3992 174.262V162.961C57.3992 161.714 56.3874 160.704 55.1394 160.704Z" fill="#0B3E66"/>
<path d="M64.4037 163.042L64.3586 164.265H106.918L106.845 163.042H64.4037Z" fill="#0B3E66"/>
<path d="M64.3766 168.131L64.3586 169.354H83.4278L83.4007 168.131H64.3766Z" fill="#0B3E66"/>
<path d="M85.3996 168.131L85.3726 169.354H106.918L106.882 168.131H85.3996Z" fill="#0B3E66"/>
<path d="M64.3947 173.229L64.3586 174.442H96.1495L96.0955 173.229H64.3947Z" fill="#0B3E66"/>
<path d="M98.4365 173.229L98.4275 174.442H106.918L106.909 173.229H98.4365Z" fill="#0B3E66"/>
<path d="M51.5918 163.482L49.7912 162.484L49.0709 163.545C48.4875 163.371 47.878 163.301 47.2702 163.339L46.8201 162.134L44.8663 162.682L45.1094 163.95C44.6159 164.233 44.1744 164.598 43.8039 165.029L42.6335 164.498L41.6431 166.297L42.7055 167.016C42.5277 167.598 42.4546 168.207 42.4894 168.814L41.292 169.263L41.8412 171.214L43.1017 170.972C43.3835 171.499 43.7552 171.974 44.2001 172.374L43.6689 173.543L45.4696 174.532L46.1898 173.471C46.7727 173.648 47.3822 173.721 47.9905 173.687L48.4407 174.883L50.3944 174.334L50.1603 173.076C50.6844 172.792 51.1563 172.421 51.5558 171.979L52.7263 172.509L53.7256 170.711L52.6632 169.983C52.8391 169.4 52.9092 168.792 52.8703 168.185L54.0678 167.735L53.5276 165.784L52.2581 166.018C51.9737 165.494 51.6023 165.023 51.1597 164.624L51.5918 163.482ZM50.8085 170.279C50.4542 170.911 49.9203 171.423 49.2744 171.751C48.6285 172.08 47.8997 172.209 47.1799 172.124C46.4602 172.039 45.782 171.742 45.2311 171.272C44.6802 170.802 44.2813 170.179 44.0848 169.482C43.8884 168.786 43.9032 168.046 44.1275 167.358C44.3517 166.67 44.7753 166.064 45.3447 165.616C45.9141 165.168 46.6036 164.899 47.3262 164.842C48.0487 164.786 48.7718 164.945 49.404 165.299C50.2516 165.773 50.8758 166.564 51.1392 167.499C51.4026 168.433 51.2837 169.433 50.8085 170.279Z" fill="#BAE1FD"/>
<path d="M180.754 210.028C180.213 208.107 179.264 206.326 177.972 204.804L181.78 202.386C182.615 204.082 183.705 205.64 185.013 207.007C186.273 208.329 185.256 212.491 182.078 213.301C181.925 213.31 181.258 212.455 180.754 210.028Z" fill="#F4D593"/>
<path d="M182.123 208.985C181.06 209.578 179.287 207.429 179.089 208.922C180.664 210.064 181.6 212.167 181.33 215.827C181.078 219.153 184.932 221.958 184.932 221.958L186.219 204.669C186.219 204.669 185.706 202.727 181.934 203.06C181.763 204.867 183.716 208.095 182.123 208.985Z" fill="#1D1D2C"/>
<path d="M182.231 218.362C176.829 216.079 178.575 210.873 177.729 207.573L173.633 209.084C173.633 209.084 173.678 215.161 173.416 219.045C173.155 222.93 174.263 222.561 174.263 222.561L187.471 222.66C186.217 220.716 184.384 219.213 182.231 218.362Z" fill="#F4D593"/>
<path d="M182.357 218.416C181.156 217.958 180.121 217.15 179.386 216.096C178.845 215.341 176.207 216.15 175.784 217.616C175.1 218.076 174.285 218.3 173.461 218.254C173.461 218.515 173.461 218.785 173.461 219.036C173.2 222.911 174.308 222.552 174.308 222.552L187.516 222.651C186.983 221.636 186.252 220.738 185.366 220.011C184.48 219.284 183.457 218.741 182.357 218.416Z" fill="#1D1D2C"/>
<path d="M167.726 122.53C164.125 134.307 157.138 167.762 157.417 169.219C157.751 170.945 166.619 176.762 168.122 169.336C170.463 157.773 192.206 126.36 178.152 117.189C173.002 113.782 168.834 118.942 167.726 122.53Z" fill="#0B3E66"/>
<path d="M181.898 121.675C181.112 119.845 179.811 118.284 178.152 117.18C177.999 117.081 177.846 116.982 177.693 116.901H177.648C176.932 116.487 176.138 116.227 175.316 116.137C176.611 124.691 176.395 133.406 174.677 141.886L172.219 129.506C170.995 136.329 170.735 143.29 171.445 150.185C171.667 152.201 171.42 154.24 170.724 156.146C168.937 161.276 166.654 166.22 163.909 170.909C164.62 170.54 165.908 171.223 167.195 171.637C167.654 170.955 167.961 170.182 168.095 169.371C170.166 159.248 186.957 134.055 181.898 121.675Z" fill="#1D1D2C"/>
<path d="M187.732 135.53C187.375 130.854 185.946 126.322 183.554 122.286C181.961 119.904 176.946 118.097 174.38 121.882C171.814 125.667 172.048 127.609 171.625 136.069C171.202 144.53 173.696 166.998 172.966 173.183C172.237 179.369 180.844 182.821 181.285 173.732C181.727 164.642 188.263 143.037 187.732 135.53Z" fill="#0B3E66"/>
<path d="M181.42 175.548C181.42 173.804 181.465 172.545 181.573 170.801C182.015 163.356 173.191 167.591 173.02 169.551C172.804 172.024 173.281 173.39 172.057 181.859C171.119 187.759 171.275 193.781 172.516 199.625C173.012 203.027 173.193 206.467 173.056 209.902C176.766 211.628 178.413 210.486 178.413 210.486C178.413 210.486 179.512 201.423 180.7 194.177C181.889 186.93 181.501 179.648 181.42 175.548Z" fill="#0B3E66"/>
<path d="M183.104 203.177C182.732 203.718 182.262 204.185 181.717 204.553L181.555 204.661C180.378 205.434 179.032 205.912 177.63 206.054C177.63 206.054 156.544 171.395 157.363 168.706C157.732 167.493 161.658 161.64 166.637 166.09C169.338 168.5 172.318 173.894 175.226 184.611L175.442 185.384C177.315 192.487 183.104 203.177 183.104 203.177Z" fill="#0B3E66"/>
<path d="M183.104 203.177C182.732 203.718 182.262 204.185 181.717 204.552L181.555 204.66C177.576 198.547 172.741 187.578 171.382 181.824C170.643 178.686 169.419 174.631 168.365 171.358C167.6 168.958 166.934 166.971 166.637 166.09C169.338 168.499 172.318 173.894 175.226 184.611L175.442 185.384C177.315 192.487 183.104 203.177 183.104 203.177Z" fill="#1D1D2C"/>
<path d="M179.296 72.5497C178.421 72.5768 177.575 72.8623 176.863 73.3699C176.152 73.8775 175.607 74.5844 175.298 75.4013C174.989 76.2182 174.929 77.1083 175.126 77.9591C175.324 78.8098 175.77 79.5829 176.407 80.1806C177.045 80.7783 177.846 81.1737 178.708 81.3169C179.571 81.46 180.457 81.3444 181.254 80.9847C182.051 80.6249 182.723 80.0373 183.185 79.296C183.647 78.5547 183.879 77.6932 183.851 76.8203C183.811 75.6518 183.31 74.5465 182.456 73.7462C181.602 72.946 180.466 72.5158 179.296 72.5497Z" fill="#1D1D2C"/>
<path d="M184.581 95.4672C183.959 90.8909 186.687 88.0138 184.166 82.8801C181.645 77.7463 178.971 77.1979 176.415 76.4606C169.905 74.6085 163.207 82.7542 165.773 88.3824C168.14 93.6241 165.773 97.7598 163.702 102.12C161.631 106.481 160.83 120.255 172.786 121.352C184.743 122.449 187.435 117.324 188.551 110.05C189.893 101.293 185.157 100.052 184.581 95.4672Z" fill="#1D1D2C"/>
<path d="M171.571 102.147C171.202 103.603 166.511 121.135 165.061 123.086C163.36 125.379 160.272 123.41 160.101 120.092C159.929 116.775 162.234 103.909 164.647 100.187C167.249 96.132 172.345 99.0001 171.571 102.147Z" fill="#F4D593"/>
<path d="M170.968 101.59C162.135 106.427 160.164 119.185 160.101 120.066C159.947 116.839 162.243 103.946 164.647 100.188C167.051 96.4295 171.184 101.464 170.968 101.59Z" fill="#FAEACB"/>
<path d="M182.456 115.337C182.609 113.467 183.23 111.741 184.725 105.258C185.301 102.732 186.021 100.763 185.364 99.6572C184.518 98.2636 182.015 98.1198 180.232 98.1737C177.009 98.2816 178.305 90.4686 178.305 90.4686C177.765 88.8682 172.417 89.3178 172.831 94.4875C173.245 99.6572 168.05 97.4365 166.871 98.4344C165.241 99.801 165.457 102.678 165.178 104.216C164.899 105.753 162.675 107.632 163.072 110.437C163.145 111.184 163.504 111.873 164.075 112.361C164.645 112.848 165.383 113.097 166.133 113.053C167.222 114.303 167.939 115.832 168.203 117.468C168.311 119.718 167.902 121.963 167.006 124.031C172.624 126.324 178.923 126.304 184.527 123.977C184.527 123.977 182.033 120.974 182.456 115.337Z" fill="#EEBA5B"/>
<path d="M180.268 98.1729C177.045 98.2808 178.341 90.4678 178.341 90.4678C178.044 89.5687 176.261 89.326 174.803 90.1531C175.811 90.3779 178.341 94.7025 177.108 101.167C176.766 102.965 174.821 104.152 173.02 104.565C173.02 104.565 184.536 106.211 184.725 105.258C185.337 102.731 182.051 98.119 180.268 98.1729Z" fill="#EEBA5B"/>
<path d="M160.055 115.751C162.069 117.413 164.378 118.682 166.862 119.491L168.528 114.438L168.194 98.1288C168.194 98.1288 165.412 97.6613 163.693 101.428C161.973 105.196 160.848 113.62 160.055 115.751Z" fill="#EEBA5B"/>
<path d="M168.366 114.779L168.05 99.9804C167.978 99.5489 167.879 98.5689 167.861 98.1104C167.207 98.182 166.598 98.4812 166.142 98.9555C164.512 100.322 164.737 103.199 164.449 104.728C164.161 106.256 161.955 108.153 162.351 110.949C162.747 113.745 164.611 114.24 164.611 114.24C165.762 115.416 166.623 116.845 167.123 118.412L168.366 114.779Z" fill="#EBA63F"/>
<path d="M182.456 115.336C182.609 113.466 183.23 111.74 184.725 105.258C185.31 102.731 186.021 100.762 185.364 99.6564C184.608 98.4067 182.501 98.155 180.79 98.164C178.863 102.551 174.884 105.06 171.787 103.783C169.815 102.956 168.69 100.762 168.618 98.119C167.999 98.0335 167.369 98.1436 166.817 98.4337C165.187 99.8003 165.403 102.677 165.124 104.215C164.845 105.752 162.621 107.631 163.026 110.436C163.097 111.182 163.455 111.871 164.024 112.359C164.593 112.847 165.33 113.096 166.079 113.053C167.168 114.302 167.885 115.832 168.149 117.467C168.257 119.718 167.848 121.963 166.952 124.03C172.567 126.324 178.863 126.304 184.463 123.977C184.463 123.977 182.033 120.974 182.456 115.336Z" fill="#EBA63F"/>
<path d="M182.456 115.336C182.609 113.466 183.23 111.74 184.725 105.258C185.31 102.731 186.021 100.762 185.364 99.6565C184.707 98.5507 182.663 98.1731 180.97 98.1641C180.97 98.4428 180.898 98.7215 180.844 99.0092C180.509 100.775 179.729 102.427 178.578 103.808C177.426 105.189 175.941 106.254 174.263 106.903L176.144 107.263C177.185 107.505 178.088 108.146 178.659 109.048C179.23 109.95 179.423 111.039 179.197 112.082C179.031 112.801 178.669 113.459 178.151 113.985C177.633 114.51 176.979 114.882 176.261 115.058L175.415 119.553C175.263 120.334 175.31 121.14 175.55 121.898C175.79 122.656 176.217 123.342 176.79 123.894C177.364 124.445 178.067 124.844 178.835 125.055C179.602 125.266 180.411 125.282 181.186 125.1C182.332 124.848 183.448 124.477 184.518 123.995C184.518 123.995 182.033 120.974 182.456 115.336Z" fill="#EBA63F"/>
<path d="M200.778 115.867C199.724 113.503 187.606 101.626 185.121 99.2705C184.22 98.4343 179.8 103.766 181.411 106.796C182.312 108.486 196.051 119.814 198.365 120.561C201.084 121.433 202.128 118.906 200.778 115.867Z" fill="#F4D593"/>
<path d="M185.229 107.542C184.022 105.186 183.059 102.858 183.383 100.196C181.934 101.761 180.34 104.773 181.411 106.796C182.213 108.315 193.449 117.656 197.356 120.039C196.6 119.491 186.84 110.68 185.229 107.542Z" fill="#EEBA5B"/>
<path d="M178.449 86.1701C178.449 86.1701 176.207 79.6159 174.047 79.4091C171.886 79.2023 170.157 79.3551 169.068 81.7107C168.292 83.1156 167.998 84.7355 168.23 86.323C168.23 86.323 165.331 88.8404 168.375 92.6165C171.418 96.3927 176.604 93.8932 178.341 90.4677C178.341 90.4677 181.231 91.4298 181.636 88.7415C182.042 86.0533 180.277 85.9094 178.449 86.1701Z" fill="#F4D593"/>
<path d="M178.449 86.1701C178.449 86.1701 176.208 79.6159 174.047 79.4091C172.309 79.2382 170.86 79.3102 169.797 80.5509C171.247 80.2003 176.307 85.9993 176.307 89.4338C176.299 90.2209 176.09 90.993 175.699 91.6765C175.308 92.3601 174.748 92.9323 174.073 93.3387C173.398 93.7452 172.63 93.9724 171.842 93.9986C171.054 94.0248 170.273 93.8493 169.572 93.4887C169.214 93.3007 168.873 93.0811 168.555 92.8323C171.616 96.2938 176.658 93.8303 178.341 90.4677C178.341 90.4677 181.231 91.4298 181.637 88.7415C182.042 86.0533 180.277 85.9094 178.449 86.1701Z" fill="#EEBA5B"/>
<path d="M160.848 117.585C165.349 118.142 165.403 123.779 162.324 124.148C157.769 124.687 145.137 120.938 142.616 122.134C140.095 123.33 139.537 125.533 137.079 123.932C134.621 122.332 134.378 121.289 134.675 119.383C134.972 117.477 137.88 117.585 140.923 118.43C143.966 119.275 157.066 117.117 160.848 117.585Z" fill="#F4D593"/>
<path d="M167.393 82.6282C167.393 82.6282 170.805 82.1427 172.795 80.2456C174.785 78.3486 175.73 78.7172 175.73 78.7172C169.905 76.0649 167.393 82.6282 167.393 82.6282Z" fill="#1D1D2C"/>
<path d="M173.885 79.0321C172.984 79.7693 172.714 82.053 175.055 84.6603C177.396 87.2677 176.577 90.3875 178.503 88.6972C180.43 87.0069 180.448 86.7372 180.655 84.4086C180.862 82.08 175.946 77.4048 173.885 79.0321Z" fill="#1D1D2C"/>
<path d="M191.459 116.245C191.459 116.245 182.186 108.207 180.997 106.598C179.809 104.988 182.294 99.6027 185.004 99.1172L185.139 99.2431C186.039 100.052 191.063 104.638 195.421 108.998C195.385 108.998 195.907 112.361 191.459 116.245Z" fill="#EBA63F"/>
<path d="M191.459 116.245C191.459 116.245 182.186 108.207 180.997 106.598C179.809 104.988 182.294 99.6027 185.004 99.1172L185.139 99.2431C185.139 99.2431 181.159 103.352 182.762 106.301C184.364 109.25 190.325 113.089 191.459 116.245Z" fill="#EBA63F"/>
<path d="M179.115 110.509C177.027 108.711 172.867 108.423 171.67 110.203C171.364 110.654 171.144 111.156 171.021 111.687C170.773 112.833 170.915 114.029 171.427 115.085C171.481 115.211 173.065 116.272 173.128 115.984C174.596 115.663 176.015 115.152 177.351 114.465C180.223 113.143 191.819 119.769 196.258 120.974C200.697 122.179 202.56 117 199.733 115.795C195.529 114.042 181.195 112.352 179.115 110.509Z" fill="#F4D593"/>
<path d="M160.209 116.829H126.041V118.627H160.209V116.829Z" fill="#D3D8EA"/>
<path d="M160.208 118.627H175.937V117.611C175.937 117.508 175.917 117.405 175.877 117.31C175.837 117.214 175.778 117.128 175.705 117.055C175.631 116.982 175.544 116.925 175.448 116.886C175.352 116.847 175.249 116.828 175.145 116.829H160.208V118.627Z" fill="#D3D8EA"/>
<path d="M127.004 116.829H161.037L156.535 95.8984C156.473 95.6205 156.32 95.3713 156.099 95.1905C155.879 95.0097 155.605 94.9076 155.32 94.9004H124.708C124.417 94.9194 124.135 95.0019 123.879 95.1421C123.624 95.2823 123.403 95.4767 123.231 95.7117C123.059 95.9466 122.941 96.2164 122.885 96.5019C122.829 96.7874 122.837 97.0816 122.908 97.3639L127.004 116.829Z" fill="#D3D8EA"/>
<path d="M126.176 116.829H160.208L155.707 95.8984C155.645 95.6205 155.491 95.3713 155.271 95.1905C155.051 95.0097 154.776 94.9076 154.491 94.9004H123.196C122.98 94.9083 122.769 94.9644 122.579 95.0644C122.388 95.1645 122.222 95.306 122.093 95.4785C121.965 95.6511 121.876 95.8502 121.835 96.0614C121.794 96.2725 121.8 96.4903 121.854 96.6985L126.176 116.829Z" fill="url(#paint1_linear_2009_4109)"/>
<path opacity="0.34" d="M139.537 94.8555L129.948 116.829H134.333L144.273 94.8555H139.537Z" fill="#BAE1FD"/>
<path opacity="0.34" d="M146.694 94.8555L137.115 116.829H138.816L148.765 94.8555H146.694Z" fill="#BAE1FD"/>
<path d="M165.457 216.87L161.64 216.07L161.424 216.528L157.823 216.232C157.823 216.061 157.75 215.908 157.705 215.737C156.916 212.457 155.587 209.331 153.771 206.486L158.66 200.651L150.134 192.163L146.316 191.363L145.92 195.454H146.172L144.308 197.027C143.386 196.439 142.43 195.904 141.445 195.427C139.249 194.346 136.931 193.534 134.54 193.009L133.874 185.429L130.056 184.62L129.795 185.429H121.836L121.233 193.071C117.768 193.844 114.464 195.216 111.473 197.126L109.33 195.328L105.63 192.235L101.813 191.435C101.687 191.678 99.7869 195.616 99.7238 195.841C100.263 196.122 100.843 196.316 101.443 196.416L97.1309 200.741L102.047 206.567C100.142 209.557 98.7794 212.859 98.0222 216.322L90.4324 216.987V222.633H106.224C106.34 216.955 108.68 211.548 112.743 207.573C116.805 203.598 122.266 201.371 127.954 201.371C133.642 201.371 139.103 203.598 143.165 207.573C147.228 211.548 149.568 216.955 149.683 222.633H165.466L165.457 216.87Z" fill="#EBA63F"/>
<path d="M161.64 216.07L157.742 215.737L154.05 215.432C153.271 211.973 151.897 208.676 149.99 205.686L154.888 199.85L146.352 191.363L141.482 195.472L140.527 196.272C137.531 194.373 134.225 193.013 130.759 192.253L130.092 184.665H118.064L117.416 192.244C114.583 192.876 111.855 193.905 109.313 195.301C108.754 195.607 108.196 195.948 107.638 196.299L101.795 191.408L93.3226 199.949L98.2384 205.775C96.3387 208.767 94.9796 212.069 94.2229 215.53L86.6331 216.187V222.642H102.407C102.348 219.755 102.867 216.886 103.932 214.202C104.998 211.518 106.589 209.073 108.613 207.011C110.636 204.948 113.052 203.31 115.717 202.191C118.383 201.073 121.245 200.497 124.137 200.497C127.028 200.497 129.89 201.073 132.556 202.191C135.222 203.31 137.637 204.948 139.66 207.011C141.684 209.073 143.275 211.518 144.341 214.202C145.406 216.886 145.925 219.755 145.866 222.642H161.649L161.64 216.07Z" fill="#F4D593"/>
</g>
<defs>
<linearGradient id="paint0_linear_2009_4109" x1="23.0782" y1="109.538" x2="248.416" y2="47.8808" gradientUnits="userSpaceOnUse">
<stop stop-color="white"/>
<stop offset="1" stop-color="#D3DBEB"/>
</linearGradient>
<linearGradient id="paint1_linear_2009_4109" x1="160.208" y1="105.842" x2="121.818" y2="105.842" gradientUnits="userSpaceOnUse">
<stop stop-color="white"/>
<stop offset="1" stop-color="#D3DBEB"/>
</linearGradient>
<clipPath id="clip0_2009_4109">
<rect width="201" height="209" fill="white" transform="translate(33 14.8828)"/>
</clipPath>
</defs>
</svg>
