<svg width="116" height="116" viewBox="0 0 116 116" fill="none" xmlns="http://www.w3.org/2000/svg">
<g clip-path="url(#clip0_2009_8461)">
<path d="M76.125 81.5625C75.124 81.5625 74.3125 80.751 74.3125 79.75V77.7925C74.3246 73.8705 76.3871 70.2406 79.75 68.2225C82.0008 66.8509 83.3744 64.4058 83.375 61.77V58C83.375 56.999 84.1865 56.1875 85.1875 56.1875C86.1885 56.1875 87 56.999 87 58V61.77C86.9879 65.692 84.9254 69.3219 81.5625 71.34C79.3117 72.7116 77.9381 75.1567 77.9375 77.7925V79.75C77.9375 80.751 77.126 81.5625 76.125 81.5625Z" fill="#BAE1FD"/>
<rect x="19.9375" width="76.125" height="58" rx="2" fill="#D3D8EA"/>
<path d="M68.875 68.875H47.125L48.9375 58H67.0625L68.875 68.875Z" fill="#414267"/>
<path d="M70.6875 68.875H45.3125C44.3115 68.875 43.5 68.0635 43.5 67.0625C43.5 66.0615 44.3115 65.25 45.3125 65.25H70.6875C71.6885 65.25 72.5 66.0615 72.5 67.0625C72.5 68.0635 71.6885 68.875 70.6875 68.875Z" fill="#D3D8EA"/>
<path d="M16.3125 79.75H99.6875C101.69 79.75 103.312 81.373 103.312 83.375V110.562H12.6875V83.375C12.6875 81.373 14.3105 79.75 16.3125 79.75Z" fill="#414267"/>
<rect x="23.5625" y="3.625" width="68.875" height="47.125" fill="white"/>
<path d="M47.125 36.2496C46.6432 36.2524 46.1802 36.0633 45.8381 35.724L38.5881 28.474C38.245 28.1337 38.052 27.6704 38.052 27.1871C38.052 26.7038 38.245 26.2406 38.5881 25.9002L45.8381 18.6502C46.5489 17.9395 47.7012 17.9395 48.4119 18.6502C49.1226 19.3609 49.1226 20.5133 48.4119 21.224L42.4306 27.1871L48.4119 33.1502C48.9347 33.6688 49.0919 34.4521 48.8095 35.1322C48.5271 35.8122 47.8614 36.2539 47.125 36.2496Z" fill="#BAE1FD"/>
<path d="M68.875 36.2496C68.1386 36.2539 67.4729 35.8122 67.1905 35.1322C66.9081 34.4521 67.0653 33.6688 67.5881 33.1502L73.5694 27.1871L67.5881 21.224C66.8774 20.5133 66.8774 19.3609 67.5881 18.6502C68.2989 17.9395 69.4512 17.9395 70.1619 18.6502L77.4119 25.9002C77.755 26.2406 77.948 26.7038 77.948 27.1871C77.948 27.6704 77.755 28.1337 77.4119 28.474L70.1619 35.724C69.8198 36.0633 69.3568 36.2524 68.875 36.2496Z" fill="#BAE1FD"/>
<path d="M54.375 39.875C53.7903 39.8766 53.2408 39.5959 52.8992 39.1213C52.5576 38.6467 52.466 38.0365 52.6531 37.4825L59.9031 15.7325C60.2234 14.7816 61.254 14.2703 62.205 14.5907C63.156 14.911 63.6672 15.9416 63.3469 16.8925L56.0969 38.6425C55.8475 39.3808 55.1542 39.8771 54.375 39.875Z" fill="#BAE1FD"/>
<path d="M23.5625 88.8125H19.9375C18.9365 88.8125 18.125 88.001 18.125 87C18.125 85.999 18.9365 85.1875 19.9375 85.1875H23.5625C24.5635 85.1875 25.375 85.999 25.375 87C25.375 88.001 24.5635 88.8125 23.5625 88.8125Z" fill="#D3D8EA"/>
<path d="M38.0625 88.8125H34.4375C33.4365 88.8125 32.625 88.001 32.625 87C32.625 85.999 33.4365 85.1875 34.4375 85.1875H38.0625C39.0635 85.1875 39.875 85.999 39.875 87C39.875 88.001 39.0635 88.8125 38.0625 88.8125Z" fill="#D3D8EA"/>
<path d="M52.5625 88.8125H48.9375C47.9365 88.8125 47.125 88.001 47.125 87C47.125 85.999 47.9365 85.1875 48.9375 85.1875H52.5625C53.5635 85.1875 54.375 85.999 54.375 87C54.375 88.001 53.5635 88.8125 52.5625 88.8125Z" fill="#D3D8EA"/>
<path d="M67.0625 88.8125H63.4375C62.4365 88.8125 61.625 88.001 61.625 87C61.625 85.999 62.4365 85.1875 63.4375 85.1875H67.0625C68.0635 85.1875 68.875 85.999 68.875 87C68.875 88.001 68.0635 88.8125 67.0625 88.8125Z" fill="#D3D8EA"/>
<path d="M81.5625 88.8125H77.9375C76.9365 88.8125 76.125 88.001 76.125 87C76.125 85.999 76.9365 85.1875 77.9375 85.1875H81.5625C82.5635 85.1875 83.375 85.999 83.375 87C83.375 88.001 82.5635 88.8125 81.5625 88.8125Z" fill="#D3D8EA"/>
<path d="M96.0625 88.8125H92.4375C91.4365 88.8125 90.625 88.001 90.625 87C90.625 85.999 91.4365 85.1875 92.4375 85.1875H96.0625C97.0635 85.1875 97.875 85.999 97.875 87C97.875 88.001 97.0635 88.8125 96.0625 88.8125Z" fill="#D3D8EA"/>
<path d="M23.5625 97.875H19.9375C18.9365 97.875 18.125 97.0635 18.125 96.0625C18.125 95.0615 18.9365 94.25 19.9375 94.25H23.5625C24.5635 94.25 25.375 95.0615 25.375 96.0625C25.375 97.0635 24.5635 97.875 23.5625 97.875Z" fill="#D3D8EA"/>
<path d="M38.0625 97.875H34.4375C33.4365 97.875 32.625 97.0635 32.625 96.0625C32.625 95.0615 33.4365 94.25 34.4375 94.25H38.0625C39.0635 94.25 39.875 95.0615 39.875 96.0625C39.875 97.0635 39.0635 97.875 38.0625 97.875Z" fill="#D3D8EA"/>
<path d="M52.5625 97.875H48.9375C47.9365 97.875 47.125 97.0635 47.125 96.0625C47.125 95.0615 47.9365 94.25 48.9375 94.25H52.5625C53.5635 94.25 54.375 95.0615 54.375 96.0625C54.375 97.0635 53.5635 97.875 52.5625 97.875Z" fill="#D3D8EA"/>
<path d="M67.0625 97.875H63.4375C62.4365 97.875 61.625 97.0635 61.625 96.0625C61.625 95.0615 62.4365 94.25 63.4375 94.25H67.0625C68.0635 94.25 68.875 95.0615 68.875 96.0625C68.875 97.0635 68.0635 97.875 67.0625 97.875Z" fill="#D3D8EA"/>
<path d="M81.5625 97.875H77.9375C76.9365 97.875 76.125 97.0635 76.125 96.0625C76.125 95.0615 76.9365 94.25 77.9375 94.25H81.5625C82.5635 94.25 83.375 95.0615 83.375 96.0625C83.375 97.0635 82.5635 97.875 81.5625 97.875Z" fill="#D3D8EA"/>
<path d="M96.0625 97.875H92.4375C91.4365 97.875 90.625 97.0635 90.625 96.0625C90.625 95.0615 91.4365 94.25 92.4375 94.25H96.0625C97.0635 94.25 97.875 95.0615 97.875 96.0625C97.875 97.0635 97.0635 97.875 96.0625 97.875Z" fill="#D3D8EA"/>
<path d="M23.5625 106.938H19.9375C18.9365 106.938 18.125 106.126 18.125 105.125C18.125 104.124 18.9365 103.312 19.9375 103.312H23.5625C24.5635 103.312 25.375 104.124 25.375 105.125C25.375 106.126 24.5635 106.938 23.5625 106.938Z" fill="#D3D8EA"/>
<path d="M81.5625 106.938H34.4375C33.4365 106.938 32.625 106.126 32.625 105.125C32.625 104.124 33.4365 103.312 34.4375 103.312H81.5625C82.5635 103.312 83.375 104.124 83.375 105.125C83.375 106.126 82.5635 106.938 81.5625 106.938Z" fill="#D3D8EA"/>
<path d="M96.0625 106.938H92.4375C91.4365 106.938 90.625 106.126 90.625 105.125C90.625 104.124 91.4365 103.312 92.4375 103.312H96.0625C97.0635 103.312 97.875 104.124 97.875 105.125C97.875 106.126 97.0635 106.938 96.0625 106.938Z" fill="#D3D8EA"/>
<path d="M12.6875 110.562H103.312V112.375C103.312 114.377 101.69 116 99.6875 116H16.3125C14.3105 116 12.6875 114.377 12.6875 112.375V110.562Z" fill="#1D1D2C"/>
<rect x="29" y="7.25" width="14.5" height="3.625" fill="#D9D9D9"/>
<rect x="29" y="14.5" width="7.25" height="3.625" fill="#D9D9D9"/>
<rect x="87" y="39.875" width="7.25" height="3.625" transform="rotate(-180 87 39.875)" fill="#D9D9D9"/>
<rect x="87" y="47.125" width="7.25" height="3.625" transform="rotate(-180 87 47.125)" fill="#D9D9D9"/>
</g>
<defs>
<clipPath id="clip0_2009_8461">
<rect width="116" height="116" fill="white"/>
</clipPath>
</defs>
</svg>
