<svg width="197" height="183" viewBox="0 0 197 183" fill="none" xmlns="http://www.w3.org/2000/svg">
<path d="M196.67 181.225H6.87012V182.665H196.67V181.225Z" fill="black"/>
<path d="M14.4498 133.083C35.6198 141.623 50.2498 135.793 67.4498 157.083C84.6498 178.373 79.2198 182.893 46.6298 172.743C1.95977 158.793 -5.24023 125.113 14.4498 133.083Z" fill="#F4F6FA"/>
<path d="M41.43 181.584L51.17 177.284L48.99 170.894C51.5206 169.038 53.704 166.749 55.44 164.134L61.91 166.024L65.76 156.114L59.76 153.114C60.2312 150.012 60.1567 146.851 59.54 143.774L65.45 140.534L61.15 130.794L54.76 133.004C52.9005 130.476 50.6126 128.293 48 126.554L49.88 120.084L39.96 116.234L36.96 122.294C33.8585 121.815 30.6968 121.886 27.62 122.504L24.36 116.594L14.62 120.894L16.76 127.274C14.2335 129.136 12.0508 131.423 10.31 134.034L3.84 132.154L0 142.074L6 145.074C5.52855 148.173 5.603 151.331 6.22 154.404L0.31 157.654L4.61 167.394L10.99 165.214C12.8494 167.743 15.1373 169.926 17.75 171.664L15.86 178.134L25.79 181.974L28.79 175.924C31.8918 176.399 35.0527 176.328 38.13 175.714L41.43 181.584ZM15.31 156.894C13.7751 153.417 13.3059 149.562 13.9615 145.818C14.6171 142.074 16.3682 138.609 18.9933 135.86C21.6185 133.111 24.9998 131.202 28.7097 130.374C32.4197 129.547 36.2916 129.838 39.8361 131.211C43.3805 132.584 46.4383 134.977 48.6227 138.088C50.8071 141.199 52.0201 144.887 52.1082 148.688C52.1964 152.488 51.1559 156.229 49.1181 159.437C47.0804 162.646 44.1369 165.178 40.66 166.714C35.9959 168.772 30.7058 168.893 25.9522 167.052C21.1987 165.21 17.3709 161.557 15.31 156.894Z" fill="#075085"/>
<path d="M150.39 66.4541C148.5 64.6841 145.89 64.7041 146.08 61.4541C146.08 60.7041 146.62 59.9742 146.67 59.1942C146.744 58.6172 146.68 58.0308 146.484 57.4833C146.288 56.9357 145.964 56.4425 145.54 56.0442C143.12 53.8942 140.4 55.7242 139.76 50.8942C139.58 49.5342 140.21 48.3342 138.94 47.3042C136.94 45.6642 132.17 46.8642 130.7 48.4942C130.65 48.5542 132.49 49.2742 132.43 49.3342L132.25 49.5542C132.199 49.6232 132.162 49.7012 132.14 49.7842C131.08 51.6142 131.68 54.4941 132.97 56.0641C133.43 56.6142 136.46 57.1742 135.38 62.0641C135.232 62.7182 135.225 63.3963 135.36 64.0532C135.494 64.7102 135.767 65.3309 136.16 65.8742C136.386 66.175 136.648 66.447 136.94 66.6842C137.577 67.1377 138.017 67.8173 138.17 68.5842C137.98 71.2542 136.64 73.4342 136.85 74.7842C136.887 75.4746 137.065 76.1501 137.373 76.7692C137.681 77.3883 138.112 77.9378 138.64 78.3841C140.84 80.1341 148.47 80.4942 151.93 76.6742C154.36 73.9641 152.66 68.5841 150.39 66.4541Z" fill="black"/>
<path d="M139.08 169.894V174.734C139.08 175.041 138.958 175.336 138.74 175.554C138.523 175.771 138.228 175.894 137.92 175.894H135.76C135.607 175.895 135.455 175.866 135.313 175.808C135.171 175.75 135.042 175.665 134.933 175.557C134.824 175.45 134.738 175.321 134.679 175.18C134.62 175.038 134.59 174.887 134.59 174.734V169.794L107.76 178.604C107.462 177.474 107.607 176.274 108.164 175.248C108.722 174.222 109.65 173.448 110.76 173.084L132.76 165.894V150.104C132.76 149.53 132.987 148.979 133.392 148.573C133.797 148.166 134.346 147.936 134.92 147.934H138.55C139.125 147.934 139.677 148.162 140.084 148.569C140.491 148.976 140.72 149.528 140.72 150.104V165.894L162.72 173.134C163.832 173.494 164.764 174.267 165.322 175.295C165.881 176.322 166.023 177.524 165.72 178.654L139.08 169.894Z" fill="white"/>
<path d="M138.51 148.184C139.02 148.184 139.508 148.386 139.868 148.746C140.228 149.106 140.43 149.594 140.43 150.104V166.034L140.77 166.144L162.61 173.324C163.622 173.655 164.476 174.349 165.008 175.272C165.539 176.195 165.711 177.282 165.49 178.324L139.49 169.774L138.83 169.554V174.744C138.83 174.985 138.735 175.216 138.564 175.387C138.393 175.558 138.162 175.654 137.92 175.654H135.76C135.518 175.654 135.286 175.558 135.113 175.388C134.941 175.217 134.843 174.986 134.84 174.744V169.454L134.18 169.674L107.87 178.324C107.65 177.282 107.822 176.195 108.353 175.272C108.885 174.349 109.738 173.655 110.75 173.324L132.59 166.144L132.94 166.024V150.104C132.94 149.596 133.141 149.109 133.499 148.749C133.857 148.39 134.343 148.186 134.85 148.184H138.51ZM138.51 147.684H134.88C134.563 147.684 134.249 147.746 133.956 147.868C133.663 147.99 133.397 148.168 133.173 148.393C132.949 148.618 132.771 148.885 132.651 149.178C132.53 149.472 132.469 149.786 132.47 150.104V165.664L110.63 172.894C109.435 173.292 108.443 174.144 107.869 175.266C107.295 176.388 107.184 177.691 107.56 178.894L134.37 170.074V174.674C134.37 174.86 134.407 175.044 134.479 175.215C134.55 175.387 134.655 175.543 134.787 175.674C134.919 175.805 135.076 175.909 135.248 175.979C135.42 176.049 135.604 176.085 135.79 176.084H137.92C138.294 176.084 138.653 175.935 138.917 175.671C139.182 175.406 139.33 175.048 139.33 174.674V170.174L165.84 178.894C166.216 177.689 166.104 176.386 165.528 175.263C164.952 174.141 163.958 173.29 162.76 172.894L140.92 165.704V150.104C140.92 149.462 140.665 148.846 140.212 148.392C139.758 147.939 139.142 147.684 138.5 147.684H138.51Z" fill="black"/>
<path d="M158.7 177.183C158.7 176.246 158.978 175.329 159.499 174.55C160.02 173.77 160.76 173.163 161.626 172.804C162.492 172.445 163.445 172.352 164.365 172.534C165.284 172.717 166.129 173.169 166.792 173.832C167.455 174.495 167.906 175.339 168.089 176.259C168.272 177.178 168.178 178.131 167.819 178.997C167.461 179.863 166.853 180.604 166.074 181.125C165.294 181.645 164.378 181.923 163.44 181.923C162.183 181.923 160.977 181.424 160.089 180.535C159.2 179.646 158.7 178.44 158.7 177.183Z" fill="black"/>
<path d="M159.76 177.185C159.76 176.451 159.977 175.734 160.385 175.123C160.793 174.513 161.372 174.038 162.05 173.757C162.728 173.476 163.474 173.403 164.194 173.546C164.913 173.689 165.574 174.042 166.093 174.561C166.612 175.08 166.965 175.741 167.108 176.461C167.252 177.18 167.178 177.926 166.897 178.604C166.617 179.282 166.141 179.862 165.531 180.269C164.921 180.677 164.204 180.895 163.47 180.895C162.486 180.895 161.542 180.504 160.846 179.808C160.151 179.112 159.76 178.169 159.76 177.185Z" fill="black"/>
<path d="M132.11 177.183C132.11 176.246 132.388 175.329 132.909 174.55C133.43 173.77 134.17 173.163 135.036 172.804C135.903 172.445 136.856 172.352 137.775 172.534C138.695 172.717 139.539 173.169 140.202 173.832C140.865 174.495 141.316 175.339 141.499 176.259C141.682 177.178 141.588 178.131 141.23 178.997C140.871 179.863 140.263 180.604 139.484 181.125C138.704 181.645 137.788 181.923 136.85 181.923C135.593 181.923 134.388 181.424 133.499 180.535C132.61 179.646 132.11 178.44 132.11 177.183Z" fill="black"/>
<path d="M133.15 177.185C133.15 176.45 133.368 175.733 133.776 175.122C134.184 174.512 134.764 174.037 135.443 173.756C136.121 173.476 136.868 173.403 137.588 173.547C138.308 173.691 138.969 174.045 139.487 174.565C140.006 175.085 140.358 175.747 140.5 176.467C140.642 177.187 140.567 177.934 140.285 178.611C140.003 179.289 139.526 179.868 138.914 180.274C138.303 180.681 137.585 180.897 136.85 180.895C135.868 180.892 134.927 180.5 134.233 179.804C133.54 179.109 133.15 178.167 133.15 177.185Z" fill="black"/>
<path d="M104.76 177.183C104.76 176.245 105.038 175.329 105.559 174.549C106.081 173.769 106.821 173.162 107.688 172.803C108.555 172.445 109.508 172.351 110.428 172.535C111.348 172.719 112.192 173.171 112.855 173.835C113.517 174.499 113.968 175.345 114.15 176.265C114.332 177.185 114.236 178.138 113.876 179.004C113.516 179.87 112.907 180.61 112.126 181.129C111.345 181.649 110.428 181.925 109.49 181.923C108.234 181.921 107.031 181.42 106.145 180.532C105.258 179.643 104.76 178.439 104.76 177.183Z" fill="black"/>
<path d="M105.76 177.185C105.76 176.45 105.978 175.733 106.386 175.122C106.794 174.512 107.374 174.037 108.052 173.756C108.731 173.476 109.477 173.403 110.197 173.547C110.917 173.691 111.578 174.045 112.097 174.565C112.615 175.085 112.968 175.747 113.11 176.467C113.252 177.187 113.177 177.934 112.894 178.611C112.612 179.289 112.135 179.868 111.524 180.274C110.912 180.681 110.194 180.897 109.46 180.895C108.973 180.895 108.491 180.799 108.042 180.612C107.592 180.425 107.184 180.152 106.84 179.807C106.496 179.463 106.224 179.054 106.039 178.604C105.853 178.154 105.758 177.671 105.76 177.185Z" fill="black"/>
<path d="M106.56 141.313C106.56 141.808 106.657 142.299 106.847 142.756C107.036 143.213 107.314 143.629 107.664 143.979C108.014 144.329 108.429 144.607 108.887 144.796C109.344 144.986 109.834 145.083 110.33 145.083H141.76L144.02 144.383C149.69 142.573 164.18 137.853 165.14 136.383C166.34 134.493 169.21 107.873 169.21 107.873H137.76C136.779 107.809 135.811 108.131 135.064 108.77C134.317 109.409 133.849 110.314 133.76 111.293L133.03 127.953C132.81 130.561 131.621 132.992 129.698 134.767C127.775 136.542 125.257 137.532 122.64 137.543H110.33C109.33 137.543 108.371 137.94 107.664 138.647C106.957 139.354 106.56 140.313 106.56 141.313Z" fill="#075085"/>
<path d="M130.19 149.894H142.58C144.39 149.894 145.87 147.284 145.87 144.064H126.87C126.9 147.274 128.38 149.894 130.19 149.894Z" fill="black"/>
<path d="M106.56 141.315C106.56 141.81 106.657 142.3 106.847 142.758C107.036 143.215 107.314 143.631 107.664 143.981C108.014 144.331 108.429 144.608 108.887 144.798C109.344 144.987 109.834 145.085 110.33 145.085H144V137.545H110.33C109.33 137.545 108.371 137.942 107.664 138.649C106.957 139.356 106.56 140.315 106.56 141.315Z" fill="#075085"/>
<path d="M141.76 145.085H154.02C158.533 145.066 162.874 143.357 166.19 140.295C169.505 137.234 171.553 133.042 171.93 128.545L172.66 111.885C172.738 110.888 172.417 109.9 171.768 109.14C171.118 108.379 170.192 107.908 169.195 107.83C168.198 107.752 167.211 108.073 166.45 108.723C165.69 109.372 165.218 110.298 165.14 111.295L164.41 127.945C164.19 130.554 163.002 132.986 161.079 134.762C159.156 136.539 156.638 137.532 154.02 137.545H141.76C140.76 137.545 139.801 137.942 139.094 138.649C138.387 139.356 137.99 140.315 137.99 141.315C137.99 142.315 138.387 143.274 139.094 143.981C139.801 144.688 140.76 145.085 141.76 145.085Z" fill="black"/>
<path d="M72.3203 170.214L72.9703 164.934L76.5603 166.654L74.2603 170.874L72.3203 170.214Z" fill="white"/>
<path d="M73.1798 165.303L76.1798 166.763L74.1098 170.563L72.5498 170.033L73.1398 165.303H73.1798ZM72.7698 164.553L72.0498 170.373L74.3898 171.173L76.9098 166.533L72.7698 164.533V164.553Z" fill="black"/>
<path d="M71.8704 169.615C71.8704 169.615 61.9904 166.275 58.3604 170.665L74.4704 176.105C74.4704 176.105 76.9804 173.015 74.6404 170.715C74.122 170.863 73.569 170.836 73.0679 170.637C72.5667 170.438 72.1456 170.078 71.8704 169.615Z" fill="black"/>
<path d="M95.8301 169.994L99.8201 170.484L98.9901 175.224L96.3501 175.354L95.8301 169.994Z" fill="white"/>
<path d="M96.1096 170.283L99.5296 170.693L98.7796 174.973L96.5796 175.093L96.1096 170.283ZM95.5596 169.703L96.1296 175.613L99.2096 175.453L100.12 170.263L95.5596 169.703Z" fill="black"/>
<path d="M119.57 112.014C119.57 112.014 96.4596 115.894 88.3096 124.174C78.4796 134.174 71.5996 165.244 71.5996 165.244L76.9096 167.894C76.9096 167.894 92.4696 143.724 98.2096 137.894C103.95 132.064 120.9 137.174 129.83 132.654C147.69 123.584 119.57 112.014 119.57 112.014Z" fill="black"/>
<path d="M82.1299 159.724C82.1299 159.724 95.4099 138.534 100.51 135.914C105.61 133.294 129.76 121.234 129.76 121.234L125.76 116.234C125.76 116.234 99.4899 118.744 93.4099 127.354C84.4799 139.894 82.1299 159.724 82.1299 159.724Z" fill="black"/>
<path d="M145.85 112.014C145.85 112.014 110.67 116.434 102.51 124.714C92.6899 134.714 95.1699 171.174 95.1699 171.174L100.5 171.794C100.5 171.794 107.92 145.924 113.65 140.094C119.38 134.264 133.49 139.904 142.83 136.294C158.32 130.324 145.85 112.014 145.85 112.014Z" fill="black"/>
<path d="M101.91 110.944C97.6804 110.944 89.9104 108.384 85.2804 106.854C83.8804 106.384 82.7704 106.024 82.0904 105.854C81.6004 105.714 80.7304 104.074 80.1904 102.774H80.3204C87.9204 102.774 102.73 99.9637 103.63 98.3537C103.84 97.8568 104.023 97.3495 104.18 96.8337C105.64 92.5737 109.51 81.2637 115.01 78.4637C115.397 78.225 115.83 78.0715 116.28 78.0137C116.65 78.0137 116.77 78.3437 117.06 79.3737C117.16 79.7437 117.28 80.1737 117.45 80.6537C119.1 85.4837 117.01 96.3537 113.15 103.024C112.27 104.554 111.63 105.784 111.15 106.764C109.15 110.584 109.15 110.584 103.22 110.904H102.45L101.91 110.944Z" fill="white"/>
<path d="M116.28 78.2441C116.46 78.2441 116.57 78.5041 116.82 79.4141C116.92 79.7941 117.04 80.2241 117.21 80.7141C118.84 85.4841 116.77 96.2541 112.94 102.874C112.05 104.414 111.41 105.644 110.94 106.624C109.03 110.324 109.03 110.324 103.22 110.624H102.45H101.95C97.7596 110.624 90.0196 108.074 85.3996 106.544C83.9896 106.084 82.8796 105.714 82.1896 105.544C81.4852 104.803 80.9466 103.92 80.6096 102.954C87.9296 102.894 102.88 100.214 103.88 98.4041C104.11 97.8987 104.304 97.3774 104.46 96.8441C105.77 93.0141 109.76 81.3741 115.17 78.6141C115.521 78.3991 115.912 78.2563 116.32 78.1941L116.28 78.2441ZM116.28 77.7441C115.791 77.8001 115.321 77.9604 114.9 78.2141C108.24 81.6141 103.9 97.2641 103.41 98.2141C102.62 99.6241 88.1596 102.504 80.3296 102.504H79.8096C79.8096 102.504 81.1196 105.824 82.0196 106.074C85.0196 106.894 96.3696 111.194 101.91 111.194H102.44C110.94 110.714 108.78 111.084 113.37 103.134C117.27 96.3941 119.37 85.5041 117.68 80.5641C117.08 78.8041 117.09 77.7541 116.28 77.7541V77.7441Z" fill="black"/>
<path d="M78.2097 106.273C77.9226 106.277 77.6363 106.24 77.3597 106.163C77.1556 106.16 76.9546 106.112 76.7713 106.022C76.588 105.932 76.4269 105.803 76.2997 105.643C76.2514 105.584 76.2165 105.515 76.1975 105.44C76.1785 105.366 76.1759 105.289 76.1897 105.213V105.033L76.0297 104.953C75.8117 104.844 75.641 104.659 75.5497 104.433C75.5155 104.36 75.503 104.279 75.5137 104.199C75.5243 104.12 75.5576 104.045 75.6097 103.983L75.7697 103.773L75.5397 103.623C75.4481 103.579 75.3733 103.507 75.3265 103.417C75.2796 103.326 75.2632 103.224 75.2797 103.123C75.2889 102.996 75.3305 102.873 75.4005 102.766C75.4705 102.66 75.5666 102.573 75.6797 102.513L75.8797 102.383L75.7597 102.183C75.714 102.087 75.6963 101.979 75.7087 101.873C75.7211 101.767 75.763 101.667 75.8297 101.583C75.9672 101.378 76.1583 101.215 76.3822 101.111C76.6061 101.007 76.8543 100.966 77.0997 100.993C77.2495 100.983 77.3999 100.983 77.5497 100.993C78.231 101 78.9067 101.118 79.5497 101.343L80.1497 101.583L79.8597 101.003C79.6222 100.687 79.4563 100.323 79.3734 99.9361C79.2905 99.5493 79.2927 99.1491 79.3797 98.7633C79.3965 98.6821 79.4423 98.6099 79.5086 98.5602C79.5749 98.5105 79.6571 98.4867 79.7397 98.4933C79.8114 98.4875 79.883 98.5061 79.9429 98.546C80.0028 98.5859 80.0474 98.6448 80.0697 98.7133C80.3344 99.6216 80.7284 100.487 81.2397 101.283C81.4932 101.733 81.6531 102.23 81.7097 102.743V102.863H81.7897H81.8497H81.9297C83.5597 102.953 84.5297 103.623 84.5297 104.203C84.5297 104.783 83.3997 105.873 79.2197 106.023C78.8912 106.137 78.5532 106.22 78.2097 106.273Z" fill="white"/>
<path d="M79.7596 98.7837C79.8296 98.7837 79.8396 98.7837 79.8396 98.7837C80.1226 99.7109 80.5296 100.596 81.0496 101.414C81.283 101.837 81.4292 102.303 81.4796 102.784V102.984L81.5396 103.034L81.6396 103.114L81.7596 103.204H81.9096C83.4596 103.294 84.2796 103.894 84.2796 104.294C84.2796 104.694 82.8896 105.734 79.2096 105.864H79.1396C78.81 105.928 78.4753 105.961 78.1396 105.964C77.8792 105.972 77.6191 105.939 77.3696 105.864H77.3196C77.1603 105.862 77.0033 105.826 76.8598 105.757C76.7163 105.687 76.5899 105.587 76.4896 105.464C76.4606 105.43 76.4393 105.39 76.4272 105.346C76.4151 105.303 76.4125 105.258 76.4196 105.214L76.4796 104.874L76.1796 104.694C76.0114 104.617 75.8765 104.482 75.7996 104.314C75.7803 104.28 75.7701 104.242 75.7701 104.204C75.7701 104.165 75.7803 104.127 75.7996 104.094L76.1096 103.664L75.6696 103.374C75.6148 103.353 75.5693 103.314 75.5417 103.262C75.514 103.21 75.5062 103.151 75.5196 103.094C75.5196 102.984 75.5196 102.844 75.8096 102.684L76.1996 102.424L75.9696 102.014C75.9696 102.014 75.8996 101.894 76.0396 101.664C76.1533 101.508 76.3048 101.384 76.4798 101.304C76.6548 101.223 76.8475 101.189 77.0396 101.204C77.1795 101.195 77.3197 101.195 77.4596 101.204H77.5896C78.2144 101.213 78.8332 101.328 79.4196 101.544L80.2196 101.844L80.0896 101.004V100.874L80.0096 100.784C79.8015 100.499 79.6564 100.174 79.584 99.829C79.5116 99.4841 79.5135 99.1278 79.5896 98.7837C79.5896 98.7237 79.7096 98.7237 79.7096 98.7237L79.7596 98.7837ZM79.7596 98.2837C79.6189 98.278 79.4808 98.322 79.3693 98.4079C79.2577 98.4938 79.18 98.6162 79.1496 98.7537C79.0607 99.1671 79.0601 99.5946 79.148 100.008C79.2359 100.422 79.4103 100.812 79.6596 101.154C79.0186 100.918 78.3424 100.793 77.6596 100.784H77.5996C77.4364 100.774 77.2728 100.774 77.1096 100.784C76.8219 100.758 76.5327 100.811 76.2723 100.936C76.0119 101.061 75.7899 101.253 75.6296 101.494C75.5378 101.614 75.4825 101.758 75.47 101.908C75.4576 102.059 75.4887 102.21 75.5596 102.344C75.4131 102.423 75.2888 102.538 75.198 102.678C75.1072 102.817 75.0528 102.978 75.0396 103.144C75.0236 103.289 75.0511 103.436 75.1188 103.566C75.1864 103.696 75.2911 103.803 75.4196 103.874C75.3432 103.969 75.2936 104.084 75.276 104.205C75.2585 104.326 75.2735 104.45 75.3196 104.564C75.4349 104.843 75.6483 105.071 75.9196 105.204C75.8974 105.313 75.8993 105.426 75.9252 105.535C75.9511 105.644 76.0003 105.746 76.0696 105.834C76.2103 106.014 76.3889 106.161 76.5928 106.265C76.7967 106.369 77.021 106.426 77.2496 106.434C77.5502 106.529 77.8645 106.572 78.1796 106.564C78.5489 106.561 78.9171 106.524 79.2796 106.454C86.5896 106.184 85.7796 103.014 81.9896 102.794C81.9279 102.247 81.7543 101.72 81.4796 101.244C80.9813 100.466 80.5974 99.6206 80.3396 98.7337C80.3022 98.6134 80.2259 98.5089 80.1228 98.4365C80.0197 98.3642 79.8955 98.328 79.7696 98.3337L79.7596 98.2837Z" fill="black"/>
<path d="M82.3102 105.615L82.1902 105.525L80.9502 103.135L81.0702 102.975L81.4202 102.555H81.6102C81.8002 102.775 82.2502 102.885 82.9902 102.885C84.0222 103.089 84.9795 103.57 85.7602 104.275L85.0502 105.415C84.8734 105.519 84.6856 105.602 84.4902 105.665L83.7802 105.875H82.7802L82.3102 105.615Z" fill="white"/>
<path d="M81.5002 102.894C81.9453 103.197 82.4865 103.325 83.0202 103.254C83.9205 103.413 84.7644 103.803 85.4702 104.384C85.3502 104.564 85.1702 104.854 84.9102 105.274C84.7667 105.354 84.616 105.421 84.4602 105.474L83.8102 105.664H82.9002L82.4602 105.424L82.3902 105.374L81.2502 103.174L81.5002 102.874V102.894ZM81.3202 102.334L80.8702 102.874L80.6602 103.164L82.0002 105.744L82.1902 105.884L82.7802 106.194H83.8902L84.6002 105.984C84.8342 105.906 85.0589 105.802 85.2702 105.674L86.1202 104.304C85.2462 103.522 84.1736 102.996 83.0202 102.784C81.7402 102.784 81.7902 102.444 81.7902 102.444L81.3302 102.364L81.3202 102.334Z" fill="black"/>
<path d="M121.39 94.5331C118.799 94.9746 116.147 94.8895 113.59 94.2831C113.09 94.1749 112.599 94.0312 112.12 93.8531C109.746 92.9919 107.58 91.6429 105.76 89.8931C106.03 88.5431 108.12 79.5431 112.76 75.4431C114.093 74.2736 115.559 73.2665 117.13 72.4431C118.81 71.5731 120.6 71.0931 121.92 71.8331C122.142 71.9598 122.347 72.1144 122.53 72.2931C126.68 76.3031 123.82 86.8931 121.39 94.5331Z" fill="#075085"/>
<path d="M117.62 95.0736C115.759 94.8047 113.92 94.3969 112.12 93.8536C118.51 89.3436 112.38 83.1136 114.5 80.3136C115.41 79.1236 115.88 73.3936 117.21 72.4236C118.89 71.5536 120.68 71.0736 122 71.8136C120.83 72.7436 118.63 74.8136 117.56 75.5436C115.65 78.1436 117.33 82.1436 117.37 85.3236C117.48 85.9636 117.97 94.8936 117.62 95.0736Z" fill="black"/>
<path d="M106.76 114.694C126.48 123.294 148.29 112.474 148.38 112.434C148.02 111.724 143.61 104.284 142.38 101.574C141.784 100.123 141.42 98.5879 141.3 97.0241C141.062 94.6969 141.062 92.3514 141.3 90.0241C141.38 89.1741 141.47 88.5341 141.51 88.2341C141.518 88.1979 141.518 88.1604 141.51 88.1241C143.09 80.2341 146.51 70.8741 137.38 67.9841C136.076 67.5927 134.736 67.338 133.38 67.2241C131.449 67.0815 129.51 67.0815 127.58 67.2241C125.53 67.9673 123.526 68.8322 121.58 69.8141C120.49 70.3641 119.34 70.9941 118.24 71.6841C114.93 73.7541 114.24 77.9141 114.33 80.7441C114.41 82.7441 116.76 86.8941 117.4 87.7441C116 97.0241 108.23 111.994 106.76 114.694Z" fill="#075085"/>
<path d="M125.76 69.8932C125.644 69.9085 125.526 69.9085 125.41 69.8932C125.367 69.8916 125.325 69.8787 125.288 69.8559C125.251 69.8332 125.221 69.8012 125.2 69.7632C125.152 69.2282 125.286 68.6928 125.58 68.2432V68.1832V64.5332L130.41 62.5332V67.0232C129.98 67.4632 127.57 69.8832 125.73 69.8832L125.76 69.8932Z" fill="white"/>
<path d="M130.23 62.8947V66.8947C129.38 67.7647 127.29 69.6047 125.79 69.6047C125.68 69.6141 125.57 69.6141 125.46 69.6047C125.449 69.1471 125.578 68.697 125.83 68.3147L125.89 68.1947V64.6947L130.23 62.8947ZM130.73 62.1447L125.39 64.3547V68.0547C125.39 68.0547 124.39 69.8747 125.39 70.0547C125.523 70.07 125.657 70.07 125.79 70.0547C127.94 70.0547 130.73 67.0547 130.73 67.0547V62.0547V62.1447Z" fill="black"/>
<path d="M144.24 114.463C135.8 114.113 126.16 108.873 125.24 108.333L125.17 108.163H124.9C124.587 108.311 124.245 108.386 123.9 108.383C123.061 108.351 122.243 108.11 121.52 107.683H121.46C121.227 107.668 120.993 107.668 120.76 107.683C119.885 107.687 119.016 107.836 118.19 108.123C118.15 108.132 118.109 108.132 118.07 108.123C118.029 108.123 117.988 108.113 117.952 108.094C117.915 108.074 117.884 108.047 117.86 108.013C117.821 107.955 117.795 107.889 117.785 107.82C117.774 107.751 117.779 107.68 117.8 107.613L117.96 107.123L117.48 107.293C117.129 107.41 116.793 107.567 116.48 107.763C116.427 107.801 116.364 107.822 116.3 107.823C116.238 107.818 116.179 107.796 116.129 107.761C116.078 107.726 116.037 107.679 116.01 107.623C115.977 107.563 115.96 107.496 115.96 107.428C115.96 107.36 115.977 107.293 116.01 107.233L116.45 106.543L115.57 106.923C115.467 106.959 115.366 107.002 115.27 107.053C115.211 107.071 115.148 107.071 115.09 107.053C115.001 107.047 114.916 107.013 114.847 106.955C114.779 106.898 114.731 106.82 114.71 106.733C114.69 106.664 114.696 106.59 114.727 106.525C114.759 106.461 114.813 106.41 114.88 106.383L115.06 106.303L115.31 106.193V105.933C115.262 105.85 115.247 105.751 115.267 105.657C115.287 105.563 115.342 105.48 115.42 105.423C116.841 104.55 118.495 104.132 120.16 104.223H121.1C121.324 104.185 121.552 104.165 121.78 104.163H121.76C122.07 104.163 122.37 104.163 122.67 104.163C123.116 104.16 123.562 104.204 124 104.293L126.92 104.483C130.75 104.743 136.53 105.133 139.47 105.133C141.21 105.133 141.47 105.013 141.47 104.753C141.83 103.153 141.47 95.4932 140 91.9232C139.846 91.3563 139.739 90.7777 139.68 90.1932C139.647 89.5094 139.509 88.8348 139.27 88.1932C139.27 88.1932 139.27 87.9532 139.47 87.5332C140.33 85.9632 143.52 83.0332 146.55 83.0332C148.28 83.0332 149.65 84.0332 150.62 86.0332C152.62 95.2332 152.62 107.563 148.62 112.423C148.132 113.074 147.5 113.603 146.773 113.968C146.045 114.332 145.243 114.522 144.43 114.523L144.24 114.463Z" fill="white"/>
<path d="M146.55 82.7737V83.2737C148.19 83.2737 149.48 84.2137 150.4 86.0737C152.4 95.2837 152.19 107.544 148.46 112.154C147.995 112.775 147.391 113.279 146.696 113.626C146.002 113.973 145.236 114.154 144.46 114.154H144.22C136.06 113.814 126.72 108.854 125.37 108.154L125.22 107.714L124.71 107.974C124.421 108.103 124.107 108.168 123.79 108.164C122.994 108.124 122.219 107.894 121.53 107.494H121.44H121.33C121.091 107.479 120.85 107.479 120.61 107.494C119.694 107.501 118.785 107.659 117.92 107.964C117.904 107.936 117.896 107.905 117.896 107.874C117.896 107.842 117.904 107.811 117.92 107.784L118.24 106.784L117.24 107.124C116.87 107.241 116.517 107.405 116.19 107.614H116.14C116.14 107.614 116.14 107.614 116.07 107.544C116.061 107.523 116.055 107.501 116.055 107.479C116.055 107.456 116.061 107.434 116.07 107.414L116.95 106.034L115.45 106.684H115.33C115.217 106.722 115.107 106.769 115 106.824H114.94C114.908 106.818 114.878 106.802 114.855 106.779C114.831 106.756 114.816 106.726 114.81 106.694C114.81 106.694 114.81 106.694 114.81 106.624L114.98 106.544H115.05L115.54 106.344L115.31 105.874C115.25 105.744 115.31 105.694 115.31 105.674C116.697 104.838 118.303 104.437 119.92 104.524H120.87H120.93C121.13 104.504 121.331 104.504 121.53 104.524H121.76C122.04 104.524 122.33 104.524 122.62 104.524C123.047 104.515 123.474 104.559 123.89 104.654H123.98L126.86 104.834C130.68 105.094 136.47 105.484 139.42 105.484C141.05 105.484 141.57 105.404 141.68 104.904C142.05 103.284 141.68 95.5437 140.21 91.9037C140.061 91.3565 139.957 90.7979 139.9 90.2337C139.851 89.5511 139.71 88.8783 139.48 88.2337C139.701 87.5882 140.083 87.0099 140.59 86.5537C141.93 85.1037 144.29 83.4137 146.51 83.4137V82.9137L146.55 82.7737ZM146.55 82.7737C142.7 82.7737 138.55 87.4237 139.07 88.3137C139.36 88.7737 139.51 91.3137 139.78 91.9737C141.21 95.5337 141.58 103.134 141.24 104.654C141.24 104.784 140.53 104.844 139.46 104.844C135.46 104.844 126.15 104.124 124.04 104.014C123.587 103.916 123.124 103.869 122.66 103.874C122.35 103.874 122.05 103.874 121.76 103.874H121.62C121.389 103.873 121.158 103.893 120.93 103.934C118.86 104.074 116.93 103.934 115.11 105.224C114.985 105.314 114.896 105.447 114.862 105.598C114.827 105.749 114.847 105.907 114.92 106.044L114.64 106.174C114.04 106.494 114.41 107.314 114.97 107.314C115.075 107.313 115.179 107.286 115.27 107.234C115.403 107.167 115.54 107.11 115.68 107.064C115.619 107.159 115.584 107.268 115.578 107.38C115.572 107.493 115.595 107.605 115.646 107.706C115.696 107.807 115.772 107.893 115.866 107.956C115.959 108.018 116.068 108.056 116.18 108.064C116.294 108.061 116.405 108.027 116.5 107.964C116.798 107.779 117.117 107.631 117.45 107.524C117.414 107.611 117.399 107.706 117.405 107.801C117.412 107.896 117.441 107.987 117.49 108.069C117.538 108.151 117.605 108.22 117.685 108.271C117.765 108.322 117.856 108.354 117.95 108.364C118.02 108.376 118.091 108.376 118.16 108.364C118.957 108.084 119.795 107.938 120.64 107.934C120.867 107.919 121.094 107.919 121.32 107.934C122.081 108.378 122.94 108.628 123.82 108.664C124.214 108.671 124.603 108.589 124.96 108.424C124.962 108.447 124.962 108.47 124.96 108.494C124.96 108.494 135.2 114.334 144.21 114.704H144.47C153.03 114.704 153.2 96.7637 150.88 85.9737C150.88 85.9737 150.88 85.9037 150.88 85.8537C149.76 83.5837 148.21 82.7637 146.58 82.7637L146.55 82.7737Z" fill="black"/>
<path d="M121.76 88.9647C124.65 91.1647 128.76 91.1947 132.13 92.4747C135.07 93.6147 138.13 96.3447 141.24 97.0247C141.002 94.6974 141.002 92.3519 141.24 90.0247C141.219 89.9848 141.188 89.9505 141.15 89.9247C141.24 89.3647 141.33 88.8047 141.45 88.2347C141.441 88.1986 141.441 88.1608 141.45 88.1247C140.692 86.7529 139.712 85.5162 138.55 84.4647C134.82 80.8947 135.76 72.0547 135.76 72.0547C134.9 76.4547 134.68 83.1947 136.15 85.8947C137.023 87.4221 138.027 88.8709 139.15 90.2247C139.15 90.2247 139.15 90.3147 139.15 90.3747C139.24 91.8247 130.34 88.8747 129.28 88.5947C126.949 87.9274 124.523 87.6504 122.1 87.7747C121.43 87.8147 121.37 88.6447 121.76 88.9647Z" fill="black"/>
<path d="M138.76 93.1039C138.02 91.9339 133.3 84.0039 133.76 77.8739C133.99 75.0839 134.96 68.8739 138.49 68.9539C144.14 69.1339 149.42 78.7839 152.94 85.9539C149.45 90.4339 145.14 93.0839 138.76 93.1039Z" fill="#075085"/>
<path d="M140.45 69.6333L139.58 69.1133C139.25 68.9133 137.17 68.1133 137.17 68.1133L133.81 72.1133L133.46 76.4233L134.97 77.4233C134.97 77.4233 135.07 77.0333 135.27 77.3233C135.479 77.5279 135.75 77.658 136.04 77.6933L138.04 75.3933C138.04 75.3933 139.75 72.7733 139.86 72.5833C139.97 72.3933 140.45 69.6333 140.45 69.6333Z" fill="#075085"/>
<path d="M118.21 71.8939C117.587 72.3826 116.917 72.808 116.21 73.1639C115.7 73.3239 113.31 75.2339 113.42 76.9439C113.53 78.6539 114.03 81.4139 114.03 81.4139L114.13 80.9139C114.13 80.9139 114.13 80.4139 114.45 80.7339C114.77 81.0539 115.36 80.6639 115.36 80.6639L116.79 78.3039L120.45 74.8339L122.75 74.1139L122.35 71.5039L118.21 71.8939Z" fill="#075085"/>
<path d="M126.16 66.1245C123.06 65.9945 120.68 62.3045 120.87 57.9045C121.06 53.5045 123.64 50.1445 126.66 50.1445H126.82C129.93 50.2645 132.3 53.9545 132.12 58.3545C131.94 62.7545 129.35 66.1145 126.33 66.1145L126.16 66.1245Z" fill="white"/>
<path d="M126.66 50.3945H126.81C129.81 50.5245 132.05 54.0945 131.87 58.3945C131.69 62.6945 129.22 65.8945 126.33 65.8945H126.17C123.17 65.7745 120.94 62.2045 121.11 57.8945C121.28 53.5845 123.76 50.3945 126.66 50.3945ZM126.66 49.8945C123.49 49.8945 120.8 53.4245 120.66 57.8945C120.52 62.3645 122.95 66.2445 126.19 66.3745H126.37C129.54 66.3745 132.23 62.8445 132.37 58.3745C132.51 53.9045 130.08 50.0345 126.83 49.9045L126.66 49.8945Z" fill="black"/>
<path d="M121.89 62.1343C121.48 62.1343 120.98 62.1343 120.68 62.0643C120.917 61.3168 121.225 60.5936 121.6 59.9043C121.921 60.6105 122.143 61.3575 122.26 62.1243L121.89 62.1343Z" fill="white"/>
<path d="M121.57 60.5245C121.74 60.9678 121.881 61.4222 121.99 61.8845H121.89C121.61 61.8845 121.28 61.8845 121.01 61.8845C121.168 61.4331 121.356 60.9922 121.57 60.5645V60.5245ZM121.62 59.3145C121.146 60.1738 120.751 61.0741 120.44 62.0045C120.433 62.0388 120.433 62.0743 120.44 62.1086C120.448 62.1429 120.462 62.1752 120.483 62.2035C120.504 62.2318 120.53 62.2554 120.561 62.2728C120.591 62.2902 120.625 62.301 120.66 62.3045C121.068 62.355 121.479 62.3817 121.89 62.3845C122.056 62.4027 122.224 62.4027 122.39 62.3845C122.89 62.2645 121.62 59.3845 121.62 59.3845V59.3145Z" fill="black"/>
<path d="M130.94 55.3939C130.493 55.4533 130.038 55.3655 129.645 55.1436C129.251 54.9217 128.941 54.5778 128.76 54.1639C127.97 52.6539 125.9 53.1639 124.52 54.1639C123.14 55.1639 121.74 56.0039 119.86 55.3339C118.43 54.8239 116.42 52.4539 118.51 50.2239C120.41 48.2239 122.03 50.1639 122.8 48.9139C123.57 47.6639 125.73 46.2539 127.14 47.4239C128.55 48.5939 131.44 47.2439 132.84 47.5439C135.42 48.0939 136.27 53.0439 136.48 53.9439C137.48 58.0839 135.81 61.8139 133.56 62.1539C129.96 62.7439 132.17 57.0739 130.94 55.3939Z" fill="black"/>
<path d="M131.58 59.8941C131.441 59.8918 131.304 59.8576 131.18 59.7941C131.007 59.7267 130.851 59.6218 130.723 59.487C130.595 59.3521 130.498 59.1906 130.44 59.0141C130.32 58.3911 130.415 57.7459 130.71 57.1841C130.71 57.1841 131.23 56.4141 131.85 56.4141C132.053 56.4216 132.248 56.4994 132.4 56.6341C132.631 56.9494 132.772 57.3205 132.811 57.7091C132.85 58.0977 132.784 58.4895 132.62 58.8441C132.4 59.5041 132.01 59.8941 131.58 59.8941Z" fill="white"/>
<path d="M131.85 56.6641C131.995 56.6702 132.133 56.7268 132.24 56.8241C132.59 57.0941 132.65 58.0041 132.39 58.7641C132.24 59.1941 131.95 59.6441 131.58 59.6441C131.479 59.6435 131.38 59.6196 131.29 59.5741C131.15 59.5181 131.023 59.433 130.917 59.3244C130.812 59.2158 130.731 59.0862 130.68 58.9441C130.573 58.3968 130.654 57.8296 130.91 57.3341C131.01 57.1941 131.43 56.6641 131.85 56.6641ZM131.85 56.1641C131.08 56.1641 130.5 57.0641 130.5 57.0641C130.5 57.0641 129.34 59.2141 131.09 60.0641C131.246 60.1391 131.417 60.18 131.59 60.1841C132.99 60.1841 133.59 57.2541 132.59 56.4741C132.394 56.3011 132.142 56.2051 131.88 56.2041L131.85 56.1641Z" fill="black"/>
<path d="M121.23 59.4745L122.01 58.8145L123.01 61.6045V62.5045L122.44 62.5745C122.333 62.5674 122.228 62.5403 122.13 62.4945C121.89 62.4045 121.76 61.3045 121.76 61.3045L121.23 59.4745Z" fill="white"/>
<path d="M131.23 56.084L131.37 56.864L131.46 59.864C131.382 60.1454 131.382 60.4426 131.46 60.724C131.6 61.194 129.98 61.114 129.78 61.124C129.596 61.1043 129.419 61.0463 129.26 60.954C129.066 60.0737 128.969 59.1752 128.97 58.274C129.07 57.464 129.14 57.014 129.34 56.844C129.953 56.5519 130.585 56.2981 131.23 56.084Z" fill="white"/>
<path d="M96.2903 174.805C96.2903 174.805 85.8603 174.805 83.8203 180.125H100.82C100.82 180.125 102.21 176.385 99.2603 174.965C98.8169 175.269 98.2852 175.418 97.7481 175.39C97.211 175.361 96.6985 175.155 96.2903 174.805Z" fill="black"/>
<path d="M152.94 111.055L149.59 116.725H29.3598L26.0098 111.055H152.94Z" fill="#AAB6C2"/>
<path d="M149.91 182.155H152.9L147.73 116.725H141.38L149.91 182.155Z" fill="black"/>
<path d="M134.45 182.155H137.45L132.28 116.725H125.93L134.45 182.155Z" fill="#AAB6C2"/>
<path d="M30.2498 182.155H27.2598L32.4298 116.725H38.7698L30.2498 182.155Z" fill="#AAB6C2"/>
<path d="M44.5996 182.155H41.5996L46.7796 116.725H53.1196L44.5996 182.155Z" fill="black"/>
<path d="M152.94 111.055L149.59 116.725H123.57L121.63 111.055H152.94Z" fill="black"/>
<path d="M91.3604 106.443L112.38 108.323L95.2903 108.243L91.3604 106.443Z" fill="black"/>
<path d="M95.5403 108.494L112.14 108.574L112.21 110.624L95.5303 110.994L95.5403 108.494Z" fill="white"/>
<path d="M95.7598 108.744L111.86 108.824V110.374L95.6998 110.734V108.734L95.7598 108.744ZM95.2598 108.244V111.244L112.45 110.864L112.37 108.324L95.2798 108.244H95.2598Z" fill="black"/>
<path d="M58.5303 107.953L95.2903 108.243L95.2803 111.253L58.5303 110.723V107.953Z" fill="black"/>
<path d="M95.8102 84.7845C95.769 84.4547 95.6093 84.1512 95.361 83.9305C95.1126 83.7097 94.7925 83.5867 94.4602 83.5845L60.6502 83.3145C60.3832 83.317 60.1227 83.3969 59.9002 83.5445L57.9902 84.5445L58.9902 85.9345L59.2202 85.8345L60.4402 106.984L95.3502 108.264L97.2602 107.924L95.8102 84.7845Z" fill="black"/>
<path d="M58.7595 107.695L57.4995 86.0048C57.4765 85.8256 57.4923 85.6436 57.5458 85.4711C57.5992 85.2985 57.6892 85.1395 57.8095 85.0048C57.9339 84.8627 58.0879 84.7497 58.2607 84.6737C58.4335 84.5977 58.6208 84.5605 58.8095 84.5648L92.6295 84.8348C92.9041 84.8359 93.1685 84.9388 93.3717 85.1234C93.5748 85.3081 93.7023 85.5616 93.7295 85.8348L95.0595 108.035L58.7595 107.695Z" fill="white"/>
<path d="M58.7598 84.7949L92.5598 85.0649C92.7671 85.0625 92.9682 85.1351 93.1262 85.2692C93.2843 85.4033 93.3885 85.59 93.4198 85.7949L94.7598 107.735L58.9898 107.455L57.7598 85.9549C57.7461 85.8125 57.7614 85.6687 57.8048 85.5323C57.8481 85.396 57.9187 85.2698 58.0121 85.1614C58.1056 85.053 58.22 84.9646 58.3485 84.9016C58.477 84.8387 58.6169 84.8024 58.7598 84.7949ZM58.7598 84.2949C58.5437 84.2978 58.3305 84.3459 58.1341 84.436C57.9376 84.5262 57.7622 84.6564 57.619 84.8184C57.4759 84.9804 57.3682 85.1705 57.3029 85.3765C57.2376 85.5826 57.2161 85.8001 57.2398 86.0149L58.5098 107.945L95.2798 108.245L93.9298 85.7649C93.8886 85.4352 93.729 85.1317 93.4806 84.9109C93.2322 84.6902 92.9121 84.5672 92.5798 84.5649L58.7598 84.2949Z" fill="black"/>
<path d="M31.9597 110.804L30.4297 97.4238H43.7497L42.2197 110.804H31.9597Z" fill="white"/>
<path d="M43.4702 97.6738L42.0002 110.554H32.1902L30.7602 97.6738H43.4702ZM44.0302 97.1738H30.1602L31.7602 111.054H42.4502L44.0302 97.1738Z" fill="black"/>
<path d="M30.1602 97.174C30.1602 97.774 33.2602 98.264 37.1002 98.264C40.9402 98.264 44.0302 97.774 44.0302 97.174C44.0302 96.574 40.9302 96.084 37.1002 96.084C33.2702 96.084 30.1602 96.574 30.1602 97.174Z" fill="#075085"/>
<path d="M29.7598 97.1744C29.7598 95.7944 35.8398 95.7344 37.0598 95.7344C38.2798 95.7344 44.3498 95.7944 44.3498 97.1744C44.3498 98.5544 38.2698 98.6244 37.0598 98.6244C35.8498 98.6244 29.7598 98.5544 29.7598 97.1744ZM37.0598 96.4444C33.5498 96.4444 31.1498 96.8544 30.5598 97.1744C31.1498 97.5044 33.5598 97.9144 37.0598 97.9144C40.5598 97.9144 42.9598 97.5044 43.5498 97.1744C42.9998 96.8944 40.5998 96.4444 37.0998 96.4444H37.0598Z" fill="black"/>
<path d="M27.28 93.424C27.53 94.874 29.39 95.424 30.6 95.614C32.11 95.814 33.08 95.714 33.78 94.364C34.4272 95.553 35.2573 96.6329 36.24 97.564C36.57 97.884 37.08 97.374 36.75 97.054C35.9128 96.2708 35.1922 95.3716 34.61 94.384C34.9472 94.4686 35.2979 94.4848 35.6414 94.4315C35.985 94.3783 36.3143 94.2567 36.61 94.074C36.9682 93.8757 37.2496 93.563 37.4092 93.1859C37.5687 92.8088 37.5972 92.3891 37.49 91.994C37.4347 91.809 37.3413 91.6376 37.2156 91.491C37.09 91.3444 36.9349 91.2258 36.7606 91.1428C36.5862 91.0599 36.3964 91.0145 36.2034 91.0095C36.0103 91.0045 35.8184 91.0401 35.64 91.114C34.8694 91.5384 34.2742 92.2222 33.96 93.044C33.4004 91.8081 32.9811 90.5133 32.71 89.184C32.9214 89.332 33.1651 89.4273 33.4208 89.4621C33.6765 89.4969 33.9368 89.4701 34.18 89.384C34.6332 89.1956 35.0299 88.893 35.3314 88.5057C35.6328 88.1184 35.8287 87.6595 35.9 87.174C35.8982 86.9539 35.8469 86.7371 35.7501 86.5395C35.6532 86.3419 35.5133 86.1686 35.3405 86.0323C35.1678 85.896 34.9666 85.8003 34.7519 85.7521C34.5372 85.7039 34.3144 85.7046 34.1 85.754C33.7038 85.8593 33.34 86.0616 33.0414 86.3427C32.7429 86.6238 32.519 86.9747 32.39 87.364C32.22 86.204 32.11 85.024 32.04 83.864C32.73 83.024 32.39 81.714 31.89 80.864C31.49 80.164 30.25 78.474 29.29 78.654C28.74 78.754 28.42 79.574 28.23 80.004C27.9511 80.5547 27.8904 81.1904 28.06 81.784C28.52 83.074 30.13 83.904 31.36 84.354C31.43 85.294 31.52 86.234 31.64 87.164C31.1995 86.7575 30.668 86.4626 30.09 86.304C29.8384 86.1932 29.5667 86.1355 29.2918 86.1345C29.0169 86.1334 28.7447 86.1891 28.4923 86.2979C28.2399 86.4068 28.0126 86.5665 27.8247 86.7671C27.6367 86.9678 27.4922 87.205 27.4 87.464C27.3364 87.7306 27.3264 88.0073 27.3706 88.2778C27.4148 88.5484 27.5123 88.8075 27.6574 89.0401C27.8025 89.2727 27.9924 89.4741 28.216 89.6327C28.4396 89.7913 28.6925 89.9039 28.96 89.964C29.4987 90.0797 30.0581 90.0539 30.5839 89.8892C31.1096 89.7245 31.5837 89.4264 31.96 89.024C32.1803 90.1679 32.4947 91.2918 32.9 92.384C32.0219 91.8821 31.0313 91.6103 30.02 91.594C28.89 91.534 27.04 91.994 27.28 93.424Z" fill="black"/>
<path d="M36.65 77.6036C37.475 79.8002 37.9311 82.1182 38 84.4636C37.8957 84.2961 37.747 84.1608 37.5705 84.0726C37.394 83.9843 37.1966 83.9466 37 83.9636C36.43 84.0836 36.52 84.7136 36.72 85.1136C36.9885 85.5908 37.4281 85.9482 37.95 86.1136C37.998 86.3412 38.0314 86.5717 38.05 86.8036C38.0333 88.0817 37.9096 89.3562 37.68 90.6136C37.5204 89.8365 37.1092 89.1336 36.51 88.6136C36.3696 88.4943 36.2025 88.4106 36.023 88.3694C35.8434 88.3282 35.6566 88.3307 35.4782 88.3768C35.2998 88.4228 35.1351 88.5111 34.9979 88.6341C34.8608 88.7571 34.7552 88.9113 34.69 89.0836C34.5428 89.4678 34.5117 89.8869 34.6005 90.2887C34.6894 90.6905 34.8944 91.0573 35.19 91.3436C35.7475 91.9492 36.4828 92.3623 37.29 92.5236C36.93 94.1036 36.49 95.6636 36.06 97.2436C36.046 97.3311 36.0647 97.4208 36.1127 97.4953C36.1606 97.5699 36.2344 97.6242 36.3199 97.6477C36.4054 97.6713 36.4965 97.6624 36.5759 97.6229C36.6553 97.5834 36.7173 97.516 36.75 97.4336C37.5159 94.8787 38.1139 92.2765 38.54 89.6436C39.0539 89.7303 39.5807 89.6997 40.0811 89.5543C40.5816 89.4088 41.0427 89.1522 41.43 88.8036C41.7242 88.478 41.9032 88.0647 41.9393 87.6274C41.9755 87.1901 41.8668 86.753 41.63 86.3836C41.09 85.6136 40.08 86.0336 39.49 86.5036C39.1954 86.7471 38.9392 87.0336 38.73 87.3536C38.7251 87.3071 38.7251 87.2601 38.73 87.2136C38.747 87.1514 38.747 87.0858 38.73 87.0236C38.73 86.9036 38.73 86.7836 38.73 86.6636C38.73 86.2136 38.73 85.7536 38.73 85.2936C38.6671 83.6154 38.4799 81.9441 38.17 80.2936C38.3 80.2936 40.62 78.7236 41.17 77.5236C41.49 76.7536 41.65 75.4636 40.83 74.9236C40.01 74.3836 38.91 75.4936 38.48 76.1836C38.0576 76.8815 37.8074 77.6699 37.75 78.4836C37.63 78.1036 37.49 77.7336 37.34 77.3636C37.3652 77.289 37.3652 77.2082 37.34 77.1336C37.3652 77.0624 37.3652 76.9848 37.34 76.9136C36.983 75.7946 36.3258 74.795 35.44 74.0236C35.083 73.7819 34.6575 73.662 34.2268 73.6818C33.7961 73.7016 33.3833 73.8601 33.05 74.1336C32.4 74.8736 32.92 76.0236 33.56 76.5736C34.4508 77.2435 35.5355 77.605 36.65 77.6036Z" fill="black"/>
<path d="M38.5105 97.3945C39.3512 95.6263 40.3309 93.9276 41.4405 92.3145C41.4615 92.5454 41.5301 92.7694 41.642 92.9725C41.7539 93.1756 41.9066 93.3533 42.0905 93.4945C42.3388 93.6976 42.6497 93.8085 42.9705 93.8085C43.2912 93.8085 43.6022 93.6976 43.8505 93.4945C43.9687 93.3882 44.0649 93.2596 44.1335 93.1161C44.202 92.9726 44.2416 92.817 44.25 92.6582C44.2583 92.4993 44.2353 92.3404 44.1822 92.1905C44.1291 92.0406 44.0469 91.9026 43.9405 91.7845C43.7198 91.5645 43.4523 91.3973 43.1579 91.2951C42.8636 91.1929 42.55 91.1586 42.2405 91.1945C42.5505 90.7645 42.8705 90.3345 43.2405 89.9245C44.6004 90.9271 46.2235 91.5109 47.9105 91.6045C48.9105 91.6045 50.1905 91.0245 50.2205 89.8545C50.2205 88.4945 48.5805 88.2945 47.5705 88.1645C46.6025 88.0117 45.6141 88.0491 44.6605 88.2745L45.2405 87.6445C45.2878 87.6555 45.3371 87.6545 45.3839 87.6415C45.4307 87.6285 45.4735 87.6039 45.5083 87.5701C45.5431 87.5362 45.5689 87.4942 45.5833 87.4478C45.5976 87.4014 45.6001 87.3521 45.5905 87.3045C45.8305 87.0545 46.0805 86.7945 46.3305 86.5545C48.1794 87.159 50.1924 87.008 51.9305 86.1345C52.5301 85.6948 52.9579 85.06 53.1404 84.3392C53.3229 83.6184 53.2487 82.8565 52.9305 82.1845C52.2705 80.7045 50.0805 81.3645 49.0005 81.9545C48.2848 82.347 47.6596 82.8854 47.1652 83.5348C46.6708 84.1842 46.3183 84.9302 46.1305 85.7245C46.0744 85.7431 46.0232 85.7738 45.9805 85.8145L45.4605 86.3345C45.4484 85.5154 45.2644 84.708 44.9205 83.9645C44.8372 83.7857 44.7169 83.6267 44.5674 83.4979C44.418 83.3692 44.2428 83.2738 44.0536 83.218C43.8645 83.1622 43.6656 83.1473 43.4702 83.1743C43.2748 83.2013 43.0874 83.2695 42.9205 83.3745C41.3805 84.3745 42.2605 87.3745 43.7405 88.1045C43.4605 88.4145 43.2105 88.7445 42.9505 89.1045C42.8902 89.1257 42.837 89.1631 42.7964 89.2124C42.7559 89.2618 42.7296 89.3213 42.7205 89.3845C42.4205 89.7545 42.1305 90.1345 41.8505 90.5145C41.2605 89.1545 40.2205 87.5145 38.7805 88.8445C38.633 88.9624 38.5119 89.11 38.4251 89.2777C38.3382 89.4453 38.2875 89.6294 38.2762 89.8178C38.2649 90.0063 38.2932 90.1951 38.3594 90.3719C38.4256 90.5488 38.5282 90.7098 38.6605 90.8445C39.3109 91.3488 40.0718 91.6915 40.8805 91.8445C39.7391 93.5028 38.7357 95.252 37.8805 97.0745C37.6905 97.4545 38.3105 97.8145 38.5105 97.3945Z" fill="black"/>
<path d="M88.9603 2.83475L5.96027 2.72475C5.53001 2.72079 5.1032 2.80179 4.7043 2.9631C4.3054 3.12441 3.94226 3.36287 3.63569 3.66479C3.32912 3.96671 3.08516 4.32617 2.91777 4.72256C2.75039 5.11895 2.66289 5.54447 2.66027 5.97475L2.53027 53.9748C2.53284 54.8334 2.87302 55.6566 3.47736 56.2665C4.0817 56.8765 4.90169 57.2242 5.76027 57.2347L59.9903 57.3348L77.6003 76.8947L72.6703 57.3547H77.3203L84.4603 57.4147L88.7803 57.3447C89.211 57.3474 89.638 57.2651 90.037 57.1027C90.436 56.9403 90.799 56.7009 91.1055 56.3982C91.4119 56.0955 91.6557 55.7354 91.823 55.3384C91.9902 54.9415 92.0777 54.5155 92.0803 54.0848L92.2103 6.13475C92.2156 5.26655 91.8765 4.43166 91.2673 3.81307C90.6581 3.19449 89.8284 2.84267 88.9603 2.83475Z" fill="white"/>
<path d="M78.09 77.8149L59.89 57.5849L5.76004 57.4849C5.29476 57.4797 4.8351 57.3826 4.4075 57.1991C3.97989 57.0156 3.59279 56.7494 3.26844 56.4157C2.9441 56.0821 2.68891 55.6876 2.51757 55.255C2.34623 54.8224 2.26211 54.3602 2.27004 53.8949L2.40005 5.89493C2.39263 4.96566 2.75195 4.07095 3.40005 3.40493C3.72877 3.07963 4.11938 2.82353 4.54878 2.65177C4.97818 2.48001 5.43765 2.39608 5.90004 2.40493L88.9 2.51493C89.3636 2.51885 89.8219 2.61405 90.2487 2.79508C90.6754 2.97612 91.0624 3.23944 91.3874 3.57002C91.7124 3.9006 91.9691 4.29196 92.1429 4.72176C92.3166 5.15155 92.404 5.61136 92.4 6.07493L92.2701 54.0749C92.2622 55.0042 91.8881 55.8929 91.2291 56.5481C90.5702 57.2034 89.6794 57.5723 88.75 57.5749L84.44 57.6449L72.96 57.5749L78.09 77.8149ZM5.93004 2.97493C5.1344 2.97493 4.37133 3.291 3.80872 3.85361C3.24612 4.41622 2.93004 5.17928 2.93004 5.97493L2.76004 53.8949C2.76004 54.6906 3.07611 55.4536 3.63872 56.0163C4.20133 56.5789 4.9644 56.8949 5.76004 56.8949L60.09 56.9949L60.17 57.0749L77.11 75.9749L72.35 57.1049H77.35L84.5 57.1649L88.8101 57.0949C89.6057 57.0949 90.3688 56.7789 90.9314 56.2163C91.494 55.6536 91.8101 54.8906 91.8101 54.0949L91.94 6.09493C91.9436 5.69843 91.8686 5.30515 91.7193 4.93783C91.57 4.57051 91.3493 4.23644 91.07 3.95493C90.793 3.66966 90.4621 3.4423 90.0964 3.28607C89.7308 3.12985 89.3377 3.04788 88.94 3.04493L5.94005 2.93493L5.93004 2.97493Z" fill="black"/>
<path d="M15.3997 27.5132L15.3597 26.5332H7.17969L7.20969 27.5132H15.3997Z" fill="#AAB6C2"/>
<path d="M24.5197 24.5737L24.4897 23.5938H7.17969L7.20969 24.5737H24.5197Z" fill="#AAB6C2"/>
<path d="M21.0997 21.6343L21.0697 20.6543H7.17969L7.20969 21.6343H21.0997Z" fill="black"/>
<path d="M21.1797 21.6838H7.17969V20.5938H21.1797V21.6838ZM7.28969 21.5737H21.0197V20.7038H7.25969L7.28969 21.5737Z" fill="black"/>
<path d="M19.2397 27.5132L19.2097 26.5332H16.7197L16.7597 27.5132H19.2397Z" fill="#AAB6C2"/>
<path d="M15.3997 18.7945L15.3597 17.8145H7.17969L7.20969 18.7945H15.3997Z" fill="#AAB6C2"/>
<path d="M24.5197 15.855L24.4897 14.875H7.17969L7.20969 15.855H24.5197Z" fill="#AAB6C2"/>
<path d="M21.0997 12.9136L21.0597 11.9336H7.17969L7.20969 12.9136H21.0997Z" fill="#AAB6C2"/>
<path d="M19.1196 18.7945L19.0896 17.8145H16.5996L16.6396 18.7945H19.1196Z" fill="#AAB6C2"/>
<path d="M15.3997 10.0737L15.3597 9.09375H7.17969L7.20969 10.0737H15.3997Z" fill="#AAB6C2"/>
<path d="M24.5197 7.1343L24.4897 6.1543H7.17969L7.20969 7.1343H24.5197Z" fill="#AAB6C2"/>
<path d="M19.0102 10.0737L18.9702 9.09375H16.4902L16.5202 10.0737H19.0102Z" fill="#AAB6C2"/>
<path d="M15.3997 51.2141L15.3597 50.2441H7.17969L7.20969 51.2141H15.3997Z" fill="#AAB6C2"/>
<path d="M24.5197 48.2749L24.4897 47.2949H7.17969L7.20969 48.2749H24.5197Z" fill="#AAB6C2"/>
<path d="M21.0997 45.3335L21.0697 44.3535H7.17969L7.20969 45.3335H21.0997Z" fill="#AAB6C2"/>
<path d="M19.2397 51.2141L19.2097 50.2441H16.7197L16.7597 51.2141H19.2397Z" fill="#AAB6C2"/>
<path d="M15.3997 42.4937L15.3597 41.5137H7.17969L7.20969 42.4937H15.3997Z" fill="#AAB6C2"/>
<path d="M24.5197 39.5542L24.4897 38.5742H7.17969L7.20969 39.5542H24.5197Z" fill="#AAB6C2"/>
<path d="M21.0997 36.6148L21.0597 35.6348H7.17969L7.20969 36.6148H21.0997Z" fill="#AAB6C2"/>
<path d="M19.1196 42.4937L19.0896 41.5137H16.5996L16.6396 42.4937H19.1196Z" fill="#AAB6C2"/>
<path d="M15.3997 33.7749L15.3597 32.7949H7.17969L7.20969 33.7749H15.3997Z" fill="#AAB6C2"/>
<path d="M24.5197 30.8335L24.4897 29.8535H7.17969L7.20969 30.8335H24.5197Z" fill="#AAB6C2"/>
<path d="M19.0102 33.7749L18.9702 32.7949H16.4902L16.5202 33.7749H19.0102Z" fill="#AAB6C2"/>
<path d="M41.9796 30.355L41.9496 29.375H28.0596L28.0996 30.355H41.9796Z" fill="#AAB6C2"/>
<path d="M36.2796 27.5132L36.2496 26.5332H28.0596L28.0996 27.5132H36.2796Z" fill="#AAB6C2"/>
<path d="M45.3996 24.5737L45.3696 23.5938H28.0596L28.0996 24.5737H45.3996Z" fill="black"/>
<path d="M45.4895 24.6232H28.0195V23.5332H45.4495L45.4895 24.6232ZM28.1695 24.5132H45.3295V23.6432H28.1395L28.1695 24.5132Z" fill="black"/>
<path d="M41.9796 39.1538L41.9496 38.1738H28.0596L28.0996 39.1538H41.9796Z" fill="#AAB6C2"/>
<path d="M36.2796 36.3138L36.2496 35.3438H28.0596L28.0996 36.3138H36.2796Z" fill="#AAB6C2"/>
<path d="M45.3996 33.3745L45.3696 32.3945H28.0596L28.0996 33.3745H45.3996Z" fill="#AAB6C2"/>
<path d="M41.9796 21.6343L41.9496 20.6543H28.0596L28.0996 21.6343H41.9796Z" fill="#AAB6C2"/>
<path d="M40.1196 27.5132L40.0896 26.5332H37.5996L37.6396 27.5132H40.1196Z" fill="#AAB6C2"/>
<path d="M41.9796 48.064L41.9496 47.084H28.0596L28.0996 48.064H41.9796Z" fill="#AAB6C2"/>
<path d="M36.2796 45.2241L36.2496 44.2441H28.0596L28.0996 45.2241H36.2796Z" fill="#AAB6C2"/>
<path d="M45.3996 42.2847L45.3696 41.3047H28.0596L28.0996 42.2847H45.3996Z" fill="#AAB6C2"/>
<path d="M36.2796 54.0249L36.2496 53.0449H28.0596L28.0996 54.0249H36.2796Z" fill="#AAB6C2"/>
<path d="M45.3996 51.0835L45.3696 50.1035H28.0596L28.0996 51.0835H45.3996Z" fill="#AAB6C2"/>
<path d="M40.1196 45.2241L40.0896 44.2441H37.5996L37.6396 45.2241H40.1196Z" fill="#AAB6C2"/>
<path d="M62.8702 48.064L62.8302 47.084H48.9502L48.9802 48.064H62.8702Z" fill="black"/>
<path d="M62.9502 48.1134H48.9502V47.0234H62.9502V48.1134ZM49.0602 48.0034H62.7602V47.1334H49.0302L49.0602 48.0034Z" fill="black"/>
<path d="M57.1702 45.2241L57.1302 44.2441H48.9502L48.9802 45.2241H57.1702Z" fill="#AAB6C2"/>
<path d="M66.2902 42.2847L66.2602 41.3047H48.9502L48.9802 42.2847H66.2902Z" fill="#AAB6C2"/>
<path d="M57.1702 54.0249L57.1302 53.0449H48.9502L48.9802 54.0249H57.1702Z" fill="#AAB6C2"/>
<path d="M66.2902 51.0835L66.2602 50.1035H48.9502L48.9802 51.0835H66.2902Z" fill="#AAB6C2"/>
<path d="M61.0102 45.2241L60.9702 44.2441H58.4902L58.5202 45.2241H61.0102Z" fill="#AAB6C2"/>
<path d="M36.2796 18.7945L36.2496 17.8145H28.0596L28.0996 18.7945H36.2796Z" fill="#AAB6C2"/>
<path d="M45.3996 15.855L45.3696 14.875H28.0596L28.0996 15.855H45.3996Z" fill="#AAB6C2"/>
<path d="M41.9796 12.9136L41.9496 11.9336H28.0596L28.0996 12.9136H41.9796Z" fill="#AAB6C2"/>
<path d="M40.0102 18.7945L39.9702 17.8145H37.4902L37.5202 18.7945H40.0102Z" fill="#AAB6C2"/>
<path d="M36.2796 10.0737L36.2496 9.09375H28.0596L28.0996 10.0737H36.2796Z" fill="#AAB6C2"/>
<path d="M45.3996 7.1343L45.3696 6.1543H28.0596L28.0996 7.1343H45.3996Z" fill="#AAB6C2"/>
<path d="M39.8901 10.0737L39.8601 9.09375H37.3701L37.4101 10.0737H39.8901Z" fill="#AAB6C2"/>
<path d="M57.1702 27.5132L57.1302 26.5332H48.9502L48.9802 27.5132H57.1702Z" fill="#AAB6C2"/>
<path d="M66.2902 24.5737L66.2602 23.5938H48.9502L48.9802 24.5737H66.2902Z" fill="#AAB6C2"/>
<path d="M62.8702 21.6343L62.8302 20.6543H48.9502L48.9802 21.6343H62.8702Z" fill="#AAB6C2"/>
<path d="M61.0102 27.5132L60.9702 26.5332H58.4902L58.5202 27.5132H61.0102Z" fill="#AAB6C2"/>
<path d="M57.1702 18.7945L57.1302 17.8145H48.9502L48.9802 18.7945H57.1702Z" fill="#AAB6C2"/>
<path d="M66.2902 15.855L66.2602 14.875H48.9502L48.9802 15.855H66.2902Z" fill="#AAB6C2"/>
<path d="M62.8702 12.9136L62.8302 11.9336H48.9502L48.9802 12.9136H62.8702Z" fill="#AAB6C2"/>
<path d="M60.8901 18.7945L60.8601 17.8145H58.3701L58.4101 18.7945H60.8901Z" fill="#AAB6C2"/>
<path d="M57.1702 38.9741L57.1302 37.9941H48.9502L48.9802 38.9741H57.1702Z" fill="#AAB6C2"/>
<path d="M66.2902 36.0347L66.2602 35.0547H48.9502L48.9802 36.0347H66.2902Z" fill="#AAB6C2"/>
<path d="M62.8702 33.0833L62.8302 32.1133H48.9502L48.9802 33.0833H62.8702Z" fill="#AAB6C2"/>
<path d="M61.0102 38.9741L60.9702 37.9941H58.4902L58.5202 38.9741H61.0102Z" fill="#AAB6C2"/>
<path d="M57.1702 30.2534L57.1302 29.2734H48.9502L48.9802 30.2534H57.1702Z" fill="#AAB6C2"/>
<path d="M60.8901 30.2534L60.8601 29.2734H58.3701L58.4101 30.2534H60.8901Z" fill="#AAB6C2"/>
<path d="M57.1702 10.0737L57.1302 9.09375H48.9502L48.9802 10.0737H57.1702Z" fill="black"/>
<path d="M57.2502 10.1249H48.9102V9.04492H57.2502V10.1249ZM49.0602 10.0149H57.0602V9.14492H49.0602V10.0149Z" fill="black"/>
<path d="M66.2902 7.1343L66.2602 6.1543H48.9502L48.9802 7.1343H66.2902Z" fill="#AAB6C2"/>
<path d="M60.7698 10.0737L60.7398 9.09375H58.2598L58.2898 10.0737H60.7698Z" fill="black"/>
<path d="M60.8597 10.1249H58.2197V9.04492H60.8597V10.1249ZM58.3697 10.0149H60.6997V9.14492H58.3397L58.3697 10.0149Z" fill="black"/>
<path d="M83.7501 30.355L83.7201 29.375H69.8301L69.8601 30.355H83.7501Z" fill="#AAB6C2"/>
<path d="M78.0501 27.5132L78.0201 26.5332H69.8301L69.8601 27.5132H78.0501Z" fill="#AAB6C2"/>
<path d="M87.1701 24.5737L87.1401 23.5938H69.8301L69.8601 24.5737H87.1701Z" fill="#AAB6C2"/>
<path d="M83.7501 21.6343L83.7201 20.6543H69.8301L69.8601 21.6343H83.7501Z" fill="#075085"/>
<path d="M81.8899 27.5132L81.8599 26.5332H79.3799L79.4099 27.5132H81.8899Z" fill="#AAB6C2"/>
<path d="M78.0501 18.7945L78.0201 17.8145H69.8301L69.8601 18.7945H78.0501Z" fill="#AAB6C2"/>
<path d="M87.1701 15.855L87.1401 14.875H69.8301L69.8601 15.855H87.1701Z" fill="#AAB6C2"/>
<path d="M83.7501 12.9136L83.7201 11.9336H69.8301L69.8601 12.9136H83.7501Z" fill="#AAB6C2"/>
<path d="M81.7798 18.7945L81.7398 17.8145H79.2598L79.2898 18.7945H81.7798Z" fill="#AAB6C2"/>
<path d="M83.7501 51.0835L83.7201 50.1035H69.8301L69.8601 51.0835H83.7501Z" fill="#AAB6C2"/>
<path d="M78.0501 48.2437L78.0201 47.2637H69.8301L69.8601 48.2437H78.0501Z" fill="#AAB6C2"/>
<path d="M87.1701 45.3042L87.1401 44.3242H69.8301L69.8601 45.3042H87.1701Z" fill="#AAB6C2"/>
<path d="M83.7501 42.3648L83.7201 41.3848H69.8301L69.8601 42.3648H83.7501Z" fill="#075085"/>
<path d="M81.8899 48.2437L81.8599 47.2637H79.3799L79.4099 48.2437H81.8899Z" fill="#AAB6C2"/>
<path d="M78.0501 38.9544L78.0201 37.9844H69.8301L69.8601 38.9544H78.0501Z" fill="#AAB6C2"/>
<path d="M87.1701 36.0132L87.1401 35.0332H69.8301L69.8601 36.0132H87.1701Z" fill="#AAB6C2"/>
<path d="M83.7501 33.0737L83.7201 32.0938H69.8301L69.8601 33.0737H83.7501Z" fill="#AAB6C2"/>
<path d="M81.7798 38.9544L81.7398 37.9844H79.2598L79.2898 38.9544H81.7798Z" fill="#AAB6C2"/>
<path d="M78.0501 10.0737L78.0201 9.09375H69.8301L69.8601 10.0737H78.0501Z" fill="#AAB6C2"/>
<path d="M87.1701 7.1343L87.1401 6.1543H69.8301L69.8601 7.1343H87.1701Z" fill="#075085"/>
<path d="M81.6596 10.0737L81.6296 9.09375H79.1396L79.1796 10.0737H81.6596Z" fill="#AAB6C2"/>
<path d="M140.44 0.664062H117.46V23.6441H140.44V0.664062Z" fill="white"/>
<path d="M140.7 23.8941H117.22V0.414062H140.7V23.8941ZM117.7 23.3941H140.18V0.894062H117.76L117.7 23.3941Z" fill="black"/>
<path d="M189.68 0.664062H166.7V23.6441H189.68V0.664062Z" fill="white"/>
<path d="M189.94 23.8941H166.45V0.414062H189.94V23.8941ZM166.94 23.3941H189.43V0.894062H166.95L166.94 23.3941Z" fill="black"/>
<path d="M189.68 46.6445H166.7V69.6245H189.68V46.6445Z" fill="white"/>
<path d="M189.94 69.8945H166.45V46.3945H189.94V69.8945ZM166.94 69.3945H189.43V46.8945H166.95L166.94 69.3945Z" fill="black"/>
<path d="M129.2 27.5137H128.7V43.7137H129.2V27.5137Z" fill="black"/>
<path d="M163.95 11.6836H143.35V12.1836H163.95V11.6836Z" fill="black"/>
<path d="M178.44 27.5137H177.94V43.7137H178.44V27.5137Z" fill="black"/>
<path d="M186.84 59.694C186.497 59.6938 186.158 59.7583 185.84 59.884C185.604 60.0086 185.407 60.1953 185.27 60.424C185.089 60.7297 184.977 61.0708 184.94 61.424C184.88 61.9116 184.857 62.4029 184.87 62.894C184.898 63.704 184.845 64.5148 184.71 65.314C184.63 65.7279 184.432 66.1098 184.14 66.414C183.786 66.7241 183.365 66.9467 182.91 67.064C182.349 67.1936 181.774 67.2474 181.2 67.224H180.76V65.034C181.18 65.0591 181.602 65.0186 182.01 64.914C182.186 64.8493 182.336 64.7302 182.44 64.574C182.55 64.333 182.598 64.0683 182.58 63.804C182.58 63.444 182.58 62.744 182.66 61.724C182.666 61.2215 182.747 60.7227 182.9 60.244C183.014 59.9014 183.19 59.5827 183.42 59.304C183.651 59.0265 183.932 58.7957 184.25 58.624C183.868 58.4075 183.529 58.1228 183.25 57.784C182.976 57.3305 182.809 56.8212 182.76 56.294C182.69 55.874 182.65 54.964 182.61 53.554C182.633 53.2522 182.592 52.9489 182.49 52.664C182.408 52.505 182.268 52.3834 182.1 52.324C181.675 52.2185 181.237 52.1781 180.8 52.204V50.074H181.27C181.888 50.0541 182.507 50.1146 183.11 50.254C183.519 50.3699 183.891 50.5905 184.19 50.894C184.484 51.1996 184.688 51.5801 184.78 51.994C184.909 52.6727 184.962 53.3635 184.94 54.054C184.91 54.7666 184.954 55.4803 185.07 56.184C185.156 56.5736 185.367 56.9245 185.67 57.184C186.033 57.4174 186.458 57.5391 186.89 57.534L186.84 59.694Z" fill="black"/>
<path d="M169.55 57.5535C169.982 57.5587 170.407 57.437 170.77 57.2035C171.073 56.9441 171.284 56.5931 171.37 56.2035C171.486 55.4999 171.53 54.7861 171.5 54.0735C171.483 53.3832 171.536 52.6929 171.66 52.0135C171.752 51.5997 171.956 51.2191 172.25 50.9135C172.549 50.61 172.921 50.3894 173.33 50.2735C173.933 50.1342 174.552 50.0737 175.17 50.0935H175.64V52.2235C175.207 52.1966 174.771 52.2371 174.35 52.3435C174.177 52.3997 174.034 52.5219 173.95 52.6835C173.848 52.9685 173.807 53.2717 173.83 53.5735C173.831 54.4889 173.781 55.4037 173.68 56.3135C173.607 56.8473 173.412 57.357 173.11 57.8035C172.831 58.1423 172.492 58.427 172.11 58.6435C172.428 58.8152 172.709 59.046 172.94 59.3235C173.169 59.6042 173.349 59.9221 173.47 60.2635C173.618 60.7434 173.699 61.2415 173.71 61.7435C173.71 62.7435 173.78 63.4635 173.78 63.8235C173.762 64.0879 173.81 64.3525 173.92 64.5935C174.027 64.7505 174.181 64.8695 174.36 64.9335C174.765 65.0381 175.183 65.0785 175.6 65.0535V67.1935H175.13C174.556 67.2169 173.981 67.1631 173.42 67.0335C172.965 66.9162 172.544 66.6936 172.19 66.3835C171.898 66.0794 171.7 65.6974 171.62 65.2835C171.491 64.4837 171.437 63.6734 171.46 62.8635C171.473 62.3725 171.45 61.8812 171.39 61.3935C171.353 61.0404 171.241 60.6993 171.06 60.3935C170.923 60.1649 170.726 59.9781 170.49 59.8535C170.172 59.7278 169.833 59.6634 169.49 59.6635L169.55 57.5535Z" fill="black"/>
<path d="M175.76 15.7948L169.29 12.9848V11.4248L175.76 8.63477V10.4648L171.25 12.1848L175.76 13.9748V15.7948Z" fill="black"/>
<path d="M176.35 17.0332L178.68 7.2832H180.04L177.68 17.0332H176.35Z" fill="black"/>
<path d="M180.64 15.8045V13.9845L185.15 12.2045L180.64 10.4545V8.64453L187.11 11.4445V12.9845L180.64 15.8045Z" fill="black"/>
<path d="M130.96 20.0446L133.25 19.0446L132.73 17.5446C133.325 17.1104 133.839 16.5757 134.25 15.9646L135.77 16.4046L136.67 14.0746L135.25 13.3846C135.358 12.6537 135.341 11.9098 135.2 11.1846L136.58 10.4246L135.58 8.14461L134.09 8.65461C133.652 8.06261 133.114 7.55161 132.5 7.14461L132.94 5.62461L130.61 4.72461L129.92 6.14461C129.193 6.03137 128.451 6.0483 127.73 6.19461L126.97 4.80461L124.68 5.80461L125.19 7.30461C124.594 7.74121 124.079 8.27944 123.67 8.89461L122.15 8.45461L121.25 10.7846L122.67 11.4746C122.562 12.2021 122.579 12.9428 122.72 13.6646L121.34 14.4346L122.34 16.7146L123.83 16.2046C124.265 16.799 124.804 17.3104 125.42 17.7146L124.97 19.2346L127.3 20.1346L128 18.7146C128.727 18.8278 129.469 18.8109 130.19 18.6646L130.96 20.0446ZM124.83 14.2446C124.474 13.4298 124.367 12.528 124.522 11.6526C124.677 10.7771 125.088 9.96697 125.702 9.32404C126.316 8.68111 127.106 8.23405 127.974 8.03905C128.841 7.84405 129.747 7.90981 130.577 8.22805C131.407 8.5463 132.125 9.10284 132.64 9.82772C133.155 10.5526 133.444 11.4135 133.471 12.3022C133.498 13.1909 133.262 14.0678 132.792 14.8226C132.322 15.5774 131.639 16.1765 130.83 16.5446C130.285 16.7908 129.698 16.9265 129.1 16.944C128.503 16.9615 127.908 16.8604 127.35 16.6465C126.792 16.4326 126.282 16.1102 125.85 15.6979C125.417 15.2856 125.07 14.7917 124.83 14.2446Z" fill="black"/>
</svg>
