<svg width="36" height="28" viewBox="0 0 36 28" fill="none" xmlns="http://www.w3.org/2000/svg">
<path fill-rule="evenodd" clip-rule="evenodd" d="M18 2.70968C15.7696 2.70968 13.9615 4.52942 13.9615 6.77419C13.9615 9.01896 15.7696 10.8387 18 10.8387C20.2304 10.8387 22.0385 9.01896 22.0385 6.77419C22.0385 4.52942 20.2304 2.70968 18 2.70968ZM11.2692 6.77419C11.2692 3.03291 14.2827 0 18 0C21.7173 0 24.7308 3.03291 24.7308 6.77419C24.7308 10.5155 21.7173 13.5484 18 13.5484C14.2827 13.5484 11.2692 10.5155 11.2692 6.77419Z" fill="#0B3E66"/>
<path fill-rule="evenodd" clip-rule="evenodd" d="M15.3443 18.9677C12.5981 18.9677 10.3718 21.2084 10.3718 23.9724C10.3718 24.0262 10.3763 24.0697 10.3824 24.1022C10.3832 24.1065 10.384 24.1106 10.3848 24.1143C11.1037 24.5148 13.1382 25.2903 18 25.2903C22.8617 25.2903 24.8963 24.5148 25.6152 24.1143C25.616 24.1106 25.6168 24.1065 25.6176 24.1022C25.6237 24.0697 25.6282 24.0262 25.6282 23.9724C25.6282 21.2084 23.4019 18.9677 20.6557 18.9677H15.3443ZM7.67949 23.9724C7.67949 19.7119 11.1112 16.2581 15.3443 16.2581H20.6557C24.8888 16.2581 28.3205 19.7119 28.3205 23.9724C28.3205 24.7325 28.0646 25.8097 27.0475 26.4113C25.8117 27.1423 23.2614 28 18 28C12.7386 28 10.1883 27.1423 8.95247 26.4113C7.93544 25.8097 7.67949 24.7325 7.67949 23.9724Z" fill="#0B3E66"/>
<path fill-rule="evenodd" clip-rule="evenodd" d="M26.1236 2.8078C26.3175 2.08546 27.0566 1.65815 27.7743 1.85338C30.2309 2.52161 31.9103 4.94967 31.9103 7.67742C31.9103 10.5603 29.9445 13.1991 27.1349 13.5387C26.3968 13.628 25.7265 13.098 25.6378 12.3551C25.5491 11.6122 26.0757 10.9376 26.8138 10.8484C28.0427 10.6998 29.218 9.4327 29.218 7.67742C29.218 6.0111 28.205 4.77743 27.0719 4.4692C26.3541 4.27397 25.9296 3.53014 26.1236 2.8078Z" fill="#0B3E66"/>
<path fill-rule="evenodd" clip-rule="evenodd" d="M29.2428 17.3536C29.3852 16.6191 30.0921 16.1399 30.8218 16.2831C33.539 16.8165 35.5 19.2123 35.5 21.9985V22.731C35.5 23.4263 35.2928 24.477 34.3281 25.0977C33.725 25.4856 32.8111 25.8853 31.4293 26.1666C30.7006 26.315 29.9904 25.8408 29.843 25.1074C29.6955 24.374 30.1668 23.6592 30.8955 23.5108C31.9203 23.3021 32.4992 23.0398 32.7976 22.864L32.798 22.8617C32.8036 22.829 32.8077 22.7853 32.8077 22.731V21.9985C32.8077 20.5088 31.7592 19.2278 30.3064 18.9427C29.5767 18.7995 29.1005 18.088 29.2428 17.3536Z" fill="#0B3E66"/>
<path fill-rule="evenodd" clip-rule="evenodd" d="M9.87645 12.547C9.68248 13.2694 8.94341 13.6967 8.2257 13.5015C5.76911 12.8332 4.08974 10.4052 4.08974 7.67742C4.08974 4.79452 6.05555 2.15578 8.8651 1.81612C9.60325 1.72688 10.2735 2.25679 10.3622 2.99971C10.4509 3.74262 9.92434 4.41722 9.18619 4.50646C7.95727 4.65503 6.78205 5.92213 6.78205 7.67742C6.78205 9.34374 7.795 10.5774 8.92815 10.8856C9.64586 11.0809 10.0704 11.8247 9.87645 12.547Z" fill="#0B3E66"/>
<path fill-rule="evenodd" clip-rule="evenodd" d="M6.75716 17.3536C6.61485 16.6191 5.90793 16.1399 5.17822 16.2831C2.46105 16.8165 0.5 19.2123 0.5 21.9985V22.731C0.5 23.4263 0.707169 24.477 1.67194 25.0977C2.27499 25.4856 3.18893 25.8853 4.57067 26.1666C5.29936 26.315 6.0096 25.8408 6.15703 25.1074C6.30446 24.374 5.83324 23.6592 5.10455 23.5108C4.07972 23.3021 3.50075 23.0398 3.20241 22.864L3.202 22.8617C3.19644 22.829 3.19231 22.7853 3.19231 22.731V21.9985C3.19231 20.5088 4.24081 19.2278 5.69358 18.9427C6.42329 18.7995 6.89947 18.088 6.75716 17.3536Z" fill="#0B3E66"/>
</svg>
