<svg width="36" height="32" viewBox="0 0 36 32" fill="none" xmlns="http://www.w3.org/2000/svg">
<path fill-rule="evenodd" clip-rule="evenodd" d="M16.9121 5.30089C13.9208 2.1835 8.88337 2.13895 5.61539 5.33178C5.60504 5.34189 5.59453 5.35184 5.58385 5.36161C2.41329 8.26567 2.36645 13.126 5.61539 16.3002L5.62392 16.3086L17.8904 28.5071L30.3846 16.3002C30.395 16.2901 30.4055 16.2802 30.4161 16.2704C33.5867 13.3663 33.6335 8.50601 30.3846 5.33178C27.1342 2.15608 22.0719 2.15608 18.8215 5.33178C18.5647 5.58263 18.2188 5.72042 17.8604 5.71463C17.502 5.70883 17.1607 5.55991 16.9121 5.30089ZM17.9064 2.55672C13.7907 -0.793223 7.71511 -0.474486 3.75217 3.3827C-0.605957 7.39086 -0.555499 14.0362 3.73228 18.2299C3.73374 18.2313 3.7352 18.2327 3.73666 18.2342L16.9342 31.3586C17.4557 31.8772 18.2954 31.8809 18.8215 31.367L32.2483 18.2488C36.6074 14.2393 36.5553 7.5911 32.2633 3.39783C28.2767 -0.497158 22.1947 -0.777526 17.9064 2.55672Z" fill="#0B3E66"/>
</svg>
