<svg width="36" height="36" viewBox="0 0 36 36" fill="none" xmlns="http://www.w3.org/2000/svg">
<path fill-rule="evenodd" clip-rule="evenodd" d="M19.0333 1.93308C19.9509 1.01549 21.1954 0.5 22.4931 0.5H29.6725C30.4983 0.5 31.2902 0.828041 31.8742 1.41196L34.588 4.12585C35.172 4.70976 35.5 5.50173 35.5 6.32752V13.5069C35.5 14.8046 34.9845 16.0491 34.0669 16.9667L16.9667 34.0669C15.0559 35.9777 11.9579 35.9777 10.0471 34.0669L1.93308 25.9529C0.0223055 24.0421 0.0223064 20.9441 1.93308 19.0333L19.0333 1.93308ZM22.4931 3.16883C21.9033 3.16883 21.3376 3.40314 20.9205 3.82023L3.82023 20.9205C2.95169 21.789 2.95169 23.1972 3.82023 24.0657L11.9343 32.1798C12.8028 33.0483 14.211 33.0483 15.0795 32.1798L32.1798 15.0795C32.5969 14.6624 32.8312 14.0967 32.8312 13.5069V6.32752C32.8312 6.20954 32.7843 6.09641 32.7009 6.01299L29.987 3.29911C29.9036 3.21569 29.7905 3.16883 29.6725 3.16883H22.4931Z" fill="#0B3E66"/>
<path d="M27.0487 10.7305C27.0487 11.7131 26.2521 12.5097 25.2695 12.5097C24.2869 12.5097 23.4903 11.7131 23.4903 10.7305C23.4903 9.74786 24.2869 8.95128 25.2695 8.95128C26.2521 8.95128 27.0487 9.74786 27.0487 10.7305Z" fill="#0B3E66"/>
</svg>
