<svg width="41" height="40" viewBox="0 0 41 40" fill="none" xmlns="http://www.w3.org/2000/svg">
<circle cx="20.6367" cy="20" r="20" fill="#EBA63F"/>
<path d="M30.0117 15.5C31.0467 15.5 31.8867 14.66 31.8867 13.625V10.625C31.8867 9.59 31.0467 8.75 30.0117 8.75H11.2617C10.2267 8.75 9.38672 9.59 9.38672 10.625V13.625C9.38672 14.66 10.2267 15.5 11.2617 15.5H11.6367V17H11.2617C10.2267 17 9.38672 17.84 9.38672 18.875V21.875C9.38672 22.91 10.2267 23.75 11.2617 23.75H30.0117C31.0467 23.75 31.8867 22.91 31.8867 21.875V18.875C31.8867 17.84 31.0467 17 30.0117 17H29.6367V15.5H30.0117ZM10.8867 13.625V10.625C10.8867 10.415 11.0517 10.25 11.2617 10.25H30.0117C30.2217 10.25 30.3867 10.415 30.3867 10.625V13.625C30.3867 13.835 30.2217 14 30.0117 14H11.2617C11.0517 14 10.8867 13.835 10.8867 13.625ZM30.3867 18.875V21.875C30.3867 22.085 30.2217 22.25 30.0117 22.25H11.2617C11.0517 22.25 10.8867 22.085 10.8867 21.875V18.875C10.8867 18.665 11.0517 18.5 11.2617 18.5H30.0117C30.2217 18.5 30.3867 18.665 30.3867 18.875ZM28.1367 17H13.1367V15.5H28.1367V17Z" fill="white"/>
<path d="M13.5117 11.375H12.7617C12.3492 11.375 12.0117 11.7125 12.0117 12.125C12.0117 12.5375 12.3492 12.875 12.7617 12.875H13.5117C13.9242 12.875 14.2617 12.5375 14.2617 12.125C14.2617 11.7125 13.9242 11.375 13.5117 11.375Z" fill="white"/>
<path d="M17.2617 11.375H16.5117C16.0992 11.375 15.7617 11.7125 15.7617 12.125C15.7617 12.5375 16.0992 12.875 16.5117 12.875H17.2617C17.6742 12.875 18.0117 12.5375 18.0117 12.125C18.0117 11.7125 17.6742 11.375 17.2617 11.375Z" fill="white"/>
<path d="M28.5117 11.375H20.2617C19.8492 11.375 19.5117 11.7125 19.5117 12.125C19.5117 12.5375 19.8492 12.875 20.2617 12.875H28.5117C28.9242 12.875 29.2617 12.5375 29.2617 12.125C29.2617 11.7125 28.9242 11.375 28.5117 11.375Z" fill="white"/>
<path d="M12.7617 21.125H13.5117C13.9242 21.125 14.2617 20.7875 14.2617 20.375C14.2617 19.9625 13.9242 19.625 13.5117 19.625H12.7617C12.3492 19.625 12.0117 19.9625 12.0117 20.375C12.0117 20.7875 12.3492 21.125 12.7617 21.125Z" fill="white"/>
<path d="M16.5117 21.125H17.2617C17.6742 21.125 18.0117 20.7875 18.0117 20.375C18.0117 19.9625 17.6742 19.625 17.2617 19.625H16.5117C16.0992 19.625 15.7617 19.9625 15.7617 20.375C15.7617 20.7875 16.0992 21.125 16.5117 21.125Z" fill="white"/>
<path d="M20.2617 21.125H28.5117C28.9242 21.125 29.2617 20.7875 29.2617 20.375C29.2617 19.9625 28.9242 19.625 28.5117 19.625H20.2617C19.8492 19.625 19.5117 19.9625 19.5117 20.375C19.5117 20.7875 19.8492 21.125 20.2617 21.125Z" fill="white"/>
<path d="M31.1367 28.25H28.1367V29.75H31.1367C31.5492 29.75 31.8867 29.4125 31.8867 29C31.8867 28.5875 31.5492 28.25 31.1367 28.25Z" fill="white"/>
<path d="M9.38672 29C9.38672 29.4125 9.72422 29.75 10.1367 29.75H13.1367V28.25H10.1367C9.72422 28.25 9.38672 28.5875 9.38672 29Z" fill="white"/>
<path d="M25.5117 26.75H24.3867V25.25H22.8867V26.75H21.3867V25.25H19.8867V26.75H18.3867V25.25H16.8867V26.75H15.7617C15.1392 26.75 14.6367 27.2525 14.6367 27.875V30.125C14.6367 30.7475 15.1392 31.25 15.7617 31.25H25.5117C26.1342 31.25 26.6367 30.7475 26.6367 30.125V27.875C26.6367 27.2525 26.1342 26.75 25.5117 26.75ZM19.3242 29.75H18.9492C18.5367 29.75 18.1992 29.4125 18.1992 29C18.1992 28.5875 18.5367 28.25 18.9492 28.25H19.3242C19.7367 28.25 20.0742 28.5875 20.0742 29C20.0742 29.4125 19.7367 29.75 19.3242 29.75ZM22.3242 29.75H21.9492C21.5367 29.75 21.1992 29.4125 21.1992 29C21.1992 28.5875 21.5367 28.25 21.9492 28.25H22.3242C22.7367 28.25 23.0742 28.5875 23.0742 29C23.0742 29.4125 22.7367 29.75 22.3242 29.75Z" fill="white"/>
</svg>
