<svg width="41" height="40" viewBox="0 0 41 40" fill="none" xmlns="http://www.w3.org/2000/svg">
<circle cx="20.6367" cy="20" r="20" fill="#EBA63F"/>
<path d="M20.6367 11.0525C21.0492 11.0525 21.3867 10.715 21.3867 10.3025V9.5C21.3867 9.0875 21.0492 8.75 20.6367 8.75C20.2242 8.75 19.8867 9.0875 19.8867 9.5V10.3025C19.8867 10.715 20.2242 11.0525 20.6367 11.0525Z" fill="white"/>
<path d="M15.282 11.4346C15.432 11.6371 15.657 11.7496 15.8895 11.7496C16.0395 11.7496 16.197 11.7046 16.3245 11.6071C16.662 11.3671 16.737 10.8946 16.497 10.5571L15.9945 9.85957C15.7545 9.52207 15.282 9.44707 14.9445 9.68707C14.607 9.92707 14.532 10.3996 14.772 10.7371L15.2745 11.4346H15.282Z" fill="white"/>
<path d="M25.3841 11.7509C25.6166 11.7509 25.8491 11.6459 25.9916 11.4359L26.4941 10.7384C26.7341 10.4009 26.6591 9.93587 26.3216 9.68837C25.9841 9.44087 25.5191 9.52337 25.2716 9.86087L24.7691 10.5584C24.5291 10.8959 24.6041 11.3609 24.9416 11.6084C25.0766 11.7059 25.2266 11.7509 25.3766 11.7509H25.3841Z" fill="white"/>
<path d="M20.6367 28.9473C20.2242 28.9473 19.8867 29.2848 19.8867 29.6973V30.4998C19.8867 30.9123 20.2242 31.2498 20.6367 31.2498C21.0492 31.2498 21.3867 30.9123 21.3867 30.4998V29.6973C21.3867 29.2848 21.0492 28.9473 20.6367 28.9473Z" fill="white"/>
<path d="M15.2814 28.566L14.7789 29.2635C14.5389 29.601 14.6139 30.066 14.9514 30.3135C15.0864 30.411 15.2364 30.456 15.3864 30.456C15.6189 30.456 15.8514 30.351 15.9939 30.141L16.4964 29.4435C16.7364 29.106 16.6614 28.641 16.3239 28.3935C15.9864 28.146 15.5214 28.2285 15.2739 28.566H15.2814Z" fill="white"/>
<path d="M25.9916 28.5646C25.7516 28.2271 25.2791 28.1521 24.9416 28.3921C24.6041 28.6321 24.5291 29.1046 24.7691 29.4421L25.2716 30.1396C25.4216 30.3421 25.6466 30.4546 25.8791 30.4546C26.0291 30.4546 26.1866 30.4096 26.3141 30.3121C26.6516 30.0721 26.7266 29.5996 26.4866 29.2621L25.9841 28.5646H25.9916Z" fill="white"/>
<path d="M15.0042 25.8878C16.7217 26.9378 18.6717 27.5003 20.6367 27.5003C22.6017 27.5003 24.5517 26.9453 26.2692 25.8878C26.3892 25.8128 26.4942 25.7003 26.5542 25.5728C27.3417 23.9228 27.7617 21.9953 27.7617 20.0003C27.7617 18.0053 27.3417 16.0703 26.5542 14.4278C26.4942 14.2928 26.3892 14.1878 26.2692 14.1128C24.5067 13.0478 22.6092 12.5078 20.6367 12.5078C18.6642 12.5078 16.7667 13.0478 15.0042 14.1128C14.8767 14.1878 14.7792 14.3003 14.7192 14.4278C13.9317 16.0778 13.5117 18.0053 13.5117 20.0003C13.5117 21.9953 13.9317 23.9303 14.7192 25.5728C14.7792 25.7003 14.8767 25.8128 15.0042 25.8878ZM15.9792 15.2753C18.9192 13.5803 22.3617 13.5803 25.3017 15.2753C25.9317 16.6778 26.2692 18.3053 26.2692 20.0003C26.2692 21.6953 25.9392 23.3228 25.3017 24.7253C22.4292 26.3978 18.8517 26.3978 15.9867 24.7253C15.3567 23.3228 15.0192 21.6953 15.0192 20.0003C15.0192 18.3053 15.3492 16.6778 15.9867 15.2753H15.9792Z" fill="white"/>
<path d="M17.734 22.504C17.899 22.504 18.064 22.4515 18.199 22.339C18.5215 22.0765 18.574 21.6115 18.3115 21.2815L17.2765 19.9915L18.3115 18.7015C18.574 18.379 18.5215 17.9065 18.199 17.644C17.8765 17.3815 17.404 17.434 17.1415 17.7565L15.7315 19.5115C15.514 19.789 15.514 20.179 15.7315 20.449L17.1415 22.204C17.2915 22.3915 17.509 22.4815 17.7265 22.4815L17.734 22.504Z" fill="white"/>
<path d="M23.0668 22.34C23.2018 22.4525 23.3743 22.505 23.5318 22.505C23.7493 22.505 23.9668 22.4075 24.1168 22.2275L25.5268 20.4725C25.7443 20.195 25.7443 19.805 25.5268 19.535L24.1168 17.78C23.8543 17.4575 23.3893 17.405 23.0593 17.6675C22.7368 17.93 22.6843 18.395 22.9468 18.725L23.9818 20.015L22.9468 21.305C22.6843 21.6275 22.7368 22.1 23.0593 22.3625L23.0668 22.34Z" fill="white"/>
<path d="M19.9244 23.5477C19.9769 23.5552 20.0219 23.5627 20.0744 23.5627C20.4269 23.5627 20.7344 23.3152 20.8094 22.9627L21.9419 17.3377C22.0244 16.9327 21.7619 16.5352 21.3569 16.4527C20.9519 16.3702 20.5544 16.6327 20.4719 17.0377L19.3394 22.6627C19.2569 23.0677 19.5194 23.4652 19.9244 23.5477Z" fill="white"/>
<path d="M9.46156 19.6707C9.35656 19.8807 9.35656 20.1282 9.46156 20.3307C10.3541 22.1457 11.5616 23.6907 12.9641 24.9057C12.5816 23.3532 12.3866 21.6957 12.3866 20.0007C12.3866 18.3057 12.5816 16.6482 12.9641 15.0957C11.5616 16.3107 10.3616 17.8482 9.46156 19.6707Z" fill="white"/>
<path d="M31.8111 19.6707C30.9186 17.8557 29.7111 16.3107 28.3086 15.0957C28.6911 16.6482 28.8861 18.3057 28.8861 20.0007C28.8861 21.6957 28.6911 23.3532 28.3086 24.9057C29.7111 23.6907 30.9111 22.1532 31.8111 20.3307C31.9161 20.1207 31.9161 19.8732 31.8111 19.6707Z" fill="white"/>
</svg>
