<svg width="41" height="41" viewBox="0 0 41 41" fill="none" xmlns="http://www.w3.org/2000/svg">
<circle cx="20.6367" cy="20.5" r="20" fill="#EBA63F"/>
<path d="M23.2617 16.75H12.7617C12.3492 16.75 12.0117 17.0875 12.0117 17.5C12.0117 17.9125 12.3492 18.25 12.7617 18.25H23.2617C23.6742 18.25 24.0117 17.9125 24.0117 17.5C24.0117 17.0875 23.6742 16.75 23.2617 16.75Z" fill="white"/>
<path d="M26.2617 16.75H25.8867C25.4742 16.75 25.1367 17.0875 25.1367 17.5C25.1367 17.9125 25.4742 18.25 25.8867 18.25H26.2617C26.6742 18.25 27.0117 17.9125 27.0117 17.5C27.0117 17.0875 26.6742 16.75 26.2617 16.75Z" fill="white"/>
<path d="M12.7617 19.75C12.3492 19.75 12.0117 20.0875 12.0117 20.5C12.0117 20.9125 12.3492 21.25 12.7617 21.25H15.0117C15.4242 21.25 15.7617 20.9125 15.7617 20.5C15.7617 20.0875 15.4242 19.75 15.0117 19.75H12.7617Z" fill="white"/>
<path d="M27.7617 9.25H11.2617C10.2267 9.25 9.38672 10.09 9.38672 11.125V27.625C9.38672 28.66 10.2267 29.5 11.2617 29.5H16.1367C16.5492 29.5 16.8867 29.1625 16.8867 28.75C16.8867 28.3375 16.5492 28 16.1367 28H11.2617C11.0517 28 10.8867 27.835 10.8867 27.625V15.25H28.1367V20.5C28.1367 20.9125 28.4742 21.25 28.8867 21.25C29.2992 21.25 29.6367 20.9125 29.6367 20.5V11.125C29.6367 10.09 28.7967 9.25 27.7617 9.25ZM10.8867 13.75V11.125C10.8867 10.915 11.0517 10.75 11.2617 10.75H27.7617C27.9717 10.75 28.1367 10.915 28.1367 11.125V13.75H10.8867Z" fill="white"/>
<path d="M12.7617 11.5H12.3867C11.9742 11.5 11.6367 11.8375 11.6367 12.25C11.6367 12.6625 11.9742 13 12.3867 13H12.7617C13.1742 13 13.5117 12.6625 13.5117 12.25C13.5117 11.8375 13.1742 11.5 12.7617 11.5Z" fill="white"/>
<path d="M15.7617 11.5H15.3867C14.9742 11.5 14.6367 11.8375 14.6367 12.25C14.6367 12.6625 14.9742 13 15.3867 13H15.7617C16.1742 13 16.5117 12.6625 16.5117 12.25C16.5117 11.8375 16.1742 11.5 15.7617 11.5Z" fill="white"/>
<path d="M31.1367 22H18.3867C17.9742 22 17.6367 22.3375 17.6367 22.75V31C17.6367 31.4125 17.9742 31.75 18.3867 31.75H31.1367C31.5492 31.75 31.8867 31.4125 31.8867 31V22.75C31.8867 22.3375 31.5492 22 31.1367 22ZM22.2717 27.88C22.5567 28.18 22.5492 28.6525 22.2567 28.9375C22.1142 29.08 21.9267 29.1475 21.7317 29.1475C21.5367 29.1475 21.3417 29.0725 21.1917 28.9225L19.7217 27.4C19.4367 27.1075 19.4367 26.65 19.7217 26.3575L21.1917 24.835C21.4767 24.535 21.9567 24.5275 22.2492 24.82C22.5492 25.105 22.5567 25.585 22.2642 25.8775L21.2967 26.8825L22.2642 27.8875L22.2717 27.88ZM26.0742 24.6175L24.8967 29.4925C24.8142 29.8375 24.5067 30.07 24.1692 30.07C24.1092 30.07 24.0492 30.07 23.9892 30.0475C23.5842 29.95 23.3367 29.545 23.4342 29.14L24.6117 24.265C24.7092 23.86 25.1142 23.6125 25.5192 23.71C25.9242 23.8075 26.1717 24.2125 26.0742 24.6175ZM29.7942 27.4L28.3242 28.9225C28.1742 29.0725 27.9792 29.1475 27.7842 29.1475C27.5892 29.1475 27.4092 29.08 27.2592 28.9375C26.9592 28.6525 26.9517 28.1725 27.2442 27.88L28.2117 26.875L27.2442 25.87C26.9592 25.57 26.9667 25.0975 27.2592 24.8125C27.5592 24.5275 28.0317 24.535 28.3167 24.8275L29.7867 26.35C30.0717 26.6425 30.0717 27.1 29.7867 27.3925L29.7942 27.4Z" fill="white"/>
</svg>
