<svg width="41" height="40" viewBox="0 0 41 40" fill="none" xmlns="http://www.w3.org/2000/svg">
<circle cx="20.6367" cy="20" r="20" fill="#EBA63F"/>
<path d="M30.0042 19.4447C31.0917 19.2647 31.8867 18.3272 31.8867 17.2247V15.4922C31.8867 15.0797 31.5492 14.7422 31.1367 14.7422C30.7242 14.7422 30.3867 15.0797 30.3867 15.4922V17.2247C30.3867 17.5922 30.1242 17.9072 29.7567 17.9672L27.3717 18.3647C27.2967 16.3622 25.6542 14.7497 23.6367 14.7497H17.6367C15.6117 14.7497 13.9692 16.3622 13.9017 18.3647L11.5167 17.9672C11.1567 17.9072 10.8867 17.5922 10.8867 17.2247V15.4922C10.8867 15.0797 10.5492 14.7422 10.1367 14.7422C9.72422 14.7422 9.38672 15.0797 9.38672 15.4922V17.2247C9.38672 18.3272 10.1742 19.2647 11.2692 19.4447L13.8867 19.8797V21.4922H11.6967C10.8867 21.4922 10.1742 22.0097 9.91922 22.7747L9.42422 24.2522C9.29672 24.6422 9.50672 25.0697 9.89672 25.1972C9.97172 25.2272 10.0542 25.2347 10.1367 25.2347C10.4517 25.2347 10.7442 25.0397 10.8492 24.7247L11.3442 23.2472C11.3967 23.0972 11.5392 22.9922 11.6967 22.9922H13.8867V24.4922C13.8867 24.5897 13.8942 24.6797 13.9017 24.7697L10.6317 26.4047C9.86672 26.7872 9.38672 27.5597 9.38672 28.4147V29.7347C9.38672 30.1472 9.72422 30.4847 10.1367 30.4847C10.5492 30.4847 10.8867 30.1472 10.8867 29.7347V28.4147C10.8867 28.1297 11.0442 27.8747 11.2992 27.7472L14.1417 26.3222C14.9442 29.1572 17.5467 31.2347 20.6292 31.2347C23.7117 31.2347 26.3142 29.1497 27.1167 26.3222L29.9592 27.7472C30.2142 27.8747 30.3717 28.1297 30.3717 28.4147V29.7347C30.3717 30.1472 30.7092 30.4847 31.1217 30.4847C31.5342 30.4847 31.8717 30.1472 31.8717 29.7347V28.4147C31.8717 27.5597 31.3917 26.7872 30.6267 26.4047L27.3567 24.7697C27.3567 24.6797 27.3717 24.5822 27.3717 24.4922V22.9922H29.5617C29.7267 22.9922 29.8692 23.0972 29.9142 23.2472L30.4092 24.7247C30.5142 25.0397 30.8067 25.2347 31.1217 25.2347C31.1967 25.2347 31.2792 25.2197 31.3617 25.1972C31.7517 25.0697 31.9692 24.6422 31.8342 24.2522L31.3392 22.7747C31.0842 22.0097 30.3717 21.4922 29.5617 21.4922H27.3717V19.8797L29.9892 19.4447H30.0042ZM17.6367 16.2497H23.6367C24.8742 16.2497 25.8867 17.2622 25.8867 18.4997V19.2497H15.3867V18.4997C15.3867 17.2622 16.3992 16.2497 17.6367 16.2497ZM20.6367 29.7497C17.7417 29.7497 15.3867 27.3947 15.3867 24.4997V22.2497V20.7497H19.8867V24.4997C19.8867 24.9122 20.2242 25.2497 20.6367 25.2497C21.0492 25.2497 21.3867 24.9122 21.3867 24.4997V20.7497H25.8867V22.2497V24.4997C25.8867 27.3947 23.5317 29.7497 20.6367 29.7497Z" fill="white"/>
<path d="M20.6367 26.375C20.2242 26.375 19.8867 26.7125 19.8867 27.125V27.5C19.8867 27.9125 20.2242 28.25 20.6367 28.25C21.0492 28.25 21.3867 27.9125 21.3867 27.5V27.125C21.3867 26.7125 21.0492 26.375 20.6367 26.375Z" fill="white"/>
<path d="M16.8867 10.25H17.9667C18.1467 10.25 18.3042 10.3775 18.3342 10.5575L18.5442 11.6825C18.4467 11.9375 18.3867 12.2075 18.3867 12.5V14H22.8867V12.5C22.8867 12.2075 22.8267 11.9375 22.7292 11.6825L22.9392 10.5575C22.9692 10.3775 23.1267 10.25 23.3067 10.25H24.3867C24.7992 10.25 25.1367 9.9125 25.1367 9.5C25.1367 9.0875 24.7992 8.75 24.3867 8.75H23.3067C22.4067 8.75 21.6267 9.395 21.4617 10.28L21.4392 10.4075C21.1917 10.31 20.9217 10.25 20.6367 10.25C20.3517 10.25 20.0817 10.31 19.8342 10.4075L19.8117 10.28C19.6467 9.395 18.8742 8.75 17.9667 8.75H16.8867C16.4742 8.75 16.1367 9.0875 16.1367 9.5C16.1367 9.9125 16.4742 10.25 16.8867 10.25Z" fill="white"/>
</svg>
