<svg width="41" height="41" viewBox="0 0 41 41" fill="none" xmlns="http://www.w3.org/2000/svg">
<circle cx="20.6367" cy="20.5" r="20" fill="#EBA63F"/>
<path d="M30.0117 16C31.0467 16 31.8867 15.16 31.8867 14.125V11.125C31.8867 10.09 31.0467 9.25 30.0117 9.25H11.2617C10.2267 9.25 9.38672 10.09 9.38672 11.125V14.125C9.38672 15.16 10.2267 16 11.2617 16H11.6367V17.5H11.2617C10.2267 17.5 9.38672 18.34 9.38672 19.375V22.375C9.38672 23.41 10.2267 24.25 11.2617 24.25H30.0117C31.0467 24.25 31.8867 23.41 31.8867 22.375V19.375C31.8867 18.34 31.0467 17.5 30.0117 17.5H29.6367V16H30.0117ZM10.8867 14.125V11.125C10.8867 10.915 11.0517 10.75 11.2617 10.75H30.0117C30.2217 10.75 30.3867 10.915 30.3867 11.125V14.125C30.3867 14.335 30.2217 14.5 30.0117 14.5H11.2617C11.0517 14.5 10.8867 14.335 10.8867 14.125ZM30.3867 19.375V22.375C30.3867 22.585 30.2217 22.75 30.0117 22.75H11.2617C11.0517 22.75 10.8867 22.585 10.8867 22.375V19.375C10.8867 19.165 11.0517 19 11.2617 19H30.0117C30.2217 19 30.3867 19.165 30.3867 19.375ZM28.1367 17.5H13.1367V16H28.1367V17.5Z" fill="white"/>
<path d="M13.5117 11.875H12.7617C12.3492 11.875 12.0117 12.2125 12.0117 12.625C12.0117 13.0375 12.3492 13.375 12.7617 13.375H13.5117C13.9242 13.375 14.2617 13.0375 14.2617 12.625C14.2617 12.2125 13.9242 11.875 13.5117 11.875Z" fill="white"/>
<path d="M17.2617 11.875H16.5117C16.0992 11.875 15.7617 12.2125 15.7617 12.625C15.7617 13.0375 16.0992 13.375 16.5117 13.375H17.2617C17.6742 13.375 18.0117 13.0375 18.0117 12.625C18.0117 12.2125 17.6742 11.875 17.2617 11.875Z" fill="white"/>
<path d="M28.5117 11.875H20.2617C19.8492 11.875 19.5117 12.2125 19.5117 12.625C19.5117 13.0375 19.8492 13.375 20.2617 13.375H28.5117C28.9242 13.375 29.2617 13.0375 29.2617 12.625C29.2617 12.2125 28.9242 11.875 28.5117 11.875Z" fill="white"/>
<path d="M12.7617 21.625H13.5117C13.9242 21.625 14.2617 21.2875 14.2617 20.875C14.2617 20.4625 13.9242 20.125 13.5117 20.125H12.7617C12.3492 20.125 12.0117 20.4625 12.0117 20.875C12.0117 21.2875 12.3492 21.625 12.7617 21.625Z" fill="white"/>
<path d="M16.5117 21.625H17.2617C17.6742 21.625 18.0117 21.2875 18.0117 20.875C18.0117 20.4625 17.6742 20.125 17.2617 20.125H16.5117C16.0992 20.125 15.7617 20.4625 15.7617 20.875C15.7617 21.2875 16.0992 21.625 16.5117 21.625Z" fill="white"/>
<path d="M20.2617 21.625H28.5117C28.9242 21.625 29.2617 21.2875 29.2617 20.875C29.2617 20.4625 28.9242 20.125 28.5117 20.125H20.2617C19.8492 20.125 19.5117 20.4625 19.5117 20.875C19.5117 21.2875 19.8492 21.625 20.2617 21.625Z" fill="white"/>
<path d="M31.1367 28.75H28.1367V30.25H31.1367C31.5492 30.25 31.8867 29.9125 31.8867 29.5C31.8867 29.0875 31.5492 28.75 31.1367 28.75Z" fill="white"/>
<path d="M9.38672 29.5C9.38672 29.9125 9.72422 30.25 10.1367 30.25H13.1367V28.75H10.1367C9.72422 28.75 9.38672 29.0875 9.38672 29.5Z" fill="white"/>
<path d="M25.5117 27.25H24.3867V25.75H22.8867V27.25H21.3867V25.75H19.8867V27.25H18.3867V25.75H16.8867V27.25H15.7617C15.1392 27.25 14.6367 27.7525 14.6367 28.375V30.625C14.6367 31.2475 15.1392 31.75 15.7617 31.75H25.5117C26.1342 31.75 26.6367 31.2475 26.6367 30.625V28.375C26.6367 27.7525 26.1342 27.25 25.5117 27.25ZM19.3242 30.25H18.9492C18.5367 30.25 18.1992 29.9125 18.1992 29.5C18.1992 29.0875 18.5367 28.75 18.9492 28.75H19.3242C19.7367 28.75 20.0742 29.0875 20.0742 29.5C20.0742 29.9125 19.7367 30.25 19.3242 30.25ZM22.3242 30.25H21.9492C21.5367 30.25 21.1992 29.9125 21.1992 29.5C21.1992 29.0875 21.5367 28.75 21.9492 28.75H22.3242C22.7367 28.75 23.0742 29.0875 23.0742 29.5C23.0742 29.9125 22.7367 30.25 22.3242 30.25Z" fill="white"/>
</svg>
