<svg width="40" height="40" viewBox="0 0 40 40" fill="none" xmlns="http://www.w3.org/2000/svg">
<circle cx="20" cy="20" r="20" fill="#EBA63F"/>
<g clip-path="url(#clip0_2235_1374)">
<path d="M28.25 19.3125H17.9375C16.8031 19.3125 15.875 20.2406 15.875 21.375V28.25C15.875 29.3844 16.8031 30.3125 17.9375 30.3125H28.25C29.3844 30.3125 30.3125 29.3844 30.3125 28.25V21.375C30.3125 20.2406 29.3844 19.3125 28.25 19.3125ZM28.9375 28.25C28.9375 28.6281 28.6281 28.9375 28.25 28.9375H17.9375C17.5594 28.9375 17.25 28.6281 17.25 28.25V21.375C17.25 20.9969 17.5594 20.6875 17.9375 20.6875H28.25C28.6281 20.6875 28.9375 20.9969 28.9375 21.375V28.25Z" fill="white"/>
<path d="M20.5363 22.5716C20.2475 22.3241 19.8144 22.3585 19.5669 22.6473L18.1025 24.366C17.8825 24.6204 17.8825 24.9985 18.1025 25.2598L19.5669 26.9785C19.7044 27.1366 19.8969 27.2191 20.0894 27.2191C20.2475 27.2191 20.4056 27.1641 20.5363 27.0541C20.825 26.8066 20.8594 26.3735 20.6119 26.0848L19.5256 24.8129L20.6119 23.541C20.8594 23.2523 20.825 22.8191 20.5363 22.5716Z" fill="white"/>
<path d="M26.6205 22.6473C26.373 22.3585 25.9399 22.3241 25.6512 22.5716C25.3624 22.8191 25.328 23.2523 25.5755 23.541L26.6618 24.8129L25.5755 26.0848C25.328 26.3735 25.3624 26.8066 25.6512 27.0541C25.7818 27.1641 25.9399 27.2191 26.098 27.2191C26.2905 27.2191 26.483 27.1366 26.6205 26.9785L28.0849 25.2598C28.3049 25.0054 28.3049 24.6273 28.0849 24.366L26.6205 22.6473Z" fill="white"/>
<path d="M23.8224 21.3893C23.4512 21.3068 23.0868 21.5474 23.0043 21.9186L21.8356 27.4186C21.7531 27.7899 21.9937 28.1543 22.3649 28.2368C22.4131 28.2505 22.4612 28.2505 22.5093 28.2505C22.8256 28.2505 23.1143 28.0305 23.1831 27.7074L24.3518 22.2074C24.4343 21.8361 24.1937 21.4718 23.8224 21.3893Z" fill="white"/>
<path d="M15.1875 15.875C16.7069 15.875 17.9375 14.6444 17.9375 13.125V11.75C17.9375 10.6156 17.0094 9.6875 15.875 9.6875H14.5C13.3656 9.6875 12.4375 10.6156 12.4375 11.75V13.125C12.4375 14.6444 13.6681 15.875 15.1875 15.875Z" fill="white"/>
<path d="M19.01 14.6797C18.3981 16.1853 16.9131 17.2509 15.1875 17.2509C13.4619 17.2509 11.9838 16.1853 11.365 14.6797C10.3338 15.6834 9.6875 17.0791 9.6875 18.6259V20.6884C9.6875 21.8228 10.6156 22.7509 11.75 22.7509H14.5V20.0009C14.5 18.8666 15.4281 17.9384 16.5625 17.9384H20.6394C20.4813 16.6666 19.8831 15.5253 19.01 14.6797ZM12.7813 20.6884H12.4375C12.0594 20.6884 11.75 20.3791 11.75 20.0009C11.75 19.6228 12.0594 19.3134 12.4375 19.3134H12.7813C13.1594 19.3134 13.4688 19.6228 13.4688 20.0009C13.4688 20.3791 13.1594 20.6884 12.7813 20.6884Z" fill="white"/>
</g>
<defs>
<clipPath id="clip0_2235_1374">
<rect width="22" height="22" fill="white" transform="translate(9 9)"/>
</clipPath>
</defs>
</svg>
