<svg width="237" height="233" viewBox="0 0 237 233" fill="none" xmlns="http://www.w3.org/2000/svg">
<path d="M195.21 216.87H0V218.31H195.21V216.87Z" fill="black"/>
<path d="M173.62 57.93C174.53 55.99 173.78 52.71 172.95 50.23V50.15H172.88C168.991 47.5303 166.171 43.6018 164.933 39.0788C163.695 34.5558 164.121 29.7387 166.135 25.5036C168.148 21.2684 171.615 17.8965 175.904 16.001C180.193 14.1055 185.02 13.8123 189.507 15.1747C193.994 16.5371 197.843 19.4647 200.354 23.4251C202.865 27.3854 203.872 32.1154 203.191 36.755C202.509 41.3946 200.185 45.6356 196.642 48.7067C193.098 51.7779 188.57 53.4752 183.88 53.49C183.54 53.49 183.21 53.49 182.88 53.49H182.48L182.4 53.59C181.429 54.9259 180.165 56.0227 178.706 56.7973C177.247 57.5718 175.631 58.0036 173.98 58.06L173.62 57.93Z" fill="white"/>
<path d="M183.8 14.54C188.849 14.6549 193.653 16.7413 197.183 20.353C200.714 23.9646 202.69 28.8145 202.69 33.865C202.69 38.9155 200.714 43.7654 197.183 47.377C193.653 50.9887 188.849 53.0751 183.8 53.19C183.47 53.19 183.16 53.19 182.8 53.19H182.53H182.27L182.11 53.39C181.168 54.6832 179.947 55.7481 178.538 56.5063C177.129 57.2644 175.568 57.6963 173.97 57.77C174.56 56.12 174.29 53.59 173.16 50.23L173.11 50.07L172.97 49.97C169.503 47.6664 166.872 44.3052 165.468 40.3862C164.065 36.4671 163.964 32.1998 165.181 28.219C166.398 24.2381 168.867 20.7564 172.222 18.2918C175.577 15.8272 179.637 14.5113 183.8 14.54ZM183.8 14.04C179.552 14.0358 175.416 15.3964 172 17.9212C168.584 20.4459 166.069 24.0013 164.827 28.0632C163.585 32.1251 163.68 36.4787 165.099 40.4822C166.519 44.4858 169.187 47.9274 172.71 50.3C173.58 52.9 174.36 56.35 173.21 58.15C173.44 58.1659 173.67 58.1659 173.9 58.15C175.589 58.0948 177.243 57.6555 178.736 56.8653C180.23 56.0752 181.524 54.9551 182.52 53.59C182.94 53.59 183.36 53.65 183.8 53.65C188.981 53.5336 193.91 51.3938 197.533 47.6886C201.156 43.9834 203.185 39.0071 203.185 33.825C203.185 28.6429 201.156 23.6666 197.533 19.9614C193.91 16.2562 188.981 14.1164 183.8 14V14.04Z" fill="black"/>
<path d="M168.27 75.04H21.5401C20.6107 75.0403 19.6911 75.2293 18.837 75.5957C17.9829 75.9621 17.2122 76.4983 16.5716 77.1716C15.931 77.8449 15.4339 78.6414 15.1105 79.5126C14.787 80.3839 14.644 81.3118 14.6901 82.24L21.0101 209.15H168.8L175.12 82.24C175.166 81.3118 175.023 80.3839 174.7 79.5126C174.376 78.6414 173.879 77.8449 173.239 77.1716C172.598 76.4983 171.827 75.9621 170.973 75.5957C170.119 75.2293 169.199 75.0403 168.27 75.04Z" fill="#414267"/>
<path d="M27.5801 202.26L21.5901 81.96H168.22L162.23 202.26H27.5801Z" fill="white"/>
<path d="M167.96 82.2197L161.96 202.01H27.8201L21.8201 82.2197H167.96ZM168.48 81.7197H21.3301V82.2397L27.3301 202.04V202.51H162.44V202.04L168.44 82.2397V81.7197H168.48Z" fill="black"/>
<mask id="mask0_2009_10111" style="mask-type:luminance" maskUnits="userSpaceOnUse" x="21" y="82" width="147" height="121">
<path d="M27.8201 202.01L21.8501 82.2197H167.96L161.99 202.01H27.8201Z" fill="white"/>
</mask>
<g mask="url(#mask0_2009_10111)">
<path d="M44.0099 120.959L43.92 118.169H-3.80005L-3.70005 120.959H44.0099Z" fill="#414267"/>
<path d="M34.5799 112.539L34.49 109.739H-3.80005L-3.70005 112.539H34.5799Z" fill="black"/>
<path d="M34.8 112.699H-3.91001L-4.01001 109.589H34.7L34.8 112.699ZM-3.49001 112.389H34.37L34.28 109.899H-3.56001L-3.49001 112.389Z" fill="black"/>
<path d="M29.46 129.389L29.36 126.589H22.51L22.61 129.389H29.46Z" fill="#414267"/>
<path d="M44.0099 95.9992L43.92 93.1992H-3.80005L-3.70005 95.9992H44.0099Z" fill="#414267"/>
<path d="M34.5799 87.5793L34.49 84.7793H-3.80005L-3.70005 87.5793H34.5799Z" fill="#414267"/>
<path d="M29.1399 104.419L29.0399 101.619H22.1899L22.2899 104.419H29.1399Z" fill="#414267"/>
<path d="M44.0099 188.809L43.92 186.009H-3.80005L-3.70005 188.809H44.0099Z" fill="#414267"/>
<path d="M34.5799 180.389L34.49 177.589H-3.80005L-3.70005 180.389H34.5799Z" fill="#414267"/>
<path d="M29.46 197.23L29.36 194.43H22.51L22.61 197.23H29.46Z" fill="#414267"/>
<path d="M44.0099 163.849L43.92 161.049H-3.80005L-3.70005 163.849H44.0099Z" fill="#414267"/>
<path d="M34.5799 155.419L34.49 152.619H-3.80005L-3.70005 155.419H34.5799Z" fill="#414267"/>
<path d="M29.1399 172.27L29.0399 169.47H22.1899L22.2899 172.27H29.1399Z" fill="#414267"/>
<path d="M44.0099 138.879L43.92 136.079H-3.80005L-3.70005 138.879H44.0099Z" fill="#414267"/>
<path d="M28.8099 147.309L28.7199 144.509H21.8699L21.9699 147.309H28.8099Z" fill="#414267"/>
<path d="M92.15 137.499L92.06 134.709H53.77L53.87 137.499H92.15Z" fill="#414267"/>
<path d="M76.43 129.389L76.34 126.589H53.77L53.87 129.389H76.43Z" fill="#414267"/>
<path d="M101.58 120.959L101.49 118.169H53.77L53.87 120.959H101.58Z" fill="black"/>
<path d="M101.8 121.12H53.66L53.55 118.02H101.7L101.8 121.12ZM54.08 120.82H101.37L101.28 118.32H53.99L54.08 120.82Z" fill="black"/>
<path d="M92.15 162.699L92.06 159.899H53.77L53.87 162.699H92.15Z" fill="#414267"/>
<path d="M76.43 154.579L76.34 151.779H53.77L53.87 154.579H76.43Z" fill="#414267"/>
<path d="M101.58 146.159L101.49 143.359H53.77L53.87 146.159H101.58Z" fill="#414267"/>
<path d="M92.15 112.539L92.06 109.739H53.77L53.87 112.539H92.15Z" fill="#414267"/>
<path d="M87.0201 129.389L86.9301 126.589H80.0801L80.1801 129.389H87.0201Z" fill="#414267"/>
<path d="M92.15 188.19L92.06 185.39H53.77L53.87 188.19H92.15Z" fill="#414267"/>
<path d="M76.43 180.079L76.34 177.279H53.77L53.87 180.079H76.43Z" fill="#414267"/>
<path d="M101.58 171.65L101.49 168.85H53.77L53.87 171.65H101.58Z" fill="#414267"/>
<path d="M101.58 196.849L101.49 194.049H53.77L53.87 196.849H101.58Z" fill="#414267"/>
<path d="M87.0201 180.079L86.9301 177.279H80.0801L80.1801 180.079H87.0201Z" fill="#414267"/>
<path d="M149.72 188.19L149.62 185.39H111.34L111.43 188.19H149.72Z" fill="black"/>
<path d="M149.94 188.349H111.23L111.12 185.249H149.84L149.94 188.349ZM111.64 188.039H149.5L149.42 185.549H111.56L111.64 188.039Z" fill="black"/>
<path d="M134 180.079L133.91 177.279H111.34L111.43 180.079H134Z" fill="#414267"/>
<path d="M159.15 171.65L159.05 168.85H111.34L111.43 171.65H159.15Z" fill="#414267"/>
<path d="M159.15 196.849L159.05 194.049H111.34L111.43 196.849H159.15Z" fill="#414267"/>
<path d="M144.59 180.079L144.5 177.279H137.65L137.74 180.079H144.59Z" fill="#414267"/>
<path d="M76.43 104.419L76.34 101.619H53.77L53.87 104.419H76.43Z" fill="#414267"/>
<path d="M101.58 95.9992L101.49 93.1992H53.77L53.87 95.9992H101.58Z" fill="#414267"/>
<path d="M92.15 87.5793L92.06 84.7793H53.77L53.87 87.5793H92.15Z" fill="#414267"/>
<path d="M86.7 104.419L86.61 101.619H79.76L79.86 104.419H86.7Z" fill="#414267"/>
<path d="M134 129.389L133.91 126.589H111.34L111.43 129.389H134Z" fill="#414267"/>
<path d="M159.15 120.959L159.06 118.169H111.34L111.43 120.959H159.15Z" fill="#414267"/>
<path d="M149.72 112.539L149.62 109.739H111.34L111.43 112.539H149.72Z" fill="#414267"/>
<path d="M144.59 129.389L144.5 126.589H137.65L137.74 129.389H144.59Z" fill="#414267"/>
<path d="M134 104.419L133.91 101.619H111.34L111.43 104.419H134Z" fill="#414267"/>
<path d="M159.15 95.9992L159.06 93.1992H111.34L111.43 95.9992H159.15Z" fill="#414267"/>
<path d="M149.72 87.5793L149.62 84.7793H111.34L111.43 87.5793H149.72Z" fill="#414267"/>
<path d="M144.27 104.419L144.18 101.619H137.33L137.42 104.419H144.27Z" fill="#414267"/>
<path d="M134 162.179L133.91 159.379H111.34L111.43 162.179H134Z" fill="#414267"/>
<path d="M159.15 153.759L159.06 150.959H111.34L111.43 153.759H159.15Z" fill="#414267"/>
<path d="M149.72 145.339L149.62 142.539H111.34L111.43 145.339H149.72Z" fill="#414267"/>
<path d="M144.59 162.179L144.5 159.379H137.65L137.74 162.179H144.59Z" fill="#414267"/>
<path d="M134 137.219L133.91 134.419H111.34L111.43 137.219H134Z" fill="#414267"/>
<path d="M144.27 137.219L144.18 134.419H137.33L137.42 137.219H144.27Z" fill="#414267"/>
</g>
<path d="M39.09 205.97H24.9C24.0053 205.97 23.28 206.695 23.28 207.59V208.82C23.28 209.714 24.0053 210.44 24.9 210.44H39.09C39.9847 210.44 40.71 209.714 40.71 208.82V207.59C40.71 206.695 39.9847 205.97 39.09 205.97Z" fill="black"/>
<path d="M56.2099 205.97H48.0399C47.1452 205.97 46.4199 206.695 46.4199 207.59V208.82C46.4199 209.714 47.1452 210.44 48.0399 210.44H56.2099C57.1046 210.44 57.8299 209.714 57.8299 208.82V207.59C57.8299 206.695 57.1046 205.97 56.2099 205.97Z" fill="black"/>
<path d="M81.57 205.97H62.83C61.9353 205.97 61.21 206.695 61.21 207.59V208.82C61.21 209.714 61.9353 210.44 62.83 210.44H81.57C82.4647 210.44 83.19 209.714 83.19 208.82V207.59C83.19 206.695 82.4647 205.97 81.57 205.97Z" fill="black"/>
<path d="M107.25 205.97H90.9301C90.0354 205.97 89.3101 206.695 89.3101 207.59V208.82C89.3101 209.714 90.0354 210.44 90.9301 210.44H107.25C108.145 210.44 108.87 209.714 108.87 208.82V207.59C108.87 206.695 108.145 205.97 107.25 205.97Z" fill="black"/>
<path d="M123.3 205.97H115.13C114.235 205.97 113.51 206.695 113.51 207.59V208.82C113.51 209.714 114.235 210.44 115.13 210.44H123.3C124.194 210.44 124.92 209.714 124.92 208.82V207.59C124.92 206.695 124.194 205.97 123.3 205.97Z" fill="black"/>
<path d="M164.9 205.97H156.73C155.835 205.97 155.11 206.695 155.11 207.59V208.82C155.11 209.714 155.835 210.44 156.73 210.44H164.9C165.795 210.44 166.52 209.714 166.52 208.82V207.59C166.52 206.695 165.795 205.97 164.9 205.97Z" fill="black"/>
<path d="M148.66 205.97H129.92C129.025 205.97 128.3 206.695 128.3 207.59V208.82C128.3 209.714 129.025 210.44 129.92 210.44H148.66C149.554 210.44 150.28 209.714 150.28 208.82V207.59C150.28 206.695 149.554 205.97 148.66 205.97Z" fill="black"/>
<path d="M178.13 209.17H11.6801C10.6639 209.17 9.84009 209.994 9.84009 211.01V215.03C9.84009 216.046 10.6639 216.87 11.6801 216.87H178.13C179.146 216.87 179.97 216.046 179.97 215.03V211.01C179.97 209.994 179.146 209.17 178.13 209.17Z" fill="#414267"/>
<g opacity="0.3">
<path d="M27.8201 202.01L21.8501 82.21H167.95L161.99 202.01H27.8201Z" fill="#414267"/>
</g>
<path d="M96.5301 146.17H94.3101V158.35H96.5301V146.17Z" fill="black"/>
<path d="M154.13 50.0195H36.7V145.65H154.13V50.0195Z" fill="white"/>
<path d="M153.88 50.2695V145.4H36.9599V50.2695H153.88ZM154.38 49.7695H36.4399V145.9H154.38V49.7695Z" fill="black"/>
<path d="M89.3198 162.38C89.3179 161.173 89.6739 159.992 90.343 158.988C91.0121 157.983 91.9641 157.2 93.0785 156.737C94.193 156.274 95.4198 156.151 96.6037 156.386C97.7877 156.62 98.8755 157.2 99.7296 158.053C100.584 158.905 101.166 159.992 101.402 161.176C101.638 162.359 101.518 163.586 101.056 164.702C100.595 165.817 99.8132 166.77 98.8099 167.441C97.8065 168.112 96.6267 168.47 95.4198 168.47C93.8046 168.467 92.256 167.825 91.1129 166.684C89.9698 165.542 89.3251 163.995 89.3198 162.38ZM92.0998 162.38C92.1038 163.034 92.3014 163.674 92.6677 164.216C93.034 164.759 93.5527 165.182 94.1585 165.431C94.7644 165.679 95.4302 165.743 96.0724 165.615C96.7145 165.486 97.3043 165.17 97.7674 164.707C98.2305 164.244 98.5463 163.654 98.675 163.012C98.8037 162.37 98.7397 161.704 98.4909 161.098C98.2421 160.492 97.8197 159.974 97.2768 159.607C96.7339 159.241 96.0947 159.043 95.4398 159.04C95.0005 159.037 94.565 159.121 94.1585 159.288C93.7521 159.455 93.3829 159.701 93.0722 160.012C92.7615 160.323 92.5156 160.692 92.3487 161.098C92.1818 161.505 92.0972 161.94 92.0998 162.38Z" fill="black"/>
<path d="M155.74 45.9697H35.1001C34.4208 45.9697 33.8701 46.5204 33.8701 47.1997V51.5997C33.8701 52.279 34.4208 52.8297 35.1001 52.8297H155.74C156.419 52.8297 156.97 52.279 156.97 51.5997V47.1997C156.97 46.5204 156.419 45.9697 155.74 45.9697Z" fill="black"/>
<path d="M155.74 142.09H35.1001C34.4208 142.09 33.8701 142.641 33.8701 143.32V147.72C33.8701 148.399 34.4208 148.95 35.1001 148.95H155.74C156.419 148.95 156.97 148.399 156.97 147.72V143.32C156.97 142.641 156.419 142.09 155.74 142.09Z" fill="black"/>
<path d="M146.98 97.3603H143.44V96.7303H146.21V96.3203H147L146.98 97.3603ZM140.25 97.3603H137.09V96.7303H140.25V97.3603ZM133.92 97.3603H130.75V96.7303H133.92V97.3603ZM127.59 97.3603H124.44V96.7303H127.61L127.59 97.3603ZM121.25 97.3603H118.09V96.7303H121.25V97.3603ZM114.92 97.3603H111.75V96.7303H114.92V97.3603ZM108.59 97.3603H105.44V96.7303H108.61L108.59 97.3603ZM102.25 97.3603H99.0901V96.7303H102.25V97.3603ZM95.9201 97.3603H92.7501V96.7303H95.9201V97.3603ZM89.5901 97.3603H86.4401V96.7303H89.6101L89.5901 97.3603ZM83.2501 97.3603H80.0901V96.7303H83.2501V97.3603ZM76.9201 97.3603H73.7501V96.7303H76.9201V97.3603ZM70.5901 97.3603H67.4401V96.7303H70.6101L70.5901 97.3603ZM64.2501 97.3603H61.0901V96.7303H64.2501V97.3603ZM57.9201 97.3603H54.7501V96.7303H57.9201V97.3603ZM51.5901 97.3603H48.4401V96.7303H51.6101L51.5901 97.3603ZM45.2501 97.3603H43.8501V95.3603H44.6501V96.7703H45.2501V97.3603ZM146.98 93.7903H146.19V91.2603H146.98V93.7903ZM44.6501 92.7903H43.8501V90.2503H44.6501V92.7903ZM146.98 88.7903H146.19V86.2003H146.98V88.7903ZM44.6501 87.7903H43.8501V85.1903H44.6501V87.7903ZM146.98 83.7403H146.19V81.1403H146.98V83.7403ZM44.6501 82.7403H43.8501V80.1303H44.6501V82.7403ZM146.98 78.6803H146.19V76.0403H146.98V78.6803ZM44.6501 77.6803H43.8501V75.0403H44.6501V77.6803ZM146.98 73.5403H146.19V71.0403H146.98V73.5403ZM44.6501 72.5403H43.8501V70.0403H44.6501V72.5403ZM146.98 68.4903H146.19V65.9503H146.98V68.4903ZM44.6501 67.4903H43.8501V64.9403H44.6501V67.4903ZM146.98 63.4903H146.19V60.8803H146.98V63.4903ZM44.6501 62.4903H43.8501V59.8803H44.6501V62.4903ZM145.13 59.9103H141.97V59.2803H145.13V59.9103ZM138.8 59.9103H135.63V59.2803H138.8V59.9103ZM132.47 59.9103H129.3V59.2803H132.44L132.47 59.9103ZM126.13 59.9103H122.97V59.2803H126.13V59.9103ZM119.8 59.9103H116.63V59.2803H119.8V59.9103ZM113.47 59.9103H110.3V59.2803H113.44L113.47 59.9103ZM107.13 59.9103H103.97V59.2803H107.13V59.9103ZM100.8 59.9103H97.6301V59.2803H100.8V59.9103ZM94.4701 59.9103H91.3001V59.2803H94.4401L94.4701 59.9103ZM88.1301 59.9103H84.9701V59.2803H88.1301V59.9103ZM81.8001 59.9103H78.6301V59.2803H81.8001V59.9103ZM75.4701 59.9103H72.3001V59.2803H75.4401L75.4701 59.9103ZM69.1301 59.9103H65.9701V59.2803H69.1301V59.9103ZM62.8001 59.9103H59.6301V59.2803H62.8001V59.9103ZM56.4701 59.9103H53.3001V59.2803H56.4401L56.4701 59.9103ZM50.1301 59.9103H46.9701V59.2803H50.1301V59.9103Z" fill="#BAE1FD"/>
<path d="M138.79 64.79H85.4902V72.62H138.79V64.79Z" fill="#414267"/>
<path d="M95.4702 77.6797H85.4902V78.8697H95.4702V77.6797Z" fill="#414267"/>
<path d="M138.79 77.6797H99.02V78.8697H138.79V77.6797Z" fill="#414267"/>
<path d="M111.8 80.5H85.4902V81.69H111.8V80.5Z" fill="#414267"/>
<path d="M123.9 80.5H113.92V81.69H123.9V80.5Z" fill="#414267"/>
<path d="M138.79 80.5H126.37V81.69H138.79V80.5Z" fill="#414267"/>
<path d="M116.95 83.3301H85.4902V84.5201H116.95V83.3301Z" fill="#414267"/>
<path d="M138.79 83.3301H119.8V84.5201H138.79V83.3301Z" fill="#414267"/>
<path d="M138.8 86.2197H113.92V87.4097H138.8V86.2197Z" fill="#414267"/>
<path d="M91.6402 86.1504H85.4902V87.3404H91.6402V86.1504Z" fill="#414267"/>
<path d="M111.41 86.1504H93.9199V87.3404H111.41V86.1504Z" fill="#414267"/>
<path d="M95.4702 88.9805H85.4902V90.1705H95.4702V88.9805Z" fill="#414267"/>
<path d="M138.79 88.9805H99.02V90.1705H138.79V88.9805Z" fill="#414267"/>
<path d="M62.29 71.5401C62.292 70.8728 62.0958 70.2198 61.7263 69.6641C61.3567 69.1084 60.8305 68.6749 60.2143 68.4186C59.5981 68.1623 58.9197 68.0947 58.265 68.2244C57.6104 68.3541 57.009 68.6753 56.5371 69.1472C56.0652 69.6191 55.744 70.2205 55.6143 70.8752C55.4846 71.5298 55.5522 72.2082 55.8085 72.8244C56.0648 73.4406 56.4983 73.9668 57.054 74.3364C57.6097 74.7059 58.2627 74.9021 58.93 74.9001C59.8212 74.9001 60.6758 74.5461 61.3059 73.916C61.936 73.2859 62.29 72.4313 62.29 71.5401Z" fill="white"/>
<path d="M46.44 135.29C45.9222 135.294 45.4123 135.163 44.96 134.91L45.22 134.45C45.5955 134.65 46.0147 134.753 46.44 134.75H47.18V135.29H46.44ZM49.32 135.29V134.76H51.44V135.29H49.32ZM53.6 135.29V134.75H55.74V135.28L53.6 135.29ZM57.89 135.29V134.76H60.03V135.29H57.89ZM62.17 135.29V134.76H64.31V135.29H62.17ZM66.46 135.29V134.76H68.6V135.3L66.46 135.29ZM70.74 135.29V134.76H72.87V135.29H70.74ZM75 134.42L74.63 134.04C75.1046 133.587 75.3843 132.966 75.41 132.31H75.94C75.8974 133.104 75.5413 133.849 74.95 134.38L75 134.42ZM43.44 133.15C43.3474 132.846 43.3002 132.529 43.3 132.21V130.94H43.83V132.21C43.8291 132.475 43.8696 132.738 43.95 132.99L43.44 133.15ZM75.35 130.15V128.04H75.89V130.18L75.35 130.15ZM43.29 128.81V126.67H43.82V128.81H43.29ZM75.34 125.87V123.73H75.87V125.88L75.34 125.87ZM43.34 124.53V122.38H43.88V124.52L43.34 124.53ZM75.34 121.53V119.39H75.87V121.53H75.34ZM43.29 120.19V118.05H43.82V120.19H43.29ZM75.34 117.25V115.11H75.88V117.25H75.34ZM43.28 115.91V113.8H43.81V115.95L43.28 115.91ZM75.33 112.91V110.86H75.86V113.04L75.33 112.91ZM43.33 111.57V109.52H43.87V111.66L43.33 111.57ZM75.38 108.63V107.43C75.3786 107.173 75.3415 106.917 75.27 106.67L75.77 106.51C75.8691 106.807 75.9198 107.118 75.92 107.43V108.72L75.38 108.63ZM43.81 107.39H43.27C43.2987 106.597 43.6317 105.845 44.2 105.29L44.57 105.68C44.1057 106.131 43.8335 106.744 43.81 107.39ZM74.01 105.21C73.6303 105.001 73.2037 104.891 72.77 104.89H72.05V104.36H72.77C73.2908 104.359 73.8033 104.49 74.26 104.74L74.01 105.21ZM46.35 104.93V104.66V104.4H48.53V104.94L46.35 104.93ZM50.63 104.93V104.4H52.77V104.93H50.63ZM54.91 104.93V104.39H57.06V104.92L54.91 104.93ZM59.2 104.93V104.4H61.34V104.94L59.2 104.93ZM63.48 104.93V104.4H65.62V104.93H63.48ZM67.77 104.93V104.4H69.91V104.93H67.77Z" fill="#BAE1FD"/>
<path d="M82.07 135.29C81.5555 135.292 81.0493 135.161 80.6 134.91L80.85 134.45C81.2259 134.649 81.6448 134.752 82.07 134.75H82.81V135.29H82.07ZM84.95 135.29V134.76H87.09V135.29H84.95ZM89.24 135.29V134.75H91.38V135.28L89.24 135.29ZM93.52 135.29V134.76H95.66V135.29H93.52ZM97.81 135.29V134.76H99.95V135.29H97.81ZM102.09 135.29V134.76H104.23V135.3L102.09 135.29ZM106.38 135.29V134.76H108.5V135.02V135.29H106.38ZM110.64 134.42L110.27 134.04C110.738 133.583 111.014 132.964 111.04 132.31H111.57C111.543 133.096 111.209 133.839 110.64 134.38V134.42ZM79.14 133.19C79.0392 132.887 78.9886 132.57 78.99 132.25V130.94H79.52V132.21C79.5191 132.475 79.5596 132.738 79.64 132.99L79.14 133.19ZM111.04 130.19V128.04H111.57V130.18L111.04 130.19ZM79.04 128.85V126.71H79.58V128.85H79.04ZM111.04 125.91V123.77H111.57V125.92L111.04 125.91ZM79.04 124.57V122.42H79.57V124.56L79.04 124.57ZM111.09 121.57V119.43H111.63V121.57H111.09ZM79.03 120.23V118.09H79.56V120.23H79.03ZM111.08 117.29V115.15H111.61V117.29H111.08ZM79.08 115.95V113.8H79.62V115.95H79.08ZM111.13 112.95V110.86H111.67V113.04L111.13 112.95ZM78.96 111.66V109.52H79.49V111.66H78.96ZM111.01 108.72V107.43C111.01 107.172 110.97 106.916 110.89 106.67L111.4 106.51C111.491 106.809 111.538 107.119 111.54 107.43V108.72H111.01ZM79.49 107.39H78.96C78.985 106.598 79.3145 105.846 79.88 105.29L80.25 105.68C79.7857 106.131 79.5134 106.744 79.49 107.39ZM109.69 105.21C109.314 105 108.891 104.89 108.46 104.89H107.74V104.36H108.44C108.961 104.36 109.473 104.491 109.93 104.74L109.69 105.21ZM82.03 104.93V104.66V104.4H84.2V104.94L82.03 104.93ZM86.31 104.93V104.4H88.44V104.93H86.31ZM90.6 104.93V104.39H92.74V104.92L90.6 104.93ZM94.88 104.93V104.4H97.02V104.94L94.88 104.93ZM99.17 104.93V104.4H101.31V104.93H99.17ZM103.45 104.93V104.4H105.59V104.93H103.45Z" fill="#BAE1FD"/>
<path d="M96.8399 110.76H93.6899V126.76H96.8399V110.76Z" fill="#414267"/>
<path d="M103.26 120.34V117.19H87.2598V120.34H103.26Z" fill="#414267"/>
<path d="M118.06 135.29C117.546 135.292 117.039 135.161 116.59 134.91L116.84 134.45C117.216 134.648 117.635 134.751 118.06 134.75H118.8V135.29H118.06ZM120.94 135.29V134.76H123.09V135.29H120.94ZM125.23 135.29V134.75H127.37V135.28L125.23 135.29ZM129.51 135.29V134.76H131.66V135.29H129.51ZM133.8 135.29V134.76H135.94V135.29H133.8ZM138.08 135.29V134.76H140.22V135.3L138.08 135.29ZM142.37 135.29V134.76H144.49V135.02V135.29H142.37ZM146.63 134.42L146.26 134.04C146.732 133.586 147.008 132.965 147.03 132.31H147.56C147.533 133.096 147.199 133.839 146.63 134.38V134.42ZM115.13 133.19C115.029 132.887 114.979 132.57 114.98 132.25V130.94H115.51V132.21C115.509 132.475 115.55 132.738 115.63 132.99L115.13 133.19ZM147.03 130.19V128.04H147.56V130.18L147.03 130.19ZM115.03 128.85V126.71H115.56V128.85H115.03ZM147.08 125.91V123.77H147.61V125.92L147.08 125.91ZM115.02 124.57V122.42H115.55V124.56L115.02 124.57ZM147.07 121.57V119.43H147.6V121.57H147.07ZM115.02 120.23V118.09H115.55V120.23H115.02ZM147.02 117.29V115.15H147.55V117.29H147.02ZM115.02 115.95V113.8H115.55V115.95H115.02ZM147.07 112.95V110.86H147.61V113.04L147.07 112.95ZM115.01 111.61V109.52H115.44V111.66L115.01 111.61ZM147.06 108.67V107.43C147.06 107.172 147.02 106.916 146.94 106.67L147.45 106.51C147.541 106.809 147.588 107.119 147.59 107.43V108.72L147.06 108.67ZM115.44 107.39H114.91C114.939 106.599 115.268 105.848 115.83 105.29L116.21 105.68C115.743 106.13 115.467 106.743 115.44 107.39ZM145.64 105.21C145.264 105 144.841 104.89 144.41 104.89H143.69V104.36H144.44C144.961 104.36 145.473 104.491 145.93 104.74L145.64 105.21ZM117.98 104.93V104.66V104.4H120.15V104.94L117.98 104.93ZM122.27 104.93V104.4H124.44V104.93H122.27ZM126.55 104.93V104.39H128.69V104.92L126.55 104.93ZM130.83 104.93V104.4H132.98V104.94L130.83 104.93ZM135.12 104.93V104.4H137.26V104.93H135.12ZM139.4 104.93V104.4H141.54V104.93H139.4Z" fill="#BAE1FD"/>
<path d="M132.83 110.76H129.68V126.76H132.83V110.76Z" fill="#414267"/>
<path d="M139.25 120.34V117.19H123.25V120.34H139.25Z" fill="#414267"/>
<path d="M61.3099 110.76H58.1599V126.76H61.3099V110.76Z" fill="#414267"/>
<path d="M67.73 120.34V117.19H51.73V120.34H67.73Z" fill="#414267"/>
<path d="M160.31 213.04C159.73 213.04 159.59 212.92 159.58 212.89C159.58 212.71 159.5 212.34 159.42 211.89C159.22 210.77 158.71 207.77 158.98 207.4C158.98 207.4 159.18 207.22 160.47 207.22C161.693 207.21 162.914 207.334 164.11 207.59C164.3 208.87 164.4 211.91 164.11 212.22C162.91 212.742 161.618 213.021 160.31 213.04Z" fill="white"/>
<path d="M160.44 207.39C161.587 207.392 162.732 207.496 163.86 207.7C164.059 209.116 164.059 210.553 163.86 211.97C162.72 212.431 161.509 212.691 160.28 212.74C160.118 212.762 159.953 212.762 159.79 212.74C159.79 212.53 159.7 212.21 159.63 211.82C159.339 210.417 159.172 208.992 159.13 207.56C159.558 207.454 160 207.413 160.44 207.44V207.39ZM160.44 206.89C159.863 206.814 159.275 206.908 158.75 207.16C158.3 207.72 159.22 212.09 159.31 212.87C159.31 213.13 159.73 213.24 160.31 213.24C161.674 213.213 163.016 212.899 164.25 212.32C164.74 211.85 164.5 208.32 164.34 207.37C164.34 207.17 162.1 206.89 160.47 206.89H160.44Z" fill="black"/>
<path d="M164.61 211.24C164.61 211.24 166.94 214.57 165.27 217.24C165.27 217.24 153.13 217.81 149.47 217.24C149.47 217.24 149.37 212.76 152.47 212.38C154.692 212.143 156.926 212.036 159.16 212.06C159.16 212.06 162.33 213.71 164.61 211.24Z" fill="black"/>
<path d="M187.3 213.39C187.05 213.39 187 213.39 187 213.39C187 213.39 186.95 213.01 186.91 212.69C186.47 209.46 186.35 207.69 186.55 207.39C186.55 207.39 186.73 207.2 187.89 207.2C188.924 207.19 189.955 207.307 190.96 207.55C191.16 208.83 191.26 211.88 190.96 212.19C189.836 212.839 188.59 213.247 187.3 213.39Z" fill="white"/>
<path d="M187.9 207.4C188.854 207.401 189.806 207.498 190.74 207.69C190.938 209.107 190.938 210.544 190.74 211.96C189.676 212.579 188.5 212.98 187.28 213.14H187.21C187.21 213.01 187.21 212.83 187.14 212.61C186.816 210.934 186.675 209.227 186.72 207.52C187.098 207.42 187.49 207.379 187.88 207.4H187.9ZM187.9 206.9C187.374 206.831 186.838 206.929 186.37 207.18C185.92 207.74 186.67 212.58 186.76 213.36C186.76 213.56 186.99 213.64 187.31 213.64C188.661 213.482 189.961 213.032 191.12 212.32C191.6 211.85 191.36 208.32 191.21 207.37C190.147 207.002 189.024 206.843 187.9 206.9Z" fill="black"/>
<path d="M164.44 164.04C163.87 171.18 164.44 185.58 164.96 192.72C164.96 193.2 164.96 209.79 164.96 209.79L158.24 210.43C154.59 199.53 147.61 175.08 147.61 164.22C147.61 153.36 148.55 135.28 152.54 126.69C156.33 118.53 171.29 129.8 173.05 131.8C173.86 132.73 172.33 140.99 170.2 146.46C167.81 152.77 164.78 160.16 164.44 164.04Z" fill="black"/>
<path d="M165.44 192.63C165.05 185.48 163.87 171.14 164.44 164C164.74 160.16 169.44 149.09 171.87 142.75C171.22 140.75 172.03 136.59 170.42 135.51C169.08 134.62 163.85 140.51 163.27 142.28C162.8 143.66 163.66 145.41 163.76 146.79C163.925 149.315 163.345 151.833 162.09 154.03C160.24 157.31 157.97 159.9 156.93 163.61C154.93 170.83 156.53 178.36 158.22 185.47C159.459 189.91 160.306 194.451 160.75 199.04C160.9 201.69 161.27 207.5 160.89 210.11L165.04 209.71C165.489 204.028 165.623 198.326 165.44 192.63Z" fill="black"/>
<path d="M191.71 209.75L185.71 210.39C182.6 200.11 174.29 182.54 173.07 171.75C171.17 155 168.88 137.06 168.78 132.65C168.78 131.94 168.78 131.56 168.78 131.56C172.89 126.56 179.84 124.56 182.94 124.17C184.16 124.02 185.05 124.26 185.44 124.9C186.58 126.782 187.583 128.744 188.44 130.77C193.44 142.63 189.23 149.77 189.32 165.23C189.32 166.12 189.32 167.03 189.32 167.94C189.48 174.31 187.76 182.16 189.59 188.83C193.24 201.89 191.71 209.75 191.71 209.75Z" fill="black"/>
<path d="M190.78 188.4C189.888 181.616 189.417 174.783 189.37 167.94C189.37 167.03 189.37 166.12 189.37 165.23C189.28 149.8 193.48 142.23 188.49 130.4C188.49 128.03 182.88 126.88 182.84 128.32C182.83 130.053 182.977 131.784 183.28 133.49C183.77 136.49 184.41 139.49 183.98 142.49C183.31 147.27 181.76 151.78 181.44 156.65C180.86 165.6 182.91 173.81 185.94 182.13C187.917 187.213 189.26 192.519 189.94 197.93C190.29 201.89 190.43 205.866 190.36 209.84L191.72 209.71C191.72 209.71 193.28 204.82 190.78 188.4Z" fill="black"/>
<path d="M191.44 211.24C191.44 211.24 193.78 214.57 192.11 217.24C192.11 217.24 179.97 217.81 176.3 217.24C176.3 217.24 176.21 212.76 179.35 212.38C182.49 212 186.52 211.83 186.52 211.83C187.267 212.36 188.185 212.593 189.094 212.484C190.003 212.375 190.839 211.932 191.44 211.24Z" fill="black"/>
<path d="M158.73 80.3203C158.73 80.3203 149.55 87.4503 143.73 106.46L158.73 109.85L158.89 91.0403L158.73 80.3203Z" fill="black"/>
<path d="M149.61 131.81C149.79 132.38 156.84 134.81 163.84 135.88C171.84 137.12 184.73 134.02 188.03 133.4C189.39 133.14 190.26 132.78 190.46 132.4C191.1 131.02 188.89 117.62 189.16 108.71C189.21 106.98 189.24 105.23 189.24 103.52C189.24 94.5202 188.66 86.1702 186.64 84.6102C186.18 84.2502 185.64 83.8702 185.05 83.4702C184.46 83.0702 184 82.7702 183.4 82.4702C182.8 82.1702 182.48 81.9402 181.99 81.6902C179.988 80.6269 177.867 79.8077 175.67 79.2502C171.548 78.1619 167.223 78.0967 163.07 79.0602C161.887 79.307 160.724 79.6412 159.59 80.0602C159.31 80.1502 159.03 80.2602 158.74 80.3702C154.74 81.9602 155.35 90.5902 155.99 97.8202C156.313 100.582 156.47 103.36 156.46 106.14C156.416 106.778 156.336 107.412 156.22 108.04C155.32 113.32 150.28 127.94 149.61 131.81Z" fill="#BAE1FD"/>
<path d="M166.95 79.9695C166.795 79.9683 166.641 79.9515 166.49 79.9195C166.455 79.917 166.42 79.9056 166.391 79.8864C166.361 79.8671 166.337 79.8407 166.32 79.8095C166.277 79.3246 166.397 78.8392 166.66 78.4295V78.3695V74.5995L171.08 72.7695V78.1895C170.61 78.5295 168.56 79.9695 166.92 79.9695H166.95Z" fill="white"/>
<path d="M170.86 73.1504V78.0404C170.26 78.4604 168.41 79.7004 166.95 79.7004H166.54C166.546 79.2932 166.664 78.8955 166.88 78.5504L166.94 78.4304V74.7704L170.86 73.1504ZM171.36 72.4004L166.44 74.4004V78.2704C166.44 78.2704 165.52 79.9504 166.44 80.1304C166.608 80.1628 166.779 80.1796 166.95 80.1804C168.95 80.1804 171.36 78.2704 171.36 78.2704V72.4004Z" fill="black"/>
<path d="M166.93 75.2903C166.255 75.2896 165.59 75.1342 164.985 74.836C164.38 74.5378 163.851 74.1048 163.44 73.5703C163.176 73.2725 162.983 72.9193 162.874 72.5369C162.765 72.1544 162.743 71.7523 162.81 71.3603C163.506 69.0533 164.515 66.8527 165.81 64.8203L173.44 66.3903C173.44 67.3903 173.31 71.7303 169.87 74.2503C169.03 74.9099 167.997 75.2753 166.93 75.2903Z" fill="white"/>
<path d="M165.95 65.1L173.17 66.6C173.17 67.82 172.85 71.74 169.71 74.05C168.916 74.6761 167.941 75.0271 166.93 75.05C166.298 75.0463 165.675 74.8985 165.108 74.6177C164.541 74.337 164.046 73.9308 163.66 73.43C163.419 73.1614 163.242 72.8425 163.14 72.4965C163.038 72.1506 163.014 71.7863 163.07 71.43C163.739 69.1993 164.708 67.0699 165.95 65.1ZM165.71 64.54C164.362 66.6379 163.312 68.913 162.59 71.3C162.13 73.05 164.2 75.54 166.93 75.54C168.045 75.5221 169.123 75.1392 170 74.45C174 71.51 173.67 66.19 173.67 66.19L165.67 64.54H165.71Z" fill="black"/>
<path d="M175.96 69.8495C176.58 71.0195 175.22 71.7495 173.9 71.9195C173.842 72.0209 173.771 72.1149 173.69 72.1995C173.69 73.5495 172.69 74.8095 171.36 73.7795C169.41 75.3295 167.03 76.5895 164.24 75.3295C163.627 74.98 163.13 74.4585 162.81 73.8293C162.49 73.2001 162.361 72.4909 162.44 71.7895C162.86 70.5095 164.79 71.9495 165.62 71.1895C165.74 71.0792 165.897 71.018 166.06 71.018C166.223 71.018 166.38 71.0792 166.5 71.1895C166.744 71.61 167.122 71.9368 167.573 72.118C168.024 72.2992 168.523 72.3244 168.99 72.1895C169.617 72.0501 170.209 71.7847 170.73 71.4095C170.998 70.4868 171.333 69.5845 171.73 68.7095C171.81 68.4795 172.09 67.4895 172.35 66.7095C169.22 66.2795 165.1 65.5195 163.8 62.7695C162.65 60.3295 164.61 59.0795 166.71 59.3995C166.964 59.2279 167.251 59.1117 167.553 59.0585C167.855 59.0053 168.164 59.0163 168.462 59.0909C168.759 59.1654 169.037 59.3018 169.278 59.4911C169.519 59.6804 169.717 59.9184 169.86 60.1895C170.6 59.8595 171.48 59.6295 172.06 60.2395C172.174 60.3582 172.262 60.4999 172.317 60.6551C172.372 60.8102 172.394 60.9754 172.38 61.1395C172.651 61.1071 172.924 61.1633 173.16 61.2995C173.535 61.5004 173.836 61.8157 174.02 62.1995C174.97 61.8795 176.02 63.1995 175.75 64.3795C176.098 64.6493 176.33 65.0415 176.398 65.4763C176.467 65.911 176.368 66.3556 176.12 66.7195C176.365 66.9068 176.561 67.151 176.691 67.431C176.821 67.7111 176.88 68.0185 176.865 68.3267C176.849 68.6349 176.758 68.9346 176.601 69.1999C176.443 69.4653 176.223 69.6882 175.96 69.8495Z" fill="black"/>
<path d="M158.68 115.41C158.68 115.41 145.17 116.91 143.68 113.26C142.32 109.85 143.78 105.66 145.53 100.99C146.88 97.3703 158.2 108.29 158.2 108.29L158.68 115.41Z" fill="black"/>
<path d="M165.2 107.86C166.09 108.86 166.01 115.06 167.38 115.17C174.98 115.8 178.71 107.58 179.38 108.34C179.639 109.211 179.791 110.111 179.83 111.02C180.491 114.768 181.369 118.474 182.46 122.12C182.57 122.47 182.69 122.9 182.85 123.28C182.45 124.82 187.61 132.18 188 133.4C189.36 133.14 190.23 132.78 190.43 132.4C191.07 131.02 188.86 117.62 189.13 108.71C189.18 106.98 189.21 105.23 189.21 103.52C189.21 94.5198 188.61 88.3898 187.11 85.1698C186.519 84.4849 185.811 83.9094 185.02 83.4698C184.52 83.1198 183.75 86.0198 183.14 85.6698C178.88 84.3698 176.19 87.7698 172.56 89.9198C168.76 92.1698 160.43 102.36 160.31 102.73C159.44 105.37 163.5 105.94 165.2 107.86Z" fill="black"/>
<path d="M151.5 81.7004L151.32 80.7004L151.61 79.9304L151.44 79.8204C151.315 79.7427 151.2 79.6486 151.1 79.5404C150.662 79.0377 150.433 78.3865 150.46 77.7204C150.398 77.4899 150.388 77.2487 150.429 77.0137C150.471 76.7787 150.563 76.5557 150.7 76.3604C150.769 76.2664 150.868 76.1992 150.98 76.1704L151.47 77.8304L151.44 76.0404C151.44 75.4604 151.8 75.1404 151.95 75.1404L152.28 75.6004L152.44 75.0404C152.493 74.8676 152.596 74.7149 152.737 74.6024C152.878 74.4899 153.05 74.4229 153.23 74.4104C153.32 74.4104 153.56 74.4104 153.64 74.8604L153.89 76.4204L154.13 74.8604C154.161 73.8346 153.981 72.8135 153.6 71.8604C153.565 71.7941 153.547 71.7203 153.547 71.6454C153.547 71.5704 153.565 71.4966 153.6 71.4304C153.616 71.4083 153.637 71.3905 153.662 71.3783C153.686 71.3661 153.713 71.36 153.74 71.3604C153.801 71.3637 153.861 71.3845 153.91 71.4204C154.06 71.5204 154.47 71.9804 154.91 73.9704C155.289 75.4027 155.223 76.9166 154.72 78.3104L154.59 78.6304H154.93C155.037 78.6199 155.144 78.6199 155.25 78.6304H155.46L155.54 78.4304C155.628 78.2051 155.689 77.9701 155.72 77.7304C155.737 77.6643 155.775 77.6061 155.83 77.5659C155.885 77.5257 155.952 77.5061 156.02 77.5104C156.047 77.5076 156.074 77.5104 156.099 77.5187C156.125 77.5269 156.148 77.5405 156.168 77.5584C156.188 77.5764 156.203 77.5983 156.214 77.6227C156.225 77.6472 156.23 77.6736 156.23 77.7004C156.28 77.9402 156.272 78.1883 156.208 78.4245C156.143 78.6608 156.024 78.8786 155.86 79.0604C155.86 79.0604 155.42 79.4004 154.86 79.7804L154.73 79.8804V80.0304C154.73 80.2904 154.84 80.5604 154.85 80.6104C154.86 80.6604 154.64 81.2904 154.46 81.8804L153.34 82.5704L151.5 81.7004Z" fill="white"/>
<path d="M153.75 71.6301C154.24 72.3481 154.546 73.1758 154.64 74.0401C155.011 75.4182 154.951 76.8766 154.47 78.2201L154.2 78.8501L154.89 78.9201C154.986 78.9097 155.083 78.9097 155.18 78.9201L155.59 79.0101L155.75 78.6201C155.838 78.373 155.905 78.1187 155.95 77.8601C155.95 78.4401 155.9 78.7501 155.67 78.9601C155.62 78.9601 155.23 79.3001 154.67 79.6801L154.41 79.8701L154.47 80.1801C154.47 80.4301 154.55 80.5701 154.57 80.6601C154.59 80.7501 154.38 81.3501 154.24 81.8201L153.32 82.3801L151.66 81.5401L151.52 80.6801L151.71 80.1701L151.86 79.7901L151.51 79.5701C151.403 79.5032 151.305 79.4225 151.22 79.3301C150.85 78.9101 150.77 78.6601 150.64 77.6301C150.566 77.2937 150.604 76.9423 150.75 76.6301L151.59 79.5101V76.0401C151.584 75.8306 151.652 75.6258 151.78 75.4601L152.33 76.2101L152.56 75.1101C152.603 74.9948 152.677 74.8936 152.774 74.8178C152.871 74.7419 152.987 74.6943 153.11 74.6801C153.11 74.6801 153.23 74.6801 153.27 74.9201L153.77 78.0401L154.26 74.9101C154.3 73.8428 154.113 72.7791 153.71 71.7901C153.712 71.7535 153.712 71.7167 153.71 71.6801L153.75 71.6301ZM153.69 71.0801C153.35 71.0801 153.12 71.4601 153.32 71.9301C153.686 72.8378 153.86 73.8117 153.83 74.7901C153.76 74.3101 153.49 74.1301 153.18 74.1301C152.95 74.1507 152.732 74.24 152.554 74.3862C152.375 74.5324 152.245 74.7289 152.18 74.9501C152.154 74.9162 152.121 74.8887 152.082 74.8696C152.044 74.8506 152.002 74.8405 151.96 74.8401C151.64 74.8401 151.2 75.3001 151.2 75.9901C151.188 75.9523 151.164 75.9196 151.131 75.8978C151.098 75.8759 151.059 75.8661 151.02 75.8701C150.68 75.8701 150.02 76.4801 150.25 77.7001C150.224 78.4309 150.474 79.1446 150.95 79.7001C151.064 79.8315 151.199 79.943 151.35 80.0301L151.11 80.6701L151.31 81.9201L153.44 82.9401L154.75 82.1301C154.915 81.6308 155.055 81.1235 155.17 80.6101C155.17 80.6101 155.1 80.3101 155.05 80.0701C155.6 79.6801 156.05 79.3601 156.05 79.3301C156.242 79.1254 156.382 78.8784 156.461 78.609C156.539 78.3396 156.552 78.0556 156.5 77.7801C156.5 77.721 156.488 77.6625 156.464 77.6083C156.441 77.5541 156.407 77.5052 156.363 77.4649C156.32 77.4246 156.269 77.3935 156.214 77.3738C156.158 77.354 156.099 77.346 156.04 77.3501C155.913 77.3454 155.789 77.3862 155.69 77.4651C155.591 77.544 155.524 77.6557 155.5 77.7801C155.461 78.001 155.404 78.2183 155.33 78.4301H154.97C155.5 76.9869 155.57 75.4146 155.17 73.9301C155.01 73.2401 154.59 71.6101 154.04 71.2301C153.948 71.1683 153.84 71.1337 153.73 71.1301L153.69 71.0801Z" fill="black"/>
<path d="M156.59 115.28C146.29 112.95 150.44 80.5098 150.44 80.5098L155.44 80.9398C155.73 81.1898 158.44 105.1 161.2 104.19C162.4 103.8 171.03 88.5098 176.29 85.1898C178.543 83.7973 181.165 83.1208 183.81 83.2498C186.81 83.2498 188.32 86.2498 187.81 89.2498C186.81 95.2498 182.36 103.82 176.47 109.95C170.03 116.64 165.44 117.3 156.59 115.28Z" fill="#BAE1FD"/>
<path d="M162.72 116.49C162.516 116.485 162.321 116.407 162.17 116.27V115.72L161.79 116.12C161.671 116.273 161.5 116.376 161.31 116.41C161.1 116.41 160.99 116.18 160.86 115.9L160.74 115.4L160.42 115.8C160.316 115.97 160.178 116.115 160.014 116.227C159.851 116.339 159.665 116.415 159.47 116.45C159.404 116.464 159.336 116.464 159.27 116.45C159.14 116.45 158.81 116.28 158.95 115.45L159.11 114.6L158.53 115.23C158.387 115.378 158.233 115.515 158.07 115.64C157.98 115.706 157.872 115.744 157.76 115.75C157.41 115.75 157.15 115.31 157.12 114.91C157.24 114.277 157.496 113.676 157.87 113.15L157.96 113.02C158.138 112.684 158.391 112.393 158.7 112.17C158.76 112.159 158.821 112.159 158.88 112.17C159.09 112.17 159.26 112.56 159.32 113.17L159.4 114.17L159.8 113.26C159.98 112.84 160.17 112.64 160.38 112.64C160.494 112.645 160.604 112.68 160.7 112.74C160.863 112.837 160.999 112.973 161.097 113.135C161.194 113.297 161.251 113.481 161.26 113.67L161.32 114.37L161.71 113.78C161.844 113.574 162.021 113.4 162.23 113.27C162.286 113.259 162.344 113.259 162.4 113.27C162.62 113.27 162.82 113.69 162.86 114.06C162.894 114.262 162.894 114.469 162.86 114.67L162.73 115.2L163.22 114.95C163.48 114.95 163.63 115.34 163.65 115.6C163.656 115.732 163.636 115.863 163.592 115.986C163.547 116.11 163.479 116.223 163.39 116.32C163.314 116.408 163.221 116.478 163.115 116.527C163.01 116.575 162.896 116.6 162.78 116.6L162.72 116.49Z" fill="white"/>
<path d="M158.83 112.38C158.964 112.615 159.036 112.879 159.04 113.15L159.13 114.15L158.31 115.04C158.184 115.174 158.047 115.298 157.9 115.41C157.85 115.447 157.792 115.472 157.73 115.48C157.57 115.48 157.36 115.19 157.34 114.88C157.47 114.302 157.711 113.755 158.05 113.27L158.14 113.13C158.299 112.836 158.517 112.577 158.78 112.37L158.83 112.38ZM160.35 112.83C160.419 112.833 160.485 112.858 160.54 112.9C160.671 112.972 160.781 113.077 160.858 113.206C160.935 113.334 160.977 113.48 160.98 113.63L161.11 115.03L161.89 113.86C161.996 113.683 162.143 113.536 162.32 113.43C162.454 113.591 162.535 113.79 162.55 114C162.574 114.172 162.574 114.347 162.55 114.52L162.36 115.19L161.58 115.96C161.36 116.18 161.28 116.18 161.28 116.18C161.28 116.18 161.14 115.98 161.08 115.85L160.82 114.85L160.21 115.64C159.93 115.99 159.66 116.19 159.45 116.19H159.33C159.25 116.19 159.07 116.09 159.18 115.51L159.27 115.02L160.01 113.31C160.16 112.96 160.29 112.84 160.36 112.84L160.35 112.83ZM163.19 115.08C163.276 115.208 163.328 115.356 163.34 115.51C163.345 115.606 163.331 115.703 163.299 115.794C163.266 115.885 163.216 115.969 163.15 116.04C163.096 116.101 163.029 116.15 162.955 116.184C162.882 116.218 162.801 116.237 162.72 116.24C162.616 116.239 162.515 116.208 162.43 116.15V115.49L163.23 115.08H163.19ZM158.85 111.88C158.749 111.882 158.65 111.906 158.56 111.95C158.168 112.231 157.852 112.606 157.64 113.04C157.226 113.604 156.952 114.259 156.84 114.95C156.84 115.47 157.24 116.02 157.73 116.02C157.893 116.013 158.05 115.958 158.18 115.86C158.361 115.73 158.528 115.583 158.68 115.42C158.58 115.97 158.68 116.42 159.15 116.66C159.246 116.674 159.344 116.674 159.44 116.66C159.675 116.626 159.899 116.541 160.098 116.412C160.296 116.282 160.464 116.111 160.59 115.91C160.71 116.18 160.87 116.54 161.21 116.58H161.27C161.53 116.548 161.767 116.415 161.93 116.21C161.928 116.243 161.933 116.276 161.945 116.307C161.957 116.339 161.976 116.367 162 116.39C162.198 116.559 162.449 116.654 162.71 116.66C162.868 116.655 163.023 116.618 163.166 116.551C163.309 116.484 163.436 116.389 163.541 116.271C163.646 116.153 163.726 116.015 163.775 115.865C163.825 115.715 163.844 115.557 163.83 115.4C163.83 115.07 163.61 114.49 163.2 114.49C163.154 114.481 163.106 114.481 163.06 114.49C163.1 114.258 163.1 114.021 163.06 113.79C163.06 113.38 162.78 112.79 162.35 112.79C162.248 112.794 162.149 112.821 162.06 112.87C161.816 113.016 161.61 113.218 161.46 113.46C161.447 113.233 161.378 113.013 161.259 112.82C161.14 112.626 160.976 112.465 160.78 112.35C160.645 112.264 160.49 112.215 160.33 112.21C159.95 112.21 159.7 112.57 159.52 112.99C159.52 112.47 159.31 111.76 158.83 111.76L158.85 111.88Z" fill="black"/>
<g opacity="0.3">
<path d="M58.4401 184.57C58.5212 184.27 58.5616 183.961 58.5601 183.65C58.5601 182.669 58.1703 181.728 57.4764 181.034C56.7825 180.34 55.8414 179.95 54.8601 179.95H37.8601V181.66L42.0101 181.24H54.7501C55.6638 181.255 56.541 181.601 57.2194 182.213C57.8978 182.826 58.3315 183.663 58.4401 184.57Z" fill="black"/>
</g>
</svg>
