<svg width="116" height="116" viewBox="0 0 116 116" fill="none" xmlns="http://www.w3.org/2000/svg">
<rect y="16.3125" width="116" height="83.375" rx="4" fill="#50D9D7"/>
<rect x="3.625" y="19.9375" width="101.5" height="76.125" rx="2" fill="white"/>
<circle cx="110.562" cy="58" r="3.625" fill="#93E6E5"/>
<path d="M23.5625 76.125C23.5625 72.1209 20.3166 68.875 16.3125 68.875C12.3084 68.875 9.0625 72.1209 9.0625 76.125C9.0625 80.1306 16.3125 90.625 16.3125 90.625C16.3125 90.625 23.5625 80.1306 23.5625 76.125Z" fill="#FFAC00"/>
<circle cx="16.3125" cy="76.125" r="3.625" fill="#F3F3F3"/>
<path d="M81.5625 48.9375V27.1875C81.5625 26.1865 82.374 25.375 83.375 25.375C84.376 25.375 85.1875 26.1865 85.1875 27.1875V48.9375C85.1875 49.9385 84.376 50.75 83.375 50.75C82.374 50.75 81.5625 49.9385 81.5625 48.9375Z" fill="#FFAC00"/>
<path d="M83.375 39.875H99.6875L96.0625 34.4375L99.6875 29H83.375V39.875Z" fill="#FFAC00"/>
<path d="M27.1875 79.3694L28.1662 74.8744C33.1635 52.375 53.0775 36.337 76.125 36.25C77.126 36.25 77.9375 37.0615 77.9375 38.0625C77.9375 39.0635 77.126 39.875 76.125 39.875C54.7981 39.9691 36.3775 54.8155 31.755 75.6356L30.8125 80.1306C30.6023 81.1316 29.6204 81.7727 28.6194 81.5625C27.6184 81.3523 26.9773 80.3704 27.1875 79.3694Z" fill="#FFAC00"/>
<path d="M72.5 43.4996C71.7636 43.5039 71.0979 43.0622 70.8155 42.3822C70.5331 41.7021 70.6903 40.9188 71.2131 40.4002L73.5694 38.0621L71.2131 35.724C70.5024 35.0133 70.5024 33.8609 71.2131 33.1502C71.9238 32.4395 73.0761 32.4395 73.7868 33.1502L77.4118 36.7752C77.755 37.1156 77.948 37.5788 77.948 38.0621C77.948 38.5454 77.755 39.0087 77.4118 39.349C73.4606 43.3002 73.4787 43.4996 72.5 43.4996Z" fill="#FFAC00"/>
<path fill-rule="evenodd" clip-rule="evenodd" d="M85.1875 83.375C85.1875 87.3791 88.4334 90.625 92.4375 90.625C96.4416 90.625 99.6875 87.3791 99.6875 83.375C99.6875 79.3709 96.4416 76.125 92.4375 76.125C88.4334 76.125 85.1875 79.3709 85.1875 83.375ZM88.8125 83.375C88.8125 81.373 90.4355 79.75 92.4375 79.75C94.4395 79.75 96.0625 81.373 96.0625 83.375C96.0625 85.377 94.4395 87 92.4375 87C90.4355 87 88.8125 85.377 88.8125 83.375Z" fill="#075085"/>
<path fill-rule="evenodd" clip-rule="evenodd" d="M67.0625 83.375C67.0625 87.3791 70.3084 90.625 74.3125 90.625C78.3166 90.625 81.5625 87.3791 81.5625 83.375C81.5625 79.3709 78.3166 76.125 74.3125 76.125C70.3084 76.125 67.0625 79.3709 67.0625 83.375ZM70.6875 83.375C70.6875 81.373 72.3105 79.75 74.3125 79.75C76.3145 79.75 77.9375 81.373 77.9375 83.375C77.9375 85.377 76.3145 87 74.3125 87C72.3105 87 70.6875 85.377 70.6875 83.375Z" fill="#075085"/>
<path fill-rule="evenodd" clip-rule="evenodd" d="M9.0625 32.625C9.0625 36.6291 12.3084 39.875 16.3125 39.875C20.3166 39.875 23.5625 36.6291 23.5625 32.625C23.5625 28.6209 20.3166 25.375 16.3125 25.375C12.3084 25.375 9.0625 28.6209 9.0625 32.625ZM12.6875 32.625C12.6875 30.623 14.3105 29 16.3125 29C18.3145 29 19.9375 30.623 19.9375 32.625C19.9375 34.627 18.3145 36.25 16.3125 36.25C14.3105 36.25 12.6875 34.627 12.6875 32.625Z" fill="#075085"/>
<path d="M54.375 27.1875H43.5C42.499 27.1875 41.6875 26.376 41.6875 25.375C41.6875 24.374 42.499 23.5625 43.5 23.5625H54.375C55.376 23.5625 56.1875 24.374 56.1875 25.375C56.1875 26.376 55.376 27.1875 54.375 27.1875Z" fill="#D9D9D9"/>
<path d="M47.125 34.4375H43.5C42.499 34.4375 41.6875 33.626 41.6875 32.625C41.6875 31.624 42.499 30.8125 43.5 30.8125H47.125C48.126 30.8125 48.9375 31.624 48.9375 32.625C48.9375 33.626 48.126 34.4375 47.125 34.4375Z" fill="#D9D9D9"/>
<path d="M54.375 81.5625H43.5C42.499 81.5625 41.6875 80.751 41.6875 79.75C41.6875 78.749 42.499 77.9375 43.5 77.9375H54.375C55.376 77.9375 56.1875 78.749 56.1875 79.75C56.1875 80.751 55.376 81.5625 54.375 81.5625Z" fill="#D9D9D9"/>
<path d="M47.125 88.8125H43.5C42.499 88.8125 41.6875 88.001 41.6875 87C41.6875 85.999 42.499 85.1875 43.5 85.1875H47.125C48.126 85.1875 48.9375 85.999 48.9375 87C48.9375 88.001 48.126 88.8125 47.125 88.8125Z" fill="#D9D9D9"/>
</svg>
