<svg width="116" height="116" viewBox="0 0 116 116" fill="none" xmlns="http://www.w3.org/2000/svg">
<circle cx="31.2309" cy="55.3227" r="17.8462" fill="#414267"/>
<circle cx="31.2308" cy="55.3224" r="12.4923" fill="#414267"/>
<circle cx="82.9846" cy="58.8923" r="10.7077" fill="#BAE1FD"/>
<path d="M88.3385 43.0264V39.0646C88.3385 38.17 87.9832 37.3121 87.3506 36.6796C86.7181 36.047 85.8602 35.6916 84.9656 35.6916C83.5151 35.6955 82.2264 34.7667 81.7712 33.3895C81.3632 32.1118 80.8498 30.8702 80.2364 29.6775C79.5735 28.3804 79.8182 26.8042 80.8432 25.7692C82.159 24.4465 82.159 22.3092 80.8432 20.9864L78.0592 18.2024C76.7364 16.8866 74.5991 16.8866 73.2764 18.2024C72.2467 19.238 70.6633 19.4839 69.3681 18.8092C68.1754 18.1958 66.9338 17.6824 65.6561 17.2744C64.2823 16.8145 63.3556 15.5287 63.3539 14.08C63.3539 13.1854 62.9986 12.3275 62.366 11.6949C61.7335 11.0624 60.8756 10.707 59.981 10.707H56.0192C54.1563 10.707 52.6462 12.2171 52.6462 14.08C52.6501 15.5305 51.7213 16.8192 50.3441 17.2744C49.0664 17.6824 47.8248 18.1958 46.6321 18.8092C45.335 19.4721 43.7588 19.2274 42.7238 18.2024C41.401 16.8866 39.2637 16.8866 37.941 18.2024L35.157 20.9864C33.8411 22.3092 33.8411 24.4465 35.157 25.7692C36.1926 26.7989 36.4385 28.3823 35.7638 29.6775C35.1504 30.8702 34.637 32.1118 34.229 33.3895C33.7691 34.7633 32.4833 35.6899 31.0345 35.6916C30.14 35.6916 29.2821 36.047 28.6495 36.6796C28.017 37.3121 27.6616 38.17 27.6616 39.0646V43.0264C27.6616 44.8892 29.1717 46.3993 31.0345 46.3993C32.4851 46.3955 33.7738 47.3242 34.229 48.7015C34.637 49.9792 35.1504 51.2208 35.7638 52.4135C36.4267 53.7106 36.182 55.2867 35.157 56.3218C33.8411 57.6445 33.8411 59.7818 35.157 61.1046L37.941 63.8886C39.2637 65.2044 41.401 65.2044 42.7238 63.8886C43.7535 62.853 45.3369 62.6071 46.6321 63.2818C47.8248 63.8952 49.0664 64.4086 50.3441 64.8166C51.7179 65.2765 52.6445 66.5623 52.6462 68.011C52.6462 69.8738 54.1563 71.384 56.0192 71.384H59.981C60.8756 71.384 61.7335 71.0286 62.366 70.396C62.9986 69.7635 63.3539 68.9056 63.3539 68.011C63.3501 66.5605 64.2788 65.2718 65.6561 64.8166C66.9338 64.4086 68.1754 63.8952 69.3681 63.2818C70.6652 62.6189 72.2413 62.8636 73.2764 63.8886C74.5991 65.2044 76.7364 65.2044 78.0592 63.8886L80.8432 61.1046C82.159 59.7818 82.159 57.6445 80.8432 56.3218C79.8075 55.2921 79.5617 53.7087 80.2364 52.4135C80.8498 51.2208 81.3632 49.9792 81.7712 48.7015C82.2311 47.3277 83.5169 46.4011 84.9656 46.3993C86.8284 46.3993 88.3385 44.8892 88.3385 43.0264Z" fill="#BAE1FD"/>
<circle cx="58" cy="41.0454" r="17.8462" fill="#BAE1FD"/>
<path d="M113.787 20.1302C110.944 21.7094 108.926 24.4438 108.255 27.6256L108.005 28.8213C108.005 29.8069 107.206 30.6059 106.22 30.6059C105.235 30.6059 104.436 29.8069 104.436 28.8213L104.186 27.6256C103.515 24.4438 101.496 21.7094 98.6537 20.1302C97.8395 19.6576 97.3384 18.7874 97.3384 17.8459C97.3384 16.9045 97.8395 16.0342 98.6537 15.5616C101.496 13.9825 103.515 11.2481 104.186 8.06625L104.4 6.87055C104.4 5.88494 105.199 5.08594 106.185 5.08594C107.17 5.08594 107.969 5.88494 107.969 6.87055L108.219 8.06625C108.891 11.2481 110.909 13.9825 113.752 15.5616C114.569 16.0278 115.077 16.8942 115.085 17.8357C115.092 18.7771 114.598 19.6513 113.787 20.1302Z" fill="#BAE1FD"/>
<path d="M17.4179 16.5609C14.5752 18.1401 12.5569 20.8744 11.8856 24.0563L11.6001 25.252C11.6001 26.2376 10.8011 27.0366 9.81544 27.0366C8.82982 27.0366 8.03082 26.2376 8.03082 25.252L7.78098 24.0563C7.10963 20.8744 5.09141 18.1401 2.24867 16.5609C1.43446 16.0883 0.93335 15.218 0.93335 14.2766C0.93335 13.3352 1.43446 12.4649 2.24867 11.9923C5.09141 10.4131 7.10963 7.67877 7.78098 4.49691L8.03082 3.30122C8.03082 2.3156 8.82982 1.5166 9.81544 1.5166C10.8011 1.5166 11.6001 2.3156 11.6001 3.30122L11.8499 4.49691C12.5213 7.67877 14.5395 10.4131 17.3822 11.9923C18.2002 12.4585 18.7081 13.3249 18.7155 14.2663C18.7228 15.2078 18.2285 16.082 17.4179 16.5609Z" fill="#BAE1FD"/>
<path d="M50.8617 48.1846C50.3873 48.1874 49.9314 48.0011 49.5946 47.6671L44.2408 42.3132C43.9029 41.9781 43.7129 41.522 43.7129 41.0462C43.7129 40.5703 43.9029 40.1142 44.2408 39.7791L49.5946 34.4252C50.2944 33.7254 51.429 33.7254 52.1288 34.4252C52.8286 35.125 52.8286 36.2596 52.1288 36.9594L48.0242 41.0462L52.1288 45.1329C52.6436 45.6435 52.7983 46.4148 52.5203 47.0844C52.2422 47.754 51.5867 48.1888 50.8617 48.1846Z" fill="#F3F3F3"/>
<path d="M65.1386 48.1846C64.4135 48.1888 63.758 47.754 63.48 47.0844C63.202 46.4148 63.3567 45.6435 63.8715 45.1329L67.9761 41.0462L63.8715 36.9594C63.1717 36.2596 63.1717 35.125 63.8715 34.4252C64.5713 33.7254 65.7058 33.7254 66.4056 34.4252L71.7595 39.7791C72.0973 40.1142 72.2874 40.5703 72.2874 41.0462C72.2874 41.522 72.0973 41.9781 71.7595 42.3132L66.4056 47.6671C66.0688 48.0011 65.6129 48.1874 65.1386 48.1846Z" fill="#F3F3F3"/>
<path d="M56.2154 49.9689C55.6576 49.9853 55.1242 49.7397 54.7739 49.3053C54.4236 48.8709 54.2966 48.2977 54.4308 47.756L58 33.479C58.2662 32.558 59.2125 32.0118 60.1431 32.2421C61.0738 32.4723 61.6562 33.3968 61.4622 34.3356L57.8929 48.6126C57.7012 49.3897 57.0155 49.9442 56.2154 49.9689Z" fill="#F3F3F3"/>
<path d="M11.6001 55.3223H58.0001V115.999H15.1693C13.1981 115.999 11.6001 114.401 11.6001 112.43V55.3223Z" fill="#414267"/>
<path d="M58 55.3223H104.4V112.43C104.4 114.401 102.802 115.999 100.831 115.999H58V55.3223Z" fill="#D3D8EA"/>
<path d="M11.6001 55.3223L3.40868 64.87C2.95587 65.3994 2.85249 66.1438 3.14393 66.7766C3.43537 67.4093 4.06835 67.8146 4.76498 67.8146H42.5453C44.4391 67.8161 46.2559 67.065 47.5958 65.7266L58.0001 55.3223H11.6001Z" fill="#D3D8EA"/>
<path d="M104.4 55.3223L112.591 64.87C113.044 65.3994 113.148 66.1438 112.856 66.7766C112.565 67.4093 111.932 67.8146 111.235 67.8146H73.4548C71.561 67.8161 69.7442 67.065 68.4043 65.7266L58 55.3223H104.4Z" fill="#414267"/>
<rect x="16.9539" y="103.508" width="14.2769" height="7.13846" rx="1" fill="#F3F3F3"/>
<circle cx="66.9232" cy="107.077" r="3.56923" fill="#F3F3F3"/>
<circle cx="79.4154" cy="107.077" r="3.56923" fill="#F3F3F3"/>
</svg>
