<svg width="117" height="116" viewBox="0 0 117 116" fill="none" xmlns="http://www.w3.org/2000/svg">
<path d="M112.875 34.4375V105.125H4.125V34.4375C4.125 31.4345 6.55945 29 9.5625 29H107.438C110.441 29 112.875 31.4345 112.875 34.4375Z" fill="#50D9D7"/>
<path d="M2.3125 105.125H114.688C115.689 105.125 116.5 105.936 116.5 106.938V110.562C116.5 113.566 114.066 116 111.062 116H5.9375C2.93445 116 0.5 113.566 0.5 110.562V106.938C0.5 105.936 1.31148 105.125 2.3125 105.125Z" fill="#00AAA8"/>
<path d="M109.25 34.4375V101.5H7.75V34.4375C7.75 33.4365 8.56148 32.625 9.5625 32.625H107.438C108.439 32.625 109.25 33.4365 109.25 34.4375Z" fill="white"/>
<path d="M71.1875 108.75H45.8125C43.8104 108.75 42.1875 107.128 42.1875 105.125C42.1875 104.944 40.665 105.125 74.8125 105.125C74.8125 107.128 73.1895 108.75 71.1875 108.75Z" fill="#F3F3F3"/>
<path d="M80.25 29C79.7293 30.2681 79.0858 31.4822 78.3288 32.625H38.6712C37.9142 31.4822 37.2707 30.2681 36.75 29L80.25 29Z" fill="#00BEBD"/>
<path d="M78.3289 32.625C73.9949 39.3767 66.5232 43.4591 58.5001 43.4591C50.4771 43.4591 43.0054 39.3767 38.6714 32.625H78.3289Z" fill="#F3F3F3"/>
<circle cx="58.5" cy="19.9375" r="19.9375" fill="#1D1D2C"/>
<path d="M59.4061 18.125H57.5936C56.0921 18.125 54.8748 16.9078 54.8748 15.4062C54.8748 13.9047 56.0921 12.6875 57.5936 12.6875H63.9373C64.9383 12.6875 65.7498 11.876 65.7498 10.875C65.7498 9.87398 64.9383 9.0625 63.9373 9.0625H60.3123V7.25C60.3123 6.24898 59.5008 5.4375 58.4998 5.4375C57.4988 5.4375 56.6873 6.24898 56.6873 7.25V9.0625C53.1838 9.31275 50.5465 12.3558 50.7967 15.8594C51.047 19.3629 54.09 22.0003 57.5936 21.75H59.4061C60.9076 21.75 62.1248 22.9672 62.1248 24.4688C62.1248 25.9703 60.9076 27.1875 59.4061 27.1875H53.0623C52.0613 27.1875 51.2498 27.999 51.2498 29C51.2498 30.001 52.0613 30.8125 53.0623 30.8125H56.6873V32.625C56.6873 33.626 57.4988 34.4375 58.4998 34.4375C59.5008 34.4375 60.3123 33.626 60.3123 32.625V30.8125C63.8159 30.5622 66.4532 27.5192 66.203 24.0156C65.9527 20.5121 62.9096 17.8747 59.4061 18.125Z" fill="#FDFDFD"/>
<path fill-rule="evenodd" clip-rule="evenodd" d="M74.8125 62.3688V94.2507H82.0625C83.0635 94.2507 83.875 95.0622 83.875 96.0632C83.875 97.0642 83.0635 97.8757 82.0625 97.8757H13.1875C12.1865 97.8757 11.375 97.0642 11.375 96.0632V54.3757C11.375 53.3747 12.1865 52.5632 13.1875 52.5632C14.1885 52.5632 15 53.3747 15 54.3757V76.2344C17.1565 74.6941 18.8517 73.4756 20.1925 72.5118L20.1925 72.5118C25.0045 69.0531 25.2513 68.8757 25.875 68.8757C26.476 68.8757 26.6447 68.9889 30.8878 71.8372L30.8888 71.8379L30.8902 71.8388L30.8905 71.839L30.8914 71.8396C32.2784 72.7707 34.1003 73.9937 36.5144 75.6001C38.9821 73.1211 40.9423 71.1281 42.513 69.5312L42.5131 69.5312C48.5678 63.3753 48.8342 63.1045 50.0719 63.5651L50.0907 63.5726L50.1188 63.5838L50.1462 63.595C50.4492 63.7221 50.7131 63.9425 55.41 67.8652L55.4101 67.8653C56.6638 68.9123 58.2333 70.2231 60.2038 71.8663L75.8819 56.1882H74.8125C73.8115 56.1882 73 55.3767 73 54.3757C73 53.3747 73.8115 52.5632 74.8125 52.5632C75.7247 52.5632 76.524 52.5512 77.2244 52.5408C79.7231 52.5035 80.9608 52.485 81.563 53.0945C82.1541 53.6928 82.1327 54.8962 82.0903 57.2809V57.2813V57.2817V57.2822C82.0774 58.0103 82.0625 58.8485 82.0625 59.8132C82.0625 60.8142 81.251 61.6257 80.25 61.6257C79.249 61.6257 78.4375 60.8142 78.4375 59.8132V58.7438L74.8125 62.3688ZM62.125 94.2507H71.1875V65.9938L62.125 75.0563V94.2507ZM51.25 69.1294L58.5 75.1651V94.2507H51.25V69.1294ZM24.0625 74.2044L15 80.6751V94.2507H24.0625V74.2044ZM27.6875 94.2507V74.0776L34.9375 78.9169V94.2507H27.6875ZM47.625 69.6188L38.5625 78.6813V94.2507H47.625V69.6188Z" fill="#D9D9D9"/>
<rect x="20.4375" y="45.3125" width="25.375" height="3.625" fill="#D9D9D9"/>
<rect x="87.5" y="67.0625" width="18.125" height="3.625" fill="#D9D9D9"/>
<rect x="87.5" y="74.3125" width="18.125" height="3.625" fill="#D9D9D9"/>
<rect x="94.75" y="81.5625" width="10.875" height="3.625" fill="#D9D9D9"/>
<rect x="20.4375" y="52.5625" width="9.0625" height="3.625" fill="#D9D9D9"/>
</svg>
