<svg width="225" height="197" viewBox="0 0 225 197" fill="none" xmlns="http://www.w3.org/2000/svg">
<path d="M216.61 195.199H9.46997V196.639H216.61V195.199Z" fill="#1D1D2C"/>
<path d="M88.0001 66.0992L95.4501 59.8392L91.9101 54.8392C93.6528 52.5667 94.9799 50.0039 95.8301 47.2692H102L102.84 37.5792L96.7701 36.5792C96.3988 33.7358 95.5288 30.9803 94.2001 28.4392L98.5501 24.0792L92.2901 16.6392L87.2901 20.1792C85.0168 18.4352 82.4544 17.105 79.7201 16.2492V9.99918L70.0301 9.15918L69.0301 15.2292C66.1877 15.6051 63.433 16.4749 60.8901 17.7992L56.4001 13.4492L49.0001 19.7192L52.5401 24.7192C50.8017 26.9996 49.472 29.5643 48.6101 32.2992H42.4001L41.5701 41.9792L47.6301 43.0392C48.0108 45.8773 48.8803 48.628 50.2001 51.1692L45.8501 55.5292L52.1201 62.9792L57.1201 59.4392C59.3985 61.1783 61.9639 62.505 64.7001 63.3592V69.5192L74.3801 70.3592L75.4401 64.2892C78.2895 63.9165 81.0514 63.0466 83.6001 61.7192L88.0001 66.0992ZM58.7801 51.0992C56.5437 48.4419 55.1455 45.181 54.7624 41.729C54.3793 38.2771 55.0285 34.789 56.6278 31.706C58.2271 28.623 60.7048 26.0835 63.7475 24.4087C66.7901 22.7338 70.2611 21.9989 73.7215 22.2968C77.1819 22.5948 80.4762 23.9121 83.1878 26.0824C85.8994 28.2526 87.9066 31.1783 88.9554 34.4893C90.0043 37.8003 90.0477 41.348 89.0802 44.6837C88.1127 48.0193 86.1778 50.9932 83.5201 53.2292C81.7534 54.7186 79.7101 55.8446 77.5074 56.5428C75.3047 57.241 72.9859 57.4976 70.6838 57.2978C68.3817 57.0981 66.1417 56.446 64.0922 55.3789C62.0426 54.3117 60.2238 52.8506 58.7401 51.0792L58.7801 51.0992Z" fill="#BAE1FD"/>
<path d="M33.9001 32.1098L37.5101 29.1098L35.7901 26.6198C36.6399 25.516 37.2866 24.27 37.7001 22.9398H40.7001L41.1001 18.2298L38.1501 17.7198C37.9713 16.3234 37.5482 14.9695 36.9001 13.7198L39.0001 11.7198L36.0001 8.09976L33.5601 9.81977C32.4527 8.97577 31.2077 8.32959 29.8801 7.90977V4.90977L25.1801 4.50977L24.6701 7.44977C23.2905 7.63226 21.9536 8.05534 20.7201 8.69977L18.6001 6.58977L14.9901 9.58977L16.7101 12.0298C15.8506 13.1356 15.1938 14.3849 14.7701 15.7198H11.7701L11.3601 20.4198L14.3601 20.9398C14.5395 22.3201 14.9628 23.6575 15.6101 24.8898L13.4901 26.9998L16.4901 30.6098L18.9401 28.8998C20.0455 29.7446 21.2913 30.3878 22.6201 30.7998V33.7998L27.3201 34.2098L27.8301 31.2598C29.2276 31.0862 30.5825 30.6628 31.8301 30.0098L33.9001 32.1098ZM19.7101 24.8098C18.6205 23.5237 17.9369 21.9434 17.7457 20.2687C17.5545 18.594 17.8644 16.9003 18.636 15.4018C19.4077 13.9032 20.6065 12.6672 22.0808 11.8502C23.555 11.0331 25.2386 10.6717 26.9183 10.8117C28.598 10.9517 30.1985 11.5868 31.5172 12.6366C32.8359 13.6864 33.8136 15.1037 34.3266 16.7093C34.8396 18.3149 34.8648 20.0366 34.399 21.6565C33.9333 23.2764 32.9975 24.7218 31.7101 25.8098C29.9845 27.2646 27.7527 27.9762 25.5035 27.7887C23.2543 27.6013 21.1711 26.5301 19.7101 24.8098Z" fill="#1D1D2C"/>
<path d="M109.33 121.72H84.98V190.14H109.33V121.72Z" fill="#414267"/>
<path d="M109.33 152.59H84.98V164.02H109.33V152.59Z" fill="#1D1D2C"/>
<path d="M59.74 195.199C63.5 190.649 80.64 187.079 101.53 187.079C122.42 187.079 139.53 190.649 139.47 195.199H59.74Z" fill="#1D1D2C"/>
<path d="M186.06 53.92V149.54C186.061 150.843 185.806 152.134 185.308 153.338C184.81 154.542 184.079 155.636 183.157 156.557C182.236 157.479 181.142 158.21 179.938 158.708C178.734 159.206 177.443 159.461 176.14 159.46H9.92005C7.2891 159.46 4.76591 158.415 2.90555 156.555C1.04519 154.694 4.56432e-05 152.171 4.56432e-05 149.54V53.92C-0.00391537 52.6162 0.249969 51.3245 0.747093 50.1191C1.24422 48.9138 1.97477 47.8187 2.89671 46.8967C3.81866 45.9748 4.91381 45.2442 6.11914 44.7471C7.32448 44.25 8.61622 43.9961 9.92005 44H176.14H176.73C179.256 44.1457 181.63 45.2527 183.365 47.0937C185.1 48.9348 186.064 51.3702 186.06 53.9V53.92Z" fill="#1D1D2C"/>
<path d="M192.33 53.92V149.54C192.327 152.173 191.28 154.697 189.419 156.559C187.557 158.42 185.033 159.467 182.4 159.47H16C13.3969 159.428 10.9146 158.364 9.0887 156.509C7.2628 154.653 6.23965 152.153 6.23999 149.55V53.92C6.23999 51.2891 7.28513 48.7659 9.14549 46.9055C11.0059 45.0451 13.529 44 16.16 44H182.4H183.13C185.633 44.1845 187.974 45.3103 189.681 47.1508C191.388 48.9912 192.334 51.4099 192.33 53.92Z" fill="#414267"/>
<path d="M176.51 49.8398H22.07C17.2154 49.8398 13.28 53.7753 13.28 58.6298V144.84C13.28 149.694 17.2154 153.63 22.07 153.63H176.51C181.365 153.63 185.3 149.694 185.3 144.84V58.6298C185.3 53.7753 181.365 49.8398 176.51 49.8398Z" fill="white"/>
<path d="M176.51 50.0898C178.774 50.0925 180.945 50.9931 182.546 52.5941C184.147 54.1951 185.047 56.3657 185.05 58.6298V144.83C185.047 147.094 184.147 149.265 182.546 150.866C180.945 152.467 178.774 153.367 176.51 153.37H22.0701C19.8059 153.367 17.6353 152.467 16.0343 150.866C14.4333 149.265 13.5327 147.094 13.5301 144.83V58.6298C13.5327 56.3657 14.4333 54.1951 16.0343 52.5941C17.6353 50.9931 19.8059 50.0925 22.0701 50.0898H176.51ZM176.51 49.5898H22.0701C20.8882 49.5898 19.7178 49.8226 18.6259 50.2749C17.534 50.7272 16.5418 51.3902 15.7061 52.2259C14.8704 53.0616 14.2074 54.0538 13.7552 55.1457C13.3029 56.2376 13.0701 57.408 13.0701 58.5898V144.79C13.0701 147.177 14.0183 149.466 15.7061 151.154C17.3939 152.842 19.6831 153.79 22.0701 153.79H176.51C178.897 153.79 181.186 152.842 182.874 151.154C184.562 149.466 185.51 147.177 185.51 144.79V58.6298C185.51 56.2429 184.562 53.9537 182.874 52.2659C181.186 50.5781 178.897 49.6298 176.51 49.6298V49.5898Z" fill="#1D1D2C"/>
<g opacity="0.3">
<path d="M176.51 49.5898H22.07C17.0774 49.5898 13.03 53.6372 13.03 58.6298V144.84C13.03 149.832 17.0774 153.88 22.07 153.88H176.51C181.503 153.88 185.55 149.832 185.55 144.84V58.6298C185.55 53.6372 181.503 49.5898 176.51 49.5898Z" fill="#414267"/>
</g>
<path d="M209.48 165.98L211.74 162.56L215.11 166.87L213.73 168.48L209.48 165.98Z" fill="white"/>
<path d="M211.76 162.99L214.76 166.86L213.65 168.16L209.8 165.9L211.73 162.99H211.76ZM211.76 162.14L209.17 166.07L213.83 168.8L215.47 166.88L211.76 162.14Z" fill="#1D1D2C"/>
<path d="M168.04 190.66L167.19 185.8L171.26 185.31L170.16 190.66H168.04Z" fill="white"/>
<path d="M170.94 185.6L169.94 190.41H168.23L167.46 186.02L170.92 185.6H170.94ZM171.57 185.02L166.9 185.58L167.83 190.91H170.36L171.57 185.02Z" fill="#1D1D2C"/>
<path d="M161.24 105.63C158.513 119.693 157.986 134.095 159.68 148.32C160.68 156.71 166.9 187.32 166.9 187.32H171.57L185.85 108.17L161.24 105.63Z" fill="#1D1D2C"/>
<path d="M170.19 103.979C167.651 116.227 166.311 128.692 166.19 141.199C166.19 156.299 172.64 181.249 172.64 181.249L185.82 108.189L170.19 103.979Z" fill="#1D1D2C"/>
<path d="M181.36 108.19C181.36 108.19 171.02 131.01 174.28 142.47C178.22 156.26 211.03 168.07 211.03 168.07L214.29 164.07C214.29 164.07 195.93 148.32 193.63 140.26C191.33 132.2 204.87 109.96 205.57 107.66C206.27 105.36 181.36 108.19 181.36 108.19Z" fill="#1D1D2C"/>
<path d="M167.53 189.189C167.53 189.189 156.53 189.189 154.37 194.779H172.37C172.37 194.779 173.83 190.849 170.71 189.349C170.239 189.682 169.669 189.848 169.092 189.819C168.516 189.79 167.966 189.568 167.53 189.189Z" fill="#1D1D2C"/>
<path d="M172.42 194.17H160.07C160.088 192.939 159.81 191.721 159.26 190.62C159.245 190.604 159.225 190.594 159.204 190.59C159.182 190.587 159.16 190.59 159.141 190.6C159.122 190.611 159.107 190.627 159.097 190.647C159.088 190.666 159.086 190.688 159.09 190.71C159.636 191.78 159.908 192.969 159.88 194.17H154.51C154.49 194.176 154.473 194.189 154.46 194.206C154.448 194.223 154.441 194.244 154.441 194.265C154.441 194.286 154.448 194.306 154.46 194.323C154.473 194.34 154.49 194.353 154.51 194.36H159.88C159.88 194.5 159.88 194.64 159.88 194.78C159.88 194.92 160.06 194.9 160.07 194.78C160.08 194.66 160.07 194.5 160.07 194.36H172.42C172.44 194.353 172.458 194.34 172.47 194.323C172.482 194.306 172.489 194.286 172.489 194.265C172.489 194.244 172.482 194.223 172.47 194.206C172.458 194.189 172.44 194.176 172.42 194.17Z" fill="#1D1D2C"/>
<path d="M213 168.3C213 168.3 206.14 177.3 209.27 182.39L220.18 168.13C220.18 168.13 217.94 164.57 214.86 166.13C214.84 166.14 215.11 167.56 213 168.3Z" fill="#1D1D2C"/>
<path d="M219.73 167.719L212.23 177.529C211.262 176.765 210.123 176.247 208.91 176.019C208.79 176.019 208.77 176.179 208.91 176.209C210.09 176.43 211.199 176.934 212.14 177.679L208.88 181.949C208.8 182.039 208.95 182.149 209.03 182.059L212.28 177.799C212.397 177.877 212.507 177.964 212.61 178.059C212.7 178.139 212.81 177.989 212.73 177.909C212.65 177.829 212.51 177.739 212.4 177.649L219.9 167.829C220 167.719 219.8 167.589 219.73 167.719Z" fill="#1D1D2C"/>
<path d="M139.46 102.06C138.751 102.065 138.044 101.971 137.36 101.78C129.87 99.5497 127.18 78.3697 128.96 71.9797L131.73 69.4697C132.06 70.4697 133.06 73.3097 134.4 76.4697C137 82.5497 139.4 86.2297 141.4 87.3997C141.703 87.5795 142.048 87.6761 142.4 87.6797C143.95 87.6797 145.62 85.9197 147.18 84.0097C147.93 83.0997 148.78 81.8997 149.76 80.5197C153.2 75.6497 157.92 68.9697 162.76 68.9697C163.72 68.9753 164.662 69.234 165.49 69.7197C168.96 71.7197 170.2 74.7197 169.17 78.5897C166.39 89.2297 148.54 102.06 139.46 102.06Z" fill="white"/>
<path d="M162.81 69.1992C163.725 69.2044 164.622 69.4529 165.41 69.9192C168.78 71.8392 169.98 74.7192 168.98 78.4992C167.74 83.1692 163.14 88.9492 156.67 93.9492C150.41 98.7992 143.82 101.809 139.46 101.809C138.784 101.815 138.11 101.724 137.46 101.539C130.11 99.3492 127.46 78.5392 129.21 72.1092L131.65 69.9092C132.07 71.1292 132.99 73.7292 134.2 76.5592C136.82 82.6792 139.2 86.3992 141.32 87.5592C141.669 87.7635 142.066 87.8706 142.47 87.8692C144.03 87.8692 145.59 86.3692 147.47 84.1092C148.22 83.1892 149.07 81.9892 150.05 80.6092C153.46 75.7792 158.14 69.1592 162.86 69.1592L162.81 69.1992ZM162.81 68.6992C156.47 68.6992 150.48 79.6392 147.03 83.8292C145.34 85.8892 143.81 87.4092 142.44 87.4092C142.124 87.4125 141.812 87.3295 141.54 87.1692C139.09 85.7592 136.54 80.7592 134.63 76.3592C132.96 72.4492 131.85 69.0292 131.85 69.0292L128.74 71.8392C126.84 78.4292 129.64 99.7492 137.29 102.019C137.996 102.217 138.727 102.314 139.46 102.309C152.25 102.309 180.38 77.8692 165.66 69.4892C164.798 68.9748 163.814 68.7019 162.81 68.6992Z" fill="#1D1D2C"/>
<path d="M141.48 90.4599C135.71 89.1399 134.64 76.7299 134.63 76.3599C136.51 80.7599 139.09 85.7599 141.54 87.1699C143.12 88.0799 144.96 86.3599 147.03 83.8299C153.18 74.2299 157.94 70.6299 157.94 70.6299L157.24 80.8399C157.24 80.8399 148.3 92.0199 141.48 90.4599Z" fill="#1D1D2C"/>
<path d="M174.55 60.6494C174.55 60.6494 177.75 71.8994 168.94 80.4894L163.86 88.6094C163.86 88.6094 153.52 77.7194 153.37 71.1594C159.493 66.0197 166.754 62.4164 174.55 60.6494Z" fill="#BAE1FD"/>
<path d="M161.55 85.9994L163.86 88.6094L174.55 60.6094C172.566 61.0589 170.615 61.6436 168.71 62.3594C164.91 67.9094 161 75.2594 161.55 85.9994Z" fill="#1D1D2C"/>
<path d="M165.78 86.1299C165.78 86.1299 155.48 74.0599 155.48 68.1299L151.81 70.9799C151.81 70.9799 154.44 83.2099 163.67 90.1799L165.78 86.1299Z" fill="#1D1D2C"/>
<path d="M160.22 106.349C160.22 106.349 175.56 114.029 206.39 108.549C206.39 108.549 209.1 57.4294 182.29 58.5494C165.94 59.2594 164.47 74.0594 160.22 106.349Z" fill="#BAE1FD"/>
<path d="M181.79 60.1891C181.274 60.2167 180.759 60.1224 180.287 59.9139C179.814 59.7054 179.397 59.3886 179.07 58.9891C180.178 57.6298 180.725 55.8985 180.6 54.1491L185.85 52.8691C185.428 54.8145 185.532 56.837 186.15 58.7291C184.85 59.5906 183.346 60.0942 181.79 60.1891Z" fill="white"/>
<path d="M185.52 53.2095C185.207 55.0106 185.32 56.86 185.85 58.6095C184.633 59.3937 183.235 59.8517 181.79 59.9395C181.34 59.9554 180.892 59.8742 180.476 59.7017C180.061 59.5292 179.687 59.2692 179.38 58.9395C180.399 57.6119 180.926 55.972 180.87 54.2995L185.52 53.1695V53.2095ZM186.2 52.5295L180.31 53.9695C180.31 53.9695 180.88 56.1695 178.76 58.9695C179.095 59.4474 179.547 59.8322 180.071 60.0876C180.596 60.343 181.177 60.4607 181.76 60.4295C183.433 60.334 185.046 59.7767 186.42 58.8195C185.724 56.7889 185.637 54.5989 186.17 52.5195L186.2 52.5295Z" fill="#1D1D2C"/>
<path d="M181.81 56.0394C181.534 56.0391 181.259 56.009 180.99 55.9494C180.264 55.7544 179.596 55.3859 179.043 54.8755C178.491 54.3651 178.071 53.7281 177.82 53.0194C177.117 51.2407 176.981 49.2884 177.43 47.4294C178.22 43.8294 180.8 41.1094 183.43 41.1094C183.706 41.1091 183.981 41.1393 184.25 41.1994C187.11 41.8394 188.71 45.6594 187.81 49.7194C187 53.3294 184.44 56.0394 181.81 56.0394Z" fill="white"/>
<path d="M183.43 41.3594C183.689 41.3597 183.948 41.3899 184.2 41.4494C184.889 41.6362 185.522 41.9879 186.044 42.4739C186.567 42.96 186.964 43.5659 187.2 44.2394C187.876 45.969 188.005 47.8641 187.57 49.6694C186.8 53.1594 184.32 55.7894 181.81 55.7894C181.555 55.7875 181.3 55.7607 181.05 55.7094C178.32 55.1094 176.8 51.4194 177.67 47.4894C178.44 43.9994 180.92 41.3594 183.43 41.3594ZM183.43 40.8594C180.71 40.8594 178.02 43.5794 177.19 47.3794C176.26 51.5894 177.94 55.5294 180.94 56.1994C181.226 56.259 181.518 56.2892 181.81 56.2894C184.54 56.2894 187.22 53.5794 188.06 49.7794C188.99 45.5694 187.31 41.6194 184.3 40.9594C184.014 40.8965 183.723 40.863 183.43 40.8594Z" fill="#1D1D2C"/>
<path d="M179 52.0297C178.113 51.941 177.238 51.7566 176.39 51.4797C176.367 51.4735 176.347 51.4622 176.329 51.4466C176.312 51.4309 176.298 51.4115 176.29 51.3897C176.279 51.3697 176.274 51.3474 176.274 51.3247C176.274 51.3021 176.279 51.2798 176.29 51.2597C176.945 50.0087 177.719 48.8233 178.6 47.7197C179.08 49.8797 179.28 51.7997 179.04 52.0397L179 52.0297Z" fill="white"/>
<path d="M178.47 48.3097C178.747 49.4418 178.881 50.6042 178.87 51.7696C178.084 51.6694 177.308 51.5021 176.55 51.2696C177.1 50.215 177.743 49.2111 178.47 48.2696V48.3097ZM178.73 47.1497C177.714 48.3968 176.817 49.7359 176.05 51.1497C176.026 51.2031 176.014 51.261 176.015 51.3195C176.015 51.378 176.028 51.4356 176.053 51.4887C176.077 51.5417 176.113 51.5889 176.157 51.627C176.202 51.6651 176.254 51.6933 176.31 51.7097C177.182 51.9849 178.08 52.1725 178.99 52.2696H179.09C179.93 52.2096 178.73 47.1396 178.73 47.1396V47.1497Z" fill="#1D1D2C"/>
<path d="M178.73 43.85C178.297 44.4749 177.935 45.1456 177.65 45.85C178.332 46.0095 179.039 46.0261 179.727 45.8988C180.416 45.7714 181.07 45.5028 181.65 45.11C184.65 43.11 187.72 45.34 187.72 45.34L187.34 42.79L179.34 41L178.73 43.85Z" fill="#1D1D2C"/>
<path d="M187.17 46.7192C186.742 46.6978 186.332 46.5396 186.001 46.2677C185.67 45.9959 185.434 45.6248 185.33 45.2092C184.85 43.6592 182.84 43.7692 181.33 44.5392C180.495 44.9797 179.569 45.2207 178.625 45.2432C177.681 45.2658 176.745 45.0693 175.89 44.6692C174.64 43.9492 173.15 41.4092 175.47 39.6692C177.58 38.0892 183 37.5892 184.7 37.9092C187.78 38.4892 191.42 42.5292 190.79 46.2692C190.34 48.9092 188.85 53.1092 186.7 53.0592C187.31 50.2492 188 48.4392 187.17 46.7192Z" fill="#1D1D2C"/>
<path d="M187.19 51.0594C187.02 51.0511 186.856 50.9919 186.72 50.8894C186.573 50.7965 186.447 50.6737 186.351 50.5289C186.254 50.3842 186.189 50.2208 186.16 50.0494C186.152 49.4515 186.35 48.869 186.72 48.3994C186.984 48.1137 187.336 47.9238 187.72 47.8594C187.836 47.8616 187.95 47.8897 188.054 47.9416C188.158 47.9935 188.249 48.0679 188.32 48.1594C188.479 48.4434 188.563 48.7637 188.563 49.0894C188.563 49.4151 188.479 49.7353 188.32 50.0194C188.09 50.5194 187.68 51.0594 187.19 51.0594Z" fill="white"/>
<path d="M187.76 48.1094C187.841 48.1101 187.921 48.1305 187.992 48.1688C188.064 48.2071 188.125 48.2622 188.17 48.3294C188.289 48.5804 188.344 48.857 188.33 49.1345C188.316 49.4119 188.234 49.6816 188.09 49.9194C187.85 50.4494 187.49 50.8094 187.19 50.8094C187.073 50.8037 186.962 50.7617 186.87 50.6894C186.751 50.6161 186.648 50.5186 186.569 50.4032C186.49 50.2878 186.436 50.157 186.41 50.0194C186.406 49.4995 186.575 48.9931 186.89 48.5794C187.12 48.3313 187.426 48.1661 187.76 48.1094ZM187.76 47.6094C187.285 47.6643 186.845 47.8878 186.52 48.2394C186.52 48.2394 185.08 50.0494 186.58 51.0994C186.758 51.2293 186.97 51.3025 187.19 51.3094C188.41 51.3094 189.3 48.8494 188.55 47.9994C188.457 47.8784 188.337 47.7803 188.2 47.7127C188.063 47.6451 187.913 47.6097 187.76 47.6094Z" fill="#1D1D2C"/>
<path d="M176.54 39.7892C176.259 39.8425 175.998 39.9725 175.786 40.1648C175.574 40.3572 175.42 40.6045 175.34 40.8792C175.252 41.2007 175.23 41.537 175.276 41.8672C175.323 42.1974 175.436 42.5146 175.61 42.7992C175.653 42.8708 175.722 42.9227 175.802 42.9433C175.883 42.9639 175.968 42.9517 176.04 42.9092C176.112 42.8668 176.164 42.7977 176.184 42.717C176.205 42.6364 176.193 42.5508 176.15 42.4792C175.71 41.6892 175.76 40.7092 176.71 40.3992C177.09 40.2792 176.93 39.7192 176.54 39.7892Z" fill="#1D1D2C"/>
<path d="M188 40.8392C187.384 40.0976 186.607 39.5054 185.729 39.107C184.851 38.7086 183.894 38.5145 182.93 38.5392C182.53 38.5392 182.53 39.1892 182.93 39.1792C183.786 39.1562 184.636 39.3236 185.42 39.6695C186.203 40.0154 186.9 40.5311 187.46 41.1792C187.66 41.4892 188.22 41.1692 188 40.8392Z" fill="#1D1D2C"/>
<path d="M178.76 58.9797C177.599 58.8925 176.448 59.2499 175.54 59.9797C175.54 59.9797 175.54 62.1797 178.76 63.5997C179.146 62.2511 180.043 61.1065 181.26 60.4097C180.276 60.2656 179.383 59.7548 178.76 58.9797Z" fill="#1D1D2C"/>
<path d="M181.26 60.4096C181.824 61.421 182.277 62.4906 182.61 63.5996C182.61 63.5996 186.45 61.7796 188.24 59.2596C187.705 58.9277 187.078 58.7769 186.45 58.8296C184.893 59.8115 183.101 60.3572 181.26 60.4096Z" fill="#1D1D2C"/>
<path d="M117.24 57.4495L120.64 53.2695L128.94 55.4295L121.04 65.1395L117.24 57.4495Z" fill="white"/>
<path d="M120.73 53.5593L128.5 55.5593L121.09 64.7193L117.54 57.5193L120.73 53.5993V53.5593ZM120.54 52.9893L117 57.4093L121 65.5993L129.39 55.2793L120.55 52.9893H120.54Z" fill="#1D1D2C"/>
<path d="M185.28 118.219L193.68 107.899L197.53 111.039C198.006 111.428 198.307 111.99 198.369 112.601C198.431 113.212 198.248 113.823 197.86 114.299L192.4 121.019C192.009 121.495 191.446 121.797 190.833 121.859C190.221 121.921 189.608 121.738 189.13 121.349L185.28 118.219Z" fill="#BAE1FD"/>
<path d="M126.49 55.7897C126.673 55.5629 126.9 55.3747 127.156 55.2358C127.412 55.0969 127.693 55.01 127.983 54.9803C128.273 54.9505 128.566 54.9785 128.846 55.0625C129.125 55.1464 129.385 55.2848 129.61 55.4697L193.92 108.1L191.12 111.54L126.81 58.9097C126.354 58.538 126.065 58.0008 126.005 57.4159C125.945 56.8309 126.119 56.2461 126.49 55.7897Z" fill="#414267"/>
<path d="M123.69 59.2291C123.873 59.0024 124.099 58.8141 124.356 58.6752C124.612 58.5363 124.893 58.4495 125.183 58.4197C125.473 58.39 125.766 58.4179 126.045 58.5019C126.325 58.5859 126.584 58.7243 126.81 58.9091L191.12 111.539L188.33 114.979L124 62.3491C123.546 61.976 123.258 61.4381 123.2 60.8532C123.142 60.2683 123.318 59.6843 123.69 59.2291Z" fill="#1D1D2C"/>
<path d="M120.9 62.7195C121.082 62.4931 121.308 62.3051 121.563 62.1663C121.819 62.0275 122.099 61.9407 122.388 61.911C122.678 61.8812 122.97 61.9091 123.248 61.9929C123.527 62.0768 123.785 62.215 124.01 62.3995L188.33 115.03L185.53 118.47L121.22 65.7795C120.777 65.4125 120.496 64.8867 120.436 64.3148C120.376 63.7428 120.543 63.1702 120.9 62.7195Z" fill="#414267"/>
<path d="M192.97 107.654L184.893 117.583L186.653 119.016L194.731 109.086L192.97 107.654Z" fill="white"/>
<path d="M193 108.01L194.37 109.12L186.62 118.72L185.25 117.6L193.01 108.06L193 108.01ZM192.93 107.3L184.53 117.62L186.68 119.37L195.08 109.05L192.93 107.3Z" fill="#1D1D2C"/>
<path d="M116.65 52.1096L120.54 52.9896L117 57.4096L115.37 53.7696C115.282 53.5734 115.249 53.357 115.274 53.1435C115.3 52.93 115.382 52.7274 115.514 52.5571C115.645 52.3868 115.82 52.2553 116.02 52.1765C116.22 52.0978 116.438 52.0746 116.65 52.1096Z" fill="#BAE1FD"/>
<path d="M188.27 109.199C188.11 109.199 188 109.119 187.99 109.069C187.91 108.839 188.45 108.199 188.77 107.819C189.24 107.259 189.57 106.819 189.45 106.519C189.422 106.442 189.372 106.375 189.306 106.325C189.241 106.276 189.162 106.246 189.08 106.239C188.8 106.239 188.55 106.479 187.83 107.239C187.11 107.999 186.04 109.129 185.56 109.129C185.56 109.129 185.47 109.129 185.42 108.969C185.566 108.41 185.791 107.874 186.09 107.379C186.63 106.379 186.89 105.799 186.7 105.489C186.664 105.435 186.615 105.391 186.557 105.361C186.5 105.332 186.435 105.317 186.37 105.319H186.16H186.11C185.731 105.681 185.373 106.065 185.04 106.469C184.34 107.279 183.38 108.389 182.89 108.389C182.868 108.399 182.844 108.405 182.82 108.405C182.796 108.405 182.772 108.399 182.75 108.389C182.938 107.409 183.368 106.492 184 105.719C185.25 104.359 185.08 103.979 185 103.849C184.966 103.776 184.911 103.715 184.841 103.674C184.771 103.633 184.691 103.614 184.61 103.619C183.828 103.837 183.131 104.287 182.61 104.909C182.385 105.175 182.074 105.352 181.73 105.409C181.64 105.409 181.61 105.409 181.61 105.409C181.61 105.409 181.54 105.059 181.73 104.639C182.73 102.479 185.73 101.419 188.07 100.899L188.7 100.769L188.14 100.439C187.561 100.135 186.915 99.9766 186.26 99.9795H186.06C185.972 99.9714 185.888 99.9416 185.815 99.8927C185.741 99.8438 185.681 99.7774 185.64 99.6995C185.614 99.6612 185.6 99.6159 185.6 99.5695C185.6 99.5231 185.614 99.4778 185.64 99.4395C185.774 99.2431 185.957 99.0852 186.172 98.9817C186.386 98.8782 186.623 98.8326 186.86 98.8495C188.42 98.8495 190.55 100.359 191.16 100.849C191.837 101.042 192.491 101.307 193.11 101.639L193.23 101.699L193.35 101.639C193.51 101.549 209.35 92.5495 211.3 90.4195C211.443 90.2727 211.552 90.0963 211.62 89.9028C211.687 89.7093 211.711 89.5033 211.69 89.2995C211.53 87.7995 209.02 86.0295 205.85 83.7895C200.85 80.2495 194.59 75.7895 195.07 70.6895C195.46 66.4595 197.46 64.2295 200.85 64.2295C205.08 64.2295 211.11 67.7095 216.22 73.0995C221.71 78.8895 224.83 85.4695 224.55 90.7095C224.15 98.2395 200.31 104.869 192.98 104.929H192.9H192.84C192.272 105.415 191.758 105.961 191.31 106.559C190.31 107.709 189.04 109.289 188.31 109.289L188.27 109.199Z" fill="white"/>
<path d="M200.87 64.3594C205.03 64.3594 210.99 67.8094 216.06 73.1494C221.51 78.8894 224.59 85.4094 224.32 90.5794C223.93 97.9794 200.32 104.499 193 104.579H192.85L192.72 104.659C192.132 105.159 191.602 105.722 191.14 106.339C190.32 107.339 188.94 108.979 188.31 108.979H188.25C188.45 108.621 188.688 108.286 188.96 107.979C189.48 107.359 189.86 106.909 189.69 106.439C189.646 106.321 189.571 106.216 189.472 106.137C189.374 106.058 189.256 106.007 189.13 105.989H189C188.67 105.989 188.42 106.229 187.62 107.079C187.026 107.746 186.355 108.341 185.62 108.849C185.8 108.386 186.01 107.935 186.25 107.499C186.84 106.369 187.11 105.799 186.85 105.369C186.79 105.279 186.708 105.205 186.612 105.154C186.516 105.104 186.409 105.078 186.3 105.079C186.207 105.066 186.113 105.066 186.02 105.079H185.92L185.84 105.149C185.448 105.518 185.081 105.913 184.74 106.329C184.245 107.033 183.66 107.668 183 108.219C183.243 107.364 183.647 106.563 184.19 105.859C185.4 104.549 185.4 104.029 185.27 103.719C185.216 103.602 185.128 103.504 185.017 103.436C184.907 103.369 184.779 103.335 184.65 103.339C183.99 103.339 183 104.189 182.48 104.699C182.307 104.881 182.095 105.021 181.86 105.109C181.883 104.953 181.93 104.801 182 104.659C183 102.489 186.27 101.479 188.16 101.069L189.16 100.829L188.3 100.179C187.685 99.8514 186.997 99.683 186.3 99.6894H186.1C186 99.6894 185.89 99.5894 185.89 99.5394C185.999 99.3779 186.15 99.2484 186.325 99.1641C186.501 99.0798 186.696 99.0436 186.89 99.0594C188.07 99.0594 189.81 100.059 191.04 100.979L191.12 101.039H191.21C191.831 101.197 192.431 101.425 193 101.719L193.24 101.859L193.49 101.719C194.14 101.349 209.55 92.5694 211.49 90.4594C211.66 90.2892 211.789 90.0832 211.869 89.8565C211.948 89.6298 211.976 89.3882 211.95 89.1494C211.78 87.5294 209.23 85.7294 205.95 83.4494C200.95 79.9494 194.81 75.5894 195.27 70.5794C195.66 66.4394 197.52 64.3494 200.81 64.3494L200.87 64.3594ZM200.87 63.8594C197.65 63.8594 195.28 65.7994 194.87 70.5394C194 79.8494 214.29 86.7194 211.13 90.1294C209.23 92.2094 193.28 101.279 193.25 101.299C192.642 100.97 191.998 100.711 191.33 100.529C190.21 99.6894 188.33 98.5294 186.88 98.5294C186.602 98.514 186.324 98.5704 186.074 98.6929C185.824 98.8155 185.609 99.0002 185.45 99.2294C185.15 99.6794 185.62 100.129 186.04 100.159C186.732 100.133 187.42 100.281 188.04 100.589C185.49 101.139 182.5 102.279 181.53 104.469C181.19 105.239 181.36 105.639 181.76 105.639C182.168 105.584 182.541 105.381 182.81 105.069C183.294 104.5 183.928 104.077 184.64 103.849C185 103.849 184.83 104.429 183.81 105.529C183.28 106.119 182.18 108.239 182.56 108.609C182.645 108.687 182.755 108.73 182.87 108.729C183.78 108.729 185.41 106.319 186.26 105.599C186.303 105.59 186.347 105.59 186.39 105.599C187.1 105.599 185.02 108.439 185.21 109.069C185.28 109.309 185.41 109.409 185.58 109.409C186.52 109.409 188.7 106.509 189.05 106.509C190.1 106.709 186.48 109.149 188.24 109.509H188.36C189.67 109.509 192.08 105.729 193.02 105.109C199.88 105.049 224.42 98.6194 224.84 90.6594C225.46 78.9094 209.84 63.9094 200.89 63.9094L200.87 63.8594Z" fill="#1D1D2C"/>
<path d="M190.18 59.9795C190.18 59.9795 188.03 71.4795 197.73 79.1995L202.73 84.4495C202.73 84.4495 211.52 74.0995 211.04 67.5595C211.07 67.5595 204 61.9095 190.18 59.9795Z" fill="#BAE1FD"/>
<path d="M202.81 85.94L200.12 82.78C200.12 82.78 210.12 74.86 208.92 65.04L212.92 67.66C212.92 67.66 210.18 79.77 202.81 85.94Z" fill="#1D1D2C"/>
<path d="M129.11 73.1895C128.903 73.1935 128.698 73.1383 128.521 73.0302C128.344 72.9221 128.201 72.7658 128.11 72.5795L128.32 72.1295L127.84 72.2695C127.727 72.2776 127.613 72.2776 127.5 72.2695C127.391 72.273 127.284 72.2452 127.19 72.1895C127.01 72.0695 127 71.8495 127 71.5395L127.06 71.1395L126.67 71.2595C126.432 71.3449 126.183 71.3922 125.93 71.3995C125.805 71.4071 125.679 71.3879 125.562 71.3431C125.445 71.2982 125.338 71.2288 125.25 71.1395C125.07 70.9595 124.95 70.6994 125.36 70.2094L125.87 69.6095L125.1 69.8094C124.898 69.8655 124.69 69.8991 124.48 69.9095C124.391 69.9129 124.303 69.8977 124.22 69.865C124.137 69.8323 124.063 69.7827 124 69.7195C123.908 69.5833 123.846 69.429 123.818 69.2668C123.79 69.1047 123.798 68.9385 123.84 68.7794H123.94V68.7094C124.367 68.3521 124.842 68.056 125.35 67.8295L125.5 67.7595C125.809 67.5874 126.149 67.4786 126.5 67.4395C126.83 67.4395 126.89 67.5694 126.91 67.5994C127 67.9183 126.96 68.2595 126.8 68.5495L126.48 69.3494L127.18 68.8494C127.361 68.7047 127.58 68.6145 127.81 68.5895C127.916 68.597 128.018 68.6312 128.107 68.6889C128.197 68.7466 128.27 68.8259 128.32 68.9194C128.428 69.0597 128.498 69.2262 128.52 69.4019C128.543 69.5776 128.519 69.7562 128.45 69.9194L128.22 70.4894L128.78 70.2394C128.985 70.1468 129.206 70.0958 129.43 70.0895C129.71 70.0895 129.79 70.1895 129.83 70.2495C129.884 70.3742 129.911 70.5086 129.911 70.6445C129.911 70.7803 129.884 70.9147 129.83 71.0395C129.761 71.2111 129.659 71.3674 129.53 71.4995L129.17 71.8795H129.7C130.03 72.0195 129.95 72.4795 129.88 72.6595C129.82 72.8149 129.714 72.9486 129.577 73.0432C129.439 73.1377 129.277 73.1887 129.11 73.1895Z" fill="white"/>
<path d="M126.51 67.7197H126.57C126.616 67.7079 126.664 67.7079 126.71 67.7197C126.752 67.9708 126.706 68.2285 126.58 68.4497L126.23 69.3097L125.08 69.6097C124.887 69.6593 124.689 69.6894 124.49 69.6997C124.429 69.7055 124.368 69.6956 124.312 69.6711C124.256 69.6466 124.207 69.6083 124.17 69.5597C124.061 69.3949 124.014 69.196 124.04 68.9997L124.13 68.8697C124.539 68.5418 124.986 68.2632 125.46 68.0397L125.61 67.9697C125.886 67.8179 126.188 67.7195 126.5 67.6797L126.51 67.7197ZM127.82 68.8697C127.82 68.8697 127.97 68.8697 128.12 69.0897C128.21 69.2003 128.267 69.3334 128.287 69.4744C128.306 69.6154 128.286 69.759 128.23 69.8897L127.76 71.0297L128.89 70.5297C129.063 70.4495 129.25 70.4052 129.44 70.3997H129.5C129.6 70.3997 129.62 70.3997 129.63 70.3997C129.667 70.4885 129.686 70.5836 129.686 70.6797C129.686 70.7758 129.667 70.871 129.63 70.9597C129.574 71.1026 129.489 71.2321 129.38 71.3397L128.74 71.9997L128.83 71.7997L127.83 72.0097C127.734 72.0218 127.636 72.0218 127.54 72.0097C127.484 72.0246 127.426 72.0246 127.37 72.0097C127.3 72.0097 127.29 71.8197 127.29 71.6097L127.44 70.7597L126.63 71.0497C126.419 71.13 126.196 71.174 125.97 71.1797C125.879 71.1873 125.787 71.1751 125.701 71.1441C125.614 71.113 125.536 71.0638 125.47 70.9997C125.38 70.8997 125.27 70.7897 125.59 70.4097L125.96 69.9697V70.0297L127.35 69.0297C127.49 68.9131 127.66 68.837 127.84 68.8097L127.82 68.8697ZM128.67 72.1597L129.67 72.2297C129.725 72.3644 129.725 72.515 129.67 72.6497C129.62 72.7519 129.541 72.8374 129.444 72.896C129.346 72.9545 129.234 72.9836 129.12 72.9797C128.99 72.977 128.863 72.944 128.748 72.8832C128.634 72.8224 128.535 72.7356 128.46 72.6297L128.68 72.1597H128.67ZM126.51 67.2197C126.07 67.2695 125.644 67.409 125.26 67.6297C124.733 67.8732 124.239 68.1823 123.79 68.5497C123.748 68.556 123.708 68.5745 123.676 68.6029C123.644 68.6313 123.621 68.6684 123.61 68.7097C123.47 69.3097 123.7 70.1897 124.53 70.1897C124.76 70.1767 124.988 70.1399 125.21 70.0797C124.87 70.4797 124.71 70.9297 125.11 71.3497C125.224 71.4711 125.362 71.5668 125.515 71.6306C125.669 71.6944 125.834 71.7248 126 71.7197C126.284 71.7151 126.565 71.6609 126.83 71.5597C126.807 71.7182 126.822 71.8799 126.874 72.0313C126.926 72.1827 127.014 72.3193 127.13 72.4297C127.264 72.5146 127.421 72.5565 127.58 72.5497C127.713 72.5643 127.847 72.5643 127.98 72.5497C127.965 72.5774 127.957 72.6083 127.957 72.6397C127.957 72.6711 127.965 72.7021 127.98 72.7297C128.088 72.952 128.255 73.1398 128.464 73.2723C128.672 73.4048 128.913 73.4766 129.16 73.4797C129.369 73.4867 129.576 73.4316 129.754 73.3212C129.932 73.2109 130.073 73.0503 130.16 72.8597C130.29 72.5697 130.36 71.9597 129.93 71.7697H129.77C129.927 71.6172 130.05 71.4331 130.13 71.2297C130.3 70.7897 130.31 69.9797 129.58 69.9397H129.49C129.231 69.9473 128.977 70.0051 128.74 70.1097C128.828 69.905 128.86 69.6808 128.834 69.4596C128.807 69.2385 128.723 69.0282 128.59 68.8497C128.517 68.7219 128.412 68.6147 128.286 68.5378C128.16 68.4609 128.017 68.4169 127.87 68.4097C127.584 68.4309 127.312 68.5391 127.09 68.7197C127.31 68.1897 127.5 67.3497 126.67 67.2597L126.51 67.2197Z" fill="#1D1D2C"/>
<path d="M190.75 60.2495L189.51 59.9795L189.11 74.1195C189.11 74.1195 196.11 73.6995 196.11 73.4595C196.11 73.2195 194.89 65.8095 194.71 65.1995C193.482 63.4781 192.16 61.8255 190.75 60.2495Z" fill="#BAE1FD"/>
<path d="M178.25 46.6699L179.15 53.4599L181 51.9099V48.4799L180.12 46.8199L178.25 46.6699Z" fill="white"/>
<path d="M187.41 47.3398L187.67 48.0798L187.23 50.8998L187.07 51.5798L185.23 51.1998C185.23 51.1998 185.46 48.5898 185.53 48.5798C185.6 48.5698 187.1 47.3398 187.1 47.3398H187.41Z" fill="white"/>
<path d="M40.4801 148.85C30.6101 148.85 22.5701 139.74 22.5701 128.54C22.5701 128.23 22.5701 127.94 22.5701 127.64V127.38V56.2598H103.91V133.17L86.9101 131.67V131.9C85.4601 141.44 49.3601 148.85 40.4801 148.85Z" fill="white"/>
<path d="M103.66 56.5098V132.9L87.1501 131.44H86.6801L86.6101 131.9C86.0301 135.9 78.8901 140.05 66.5001 143.73C56.2801 146.73 45.0401 148.64 40.5001 148.64C30.7701 148.64 22.8401 139.64 22.8401 128.58C22.8401 128.28 22.8401 127.99 22.8401 127.66V127.14V56.5098H103.66ZM104.16 56.0098H22.3201V127.6C22.3201 127.92 22.3201 128.22 22.3201 128.54C22.3201 139.9 30.4601 149.1 40.4801 149.1C49.4801 149.1 85.6701 141.68 87.1101 131.94L104.11 133.44V56.0098H104.16Z" fill="#1D1D2C"/>
<path d="M99.73 138.879H98.02V138.189H99.06L99.08 137.159L99.76 137.169L99.73 138.879Z" fill="#414267"/>
<path d="M95.1602 138.879H92.3102V138.189H95.1602V138.879ZM89.4502 138.879H86.5902V138.189H89.4502V138.879ZM83.7402 138.879H80.8802V138.189H83.7402V138.879ZM78.0202 138.879H75.1602V138.189H78.0002L78.0202 138.879ZM72.3102 138.879H69.4502V138.189H72.3102V138.879ZM66.5902 138.879H63.7402V138.189H66.5902V138.879ZM60.8802 138.879H58.0002V138.189H60.8602L60.8802 138.879ZM55.1602 138.879H52.3102V138.189H55.1602V138.879ZM49.4502 138.879H46.5902V138.189H49.4502V138.879ZM43.7402 138.879H40.8802V138.189H43.7402V138.879ZM38.0202 138.879H35.1602V138.189H38.0002L38.0202 138.879Z" fill="#414267"/>
<path d="M32.3101 138.879H30.5801L30.6101 137.159L31.3001 137.169L31.2801 138.189H32.3101V138.879Z" fill="#414267"/>
<path d="M31.3401 134.57H30.6501L30.7001 131.98H31.3801L31.3401 134.57ZM31.4301 129.38H30.7401V126.79H31.4301V129.38ZM31.5101 124.19H30.8201L30.8701 121.6H31.5501L31.5101 124.19Z" fill="#414267"/>
<path d="M31.5902 118.999L30.9102 118.989L30.9302 117.279H32.6502V117.969H31.6102L31.5902 118.999Z" fill="#414267"/>
<path d="M95.5 117.969H92.65V117.279H95.5V117.969ZM89.79 117.969H86.93V117.279H89.79V117.969ZM84.08 117.969H81.22V117.279H84.08V117.969ZM78.36 117.969H75.5V117.279H78.36V117.969ZM72.65 117.969H69.79V117.279H72.65V117.969ZM66.93 117.969H64.08V117.279H66.93V117.969ZM61.22 117.969H58.36V117.279H61.22V117.969ZM55.5 117.969H52.65V117.279H55.5V117.969ZM49.79 117.969H46.93V117.279H49.79V117.969ZM44.08 117.969H41.22V117.279H44.08V117.969ZM38.36 117.969H35.5V117.279H38.36V117.969Z" fill="#414267"/>
<path d="M100.06 118.999L99.3699 118.989L99.3899 117.969H98.3599V117.279H100.08L100.06 118.999Z" fill="#414267"/>
<path d="M99.8001 134.57H99.1201V131.98H99.8101L99.8001 134.57ZM99.8901 129.38H99.2001V126.79H99.8901V129.38ZM99.9701 124.19H99.2901V121.6H100L99.9701 124.19Z" fill="#414267"/>
<path d="M71.2899 126.659H66.8299V122.199H64.6499V126.659H60.1899V128.839H64.6499V133.289H66.8299V128.839H71.2899V126.659Z" fill="#414267"/>
<path d="M97.9999 194.84C88.1299 194.84 80.0899 185.73 80.0899 174.53C80.0899 174.25 80.0899 173.98 80.0899 173.7V173.35V135.35C80.0899 124.24 76.0899 116.95 69.1699 115.04H143.52C153.39 115.04 161.43 124.15 161.43 135.35V179.19L144.43 177.68V177.92C143 187.43 106.89 194.84 97.9999 194.84Z" fill="white"/>
<path d="M143.53 115.27C153.27 115.27 161.19 124.27 161.19 135.33V178.89L144.68 177.44L144.21 177.39L144.14 177.86C143.56 181.86 136.41 186.01 124.02 189.69C113.81 192.69 102.57 194.59 98.0201 194.59C88.2801 194.59 80.3601 185.59 80.3601 174.53C80.3601 174.23 80.3601 173.94 80.3601 173.61V173.1V135.33C80.3601 124.89 76.8401 117.78 70.7101 115.27H143.53ZM143.53 114.77H65.3301C75.3301 114.77 79.8501 123.97 79.8501 135.33V173.6C79.8501 173.91 79.8501 174.22 79.8501 174.53C79.8501 185.89 87.9901 195.09 98.0101 195.09C107.01 195.09 143.2 187.67 144.63 177.93L161.69 179.44V135.33C161.69 123.97 153.56 114.77 143.53 114.77Z" fill="#1D1D2C"/>
<path d="M116.76 176.879L116.63 175.779H85.5601L85.6901 176.879H116.76Z" fill="#414267"/>
<path d="M151.38 173.59L151.25 172.5H85.5601L85.6901 173.59H151.38Z" fill="#414267"/>
<path d="M138.4 170.3L138.27 169.21H85.5601L85.6901 170.3H138.4Z" fill="#414267"/>
<path d="M144.58 176.879L144.27 175.869H121.34L121.66 176.879H144.58Z" fill="#414267"/>
<path d="M116.76 167.13L116.63 166.04H85.5601L85.6901 167.13H116.76Z" fill="#414267"/>
<path d="M130.45 167.13L130.32 166.04H120.9L121.03 167.13H130.45Z" fill="#414267"/>
<path d="M156.02 160.519H154.27V159.829H155.32V158.779H156.02V160.519Z" fill="#414267"/>
<path d="M151.38 160.519H148.48V159.829H151.38V160.519ZM145.59 160.519H142.69V159.829H145.59V160.519ZM139.79 160.519H136.9V159.829H139.79V160.519ZM134 160.519H131.11V159.829H134V160.519ZM128.21 160.519H125.32V159.829H128.21V160.519ZM122.42 160.519H119.52V159.829H122.42V160.519ZM116.63 160.519H113.73V159.829H116.63V160.519ZM110.84 160.519H107.94V159.829H110.84V160.519ZM105.04 160.519H102.15V159.829H105L105.04 160.519ZM99.2498 160.519H96.3598V159.829H99.2498V160.519ZM93.4598 160.519H90.5698V159.829H93.4598V160.519Z" fill="#414267"/>
<path d="M87.6702 160.519H85.9302V158.779H86.6202V159.829H87.6702V160.519Z" fill="#414267"/>
<path d="M86.6202 155.72H85.9302V152.72H86.6202V155.72ZM86.6202 149.61H85.9302V146.56H86.6202V149.61ZM86.6202 143.5H85.9302V140.5H86.6202V143.5ZM86.6202 137.4H85.9302V134.35H86.6202V137.4Z" fill="#414267"/>
<path d="M86.6202 131.3H85.9302V129.56H87.6702V130.26H86.6202V131.3Z" fill="#414267"/>
<path d="M151.38 130.26H148.48V129.56H151.38V130.26ZM145.59 130.26H142.69V129.56H145.59V130.26ZM139.79 130.26H136.9V129.56H139.79V130.26ZM134 130.26H131.11V129.56H134V130.26ZM128.21 130.26H125.32V129.56H128.21V130.26ZM122.42 130.26H119.52V129.56H122.42V130.26ZM116.63 130.26H113.73V129.56H116.63V130.26ZM110.84 130.26H107.94V129.56H110.84V130.26ZM105.04 130.26H102.15V129.56H105L105.04 130.26ZM99.2498 130.26H96.3598V129.56H99.2498V130.26ZM93.4598 130.26H90.5698V129.56H93.4598V130.26Z" fill="#414267"/>
<path d="M156.02 131.3H155.32V130.26H154.27V129.56H156.02V131.3Z" fill="#414267"/>
<path d="M156 155.72H155.3V152.72H156V155.72ZM156 149.61H155.3V146.56H156V149.61ZM156 143.5H155.3V140.5H156V143.5ZM156 137.4H155.3V134.35H156V137.4Z" fill="#414267"/>
<path d="M123.24 134.659H119.38V154.299H123.24V134.659Z" fill="#414267"/>
<path d="M131.14 142.55H111.5V146.41H131.14V142.55Z" fill="#414267"/>
<path d="M139.73 194.9V177.9C139.73 169.77 134.73 162.9 128.04 161.06H198.41C208.12 161.06 215.98 169.68 216.3 180.68V180.92V194.92L139.73 194.9Z" fill="white"/>
<path d="M198.41 161.319C207.98 161.319 215.73 169.829 216.05 180.699V180.899V194.649H140V177.909C140 170.259 135.64 163.729 129.58 161.319H198.41ZM198.41 160.819H124.41C132.75 160.819 139.52 168.469 139.52 177.909V195.149H216.61V180.719C216.29 169.719 208.29 160.859 198.47 160.859L198.41 160.819Z" fill="#1D1D2C"/>
<path d="M124.37 160.819C116.03 160.819 109.26 168.469 109.26 177.909C109.26 194.159 98.6499 195.009 98.6499 195.009L139.47 195.139V177.909C139.47 168.469 132.71 160.819 124.37 160.819Z" fill="#1D1D2C"/>
<path d="M65.3301 114.77C56.9901 114.77 50.2301 122.42 50.2301 131.86C50.2301 148.11 39.6201 148.96 39.6201 148.96L80.4401 149.1V131.86C80.4401 122.42 73.6801 114.77 65.3301 114.77Z" fill="#1D1D2C"/>
<path d="M99.6801 60.9893H26.8V78.7393H99.6801V60.9893Z" fill="#BAE1FD"/>
<path d="M99.69 76.7098L83.1601 70.8298L68.6601 75.7498L42.26 66.5498L26.8 71.5098V78.8598L99.69 78.8298V76.7098Z" fill="#414267"/>
<path d="M80.6699 64.9492C80.3384 64.9492 80.0205 64.8175 79.786 64.5831C79.5516 64.3487 79.4199 64.0307 79.4199 63.6992C79.4199 63.3677 79.5516 63.0498 79.786 62.8153C80.0205 62.5809 80.3384 62.4492 80.6699 62.4492H96.9199C97.2514 62.4492 97.5694 62.5809 97.8038 62.8153C98.0382 63.0498 98.1699 63.3677 98.1699 63.6992C98.1699 64.0307 98.0382 64.3487 97.8038 64.5831C97.5694 64.8175 97.2514 64.9492 96.9199 64.9492H80.6699Z" fill="white"/>
<path d="M96.9199 62.5693C97.1999 62.5958 97.4601 62.7257 97.6494 62.9338C97.8387 63.1418 97.9437 63.413 97.9437 63.6943C97.9437 63.9756 97.8387 64.2468 97.6494 64.4549C97.4601 64.663 97.1999 64.7929 96.9199 64.8193H80.6699C80.3898 64.7929 80.1297 64.663 79.9403 64.4549C79.751 64.2468 79.646 63.9756 79.646 63.6943C79.646 63.413 79.751 63.1418 79.9403 62.9338C80.1297 62.7257 80.3898 62.5958 80.6699 62.5693H96.9199ZM96.9199 62.3193H80.6699C80.3254 62.3487 80.0046 62.5063 79.7708 62.7609C79.537 63.0156 79.4072 63.3487 79.4072 63.6943C79.4072 64.04 79.537 64.3731 79.7708 64.6277C80.0046 64.8823 80.3254 65.0399 80.6699 65.0693H96.9199C97.2643 65.0399 97.5851 64.8823 97.819 64.6277C98.0528 64.3731 98.1825 64.04 98.1825 63.6943C98.1825 63.3487 98.0528 63.0156 97.819 62.7609C97.5851 62.5063 97.2643 62.3487 96.9199 62.3193Z" fill="#1D1D2C"/>
<path d="M81.0902 63.9395C81.0546 63.9395 81.0198 63.95 80.9902 63.9698C80.9606 63.9896 80.9375 64.0177 80.9239 64.0506C80.9102 64.0835 80.9067 64.1197 80.9136 64.1546C80.9206 64.1895 80.9377 64.2216 80.9629 64.2467C80.9881 64.2719 81.0201 64.289 81.055 64.296C81.09 64.3029 81.1261 64.2994 81.159 64.2858C81.1919 64.2721 81.22 64.2491 81.2398 64.2195C81.2596 64.1899 81.2702 64.1551 81.2702 64.1195C81.2702 64.0717 81.2512 64.0259 81.2174 63.9922C81.1837 63.9584 81.1379 63.9395 81.0902 63.9395Z" fill="#1D1D2C"/>
<path d="M82.8001 63.9395C82.7645 63.9395 82.7297 63.95 82.7001 63.9698C82.6705 63.9896 82.6474 64.0177 82.6338 64.0506C82.6202 64.0835 82.6166 64.1197 82.6236 64.1546C82.6305 64.1895 82.6477 64.2216 82.6728 64.2467C82.698 64.2719 82.7301 64.289 82.765 64.296C82.7999 64.3029 82.8361 64.2994 82.869 64.2858C82.9019 64.2721 82.93 64.2491 82.9498 64.2195C82.9696 64.1899 82.9801 64.1551 82.9801 64.1195C82.9801 64.0958 82.9755 64.0724 82.9664 64.0506C82.9574 64.0287 82.9441 64.0089 82.9274 63.9922C82.9107 63.9755 82.8908 63.9622 82.869 63.9532C82.8472 63.9441 82.8238 63.9395 82.8001 63.9395Z" fill="#1D1D2C"/>
<path d="M84.5101 63.9395C84.4745 63.9395 84.4397 63.95 84.4101 63.9698C84.3805 63.9896 84.3574 64.0177 84.3438 64.0506C84.3302 64.0835 84.3266 64.1197 84.3335 64.1546C84.3405 64.1895 84.3576 64.2216 84.3828 64.2467C84.408 64.2719 84.44 64.289 84.475 64.296C84.5099 64.3029 84.5461 64.2994 84.579 64.2858C84.6118 64.2721 84.64 64.2491 84.6597 64.2195C84.6795 64.1899 84.6901 64.1551 84.6901 64.1195C84.6901 64.0717 84.6711 64.0259 84.6374 63.9922C84.6036 63.9584 84.5578 63.9395 84.5101 63.9395Z" fill="#1D1D2C"/>
<path d="M96.4099 63.1095C96.3552 63.1082 96.3008 63.1178 96.2499 63.1378C96.199 63.1578 96.1526 63.1878 96.1135 63.226C96.0743 63.2642 96.0432 63.3098 96.022 63.3603C96.0008 63.4107 95.9898 63.4648 95.9899 63.5195C95.9805 63.5794 95.9843 63.6406 96.0009 63.6989C96.0174 63.7572 96.0464 63.8113 96.0859 63.8573C96.1253 63.9033 96.1742 63.9403 96.2293 63.9656C96.2843 63.991 96.3442 64.0041 96.4049 64.0041C96.4655 64.0041 96.5254 63.991 96.5805 63.9656C96.6355 63.9403 96.6845 63.9033 96.7239 63.8573C96.7633 63.8113 96.7923 63.7572 96.8089 63.6989C96.8254 63.6406 96.8292 63.5794 96.8199 63.5195C96.8199 63.4108 96.7767 63.3065 96.6998 63.2296C96.6229 63.1527 96.5186 63.1095 96.4099 63.1095ZM96.4099 63.7695C96.3736 63.7769 96.3361 63.7761 96.3001 63.7672C96.2641 63.7583 96.2306 63.7415 96.2019 63.7181C96.1732 63.6946 96.1501 63.6651 96.1342 63.6316C96.1184 63.5981 96.1101 63.5615 96.1101 63.5245C96.1101 63.4874 96.1184 63.4509 96.1342 63.4174C96.1501 63.3839 96.1732 63.3544 96.2019 63.3309C96.2306 63.3075 96.2641 63.2907 96.3001 63.2818C96.3361 63.2729 96.3736 63.2721 96.4099 63.2795C96.4664 63.291 96.5172 63.3216 96.5537 63.3663C96.5902 63.4109 96.6101 63.4668 96.6101 63.5245C96.6101 63.5822 96.5902 63.6381 96.5537 63.6827C96.5172 63.7274 96.4664 63.758 96.4099 63.7695Z" fill="#1D1D2C"/>
<path d="M96.5801 63.7999L96.9601 64.1699L97.0801 64.0499L96.7101 63.6699L96.5801 63.7999Z" fill="#1D1D2C"/>
<path d="M72.1801 70.7194C71.4259 70.7194 70.7025 70.4205 70.1684 69.8882C69.6342 69.3559 69.3327 68.6335 69.3301 67.8794C69.3341 67.3181 69.5038 66.7705 69.8178 66.3052C70.1319 65.84 70.5763 65.4779 71.0954 65.2643C71.6145 65.0506 72.1851 64.9951 72.7356 65.1045C73.2862 65.2139 73.7922 65.4835 74.1901 65.8794C74.4534 66.1416 74.6623 66.4533 74.8047 66.7965C74.9471 67.1398 75.0203 67.5078 75.0201 67.8794C75.0231 68.2514 74.9512 68.6202 74.8086 68.9638C74.666 69.3075 74.4556 69.6188 74.1901 69.8794C73.9282 70.1431 73.6165 70.3523 73.2732 70.4948C72.9299 70.6372 72.5618 70.7102 72.1901 70.7094L72.1801 70.7194Z" fill="white"/>
<path d="M72.1799 65.1299C72.8741 65.172 73.5261 65.4774 74.0027 65.9838C74.4794 66.4902 74.7448 67.1594 74.7448 67.8549C74.7448 68.5503 74.4794 69.2196 74.0027 69.726C73.5261 70.2324 72.8741 70.5378 72.1799 70.5799C71.4858 70.5378 70.8338 70.2324 70.3571 69.726C69.8805 69.2196 69.6151 68.5503 69.6151 67.8549C69.6151 67.1594 69.8805 66.4902 70.3571 65.9838C70.8338 65.4774 71.4858 65.172 72.1799 65.1299ZM72.1799 64.8799C71.3843 64.8799 70.6212 65.196 70.0586 65.7586C69.496 66.3212 69.1799 67.0842 69.1799 67.8799C69.1799 68.4732 69.3559 69.0532 69.6855 69.5466C70.0152 70.0399 70.4837 70.4245 71.0319 70.6515C71.5801 70.8786 72.1833 70.938 72.7652 70.8222C73.3471 70.7065 73.8817 70.4208 74.3013 70.0012C74.7208 69.5816 75.0065 69.0471 75.1223 68.4651C75.238 67.8832 75.1786 67.28 74.9516 66.7318C74.7245 66.1836 74.34 65.7151 73.8466 65.3855C73.3533 65.0558 72.7733 64.8799 72.1799 64.8799Z" fill="#1D1D2C"/>
<path d="M61.2813 73.0166L60.3613 73.0195L60.3642 73.9395L61.2842 73.9366L61.2813 73.0166Z" fill="white"/>
<path d="M61.15 73.1494V73.8094H60.48V73.1394L61.15 73.1494ZM61.4 72.8994H60.24V74.0694H61.41V72.8994H61.4Z" fill="#1D1D2C"/>
<path d="M34.5801 73.0293H35.5001V73.9493H34.5801V73.0293Z" fill="white"/>
<path d="M35.3699 73.1594V73.8194H34.7099V73.1594H35.3699ZM35.6199 72.8994H34.45V74.0594H35.61V72.8994H35.6199Z" fill="#1D1D2C"/>
<path d="M60.3401 64.1692L61.2501 64.1592L61.2601 65.0792H60.3401V64.1692Z" fill="white"/>
<path d="M61.13 64.29V64.96H60.46V64.29H61.13ZM61.38 64.04H60.21V65.21H61.38V64.04Z" fill="#1D1D2C"/>
<path d="M48.3736 64.167L47.4536 64.1699L47.4565 65.0899L48.3765 65.087L48.3736 64.167Z" fill="white"/>
<path d="M48.2501 64.29V64.96H47.5801V64.3L48.2501 64.29ZM48.5001 64.04H47.3301V65.2H48.5001V64.04Z" fill="#1D1D2C"/>
<path d="M48.378 73.0327L47.458 73.0352L47.4604 73.9552L48.3804 73.9528L48.378 73.0327Z" fill="white"/>
<path d="M48.2501 73.1494V73.8194H47.5901V73.1494H48.2501ZM48.5001 72.8994H47.3301V74.0694H48.5001V72.8994Z" fill="#1D1D2C"/>
<path d="M35.4874 68.5274L34.5674 68.5303L34.5703 69.4503L35.4903 69.4474L35.4874 68.5274Z" fill="white"/>
<path d="M35.3599 68.6494V69.3194H34.6899V68.6494H35.3599ZM35.6099 68.3994H34.4399V69.5694H35.6099V68.3994Z" fill="#1D1D2C"/>
<path d="M61.2672 68.4571L60.3472 68.46L60.3501 69.38L61.2701 69.3771L61.2672 68.4571Z" fill="white"/>
<path d="M61.14 68.5791V69.2491H60.48V68.5791H61.14ZM61.39 68.3291H60.22V69.4991H61.38V68.3291H61.39Z" fill="#1D1D2C"/>
<path d="M35.4879 64.1703L34.5679 64.1729L34.5704 65.0929L35.4904 65.0903L35.4879 64.1703Z" fill="white"/>
<path d="M35.3499 64.2998V64.9698H34.6799V64.2998H35.3499ZM35.5999 64.0498H34.4299V65.2198H35.5999V64.0498Z" fill="#1D1D2C"/>
<path d="M42.0501 67.3895L40.5801 67.3995V66.4495L44.5901 66.4395V67.3895H43.1201L43.1301 71.1195L42.0601 71.1295L42.0501 67.3895Z" fill="white"/>
<path d="M44.4599 66.5693V67.2593H43V70.9893H42.18V67.2693H40.7V66.5793L44.4599 66.5693ZM44.7099 66.3193H40.45V67.5193H41.9199V71.2493H43.24V67.5193H44.7V66.3193H44.7099Z" fill="#1D1D2C"/>
<path d="M46.25 71.1592C45.9944 71.1816 45.737 71.1502 45.4943 71.0671C45.2515 70.9841 45.0288 70.8512 44.8405 70.677C44.6522 70.5027 44.5023 70.2911 44.4006 70.0555C44.299 69.82 44.2476 69.5658 44.25 69.3092C44.2459 69.062 44.2906 68.8164 44.3815 68.5864C44.4725 68.3565 44.6079 68.1468 44.78 67.9692C45.1425 67.6289 45.6229 67.4425 46.12 67.4492C46.3698 67.4348 46.6198 67.4733 46.8538 67.562C47.0877 67.6508 47.3003 67.7878 47.4777 67.9643C47.6551 68.1407 47.7933 68.3526 47.8833 68.5861C47.9733 68.8195 48.0131 69.0694 48 69.3192C48 69.3792 48 69.6692 48 69.6692H45.34C45.4156 69.8491 45.5464 70.0004 45.7136 70.101C45.8808 70.2017 46.0756 70.2466 46.27 70.2292C46.4237 70.2353 46.5771 70.2091 46.72 70.1523C46.863 70.0954 46.9924 70.0092 47.1 69.8992L47.2 69.7992L47.78 70.4692L47.71 70.5492C47.5288 70.7516 47.3044 70.9107 47.0534 71.0145C46.8024 71.1184 46.5312 71.1644 46.26 71.1492L46.25 71.1592ZM46.13 68.3292C45.951 68.3224 45.7748 68.3758 45.6298 68.481C45.4847 68.5861 45.3792 68.7369 45.33 68.9092H46.93C46.8806 68.7379 46.7746 68.5883 46.6294 68.4848C46.4841 68.3813 46.3081 68.33 46.13 68.3392V68.3292Z" fill="white"/>
<path d="M46.13 67.5693C46.3603 67.5605 46.59 67.6001 46.8041 67.6854C47.0182 67.7708 47.2121 67.9001 47.3732 68.065C47.5343 68.2299 47.6591 68.4267 47.7395 68.6427C47.8199 68.8588 47.8541 69.0893 47.84 69.3193C47.8445 69.3959 47.8445 69.4727 47.84 69.5493H45.18C45.2285 69.7949 45.3675 70.0134 45.5693 70.1615C45.7711 70.3096 46.0211 70.3766 46.27 70.3493C46.4393 70.3566 46.6083 70.3274 46.7653 70.2635C46.9223 70.1997 47.0638 70.1028 47.18 69.9793L47.61 70.4693C47.4367 70.6547 47.2255 70.8007 46.9909 70.8973C46.7562 70.9939 46.5035 71.0389 46.25 71.0293C46.0114 71.0504 45.7711 71.0211 45.5446 70.9433C45.3181 70.8656 45.1105 70.7412 44.9351 70.5781C44.7598 70.415 44.6207 70.2169 44.5268 69.9966C44.4328 69.7763 44.3862 69.5388 44.39 69.2993C44.3816 69.0686 44.4208 68.8386 44.5053 68.6237C44.5898 68.4088 44.7176 68.2136 44.8809 68.0503C45.0442 67.887 45.2394 67.7591 45.4543 67.6747C45.6692 67.5902 45.8992 67.5509 46.13 67.5593V67.5693ZM45.13 69.0293H47.05C47.0247 68.7886 46.9055 68.5675 46.7183 68.414C46.5312 68.2605 46.291 68.187 46.05 68.2093C45.81 68.1921 45.5726 68.2675 45.3865 68.42C45.2005 68.5726 45.0801 68.7907 45.05 69.0293H45.13ZM46.13 67.3193C45.5977 67.3184 45.0856 67.5226 44.7 67.8893C44.5154 68.0759 44.3707 68.2979 44.2744 68.5419C44.1782 68.786 44.1324 69.0471 44.14 69.3093C44.1395 69.5815 44.1947 69.8509 44.302 70.101C44.4093 70.3511 44.5666 70.5767 44.7641 70.7639C44.9616 70.9511 45.1953 71.0961 45.4508 71.1899C45.7063 71.2837 45.9782 71.3243 46.25 71.3093C46.5417 71.3214 46.8325 71.2695 47.102 71.1572C47.3715 71.0449 47.6131 70.875 47.81 70.6593L47.95 70.4993L47.81 70.3393L47.38 69.8493H48.08V69.6193C48.0846 69.5361 48.0846 69.4526 48.08 69.3693C48.0944 69.1029 48.0525 68.8364 47.9571 68.5872C47.8617 68.338 47.7149 68.1117 47.5262 67.9231C47.3376 67.7344 47.1113 67.5876 46.8621 67.4922C46.6129 67.3968 46.3464 67.3549 46.08 67.3693L46.13 67.3193ZM45.52 68.7793C45.5847 68.6772 45.6751 68.5939 45.7822 68.5378C45.8892 68.4816 46.0092 68.4546 46.13 68.4593C46.2527 68.4506 46.3755 68.4758 46.4849 68.5323C46.5943 68.5887 46.686 68.6742 46.75 68.7793H45.52ZM45.52 69.7793H47C46.9042 69.8744 46.7901 69.9492 46.6646 69.999C46.5392 70.0489 46.4049 70.0728 46.27 70.0693C46.1334 70.0788 45.9965 70.0567 45.8699 70.0047C45.7433 69.9526 45.6304 69.8721 45.54 69.7693L45.52 69.7793Z" fill="#1D1D2C"/>
<path d="M49.2001 69.2697L47.85 67.4797H49.0401L49.8101 68.4997L50.57 67.4697H51.7401L50.39 69.2497L51.8101 71.0997H50.6L49.7901 70.0197L48.9901 71.1097H47.8L49.2001 69.2697Z" fill="white"/>
<path d="M51.49 67.5993L50.23 69.2493L51.56 70.9793H50.66L49.79 69.8093L48.92 70.9793H48.05L49.36 69.2593L48.1 67.6093H49L49.81 68.7193L50.64 67.6093L51.49 67.5993ZM52 67.3493H50.51L50.43 67.4493L49.81 68.2893L49.18 67.4493L49.1 67.3493H47.59L47.9 67.7493L49.05 69.2593L47.85 70.8193L47.54 71.2293H49.05L49.12 71.1293L49.79 70.2293L50.46 71.1293L50.54 71.2293H52.06L51.75 70.8293L50.54 69.2593L51.69 67.7193L52 67.3193V67.3493Z" fill="#1D1D2C"/>
<path d="M53.4001 71.1397C53.2292 71.1582 53.0563 71.1385 52.894 71.0821C52.7316 71.0256 52.5839 70.9337 52.4614 70.8131C52.3389 70.6926 52.2447 70.5463 52.1857 70.3848C52.1267 70.2234 52.1043 70.0509 52.1201 69.8797V68.3797H51.5701V67.4997H52.1201V66.7197H53.1201V67.4897H54.0301V68.3697H53.1301V69.8497C53.1301 70.1897 53.3301 70.2297 53.4701 70.2297C53.6039 70.2361 53.7355 70.1935 53.8401 70.1097L53.9701 70.0097L54.2901 70.8097L54.2201 70.8697C53.978 71.0498 53.6816 71.1416 53.3801 71.1297L53.4001 71.1397Z" fill="white"/>
<path d="M52.9999 66.8498V67.6198H53.8999V68.2498H52.9999V69.8598C52.9999 70.1898 53.1599 70.3598 53.4599 70.3598C53.5547 70.3754 53.6517 70.371 53.7447 70.3468C53.8377 70.3227 53.9246 70.2795 53.9999 70.2198L54.2199 70.7898C53.9962 70.9427 53.7309 71.023 53.4599 71.0198C53.3044 71.0384 53.1467 71.022 52.9984 70.9717C52.85 70.9214 52.7148 70.8386 52.6027 70.7293C52.4905 70.62 52.4042 70.487 52.3501 70.34C52.296 70.193 52.2754 70.0358 52.2899 69.8798V68.2498H51.7299V67.6198H52.2899V66.8498H52.9999ZM53.2499 66.5998H51.9999V67.3698H51.4399V68.5098H51.9999V69.8898C51.986 70.0785 52.0134 70.268 52.0803 70.4451C52.1471 70.6221 52.2518 70.7824 52.387 70.9147C52.5223 71.0471 52.6847 71.1483 52.8631 71.2114C53.0416 71.2745 53.2316 71.2978 53.4199 71.2798C53.7494 71.2821 54.0713 71.1807 54.3399 70.9898L54.4799 70.8698L54.3999 70.7198L54.1799 70.1598L54.0599 69.8498L53.7899 70.0598C53.7038 70.1156 53.6025 70.1436 53.4999 70.1398C53.3799 70.1398 53.2899 70.1398 53.2899 69.8898V68.4998H54.1999V67.3598H53.2999V66.5898L53.2499 66.5998Z" fill="#1D1D2C"/>
<path d="M59.5501 73.6096H59.0501C59.0157 73.6096 58.9826 73.5959 58.9582 73.5715C58.9338 73.5472 58.9201 73.5141 58.9201 73.4796C58.9201 73.4451 58.9338 73.4121 58.9582 73.3877C58.9826 73.3633 59.0157 73.3496 59.0501 73.3496H59.5501C59.5846 73.3496 59.6177 73.3633 59.6421 73.3877C59.6664 73.4121 59.6801 73.4451 59.6801 73.4796C59.6801 73.5141 59.6664 73.5472 59.6421 73.5715C59.6177 73.5959 59.5846 73.6096 59.5501 73.6096ZM58.0401 73.6096H57.5301C57.4957 73.6096 57.4626 73.5959 57.4382 73.5715C57.4138 73.5472 57.4001 73.5141 57.4001 73.4796C57.4001 73.463 57.4035 73.4465 57.4101 73.4313C57.4168 73.416 57.4265 73.4023 57.4388 73.391C57.451 73.3797 57.4654 73.3711 57.4811 73.3657C57.4969 73.3603 57.5136 73.3582 57.5301 73.3596H58.0001C58.0159 73.3596 58.0315 73.3627 58.0461 73.3687C58.0606 73.3748 58.0739 73.3836 58.085 73.3948C58.0961 73.4059 58.105 73.4191 58.111 73.4337C58.117 73.4483 58.1201 73.4639 58.1201 73.4796C58.1215 73.4962 58.1195 73.5129 58.114 73.5286C58.1086 73.5443 58.1 73.5588 58.0887 73.571C58.0775 73.5832 58.0638 73.593 58.0485 73.5996C58.0332 73.6063 58.0168 73.6097 58.0001 73.6096H58.0401ZM56.5201 73.6096H56.0001C55.9835 73.6097 55.967 73.6063 55.9518 73.5996C55.9365 73.593 55.9228 73.5832 55.9116 73.571C55.9003 73.5588 55.8916 73.5443 55.8862 73.5286C55.8808 73.5129 55.8788 73.4962 55.8801 73.4796C55.8801 73.4639 55.8832 73.4483 55.8893 73.4337C55.8953 73.4191 55.9041 73.4059 55.9153 73.3948C55.9264 73.3836 55.9397 73.3748 55.9542 73.3687C55.9688 73.3627 55.9844 73.3596 56.0001 73.3596H56.5101C56.5267 73.3582 56.5434 73.3603 56.5591 73.3657C56.5749 73.3711 56.5893 73.3797 56.6015 73.391C56.6138 73.4023 56.6235 73.416 56.6302 73.4313C56.6368 73.4465 56.6402 73.463 56.6401 73.4796C56.6402 73.5124 56.6279 73.5441 56.6057 73.5682C56.5834 73.5923 56.5529 73.6071 56.5201 73.6096ZM55.0001 73.6096H54.5001C54.4657 73.6096 54.4326 73.5959 54.4082 73.5715C54.3838 73.5472 54.3701 73.5141 54.3701 73.4796C54.3701 73.463 54.3735 73.4465 54.3801 73.4313C54.3868 73.416 54.3965 73.4023 54.4088 73.391C54.421 73.3797 54.4354 73.3711 54.4511 73.3657C54.4669 73.3603 54.4836 73.3582 54.5001 73.3596H55.0001C55.0167 73.3582 55.0334 73.3603 55.0491 73.3657C55.0649 73.3711 55.0793 73.3797 55.0915 73.391C55.1038 73.4023 55.1135 73.416 55.1202 73.4313C55.1268 73.4465 55.1302 73.463 55.1301 73.4796C55.1301 73.5141 55.1164 73.5472 55.0921 73.5715C55.0677 73.5959 55.0346 73.6096 55.0001 73.6096ZM53.4801 73.6096H53.0001C52.9831 73.6096 52.9662 73.6062 52.9504 73.5997C52.9346 73.5932 52.9203 73.5836 52.9082 73.5715C52.8962 73.5595 52.8866 73.5451 52.88 73.5294C52.8735 73.5136 52.8701 73.4967 52.8701 73.4796C52.8701 73.463 52.8735 73.4465 52.8801 73.4313C52.8868 73.416 52.8965 73.4023 52.9088 73.391C52.921 73.3797 52.9354 73.3711 52.9511 73.3657C52.9669 73.3603 52.9836 73.3582 53.0001 73.3596H53.5001C53.5167 73.3582 53.5334 73.3603 53.5491 73.3657C53.5649 73.3711 53.5793 73.3797 53.5915 73.391C53.6038 73.4023 53.6135 73.416 53.6202 73.4313C53.6268 73.4465 53.6302 73.463 53.6301 73.4796C53.6304 73.4985 53.6265 73.5172 53.6187 73.5345C53.611 73.5517 53.5996 73.567 53.5853 73.5794C53.571 73.5918 53.5542 73.6009 53.5361 73.6061C53.5179 73.6113 53.4988 73.6125 53.4801 73.6096ZM51.9701 73.6096H51.4601C51.4257 73.6096 51.3926 73.5959 51.3682 73.5715C51.3438 73.5472 51.3301 73.5141 51.3301 73.4796C51.3301 73.463 51.3335 73.4465 51.3401 73.4313C51.3468 73.416 51.3565 73.4023 51.3688 73.391C51.381 73.3797 51.3954 73.3711 51.4111 73.3657C51.4269 73.3603 51.4436 73.3582 51.4601 73.3596H52.0001C52.0159 73.3596 52.0315 73.3627 52.0461 73.3687C52.0606 73.3748 52.0739 73.3836 52.085 73.3948C52.0961 73.4059 52.105 73.4191 52.111 73.4337C52.117 73.4483 52.1201 73.4639 52.1201 73.4796C52.1215 73.4962 52.1195 73.5129 52.114 73.5286C52.1086 73.5443 52.1 73.5588 52.0887 73.571C52.0775 73.5832 52.0638 73.593 52.0485 73.5996C52.0332 73.6063 52.0168 73.6097 52.0001 73.6096H51.9701ZM50.4501 73.6096H49.9401C49.9083 73.6096 49.8778 73.597 49.8553 73.5745C49.8328 73.552 49.8201 73.5214 49.8201 73.4896C49.8188 73.473 49.8208 73.4563 49.8262 73.4406C49.8316 73.4249 49.8403 73.4104 49.8516 73.3982C49.8628 73.386 49.8765 73.3763 49.8918 73.3696C49.907 73.363 49.9235 73.3596 49.9401 73.3596H50.4501C50.4667 73.3582 50.4834 73.3603 50.4991 73.3657C50.5149 73.3711 50.5293 73.3797 50.5415 73.391C50.5538 73.4023 50.5635 73.416 50.5702 73.4313C50.5768 73.4465 50.5802 73.463 50.5801 73.4796C50.5801 73.5141 50.5664 73.5472 50.5421 73.5715C50.5177 73.5959 50.4846 73.6096 50.4501 73.6096ZM48.9301 73.6096H48.4301C48.4136 73.611 48.3969 73.6089 48.3811 73.6035C48.3654 73.5981 48.351 73.5895 48.3387 73.5782C48.3265 73.5669 48.3168 73.5532 48.3101 73.538C48.3035 73.5227 48.3001 73.5062 48.3001 73.4896C48.2988 73.473 48.3008 73.4563 48.3062 73.4406C48.3116 73.4249 48.3203 73.4104 48.3316 73.3982C48.3428 73.386 48.3565 73.3763 48.3718 73.3696C48.387 73.363 48.4035 73.3596 48.4201 73.3596H48.9301C48.9646 73.3596 48.9977 73.3733 49.0221 73.3977C49.0464 73.4221 49.0601 73.4551 49.0601 73.4896C49.0602 73.5062 49.0568 73.5227 49.0502 73.538C49.0435 73.5532 49.0338 73.5669 49.0215 73.5782C49.0093 73.5895 48.9949 73.5981 48.9791 73.6035C48.9634 73.6089 48.9467 73.611 48.9301 73.6096ZM47.4101 73.6096H46.9101C46.8936 73.611 46.8769 73.6089 46.8611 73.6035C46.8454 73.5981 46.831 73.5895 46.8188 73.5782C46.8065 73.5669 46.7968 73.5532 46.7901 73.538C46.7835 73.5227 46.7801 73.5062 46.7801 73.4896C46.7801 73.4551 46.7938 73.4221 46.8182 73.3977C46.8426 73.3733 46.8757 73.3596 46.9101 73.3596H47.4101C47.4446 73.3596 47.4777 73.3733 47.5021 73.3977C47.5264 73.4221 47.5401 73.4551 47.5401 73.4896C47.5402 73.5062 47.5368 73.5227 47.5302 73.538C47.5235 73.5532 47.5138 73.5669 47.5015 73.5782C47.4893 73.5895 47.4749 73.5981 47.4591 73.6035C47.4434 73.6089 47.4267 73.611 47.4101 73.6096ZM45.9001 73.6096H45.3901C45.3736 73.611 45.3569 73.6089 45.3411 73.6035C45.3254 73.5981 45.311 73.5895 45.2988 73.5782C45.2865 73.5669 45.2768 73.5532 45.2701 73.538C45.2635 73.5227 45.2601 73.5062 45.2601 73.4896C45.2601 73.4551 45.2738 73.4221 45.2982 73.3977C45.3226 73.3733 45.3557 73.3596 45.3901 73.3596H45.9001C45.9168 73.3596 45.9333 73.363 45.9485 73.3696C45.9638 73.3763 45.9775 73.386 45.9887 73.3982C46 73.4104 46.0086 73.4249 46.014 73.4406C46.0195 73.4563 46.0215 73.473 46.0201 73.4896C46.0201 73.5214 46.0075 73.552 45.985 73.5745C45.9625 73.597 45.932 73.6096 45.9001 73.6096ZM44.3801 73.6096H43.8701C43.8383 73.6096 43.8078 73.597 43.7853 73.5745C43.7628 73.552 43.7501 73.5214 43.7501 73.4896C43.7488 73.473 43.7508 73.4563 43.7562 73.4406C43.7616 73.4249 43.7703 73.4104 43.7816 73.3982C43.7928 73.386 43.8065 73.3763 43.8218 73.3696C43.837 73.363 43.8535 73.3596 43.8701 73.3596H44.3801C44.3968 73.3596 44.4132 73.363 44.4285 73.3696C44.4438 73.3763 44.4575 73.386 44.4687 73.3982C44.48 73.4104 44.4886 73.4249 44.494 73.4406C44.4995 73.4563 44.5015 73.473 44.5001 73.4896C44.5001 73.5214 44.4875 73.552 44.465 73.5745C44.4425 73.597 44.412 73.6096 44.3801 73.6096ZM42.8601 73.6096H42.3501C42.3183 73.6096 42.2878 73.597 42.2653 73.5745C42.2428 73.552 42.2301 73.5214 42.2301 73.4896C42.2288 73.473 42.2308 73.4563 42.2362 73.4406C42.2416 73.4249 42.2503 73.4104 42.2616 73.3982C42.2728 73.386 42.2865 73.3763 42.3018 73.3696C42.317 73.363 42.3335 73.3596 42.3501 73.3596H42.8601C42.8946 73.3596 42.9277 73.3733 42.9521 73.3977C42.9764 73.4221 42.9901 73.4551 42.9901 73.4896C42.9902 73.5062 42.9868 73.5227 42.9802 73.538C42.9735 73.5532 42.9638 73.5669 42.9515 73.5782C42.9393 73.5895 42.9249 73.5981 42.9091 73.6035C42.8934 73.6089 42.8767 73.611 42.8601 73.6096ZM41.3401 73.6096H40.8401C40.8236 73.611 40.8069 73.6089 40.7911 73.6035C40.7754 73.5981 40.761 73.5895 40.7487 73.5782C40.7365 73.5669 40.7268 73.5532 40.7201 73.538C40.7135 73.5227 40.7101 73.5062 40.7101 73.4896C40.7101 73.4551 40.7238 73.4221 40.7482 73.3977C40.7726 73.3733 40.8057 73.3596 40.8401 73.3596H41.3401C41.3746 73.3596 41.4077 73.3733 41.4321 73.3977C41.4564 73.4221 41.4701 73.4551 41.4701 73.4896C41.4702 73.5062 41.4668 73.5227 41.4602 73.538C41.4535 73.5532 41.4438 73.5669 41.4315 73.5782C41.4193 73.5895 41.4049 73.5981 41.3891 73.6035C41.3734 73.6089 41.3567 73.611 41.3401 73.6096ZM39.8301 73.6096H39.3201C39.2857 73.6096 39.2526 73.5959 39.2282 73.5715C39.2038 73.5472 39.1901 73.5141 39.1901 73.4796C39.1901 73.4451 39.2038 73.4121 39.2282 73.3877C39.2526 73.3633 39.2857 73.3496 39.3201 73.3496H39.8301C39.8646 73.3496 39.8977 73.3633 39.9221 73.3877C39.9464 73.4121 39.9601 73.4451 39.9601 73.4796C39.9601 73.5141 39.9464 73.5472 39.9221 73.5715C39.8977 73.5959 39.8646 73.6096 39.8301 73.6096ZM38.3101 73.6096H37.8001C37.7657 73.6096 37.7326 73.5959 37.7082 73.5715C37.6838 73.5472 37.6701 73.5141 37.6701 73.4796C37.6701 73.4451 37.6838 73.4121 37.7082 73.3877C37.7326 73.3633 37.7657 73.3496 37.8001 73.3496H38.3101C38.3446 73.3496 38.3777 73.3633 38.4021 73.3877C38.4264 73.4121 38.4401 73.4451 38.4401 73.4796C38.4401 73.5141 38.4264 73.5472 38.4021 73.5715C38.3777 73.5959 38.3446 73.6096 38.3101 73.6096ZM36.7901 73.6096H36.2801C36.2457 73.6096 36.2126 73.5959 36.1882 73.5715C36.1638 73.5472 36.1501 73.5141 36.1501 73.4796C36.1501 73.4451 36.1638 73.4121 36.1882 73.3877C36.2126 73.3633 36.2457 73.3496 36.2801 73.3496H36.7901C36.8246 73.3496 36.8577 73.3633 36.8821 73.3877C36.9064 73.4121 36.9201 73.4451 36.9201 73.4796C36.9201 73.5141 36.9064 73.5472 36.8821 73.5715C36.8577 73.5959 36.8246 73.6096 36.7901 73.6096Z" fill="#1D1D2C"/>
<path d="M35.0001 72.3798C34.983 72.3798 34.9661 72.3764 34.9504 72.3699C34.9346 72.3633 34.9203 72.3538 34.9082 72.3417C34.8961 72.3296 34.8865 72.3153 34.88 72.2995C34.8735 72.2838 34.8701 72.2668 34.8701 72.2498V71.7198C34.8701 71.7027 34.8735 71.6858 34.88 71.67C34.8865 71.6543 34.8961 71.6399 34.9082 71.6278C34.9203 71.6158 34.9346 71.6062 34.9504 71.5997C34.9661 71.5931 34.983 71.5898 35.0001 71.5898C35.0168 71.5897 35.0332 71.5931 35.0485 71.5998C35.0637 71.6064 35.0774 71.6162 35.0887 71.6284C35.1 71.6406 35.1086 71.655 35.114 71.6708C35.1194 71.6865 35.1215 71.7032 35.1201 71.7198V72.2098C35.129 72.2289 35.1327 72.2501 35.1308 72.2711C35.1289 72.2921 35.1215 72.3122 35.1093 72.3295C35.0971 72.3467 35.0806 72.3605 35.0615 72.3693C35.0423 72.3781 35.0211 72.3817 35.0001 72.3798ZM35.0001 70.9098C34.9656 70.9098 34.9326 70.8961 34.9082 70.8717C34.8838 70.8473 34.8701 70.8142 34.8701 70.7798V70.2898C34.8701 70.2727 34.8735 70.2558 34.88 70.24C34.8865 70.2242 34.8961 70.2099 34.9082 70.1978C34.9203 70.1858 34.9346 70.1762 34.9504 70.1697C34.9661 70.1631 34.983 70.1598 35.0001 70.1598C35.0168 70.1597 35.0332 70.1631 35.0485 70.1698C35.0637 70.1764 35.0774 70.1862 35.0887 70.1984C35.1 70.2106 35.1086 70.225 35.114 70.2408C35.1194 70.2565 35.1215 70.2732 35.1201 70.2898V70.7798C35.1215 70.7964 35.1194 70.813 35.114 70.8288C35.1086 70.8445 35.1 70.8589 35.0887 70.8712C35.0774 70.8834 35.0637 70.8931 35.0485 70.8998C35.0332 70.9064 35.0168 70.9098 35.0001 70.9098ZM35.0001 67.9098C34.9656 67.9098 34.9326 67.8961 34.9082 67.8717C34.8838 67.8473 34.8701 67.8142 34.8701 67.7798V67.2898C34.8701 67.2727 34.8735 67.2558 34.88 67.24C34.8865 67.2242 34.8961 67.2099 34.9082 67.1978C34.9203 67.1858 34.9346 67.1762 34.9504 67.1697C34.9661 67.1631 34.983 67.1598 35.0001 67.1598C35.0168 67.1597 35.0332 67.1631 35.0485 67.1698C35.0637 67.1764 35.0774 67.1862 35.0887 67.1984C35.1 67.2106 35.1086 67.225 35.114 67.2408C35.1194 67.2565 35.1215 67.2732 35.1201 67.2898V67.7798C35.1316 67.7992 35.1374 67.8215 35.1368 67.8441C35.1362 67.8667 35.1293 67.8887 35.1167 67.9075C35.1042 67.9263 35.0866 67.9412 35.066 67.9505C35.0453 67.9597 35.0225 67.9629 35.0001 67.9598V67.9098ZM35.0001 66.4398C34.983 66.4398 34.9661 66.4364 34.9504 66.4299C34.9346 66.4233 34.9203 66.4138 34.9082 66.4017C34.8961 66.3896 34.8865 66.3753 34.88 66.3595C34.8735 66.3437 34.8701 66.3268 34.8701 66.3098V65.8198C34.877 65.7907 34.8937 65.7649 34.9174 65.7467C34.941 65.7285 34.9703 65.719 35.0001 65.7198C35.0168 65.7197 35.0332 65.7231 35.0485 65.7298C35.0637 65.7364 35.0774 65.7462 35.0887 65.7584C35.1 65.7706 35.1086 65.785 35.114 65.8008C35.1194 65.8165 35.1215 65.8332 35.1201 65.8498V66.3398C35.1248 66.3578 35.1252 66.3767 35.1213 66.3949C35.1174 66.4132 35.1093 66.4302 35.0976 66.4448C35.086 66.4594 35.0711 66.471 35.0542 66.4788C35.0373 66.4866 35.0188 66.4904 35.0001 66.4898V66.4398Z" fill="#1D1D2C"/>
<path d="M59.5501 64.72H59.0501C59.0157 64.72 58.9826 64.7063 58.9582 64.6819C58.9338 64.6575 58.9201 64.6244 58.9201 64.59C58.9201 64.5733 58.9235 64.5569 58.9301 64.5416C58.9368 64.5264 58.9465 64.5127 58.9588 64.5014C58.971 64.4901 58.9854 64.4815 59.0011 64.4761C59.0169 64.4707 59.0336 64.4686 59.0501 64.47H59.5501C59.5667 64.4686 59.5834 64.4707 59.5991 64.4761C59.6149 64.4815 59.6293 64.4901 59.6415 64.5014C59.6538 64.5127 59.6635 64.5264 59.6702 64.5416C59.6768 64.5569 59.6802 64.5733 59.6801 64.59C59.6801 64.6244 59.6664 64.6575 59.6421 64.6819C59.6177 64.7063 59.5846 64.72 59.5501 64.72ZM58.0001 64.72H57.5001C57.4836 64.7214 57.4669 64.7193 57.4511 64.7139C57.4354 64.7085 57.421 64.6998 57.4088 64.6886C57.3965 64.6773 57.3868 64.6636 57.3801 64.6483C57.3735 64.6331 57.3701 64.6166 57.3701 64.6C57.3701 64.5655 57.3838 64.5324 57.4082 64.508C57.4326 64.4837 57.4657 64.47 57.5001 64.47H58.0001C58.0167 64.4686 58.0334 64.4707 58.0491 64.4761C58.0649 64.4815 58.0793 64.4901 58.0915 64.5014C58.1038 64.5127 58.1135 64.5264 58.1202 64.5416C58.1268 64.5569 58.1302 64.5733 58.1301 64.59C58.1301 64.6244 58.1164 64.6575 58.0921 64.6819C58.0677 64.7063 58.0346 64.72 58.0001 64.72ZM56.4901 64.72H56.0001C55.9836 64.7214 55.9669 64.7193 55.9511 64.7139C55.9354 64.7085 55.921 64.6998 55.9088 64.6886C55.8965 64.6773 55.8868 64.6636 55.8801 64.6483C55.8735 64.6331 55.8701 64.6166 55.8701 64.6C55.8701 64.5655 55.8838 64.5324 55.9082 64.508C55.9326 64.4837 55.9657 64.47 56.0001 64.47H56.5101C56.5268 64.4699 56.5432 64.4733 56.5585 64.48C56.5737 64.4866 56.5875 64.4963 56.5987 64.5086C56.61 64.5208 56.6186 64.5352 56.6241 64.551C56.6295 64.5667 56.6315 64.5834 56.6301 64.6C56.6303 64.6301 56.619 64.6592 56.5986 64.6815C56.5782 64.7037 56.5502 64.7175 56.5201 64.72H56.4901ZM55.0001 64.72H54.4901C54.4583 64.72 54.4278 64.7073 54.4053 64.6848C54.3828 64.6623 54.3701 64.6318 54.3701 64.6C54.3688 64.5834 54.3708 64.5667 54.3762 64.551C54.3816 64.5352 54.3903 64.5208 54.4016 64.5086C54.4128 64.4963 54.4265 64.4866 54.4418 64.48C54.457 64.4733 54.4735 64.4699 54.4901 64.47H55.0001C55.0346 64.47 55.0677 64.4837 55.0921 64.508C55.1164 64.5324 55.1301 64.5655 55.1301 64.6C55.1302 64.6166 55.1268 64.6331 55.1202 64.6483C55.1135 64.6636 55.1038 64.6773 55.0915 64.6886C55.0793 64.6998 55.0649 64.7085 55.0491 64.7139C55.0334 64.7193 55.0167 64.7214 55.0001 64.72ZM53.4801 64.72H53.0001C52.9836 64.7214 52.9669 64.7193 52.9511 64.7139C52.9354 64.7085 52.921 64.6998 52.9088 64.6886C52.8965 64.6773 52.8868 64.6636 52.8801 64.6483C52.8735 64.6331 52.8701 64.6166 52.8701 64.6C52.8701 64.5655 52.8838 64.5324 52.9082 64.508C52.9326 64.4837 52.9657 64.47 53.0001 64.47H53.5001C53.5346 64.47 53.5677 64.4837 53.5921 64.508C53.6164 64.5324 53.6301 64.5655 53.6301 64.6C53.6307 64.6186 53.627 64.6371 53.6192 64.654C53.6114 64.671 53.5997 64.6858 53.5852 64.6975C53.5706 64.7091 53.5535 64.7172 53.5353 64.7211C53.5171 64.725 53.4982 64.7246 53.4801 64.72ZM52.0001 64.72H51.5001C51.4836 64.7214 51.4669 64.7193 51.4511 64.7139C51.4354 64.7085 51.421 64.6998 51.4088 64.6886C51.3965 64.6773 51.3868 64.6636 51.3801 64.6483C51.3735 64.6331 51.3701 64.6166 51.3701 64.6C51.3701 64.5655 51.3838 64.5324 51.4082 64.508C51.4326 64.4837 51.4657 64.47 51.5001 64.47H52.0001C52.0346 64.47 52.0677 64.4837 52.0921 64.508C52.1164 64.5324 52.1301 64.5655 52.1301 64.6C52.1302 64.6166 52.1268 64.6331 52.1202 64.6483C52.1135 64.6636 52.1038 64.6773 52.0915 64.6886C52.0793 64.6998 52.0649 64.7085 52.0491 64.7139C52.0334 64.7193 52.0167 64.7214 52.0001 64.72ZM50.4901 64.72H49.9801C49.9636 64.7214 49.9469 64.7193 49.9311 64.7139C49.9154 64.7085 49.901 64.6998 49.8888 64.6886C49.8765 64.6773 49.8668 64.6636 49.8601 64.6483C49.8535 64.6331 49.8501 64.6166 49.8501 64.6C49.8501 64.5655 49.8638 64.5324 49.8882 64.508C49.9126 64.4837 49.9457 64.47 49.9801 64.47H50.4901C50.5068 64.4699 50.5233 64.4733 50.5385 64.48C50.5538 64.4866 50.5675 64.4963 50.5787 64.5086C50.59 64.5208 50.5986 64.5352 50.604 64.551C50.6095 64.5667 50.6115 64.5834 50.6101 64.6C50.6113 64.6197 50.6075 64.6395 50.5992 64.6574C50.5908 64.6754 50.5782 64.691 50.5623 64.7029C50.5465 64.7148 50.528 64.7226 50.5084 64.7255C50.4888 64.7285 50.4688 64.7266 50.4501 64.72H50.4901ZM48.9701 64.72H48.4601C48.4257 64.72 48.3926 64.7063 48.3682 64.6819C48.3438 64.6575 48.3301 64.6244 48.3301 64.59C48.3301 64.5555 48.3438 64.5224 48.3682 64.498C48.3926 64.4737 48.4257 64.46 48.4601 64.46H48.9701C49.0046 64.46 49.0377 64.4737 49.0621 64.498C49.0864 64.5224 49.1001 64.5555 49.1001 64.59C49.1001 64.6244 49.0864 64.6575 49.0621 64.6819C49.0377 64.7063 49.0046 64.72 48.9701 64.72ZM47.4501 64.72H46.9501C46.9157 64.72 46.8826 64.7063 46.8582 64.6819C46.8338 64.6575 46.8201 64.6244 46.8201 64.59C46.8188 64.5734 46.8208 64.5567 46.8262 64.541C46.8316 64.5252 46.8403 64.5108 46.8516 64.4986C46.8628 64.4863 46.8765 64.4766 46.8918 64.47C46.907 64.4633 46.9235 64.4599 46.9401 64.46H47.4501C47.4846 64.46 47.5177 64.4737 47.5421 64.498C47.5664 64.5224 47.5801 64.5555 47.5801 64.59C47.5801 64.6244 47.5664 64.6575 47.5421 64.6819C47.5177 64.7063 47.4846 64.72 47.4501 64.72ZM45.9301 64.72H45.4301C45.3957 64.72 45.3626 64.7063 45.3382 64.6819C45.3138 64.6575 45.3001 64.6244 45.3001 64.59C45.3001 64.5555 45.3138 64.5224 45.3382 64.498C45.3626 64.4737 45.3957 64.46 45.4301 64.46H45.9301C45.9646 64.46 45.9977 64.4737 46.0221 64.498C46.0464 64.5224 46.0601 64.5555 46.0601 64.59C46.0601 64.6244 46.0464 64.6575 46.0221 64.6819C45.9977 64.7063 45.9646 64.72 45.9301 64.72ZM44.4101 64.72H43.9101C43.8757 64.72 43.8426 64.7063 43.8182 64.6819C43.7938 64.6575 43.7801 64.6244 43.7801 64.59C43.7801 64.5555 43.7938 64.5224 43.8182 64.498C43.8426 64.4737 43.8757 64.46 43.9101 64.46H44.4101C44.4446 64.46 44.4777 64.4737 44.5021 64.498C44.5264 64.5224 44.5401 64.5555 44.5401 64.59C44.5401 64.6244 44.5264 64.6575 44.5021 64.6819C44.4777 64.7063 44.4446 64.72 44.4101 64.72ZM42.9001 64.72H42.3901C42.3557 64.72 42.3226 64.7063 42.2982 64.6819C42.2738 64.6575 42.2601 64.6244 42.2601 64.59C42.2601 64.5555 42.2738 64.5224 42.2982 64.498C42.3226 64.4737 42.3557 64.46 42.3901 64.46H42.9001C42.9346 64.46 42.9677 64.4737 42.9921 64.498C43.0164 64.5224 43.0301 64.5555 43.0301 64.59C43.0301 64.6244 43.0164 64.6575 42.9921 64.6819C42.9677 64.7063 42.9346 64.72 42.9001 64.72ZM41.3801 64.72H40.8701C40.8357 64.72 40.8026 64.7063 40.7782 64.6819C40.7538 64.6575 40.7401 64.6244 40.7401 64.59C40.7401 64.5555 40.7538 64.5224 40.7782 64.498C40.8026 64.4737 40.8357 64.46 40.8701 64.46H41.3801C41.4146 64.46 41.4477 64.4737 41.4721 64.498C41.4964 64.5224 41.5101 64.5555 41.5101 64.59C41.5101 64.6244 41.4964 64.6575 41.4721 64.6819C41.4477 64.7063 41.4146 64.72 41.3801 64.72ZM39.8601 64.72H39.3601C39.3257 64.72 39.2926 64.7063 39.2682 64.6819C39.2438 64.6575 39.2301 64.6244 39.2301 64.59C39.2301 64.5555 39.2438 64.5224 39.2682 64.498C39.2926 64.4737 39.3257 64.46 39.3601 64.46H39.8601C39.8946 64.46 39.9277 64.4737 39.9521 64.498C39.9764 64.5224 39.9901 64.5555 39.9901 64.59C39.9901 64.6244 39.9764 64.6575 39.9521 64.6819C39.9277 64.7063 39.8946 64.72 39.8601 64.72ZM38.3001 64.72H37.8001C37.7657 64.72 37.7326 64.7063 37.7082 64.6819C37.6838 64.6575 37.6701 64.6244 37.6701 64.59C37.6701 64.5555 37.6838 64.5224 37.7082 64.498C37.7326 64.4737 37.7657 64.46 37.8001 64.46H38.3001C38.3346 64.46 38.3677 64.4737 38.3921 64.498C38.4164 64.5224 38.4301 64.5555 38.4301 64.59C38.4301 64.6244 38.4164 64.6575 38.3921 64.6819C38.3677 64.7063 38.3346 64.72 38.3001 64.72ZM36.7901 64.72H36.2801C36.2457 64.72 36.2126 64.7063 36.1882 64.6819C36.1638 64.6575 36.1501 64.6244 36.1501 64.59C36.1501 64.5555 36.1638 64.5224 36.1882 64.498C36.2126 64.4737 36.2457 64.46 36.2801 64.46H36.7901C36.8246 64.46 36.8577 64.4737 36.8821 64.498C36.9064 64.5224 36.9201 64.5555 36.9201 64.59C36.9201 64.6244 36.9064 64.6575 36.8821 64.6819C36.8577 64.7063 36.8246 64.72 36.7901 64.72Z" fill="#1D1D2C"/>
<path d="M60.8199 72.3697C60.7855 72.3697 60.7524 72.356 60.728 72.3316C60.7036 72.3072 60.6899 72.2742 60.6899 72.2397V71.7197C60.6899 71.6786 60.7063 71.6392 60.7353 71.6101C60.7644 71.581 60.8038 71.5647 60.8449 71.5647C60.8861 71.5647 60.9255 71.581 60.9545 71.6101C60.9836 71.6392 60.9999 71.6786 60.9999 71.7197V72.2097C61.0086 72.2341 61.0097 72.2604 61.0033 72.2855C60.9968 72.3105 60.9831 72.3331 60.9638 72.3502C60.9444 72.3674 60.9204 72.3784 60.8948 72.3819C60.8692 72.3854 60.8431 72.3811 60.8199 72.3697ZM60.8199 70.8997C60.7855 70.8997 60.7524 70.886 60.728 70.8616C60.7036 70.8372 60.6899 70.8042 60.6899 70.7697V70.2797C60.6899 70.2626 60.6933 70.2457 60.6998 70.2299C60.7064 70.2142 60.7159 70.1998 60.728 70.1878C60.7401 70.1757 60.7544 70.1661 60.7702 70.1596C60.786 70.1531 60.8029 70.1497 60.8199 70.1497C60.837 70.1497 60.8539 70.1531 60.8697 70.1596C60.8855 70.1661 60.8998 70.1757 60.9119 70.1878C60.9239 70.1998 60.9335 70.2142 60.94 70.2299C60.9466 70.2457 60.9499 70.2626 60.9499 70.2797V70.7697C60.9499 70.8042 60.9362 70.8372 60.9119 70.8616C60.8875 70.886 60.8544 70.8997 60.8199 70.8997ZM60.8199 67.8997C60.7855 67.8997 60.7524 67.886 60.728 67.8616C60.7036 67.8372 60.6899 67.8042 60.6899 67.7697V67.2797C60.6899 67.2452 60.7036 67.2121 60.728 67.1878C60.7524 67.1634 60.7855 67.1497 60.8199 67.1497C60.8544 67.1497 60.8875 67.1634 60.9119 67.1878C60.9362 67.2121 60.9499 67.2452 60.9499 67.2797V67.7697C60.9586 67.7902 60.9618 67.8127 60.9593 67.8348C60.9567 67.857 60.9486 67.8781 60.9355 67.8962C60.9224 67.9143 60.905 67.9287 60.8847 67.9381C60.8645 67.9474 60.8422 67.9514 60.8199 67.9497V67.8997ZM60.8199 66.4297C60.7855 66.4297 60.7524 66.416 60.728 66.3916C60.7036 66.3672 60.6899 66.3342 60.6899 66.2997V65.8097C60.6899 65.7926 60.6933 65.7757 60.6998 65.7599C60.7064 65.7442 60.7159 65.7298 60.728 65.7178C60.7401 65.7057 60.7544 65.6961 60.7702 65.6896C60.786 65.683 60.8029 65.6797 60.8199 65.6797C60.837 65.6797 60.8539 65.683 60.8697 65.6896C60.8855 65.6961 60.8998 65.7057 60.9119 65.7178C60.9239 65.7298 60.9335 65.7442 60.94 65.7599C60.9466 65.7757 60.9499 65.7926 60.9499 65.8097V66.2997C60.9586 66.3202 60.9618 66.3427 60.9593 66.3648C60.9567 66.387 60.9486 66.4081 60.9355 66.4262C60.9224 66.4443 60.905 66.4587 60.8847 66.4681C60.8645 66.4774 60.8422 66.4814 60.8199 66.4797V66.4297Z" fill="#1D1D2C"/>
<path d="M84.6899 75.1699L86.1499 82.5499L87.3399 80.4899L88.2399 81.8399L89.5299 81.0099L88.6299 79.6599L90.9899 79.3099L84.6899 75.1699Z" fill="#1D1D2C"/>
<path d="M26.7101 112.59H57.6401V83.6698H26.7101L26.7101 112.59Z" fill="#BAE1FD"/>
<path d="M28.78 111.49L28.51 111.21L55.58 84.7695L55.85 85.0495L28.78 111.49Z" fill="white"/>
<path d="M55.58 111.49L28.51 85.0495L28.78 84.7695L55.85 111.21L55.58 111.49Z" fill="white"/>
<path d="M79.19 97.1691L79.11 96.0791H60.72L60.8 97.1691H79.19Z" fill="#414267"/>
<path d="M99.69 93.88L99.61 92.79H60.72L60.8 93.88H99.69Z" fill="#414267"/>
<path d="M92 90.6L91.92 89.5H60.72L60.8 90.6H92Z" fill="#414267"/>
<path d="M95.6599 97.1792L95.4799 96.1592H81.8999L82.0899 97.1792H95.6599Z" fill="#414267"/>
<path d="M79.19 87.4298L79.11 86.3398H60.72L60.8 87.4298H79.19Z" fill="#414267"/>
<path d="M87.3001 87.4298L87.2201 86.3398H81.6401L81.7201 87.4298H87.3001Z" fill="#414267"/>
<path d="M79.21 110.789L79.13 109.689H60.72L60.8 110.789H79.21Z" fill="#414267"/>
<path d="M99.73 107.499L99.65 106.399H60.72L60.8 107.499H99.73Z" fill="#414267"/>
<path d="M92.03 104.199L91.96 103.109H60.72L60.8 104.199H92.03Z" fill="#414267"/>
<path d="M87.5899 110.789L87.5099 109.689H81.9199L81.9999 110.789H87.5899Z" fill="#414267"/>
<path d="M79.21 101.029L79.13 99.9395H60.72L60.8 101.029H79.21Z" fill="#414267"/>
<path d="M176.38 188.499L176.25 187.409H145.24L145.37 188.499H176.38Z" fill="#414267"/>
<path d="M210.93 185.209L210.8 184.119H145.24L145.37 185.209H210.93Z" fill="#414267"/>
<path d="M197.97 181.919L197.84 180.829H145.24L145.37 181.919H197.97Z" fill="#414267"/>
<path d="M204.15 188.499L203.83 187.489H180.95L181.26 188.499H204.15Z" fill="#414267"/>
<path d="M176.38 178.749L176.25 177.659H145.24L145.37 178.749H176.38Z" fill="#414267"/>
<path d="M190.04 178.749L189.91 177.659H180.51L180.64 178.749H190.04Z" fill="#414267"/>
<path d="M156.58 35.9998H113.12C112.324 35.9998 111.561 35.6837 110.999 35.1211C110.436 34.5585 110.12 33.7955 110.12 32.9998V3.5498C110.12 2.75416 110.436 1.99109 110.999 1.42848C111.561 0.865875 112.324 0.549805 113.12 0.549805H165.71C166.506 0.549805 167.269 0.865875 167.831 1.42848C168.394 1.99109 168.71 2.75416 168.71 3.5498V33.0098C168.71 33.8055 168.394 34.5685 167.831 35.1311C167.269 35.6937 166.506 36.0098 165.71 36.0098H164.2L170.32 46.2098L156.58 35.9998Z" fill="white"/>
<path d="M165.71 0.80957C166.438 0.809566 167.135 1.09792 167.651 1.61149C168.166 2.12505 168.457 2.82196 168.46 3.54957V33.0096C168.449 33.732 168.155 34.4212 167.64 34.9283C167.126 35.4354 166.432 35.7196 165.71 35.7196H163.71L164.16 36.4796L169.41 45.2196L156.74 35.8196L156.61 35.7196H113.12C112.393 35.7196 111.696 35.4309 111.182 34.917C110.669 34.4032 110.38 33.7063 110.38 32.9796V3.54957C110.38 2.82288 110.669 2.12595 111.182 1.6121C111.696 1.09825 112.393 0.80957 113.12 0.80957H165.71ZM165.71 0.30957H113.12C112.261 0.30957 111.436 0.650926 110.829 1.25854C110.221 1.86616 109.88 2.69027 109.88 3.54957V33.0096C109.88 33.8689 110.221 34.693 110.829 35.3006C111.436 35.9082 112.261 36.2496 113.12 36.2496H156.49L171.18 47.1496L164.64 36.2496H165.71C166.139 36.2549 166.565 36.175 166.964 36.0147C167.362 35.8544 167.724 35.6167 168.03 35.3154C168.336 35.0142 168.579 34.6553 168.746 34.2595C168.912 33.8637 168.999 33.4389 169 33.0096V3.54957C168.997 2.68935 168.654 1.86527 168.044 1.25793C167.435 0.650602 166.61 0.309566 165.75 0.30957H165.71Z" fill="#1D1D2C"/>
<path d="M116 24.6098V12.0098H118.54V17.0098H123.54V12.0098H126.09V24.6198H123.54V19.1098H118.54V24.6198L116 24.6098Z" fill="#BAE1FD"/>
<path d="M131.54 24.6195V14.1495H127.8V12.0195H137.8V14.1495H134.07V24.6195H131.54Z" fill="#BAE1FD"/>
<path d="M139.42 24.6195V12.0195H143.23L145.51 20.6195L147.78 12.0295H151.59V24.6295H149.22V14.7195L146.71 24.6395H144.26L141.79 14.7195V24.6495L139.42 24.6195Z" fill="#BAE1FD"/>
<path d="M154.19 24.6299V12.1299H156.73V22.5099H163.06V24.6399L154.19 24.6299Z" fill="#BAE1FD"/>
</svg>
