<svg width="117" height="116" viewBox="0 0 117 116" fill="none" xmlns="http://www.w3.org/2000/svg">
<path d="M112.875 34.4375V105.125H4.125V34.4375C4.125 31.4345 6.55945 29 9.5625 29H107.438C110.441 29 112.875 31.4345 112.875 34.4375Z" fill="#50D9D7"/>
<path d="M2.3125 105.125H114.688C115.689 105.125 116.5 105.936 116.5 106.938V110.562C116.5 113.566 114.066 116 111.062 116H5.9375C2.93445 116 0.5 113.566 0.5 110.562V106.938C0.5 105.936 1.31148 105.125 2.3125 105.125Z" fill="#075085"/>
<path d="M109.25 34.4375V41.6875H36.75L29.5 32.625H107.438C108.439 32.625 109.25 33.4365 109.25 34.4375Z" fill="#93E6E5"/>
<path d="M109.25 41.6875V101.5H7.75V34.4375C7.75 33.4365 8.56148 32.625 9.5625 32.625H35.0825C37.2824 32.6264 39.3626 33.6265 40.7375 35.3438C43.5469 38.86 43.71 39.0775 43.9094 39.2769C45.2937 40.8211 47.273 41.6987 49.3469 41.6875H109.25Z" fill="#F3F3F3"/>
<path d="M71.1875 108.75H45.8125C43.8105 108.75 42.1875 107.127 42.1875 105.125H74.8125C74.8125 107.127 73.1895 108.75 71.1875 108.75Z" fill="#F3F3F3"/>
<rect x="25.875" y="48.9375" width="3.625" height="47.125" fill="#D9D9D9"/>
<rect x="13.1875" y="52.5625" width="7.25" height="3.625" fill="#50D9D7"/>
<rect x="13.1875" y="59.8125" width="7.25" height="3.625" fill="#50D9D7"/>
<rect x="13.1875" y="67.0625" width="7.25" height="3.625" fill="#50D9D7"/>
<rect x="13.1875" y="74.3125" width="7.25" height="3.625" fill="#50D9D7"/>
<rect x="13.1875" y="81.5625" width="7.25" height="3.625" fill="#50D9D7"/>
<rect x="13.1875" y="88.8125" width="7.25" height="3.625" fill="#50D9D7"/>
<rect x="34.9375" y="52.5625" width="14.5" height="3.625" fill="#50D9D7"/>
<rect x="56.6875" y="52.5625" width="29" height="3.625" fill="#50D9D7"/>
<rect x="34.9375" y="74.3125" width="14.5" height="3.625" fill="#50D9D7"/>
<rect x="56.6875" y="74.3125" width="29" height="3.625" fill="#50D9D7"/>
<rect x="34.9375" y="67.0625" width="7.25" height="3.625" fill="#50D9D7"/>
<rect x="49.4375" y="67.0625" width="25.375" height="3.625" fill="#50D9D7"/>
<rect x="34.9375" y="59.8125" width="14.5" height="3.625" fill="#FFAC00"/>
<rect x="56.6875" y="59.8125" width="18.125" height="3.625" fill="#50D9D7"/>
<rect x="82.0625" y="59.8125" width="10.875" height="3.625" fill="#50D9D7"/>
<rect x="34.9375" y="81.5625" width="14.5" height="3.625" fill="#FFAC00"/>
<rect x="56.6875" y="81.5625" width="18.125" height="3.625" fill="#50D9D7"/>
<rect x="82.0625" y="81.5625" width="10.875" height="3.625" fill="#50D9D7"/>
<rect x="82.0625" y="67.0625" width="10.875" height="3.625" fill="#FFAC00"/>
<rect x="34.9375" y="88.8125" width="7.25" height="3.625" fill="#50D9D7"/>
<rect x="49.4375" y="88.8125" width="25.375" height="3.625" fill="#50D9D7"/>
<rect x="82.0625" y="88.8125" width="10.875" height="3.625" fill="#FFAC00"/>
<path d="M112.875 34.4375V39.4944C111.769 40.6309 110.555 41.6568 109.25 42.5575V34.4375C109.25 33.4365 108.439 32.625 107.438 32.625H71.8219C71.2633 31.4547 70.7967 30.2427 70.4263 29H107.438C108.88 29 110.263 29.5729 111.282 30.5926C112.302 31.6123 112.875 32.9954 112.875 34.4375Z" fill="#075085"/>
<path d="M109.25 41.6875V42.5575C100.093 48.9341 87.8458 48.5811 79.0718 41.6875H109.25Z" fill="#D9D9D9"/>
<path d="M109.25 34.4375V41.6875H79.0718C75.9875 39.2673 73.5059 36.1653 71.8218 32.625H107.437C108.438 32.625 109.25 33.4365 109.25 34.4375Z" fill="#50D9D7"/>
<circle cx="94.75" cy="21.75" r="21.75" fill="#075085"/>
<circle cx="94.75" cy="21.75" r="18.125" fill="#FFAC00"/>
<circle cx="36.75" cy="38.0625" r="1.8125" fill="#D9D9D9"/>
<path d="M87.5 28.9996C87.0182 29.0024 86.5552 28.8133 86.2131 28.474L80.7756 23.0365C80.4325 22.6962 80.2395 22.2329 80.2395 21.7496C80.2395 21.2663 80.4325 20.8031 80.7756 20.4627L86.2131 15.0252C86.9239 14.3145 88.0762 14.3145 88.7869 15.0252C89.4976 15.7359 89.4976 16.8883 88.7869 17.599L84.6181 21.7496L88.7869 25.9002C89.3097 26.4188 89.4669 27.2021 89.1845 27.8822C88.9021 28.5622 88.2364 29.0039 87.5 28.9996Z" fill="white"/>
<path d="M102 28.9996C101.264 29.0039 100.598 28.5622 100.316 27.8822C100.033 27.2021 100.19 26.4188 100.713 25.9002L104.882 21.7496L100.713 17.599C100.003 16.8883 100.003 15.7359 100.713 15.0252C101.424 14.3145 102.576 14.3145 103.287 15.0252L108.724 20.4627C109.068 20.8031 109.261 21.2663 109.261 21.7496C109.261 22.2329 109.068 22.6962 108.724 23.0365L103.287 28.474C102.945 28.8133 102.482 29.0024 102 28.9996Z" fill="white"/>
<path d="M92.9376 32.6258C92.3869 32.6369 91.8611 32.3971 91.5085 31.974C91.1559 31.5509 91.0148 30.9904 91.1251 30.4508L94.7501 12.3258C94.8796 11.6782 95.3447 11.149 95.9703 10.9373C96.5958 10.7257 97.2867 10.8639 97.7828 11.2998C98.2788 11.7358 98.5046 12.4032 98.3751 13.0508L94.7501 31.1758C94.5752 32.0333 93.8126 32.6434 92.9376 32.6258Z" fill="white"/>
</svg>
