<svg width="32" height="32" viewBox="0 0 32 32" fill="none" xmlns="http://www.w3.org/2000/svg">
<rect width="32" height="32" rx="3" fill="white"/>
<g clip-path="url(#clip0_170_880)">
<path d="M23.04 23.043H20.078V18.403C20.078 17.296 20.055 15.872 18.534 15.872C16.99 15.872 16.754 17.076 16.754 18.321V23.043H13.793V13.5H16.637V14.8H16.676C17.073 14.05 18.04 13.26 19.484 13.26C22.485 13.26 23.04 15.234 23.04 17.805V23.043ZM10.447 12.194C9.493 12.194 8.727 11.423 8.727 10.474C8.727 9.525 9.494 8.754 10.447 8.754C10.9032 8.754 11.3407 8.93521 11.6632 9.25778C11.9858 9.58034 12.167 10.0178 12.167 10.474C12.167 10.9302 11.9858 11.3677 11.6632 11.6902C11.3407 12.0128 10.9032 12.194 10.447 12.194ZM11.931 23.044H8.961V13.5H11.931V23.044ZM24.522 6H7.476C6.66 6 6 6.645 6 7.44V24.56C6 25.355 6.66 26 7.476 26H24.518C25.333 26 26 25.356 26 24.56V7.44C26 6.646 25.333 6 24.518 6H24.522Z" fill="#0B3E66"/>
</g>
<defs>
<clipPath id="clip0_170_880">
<rect width="20" height="20" fill="white" transform="translate(6 6)"/>
</clipPath>
</defs>
</svg>
