<svg width="20" height="20" viewBox="0 0 20 20" fill="none" xmlns="http://www.w3.org/2000/svg">
<path fill-rule="evenodd" clip-rule="evenodd" d="M10.0003 4.54513C8.1133 4.54513 5.54305 4.7069 3.91089 4.82585C3.36885 4.86536 2.94904 5.29444 2.94904 5.81852V6.41074L9.48148 9.84192C9.80415 10.0114 10.1965 10.0114 10.5192 9.84192L17.0516 6.41074V5.81852C17.0516 5.29444 16.6318 4.86536 16.0898 4.82585C14.4576 4.7069 11.8874 4.54513 10.0003 4.54513ZM17.0516 7.79736L11.1418 10.9015C10.4319 11.2744 9.56874 11.2744 8.85886 10.9015L2.94904 7.79736V14.1808C2.94904 14.7049 3.36885 15.134 3.91089 15.1735C5.54305 15.2924 8.1133 15.4542 10.0003 15.4542C11.8874 15.4542 14.4576 15.2924 16.0898 15.1735C16.6318 15.134 17.0516 14.7049 17.0516 14.1808V7.79736ZM3.81235 3.61732C5.4455 3.49829 8.05922 3.33301 10.0003 3.33301C11.9414 3.33301 14.5551 3.49829 16.1883 3.61732C17.4088 3.70627 18.3337 4.67125 18.3337 5.81852V14.1808C18.3337 15.3281 17.4088 16.2931 16.1883 16.382C14.5551 16.5011 11.9414 16.6663 10.0003 16.6663C8.05922 16.6663 5.4455 16.5011 3.81236 16.382C2.59185 16.2931 1.66699 15.3281 1.66699 14.1808V5.81852C1.66699 4.67125 2.59184 3.70627 3.81235 3.61732Z" fill="white"/>
</svg>
