<svg width="117" height="116" viewBox="0 0 117 116" fill="none" xmlns="http://www.w3.org/2000/svg">
<path d="M94.75 10.875V105.125C94.75 111.131 89.8811 116 83.875 116H33.125C27.1189 116 22.25 111.131 22.25 105.125V10.875C22.25 4.8689 27.1189 0 33.125 0H83.875C89.8811 0 94.75 4.8689 94.75 10.875Z" fill="#414267"/>
<path d="M91.125 10.8754V101.5C91.125 105.504 87.8791 108.75 83.875 108.75H33.125C29.1209 108.75 25.875 105.504 25.875 101.5V10.8754C25.875 6.87131 29.1209 3.62538 33.125 3.62538H42.695C43.4742 3.62337 44.1675 4.11962 44.4169 4.85788C44.9062 6.36225 45.4319 9.06288 48.4225 9.06288H68.5775C70.1407 9.0643 71.5288 8.06342 72.0213 6.57975L72.5831 4.85788C72.8325 4.11962 73.5258 3.62337 74.305 3.62538C83.9112 3.62538 84.7088 3.426 86.4125 4.09663C89.2421 5.15386 91.1197 7.85472 91.125 10.8754Z" fill="white"/>
<rect x="91.125" y="16.3125" width="3.625" height="47.125" fill="#1D1D2C"/>
<path d="M91.125 16.3125V63.4375H60.3125C55.3074 63.4375 51.25 59.3801 51.25 54.375V25.375C51.25 20.3699 55.3074 16.3125 60.3125 16.3125L91.125 16.3125Z" fill="#F3F3F3"/>
<path d="M78.4375 105.125H38.5625C37.5615 105.125 36.75 104.314 36.75 103.312C36.75 102.311 37.5615 101.5 38.5625 101.5H78.4375C79.4385 101.5 80.25 102.311 80.25 103.312C80.25 104.314 79.4385 105.125 78.4375 105.125Z" fill="#D9D9D9"/>
<rect x="54.875" y="19.9375" width="61.625" height="39.875" rx="3" fill="#414267"/>
<path d="M112.875 29V50.75C109.872 50.75 107.438 53.1845 107.438 56.1875H63.9375C63.9375 53.1845 61.503 50.75 58.5 50.75V29C61.503 29 63.9375 26.5655 63.9375 23.5625H107.438C107.438 26.5655 109.872 29 112.875 29Z" fill="#1D1D2C"/>
<path d="M25.875 53.1961V99.0523C24.6847 99.3564 23.4728 99.5685 22.25 99.6867V52.6523C23.4714 52.7318 24.684 52.9137 25.875 53.1961Z" fill="#1D1D2C"/>
<path d="M44 76.1254C44.0007 87.0446 36.4994 96.5337 25.875 99.0535V53.1973C36.4994 55.7171 44.0007 65.2062 44 76.1254Z" fill="#F3F3F3"/>
<circle cx="20.4375" cy="76.125" r="19.9375" fill="#BAE1FD"/>
<path fill-rule="evenodd" clip-rule="evenodd" d="M21.5613 61.6254C16.3809 61.2628 11.4006 63.6914 8.4964 67.9964C5.59218 72.3014 5.20526 77.8288 7.4814 82.4964C9.75753 87.164 14.3509 90.2628 19.5313 90.6254C20.1759 90.6948 20.826 90.6948 21.4706 90.6254C28.9211 89.9262 34.6158 83.6721 34.6158 76.1889C34.6158 68.7056 28.9211 62.4515 21.4706 61.7523L21.5613 61.6254ZM31.1494 74.3129H27.6875C27.4483 71.5815 26.6982 68.9193 25.4763 66.4648C28.492 68.0481 30.5917 70.9528 31.1494 74.3129ZM16.9213 77.9379C17.2353 81.2252 18.4523 84.3616 20.4375 87.0004C22.4228 84.3616 23.6397 81.2252 23.9538 77.9379H16.9213ZM16.9213 74.3129C17.2353 71.0257 18.4523 67.8893 20.4375 65.2504C22.4228 67.8893 23.6397 71.0257 23.9538 74.3129H16.9213ZM13.1875 74.3129C13.4482 71.5823 14.2231 68.9256 15.4713 66.4829C12.4323 68.0453 10.3043 70.9452 9.72564 74.3129H13.1875ZM9.72564 77.9379H13.1875C13.4267 80.6694 14.1768 83.3315 15.3988 85.7861C12.383 84.2028 10.2833 81.298 9.72564 77.9379ZM27.6875 77.9379C27.4268 80.6686 26.652 83.3253 25.4038 85.7679C28.4706 84.2229 30.6275 81.3201 31.2219 77.9379H27.6875Z" fill="#FDFDFD"/>
<path d="M89.3125 32.625H85.6875C83.6855 32.625 82.0625 34.248 82.0625 36.25C82.0625 38.252 83.6855 39.875 85.6875 39.875C87.6895 39.875 89.3125 41.498 89.3125 43.5C89.3125 45.502 87.6895 47.125 85.6875 47.125H82.0625" stroke="#FDFDFD" stroke-width="2" stroke-linecap="round" stroke-linejoin="round"/>
<path d="M85.6875 29V32.625" stroke="#FDFDFD" stroke-width="2" stroke-linecap="round" stroke-linejoin="round"/>
<path d="M85.6875 47.125V50.75" stroke="#FDFDFD" stroke-width="2" stroke-linecap="round" stroke-linejoin="round"/>
<path d="M63.9375 39.875H71.1875" stroke="#FDFDFD" stroke-width="2" stroke-linecap="round" stroke-linejoin="round"/>
<path d="M98.375 39.875H105.625" stroke="#FDFDFD" stroke-width="2" stroke-linecap="round" stroke-linejoin="round"/>
</svg>
