<svg width="16" height="24" viewBox="0 0 16 24" fill="none" xmlns="http://www.w3.org/2000/svg">
<path d="M4.03646 2C3.49636 2 2.97837 2.21455 2.59646 2.59646C2.21455 2.97837 2 3.49636 2 4.03646V19.1302C2 19.6703 2.21455 20.1883 2.59646 20.5702C2.97837 20.9521 3.49636 21.1667 4.03646 21.1667H11.4635C12.0036 21.1667 12.5216 20.9521 12.9035 20.5702C13.2854 20.1883 13.5 19.6703 13.5 19.1302V4.03646C13.5 3.49636 13.2854 2.97837 12.9035 2.59646C12.5216 2.21455 12.0036 2 11.4635 2H4.03646ZM3.19792 4.03646C3.19792 3.57358 3.57358 3.19792 4.03646 3.19792H11.4635C11.9269 3.19792 12.3021 3.57358 12.3021 4.03646V19.1302C12.3021 19.3526 12.2137 19.5659 12.0565 19.7231C11.8992 19.8804 11.6859 19.9688 11.4635 19.9688H4.03646C3.81406 19.9688 3.60078 19.8804 3.44352 19.7231C3.28626 19.5659 3.19792 19.3526 3.19792 19.1302V4.03646ZM6.43229 17.0938C6.27344 17.0938 6.12109 17.1569 6.00876 17.2692C5.89644 17.3815 5.83333 17.5339 5.83333 17.6927C5.83333 17.8516 5.89644 18.0039 6.00876 18.1162C6.12109 18.2286 6.27344 18.2917 6.43229 18.2917H9.06771C9.22656 18.2917 9.37891 18.2286 9.49124 18.1162C9.60356 18.0039 9.66667 17.8516 9.66667 17.6927C9.66667 17.5339 9.60356 17.3815 9.49124 17.2692C9.37891 17.1569 9.22656 17.0938 9.06771 17.0938H6.43229Z" fill="white"/>
</svg>
