<svg width="117" height="116" viewBox="0 0 117 116" fill="none" xmlns="http://www.w3.org/2000/svg">
<rect x="16.8125" width="72.5" height="116" rx="6" fill="#50D9D7"/>
<path d="M85.6875 10.875V101.5C85.6875 105.504 82.4416 108.75 78.4375 108.75H27.6875C23.6834 108.75 20.4375 105.504 20.4375 101.5V10.875C20.4375 6.87094 23.6834 3.62501 27.6875 3.62501H37.2575C38.0367 3.62299 38.73 4.11925 38.9794 4.85751C39.4688 6.36188 39.9944 9.06251 42.985 9.06251H63.14C64.7032 9.06393 66.0913 8.06305 66.5838 6.57938L67.1456 4.85751C67.395 4.11925 68.0883 3.62299 68.8675 3.62501H78.4375C82.4416 3.62501 85.6875 6.87094 85.6875 10.875Z" fill="white"/>
<path d="M74.8125 105.125H34.9375C33.9365 105.125 33.125 104.314 33.125 103.312C33.125 102.311 33.9365 101.5 34.9375 101.5H74.8125C75.8135 101.5 76.625 102.311 76.625 103.312C76.625 104.314 75.8135 105.125 74.8125 105.125Z" fill="#D9D9D9"/>
<circle cx="18.625" cy="32.625" r="14.5" fill="#FFAC00"/>
<path d="M18.625 30.8121C17.624 30.8121 16.8125 30.0006 16.8125 28.9996C16.8125 27.9986 17.624 27.1871 18.625 27.1871H22.25C23.251 27.1871 24.0625 26.3756 24.0625 25.3746C24.0625 24.3736 23.251 23.5621 22.25 23.5621H20.4375C20.3474 22.5611 19.4629 21.8226 18.4619 21.9127C17.4609 22.0028 16.7224 22.8873 16.8125 23.8883C14.3385 24.786 12.8625 27.3267 13.3082 29.9205C13.7539 32.5144 15.9932 34.4167 18.625 34.4371C19.626 34.4371 20.4375 35.2486 20.4375 36.2496C20.4375 37.2506 19.626 38.0621 18.625 38.0621H15C13.999 38.0621 13.1875 38.8736 13.1875 39.8746C13.1875 40.8756 13.999 41.6871 15 41.6871H16.8125C16.9026 42.6881 17.7871 43.4266 18.7881 43.3365C19.7891 43.2464 20.5276 42.3619 20.4375 41.3608C22.9115 40.4631 24.3875 37.9225 23.9418 35.3286C23.4961 32.7348 21.2568 30.8325 18.625 30.8121Z" fill="#FDFDFD"/>
<rect x="25.875" y="72.5" width="14.5" height="18.125" rx="1" fill="#93E6E5"/>
<rect x="45.8125" y="58" width="14.5" height="32.625" rx="1" fill="#50D9D7"/>
<rect x="65.75" y="52.5625" width="14.5" height="38.0625" rx="1" fill="#075085"/>
<rect x="85.6875" y="29" width="14.5" height="61.625" rx="1" fill="#075085"/>
<path d="M112.73 91.313C113.019 90.7131 112.919 89.9981 112.476 89.5005C112.186 89.1018 113.437 90.3887 106.912 83.8455C106.201 83.1348 105.049 83.1348 104.338 83.8455C103.627 84.5563 103.627 85.7086 104.338 86.4193L106.694 88.8118H20.4375V92.4368H106.694L104.338 94.7749C103.627 95.4856 103.627 96.6379 104.338 97.3487C105.049 98.0594 106.201 98.0594 106.912 97.3487C111.769 92.4368 112.531 91.7843 112.73 91.313Z" fill="#075085"/>
<path d="M38.5625 68.875H31.3125C30.3115 68.875 29.5 68.0635 29.5 67.0625C29.5 66.0615 30.3115 65.25 31.3125 65.25H38.5625C39.5635 65.25 40.375 66.0615 40.375 67.0625C40.375 68.0635 39.5635 68.875 38.5625 68.875Z" fill="#FFAC00"/>
<path d="M58.5 54.375H51.25C50.249 54.375 49.4375 53.5635 49.4375 52.5625C49.4375 51.5615 50.249 50.75 51.25 50.75H58.5C59.501 50.75 60.3125 51.5615 60.3125 52.5625C60.3125 53.5635 59.501 54.375 58.5 54.375Z" fill="#FFAC00"/>
<path d="M78.4375 48.9375H71.1875C70.1865 48.9375 69.375 48.126 69.375 47.125C69.375 46.124 70.1865 45.3125 71.1875 45.3125H78.4375C79.4385 45.3125 80.25 46.124 80.25 47.125C80.25 48.126 79.4385 48.9375 78.4375 48.9375Z" fill="#FFAC00"/>
<path d="M98.375 25.375H91.125C90.124 25.375 89.3125 24.5635 89.3125 23.5625C89.3125 22.5615 90.124 21.75 91.125 21.75H98.375C99.376 21.75 100.188 22.5615 100.188 23.5625C100.188 24.5635 99.376 25.375 98.375 25.375Z" fill="#FFAC00"/>
</svg>
