<svg width="309" height="205" viewBox="0 0 309 205" fill="none" xmlns="http://www.w3.org/2000/svg">
<path d="M148.113 124.444L143.823 122.034L142.113 124.604C140.724 124.183 139.272 124.01 137.823 124.094L136.723 121.184L131.993 122.514L132.573 125.574C131.295 126.258 130.144 127.158 129.173 128.234L126.333 126.954L123.933 131.294L126.503 133.054C126.086 134.44 125.913 135.888 125.993 137.334L123.113 138.384L124.443 143.124L127.503 142.534C128.185 143.815 129.089 144.966 130.173 145.934L128.893 148.774L133.183 151.184L134.943 148.604C136.328 149.025 137.777 149.198 139.223 149.114L140.323 152.034L145.053 150.704L144.473 147.644C145.751 146.955 146.901 146.052 147.873 144.974L150.713 146.254L153.113 141.964L150.543 140.214C150.964 138.825 151.137 137.372 151.053 135.924L153.973 134.824L152.643 130.094L149.583 130.674C148.896 129.397 147.993 128.25 146.913 127.284L148.113 124.444ZM146.213 140.954C145.354 142.489 144.059 143.734 142.491 144.533C140.924 145.332 139.155 145.648 137.408 145.44C135.661 145.233 134.015 144.513 132.678 143.369C131.341 142.226 130.373 140.712 129.897 139.019C129.421 137.326 129.457 135.529 130.003 133.857C130.548 132.184 131.577 130.711 132.96 129.624C134.343 128.536 136.017 127.884 137.771 127.749C139.525 127.613 141.279 128.001 142.813 128.864C144.872 130.011 146.391 131.929 147.036 134.196C147.681 136.464 147.399 138.894 146.253 140.954H146.213Z" fill="#414267"/>
<path d="M124.743 127.053L126.333 126.953V129.023C125.687 129.073 125.038 129.073 124.393 129.023C124.413 128.933 124.743 127.053 124.743 127.053Z" fill="#414267"/>
<path d="M135.133 121.273L136.723 121.173L136.163 122.343L135.063 122.723L135.133 121.273Z" fill="#414267"/>
<path d="M142.273 122.133L143.863 122.023L143.733 123.653L142.573 123.783L142.273 122.133Z" fill="#414267"/>
<path d="M151.013 130.193L152.603 130.083L152.073 132.043L150.613 132.543L151.013 130.193Z" fill="#414267"/>
<path d="M149.083 146.353L150.673 146.253L150.153 145.243L148.743 144.883L149.083 146.353Z" fill="#414267"/>
<path d="M138.693 152.133L140.283 152.023L140.113 151.413L139.003 151.373H138.963L138.693 152.133Z" fill="#414267"/>
<path d="M131.553 151.274L133.143 151.174L132.833 150.424L131.103 149.804L131.553 151.274Z" fill="#414267"/>
<path d="M122.813 143.214L124.403 143.114L124.303 142.474H122.783L122.813 143.214Z" fill="#414267"/>
<path d="M146.563 124.543L142.273 122.133L140.523 124.713C139.133 124.293 137.682 124.117 136.233 124.193L135.113 121.293L130.383 122.623L130.963 125.683C129.684 126.371 128.534 127.274 127.563 128.353L124.723 127.063L122.323 131.363L124.893 133.113C124.476 134.503 124.304 135.954 124.383 137.403L121.463 138.493L122.793 143.233L125.853 142.653C126.538 143.93 127.442 145.077 128.523 146.043L127.243 148.883L131.553 151.293L133.313 148.723C134.7 149.135 136.147 149.307 137.593 149.233L138.693 152.143L143.423 150.813L142.843 147.753C144.124 147.07 145.276 146.166 146.243 145.083L149.083 146.373L151.483 142.073L148.913 140.293C149.334 138.904 149.507 137.452 149.423 136.003L152.343 134.913L151.013 130.173L147.953 130.753C147.264 129.478 146.361 128.331 145.283 127.363L146.563 124.543ZM144.663 141.053C143.803 142.585 142.509 143.827 140.944 144.623C139.378 145.419 137.612 145.733 135.868 145.525C134.124 145.318 132.481 144.597 131.146 143.456C129.812 142.314 128.845 140.802 128.37 139.112C127.895 137.421 127.931 135.627 128.475 133.958C129.019 132.288 130.046 130.817 131.426 129.73C132.806 128.644 134.477 127.991 136.228 127.855C137.979 127.718 139.731 128.104 141.263 128.963C143.315 130.117 144.825 132.038 145.463 134.305C146.1 136.571 145.812 138.998 144.663 141.053Z" fill="#414267"/>
<path d="M233.923 101.873C233.051 97.6951 230.963 93.8681 227.923 90.873C225.923 89.213 220.513 89.373 218.303 93.873C216.093 98.373 215.303 101.153 215.893 109.333C216.483 117.513 223.273 145.433 223.293 151.573C223.313 157.713 236.043 157.033 235.363 148.253C234.683 139.473 235.423 108.793 233.923 101.873Z" fill="#1D1D2C"/>
<path d="M215.673 103.624C215.737 100.231 216.626 96.9058 218.263 93.9336C218.769 92.8464 219.546 91.9076 220.52 91.2071C221.494 90.5067 222.631 90.0682 223.823 89.9336H224.223H224.563C224.897 89.9327 225.231 89.9527 225.563 89.9936C225.968 90.0388 226.367 90.1294 226.753 90.2636C226.933 90.3336 227.103 90.4036 227.263 90.4836L227.493 90.6136C227.633 90.6997 227.767 90.7967 227.893 90.9036C227.985 90.9742 228.071 91.0511 228.153 91.1336L228.313 91.2836L228.373 91.3436L228.493 91.4736L228.563 91.5436L228.693 91.6836L228.763 91.7536L229.193 92.2436L229.253 92.3236C229.313 92.3836 229.363 92.4536 229.423 92.5236L229.503 92.6136L229.673 92.8336L229.743 92.9236C229.903 93.1336 230.073 93.3536 230.243 93.5936C230.263 93.6292 230.286 93.6627 230.313 93.6936L230.493 93.9636L230.583 94.0836L230.763 94.3636L230.843 94.4836C231.013 94.7436 231.183 95.0336 231.353 95.3236L231.433 95.4436L231.613 95.7736C231.643 95.8215 231.67 95.8716 231.693 95.9236L231.873 96.2636C231.873 96.2636 231.923 96.3536 231.953 96.4036L232.193 96.8936L232.433 97.4036L232.503 97.5536C232.563 97.6836 232.613 97.8036 232.663 97.9336C232.694 97.9917 232.72 98.0518 232.743 98.1136L232.903 98.5036L232.963 98.6736L233.173 99.2336C233.243 99.4236 233.303 99.6136 233.373 99.8136L233.433 99.9936L233.553 100.414L233.613 100.634L233.733 101.054C233.727 101.12 233.727 101.187 233.733 101.254L233.883 101.884C233.883 102.004 233.933 102.124 233.953 102.254V102.384C233.953 102.484 233.953 102.574 233.953 102.674V102.844C233.953 102.934 233.953 103.034 233.953 103.134V103.314C233.953 103.424 233.953 103.534 233.953 103.644C233.948 103.704 233.948 103.764 233.953 103.824C233.953 103.954 233.953 104.084 233.953 104.224C233.953 104.364 233.953 104.314 233.953 104.364C233.953 104.744 234.023 105.144 234.063 105.574C234.058 105.617 234.058 105.66 234.063 105.704C234.063 105.874 234.063 106.054 234.063 106.224C234.058 106.284 234.058 106.344 234.063 106.404V106.924C234.068 106.984 234.068 107.044 234.063 107.104C234.063 107.294 234.063 107.484 234.063 107.674V107.824C234.063 108.064 234.063 108.304 234.063 108.554C234.063 109.354 234.133 110.194 234.163 111.064C234.158 111.083 234.158 111.104 234.163 111.124C234.163 111.394 234.163 111.674 234.163 111.944C234.157 111.967 234.157 111.991 234.163 112.014C234.163 112.304 234.163 112.594 234.163 112.894C228.753 116.764 219.423 116.684 219.723 119.444C219.863 120.684 223.803 147.204 224.273 148.234C224.273 148.354 223.553 152.154 222.703 152.114C222.692 151.954 222.692 151.793 222.703 151.634C222.703 145.634 216.133 118.464 215.333 109.804V109.414C215.233 108.134 215.173 106.994 215.143 105.954C215.643 105.104 215.643 104.294 215.673 103.624Z" fill="#1D1D2C"/>
<path d="M204.553 101.983C206.25 97.6801 208.98 93.8612 212.503 90.8629C214.743 89.1629 220.183 89.2329 221.593 93.7429C223.003 98.2529 223.353 101.003 221.303 109.213C219.253 117.423 211.543 145.463 210.453 151.613C209.363 157.763 197.853 152.893 199.173 143.893C200.633 133.953 201.843 108.953 204.553 101.983Z" fill="#1D1D2C"/>
<path d="M217.113 114.153C214.263 113.683 209.813 112.933 208.793 113.243C207.718 113.542 206.767 114.175 206.077 115.05C205.386 115.926 204.993 116.999 204.953 118.113C204.953 120.793 200.733 146.583 200.743 146.693C200.14 146.206 199.572 145.678 199.043 145.113C199.052 144.705 199.085 144.297 199.143 143.893C200.603 133.953 201.813 108.953 204.523 101.983C206.16 97.8713 208.723 94.1927 212.013 91.2329C212.183 91.0829 212.343 90.9629 212.473 90.8629C214.713 89.1629 220.153 89.2329 221.563 93.7429C222.973 98.2529 223.323 101.003 221.273 109.213C221.173 109.613 220.713 110.983 220.273 112.213C220.062 112.859 219.629 113.409 219.05 113.764C218.471 114.12 217.784 114.258 217.113 114.153Z" fill="#1D1D2C"/>
<path d="M240.273 75.3633C239.053 72.8833 237.503 71.0933 233.073 65.3633C232.923 65.1033 232.763 64.8433 232.583 64.5733C229.423 59.8533 227.463 53.6333 226.833 52.8133C224.433 49.7233 216.153 49.4733 217.503 57.8133C218.733 65.4033 227.343 78.1133 232.443 80.1933C234.353 80.9733 238.333 79.7233 239.313 78.1933C239.113 77.9833 240.633 76.0933 240.273 75.3633Z" fill="#1D1D2C"/>
<path d="M234.483 71.5837C239.993 70.2037 256.713 71.5237 259.653 69.5837C261.653 68.2937 260.973 75.1937 259.283 75.0137C255.403 74.6037 241.283 79.3337 235.683 80.1637C230.863 80.9337 230.743 72.5037 234.483 71.5837Z" fill="#FFD2A7"/>
<path d="M214.933 38.783C215.473 42.893 210.423 44.533 210.423 44.533C210.023 41.483 206.583 39.763 205.423 36.043C204.263 32.323 206.583 28.113 211.983 28.273C215.343 28.373 214.393 34.673 214.933 38.783Z" fill="#414267"/>
<path d="M210.543 50.4436C207.653 50.8136 202.383 52.1236 200.813 54.8736C199.243 57.6236 200.393 83.9336 202.393 101.144C202.393 101.144 226.293 111.244 234.773 100.394C234.773 100.394 228.863 56.0736 225.473 51.9536C222.653 48.5336 213.433 50.0736 210.543 50.4436Z" fill="#414267"/>
<path d="M209.953 50.523C209.953 50.523 220.043 64.523 221.213 65.693C221.213 65.693 220.843 53.693 220.633 50.043L209.953 50.523Z" fill="url(#paint0_linear_2009_6927)"/>
<path d="M211.803 44.5834C211.683 44.0534 211.583 43.7033 211.583 43.7033C211.583 43.7033 217.313 39.1433 218.073 43.7733L211.803 44.5834Z" fill="#BAE1FD"/>
<path d="M217.943 53.4536L219.683 50.1436C219.683 50.1436 217.883 48.9236 218.123 45.7636C218.713 38.0236 211.583 43.7036 211.583 43.7036C211.583 43.7036 212.883 50.1436 210.583 50.4436L217.943 53.4536Z" fill="#FFD2A7"/>
<path d="M217.893 51.9331C213.893 52.4531 214.083 47.4231 213.893 46.4831C213.703 45.5431 211.583 43.7031 211.583 43.7031C211.583 43.7031 212.883 50.1431 210.583 50.4431L217.983 53.4431L218.983 51.4431C218.674 51.7071 218.295 51.8772 217.893 51.9331Z" fill="#FFBC8E"/>
<path d="M200.113 60.6631L202.053 58.9131L203.223 75.9131C203.223 75.9131 203.473 104.743 229.633 104.113C219.203 108.193 202.423 101.113 202.423 101.113C201.433 92.8931 200.113 71.2131 200.113 60.6631Z" fill="#1D1D2C"/>
<path d="M220.113 32.6133L222.113 41.5433C222.463 44.2133 219.683 46.7733 216.873 47.1433C216.221 47.2516 215.554 47.2297 214.911 47.0789C214.268 46.928 213.661 46.6512 213.125 46.2644C212.59 45.8776 212.136 45.3884 211.791 44.8253C211.445 44.2621 211.215 43.636 211.113 42.9833V42.7633C210.307 42.8173 209.511 42.5585 208.89 42.0407C208.27 41.523 207.873 40.7861 207.783 39.9833C207.393 36.9833 209.493 37.9833 209.493 37.9833L209.323 36.7133C209.275 36.365 209.297 36.0108 209.387 35.671C209.477 35.3312 209.633 35.0126 209.847 34.7336C210.061 34.4547 210.328 34.2209 210.633 34.0457C210.938 33.8706 211.274 33.7576 211.623 33.7133L220.113 32.6133Z" fill="#FFD2A7"/>
<path d="M209.473 37.9837L209.293 36.5937C209.249 36.2628 209.271 35.9265 209.358 35.604C209.444 35.2816 209.594 34.9795 209.797 34.7148C210 34.4501 210.254 34.2281 210.543 34.0615C210.832 33.8948 211.152 33.7869 211.483 33.7437L212.913 33.5537C212.918 33.5835 212.918 33.6139 212.913 33.6437L214.263 43.8737C214.433 44.7312 214.929 45.489 215.648 45.9872C216.366 46.4854 217.25 46.6849 218.113 46.5437C218.826 46.3752 219.503 46.0806 220.113 45.6737C219.182 46.4726 218.039 46.9834 216.823 47.1437C215.514 47.348 214.178 47.0247 213.107 46.2448C212.037 45.4648 211.319 44.292 211.113 42.9837V42.7637C210.307 42.8177 209.511 42.5589 208.89 42.0412C208.27 41.5234 207.874 40.7865 207.783 39.9837C207.373 37.0337 209.473 37.9837 209.473 37.9837Z" fill="#FFBC8E"/>
<path d="M218.813 49.1328C218.873 50.6185 218.574 52.0967 217.943 53.4428C218.36 53.252 218.83 53.2105 219.274 53.3252C219.719 53.4399 220.11 53.7039 220.383 54.0728C220.634 54.3818 220.99 54.5881 221.383 54.6528C221.289 53.0477 221.017 51.458 220.573 49.9128L218.813 49.1328Z" fill="#BAE1FD"/>
<path d="M185.263 44.7329C187.873 45.6429 205.263 50.9029 206.123 51.4429C209.483 53.4429 209.863 63.5929 201.523 62.2329C193.183 60.8729 184.113 57.9029 181.443 53.0929C180.443 51.2929 181.193 47.1829 182.573 46.0229C182.983 45.7529 184.503 44.4729 185.263 44.7329Z" fill="#414267"/>
<path d="M188.483 50.1733C189.063 44.5233 185.423 28.1733 186.883 24.9733C187.883 22.8133 181.143 24.4533 181.563 26.0933C182.503 29.8833 179.803 44.4833 179.763 50.1833C179.723 55.0533 188.113 53.9933 188.483 50.1733Z" fill="#FFD2A7"/>
<path d="M211.773 48.9629C213.073 50.9629 217.943 53.4529 217.943 53.4529C217.943 53.4529 216.453 53.1329 215.023 55.0629C214.62 55.5747 214.078 55.96 213.463 56.1729C213.463 56.1729 210.373 53.8029 209.953 50.5229L211.773 48.9629Z" fill="#BAE1FD"/>
<path d="M212.613 32.6931C213.402 33.3858 214.348 33.8754 215.369 34.1193C216.39 34.3633 217.456 34.3543 218.473 34.0931C222.093 33.2531 222.663 35.1431 222.663 35.1431C222.663 35.1431 223.513 28.2331 218.513 26.4631C213.513 24.6931 211.033 28.2931 211.033 28.2931L212.613 32.6931Z" fill="#414267"/>
<path d="M191.403 16.4131C189.933 16.9631 188.503 17.4131 189.573 16.9531C190.933 16.3131 190.833 14.4731 189.483 15.1031C187.656 15.7928 185.933 16.7317 184.363 17.8931C182.813 19.2631 182.583 24.1031 181.573 25.7631C181.163 26.4431 184.473 28.1631 185.023 27.8131C186.883 26.6431 187.363 24.0931 187.633 23.9131C188.401 23.6574 189.187 23.4536 189.983 23.3031C191.133 23.0231 191.613 21.1031 190.483 21.3731C189.753 21.5531 189.773 21.2031 190.783 20.9131C192.083 20.5531 192.463 18.5431 191.173 18.9131C190.623 19.0631 190.373 18.9631 191.093 18.6931C192.533 18.1431 192.833 15.8731 191.403 16.4131Z" fill="#FFD2A7"/>
<path d="M271.193 71.2031H234.053V73.1631H271.193V71.2031Z" fill="#BAE1FD"/>
<path d="M234.053 73.1729H216.953V72.0729C216.953 71.96 216.975 71.8481 217.018 71.7438C217.061 71.6394 217.125 71.5446 217.205 71.4648C217.284 71.3849 217.379 71.3216 217.484 71.2784C217.588 71.2351 217.7 71.2129 217.813 71.2129H234.053V73.1729Z" fill="#BAE1FD"/>
<path d="M270.113 71.213H233.113L237.983 48.433C238.042 48.1109 238.212 47.8199 238.465 47.6113C238.717 47.4028 239.035 47.29 239.363 47.293H272.673C272.991 47.3076 273.303 47.3925 273.585 47.5416C273.866 47.6908 274.112 47.9006 274.303 48.1558C274.494 48.4111 274.627 48.7055 274.69 49.018C274.754 49.3305 274.748 49.6532 274.673 49.963L270.113 71.213Z" fill="#BAE1FD"/>
<path d="M271.043 71.213H234.043L238.913 48.433C238.971 48.1159 239.137 47.8288 239.383 47.6209C239.63 47.4129 239.94 47.297 240.263 47.293H274.263C274.501 47.3005 274.735 47.3624 274.946 47.4739C275.157 47.5855 275.34 47.7436 275.481 47.9365C275.622 48.1293 275.717 48.3517 275.759 48.5868C275.801 48.8219 275.788 49.0634 275.723 49.293L271.043 71.213Z" fill="url(#paint1_linear_2009_6927)"/>
<path opacity="0.34" d="M256.523 47.293L266.933 71.203H262.173L251.363 47.293H256.523Z" fill="#F4F6FA"/>
<path opacity="0.34" d="M248.733 47.293L259.153 71.203H257.293L246.493 47.293H248.733Z" fill="#F4F6FA"/>
<path d="M257.803 74.9431C257.876 74.9019 257.929 74.8336 257.953 74.7531C258.026 74.9134 258.132 75.0562 258.265 75.1718C258.398 75.2873 258.554 75.3731 258.723 75.4231C259.163 75.4731 259.483 75.0931 259.723 74.8031V74.7531C260.043 75.4931 260.553 76.1231 261.293 76.0531C262.033 75.9831 262.243 75.3831 262.293 74.6831C262.424 74.9346 262.586 75.1695 262.773 75.3831C263.483 76.1731 264.453 75.4631 264.853 74.7231C264.883 74.6752 264.899 74.6197 264.899 74.5631C264.899 74.5065 264.883 74.451 264.853 74.4031C264.858 74.3733 264.858 74.3429 264.853 74.3131C264.788 73.5551 264.637 72.8069 264.403 72.0831C264.266 71.492 263.988 70.9429 263.593 70.4831C262.823 69.8531 262.263 70.8731 261.993 71.5931C261.883 70.8331 261.573 70.1531 260.623 70.4231C260.341 70.5006 260.082 70.646 259.87 70.8465C259.657 71.0469 259.497 71.2964 259.403 71.5731C259.294 71.228 259.102 70.9153 258.843 70.6631C258.183 70.0631 257.513 70.9031 257.283 71.4931C257.173 71.7666 257.115 72.0583 257.113 72.3531C257.061 72.3118 257.004 72.2781 256.943 72.2531C256.423 72.0831 255.943 72.7531 255.813 73.1631C255.704 73.4338 255.681 73.7314 255.748 74.0155C255.814 74.2995 255.966 74.5563 256.184 74.7507C256.401 74.9452 256.673 75.068 256.963 75.1024C257.252 75.1369 257.546 75.0812 257.803 74.9431Z" fill="#FFD2A7"/>
<path d="M193.953 186.293C196.953 185.293 197.623 180.753 197.953 178.073L202.273 179.633C202.273 179.633 200.563 184.213 201.273 187.333C201.983 190.453 201.023 190.153 201.023 190.153H187.703C189.578 188.557 191.685 187.255 193.953 186.293Z" fill="#FFD2A7"/>
<path d="M187.443 190.493H200.883C200.883 190.493 201.373 190.653 201.573 189.643C201.728 189.029 201.728 188.387 201.573 187.773C201.573 187.513 201.513 187.243 201.503 186.973C200.391 186.927 199.303 186.641 198.313 186.133C197.763 184.643 195.813 183.963 195.313 184.733C194.503 186.103 192.833 186.423 191.663 186.813C190.871 186.997 190.126 187.344 189.476 187.831C188.825 188.318 188.283 188.935 187.883 189.643C187.711 189.912 187.564 190.197 187.443 190.493Z" fill="#414267"/>
<path d="M187.443 190.494H200.883C200.883 190.494 201.373 190.654 201.573 189.644H187.883C187.711 189.913 187.564 190.198 187.443 190.494Z" fill="#414267"/>
<path d="M199.903 142.733C196.013 145.923 197.793 168.803 195.823 184.013C195.823 184.013 200.343 185.013 203.063 183.843C203.063 183.843 210.473 157.073 210.473 150.843C210.473 139.893 204.113 139.293 199.903 142.733Z" fill="#1D1D2C"/>
<path d="M237.113 186.563C234.113 185.563 235.493 180.823 235.173 178.153L230.873 179.753C230.675 182.409 230.341 185.052 229.873 187.673C229.233 190.793 230.163 190.493 230.163 190.493L243.673 190.353C241.666 188.801 239.46 187.526 237.113 186.563Z" fill="#FFD2A7"/>
<path d="M237.113 186.563C236.213 186.283 236.003 185.683 235.453 184.833C235.113 184.233 234.063 185.283 233.533 186.463C233.533 186.463 231.213 187.463 229.963 187.033C229.963 187.253 229.903 187.463 229.863 187.673C229.223 190.793 230.153 190.493 230.153 190.493L243.663 190.353C243.003 187.803 240.003 187.433 237.113 186.563Z" fill="#414267"/>
<path d="M229.673 189.683C229.733 190.683 230.183 190.493 230.183 190.493L243.693 190.353C243.631 190.064 243.515 189.79 243.353 189.543L229.673 189.683Z" fill="#414267"/>
<path d="M234.503 147.483C237.003 150.253 235.503 169.243 236.173 182.973C236.173 182.973 231.633 184.303 229.023 183.133C229.023 183.133 221.833 156.703 223.393 151.243C225.483 143.913 231.113 143.773 234.503 147.483Z" fill="#1D1D2C"/>
<path d="M223.393 151.294C223.677 150.282 224.084 149.308 224.603 148.394C224.603 148.744 229.603 172.084 230.133 183.524C229.889 183.477 229.648 183.413 229.413 183.334L229.023 183.184C229.023 183.184 226.733 174.554 224.873 165.734C223.623 159.514 222.743 153.534 223.393 151.294Z" fill="#414267"/>
<path d="M199.903 142.733C200.394 142.348 200.924 142.013 201.483 141.733C200.963 143.823 198.933 152.523 199.063 158.733C199.223 165.643 197.903 182.103 197.333 184.303C196.433 184.193 195.823 184.053 195.823 184.053C197.793 168.803 196.013 145.923 199.903 142.733Z" fill="#414267"/>
<path d="M201.053 21.4731V121.293C201.053 122.243 200.676 123.153 200.004 123.825C199.333 124.496 198.422 124.873 197.473 124.873H58.4727C57.9988 124.88 57.5284 124.792 57.0888 124.615C56.6492 124.438 56.2493 124.175 55.9124 123.842C55.5754 123.509 55.3082 123.112 55.1262 122.674C54.9443 122.236 54.8513 121.767 54.8527 121.293V21.4831C54.8527 20.2728 55.3328 19.1119 56.1877 18.2551C57.0425 17.3984 58.2024 16.9157 59.4127 16.9131H196.483C197.693 16.9131 198.854 17.3932 199.711 18.2481C200.567 19.1029 201.05 20.2628 201.053 21.4731Z" fill="white"/>
<path d="M201.043 32.6331H54.8527V21.4831C54.8527 20.2728 55.3328 19.1119 56.1876 18.2551C57.0425 17.3984 58.2024 16.9157 59.4127 16.9131H196.483C197.693 16.9157 198.853 17.3984 199.708 18.2551C200.563 19.1119 201.043 20.2728 201.043 21.4831V32.6331Z" fill="#414267"/>
<path d="M79.9927 24.7735C79.9927 24.2949 80.1346 23.827 80.4005 23.429C80.6665 23.0311 81.0444 22.7209 81.4866 22.5377C81.9288 22.3546 82.4154 22.3066 82.8848 22.4C83.3542 22.4934 83.7855 22.7239 84.1239 23.0623C84.4623 23.4008 84.6928 23.832 84.7862 24.3014C84.8796 24.7708 84.8316 25.2574 84.6485 25.6996C84.4653 26.1418 84.1551 26.5198 83.7572 26.7857C83.3592 27.0516 82.8913 27.1935 82.4127 27.1935C82.0945 27.1948 81.7792 27.1331 81.485 27.012C81.1908 26.8909 80.9235 26.7126 80.6985 26.4877C80.4736 26.2627 80.2954 25.9954 80.1742 25.7012C80.0531 25.407 79.9914 25.0917 79.9927 24.7735Z" fill="#BAE1FD"/>
<path d="M70.7027 24.7735C70.7027 24.2944 70.8448 23.8262 71.1112 23.428C71.3776 23.0298 71.7561 22.7196 72.1989 22.5368C72.6417 22.3539 73.1288 22.3066 73.5985 22.4008C74.0682 22.4949 74.4994 22.7264 74.8374 23.0659C75.1754 23.4053 75.4051 23.8374 75.4974 24.3075C75.5896 24.7776 75.5403 25.2645 75.3556 25.7065C75.1709 26.1486 74.8591 26.5258 74.4599 26.7905C74.0606 27.0552 73.5917 27.1955 73.1127 27.1935C72.7953 27.1935 72.4811 27.1308 72.1881 27.0091C71.895 26.8874 71.6289 26.7089 71.405 26.4841C71.1811 26.2592 71.0038 25.9924 70.8832 25.6988C70.7627 25.4053 70.7013 25.0908 70.7027 24.7735Z" fill="#FAEACB"/>
<path d="M61.4127 24.7735C61.4127 24.2949 61.5546 23.827 61.8205 23.429C62.0864 23.0311 62.4644 22.7209 62.9066 22.5377C63.3488 22.3546 63.8354 22.3066 64.3048 22.4C64.7742 22.4934 65.2054 22.7239 65.5439 23.0623C65.8823 23.4008 66.1128 23.832 66.2062 24.3014C66.2996 24.7708 66.2516 25.2574 66.0685 25.6996C65.8853 26.1418 65.5751 26.5198 65.1772 26.7857C64.7792 27.0516 64.3113 27.1935 63.8327 27.1935C63.5145 27.1948 63.1992 27.1331 62.905 27.012C62.6108 26.8909 62.3435 26.7126 62.1185 26.4877C61.8936 26.2627 61.7153 25.9954 61.5942 25.7012C61.4731 25.407 61.4114 25.0917 61.4127 24.7735Z" fill="white"/>
<path d="M189.543 23.0035L190.743 21.8135L192.443 23.5235L194.153 21.8135L195.353 23.0035L193.643 24.7135L195.353 26.4235L194.153 27.6135L192.443 25.9135L190.743 27.6135L189.543 26.4235L191.253 24.7135L189.543 23.0035Z" fill="white"/>
<path d="M104.093 38.333L104.213 40.273H136.533L136.423 38.333H104.093Z" fill="#BAE1FD"/>
<path d="M119.943 44.1533L120.073 46.0933H172.633L172.523 44.1533H119.943Z" fill="#BAE1FD"/>
<path d="M104.183 44.1533L104.293 46.0933H117.673L117.553 44.1533H104.183Z" fill="#414267"/>
<path d="M104.033 49.9736L104.153 51.9136H130.903L130.713 49.9736H104.033Z" fill="#BAE1FD"/>
<path d="M132.573 49.9736L132.773 51.9136H158.983L158.863 49.9736H132.573Z" fill="#414267"/>
<path d="M80.6227 49.9736L80.6127 51.9136H93.7627L93.7727 49.9736H80.6227Z" fill="#BAE1FD"/>
<path d="M64.6427 44.1533L64.6327 46.0933H86.0227L86.0327 44.1533H64.6427Z" fill="#BAE1FD"/>
<path d="M88.4827 44.1533L88.4727 46.0933H93.9127L93.9227 44.1533H88.4827Z" fill="#BAE1FD"/>
<path d="M83.2827 38.333L83.2927 40.273H94.1527L94.1627 38.333H83.2827Z" fill="#BAE1FD"/>
<path d="M70.4127 38.333L70.4027 40.273H81.1027L81.0827 38.333H70.4127Z" fill="#BAE1FD"/>
<path d="M80.4627 71.7529L80.4527 73.6929H93.6027L93.6127 71.7529H80.4627Z" fill="#BAE1FD"/>
<path d="M64.4827 65.9434L64.4727 67.8734H85.8627L85.8727 65.9434H64.4827Z" fill="#BAE1FD"/>
<path d="M88.3127 65.9434V67.8734H93.7427L93.7627 65.9434H88.3127Z" fill="#BAE1FD"/>
<path d="M80.2527 84.0137L80.2427 85.9437H93.3927L93.4027 84.0137H80.2527Z" fill="#BAE1FD"/>
<path d="M64.2727 78.1934L64.2627 80.1234H85.6527L85.6627 78.1934H64.2727Z" fill="#BAE1FD"/>
<path d="M88.1027 78.1934V80.1234H93.5427L93.5527 78.1934H88.1027Z" fill="#BAE1FD"/>
<path d="M83.1127 60.123L83.1327 62.053H93.9927L94.0027 60.123H83.1127Z" fill="#BAE1FD"/>
<path d="M70.2527 60.123L70.2427 62.053H80.9327L80.9227 60.123H70.2527Z" fill="#BAE1FD"/>
<path d="M139.743 38.333L139.863 40.273H149.663L149.553 38.333H139.743Z" fill="#414267"/>
<path d="M175.903 44.1533L176.023 46.0933H191.723L191.603 44.1533H175.903Z" fill="#BAE1FD"/>
<path d="M161.863 49.9736L161.983 51.9136H177.893L177.783 49.9736H161.863Z" fill="#BAE1FD"/>
<path d="M153.943 38.333L154.173 40.273H181.893L181.663 38.333H153.943Z" fill="#BAE1FD"/>
<path d="M103.933 60.123L104.053 62.053H136.373L136.253 60.123H103.933Z" fill="#BAE1FD"/>
<path d="M119.783 65.9434L119.913 67.8734H172.473L172.353 65.9434H119.783Z" fill="#BAE1FD"/>
<path d="M104.023 65.9434L104.133 67.8734H117.513L117.383 65.9434H104.023Z" fill="#BAE1FD"/>
<path d="M103.873 71.7529L103.983 73.6929H130.743L130.553 71.7529H103.873Z" fill="#BAE1FD"/>
<path d="M132.413 71.7529L132.613 73.6929H158.823L158.703 71.7529H132.413Z" fill="#BAE1FD"/>
<path d="M139.583 60.123L139.693 62.053H149.503L149.383 60.123H139.583Z" fill="#BAE1FD"/>
<path d="M175.743 65.9434L175.863 67.8734H191.563L191.443 65.9434H175.743Z" fill="#BAE1FD"/>
<path d="M161.703 71.7529L161.823 73.6929H177.733L177.613 71.7529H161.703Z" fill="#414267"/>
<path d="M120.223 78.1934L120.353 80.1234H172.913L172.793 78.1934H120.223Z" fill="#BAE1FD"/>
<path d="M104.463 78.1934L104.573 80.1234H117.953L117.823 78.1934H104.463Z" fill="#BAE1FD"/>
<path d="M104.313 84.0137L104.423 85.9437H131.183L130.993 84.0137H104.313Z" fill="#BAE1FD"/>
<path d="M132.853 84.0137L133.043 85.9437H159.253L159.143 84.0137H132.853Z" fill="#414267"/>
<path d="M176.183 78.1934L176.293 80.1234H191.993L191.883 78.1934H176.183Z" fill="#414267"/>
<path d="M162.143 84.0137L162.253 85.9437H178.173L178.053 84.0137H162.143Z" fill="#BAE1FD"/>
<path d="M153.783 60.123L154.013 62.053H181.733L181.503 60.123H153.783Z" fill="#414267"/>
<path d="M80.0327 104.054L80.0227 105.984H93.1727L93.1827 104.054H80.0327Z" fill="#BAE1FD"/>
<path d="M64.0527 98.2334L64.0427 100.163H85.4327V98.2334H64.0527Z" fill="#BAE1FD"/>
<path d="M87.8827 98.2334L87.8727 100.163H93.3127L93.3327 98.2334H87.8827Z" fill="#BAE1FD"/>
<path d="M79.8227 116.304L79.8127 118.234H92.9627L92.9727 116.304H79.8227Z" fill="#BAE1FD"/>
<path d="M63.8427 110.483L63.8327 112.423H85.2227L85.2327 110.483H63.8427Z" fill="#BAE1FD"/>
<path d="M87.6727 110.483V112.423H93.1027L93.1227 110.483H87.6727Z" fill="#BAE1FD"/>
<path d="M82.6827 92.4131L82.7027 94.3431H93.5627L93.5727 92.4131H82.6827Z" fill="#BAE1FD"/>
<path d="M69.8227 92.4131L69.8127 94.3431H80.5027L80.4827 92.4131H69.8227Z" fill="#BAE1FD"/>
<path d="M103.503 92.4131L103.623 94.3431H135.943L135.823 92.4131H103.503Z" fill="#BAE1FD"/>
<path d="M119.353 98.2334L119.483 100.163H172.043L171.923 98.2334H119.353Z" fill="#BAE1FD"/>
<path d="M103.583 98.2334L103.703 100.163H117.083L116.953 98.2334H103.583Z" fill="#BAE1FD"/>
<path d="M103.443 104.054L103.553 105.984H130.313L130.123 104.054H103.443Z" fill="#BAE1FD"/>
<path d="M131.983 104.054L132.173 105.984H158.383L158.273 104.054H131.983Z" fill="#BAE1FD"/>
<path d="M139.153 92.4131L139.263 94.3431H149.073L148.953 92.4131H139.153Z" fill="#BAE1FD"/>
<path d="M175.313 98.2334L175.423 100.163H191.123L191.013 98.2334H175.313Z" fill="#BAE1FD"/>
<path d="M161.273 104.054L161.383 105.984H177.303L177.183 104.054H161.273Z" fill="#414267"/>
<path d="M119.793 110.483L119.923 112.423H172.483L172.363 110.483H119.793Z" fill="#BAE1FD"/>
<path d="M104.023 110.483L104.143 112.423H117.523L117.393 110.483H104.023Z" fill="#BAE1FD"/>
<path d="M103.873 116.304L103.993 118.234H130.753L130.563 116.304H103.873Z" fill="#BAE1FD"/>
<path d="M132.423 116.304L132.613 118.234H158.823L158.713 116.304H132.423Z" fill="#414267"/>
<path d="M175.753 110.483L175.863 112.423H191.563L191.443 110.483H175.753Z" fill="#414267"/>
<path d="M161.713 116.304L161.823 118.234H177.743L177.623 116.304H161.713Z" fill="#BAE1FD"/>
<path d="M153.353 92.4131L153.583 94.3431H181.303L181.073 92.4131H153.353Z" fill="#414267"/>
<path d="M182.453 17.6633C182.633 18.1433 183.203 18.9333 183.823 18.6633C183.892 18.6293 183.956 18.5856 184.013 18.5333C184.031 18.8774 184.109 19.2156 184.243 19.5333C184.533 20.2233 185.363 21.1933 186.123 20.4633C186.418 20.1525 186.634 19.7752 186.753 19.3633C186.872 19.6892 187.069 19.9808 187.327 20.2127C187.585 20.4446 187.896 20.6096 188.233 20.6933C189.363 20.9733 189.703 20.1633 189.813 19.2533C190.153 20.0933 190.813 21.2533 191.743 20.5133C192.196 19.9534 192.505 19.2906 192.643 18.5833C192.901 17.7248 193.055 16.8385 193.103 15.9433C193.108 15.9102 193.108 15.8764 193.103 15.8433C193.137 15.7859 193.155 15.7202 193.155 15.6533C193.155 15.5864 193.137 15.5207 193.103 15.4633C192.613 14.5933 191.433 13.7833 190.633 14.7533C190.416 15.0103 190.232 15.2923 190.083 15.5933C189.993 14.7633 189.683 14.0633 188.853 14.0033C188.023 13.9433 187.393 14.7133 187.033 15.5933C187.033 15.5933 187.033 15.5933 187.033 15.5433C186.733 15.2033 186.343 14.7533 185.833 14.8433C185.633 14.9042 185.448 15.0084 185.293 15.1483C185.137 15.2883 185.014 15.4607 184.933 15.6533C184.921 15.607 184.9 15.5635 184.871 15.5257C184.841 15.4878 184.805 15.4564 184.763 15.4333C184.448 15.2599 184.087 15.1919 183.731 15.2391C183.375 15.2864 183.043 15.4464 182.785 15.6958C182.526 15.9452 182.355 16.2708 182.295 16.6249C182.235 16.979 182.291 17.3429 182.453 17.6633Z" fill="#FFD2A7"/>
<path d="M77.0227 145.063H91.1827C91.9031 145.074 92.5956 145.344 93.1336 145.823C93.6716 146.302 94.0191 146.959 94.1127 147.673L98.8527 190.503H97.6227L92.9027 147.853C92.8407 147.435 92.6355 147.05 92.3218 146.766C92.0082 146.481 91.6056 146.314 91.1827 146.293H77.0227C76.5998 146.314 76.1972 146.481 75.8836 146.766C75.5699 147.05 75.3647 147.435 75.3027 147.853L70.5827 190.503H69.3927L74.1127 147.673C74.2058 146.962 74.5504 146.308 75.0843 145.829C75.6181 145.351 76.3058 145.079 77.0227 145.063Z" fill="#1D1D2C"/>
<path d="M75.3327 145.063L88.5127 145.123C89.9027 145.123 93.0327 146.233 93.2427 147.673L97.6727 190.503H95.9327L91.2327 147.853C91.1127 147.003 89.0427 146.293 88.2327 146.293H75.6327C74.8127 146.293 74.7727 147.143 74.6327 147.983L70.1127 190.503H67.6927L72.4227 147.673C72.5326 146.97 72.8822 146.325 73.4125 145.85C73.9428 145.374 74.6211 145.096 75.3327 145.063Z" fill="#1D1D2C"/>
<path d="M47.4227 144.983H63.5827C64.3647 145.01 65.1178 145.285 65.7328 145.769C66.3478 146.253 66.7926 146.92 67.0027 147.673L71.4227 190.503H69.6827L64.9827 147.863C64.9133 147.443 64.7034 147.059 64.3873 146.774C64.0712 146.489 63.6676 146.319 63.2427 146.293H47.7627C46.9427 146.293 47.3227 146.853 47.2027 147.723L40.3927 190.503H38.1927L44.5127 147.673C44.6111 146.957 44.955 146.298 45.4858 145.807C46.0165 145.316 46.7011 145.025 47.4227 144.983Z" fill="#414267"/>
<path d="M49.1127 144.983H64.9327C65.6557 145.026 66.3415 145.318 66.8725 145.811C67.4034 146.304 67.7464 146.966 67.8427 147.683L72.5627 190.503H71.3727L66.6727 147.863C66.6016 147.444 66.3911 147.061 66.0754 146.776C65.7597 146.491 65.3571 146.321 64.9327 146.293H49.1127C48.6715 146.323 48.2526 146.498 47.9214 146.791C47.5903 147.084 47.3657 147.479 47.2827 147.913L41.1127 190.503H39.8727L46.1127 147.633C46.242 146.919 46.6084 146.268 47.1527 145.788C47.697 145.307 48.3875 145.024 49.1127 144.983Z" fill="#1D1D2C"/>
<path d="M46.4827 143.703H44.8927C43.8927 141.403 42.1227 132.603 41.3027 125.893C41.2027 125.093 41.1227 124.463 41.0727 124.123L40.9727 123.523L42.1127 123.293C43.2427 130.293 46.2527 143.433 46.4827 143.703Z" fill="#414267"/>
<path d="M47.3627 143.704H46.1127C45.0427 141.534 43.2327 132.704 42.3627 125.704C42.2727 124.914 42.1927 124.304 42.1427 123.974L43.3027 123.764C43.9382 130.537 45.2994 137.222 47.3627 143.704Z" fill="#1D1D2C"/>
<path d="M67.4827 125.513C67.7327 127.463 69.4827 136.653 70.0027 139.463C70.2521 140.91 70.6405 142.33 71.1627 143.703H69.9627C68.9627 141.243 67.1927 132.393 66.3127 125.703L66.0027 123.543L67.1627 123.333C67.1627 123.333 67.3827 124.803 67.4827 125.513Z" fill="#1D1D2C"/>
<path d="M72.2827 143.704H71.1127C70.1127 141.454 68.2927 132.594 67.4427 125.704C67.3427 124.904 67.2727 124.264 67.2127 123.934L68.3827 123.724C69.6027 137.034 71.9927 143.214 72.2827 143.704Z" fill="#414267"/>
<path d="M36.5227 99.0131H60.1927C61.2892 99.0192 62.3506 99.4006 63.2002 100.094C64.0498 100.787 64.6365 101.75 64.8627 102.823L67.9727 124.373C62.2607 125.346 56.4768 125.834 50.6827 125.833C41.0527 125.833 37.4127 124.373 37.4127 124.373L33.0427 102.823C32.963 102.333 32.9952 101.832 33.1369 101.356C33.2785 100.88 33.526 100.443 33.8608 100.076C34.1956 99.7096 34.6089 99.4236 35.0699 99.2395C35.5309 99.0554 36.0275 98.978 36.5227 99.0131Z" fill="#1D1D2C"/>
<path d="M38.5327 99.0133H62.2027C63.3004 99.0189 64.3632 99.3999 65.2145 100.093C66.0658 100.786 66.6544 101.749 66.8827 102.823L71.2527 124.373C65.1087 125.302 58.9062 125.79 52.6927 125.833C43.0627 125.833 39.4327 124.373 39.4327 124.373L35.0527 102.823C34.9749 102.334 35.0085 101.833 35.1509 101.358C35.2933 100.883 35.5409 100.446 35.8753 100.08C36.2096 99.7143 36.6221 99.4283 37.0822 99.2435C37.5422 99.0588 38.038 98.9801 38.5327 99.0133Z" fill="#414267"/>
<path d="M72.1127 143.293C72.1127 143.363 72.1127 143.423 72.1127 143.483C72.1127 145.013 71.2527 146.253 70.1827 146.253H45.4227C44.3627 146.253 43.4927 145.013 43.4927 143.483C43.4883 143.42 43.4883 143.356 43.4927 143.293H72.1127Z" fill="#1D1D2C"/>
<path d="M96.3427 143.293C96.3427 143.363 96.3427 143.423 96.3427 143.483C96.3817 143.814 96.3548 144.15 96.2637 144.47C96.1726 144.791 96.019 145.09 95.8118 145.352C95.6046 145.613 95.3478 145.83 95.0562 145.992C94.7646 146.153 94.4439 146.256 94.1127 146.293H65.0527C64.3978 146.208 63.8019 145.871 63.3912 145.354C62.9805 144.837 62.7874 144.18 62.8527 143.523C62.8527 143.463 62.8527 143.403 62.8527 143.333L96.3427 143.293Z" fill="#1D1D2C"/>
<path d="M64.9327 121.964C78.1927 121.734 103.423 122.214 104.993 122.524C108.813 123.294 113.843 129.444 106.483 132.954C100.343 135.894 62.4827 150.104 57.1927 132.854C55.2327 126.514 60.8927 122.034 64.9327 121.964Z" fill="#414267"/>
<path d="M102.483 127.983C102.973 128.543 108.483 131.983 106.483 132.983C100.343 135.923 62.4827 150.133 57.1927 132.883C56.8002 131.719 56.6862 130.48 56.8599 129.264C57.0336 128.048 57.4901 126.89 58.1927 125.883C59.8927 126.413 99.8127 124.863 102.483 127.983Z" fill="#414267"/>
<path d="M67.5727 143.553C75.6527 143.023 88.9427 140.393 98.7027 141.243C108.463 142.093 106.813 132.673 100.333 130.973C93.5727 129.193 80.0927 125.533 71.0127 124.753C61.9327 123.973 58.2727 124.753 53.8727 126.973C49.4727 129.193 47.9227 144.833 67.5727 143.553Z" fill="#414267"/>
<path d="M55.1127 77.2938C54.8401 78.1615 54.8302 79.0905 55.0843 79.9638C55.3384 80.8371 55.8452 81.6157 56.5408 82.2016C57.2365 82.7876 58.0899 83.1546 58.9937 83.2566C59.8975 83.3586 60.8113 83.191 61.62 82.7748C62.4288 82.3587 63.0963 81.7126 63.5387 80.9179C63.9811 80.1232 64.1785 79.2154 64.1061 78.3087C64.0337 77.4021 63.6947 76.5371 63.1318 75.8227C62.5689 75.1083 61.8072 74.5763 60.9427 74.2938C60.363 74.1057 59.7518 74.0342 59.1444 74.0834C58.5369 74.1326 57.9452 74.3015 57.4033 74.5803C56.8614 74.8592 56.38 75.2425 55.9869 75.7082C55.5938 76.1739 55.2967 76.7128 55.1127 77.2938Z" fill="#414267"/>
<path d="M63.1127 78.0431C60.5027 77.9131 57.2427 77.1931 52.8427 81.3031C48.4427 85.4131 50.3227 89.3031 48.0027 93.5931C45.6827 97.8831 41.7527 102.363 42.8827 111.503C43.8227 119.153 46.4727 124.583 58.9927 123.803C71.5127 123.023 71.1827 108.613 69.1127 103.983C67.0427 99.3531 64.7827 97.9031 69.1127 93.6631C73.6927 89.0931 70.4027 78.3931 63.1127 78.0431Z" fill="#414267"/>
<path d="M65.0327 103.043C65.6827 107.673 72.6527 119.533 74.9427 121.953C77.2327 124.373 81.1327 123.953 80.9427 120.953C80.7727 118.423 72.5827 101.283 71.8827 99.883C70.3427 96.873 64.3427 98.053 65.0327 103.043Z" fill="#FFD2A7"/>
<path d="M56.5427 91.2332C56.5427 91.2332 58.6327 99.2332 55.2727 99.4432C53.4127 99.5532 50.8127 99.9432 50.0727 101.443C49.4827 102.653 50.4227 104.643 51.2627 107.213C53.4327 113.823 54.2627 115.573 54.5727 117.503C55.143 121.059 54.4344 124.701 52.5727 127.783C52.5727 127.783 63.3427 128.243 72.9627 123.333C72.9627 123.333 69.6027 121.813 69.6227 118.383C69.7395 116.654 70.3427 114.994 71.3627 113.593C72.1461 113.575 72.8913 113.251 73.4389 112.69C73.9864 112.129 74.2929 111.377 74.2927 110.593C74.4527 107.593 71.9627 105.883 71.5227 104.313C71.0827 102.743 71.0427 99.7232 69.2227 98.4432C67.8927 97.5132 62.7027 100.323 62.6427 94.9032C62.5827 89.4832 56.9627 89.5132 56.5427 91.2332Z" fill="#FFD2A7"/>
<path d="M51.8627 128.893C51.8627 128.893 69.8627 128.893 73.7527 121.793C73.7527 121.793 68.8227 117.403 71.3427 113.623C72.1262 113.605 72.8714 113.281 73.4189 112.72C73.9665 112.16 74.2729 111.407 74.2727 110.623C74.4327 107.623 71.9427 105.913 71.5027 104.343C71.0627 102.773 71.0227 99.7533 69.2027 98.4733C68.6056 98.2353 67.9514 98.1796 67.3227 98.3133C67.4927 101.073 66.5327 103.473 64.5527 104.513C61.4827 106.133 57.1027 103.903 54.6827 99.5133C52.9027 99.6733 50.7427 100.123 50.0727 101.513C49.4827 102.723 54.2327 115.643 54.5727 117.573C55.5827 123.293 51.8627 128.893 51.8627 128.893Z" fill="#BAE1FD"/>
<path d="M52.5627 127.813C52.5627 127.813 61.4627 126.813 61.4627 121.473C61.4627 120.283 60.9927 116.663 60.9927 116.663C60.2304 116.546 59.5151 116.221 58.9258 115.723C58.3365 115.225 57.896 114.575 57.6527 113.843C57.3229 112.777 57.4226 111.624 57.9308 110.63C58.4389 109.636 59.3151 108.88 60.3727 108.523L62.3027 107.973C60.4957 107.456 58.8503 106.487 57.5222 105.157C56.194 103.827 55.2271 102.181 54.7127 100.373C54.6327 100.086 54.5627 99.7963 54.5027 99.5029C52.7627 99.6729 50.7127 100.143 50.0727 101.503C49.4327 102.863 50.4227 104.703 51.2627 107.273C53.4327 113.883 54.2627 115.633 54.5727 117.563C55.131 121.11 54.4192 124.74 52.5627 127.813Z" fill="#BAE1FD"/>
<path d="M54.7227 108.464C52.0127 110.804 42.5727 120.644 40.4327 122.294C39.9291 122.759 39.2813 123.038 38.5972 123.084C37.913 123.13 37.2338 122.94 36.6726 122.546C36.1114 122.152 35.7021 121.578 35.5129 120.918C35.3237 120.259 35.366 119.555 35.6327 118.924C36.4127 116.504 48.6927 101.774 50.4627 100.854C53.6627 99.1837 56.4227 107.004 54.7227 108.464Z" fill="#FFD2A7"/>
<path d="M40.3327 120.983C41.0927 120.303 41.7827 119.543 42.5127 118.823C43.9527 117.413 45.5827 116.213 47.0727 114.823C49.9827 112.173 53.7627 107.993 53.3427 103.823C53.254 102.742 52.8738 101.705 52.2427 100.823C54.5627 101.953 56.0927 107.263 54.7227 108.443C52.0127 110.783 43.5627 119.533 41.4327 121.193C40.7466 121.73 39.9039 122.029 39.0327 122.043C39.4827 121.713 39.9127 121.353 40.3327 120.983Z" fill="#FFBC8E"/>
<path d="M68.6427 84.5529C69.0046 86.1905 68.8184 87.9016 68.1127 89.4229C68.1127 89.4229 70.2527 92.8229 66.1127 95.6929C61.9727 98.5629 57.4827 94.5129 56.7727 90.5529C56.7727 90.5529 53.5927 90.6529 53.9927 87.8329C54.3927 85.0129 56.2127 85.3929 57.9927 86.2129C57.9927 86.2129 62.2027 80.3129 64.4327 80.7529C66.6627 81.1929 68.2627 81.8629 68.6427 84.5529Z" fill="#FFD2A7"/>
<path d="M53.9527 87.8329C54.3527 85.0229 56.1727 85.3929 57.9527 86.2129C57.9527 86.2129 62.1627 80.3129 64.3927 80.7529C66.1827 81.1029 67.6027 81.6029 68.3027 83.1729C66.9527 82.3829 60.1527 86.6829 59.1227 90.1729C58.8926 90.9648 58.8695 91.8024 59.0556 92.6057C59.2416 93.409 59.6307 94.1511 60.1855 94.7611C60.7403 95.3711 61.4424 95.8286 62.2245 96.0898C63.0066 96.351 63.8427 96.4072 64.6527 96.2529C65.0654 96.1714 65.4702 96.0543 65.8627 95.9029C61.7627 98.4529 57.4727 94.4829 56.7727 90.6029C56.7327 90.5529 53.5527 90.6529 53.9527 87.8329Z" fill="#FFBC8E"/>
<path d="M37.2227 117.614C41.8627 116.404 52.6927 117.614 55.1227 116.014C57.5527 114.414 59.1227 111.884 61.0127 113.074C62.9027 114.264 63.2327 116.134 63.2327 118.154C63.2327 119.484 60.7027 119.624 57.4127 119.594C54.1227 119.564 44.8227 122.914 40.0327 123.504C35.2427 124.094 34.1127 118.424 37.2227 117.614Z" fill="#FFD2A7"/>
<path d="M75.6427 117.603C79.8227 115.243 93.5027 113.753 95.4427 111.603C97.3827 109.453 97.0427 107.083 100.043 107.603C103.043 108.123 103.713 109.063 104.203 111.023C104.693 112.983 101.843 114.023 98.5727 114.463C95.3027 114.903 83.5727 122.273 79.7227 123.353C75.1127 124.643 72.8227 119.203 75.6427 117.603Z" fill="#FFD2A7"/>
<path d="M63.1827 81.2929C63.1827 81.2929 64.3427 80.9629 66.3627 83.4729C68.3827 85.9829 72.1927 86.8829 72.1927 86.8829C72.1927 86.8829 70.0527 78.6329 63.1827 81.2929Z" fill="#414267"/>
<path d="M64.6227 80.4234C65.3427 81.4234 64.8927 83.8034 61.7727 85.7134C58.6527 87.6234 58.5327 90.9934 57.1127 88.7134C55.6927 86.4334 55.7527 86.1634 56.2427 83.7134C56.7327 81.2634 63.0527 78.1834 64.6227 80.4234Z" fill="#414267"/>
<path d="M114.573 120.873H76.8127V122.863H114.573V120.873Z" fill="#BAE1FD"/>
<path d="M76.8127 122.863H59.4227V121.743C59.4227 121.628 59.4455 121.514 59.4898 121.408C59.5342 121.302 59.5992 121.205 59.681 121.124C59.7629 121.043 59.86 120.98 59.9667 120.936C60.0734 120.893 60.1876 120.872 60.3027 120.873H76.8127V122.863Z" fill="#BAE1FD"/>
<path d="M113.513 120.874H75.8927L80.8927 97.7137C80.9504 97.393 81.1175 97.1021 81.3654 96.8907C81.6133 96.6792 81.9269 96.5601 82.2527 96.5537H116.113C116.436 96.5748 116.75 96.6666 117.033 96.8225C117.317 96.9784 117.563 97.1947 117.753 97.456C117.944 97.7174 118.075 98.0174 118.137 98.3349C118.199 98.6525 118.191 98.9798 118.113 99.2937L113.513 120.874Z" fill="#BAE1FD"/>
<path d="M114.423 120.874H76.8127L81.7627 97.7137C81.82 97.3946 81.9856 97.1051 82.2315 96.8938C82.4774 96.6825 82.7886 96.5624 83.1127 96.5537H117.713C117.952 96.5625 118.186 96.6249 118.398 96.7362C118.61 96.8474 118.794 97.0048 118.937 97.1967C119.08 97.3886 119.178 97.6102 119.224 97.845C119.27 98.0799 119.263 98.322 119.203 98.5537L114.423 120.874Z" fill="url(#paint2_linear_2009_6927)"/>
<path opacity="0.34" d="M99.6527 96.5537L110.253 120.864H105.403L94.4227 96.5537H99.6527Z" fill="#F4F6FA"/>
<path opacity="0.34" d="M91.7427 96.5537L102.333 120.864H100.453L89.4627 96.5537H91.7427Z" fill="#F4F6FA"/>
<path d="M95.0227 185.963C88.8327 183.743 93.0227 179.623 94.1527 176.083L88.4327 174.913C88.4327 174.913 85.6827 182.493 85.4327 186.673C85.1827 190.853 86.3627 190.453 86.3627 190.453L100.553 190.503C99.3489 188.346 97.3733 186.724 95.0227 185.963Z" fill="#FFD2A7"/>
<path d="M95.0227 185.964C93.7283 185.477 92.61 184.613 91.8127 183.484C91.2327 182.674 88.4127 183.564 87.9327 185.134C87.1953 185.627 86.3185 185.869 85.4327 185.824C85.4383 186.092 85.4182 186.36 85.3727 186.624C84.6327 190.624 86.3727 190.454 86.3727 190.454L100.563 190.504C99.9883 189.416 99.2024 188.454 98.251 187.674C97.2996 186.895 96.202 186.313 95.0227 185.964Z" fill="#414267"/>
<path d="M95.1727 137.513C92.9627 141.763 87.1727 177.933 87.1727 177.933C87.1727 177.933 90.1727 180.363 93.6927 179.363C93.6927 179.363 106.593 141.653 107.213 139.063C107.673 137.003 98.8127 130.503 95.1727 137.513Z" fill="#414267"/>
<path d="M119.453 165.414L123.573 163.094C125.573 168.094 128.513 171.544 133.163 165.564C135.303 162.804 139.163 164.694 139.163 164.694L128.033 179.004C128.033 179.004 126.353 180.004 124.603 175.314C123.221 171.85 121.496 168.533 119.453 165.414Z" fill="#FFD2A7"/>
<path d="M128.913 171.513C128.773 169.963 126.413 169.733 127.333 168.413C128.903 169.193 130.813 168.593 133.163 165.563C135.303 162.803 139.163 164.693 139.163 164.693L128.033 179.003C128.033 179.003 126.453 179.923 124.763 175.733C125.933 174.233 129.113 173.853 128.913 171.513Z" fill="#414267"/>
<path d="M107.913 150.103C112.453 156.563 119.673 169.153 119.673 169.153C119.673 169.153 122.603 169.633 125.823 166.643C125.823 166.643 112.183 127.743 108.653 124.763C105.373 121.973 87.6627 121.293 107.913 150.103Z" fill="#414267"/>
<defs>
<linearGradient id="paint0_linear_2009_6927" x1="221.213" y1="57.873" x2="209.953" y2="57.873" gradientUnits="userSpaceOnUse">
<stop stop-color="white"/>
<stop offset="1" stop-color="#D3DBEB"/>
</linearGradient>
<linearGradient id="paint1_linear_2009_6927" x1="234.053" y1="59.253" x2="275.773" y2="59.253" gradientUnits="userSpaceOnUse">
<stop stop-color="white"/>
<stop offset="1" stop-color="#D3DBEB"/>
</linearGradient>
<linearGradient id="paint2_linear_2009_6927" x1="70.9727" y1="118.244" x2="140.233" y2="94.4237" gradientUnits="userSpaceOnUse">
<stop stop-color="white"/>
<stop offset="1" stop-color="#D3DBEB"/>
</linearGradient>
</defs>
</svg>
