<svg width="250" height="238" viewBox="0 0 250 238" fill="none" xmlns="http://www.w3.org/2000/svg">
<path d="M216.78 222.36H33V223.76H216.78V222.36Z" fill="#B6EAEB"/>
<path d="M64.6401 184.89C81.3501 180.83 114.21 177.41 124.73 193.02C135.25 208.63 124.79 214.35 105.85 206.81C86.9101 199.27 41.5601 190.5 64.6401 184.89Z" fill="url(#paint0_linear_2009_8862)"/>
<path d="M126.33 150.66H93.6599V222.01H126.33V150.66Z" fill="#B6EAEB"/>
<path d="M79.3499 178.96H46.6799V222H79.3499V178.96Z" fill="#83DADD"/>
<path d="M171.06 119.56H138.39V222.01H171.06V119.56Z" fill="#075085"/>
<path d="M215.79 89.0303H183.12V222H215.79V89.0303Z" fill="#0B3E66"/>
<path d="M88.2099 209.76L94.5199 210.08C94.1099 215.24 96.6799 217.69 101.96 218.17C105.06 218.46 104.82 222.27 104.82 222.27H87.6399C87.6399 222.27 85.5799 220.48 87.7699 216.62C88.2999 215.68 88.2099 209.76 88.2099 209.76Z" fill="#FFD2A7"/>
<path d="M101.96 218.17C105.06 218.46 104.82 222.27 104.82 222.27H87.6399C87.6399 222.27 85.5799 220.48 87.7699 216.62C88.9299 217.28 91.8899 217.98 95.5699 215.62C97.4507 216.996 99.6489 217.873 101.96 218.17Z" fill="#0B3E66"/>
<path d="M98.41 217.23C98.41 217.23 95.47 215.49 95.11 213.95C94.75 212.41 92.93 213.81 92.76 214.24C92.59 214.67 94.91 217.19 98.41 217.23Z" fill="#0B3E66"/>
<path d="M93.9101 125.66C96.2801 135.77 95.5601 154.66 95.9101 171.15C96.2101 184.26 95.9901 203.92 96.3501 212.15C96.3501 212.15 89.2501 213.57 86.2501 212.15C86.2501 212.15 81.0901 178.15 79.8101 173.5C78.5301 168.85 74.3801 139.02 77.7101 126.29C81.0401 113.56 92.9801 121.7 93.9101 125.66Z" fill="#075085"/>
<path d="M78.09 139.01C78.09 139.01 82.09 158.07 83.28 171.2C83.76 176.46 86.28 212.07 86.28 212.07C86.28 212.07 82.75 188.63 81.54 182.31C79.84 173.42 74.97 150.09 74.97 150.09L78.09 139.01Z" fill="#0B3E66"/>
<path d="M49.9099 204.49L55.7099 206.99C53.5299 211.68 55.0899 214.87 59.8699 217.16C62.6799 218.51 61.0899 222.01 61.0899 222.01L44.9899 216.01C44.9899 216.01 43.6799 213.61 47.0699 210.75C47.9399 210.07 49.9099 204.49 49.9099 204.49Z" fill="#FFD2A7"/>
<path d="M59.8699 217.16C62.6799 218.51 61.0899 222.01 61.0899 222.01L44.9899 216.01C44.9899 216.01 43.6799 213.61 47.0699 210.75C47.9299 211.75 50.4699 213.46 54.7199 212.55C56.0184 214.498 57.7905 216.084 59.8699 217.16Z" fill="#0B3E66"/>
<path d="M56.8599 215.01C56.8599 215.01 54.7199 212.35 54.9199 210.79C55.1199 209.23 52.9199 209.89 52.6099 210.23C52.2999 210.57 53.5999 213.79 56.8599 215.01Z" fill="#0B3E66"/>
<path d="M46.8501 206.01C46.8501 206.01 55.1901 211.3 58.1901 209.85C58.1901 209.85 73.7001 179.01 74.9801 174.35C76.2601 169.69 80.7901 138.94 77.4601 126.21C74.1301 113.48 62.2401 121.7 61.3101 125.68C60.8696 127.695 60.5589 129.736 60.3801 131.79C59.1301 144.08 58.6801 164.53 58.9301 175.51C59.0001 178.51 47.1401 199.69 46.8501 206.01Z" fill="#075085"/>
<path d="M58.9299 175.5C58.9999 178.5 54.4499 185.68 53.4099 188.69C53.4699 186.53 61.3299 179.18 61.5499 176.03C61.7699 173.03 61.0699 163.03 60.9699 160.03C60.7499 154.61 62.0799 149.44 63.6199 144.23C65.2367 139.212 67.2255 134.322 69.5699 129.6C69.4599 128.12 66.3399 128.47 65.3799 128.45C64.6232 128.35 63.8566 128.35 63.0999 128.45C62.6102 128.635 62.1658 128.922 61.7967 129.293C61.4275 129.664 61.1422 130.11 60.9599 130.6C60.7499 130.97 60.5599 131.36 60.3799 131.75C59.0899 144.07 58.6799 164.52 58.9299 175.5Z" fill="#0B3E66"/>
<path d="M84.8201 99.09C85.1701 103.56 92.8801 119.87 94.2701 122.96C95.9401 126.69 103.02 126.24 103.07 122.5C103.07 119.19 95.9401 98.66 94.6001 96.5C92.1801 92.71 84.3901 93.49 84.8201 99.09Z" fill="#FFD2A7"/>
<path d="M87.3301 110.42C85.3974 105.623 84.1745 100.57 83.7001 95.4202C83.2201 89.5902 90.5301 87.8302 93.0301 91.6702C93.6501 92.6702 98.2701 99.0202 100.03 104.85C96.7101 108.72 88.2501 110.47 87.3301 110.42Z" fill="#EBA63F"/>
<path d="M85.09 88.8305C85.09 88.8305 88.83 88.5005 90.81 90.5005C92.79 92.5005 96.11 101.25 94.91 111.34C93.71 121.43 96.91 139 96.91 139C84.0215 141.365 70.7937 141.172 57.98 138.43C57.98 138.43 59.59 101.37 64.71 91.4305C66.34 88.2605 73.96 88.2505 75.11 88.1505C76.26 88.0505 85.09 88.8305 85.09 88.8305Z" fill="#EEBA5B"/>
<path d="M96.9701 139.12C84.0256 141.497 70.7399 141.303 57.8701 138.55C57.8701 138.55 58.4201 125.94 59.8701 113.42C60.1001 111.52 60.3401 109.62 60.6101 107.76C61.0301 104.85 61.5101 102.06 62.0401 99.5599L72.0401 94.8799C72.0401 94.8799 69.0901 107.66 64.8101 116.01C60.5301 124.36 57.8101 142.01 96.8101 138.38C96.9201 138.86 96.9701 139.12 96.9701 139.12Z" fill="#EBA63F"/>
<path d="M84.0901 84.4096C84.0901 84.4096 83.5001 87.8996 84.5901 88.3596C85.415 88.6676 86.2749 88.8724 87.1501 88.9696C87.1501 88.9696 81.1501 97.6496 74.3401 88.1796C74.3401 88.1796 76.3401 88.1796 77.0101 87.3796C77.6801 86.5796 78.0101 82.4896 77.7101 79.8096L84.0901 84.4096Z" fill="#FFD2A7"/>
<path d="M77.0301 87.3796C77.6601 86.5596 78.0301 82.4896 77.7301 79.8096L81.3701 82.4296C80.6466 83.1921 80.0461 84.0625 79.5901 85.0096C78.6501 86.7996 78.1101 89.2996 79.9601 90.6696C80.7072 91.1394 81.5537 91.4284 82.4321 91.5134C83.3106 91.5985 84.1967 91.4773 85.0201 91.1596C82.6801 92.9096 78.6901 94.1596 74.3601 88.1596C74.3601 88.1796 76.4001 88.1996 77.0301 87.3796Z" fill="#FFBC8E"/>
<path d="M59.09 94.6104C55.82 97.6904 47.99 113.95 46.46 117.01C44.61 120.66 48.09 124.77 51.46 123.07C54.3 121.63 66.46 103.07 67.24 100.65C68.66 96.3304 63.16 90.7604 59.09 94.6104Z" fill="#FFD2A7"/>
<path d="M50.6001 123.67C54.8801 124.18 70.4601 121.01 73.4101 120.47C76.9701 119.82 77.9101 114.22 74.1901 114.47C70.4701 114.72 50.0901 114.93 48.0901 115.6C44.4401 116.83 45.2501 123.01 50.6001 123.67Z" fill="#FFD2A7"/>
<path d="M97.7599 126.27C101.97 127.2 117.76 125.58 120.76 125.34C124.36 125.04 125.85 119.56 122.13 119.45C118.41 119.34 98.0899 117.52 96.0899 118.01C92.2999 118.85 92.4899 125.11 97.7599 126.27Z" fill="#FFD2A7"/>
<path d="M52.6899 101.61C55.7901 97.4874 59.4717 93.836 63.6199 90.7701C68.3599 87.3401 73.6199 92.6901 71.6199 96.7701C69.7081 100.828 67.2559 104.609 64.3299 108.01C59.3599 107.19 53.0899 102.42 52.6899 101.61Z" fill="#EBA63F"/>
<path d="M86.5401 117.43C85.1601 116.53 83.8501 115.63 84.9401 116.22C86.3301 116.98 87.8301 115.75 86.4501 115C84.731 113.875 82.8629 112.996 80.9001 112.39C78.7701 111.93 74.5301 114.75 72.4901 114.93C71.6701 115 72.2601 118.93 72.9101 119.13C75.0501 119.98 77.5101 118.79 77.8401 118.91C78.5406 119.406 79.2086 119.947 79.8401 120.53C80.7801 121.32 82.7201 120.53 81.7801 119.74C81.1801 119.24 81.4801 119.03 82.3601 119.74C83.4801 120.61 85.4201 119.68 84.3601 118.81C83.8901 118.44 83.8201 118.17 84.4901 118.6C85.7801 119.47 87.8901 118.32 86.5401 117.43Z" fill="#FFD2A7"/>
<path d="M74.66 81.6C74.8457 81.8784 75.1164 82.0892 75.4319 82.201C75.7473 82.3127 76.0904 82.3194 76.41 82.22C77.08 81.96 76.72 80.9 76.48 80.43C76.16 79.8 76.3 72.82 76.27 72.81C76.05 72.71 77.7 63.75 74.66 65.18C68.41 68.1 72.45 78.28 74.66 81.6Z" fill="#0B3E66"/>
<path d="M87.1701 70.4297V81.0097C87.1078 82.4414 86.4799 83.7899 85.4244 84.7591C84.3689 85.7284 82.9719 86.2393 81.5401 86.1797C80.1083 86.2393 78.7113 85.7284 77.6558 84.7591C76.6003 83.7899 75.9724 82.4414 75.9101 81.0097V80.7797C75.5424 80.8787 75.1559 80.8853 74.785 80.7989C74.4141 80.7125 74.0703 80.5357 73.7843 80.2843C73.4983 80.0329 73.2788 79.7147 73.1455 79.3579C73.0121 79.0012 72.9691 78.6171 73.0201 78.2397C73.0201 75.0797 74.8401 75.5197 74.8401 75.5197V70.5197L87.1701 70.4297Z" fill="#FFD2A7"/>
<path d="M74.8401 75.4798V69.0098H79.2201C79.2201 69.0098 79.2201 71.3198 79.2201 71.3598V82.3398C79.2565 82.9547 79.4476 83.5505 79.7755 84.0719C80.1035 84.5933 80.5578 85.0236 81.0962 85.3227C81.6347 85.6219 82.24 85.7803 82.856 85.7833C83.472 85.7862 84.0787 85.6337 84.6201 85.3398C83.6924 85.8943 82.6309 86.1848 81.5501 86.1798C80.8403 86.2106 80.1314 86.1014 79.4638 85.8583C78.7962 85.6152 78.1831 85.243 77.6593 84.7629C77.1356 84.2828 76.7116 83.7043 76.4114 83.0603C76.1113 82.4163 75.9409 81.7196 75.9101 81.0098V80.7798C75.5424 80.8788 75.1559 80.8854 74.785 80.799C74.4141 80.7126 74.0703 80.5358 73.7843 80.2844C73.4983 80.033 73.2788 79.7147 73.1455 79.358C73.0121 79.0013 72.9691 78.6172 73.0201 78.2398C73.0201 75.0098 74.8401 75.4798 74.8401 75.4798Z" fill="#FFBC8E"/>
<path d="M74.8401 75.4801C74.6001 76.1901 75.8401 77.2101 76.4801 77.2201C77.7301 77.2201 78.2301 72.7101 78.8201 70.4301C80.1001 70.9801 86.6501 71.2201 88.0301 70.8901C90.0801 70.4001 91.1901 66.2101 89.8101 64.7601C86.4101 61.2101 76.2101 61.9701 74.6701 65.1501C71.6601 66.0801 71.7201 75.0101 74.8401 75.4801Z" fill="#0B3E66"/>
<path d="M129.88 124.65H93.9399V126.55H129.88V124.65Z" fill="#83DADD"/>
<path d="M93.9399 126.55H77.3999V125.48C77.3999 125.26 77.4873 125.049 77.643 124.893C77.7987 124.738 78.0098 124.65 78.2299 124.65H93.9399V126.55Z" fill="#075085"/>
<path d="M128.87 124.65H93.0901L97.8101 102.65C97.8566 102.34 98.0102 102.057 98.244 101.848C98.4778 101.64 98.7772 101.52 99.0901 101.51H131.33C131.64 101.521 131.944 101.602 132.219 101.746C132.493 101.89 132.733 102.093 132.919 102.341C133.105 102.59 133.233 102.877 133.294 103.181C133.354 103.485 133.346 103.799 133.27 104.1L128.87 124.65Z" fill="#075085"/>
<path d="M129.74 124.65H93.9399L98.6599 102.65C98.7152 102.346 98.8738 102.07 99.1089 101.87C99.344 101.669 99.6411 101.556 99.9499 101.55H132.87C133.096 101.56 133.317 101.619 133.517 101.725C133.717 101.83 133.891 101.979 134.026 102.159C134.162 102.34 134.256 102.549 134.302 102.77C134.347 102.991 134.343 103.22 134.29 103.44L129.74 124.65Z" fill="#83DADD"/>
<path opacity="0.34" d="M115.68 101.51L125.76 124.65H121.15L110.69 101.51H115.68Z" fill="#F0FBFA"/>
<path opacity="0.34" d="M108.15 101.51L118.23 124.65H116.43L105.98 101.51H108.15Z" fill="#F0FBFA"/>
<path d="M118.27 127.73C118.303 127.716 118.331 127.693 118.354 127.666C118.377 127.638 118.392 127.605 118.4 127.57C118.56 127.84 118.76 128.1 119.05 128.13C119.34 128.16 119.69 127.86 119.89 127.61C120.17 128.23 120.59 128.77 121.22 128.71C121.85 128.65 122.02 128.14 122.06 127.55C122.174 127.762 122.312 127.959 122.47 128.14C123.06 128.81 123.88 128.21 124.21 127.58C124.237 127.54 124.252 127.493 124.252 127.445C124.252 127.397 124.237 127.35 124.21 127.31C124.215 127.287 124.215 127.263 124.21 127.24C124.155 126.604 124.024 125.976 123.82 125.37C123.712 124.872 123.482 124.408 123.15 124.02C122.5 123.48 122.03 124.34 121.8 124.95C121.7 124.31 121.44 123.73 120.65 123.95C120.414 124.022 120.199 124.151 120.025 124.325C119.85 124.499 119.722 124.714 119.65 124.95C119.555 124.664 119.394 124.403 119.18 124.19C118.62 123.68 118.05 124.39 117.86 124.89C117.765 125.118 117.717 125.363 117.72 125.61L117.58 125.53C117.14 125.38 116.74 125.95 116.63 126.29C116.559 126.511 116.555 126.748 116.616 126.971C116.678 127.194 116.804 127.395 116.978 127.548C117.152 127.701 117.367 127.8 117.597 127.832C117.826 127.864 118.06 127.829 118.27 127.73Z" fill="#FFD2A7"/>
<path d="M81.0299 77.4005H80.8999L78.8999 77.2405C78.7039 77.211 78.5258 77.1097 78.4001 76.9564C78.2745 76.803 78.2103 76.6085 78.2199 76.4105V74.5705C78.2088 74.3631 78.2787 74.1595 78.4149 74.0027C78.5511 73.846 78.743 73.7483 78.9499 73.7305H82.3899C82.4955 73.732 82.5992 73.7581 82.693 73.8067C82.7867 73.8553 82.8678 73.9251 82.9299 74.0105C83.0086 74.1226 83.0634 74.2497 83.0909 74.3839C83.1184 74.518 83.1181 74.6564 83.0899 74.7905L82.8499 75.7905C82.7654 76.2214 82.5414 76.6126 82.2124 76.9036C81.8835 77.1945 81.4679 77.3692 81.0299 77.4005ZM78.9399 74.1105C78.8859 74.1166 78.8337 74.1335 78.7862 74.1601C78.7388 74.1866 78.6971 74.2223 78.6636 74.2651C78.6301 74.3079 78.6055 74.357 78.5911 74.4094C78.5767 74.4618 78.5729 74.5166 78.5799 74.5705V76.4105C78.568 76.5159 78.5964 76.622 78.6595 76.7073C78.7226 76.7926 78.8156 76.8509 78.9199 76.8705L80.9199 77.0305C81.295 77.0322 81.6581 76.8986 81.9428 76.6544C82.2275 76.4101 82.4146 76.0715 82.4699 75.7005L82.7099 74.7005C82.7292 74.6202 82.7312 74.5368 82.7156 74.4558C82.7001 74.3747 82.6675 74.2979 82.6199 74.2305C82.5899 74.1922 82.5521 74.1608 82.509 74.1384C82.4659 74.1159 82.4184 74.103 82.3699 74.1005L78.9399 74.1105Z" fill="#0B3E66"/>
<path d="M86.3399 77.3997C85.9005 77.3679 85.4839 77.1918 85.1548 76.8989C84.8256 76.6059 84.6025 76.2125 84.5199 75.7797L84.2799 74.7797C84.2518 74.6457 84.2514 74.5073 84.2789 74.3731C84.3065 74.2389 84.3613 74.1119 84.4399 73.9997C84.502 73.9143 84.5831 73.8446 84.6769 73.796C84.7706 73.7474 84.8744 73.7213 84.9799 73.7197H88.4199C88.6268 73.7376 88.8187 73.8352 88.9549 73.992C89.0911 74.1488 89.1611 74.3523 89.1499 74.5597V76.4097C89.1596 76.6077 89.0953 76.8023 88.9697 76.9556C88.8441 77.109 88.666 77.2102 88.4699 77.2397L86.4699 77.3997H86.3399ZM84.9799 74.1097C84.9314 74.1123 84.884 74.1252 84.8408 74.1476C84.7977 74.17 84.7599 74.2014 84.7299 74.2397C84.6823 74.3072 84.6497 74.384 84.6342 74.465C84.6187 74.5461 84.6206 74.6295 84.6399 74.7097L84.8799 75.7097C84.9436 76.0744 85.134 76.4048 85.4176 76.6427C85.7012 76.8805 86.0598 77.0105 86.4299 77.0097L88.4299 76.8497C88.5342 76.8302 88.6273 76.7719 88.6903 76.6866C88.7534 76.6012 88.7818 76.4952 88.7699 76.3897V74.5697C88.7769 74.5158 88.7731 74.4611 88.7587 74.4086C88.7444 74.3562 88.7197 74.3072 88.6862 74.2644C88.6527 74.2216 88.611 74.1859 88.5636 74.1593C88.5162 74.1328 88.4639 74.1159 88.4099 74.1097H84.9799Z" fill="#0B3E66"/>
<path d="M82.9701 74.9205L82.8201 74.5805C83.0927 74.4478 83.3919 74.3789 83.6951 74.3789C83.9982 74.3789 84.2974 74.4478 84.5701 74.5805L84.3601 74.8805C84.1393 74.7862 83.9007 74.741 83.6607 74.7479C83.4207 74.7548 83.1851 74.8137 82.9701 74.9205Z" fill="#0B3E66"/>
<path d="M78.39 74.75H76.01V75.12H78.39V74.75Z" fill="#0B3E66"/>
<path d="M97.9199 43.7903C97.947 41.1531 98.6152 38.562 99.8668 36.2406C101.118 33.9191 102.916 31.937 105.104 30.4651C107.293 28.9932 109.806 28.0757 112.428 27.7918C115.05 27.5078 117.702 27.866 120.155 28.8353C122.608 29.8046 124.788 31.3559 126.508 33.3556C128.227 35.3553 129.435 37.7432 130.026 40.3135C130.617 42.8838 130.573 45.5593 129.9 48.1092C129.227 50.6592 127.943 53.007 126.16 54.9503C122.91 58.4903 120.55 63.0503 120.5 67.8503V68.3303L107.35 68.1903V67.7603C107.41 62.9403 105.14 58.3103 101.96 54.6903C99.3153 51.6794 97.8765 47.7975 97.9199 43.7903Z" fill="#EEBA5B"/>
<path d="M109.93 55.8804C109.93 55.8804 109.11 52.2904 108.55 48.7504C108.286 47.208 108.106 45.6524 108.01 44.0904C107.678 44.008 107.366 43.8619 107.09 43.6604C104.58 41.9004 106.92 38.3004 107.02 38.1504C107.092 38.0911 107.182 38.0586 107.275 38.0586C107.368 38.0586 107.458 38.0911 107.53 38.1504C107.73 38.2404 107.83 38.4204 107.74 38.5504C107.12 39.4804 105.87 42.1804 107.54 43.3404C107.677 43.4431 107.829 43.5241 107.99 43.5804C107.99 41.3604 108.49 41.2804 108.79 41.2404C109.011 41.1947 109.241 41.2066 109.456 41.2749C109.671 41.3432 109.866 41.4656 110.02 41.6304C110.136 41.8345 110.208 42.0604 110.233 42.2938C110.257 42.5273 110.232 42.7632 110.161 42.9868C110.09 43.2104 109.973 43.4167 109.818 43.5929C109.663 43.7691 109.473 43.9112 109.26 44.0104C109.109 44.0857 108.947 44.1364 108.78 44.1604C109.129 48.1284 109.767 52.0655 110.69 55.9404C110.69 56.1004 110.59 56.2104 110.37 56.1904H110.22C110.15 56.1666 110.087 56.1258 110.036 56.0718C109.986 56.0177 109.949 55.952 109.93 55.8804ZM109.15 41.7604C108.88 41.8304 108.76 42.4504 108.76 43.4504C109.42 43.0704 109.66 42.1004 109.39 41.7804C109.314 41.7499 109.23 41.7429 109.15 41.7604Z" fill="white"/>
<path d="M117.89 56.2397C117.837 56.2492 117.783 56.2492 117.73 56.2397C117.52 56.2397 117.38 56.1397 117.41 55.9897C118.426 52.1259 119.151 48.1916 119.58 44.2197C119.416 44.1921 119.257 44.1381 119.11 44.0597C118.898 43.9551 118.711 43.8078 118.559 43.6272C118.407 43.4465 118.294 43.2364 118.228 43.0101C118.161 42.7837 118.142 42.546 118.172 42.3118C118.201 42.0777 118.279 41.8523 118.4 41.6497C118.558 41.4907 118.753 41.3736 118.968 41.309C119.183 41.2444 119.41 41.2343 119.63 41.2797C119.94 41.3397 120.46 41.4297 120.39 43.6397C120.551 43.5912 120.703 43.5169 120.84 43.4197C122.53 42.2897 121.34 39.5697 120.74 38.6197C120.66 38.4897 120.74 38.3197 120.96 38.2197C121.039 38.1682 121.133 38.1461 121.226 38.157C121.319 38.168 121.406 38.2114 121.47 38.2797C121.57 38.4297 123.83 42.0797 121.29 43.7797C121.008 43.9749 120.693 44.1172 120.36 44.1997C120.225 45.7567 120.009 47.3056 119.71 48.8397C119.09 52.3997 118.19 55.9297 118.18 56.0097C118.152 56.0676 118.112 56.1185 118.062 56.1584C118.011 56.1982 117.953 56.226 117.89 56.2397ZM119.09 41.8697C118.81 42.1797 119.03 43.1497 119.68 43.5497C119.68 42.5497 119.6 41.9197 119.33 41.8497C119.06 41.7797 119.09 41.8497 119.09 41.8697Z" fill="white"/>
<path d="M109.94 55.4597L110.33 55.1397C111.392 54.2898 112.715 53.8334 114.074 53.848C115.434 53.8626 116.747 54.3472 117.79 55.2197L118.18 55.5497L118.09 68.6897L109.85 68.5997L109.94 55.4597ZM117.41 55.9097L117.29 55.8097C116.385 55.0532 115.247 54.633 114.068 54.6202C112.888 54.6074 111.741 55.003 110.82 55.7397L110.7 55.8297L110.58 67.8297L117.28 67.8997L117.41 55.9097Z" fill="white"/>
<path d="M107.09 69.2004L120.72 69.3404C120.985 69.3404 121.239 69.2351 121.427 69.0475C121.615 68.86 121.72 68.6056 121.72 68.3404C121.72 68.0752 121.615 67.8209 121.427 67.6333C121.239 67.4458 120.985 67.3404 120.72 67.3404L107.09 67.1904C106.825 67.1904 106.57 67.2958 106.383 67.4833C106.195 67.6709 106.09 67.9252 106.09 68.1904C106.089 68.3226 106.113 68.4537 106.163 68.5762C106.213 68.6987 106.286 68.8101 106.379 68.904C106.472 68.9979 106.583 69.0725 106.705 69.1234C106.827 69.1742 106.958 69.2004 107.09 69.2004Z" fill="#0B3E66"/>
<path d="M107.81 71.22L119.98 71.34C120.105 71.3349 120.228 71.3048 120.342 71.2515C120.455 71.1982 120.557 71.1227 120.641 71.0296C120.725 70.9364 120.789 70.8274 120.83 70.7089C120.871 70.5905 120.888 70.4651 120.88 70.34C120.888 70.2165 120.872 70.0926 120.832 69.9754C120.792 69.8582 120.73 69.7501 120.648 69.6572C120.566 69.5643 120.467 69.4884 120.356 69.434C120.244 69.3795 120.124 69.3476 120 69.34L107.83 69.21C107.581 69.2325 107.349 69.3477 107.18 69.5329C107.012 69.718 106.919 69.9596 106.92 70.21C106.916 70.4589 107.005 70.7004 107.17 70.8871C107.334 71.0739 107.563 71.1926 107.81 71.22Z" fill="#075085"/>
<path d="M107.78 73.2305L119.95 73.3605C120.199 73.3379 120.431 73.2227 120.6 73.0376C120.768 72.8524 120.861 72.6108 120.86 72.3605C120.861 72.1133 120.771 71.8742 120.607 71.6896C120.443 71.5049 120.216 71.3877 119.97 71.3605L107.81 71.2305C107.561 71.253 107.329 71.3682 107.16 71.5534C106.992 71.7385 106.899 71.9801 106.9 72.2305C106.898 72.4761 106.987 72.7139 107.149 72.8983C107.311 73.0828 107.536 73.201 107.78 73.2305Z" fill="#0B3E66"/>
<path d="M107.76 75.2405L119.93 75.3705C120.179 75.3479 120.411 75.2327 120.58 75.0476C120.748 74.8624 120.841 74.6208 120.84 74.3705C120.842 74.1233 120.751 73.8842 120.587 73.6996C120.423 73.5149 120.196 73.3977 119.95 73.3705L107.79 73.2305C107.541 73.253 107.309 73.3682 107.14 73.5534C106.972 73.7385 106.879 73.9801 106.88 74.2305C106.876 74.4779 106.963 74.718 107.126 74.9046C107.288 75.0911 107.514 75.2108 107.76 75.2405Z" fill="#075085"/>
<path d="M107.74 77.2598L119.91 77.3798C120.159 77.3572 120.391 77.242 120.559 77.0569C120.728 76.8717 120.821 76.6301 120.82 76.3798C120.821 76.1326 120.731 75.8935 120.567 75.7089C120.403 75.5242 120.176 75.407 119.93 75.3798L107.76 75.2598C107.635 75.2648 107.512 75.2949 107.398 75.3482C107.285 75.4015 107.183 75.477 107.099 75.5702C107.015 75.6633 106.951 75.7724 106.91 75.8908C106.869 76.0092 106.852 76.1347 106.86 76.2598C106.858 76.5054 106.947 76.7432 107.109 76.9276C107.271 77.1121 107.496 77.2303 107.74 77.2598Z" fill="#0B3E66"/>
<path d="M117.02 79.3698L110.59 79.2998C110.06 79.2998 109.551 79.0891 109.176 78.714C108.801 78.3389 108.59 77.8302 108.59 77.2998L119.09 77.3798C119.089 77.6476 119.034 77.9124 118.929 78.1586C118.823 78.4048 118.669 78.6272 118.476 78.8128C118.283 78.9984 118.055 79.1434 117.805 79.239C117.555 79.3347 117.288 79.3792 117.02 79.3698Z" fill="#075085"/>
<path d="M114.15 22.8C113.896 22.7369 113.672 22.59 113.512 22.3831C113.352 22.1762 113.267 21.9214 113.27 21.66L113.34 15.16C113.34 15.0077 113.37 14.8568 113.428 14.7161C113.487 14.5753 113.572 14.4475 113.68 14.3398C113.788 14.232 113.915 14.1466 114.056 14.0883C114.197 14.03 114.348 14 114.5 14C114.652 14 114.803 14.03 114.944 14.0883C115.085 14.1466 115.213 14.232 115.32 14.3398C115.428 14.4475 115.514 14.5753 115.572 14.7161C115.63 14.8568 115.66 15.0077 115.66 15.16L115.59 21.69C115.589 21.8419 115.557 21.992 115.498 22.1317C115.438 22.2714 115.351 22.3978 115.243 22.5038C115.134 22.6098 115.005 22.6932 114.864 22.7492C114.723 22.8052 114.572 22.8326 114.42 22.83C114.329 22.831 114.239 22.8209 114.15 22.8Z" fill="#EBA63F"/>
<path d="M103.09 24.85C102.795 24.7747 102.541 24.5884 102.38 24.33L98.95 18.68C98.7896 18.4148 98.741 18.0967 98.8151 17.7957C98.8892 17.4947 99.0798 17.2355 99.345 17.075C99.6102 16.9146 99.9283 16.866 100.229 16.9401C100.53 17.0142 100.79 17.2048 100.95 17.47L104.39 23.12C104.471 23.2486 104.525 23.3918 104.55 23.5414C104.575 23.6911 104.57 23.8443 104.536 23.9921C104.502 24.1399 104.438 24.2794 104.35 24.4026C104.261 24.5258 104.149 24.6303 104.02 24.71C103.883 24.7959 103.73 24.8526 103.57 24.8767C103.41 24.9008 103.246 24.8917 103.09 24.85Z" fill="#EBA63F"/>
<path d="M95.6499 33.3596L95.4499 33.2896L89.3899 30.5496C89.2514 30.484 89.1271 30.3917 89.0242 30.278C88.9214 30.1643 88.8419 30.0315 88.7903 29.8871C88.7388 29.7427 88.7162 29.5896 88.7239 29.4364C88.7315 29.2833 88.7692 29.1332 88.8349 28.9946C88.9006 28.8561 88.9929 28.7318 89.1065 28.629C89.2202 28.5261 89.3531 28.4466 89.4975 28.3951C89.6418 28.3435 89.795 28.321 89.9481 28.3286C90.1012 28.3362 90.2514 28.374 90.3899 28.4396L96.3899 31.1796C96.6475 31.302 96.8509 31.515 96.9614 31.7779C97.0719 32.0407 97.0817 32.3351 96.989 32.6047C96.8962 32.8744 96.7074 33.1004 96.4585 33.2397C96.2097 33.3789 95.9182 33.4216 95.6399 33.3596H95.6499Z" fill="#EBA63F"/>
<path d="M87.43 47.2002C87.1854 47.1378 86.9675 46.998 86.8089 46.8015C86.6503 46.605 86.5595 46.3625 86.55 46.1102C86.5447 45.9584 86.5695 45.807 86.623 45.6648C86.6766 45.5225 86.7577 45.3923 86.8619 45.2817C86.966 45.171 87.0911 45.0821 87.2298 45.0201C87.3685 44.958 87.5181 44.9241 87.67 44.9202L93.18 44.7402C93.4425 44.7866 93.6809 44.9219 93.8553 45.1235C94.0297 45.325 94.1294 45.5804 94.1376 45.8468C94.1458 46.1132 94.0621 46.3742 93.9004 46.5861C93.7388 46.798 93.5091 46.9478 93.25 47.0102L87.75 47.1902C87.6439 47.2039 87.5368 47.2072 87.43 47.2002Z" fill="#EBA63F"/>
<path d="M125.94 25.1004C125.816 25.0658 125.698 25.0118 125.59 24.9404C125.461 24.8591 125.35 24.7529 125.262 24.6282C125.175 24.5034 125.113 24.3625 125.08 24.2136C125.048 24.0647 125.045 23.9109 125.072 23.761C125.1 23.6111 125.157 23.4681 125.24 23.3404L128.84 17.7704C128.911 17.6221 129.012 17.4905 129.138 17.3844C129.263 17.2783 129.41 17.2001 129.568 17.155C129.726 17.1098 129.892 17.0988 130.055 17.1226C130.217 17.1464 130.373 17.2044 130.511 17.293C130.65 17.3815 130.768 17.4984 130.858 17.636C130.948 17.7736 131.007 17.9288 131.033 18.0912C131.058 18.2535 131.049 18.4195 131.005 18.578C130.962 18.7364 130.885 18.8838 130.78 19.0104L127.19 24.5804C127.061 24.786 126.872 24.9464 126.648 25.0396C126.424 25.1327 126.177 25.154 125.94 25.1004Z" fill="#EBA63F"/>
<path d="M133.23 33.7595C133.055 33.7174 132.892 33.6349 132.755 33.5185C132.618 33.4022 132.51 33.2552 132.44 33.0895C132.381 32.949 132.35 32.7982 132.349 32.6458C132.348 32.4933 132.377 32.3422 132.435 32.201C132.492 32.0598 132.577 31.9314 132.684 31.8231C132.792 31.7147 132.919 31.6286 133.06 31.5695L139.17 28.9695C139.311 28.8994 139.466 28.8588 139.623 28.8503C139.781 28.8418 139.939 28.8656 140.087 28.9202C140.235 28.9748 140.37 29.0591 140.485 29.1679C140.599 29.2767 140.69 29.4077 140.752 29.5529C140.814 29.6981 140.846 29.8544 140.846 30.0123C140.845 30.1702 140.812 30.3263 140.749 30.4711C140.686 30.6159 140.595 30.7463 140.479 30.8544C140.364 30.9624 140.228 31.0459 140.08 31.0995L133.96 33.7095C133.728 33.8052 133.472 33.8228 133.23 33.7595Z" fill="#F4D593"/>
<path d="M135.65 47.4799C135.375 47.4064 135.136 47.234 134.98 46.9958C134.823 46.7575 134.76 46.47 134.802 46.1881C134.844 45.9062 134.988 45.6497 135.207 45.4674C135.427 45.2852 135.705 45.1899 135.99 45.1999L141.49 45.4999C141.795 45.5205 142.08 45.6597 142.284 45.8878C142.487 46.1158 142.594 46.4145 142.58 46.7199C142.572 46.8719 142.535 47.0209 142.469 47.1582C142.403 47.2954 142.311 47.4183 142.198 47.5197C142.084 47.6211 141.952 47.699 141.808 47.7488C141.664 47.7986 141.512 47.8194 141.36 47.8099L135.86 47.5099C135.789 47.5098 135.718 47.4997 135.65 47.4799Z" fill="#EEBA5B"/>
<defs>
<linearGradient id="paint0_linear_2009_8862" x1="23.7101" y1="234.54" x2="280.38" y2="97.87" gradientUnits="userSpaceOnUse">
<stop stop-color="white"/>
<stop offset="1" stop-color="#D3DBEB"/>
</linearGradient>
</defs>
</svg>
