<svg width="28" height="36" viewBox="0 0 28 36" fill="none" xmlns="http://www.w3.org/2000/svg">
<path fill-rule="evenodd" clip-rule="evenodd" d="M16.4889 14.7252H25.2L18.6667 23.5263L11.5111 32.7367V21.2748H2.80002L10 12.2691L16.4889 3.26332V14.7252ZM7.75854 10.6117L14.2069 1.66213C14.9129 0.682306 16.1799 0.265431 17.3405 0.631103C18.5011 0.996775 19.2889 2.06106 19.2889 3.26332V11.9621H25.2C26.2549 11.9621 27.2202 12.5471 27.6973 13.4756C28.1744 14.4041 28.0821 15.5183 27.4588 16.3581L20.9254 25.1592C20.9134 25.1754 20.9012 25.1915 20.8888 25.2074L13.7332 34.4179C13.0032 35.3575 11.7478 35.7337 10.6116 35.3534C9.47548 34.973 8.71112 33.9207 8.71112 32.7367V24.038H2.80002C1.72711 24.038 0.748536 23.4329 0.280493 22.4802C-0.18755 21.5275 -0.0627551 20.3946 0.601803 19.5634L7.75854 10.6117Z" fill="#0B3E66"/>
</svg>
